<xmeml version="4">
    <bin>
        <name>AUTOSEQ_1</name>
        <labels>
            <label2>Mango</label2>
        </labels>
        <children>
            <bin>
                <name>AUTOSEQ_1_MASTER_CLIPS</name>
                <labels>
                    <label2>Mango</label2>
                </labels>
                <children>
                <clip explodedTracks="true" id="MASTER_1">
    <masterclipid>MASTER_1</masterclipid>
    <ismasterclip>TRUE</ismasterclip>
    <duration>923</duration>
    <rate>
        <timebase>25</timebase>
        <ntsc>FALSE</ntsc>
    </rate>
    <in>0</in>
    <out>923</out>
    <name>A001_06071220_C001.mov</name>
    <media>
        <video>
            <track>
                <clipitem id="MASTER_1_COMPONENT_1">
                    <masterclipid>MASTER_1</masterclipid>
                    <name>A001_06071220_C001.mov</name>
                    <rate>
                        <timebase>25</timebase>
                        <ntsc>FALSE</ntsc>
                    </rate>
                    <alphatype>none</alphatype>
                    <pixelaspectratio>square</pixelaspectratio>
                    <anamorphic>FALSE</anamorphic>
                    <file id="MASTER_1_FILE_1">
                        <name>A001_06071220_C001.mov</name>
                        <pathurl>localhost://Q%3A/Projects/HAZEN_ALPHA/MEDIA_OCM/DAY%201/A001_06071220_C001.mov</pathurl>
                        <rate>
                            <timebase>25</timebase>
                            <ntsc>FALSE</ntsc>
                        </rate>
                        <media>
                            <video />
                            <audio />
                        </media>
                    </file>
                </clipitem>
            </track>
        </video>
    </media>
	<logginginfo>
        <description />
        <scene />
        <shottake />
        <lognote />
    </logginginfo>
    <labels>
        <label2>Iris</label2>
    </labels>
</clip><clip explodedTracks="true" id="MASTER_2">
    <masterclipid>MASTER_2</masterclipid>
    <ismasterclip>TRUE</ismasterclip>
    <duration>918</duration>
    <rate>
        <timebase>25</timebase>
        <ntsc>FALSE</ntsc>
    </rate>
    <in>0</in>
    <out>918</out>
    <name>A001_06071221_C002.mov</name>
    <media>
        <video>
            <track>
                <clipitem id="MASTER_2_COMPONENT_1">
                    <masterclipid>MASTER_2</masterclipid>
                    <name>A001_06071221_C002.mov</name>
                    <rate>
                        <timebase>25</timebase>
                        <ntsc>FALSE</ntsc>
                    </rate>
                    <alphatype>none</alphatype>
                    <pixelaspectratio>square</pixelaspectratio>
                    <anamorphic>FALSE</anamorphic>
                    <file id="MASTER_2_FILE_1">
                        <name>A001_06071221_C002.mov</name>
                        <pathurl>localhost://Q%3A/Projects/HAZEN_ALPHA/MEDIA_OCM/DAY%201/A001_06071221_C002.mov</pathurl>
                        <rate>
                            <timebase>25</timebase>
                            <ntsc>FALSE</ntsc>
                        </rate>
                        <media>
                            <video />
                            <audio />
                        </media>
                    </file>
                </clipitem>
            </track>
        </video>
    </media>
	<logginginfo>
        <description />
        <scene />
        <shottake />
        <lognote />
    </logginginfo>
    <labels>
        <label2>Iris</label2>
    </labels>
</clip><clip explodedTracks="true" id="MASTER_3">
    <masterclipid>MASTER_3</masterclipid>
    <ismasterclip>TRUE</ismasterclip>
    <duration>1798</duration>
    <rate>
        <timebase>25</timebase>
        <ntsc>FALSE</ntsc>
    </rate>
    <in>0</in>
    <out>1798</out>
    <name>A001_06071223_C003.mov</name>
    <media>
        <video>
            <track>
                <clipitem id="MASTER_3_COMPONENT_1">
                    <masterclipid>MASTER_3</masterclipid>
                    <name>A001_06071223_C003.mov</name>
                    <rate>
                        <timebase>25</timebase>
                        <ntsc>FALSE</ntsc>
                    </rate>
                    <alphatype>none</alphatype>
                    <pixelaspectratio>square</pixelaspectratio>
                    <anamorphic>FALSE</anamorphic>
                    <file id="MASTER_3_FILE_1">
                        <name>A001_06071223_C003.mov</name>
                        <pathurl>localhost://Q%3A/Projects/HAZEN_ALPHA/MEDIA_OCM/DAY%201/A001_06071223_C003.mov</pathurl>
                        <rate>
                            <timebase>25</timebase>
                            <ntsc>FALSE</ntsc>
                        </rate>
                        <media>
                            <video />
                            <audio />
                        </media>
                    </file>
                </clipitem>
            </track>
        </video>
    </media>
	<logginginfo>
        <description />
        <scene />
        <shottake />
        <lognote />
    </logginginfo>
    <labels>
        <label2>Iris</label2>
    </labels>
</clip><clip explodedTracks="true" id="MASTER_4">
    <masterclipid>MASTER_4</masterclipid>
    <ismasterclip>TRUE</ismasterclip>
    <duration>2873</duration>
    <rate>
        <timebase>25</timebase>
        <ntsc>FALSE</ntsc>
    </rate>
    <in>0</in>
    <out>2873</out>
    <name>A001_06071229_C004.mov</name>
    <media>
        <video>
            <track>
                <clipitem id="MASTER_4_COMPONENT_1">
                    <masterclipid>MASTER_4</masterclipid>
                    <name>A001_06071229_C004.mov</name>
                    <rate>
                        <timebase>25</timebase>
                        <ntsc>FALSE</ntsc>
                    </rate>
                    <alphatype>none</alphatype>
                    <pixelaspectratio>square</pixelaspectratio>
                    <anamorphic>FALSE</anamorphic>
                    <file id="MASTER_4_FILE_1">
                        <name>A001_06071229_C004.mov</name>
                        <pathurl>localhost://Q%3A/Projects/HAZEN_ALPHA/MEDIA_OCM/DAY%201/A001_06071229_C004.mov</pathurl>
                        <rate>
                            <timebase>25</timebase>
                            <ntsc>FALSE</ntsc>
                        </rate>
                        <media>
                            <video />
                            <audio />
                        </media>
                    </file>
                </clipitem>
            </track>
        </video>
    </media>
	<logginginfo>
        <description />
        <scene />
        <shottake />
        <lognote />
    </logginginfo>
    <labels>
        <label2>Iris</label2>
    </labels>
</clip><clip explodedTracks="true" id="MASTER_5">
    <masterclipid>MASTER_5</masterclipid>
    <ismasterclip>TRUE</ismasterclip>
    <duration>601</duration>
    <rate>
        <timebase>25</timebase>
        <ntsc>FALSE</ntsc>
    </rate>
    <in>0</in>
    <out>601</out>
    <name>A001_06071243_C005.mov</name>
    <media>
        <video>
            <track>
                <clipitem id="MASTER_5_COMPONENT_1">
                    <masterclipid>MASTER_5</masterclipid>
                    <name>A001_06071243_C005.mov</name>
                    <rate>
                        <timebase>25</timebase>
                        <ntsc>FALSE</ntsc>
                    </rate>
                    <alphatype>none</alphatype>
                    <pixelaspectratio>square</pixelaspectratio>
                    <anamorphic>FALSE</anamorphic>
                    <file id="MASTER_5_FILE_1">
                        <name>A001_06071243_C005.mov</name>
                        <pathurl>localhost://Q%3A/Projects/HAZEN_ALPHA/MEDIA_OCM/DAY%201/A001_06071243_C005.mov</pathurl>
                        <rate>
                            <timebase>25</timebase>
                            <ntsc>FALSE</ntsc>
                        </rate>
                        <media>
                            <video />
                            <audio />
                        </media>
                    </file>
                </clipitem>
            </track>
        </video>
    </media>
	<logginginfo>
        <description />
        <scene />
        <shottake />
        <lognote />
    </logginginfo>
    <labels>
        <label2>Iris</label2>
    </labels>
</clip></children>
            </bin>


            <sequence MZ.EditLine="359280230400000" MZ.Sequence.AudioTimeDisplayFormat="200" MZ.Sequence.EditingModeGUID="d8484cf3-c96c-4622-ab1f-ac1a16e196f9" MZ.Sequence.PreviewFrameSizeHeight="1080" MZ.Sequence.PreviewFrameSizeWidth="1920" MZ.Sequence.PreviewRenderingClassID="1297106761" MZ.Sequence.PreviewRenderingPresetCodec="1297107278" MZ.Sequence.PreviewRenderingPresetPath="EncoderPresets\SequencePreview\d8484cf3-c96c-4622-ab1f-ac1a16e196f9\I-Frame Only MPEG.epr" MZ.Sequence.PreviewUseMaxBitDepth="false" MZ.Sequence.PreviewUseMaxRenderQuality="false" MZ.Sequence.VideoTimeDisplayFormat="101" MZ.WorkInPoint="0" MZ.WorkOutPoint="72272632320000" MZ.ZeroPoint="11281612608000000" Monitor.ProgramZoomIn="0" Monitor.ProgramZoomOut="365386775040000" TL.SQAVDividerPosition="0.5" TL.SQAudioVisibleBase="0" TL.SQHeaderWidth="236" TL.SQHideShyTracks="0" TL.SQTimePerPixel="2.2205228758169935" TL.SQVideoVisibleBase="0" TL.SQVisibleBaseTime="0" explodedTracks="true" id="AUTOSEQ_1">
                <duration>35961</duration>
                <rate>
                    <timebase>25</timebase>
                    <ntsc>FALSE</ntsc>
                </rate>
                <name>AUTOSEQ_1</name>
                <timecode>
                    <rate>
                        <timebase>25</timebase>
                        <ntsc>FALSE</ntsc>
                    </rate>
                    <string>12:20:13:00</string>
                    <frame>1110325</frame>
                    <displayformat>NDF</displayformat>
                </timecode>
                <media>
                    <video>
                        <format>
							<samplecharacteristics>
								<rate>
									<timebase>25</timebase>
									<ntsc>FALSE</ntsc>
								</rate>
								<codec>
									<name>prores</name>
								</codec>
								<width>2048</width>
								<height>1152</height>
								<pixelaspectratio>square</pixelaspectratio>
								<fielddominance>none</fielddominance>
							</samplecharacteristics>
						</format>
                        <track MZ.TrackTargeted="1" TL.SQTrackExpanded="0" TL.SQTrackExpandedHeight="25" TL.SQTrackShy="0">
                            <enabled>TRUE</enabled>
							<locked>FALSE</locked>
                        <clipitem>
    <masterclipid>MASTER_1</masterclipid>
    <name>A001_06071220_C001.mov</name>
    <enabled>TRUE</enabled>
    <duration>923</duration>
    <rate>
        <timebase>25</timebase>
        <ntsc>FALSE</ntsc>
    </rate>
    <start>0</start>
    <end>923</end>
    <in>0</in>
    <out>923</out>
    <alphatype />
    <file id="MASTER_1_FILE_1"><file id="MASTER_1_FILE_1">
                        <name>A001_06071220_C001.mov</name>
                        <pathurl>localhost://Q%3A/Projects/HAZEN_ALPHA/MEDIA_OCM/DAY%201/A001_06071220_C001.mov</pathurl>
                        <rate>
                            <timebase>25</timebase>
                            <ntsc>FALSE</ntsc>
                        </rate>
                        <media>
                            <video />
                            <audio />
                        </media>
                    </file>
                </file>
    <logginginfo>
        <description />
        <scene />
        <shottake />
        <lognote />
    </logginginfo>
    <labels>
        <label2>Iris</label2>
    </labels>
</clipitem><clipitem>
    <masterclipid>MASTER_2</masterclipid>
    <name>A001_06071221_C002.mov</name>
    <enabled>TRUE</enabled>
    <duration>918</duration>
    <rate>
        <timebase>25</timebase>
        <ntsc>FALSE</ntsc>
    </rate>
    <start>1926</start>
    <end>2844</end>
    <in>0</in>
    <out>918</out>
    <alphatype />
    <file id="MASTER_2_FILE_1"><file id="MASTER_2_FILE_1">
                        <name>A001_06071221_C002.mov</name>
                        <pathurl>localhost://Q%3A/Projects/HAZEN_ALPHA/MEDIA_OCM/DAY%201/A001_06071221_C002.mov</pathurl>
                        <rate>
                            <timebase>25</timebase>
                            <ntsc>FALSE</ntsc>
                        </rate>
                        <media>
                            <video />
                            <audio />
                        </media>
                    </file>
                </file>
    <logginginfo>
        <description />
        <scene />
        <shottake />
        <lognote />
    </logginginfo>
    <labels>
        <label2>Iris</label2>
    </labels>
</clipitem><clipitem>
    <masterclipid>MASTER_3</masterclipid>
    <name>A001_06071223_C003.mov</name>
    <enabled>TRUE</enabled>
    <duration>1798</duration>
    <rate>
        <timebase>25</timebase>
        <ntsc>FALSE</ntsc>
    </rate>
    <start>4820</start>
    <end>6618</end>
    <in>0</in>
    <out>1798</out>
    <alphatype />
    <file id="MASTER_3_FILE_1"><file id="MASTER_3_FILE_1">
                        <name>A001_06071223_C003.mov</name>
                        <pathurl>localhost://Q%3A/Projects/HAZEN_ALPHA/MEDIA_OCM/DAY%201/A001_06071223_C003.mov</pathurl>
                        <rate>
                            <timebase>25</timebase>
                            <ntsc>FALSE</ntsc>
                        </rate>
                        <media>
                            <video />
                            <audio />
                        </media>
                    </file>
                </file>
    <logginginfo>
        <description />
        <scene />
        <shottake />
        <lognote />
    </logginginfo>
    <labels>
        <label2>Iris</label2>
    </labels>
</clipitem><clipitem>
    <masterclipid>MASTER_4</masterclipid>
    <name>A001_06071229_C004.mov</name>
    <enabled>TRUE</enabled>
    <duration>2873</duration>
    <rate>
        <timebase>25</timebase>
        <ntsc>FALSE</ntsc>
    </rate>
    <start>13763</start>
    <end>16636</end>
    <in>0</in>
    <out>2873</out>
    <alphatype />
    <file id="MASTER_4_FILE_1"><file id="MASTER_4_FILE_1">
                        <name>A001_06071229_C004.mov</name>
                        <pathurl>localhost://Q%3A/Projects/HAZEN_ALPHA/MEDIA_OCM/DAY%201/A001_06071229_C004.mov</pathurl>
                        <rate>
                            <timebase>25</timebase>
                            <ntsc>FALSE</ntsc>
                        </rate>
                        <media>
                            <video />
                            <audio />
                        </media>
                    </file>
                </file>
    <logginginfo>
        <description />
        <scene />
        <shottake />
        <lognote />
    </logginginfo>
    <labels>
        <label2>Iris</label2>
    </labels>
</clipitem><clipitem>
    <masterclipid>MASTER_5</masterclipid>
    <name>A001_06071243_C005.mov</name>
    <enabled>TRUE</enabled>
    <duration>601</duration>
    <rate>
        <timebase>25</timebase>
        <ntsc>FALSE</ntsc>
    </rate>
    <start>35360</start>
    <end>35961</end>
    <in>0</in>
    <out>601</out>
    <alphatype />
    <file id="MASTER_5_FILE_1"><file id="MASTER_5_FILE_1">
                        <name>A001_06071243_C005.mov</name>
                        <pathurl>localhost://Q%3A/Projects/HAZEN_ALPHA/MEDIA_OCM/DAY%201/A001_06071243_C005.mov</pathurl>
                        <rate>
                            <timebase>25</timebase>
                            <ntsc>FALSE</ntsc>
                        </rate>
                        <media>
                            <video />
                            <audio />
                        </media>
                    </file>
                </file>
    <logginginfo>
        <description />
        <scene />
        <shottake />
        <lognote />
    </logginginfo>
    <labels>
        <label2>Iris</label2>
    </labels>
</clipitem></track>
                    </video>
                    <audio>
                        <track MZ.TrackTargeted="1" PannerCurrentValue="0.5" PannerName="Balance" PannerStartKeyframe="-91445760000000000,0.5,0,0,0,0,0,0" TL.SQTrackAudioKeyframeStyle="0" TL.SQTrackExpanded="0" TL.SQTrackExpandedHeight="25" TL.SQTrackShy="0" currentExplodedTrackIndex="0" premiereTrackType="Mono" totalExplodedTrackCount="1">
                            <enabled>TRUE</enabled>
							<locked>FALSE</locked>
                            <outputchannelindex />
                        </track>
                    </audio>
                </media>
            </sequence>


        </children>
    </bin>
</xmeml>
