<?xml version="1.0" encoding="UTF-8"?>
<!DOCTYPE xmeml>
<xmeml version="4">
	<project>
		<name>pr6_autoseq_(regurgitated)</name>
		<children>
			<bin>
				<name>Masterclips_Video</name>
				<labels>
					<label2>Mango</label2>
				</labels>
				<children>
					<clip id="masterclip-11" explodedTracks="true">
						<uuid>934aa612-580c-41e0-96c7-c054761af07b</uuid>
						<masterclipid>masterclip-11</masterclipid>
						<ismasterclip>TRUE</ismasterclip>
						<duration>923</duration>
						<rate>
							<timebase>25</timebase>
							<ntsc>FALSE</ntsc>
						</rate>
						<name>A001_06071220_C001</name>
						<media>
							<video>
								<track>
									<clipitem id="clipitem-50">
										<masterclipid>masterclip-11</masterclipid>
										<name>A001_06071220_C001</name>
										<rate>
											<timebase>25</timebase>
											<ntsc>FALSE</ntsc>
										</rate>
										<alphatype>none</alphatype>
										<pixelaspectratio>square</pixelaspectratio>
										<anamorphic>FALSE</anamorphic>
										<file id="file-11">
											<name>A001_06071220_C001.mov</name>
											<pathurl>file://localhost/Q%3a/Projects/HAZEN_ALPHA/MEDIA_OCM/DAY%201/A001_06071220_C001.mov</pathurl>
											<rate>
												<timebase>25</timebase>
												<ntsc>FALSE</ntsc>
											</rate>
											<duration>923</duration>
											<timecode>
												<rate>
													<timebase>25</timebase>
													<ntsc>FALSE</ntsc>
												</rate>
												<string>12:20:13:00</string>
												<frame>1110325</frame>
												<displayformat>NDF</displayformat>
											</timecode>
											<media>
												<video>
													<samplecharacteristics>
														<rate>
															<timebase>25</timebase>
															<ntsc>FALSE</ntsc>
														</rate>
														<width>2048</width>
														<height>1152</height>
														<anamorphic>FALSE</anamorphic>
														<pixelaspectratio>square</pixelaspectratio>
														<fielddominance>none</fielddominance>
													</samplecharacteristics>
												</video>
												<audio>
													<samplecharacteristics>
														<depth>16</depth>
														<samplerate>48000</samplerate>
													</samplecharacteristics>
													<channelcount>2</channelcount>
												</audio>
											</media>
										</file>
										<link>
											<linkclipref>clipitem-50</linkclipref>
											<mediatype>video</mediatype>
											<trackindex>1</trackindex>
											<clipindex>1</clipindex>
										</link>
										<link>
											<linkclipref>clipitem-51</linkclipref>
											<mediatype>audio</mediatype>
											<trackindex>1</trackindex>
											<clipindex>1</clipindex>
											<groupindex>1</groupindex>
										</link>
										<link>
											<linkclipref>clipitem-52</linkclipref>
											<mediatype>audio</mediatype>
											<trackindex>2</trackindex>
											<clipindex>1</clipindex>
											<groupindex>1</groupindex>
										</link>
									</clipitem>
								</track>
							</video>
							<audio>
								<track>
									<clipitem id="clipitem-51">
										<masterclipid>masterclip-11</masterclipid>
										<name>A001_06071220_C001</name>
										<rate>
											<timebase>25</timebase>
											<ntsc>FALSE</ntsc>
										</rate>
										<file id="file-11"/>
										<sourcetrack>
											<mediatype>audio</mediatype>
											<trackindex>1</trackindex>
										</sourcetrack>
										<link>
											<linkclipref>clipitem-50</linkclipref>
											<mediatype>video</mediatype>
											<trackindex>1</trackindex>
											<clipindex>1</clipindex>
										</link>
										<link>
											<linkclipref>clipitem-51</linkclipref>
											<mediatype>audio</mediatype>
											<trackindex>1</trackindex>
											<clipindex>1</clipindex>
											<groupindex>1</groupindex>
										</link>
										<link>
											<linkclipref>clipitem-52</linkclipref>
											<mediatype>audio</mediatype>
											<trackindex>2</trackindex>
											<clipindex>1</clipindex>
											<groupindex>1</groupindex>
										</link>
									</clipitem>
								</track>
								<track>
									<clipitem id="clipitem-52">
										<masterclipid>masterclip-11</masterclipid>
										<name>A001_06071220_C001</name>
										<rate>
											<timebase>25</timebase>
											<ntsc>FALSE</ntsc>
										</rate>
										<file id="file-11"/>
										<sourcetrack>
											<mediatype>audio</mediatype>
											<trackindex>2</trackindex>
										</sourcetrack>
										<link>
											<linkclipref>clipitem-50</linkclipref>
											<mediatype>video</mediatype>
											<trackindex>1</trackindex>
											<clipindex>1</clipindex>
										</link>
										<link>
											<linkclipref>clipitem-51</linkclipref>
											<mediatype>audio</mediatype>
											<trackindex>1</trackindex>
											<clipindex>1</clipindex>
											<groupindex>1</groupindex>
										</link>
										<link>
											<linkclipref>clipitem-52</linkclipref>
											<mediatype>audio</mediatype>
											<trackindex>2</trackindex>
											<clipindex>1</clipindex>
											<groupindex>1</groupindex>
										</link>
									</clipitem>
								</track>
							</audio>
						</media>
							<marker>
								<comment></comment>
								<name></name>
								<in>103</in>
								<out>-1</out>
							</marker>
						<logginginfo>
							<description></description>
							<scene></scene>
							<shottake></shottake>
							<lognote></lognote>
							<good></good>
							<originalvideofilename></originalvideofilename>
							<originalaudiofilename></originalaudiofilename>
						</logginginfo>
						<colorinfo>
							<lut></lut>
							<lut1></lut1>
							<asc_sop></asc_sop>
							<asc_sat></asc_sat>
							<lut2></lut2>
						</colorinfo>
						<labels>
						</labels>
					</clip>
					<clip id="masterclip-12" explodedTracks="true">
						<uuid>584a21c0-79d9-4b7e-a19d-0fd1c88a3e52</uuid>
						<masterclipid>masterclip-12</masterclipid>
						<ismasterclip>TRUE</ismasterclip>
						<duration>918</duration>
						<rate>
							<timebase>25</timebase>
							<ntsc>FALSE</ntsc>
						</rate>
						<name>A001_06071221_C002</name>
						<media>
							<video>
								<track>
									<clipitem id="clipitem-53">
										<masterclipid>masterclip-12</masterclipid>
										<name>A001_06071221_C002</name>
										<rate>
											<timebase>25</timebase>
											<ntsc>FALSE</ntsc>
										</rate>
										<alphatype>none</alphatype>
										<pixelaspectratio>square</pixelaspectratio>
										<anamorphic>FALSE</anamorphic>
										<file id="file-12">
											<name>A001_06071221_C002.mov</name>
											<pathurl>file://localhost/Q%3a/Projects/HAZEN_ALPHA/MEDIA_OCM/DAY%201/A001_06071221_C002.mov</pathurl>
											<rate>
												<timebase>25</timebase>
												<ntsc>FALSE</ntsc>
											</rate>
											<duration>918</duration>
											<timecode>
												<rate>
													<timebase>25</timebase>
													<ntsc>FALSE</ntsc>
												</rate>
												<string>12:21:30:01</string>
												<frame>1112251</frame>
												<displayformat>NDF</displayformat>
											</timecode>
											<media>
												<video>
													<samplecharacteristics>
														<rate>
															<timebase>25</timebase>
															<ntsc>FALSE</ntsc>
														</rate>
														<width>2048</width>
														<height>1152</height>
														<anamorphic>FALSE</anamorphic>
														<pixelaspectratio>square</pixelaspectratio>
														<fielddominance>none</fielddominance>
													</samplecharacteristics>
												</video>
												<audio>
													<samplecharacteristics>
														<depth>16</depth>
														<samplerate>48000</samplerate>
													</samplecharacteristics>
													<channelcount>2</channelcount>
												</audio>
											</media>
										</file>
										<link>
											<linkclipref>clipitem-53</linkclipref>
											<mediatype>video</mediatype>
											<trackindex>1</trackindex>
											<clipindex>1</clipindex>
										</link>
										<link>
											<linkclipref>clipitem-54</linkclipref>
											<mediatype>audio</mediatype>
											<trackindex>1</trackindex>
											<clipindex>1</clipindex>
											<groupindex>1</groupindex>
										</link>
										<link>
											<linkclipref>clipitem-55</linkclipref>
											<mediatype>audio</mediatype>
											<trackindex>2</trackindex>
											<clipindex>1</clipindex>
											<groupindex>1</groupindex>
										</link>
									</clipitem>
								</track>
							</video>
							<audio>
								<track>
									<clipitem id="clipitem-54">
										<masterclipid>masterclip-12</masterclipid>
										<name>A001_06071221_C002</name>
										<rate>
											<timebase>25</timebase>
											<ntsc>FALSE</ntsc>
										</rate>
										<file id="file-12"/>
										<sourcetrack>
											<mediatype>audio</mediatype>
											<trackindex>1</trackindex>
										</sourcetrack>
										<link>
											<linkclipref>clipitem-53</linkclipref>
											<mediatype>video</mediatype>
											<trackindex>1</trackindex>
											<clipindex>1</clipindex>
										</link>
										<link>
											<linkclipref>clipitem-54</linkclipref>
											<mediatype>audio</mediatype>
											<trackindex>1</trackindex>
											<clipindex>1</clipindex>
											<groupindex>1</groupindex>
										</link>
										<link>
											<linkclipref>clipitem-55</linkclipref>
											<mediatype>audio</mediatype>
											<trackindex>2</trackindex>
											<clipindex>1</clipindex>
											<groupindex>1</groupindex>
										</link>
									</clipitem>
								</track>
								<track>
									<clipitem id="clipitem-55">
										<masterclipid>masterclip-12</masterclipid>
										<name>A001_06071221_C002</name>
										<rate>
											<timebase>25</timebase>
											<ntsc>FALSE</ntsc>
										</rate>
										<file id="file-12"/>
										<sourcetrack>
											<mediatype>audio</mediatype>
											<trackindex>2</trackindex>
										</sourcetrack>
										<link>
											<linkclipref>clipitem-53</linkclipref>
											<mediatype>video</mediatype>
											<trackindex>1</trackindex>
											<clipindex>1</clipindex>
										</link>
										<link>
											<linkclipref>clipitem-54</linkclipref>
											<mediatype>audio</mediatype>
											<trackindex>1</trackindex>
											<clipindex>1</clipindex>
											<groupindex>1</groupindex>
										</link>
										<link>
											<linkclipref>clipitem-55</linkclipref>
											<mediatype>audio</mediatype>
											<trackindex>2</trackindex>
											<clipindex>1</clipindex>
											<groupindex>1</groupindex>
										</link>
									</clipitem>
								</track>
							</audio>
						</media>
							<marker>
								<comment></comment>
								<name></name>
								<in>120</in>
								<out>-1</out>
							</marker>
						<logginginfo>
							<description></description>
							<scene></scene>
							<shottake></shottake>
							<lognote></lognote>
							<good></good>
							<originalvideofilename></originalvideofilename>
							<originalaudiofilename></originalaudiofilename>
						</logginginfo>
						<colorinfo>
							<lut></lut>
							<lut1></lut1>
							<asc_sop></asc_sop>
							<asc_sat></asc_sat>
							<lut2></lut2>
						</colorinfo>
						<labels>
						</labels>
					</clip>
					<clip id="masterclip-13" explodedTracks="true">
						<uuid>c8117e73-7eeb-4973-a32c-18d657b6bf7d</uuid>
						<masterclipid>masterclip-13</masterclipid>
						<ismasterclip>TRUE</ismasterclip>
						<duration>1798</duration>
						<rate>
							<timebase>25</timebase>
							<ntsc>FALSE</ntsc>
						</rate>
						<name>A001_06071223_C003</name>
						<media>
							<video>
								<track>
									<clipitem id="clipitem-56">
										<masterclipid>masterclip-13</masterclipid>
										<name>A001_06071223_C003</name>
										<rate>
											<timebase>25</timebase>
											<ntsc>FALSE</ntsc>
										</rate>
										<alphatype>none</alphatype>
										<pixelaspectratio>square</pixelaspectratio>
										<anamorphic>FALSE</anamorphic>
										<file id="file-13">
											<name>A001_06071223_C003.mov</name>
											<pathurl>file://localhost/Q%3a/Projects/HAZEN_ALPHA/MEDIA_OCM/DAY%201/A001_06071223_C003.mov</pathurl>
											<rate>
												<timebase>25</timebase>
												<ntsc>FALSE</ntsc>
											</rate>
											<duration>1798</duration>
											<timecode>
												<rate>
													<timebase>25</timebase>
													<ntsc>FALSE</ntsc>
												</rate>
												<string>12:23:25:20</string>
												<frame>1115145</frame>
												<displayformat>NDF</displayformat>
											</timecode>
											<media>
												<video>
													<samplecharacteristics>
														<rate>
															<timebase>25</timebase>
															<ntsc>FALSE</ntsc>
														</rate>
														<width>2048</width>
														<height>1152</height>
														<anamorphic>FALSE</anamorphic>
														<pixelaspectratio>square</pixelaspectratio>
														<fielddominance>none</fielddominance>
													</samplecharacteristics>
												</video>
												<audio>
													<samplecharacteristics>
														<depth>16</depth>
														<samplerate>48000</samplerate>
													</samplecharacteristics>
													<channelcount>2</channelcount>
												</audio>
											</media>
										</file>
										<link>
											<linkclipref>clipitem-56</linkclipref>
											<mediatype>video</mediatype>
											<trackindex>1</trackindex>
											<clipindex>1</clipindex>
										</link>
										<link>
											<linkclipref>clipitem-57</linkclipref>
											<mediatype>audio</mediatype>
											<trackindex>1</trackindex>
											<clipindex>1</clipindex>
											<groupindex>1</groupindex>
										</link>
										<link>
											<linkclipref>clipitem-58</linkclipref>
											<mediatype>audio</mediatype>
											<trackindex>2</trackindex>
											<clipindex>1</clipindex>
											<groupindex>1</groupindex>
										</link>
									</clipitem>
								</track>
							</video>
							<audio>
								<track>
									<clipitem id="clipitem-57">
										<masterclipid>masterclip-13</masterclipid>
										<name>A001_06071223_C003</name>
										<rate>
											<timebase>25</timebase>
											<ntsc>FALSE</ntsc>
										</rate>
										<file id="file-13"/>
										<sourcetrack>
											<mediatype>audio</mediatype>
											<trackindex>1</trackindex>
										</sourcetrack>
										<link>
											<linkclipref>clipitem-56</linkclipref>
											<mediatype>video</mediatype>
											<trackindex>1</trackindex>
											<clipindex>1</clipindex>
										</link>
										<link>
											<linkclipref>clipitem-57</linkclipref>
											<mediatype>audio</mediatype>
											<trackindex>1</trackindex>
											<clipindex>1</clipindex>
											<groupindex>1</groupindex>
										</link>
										<link>
											<linkclipref>clipitem-58</linkclipref>
											<mediatype>audio</mediatype>
											<trackindex>2</trackindex>
											<clipindex>1</clipindex>
											<groupindex>1</groupindex>
										</link>
									</clipitem>
								</track>
								<track>
									<clipitem id="clipitem-58">
										<masterclipid>masterclip-13</masterclipid>
										<name>A001_06071223_C003</name>
										<rate>
											<timebase>25</timebase>
											<ntsc>FALSE</ntsc>
										</rate>
										<file id="file-13"/>
										<sourcetrack>
											<mediatype>audio</mediatype>
											<trackindex>2</trackindex>
										</sourcetrack>
										<link>
											<linkclipref>clipitem-56</linkclipref>
											<mediatype>video</mediatype>
											<trackindex>1</trackindex>
											<clipindex>1</clipindex>
										</link>
										<link>
											<linkclipref>clipitem-57</linkclipref>
											<mediatype>audio</mediatype>
											<trackindex>1</trackindex>
											<clipindex>1</clipindex>
											<groupindex>1</groupindex>
										</link>
										<link>
											<linkclipref>clipitem-58</linkclipref>
											<mediatype>audio</mediatype>
											<trackindex>2</trackindex>
											<clipindex>1</clipindex>
											<groupindex>1</groupindex>
										</link>
									</clipitem>
								</track>
							</audio>
						</media>
							<marker>
								<comment></comment>
								<name></name>
								<in>99</in>
								<out>-1</out>
							</marker>
							<marker>
								<comment></comment>
								<name></name>
								<in>1123</in>
								<out>-1</out>
								<pproColor>4281828977</pproColor>
							</marker>
						<logginginfo>
							<description></description>
							<scene></scene>
							<shottake></shottake>
							<lognote></lognote>
							<good></good>
							<originalvideofilename></originalvideofilename>
							<originalaudiofilename></originalaudiofilename>
						</logginginfo>
						<colorinfo>
							<lut></lut>
							<lut1></lut1>
							<asc_sop></asc_sop>
							<asc_sat></asc_sat>
							<lut2></lut2>
						</colorinfo>
						<labels>
						</labels>
					</clip>
					<clip id="masterclip-14" explodedTracks="true">
						<uuid>a884970e-1fd1-46c6-a7d9-91d527362155</uuid>
						<masterclipid>masterclip-14</masterclipid>
						<ismasterclip>TRUE</ismasterclip>
						<duration>2873</duration>
						<rate>
							<timebase>25</timebase>
							<ntsc>FALSE</ntsc>
						</rate>
						<name>A001_06071229_C004</name>
						<media>
							<video>
								<track>
									<clipitem id="clipitem-59">
										<masterclipid>masterclip-14</masterclipid>
										<name>A001_06071229_C004</name>
										<rate>
											<timebase>25</timebase>
											<ntsc>FALSE</ntsc>
										</rate>
										<alphatype>none</alphatype>
										<pixelaspectratio>square</pixelaspectratio>
										<anamorphic>FALSE</anamorphic>
										<file id="file-14">
											<name>A001_06071229_C004.mov</name>
											<pathurl>file://localhost/Q%3a/Projects/HAZEN_ALPHA/MEDIA_OCM/DAY%201/A001_06071229_C004.mov</pathurl>
											<rate>
												<timebase>25</timebase>
												<ntsc>FALSE</ntsc>
											</rate>
											<duration>2873</duration>
											<timecode>
												<rate>
													<timebase>25</timebase>
													<ntsc>FALSE</ntsc>
												</rate>
												<string>12:29:23:13</string>
												<frame>1124088</frame>
												<displayformat>NDF</displayformat>
											</timecode>
											<media>
												<video>
													<samplecharacteristics>
														<rate>
															<timebase>25</timebase>
															<ntsc>FALSE</ntsc>
														</rate>
														<width>2048</width>
														<height>1152</height>
														<anamorphic>FALSE</anamorphic>
														<pixelaspectratio>square</pixelaspectratio>
														<fielddominance>none</fielddominance>
													</samplecharacteristics>
												</video>
												<audio>
													<samplecharacteristics>
														<depth>16</depth>
														<samplerate>48000</samplerate>
													</samplecharacteristics>
													<channelcount>2</channelcount>
												</audio>
											</media>
										</file>
										<link>
											<linkclipref>clipitem-59</linkclipref>
											<mediatype>video</mediatype>
											<trackindex>1</trackindex>
											<clipindex>1</clipindex>
										</link>
										<link>
											<linkclipref>clipitem-60</linkclipref>
											<mediatype>audio</mediatype>
											<trackindex>1</trackindex>
											<clipindex>1</clipindex>
											<groupindex>1</groupindex>
										</link>
										<link>
											<linkclipref>clipitem-61</linkclipref>
											<mediatype>audio</mediatype>
											<trackindex>2</trackindex>
											<clipindex>1</clipindex>
											<groupindex>1</groupindex>
										</link>
									</clipitem>
								</track>
							</video>
							<audio>
								<track>
									<clipitem id="clipitem-60">
										<masterclipid>masterclip-14</masterclipid>
										<name>A001_06071229_C004</name>
										<rate>
											<timebase>25</timebase>
											<ntsc>FALSE</ntsc>
										</rate>
										<file id="file-14"/>
										<sourcetrack>
											<mediatype>audio</mediatype>
											<trackindex>1</trackindex>
										</sourcetrack>
										<link>
											<linkclipref>clipitem-59</linkclipref>
											<mediatype>video</mediatype>
											<trackindex>1</trackindex>
											<clipindex>1</clipindex>
										</link>
										<link>
											<linkclipref>clipitem-60</linkclipref>
											<mediatype>audio</mediatype>
											<trackindex>1</trackindex>
											<clipindex>1</clipindex>
											<groupindex>1</groupindex>
										</link>
										<link>
											<linkclipref>clipitem-61</linkclipref>
											<mediatype>audio</mediatype>
											<trackindex>2</trackindex>
											<clipindex>1</clipindex>
											<groupindex>1</groupindex>
										</link>
									</clipitem>
								</track>
								<track>
									<clipitem id="clipitem-61">
										<masterclipid>masterclip-14</masterclipid>
										<name>A001_06071229_C004</name>
										<rate>
											<timebase>25</timebase>
											<ntsc>FALSE</ntsc>
										</rate>
										<file id="file-14"/>
										<sourcetrack>
											<mediatype>audio</mediatype>
											<trackindex>2</trackindex>
										</sourcetrack>
										<link>
											<linkclipref>clipitem-59</linkclipref>
											<mediatype>video</mediatype>
											<trackindex>1</trackindex>
											<clipindex>1</clipindex>
										</link>
										<link>
											<linkclipref>clipitem-60</linkclipref>
											<mediatype>audio</mediatype>
											<trackindex>1</trackindex>
											<clipindex>1</clipindex>
											<groupindex>1</groupindex>
										</link>
										<link>
											<linkclipref>clipitem-61</linkclipref>
											<mediatype>audio</mediatype>
											<trackindex>2</trackindex>
											<clipindex>1</clipindex>
											<groupindex>1</groupindex>
										</link>
									</clipitem>
								</track>
							</audio>
						</media>
							<marker>
								<comment></comment>
								<name></name>
								<in>2565</in>
								<out>-1</out>
								<pproColor>4281828977</pproColor>
							</marker>
							<marker>
								<comment></comment>
								<name></name>
								<in>180</in>
								<out>-1</out>
								<pproColor>4281828977</pproColor>
							</marker>
						<logginginfo>
							<description></description>
							<scene></scene>
							<shottake></shottake>
							<lognote></lognote>
							<good></good>
							<originalvideofilename></originalvideofilename>
							<originalaudiofilename></originalaudiofilename>
						</logginginfo>
						<colorinfo>
							<lut></lut>
							<lut1></lut1>
							<asc_sop></asc_sop>
							<asc_sat></asc_sat>
							<lut2></lut2>
						</colorinfo>
						<labels>
						</labels>
					</clip>
					<clip id="masterclip-15" explodedTracks="true">
						<uuid>2fd47cb2-0c37-4619-b2ea-3a7c6bbbe8e0</uuid>
						<masterclipid>masterclip-15</masterclipid>
						<ismasterclip>TRUE</ismasterclip>
						<duration>601</duration>
						<rate>
							<timebase>25</timebase>
							<ntsc>FALSE</ntsc>
						</rate>
						<name>A001_06071243_C005</name>
						<media>
							<video>
								<track>
									<clipitem id="clipitem-62">
										<masterclipid>masterclip-15</masterclipid>
										<name>A001_06071243_C005</name>
										<rate>
											<timebase>25</timebase>
											<ntsc>FALSE</ntsc>
										</rate>
										<alphatype>none</alphatype>
										<pixelaspectratio>square</pixelaspectratio>
										<anamorphic>FALSE</anamorphic>
										<file id="file-15">
											<name>A001_06071243_C005.mov</name>
											<pathurl>file://localhost/Q%3a/Projects/HAZEN_ALPHA/MEDIA_OCM/DAY%201/A001_06071243_C005.mov</pathurl>
											<rate>
												<timebase>25</timebase>
												<ntsc>FALSE</ntsc>
											</rate>
											<duration>601</duration>
											<timecode>
												<rate>
													<timebase>25</timebase>
													<ntsc>FALSE</ntsc>
												</rate>
												<string>12:43:47:10</string>
												<frame>1145685</frame>
												<displayformat>NDF</displayformat>
											</timecode>
											<media>
												<video>
													<samplecharacteristics>
														<rate>
															<timebase>25</timebase>
															<ntsc>FALSE</ntsc>
														</rate>
														<width>2048</width>
														<height>1152</height>
														<anamorphic>FALSE</anamorphic>
														<pixelaspectratio>square</pixelaspectratio>
														<fielddominance>none</fielddominance>
													</samplecharacteristics>
												</video>
												<audio>
													<samplecharacteristics>
														<depth>16</depth>
														<samplerate>48000</samplerate>
													</samplecharacteristics>
													<channelcount>2</channelcount>
												</audio>
											</media>
										</file>
										<link>
											<linkclipref>clipitem-62</linkclipref>
											<mediatype>video</mediatype>
											<trackindex>1</trackindex>
											<clipindex>1</clipindex>
										</link>
										<link>
											<linkclipref>clipitem-63</linkclipref>
											<mediatype>audio</mediatype>
											<trackindex>1</trackindex>
											<clipindex>1</clipindex>
											<groupindex>1</groupindex>
										</link>
										<link>
											<linkclipref>clipitem-64</linkclipref>
											<mediatype>audio</mediatype>
											<trackindex>2</trackindex>
											<clipindex>1</clipindex>
											<groupindex>1</groupindex>
										</link>
									</clipitem>
								</track>
							</video>
							<audio>
								<track>
									<clipitem id="clipitem-63">
										<masterclipid>masterclip-15</masterclipid>
										<name>A001_06071243_C005</name>
										<rate>
											<timebase>25</timebase>
											<ntsc>FALSE</ntsc>
										</rate>
										<file id="file-15"/>
										<sourcetrack>
											<mediatype>audio</mediatype>
											<trackindex>1</trackindex>
										</sourcetrack>
										<link>
											<linkclipref>clipitem-62</linkclipref>
											<mediatype>video</mediatype>
											<trackindex>1</trackindex>
											<clipindex>1</clipindex>
										</link>
										<link>
											<linkclipref>clipitem-63</linkclipref>
											<mediatype>audio</mediatype>
											<trackindex>1</trackindex>
											<clipindex>1</clipindex>
											<groupindex>1</groupindex>
										</link>
										<link>
											<linkclipref>clipitem-64</linkclipref>
											<mediatype>audio</mediatype>
											<trackindex>2</trackindex>
											<clipindex>1</clipindex>
											<groupindex>1</groupindex>
										</link>
									</clipitem>
								</track>
								<track>
									<clipitem id="clipitem-64">
										<masterclipid>masterclip-15</masterclipid>
										<name>A001_06071243_C005</name>
										<rate>
											<timebase>25</timebase>
											<ntsc>FALSE</ntsc>
										</rate>
										<file id="file-15"/>
										<sourcetrack>
											<mediatype>audio</mediatype>
											<trackindex>2</trackindex>
										</sourcetrack>
										<link>
											<linkclipref>clipitem-62</linkclipref>
											<mediatype>video</mediatype>
											<trackindex>1</trackindex>
											<clipindex>1</clipindex>
										</link>
										<link>
											<linkclipref>clipitem-63</linkclipref>
											<mediatype>audio</mediatype>
											<trackindex>1</trackindex>
											<clipindex>1</clipindex>
											<groupindex>1</groupindex>
										</link>
										<link>
											<linkclipref>clipitem-64</linkclipref>
											<mediatype>audio</mediatype>
											<trackindex>2</trackindex>
											<clipindex>1</clipindex>
											<groupindex>1</groupindex>
										</link>
									</clipitem>
								</track>
							</audio>
						</media>
						<logginginfo>
							<description></description>
							<scene></scene>
							<shottake></shottake>
							<lognote></lognote>
							<good></good>
							<originalvideofilename></originalvideofilename>
							<originalaudiofilename></originalaudiofilename>
						</logginginfo>
						<colorinfo>
							<lut></lut>
							<lut1></lut1>
							<asc_sop></asc_sop>
							<asc_sat></asc_sat>
							<lut2></lut2>
						</colorinfo>
						<labels>
						</labels>
					</clip>
				</children>
			</bin>
			<bin>
				<name>Masterclips_Audio</name>
				<labels>
					<label2>Mango</label2>
				</labels>
				<children>
					<clip id="masterclip-16" explodedTracks="true">
						<uuid>b844cfb9-451b-4888-9a59-0ca22dd1814a</uuid>
						<masterclipid>masterclip-16</masterclipid>
						<ismasterclip>TRUE</ismasterclip>
						<duration>1438</duration>
						<rate>
							<timebase>30</timebase>
							<ntsc>TRUE</ntsc>
						</rate>
						<name>130619_001</name>
						<media>
							<audio>
								<track>
									<clipitem id="clipitem-65">
										<masterclipid>masterclip-16</masterclipid>
										<name>130619_001</name>
										<rate>
											<timebase>30</timebase>
											<ntsc>TRUE</ntsc>
										</rate>
										<file id="file-16">
											<name>130619_001.WAV</name>
											<pathurl>file://localhost/S%3a/Projects/HAZEN_ALPHA/AUDIO/F8_SD2/130619/130619_001.WAV</pathurl>
											<rate>
												<timebase>30</timebase>
												<ntsc>TRUE</ntsc>
											</rate>
											<duration>1438</duration>
											<timecode>
												<rate>
													<timebase>30</timebase>
													<ntsc>TRUE</ntsc>
												</rate>
												<string>09;39;07;02</string>
												<frame>1041368</frame>
												<displayformat>DF</displayformat>
											</timecode>
											<media>
												<audio>
													<samplecharacteristics>
														<depth>16</depth>
														<samplerate>48000</samplerate>
													</samplecharacteristics>
													<channelcount>1</channelcount>
													<audiochannel>
														<sourcechannel>1</sourcechannel>
													</audiochannel>
												</audio>
												<audio>
													<samplecharacteristics>
														<depth>16</depth>
														<samplerate>48000</samplerate>
													</samplecharacteristics>
													<channelcount>1</channelcount>
													<audiochannel>
														<sourcechannel>2</sourcechannel>
													</audiochannel>
												</audio>
												<audio>
													<samplecharacteristics>
														<depth>16</depth>
														<samplerate>48000</samplerate>
													</samplecharacteristics>
													<channelcount>1</channelcount>
													<audiochannel>
														<sourcechannel>3</sourcechannel>
													</audiochannel>
												</audio>
												<audio>
													<samplecharacteristics>
														<depth>16</depth>
														<samplerate>48000</samplerate>
													</samplecharacteristics>
													<channelcount>1</channelcount>
													<audiochannel>
														<sourcechannel>4</sourcechannel>
													</audiochannel>
												</audio>
											</media>
										</file>
										<sourcetrack>
											<mediatype>audio</mediatype>
											<trackindex>1</trackindex>
										</sourcetrack>
										<link>
											<linkclipref>clipitem-65</linkclipref>
											<mediatype>audio</mediatype>
											<trackindex>1</trackindex>
											<clipindex>1</clipindex>
										</link>
										<link>
											<linkclipref>clipitem-66</linkclipref>
											<mediatype>audio</mediatype>
											<trackindex>2</trackindex>
											<clipindex>1</clipindex>
										</link>
										<link>
											<linkclipref>clipitem-67</linkclipref>
											<mediatype>audio</mediatype>
											<trackindex>3</trackindex>
											<clipindex>1</clipindex>
										</link>
										<link>
											<linkclipref>clipitem-68</linkclipref>
											<mediatype>audio</mediatype>
											<trackindex>4</trackindex>
											<clipindex>1</clipindex>
										</link>
									</clipitem>
								</track>
								<track>
									<clipitem id="clipitem-66">
										<masterclipid>masterclip-16</masterclipid>
										<name>130619_001</name>
										<rate>
											<timebase>30</timebase>
											<ntsc>TRUE</ntsc>
										</rate>
										<file id="file-16"/>
										<sourcetrack>
											<mediatype>audio</mediatype>
											<trackindex>2</trackindex>
										</sourcetrack>
										<link>
											<linkclipref>clipitem-65</linkclipref>
											<mediatype>audio</mediatype>
											<trackindex>1</trackindex>
											<clipindex>1</clipindex>
										</link>
										<link>
											<linkclipref>clipitem-66</linkclipref>
											<mediatype>audio</mediatype>
											<trackindex>2</trackindex>
											<clipindex>1</clipindex>
										</link>
										<link>
											<linkclipref>clipitem-67</linkclipref>
											<mediatype>audio</mediatype>
											<trackindex>3</trackindex>
											<clipindex>1</clipindex>
										</link>
										<link>
											<linkclipref>clipitem-68</linkclipref>
											<mediatype>audio</mediatype>
											<trackindex>4</trackindex>
											<clipindex>1</clipindex>
										</link>
									</clipitem>
								</track>
								<track>
									<clipitem id="clipitem-67">
										<masterclipid>masterclip-16</masterclipid>
										<name>130619_001</name>
										<rate>
											<timebase>30</timebase>
											<ntsc>TRUE</ntsc>
										</rate>
										<file id="file-16"/>
										<sourcetrack>
											<mediatype>audio</mediatype>
											<trackindex>3</trackindex>
										</sourcetrack>
										<link>
											<linkclipref>clipitem-65</linkclipref>
											<mediatype>audio</mediatype>
											<trackindex>1</trackindex>
											<clipindex>1</clipindex>
										</link>
										<link>
											<linkclipref>clipitem-66</linkclipref>
											<mediatype>audio</mediatype>
											<trackindex>2</trackindex>
											<clipindex>1</clipindex>
										</link>
										<link>
											<linkclipref>clipitem-67</linkclipref>
											<mediatype>audio</mediatype>
											<trackindex>3</trackindex>
											<clipindex>1</clipindex>
										</link>
										<link>
											<linkclipref>clipitem-68</linkclipref>
											<mediatype>audio</mediatype>
											<trackindex>4</trackindex>
											<clipindex>1</clipindex>
										</link>
									</clipitem>
								</track>
								<track>
									<clipitem id="clipitem-68">
										<masterclipid>masterclip-16</masterclipid>
										<name>130619_001</name>
										<rate>
											<timebase>30</timebase>
											<ntsc>TRUE</ntsc>
										</rate>
										<file id="file-16"/>
										<sourcetrack>
											<mediatype>audio</mediatype>
											<trackindex>4</trackindex>
										</sourcetrack>
										<link>
											<linkclipref>clipitem-65</linkclipref>
											<mediatype>audio</mediatype>
											<trackindex>1</trackindex>
											<clipindex>1</clipindex>
										</link>
										<link>
											<linkclipref>clipitem-66</linkclipref>
											<mediatype>audio</mediatype>
											<trackindex>2</trackindex>
											<clipindex>1</clipindex>
										</link>
										<link>
											<linkclipref>clipitem-67</linkclipref>
											<mediatype>audio</mediatype>
											<trackindex>3</trackindex>
											<clipindex>1</clipindex>
										</link>
										<link>
											<linkclipref>clipitem-68</linkclipref>
											<mediatype>audio</mediatype>
											<trackindex>4</trackindex>
											<clipindex>1</clipindex>
										</link>
									</clipitem>
								</track>
							</audio>
						</media>
						<logginginfo>
							<description></description>
							<scene></scene>
							<shottake></shottake>
							<lognote></lognote>
							<good></good>
							<originalvideofilename></originalvideofilename>
							<originalaudiofilename></originalaudiofilename>
						</logginginfo>
						<colorinfo>
							<lut></lut>
							<lut1></lut1>
							<asc_sop></asc_sop>
							<asc_sat></asc_sat>
							<lut2></lut2>
						</colorinfo>
					</clip>
					<clip id="masterclip-17" explodedTracks="true">
						<uuid>504c1413-12fa-4239-a904-b1ee2520e88a</uuid>
						<masterclipid>masterclip-17</masterclipid>
						<ismasterclip>TRUE</ismasterclip>
						<duration>1438</duration>
						<rate>
							<timebase>30</timebase>
							<ntsc>TRUE</ntsc>
						</rate>
						<name>130619_002</name>
						<media>
							<audio>
								<track>
									<clipitem id="clipitem-69">
										<masterclipid>masterclip-17</masterclipid>
										<name>130619_002</name>
										<rate>
											<timebase>30</timebase>
											<ntsc>TRUE</ntsc>
										</rate>
										<file id="file-17">
											<name>130619_002.WAV</name>
											<pathurl>file://localhost/S%3a/Projects/HAZEN_ALPHA/AUDIO/F8_SD2/130619/130619_002.WAV</pathurl>
											<rate>
												<timebase>30</timebase>
												<ntsc>TRUE</ntsc>
											</rate>
											<duration>1438</duration>
											<timecode>
												<rate>
													<timebase>30</timebase>
													<ntsc>TRUE</ntsc>
												</rate>
												<string>09;40;23;00</string>
												<frame>1043646</frame>
												<displayformat>DF</displayformat>
											</timecode>
											<media>
												<audio>
													<samplecharacteristics>
														<depth>16</depth>
														<samplerate>48000</samplerate>
													</samplecharacteristics>
													<channelcount>1</channelcount>
													<audiochannel>
														<sourcechannel>1</sourcechannel>
													</audiochannel>
												</audio>
												<audio>
													<samplecharacteristics>
														<depth>16</depth>
														<samplerate>48000</samplerate>
													</samplecharacteristics>
													<channelcount>1</channelcount>
													<audiochannel>
														<sourcechannel>2</sourcechannel>
													</audiochannel>
												</audio>
												<audio>
													<samplecharacteristics>
														<depth>16</depth>
														<samplerate>48000</samplerate>
													</samplecharacteristics>
													<channelcount>1</channelcount>
													<audiochannel>
														<sourcechannel>3</sourcechannel>
													</audiochannel>
												</audio>
												<audio>
													<samplecharacteristics>
														<depth>16</depth>
														<samplerate>48000</samplerate>
													</samplecharacteristics>
													<channelcount>1</channelcount>
													<audiochannel>
														<sourcechannel>4</sourcechannel>
													</audiochannel>
												</audio>
											</media>
										</file>
										<sourcetrack>
											<mediatype>audio</mediatype>
											<trackindex>1</trackindex>
										</sourcetrack>
										<link>
											<linkclipref>clipitem-69</linkclipref>
											<mediatype>audio</mediatype>
											<trackindex>1</trackindex>
											<clipindex>1</clipindex>
										</link>
										<link>
											<linkclipref>clipitem-70</linkclipref>
											<mediatype>audio</mediatype>
											<trackindex>2</trackindex>
											<clipindex>1</clipindex>
										</link>
										<link>
											<linkclipref>clipitem-71</linkclipref>
											<mediatype>audio</mediatype>
											<trackindex>3</trackindex>
											<clipindex>1</clipindex>
										</link>
										<link>
											<linkclipref>clipitem-72</linkclipref>
											<mediatype>audio</mediatype>
											<trackindex>4</trackindex>
											<clipindex>1</clipindex>
										</link>
									</clipitem>
								</track>
								<track>
									<clipitem id="clipitem-70">
										<masterclipid>masterclip-17</masterclipid>
										<name>130619_002</name>
										<rate>
											<timebase>30</timebase>
											<ntsc>TRUE</ntsc>
										</rate>
										<file id="file-17"/>
										<sourcetrack>
											<mediatype>audio</mediatype>
											<trackindex>2</trackindex>
										</sourcetrack>
										<link>
											<linkclipref>clipitem-69</linkclipref>
											<mediatype>audio</mediatype>
											<trackindex>1</trackindex>
											<clipindex>1</clipindex>
										</link>
										<link>
											<linkclipref>clipitem-70</linkclipref>
											<mediatype>audio</mediatype>
											<trackindex>2</trackindex>
											<clipindex>1</clipindex>
										</link>
										<link>
											<linkclipref>clipitem-71</linkclipref>
											<mediatype>audio</mediatype>
											<trackindex>3</trackindex>
											<clipindex>1</clipindex>
										</link>
										<link>
											<linkclipref>clipitem-72</linkclipref>
											<mediatype>audio</mediatype>
											<trackindex>4</trackindex>
											<clipindex>1</clipindex>
										</link>
									</clipitem>
								</track>
								<track>
									<clipitem id="clipitem-71">
										<masterclipid>masterclip-17</masterclipid>
										<name>130619_002</name>
										<rate>
											<timebase>30</timebase>
											<ntsc>TRUE</ntsc>
										</rate>
										<file id="file-17"/>
										<sourcetrack>
											<mediatype>audio</mediatype>
											<trackindex>3</trackindex>
										</sourcetrack>
										<link>
											<linkclipref>clipitem-69</linkclipref>
											<mediatype>audio</mediatype>
											<trackindex>1</trackindex>
											<clipindex>1</clipindex>
										</link>
										<link>
											<linkclipref>clipitem-70</linkclipref>
											<mediatype>audio</mediatype>
											<trackindex>2</trackindex>
											<clipindex>1</clipindex>
										</link>
										<link>
											<linkclipref>clipitem-71</linkclipref>
											<mediatype>audio</mediatype>
											<trackindex>3</trackindex>
											<clipindex>1</clipindex>
										</link>
										<link>
											<linkclipref>clipitem-72</linkclipref>
											<mediatype>audio</mediatype>
											<trackindex>4</trackindex>
											<clipindex>1</clipindex>
										</link>
									</clipitem>
								</track>
								<track>
									<clipitem id="clipitem-72">
										<masterclipid>masterclip-17</masterclipid>
										<name>130619_002</name>
										<rate>
											<timebase>30</timebase>
											<ntsc>TRUE</ntsc>
										</rate>
										<file id="file-17"/>
										<sourcetrack>
											<mediatype>audio</mediatype>
											<trackindex>4</trackindex>
										</sourcetrack>
										<link>
											<linkclipref>clipitem-69</linkclipref>
											<mediatype>audio</mediatype>
											<trackindex>1</trackindex>
											<clipindex>1</clipindex>
										</link>
										<link>
											<linkclipref>clipitem-70</linkclipref>
											<mediatype>audio</mediatype>
											<trackindex>2</trackindex>
											<clipindex>1</clipindex>
										</link>
										<link>
											<linkclipref>clipitem-71</linkclipref>
											<mediatype>audio</mediatype>
											<trackindex>3</trackindex>
											<clipindex>1</clipindex>
										</link>
										<link>
											<linkclipref>clipitem-72</linkclipref>
											<mediatype>audio</mediatype>
											<trackindex>4</trackindex>
											<clipindex>1</clipindex>
										</link>
									</clipitem>
								</track>
							</audio>
						</media>
						<logginginfo>
							<description></description>
							<scene></scene>
							<shottake></shottake>
							<lognote></lognote>
							<good></good>
							<originalvideofilename></originalvideofilename>
							<originalaudiofilename></originalaudiofilename>
						</logginginfo>
						<colorinfo>
							<lut></lut>
							<lut1></lut1>
							<asc_sop></asc_sop>
							<asc_sat></asc_sat>
							<lut2></lut2>
						</colorinfo>
					</clip>
					<clip id="masterclip-18" explodedTracks="true">
						<uuid>f556f7db-4213-4863-9725-86f42c25a2eb</uuid>
						<masterclipid>masterclip-18</masterclipid>
						<ismasterclip>TRUE</ismasterclip>
						<duration>2367</duration>
						<rate>
							<timebase>30</timebase>
							<ntsc>TRUE</ntsc>
						</rate>
						<name>130619_003</name>
						<media>
							<audio>
								<track>
									<clipitem id="clipitem-73">
										<masterclipid>masterclip-18</masterclipid>
										<name>130619_003</name>
										<rate>
											<timebase>30</timebase>
											<ntsc>TRUE</ntsc>
										</rate>
										<file id="file-18">
											<name>130619_003.WAV</name>
											<pathurl>file://localhost/S%3a/Projects/HAZEN_ALPHA/AUDIO/F8_SD2/130619/130619_003.WAV</pathurl>
											<rate>
												<timebase>30</timebase>
												<ntsc>TRUE</ntsc>
											</rate>
											<duration>2367</duration>
											<timecode>
												<rate>
													<timebase>30</timebase>
													<ntsc>TRUE</ntsc>
												</rate>
												<string>09;42;22;00</string>
												<frame>1047212</frame>
												<displayformat>DF</displayformat>
											</timecode>
											<media>
												<audio>
													<samplecharacteristics>
														<depth>16</depth>
														<samplerate>48000</samplerate>
													</samplecharacteristics>
													<channelcount>1</channelcount>
													<audiochannel>
														<sourcechannel>1</sourcechannel>
													</audiochannel>
												</audio>
												<audio>
													<samplecharacteristics>
														<depth>16</depth>
														<samplerate>48000</samplerate>
													</samplecharacteristics>
													<channelcount>1</channelcount>
													<audiochannel>
														<sourcechannel>2</sourcechannel>
													</audiochannel>
												</audio>
												<audio>
													<samplecharacteristics>
														<depth>16</depth>
														<samplerate>48000</samplerate>
													</samplecharacteristics>
													<channelcount>1</channelcount>
													<audiochannel>
														<sourcechannel>3</sourcechannel>
													</audiochannel>
												</audio>
												<audio>
													<samplecharacteristics>
														<depth>16</depth>
														<samplerate>48000</samplerate>
													</samplecharacteristics>
													<channelcount>1</channelcount>
													<audiochannel>
														<sourcechannel>4</sourcechannel>
													</audiochannel>
												</audio>
											</media>
										</file>
										<sourcetrack>
											<mediatype>audio</mediatype>
											<trackindex>1</trackindex>
										</sourcetrack>
										<link>
											<linkclipref>clipitem-73</linkclipref>
											<mediatype>audio</mediatype>
											<trackindex>1</trackindex>
											<clipindex>1</clipindex>
										</link>
										<link>
											<linkclipref>clipitem-74</linkclipref>
											<mediatype>audio</mediatype>
											<trackindex>2</trackindex>
											<clipindex>1</clipindex>
										</link>
										<link>
											<linkclipref>clipitem-75</linkclipref>
											<mediatype>audio</mediatype>
											<trackindex>3</trackindex>
											<clipindex>1</clipindex>
										</link>
										<link>
											<linkclipref>clipitem-76</linkclipref>
											<mediatype>audio</mediatype>
											<trackindex>4</trackindex>
											<clipindex>1</clipindex>
										</link>
									</clipitem>
								</track>
								<track>
									<clipitem id="clipitem-74">
										<masterclipid>masterclip-18</masterclipid>
										<name>130619_003</name>
										<rate>
											<timebase>30</timebase>
											<ntsc>TRUE</ntsc>
										</rate>
										<file id="file-18"/>
										<sourcetrack>
											<mediatype>audio</mediatype>
											<trackindex>2</trackindex>
										</sourcetrack>
										<link>
											<linkclipref>clipitem-73</linkclipref>
											<mediatype>audio</mediatype>
											<trackindex>1</trackindex>
											<clipindex>1</clipindex>
										</link>
										<link>
											<linkclipref>clipitem-74</linkclipref>
											<mediatype>audio</mediatype>
											<trackindex>2</trackindex>
											<clipindex>1</clipindex>
										</link>
										<link>
											<linkclipref>clipitem-75</linkclipref>
											<mediatype>audio</mediatype>
											<trackindex>3</trackindex>
											<clipindex>1</clipindex>
										</link>
										<link>
											<linkclipref>clipitem-76</linkclipref>
											<mediatype>audio</mediatype>
											<trackindex>4</trackindex>
											<clipindex>1</clipindex>
										</link>
									</clipitem>
								</track>
								<track>
									<clipitem id="clipitem-75">
										<masterclipid>masterclip-18</masterclipid>
										<name>130619_003</name>
										<rate>
											<timebase>30</timebase>
											<ntsc>TRUE</ntsc>
										</rate>
										<file id="file-18"/>
										<sourcetrack>
											<mediatype>audio</mediatype>
											<trackindex>3</trackindex>
										</sourcetrack>
										<link>
											<linkclipref>clipitem-73</linkclipref>
											<mediatype>audio</mediatype>
											<trackindex>1</trackindex>
											<clipindex>1</clipindex>
										</link>
										<link>
											<linkclipref>clipitem-74</linkclipref>
											<mediatype>audio</mediatype>
											<trackindex>2</trackindex>
											<clipindex>1</clipindex>
										</link>
										<link>
											<linkclipref>clipitem-75</linkclipref>
											<mediatype>audio</mediatype>
											<trackindex>3</trackindex>
											<clipindex>1</clipindex>
										</link>
										<link>
											<linkclipref>clipitem-76</linkclipref>
											<mediatype>audio</mediatype>
											<trackindex>4</trackindex>
											<clipindex>1</clipindex>
										</link>
									</clipitem>
								</track>
								<track>
									<clipitem id="clipitem-76">
										<masterclipid>masterclip-18</masterclipid>
										<name>130619_003</name>
										<rate>
											<timebase>30</timebase>
											<ntsc>TRUE</ntsc>
										</rate>
										<file id="file-18"/>
										<sourcetrack>
											<mediatype>audio</mediatype>
											<trackindex>4</trackindex>
										</sourcetrack>
										<link>
											<linkclipref>clipitem-73</linkclipref>
											<mediatype>audio</mediatype>
											<trackindex>1</trackindex>
											<clipindex>1</clipindex>
										</link>
										<link>
											<linkclipref>clipitem-74</linkclipref>
											<mediatype>audio</mediatype>
											<trackindex>2</trackindex>
											<clipindex>1</clipindex>
										</link>
										<link>
											<linkclipref>clipitem-75</linkclipref>
											<mediatype>audio</mediatype>
											<trackindex>3</trackindex>
											<clipindex>1</clipindex>
										</link>
										<link>
											<linkclipref>clipitem-76</linkclipref>
											<mediatype>audio</mediatype>
											<trackindex>4</trackindex>
											<clipindex>1</clipindex>
										</link>
									</clipitem>
								</track>
							</audio>
						</media>
							<marker>
								<comment></comment>
								<name></name>
								<in>1445</in>
								<out>-1</out>
								<pproColor>4281828977</pproColor>
							</marker>
						<logginginfo>
							<description></description>
							<scene></scene>
							<shottake></shottake>
							<lognote></lognote>
							<good></good>
							<originalvideofilename></originalvideofilename>
							<originalaudiofilename></originalaudiofilename>
						</logginginfo>
						<colorinfo>
							<lut></lut>
							<lut1></lut1>
							<asc_sop></asc_sop>
							<asc_sat></asc_sat>
							<lut2></lut2>
						</colorinfo>
					</clip>
					<clip id="masterclip-19" explodedTracks="true">
						<uuid>10d3810d-9d2b-41e7-9233-fcdd51dfaca4</uuid>
						<masterclipid>masterclip-19</masterclipid>
						<ismasterclip>TRUE</ismasterclip>
						<duration>3986</duration>
						<rate>
							<timebase>30</timebase>
							<ntsc>TRUE</ntsc>
						</rate>
						<name>130619_004</name>
						<media>
							<audio>
								<track>
									<clipitem id="clipitem-77">
										<masterclipid>masterclip-19</masterclipid>
										<name>130619_004</name>
										<rate>
											<timebase>30</timebase>
											<ntsc>TRUE</ntsc>
										</rate>
										<file id="file-19">
											<name>130619_004.WAV</name>
											<pathurl>file://localhost/S%3a/Projects/HAZEN_ALPHA/AUDIO/F8_SD2/130619/130619_004.WAV</pathurl>
											<rate>
												<timebase>30</timebase>
												<ntsc>TRUE</ntsc>
											</rate>
											<duration>3986</duration>
											<timecode>
												<rate>
													<timebase>30</timebase>
													<ntsc>TRUE</ntsc>
												</rate>
												<string>09;48;19;02</string>
												<frame>1057912</frame>
												<displayformat>DF</displayformat>
											</timecode>
											<media>
												<audio>
													<samplecharacteristics>
														<depth>16</depth>
														<samplerate>48000</samplerate>
													</samplecharacteristics>
													<channelcount>1</channelcount>
													<audiochannel>
														<sourcechannel>1</sourcechannel>
													</audiochannel>
												</audio>
												<audio>
													<samplecharacteristics>
														<depth>16</depth>
														<samplerate>48000</samplerate>
													</samplecharacteristics>
													<channelcount>1</channelcount>
													<audiochannel>
														<sourcechannel>2</sourcechannel>
													</audiochannel>
												</audio>
												<audio>
													<samplecharacteristics>
														<depth>16</depth>
														<samplerate>48000</samplerate>
													</samplecharacteristics>
													<channelcount>1</channelcount>
													<audiochannel>
														<sourcechannel>3</sourcechannel>
													</audiochannel>
												</audio>
												<audio>
													<samplecharacteristics>
														<depth>16</depth>
														<samplerate>48000</samplerate>
													</samplecharacteristics>
													<channelcount>1</channelcount>
													<audiochannel>
														<sourcechannel>4</sourcechannel>
													</audiochannel>
												</audio>
											</media>
										</file>
										<sourcetrack>
											<mediatype>audio</mediatype>
											<trackindex>1</trackindex>
										</sourcetrack>
										<link>
											<linkclipref>clipitem-77</linkclipref>
											<mediatype>audio</mediatype>
											<trackindex>1</trackindex>
											<clipindex>1</clipindex>
										</link>
										<link>
											<linkclipref>clipitem-78</linkclipref>
											<mediatype>audio</mediatype>
											<trackindex>2</trackindex>
											<clipindex>1</clipindex>
										</link>
										<link>
											<linkclipref>clipitem-79</linkclipref>
											<mediatype>audio</mediatype>
											<trackindex>3</trackindex>
											<clipindex>1</clipindex>
										</link>
										<link>
											<linkclipref>clipitem-80</linkclipref>
											<mediatype>audio</mediatype>
											<trackindex>4</trackindex>
											<clipindex>1</clipindex>
										</link>
									</clipitem>
								</track>
								<track>
									<clipitem id="clipitem-78">
										<masterclipid>masterclip-19</masterclipid>
										<name>130619_004</name>
										<rate>
											<timebase>30</timebase>
											<ntsc>TRUE</ntsc>
										</rate>
										<file id="file-19"/>
										<sourcetrack>
											<mediatype>audio</mediatype>
											<trackindex>2</trackindex>
										</sourcetrack>
										<link>
											<linkclipref>clipitem-77</linkclipref>
											<mediatype>audio</mediatype>
											<trackindex>1</trackindex>
											<clipindex>1</clipindex>
										</link>
										<link>
											<linkclipref>clipitem-78</linkclipref>
											<mediatype>audio</mediatype>
											<trackindex>2</trackindex>
											<clipindex>1</clipindex>
										</link>
										<link>
											<linkclipref>clipitem-79</linkclipref>
											<mediatype>audio</mediatype>
											<trackindex>3</trackindex>
											<clipindex>1</clipindex>
										</link>
										<link>
											<linkclipref>clipitem-80</linkclipref>
											<mediatype>audio</mediatype>
											<trackindex>4</trackindex>
											<clipindex>1</clipindex>
										</link>
									</clipitem>
								</track>
								<track>
									<clipitem id="clipitem-79">
										<masterclipid>masterclip-19</masterclipid>
										<name>130619_004</name>
										<rate>
											<timebase>30</timebase>
											<ntsc>TRUE</ntsc>
										</rate>
										<file id="file-19"/>
										<sourcetrack>
											<mediatype>audio</mediatype>
											<trackindex>3</trackindex>
										</sourcetrack>
										<link>
											<linkclipref>clipitem-77</linkclipref>
											<mediatype>audio</mediatype>
											<trackindex>1</trackindex>
											<clipindex>1</clipindex>
										</link>
										<link>
											<linkclipref>clipitem-78</linkclipref>
											<mediatype>audio</mediatype>
											<trackindex>2</trackindex>
											<clipindex>1</clipindex>
										</link>
										<link>
											<linkclipref>clipitem-79</linkclipref>
											<mediatype>audio</mediatype>
											<trackindex>3</trackindex>
											<clipindex>1</clipindex>
										</link>
										<link>
											<linkclipref>clipitem-80</linkclipref>
											<mediatype>audio</mediatype>
											<trackindex>4</trackindex>
											<clipindex>1</clipindex>
										</link>
									</clipitem>
								</track>
								<track>
									<clipitem id="clipitem-80">
										<masterclipid>masterclip-19</masterclipid>
										<name>130619_004</name>
										<rate>
											<timebase>30</timebase>
											<ntsc>TRUE</ntsc>
										</rate>
										<file id="file-19"/>
										<sourcetrack>
											<mediatype>audio</mediatype>
											<trackindex>4</trackindex>
										</sourcetrack>
										<link>
											<linkclipref>clipitem-77</linkclipref>
											<mediatype>audio</mediatype>
											<trackindex>1</trackindex>
											<clipindex>1</clipindex>
										</link>
										<link>
											<linkclipref>clipitem-78</linkclipref>
											<mediatype>audio</mediatype>
											<trackindex>2</trackindex>
											<clipindex>1</clipindex>
										</link>
										<link>
											<linkclipref>clipitem-79</linkclipref>
											<mediatype>audio</mediatype>
											<trackindex>3</trackindex>
											<clipindex>1</clipindex>
										</link>
										<link>
											<linkclipref>clipitem-80</linkclipref>
											<mediatype>audio</mediatype>
											<trackindex>4</trackindex>
											<clipindex>1</clipindex>
										</link>
									</clipitem>
								</track>
							</audio>
						</media>
							<marker>
								<comment></comment>
								<name></name>
								<in>3194</in>
								<out>-1</out>
								<pproColor>4281828977</pproColor>
							</marker>
						<logginginfo>
							<description></description>
							<scene></scene>
							<shottake></shottake>
							<lognote></lognote>
							<good></good>
							<originalvideofilename></originalvideofilename>
							<originalaudiofilename></originalaudiofilename>
						</logginginfo>
						<colorinfo>
							<lut></lut>
							<lut1></lut1>
							<asc_sop></asc_sop>
							<asc_sat></asc_sat>
							<lut2></lut2>
						</colorinfo>
					</clip>
					<clip id="masterclip-20" explodedTracks="true">
						<uuid>78e5b8fa-6104-4d63-bf64-7166cb38fc6a</uuid>
						<masterclipid>masterclip-20</masterclipid>
						<ismasterclip>TRUE</ismasterclip>
						<duration>1888</duration>
						<rate>
							<timebase>30</timebase>
							<ntsc>TRUE</ntsc>
						</rate>
						<name>130619_005</name>
						<media>
							<audio>
								<track>
									<clipitem id="clipitem-81">
										<masterclipid>masterclip-20</masterclipid>
										<name>130619_005</name>
										<rate>
											<timebase>30</timebase>
											<ntsc>TRUE</ntsc>
										</rate>
										<file id="file-20">
											<name>130619_005.WAV</name>
											<pathurl>file://localhost/S%3a/Projects/HAZEN_ALPHA/AUDIO/F8_SD2/130619/130619_005.WAV</pathurl>
											<rate>
												<timebase>30</timebase>
												<ntsc>TRUE</ntsc>
											</rate>
											<duration>1888</duration>
											<timecode>
												<rate>
													<timebase>30</timebase>
													<ntsc>TRUE</ntsc>
												</rate>
												<string>10;02;19;00</string>
												<frame>1083086</frame>
												<displayformat>DF</displayformat>
											</timecode>
											<media>
												<audio>
													<samplecharacteristics>
														<depth>16</depth>
														<samplerate>48000</samplerate>
													</samplecharacteristics>
													<channelcount>1</channelcount>
													<audiochannel>
														<sourcechannel>1</sourcechannel>
													</audiochannel>
												</audio>
												<audio>
													<samplecharacteristics>
														<depth>16</depth>
														<samplerate>48000</samplerate>
													</samplecharacteristics>
													<channelcount>1</channelcount>
													<audiochannel>
														<sourcechannel>2</sourcechannel>
													</audiochannel>
												</audio>
												<audio>
													<samplecharacteristics>
														<depth>16</depth>
														<samplerate>48000</samplerate>
													</samplecharacteristics>
													<channelcount>1</channelcount>
													<audiochannel>
														<sourcechannel>3</sourcechannel>
													</audiochannel>
												</audio>
												<audio>
													<samplecharacteristics>
														<depth>16</depth>
														<samplerate>48000</samplerate>
													</samplecharacteristics>
													<channelcount>1</channelcount>
													<audiochannel>
														<sourcechannel>4</sourcechannel>
													</audiochannel>
												</audio>
											</media>
										</file>
										<sourcetrack>
											<mediatype>audio</mediatype>
											<trackindex>1</trackindex>
										</sourcetrack>
										<link>
											<linkclipref>clipitem-81</linkclipref>
											<mediatype>audio</mediatype>
											<trackindex>1</trackindex>
											<clipindex>1</clipindex>
										</link>
										<link>
											<linkclipref>clipitem-82</linkclipref>
											<mediatype>audio</mediatype>
											<trackindex>2</trackindex>
											<clipindex>1</clipindex>
										</link>
										<link>
											<linkclipref>clipitem-83</linkclipref>
											<mediatype>audio</mediatype>
											<trackindex>3</trackindex>
											<clipindex>1</clipindex>
										</link>
										<link>
											<linkclipref>clipitem-84</linkclipref>
											<mediatype>audio</mediatype>
											<trackindex>4</trackindex>
											<clipindex>1</clipindex>
										</link>
									</clipitem>
								</track>
								<track>
									<clipitem id="clipitem-82">
										<masterclipid>masterclip-20</masterclipid>
										<name>130619_005</name>
										<rate>
											<timebase>30</timebase>
											<ntsc>TRUE</ntsc>
										</rate>
										<file id="file-20"/>
										<sourcetrack>
											<mediatype>audio</mediatype>
											<trackindex>2</trackindex>
										</sourcetrack>
										<link>
											<linkclipref>clipitem-81</linkclipref>
											<mediatype>audio</mediatype>
											<trackindex>1</trackindex>
											<clipindex>1</clipindex>
										</link>
										<link>
											<linkclipref>clipitem-82</linkclipref>
											<mediatype>audio</mediatype>
											<trackindex>2</trackindex>
											<clipindex>1</clipindex>
										</link>
										<link>
											<linkclipref>clipitem-83</linkclipref>
											<mediatype>audio</mediatype>
											<trackindex>3</trackindex>
											<clipindex>1</clipindex>
										</link>
										<link>
											<linkclipref>clipitem-84</linkclipref>
											<mediatype>audio</mediatype>
											<trackindex>4</trackindex>
											<clipindex>1</clipindex>
										</link>
									</clipitem>
								</track>
								<track>
									<clipitem id="clipitem-83">
										<masterclipid>masterclip-20</masterclipid>
										<name>130619_005</name>
										<rate>
											<timebase>30</timebase>
											<ntsc>TRUE</ntsc>
										</rate>
										<file id="file-20"/>
										<sourcetrack>
											<mediatype>audio</mediatype>
											<trackindex>3</trackindex>
										</sourcetrack>
										<link>
											<linkclipref>clipitem-81</linkclipref>
											<mediatype>audio</mediatype>
											<trackindex>1</trackindex>
											<clipindex>1</clipindex>
										</link>
										<link>
											<linkclipref>clipitem-82</linkclipref>
											<mediatype>audio</mediatype>
											<trackindex>2</trackindex>
											<clipindex>1</clipindex>
										</link>
										<link>
											<linkclipref>clipitem-83</linkclipref>
											<mediatype>audio</mediatype>
											<trackindex>3</trackindex>
											<clipindex>1</clipindex>
										</link>
										<link>
											<linkclipref>clipitem-84</linkclipref>
											<mediatype>audio</mediatype>
											<trackindex>4</trackindex>
											<clipindex>1</clipindex>
										</link>
									</clipitem>
								</track>
								<track>
									<clipitem id="clipitem-84">
										<masterclipid>masterclip-20</masterclipid>
										<name>130619_005</name>
										<rate>
											<timebase>30</timebase>
											<ntsc>TRUE</ntsc>
										</rate>
										<file id="file-20"/>
										<sourcetrack>
											<mediatype>audio</mediatype>
											<trackindex>4</trackindex>
										</sourcetrack>
										<link>
											<linkclipref>clipitem-81</linkclipref>
											<mediatype>audio</mediatype>
											<trackindex>1</trackindex>
											<clipindex>1</clipindex>
										</link>
										<link>
											<linkclipref>clipitem-82</linkclipref>
											<mediatype>audio</mediatype>
											<trackindex>2</trackindex>
											<clipindex>1</clipindex>
										</link>
										<link>
											<linkclipref>clipitem-83</linkclipref>
											<mediatype>audio</mediatype>
											<trackindex>3</trackindex>
											<clipindex>1</clipindex>
										</link>
										<link>
											<linkclipref>clipitem-84</linkclipref>
											<mediatype>audio</mediatype>
											<trackindex>4</trackindex>
											<clipindex>1</clipindex>
										</link>
									</clipitem>
								</track>
							</audio>
						</media>
						<logginginfo>
							<description></description>
							<scene></scene>
							<shottake></shottake>
							<lognote></lognote>
							<good></good>
							<originalvideofilename></originalvideofilename>
							<originalaudiofilename></originalaudiofilename>
						</logginginfo>
						<colorinfo>
							<lut></lut>
							<lut1></lut1>
							<asc_sop></asc_sop>
							<asc_sat></asc_sat>
							<lut2></lut2>
						</colorinfo>
					</clip>
				</children>
			</bin>
			<bin>
				<name>Sequences</name>
				<labels>
					<label2>Mango</label2>
				</labels>
				<children>
					<sequence id="sequence-3" TL.SQAudioVisibleBase="0" TL.SQVideoVisibleBase="0" TL.SQVisibleBaseTime="0" TL.SQAVDividerPosition="0.5" TL.SQHideShyTracks="0" TL.SQHeaderWidth="236" Monitor.ProgramZoomOut="365386775040000" Monitor.ProgramZoomIn="0" TL.SQTimePerPixel="0.79999999999999993" MZ.EditLine="146719641600000" MZ.Sequence.PreviewFrameSizeHeight="1080" MZ.Sequence.PreviewFrameSizeWidth="1920" MZ.Sequence.AudioTimeDisplayFormat="200" MZ.Sequence.PreviewRenderingClassID="1297106761" MZ.Sequence.PreviewRenderingPresetCodec="1297107278" MZ.Sequence.PreviewRenderingPresetPath="EncoderPresets\SequencePreview\d8484cf3-c96c-4622-ab1f-ac1a16e196f9\I-Frame Only MPEG.epr" MZ.Sequence.PreviewUseMaxRenderQuality="false" MZ.Sequence.PreviewUseMaxBitDepth="false" MZ.Sequence.EditingModeGUID="d8484cf3-c96c-4622-ab1f-ac1a16e196f9" MZ.Sequence.VideoTimeDisplayFormat="101" MZ.ZeroPoint="11281612608000000" explodedTracks="true">
						<uuid>8523413b-29f1-4758-882b-c8c901798be8</uuid>
						<duration>35961</duration>
						<rate>
							<timebase>25</timebase>
							<ntsc>FALSE</ntsc>
						</rate>
						<name>AutoSeq_V</name>
						<media>
							<video>
								<format>
									<samplecharacteristics>
										<rate>
											<timebase>25</timebase>
											<ntsc>FALSE</ntsc>
										</rate>
										<codec>
											<name>Apple ProRes 422</name>
											<appspecificdata>
												<appname>Final Cut Pro</appname>
												<appmanufacturer>Apple Inc.</appmanufacturer>
												<appversion>7.0</appversion>
												<data>
													<qtcodec>
														<codecname>Apple ProRes 422</codecname>
														<codectypename>Apple ProRes 422</codectypename>
														<codectypecode>apcn</codectypecode>
														<codecvendorcode>appl</codecvendorcode>
														<spatialquality>1024</spatialquality>
														<temporalquality>0</temporalquality>
														<keyframerate>0</keyframerate>
														<datarate>0</datarate>
													</qtcodec>
												</data>
											</appspecificdata>
										</codec>
										<width>2048</width>
										<height>1152</height>
										<anamorphic>FALSE</anamorphic>
										<pixelaspectratio>square</pixelaspectratio>
										<fielddominance>none</fielddominance>
										<colordepth>24</colordepth>
									</samplecharacteristics>
								</format>
								<track TL.SQTrackAudioKeyframeStyle="0" TL.SQTrackShy="0" TL.SQTrackExpandedHeight="25" TL.SQTrackExpanded="0" MZ.TrackTargeted="1">
									<clipitem id="clipitem-85">
										<masterclipid>masterclip-11</masterclipid>
										<name>A001_06071220_C001</name>
										<enabled>TRUE</enabled>
										<duration>923</duration>
										<rate>
											<timebase>25</timebase>
											<ntsc>FALSE</ntsc>
										</rate>
										<start>0</start>
										<end>923</end>
										<in>0</in>
										<out>923</out>
										<pproTicksIn>0</pproTicksIn>
										<pproTicksOut>9378270720000</pproTicksOut>
										<alphatype>none</alphatype>
										<file id="file-11"/>
											<marker>
												<comment></comment>
												<name></name>
												<in>103</in>
												<out>-1</out>
											</marker>
										<link>
											<linkclipref>clipitem-85</linkclipref>
											<mediatype>video</mediatype>
											<trackindex>1</trackindex>
											<clipindex>1</clipindex>
										</link>
										<link>
											<linkclipref>clipitem-90</linkclipref>
											<mediatype>audio</mediatype>
											<trackindex>1</trackindex>
											<clipindex>1</clipindex>
											<groupindex>1</groupindex>
										</link>
										<link>
											<linkclipref>clipitem-95</linkclipref>
											<mediatype>audio</mediatype>
											<trackindex>2</trackindex>
											<clipindex>1</clipindex>
											<groupindex>1</groupindex>
										</link>
										<logginginfo>
											<description></description>
											<scene></scene>
											<shottake></shottake>
											<lognote></lognote>
											<good></good>
											<originalvideofilename></originalvideofilename>
											<originalaudiofilename></originalaudiofilename>
										</logginginfo>
										<colorinfo>
											<lut></lut>
											<lut1></lut1>
											<asc_sop></asc_sop>
											<asc_sat></asc_sat>
											<lut2></lut2>
										</colorinfo>
									</clipitem>
									<clipitem id="clipitem-86">
										<masterclipid>masterclip-12</masterclipid>
										<name>A001_06071221_C002</name>
										<enabled>TRUE</enabled>
										<duration>918</duration>
										<rate>
											<timebase>25</timebase>
											<ntsc>FALSE</ntsc>
										</rate>
										<start>1926</start>
										<end>2844</end>
										<in>0</in>
										<out>918</out>
										<pproTicksIn>0</pproTicksIn>
										<pproTicksOut>9327467520000</pproTicksOut>
										<alphatype>none</alphatype>
										<file id="file-12"/>
											<marker>
												<comment></comment>
												<name></name>
												<in>120</in>
												<out>-1</out>
											</marker>
										<link>
											<linkclipref>clipitem-86</linkclipref>
											<mediatype>video</mediatype>
											<trackindex>1</trackindex>
											<clipindex>2</clipindex>
										</link>
										<link>
											<linkclipref>clipitem-91</linkclipref>
											<mediatype>audio</mediatype>
											<trackindex>1</trackindex>
											<clipindex>2</clipindex>
											<groupindex>1</groupindex>
										</link>
										<link>
											<linkclipref>clipitem-96</linkclipref>
											<mediatype>audio</mediatype>
											<trackindex>2</trackindex>
											<clipindex>2</clipindex>
											<groupindex>1</groupindex>
										</link>
										<logginginfo>
											<description></description>
											<scene></scene>
											<shottake></shottake>
											<lognote></lognote>
											<good></good>
											<originalvideofilename></originalvideofilename>
											<originalaudiofilename></originalaudiofilename>
										</logginginfo>
										<colorinfo>
											<lut></lut>
											<lut1></lut1>
											<asc_sop></asc_sop>
											<asc_sat></asc_sat>
											<lut2></lut2>
										</colorinfo>
									</clipitem>
									<clipitem id="clipitem-87">
										<masterclipid>masterclip-13</masterclipid>
										<name>A001_06071223_C003</name>
										<enabled>TRUE</enabled>
										<duration>1798</duration>
										<rate>
											<timebase>25</timebase>
											<ntsc>FALSE</ntsc>
										</rate>
										<start>4820</start>
										<end>6618</end>
										<in>0</in>
										<out>1798</out>
										<pproTicksIn>0</pproTicksIn>
										<pproTicksOut>18268830720000</pproTicksOut>
										<alphatype>none</alphatype>
										<file id="file-13"/>
											<marker>
												<comment></comment>
												<name></name>
												<in>99</in>
												<out>-1</out>
											</marker>
											<marker>
												<comment></comment>
												<name></name>
												<in>1123</in>
												<out>-1</out>
												<pproColor>4281828977</pproColor>
											</marker>
										<link>
											<linkclipref>clipitem-87</linkclipref>
											<mediatype>video</mediatype>
											<trackindex>1</trackindex>
											<clipindex>3</clipindex>
										</link>
										<link>
											<linkclipref>clipitem-92</linkclipref>
											<mediatype>audio</mediatype>
											<trackindex>1</trackindex>
											<clipindex>3</clipindex>
											<groupindex>1</groupindex>
										</link>
										<link>
											<linkclipref>clipitem-97</linkclipref>
											<mediatype>audio</mediatype>
											<trackindex>2</trackindex>
											<clipindex>3</clipindex>
											<groupindex>1</groupindex>
										</link>
										<logginginfo>
											<description></description>
											<scene></scene>
											<shottake></shottake>
											<lognote></lognote>
											<good></good>
											<originalvideofilename></originalvideofilename>
											<originalaudiofilename></originalaudiofilename>
										</logginginfo>
										<colorinfo>
											<lut></lut>
											<lut1></lut1>
											<asc_sop></asc_sop>
											<asc_sat></asc_sat>
											<lut2></lut2>
										</colorinfo>
									</clipitem>
									<clipitem id="clipitem-88">
										<masterclipid>masterclip-14</masterclipid>
										<name>A001_06071229_C004</name>
										<enabled>TRUE</enabled>
										<duration>2873</duration>
										<rate>
											<timebase>25</timebase>
											<ntsc>FALSE</ntsc>
										</rate>
										<start>13763</start>
										<end>16636</end>
										<in>0</in>
										<out>2873</out>
										<pproTicksIn>0</pproTicksIn>
										<pproTicksOut>29191518720000</pproTicksOut>
										<alphatype>none</alphatype>
										<file id="file-14"/>
											<marker>
												<comment></comment>
												<name></name>
												<in>2565</in>
												<out>-1</out>
												<pproColor>4281828977</pproColor>
											</marker>
											<marker>
												<comment></comment>
												<name></name>
												<in>180</in>
												<out>-1</out>
												<pproColor>4281828977</pproColor>
											</marker>
										<link>
											<linkclipref>clipitem-88</linkclipref>
											<mediatype>video</mediatype>
											<trackindex>1</trackindex>
											<clipindex>4</clipindex>
										</link>
										<link>
											<linkclipref>clipitem-93</linkclipref>
											<mediatype>audio</mediatype>
											<trackindex>1</trackindex>
											<clipindex>4</clipindex>
											<groupindex>1</groupindex>
										</link>
										<link>
											<linkclipref>clipitem-98</linkclipref>
											<mediatype>audio</mediatype>
											<trackindex>2</trackindex>
											<clipindex>4</clipindex>
											<groupindex>1</groupindex>
										</link>
										<logginginfo>
											<description></description>
											<scene></scene>
											<shottake></shottake>
											<lognote></lognote>
											<good></good>
											<originalvideofilename></originalvideofilename>
											<originalaudiofilename></originalaudiofilename>
										</logginginfo>
										<colorinfo>
											<lut></lut>
											<lut1></lut1>
											<asc_sop></asc_sop>
											<asc_sat></asc_sat>
											<lut2></lut2>
										</colorinfo>
									</clipitem>
									<clipitem id="clipitem-89">
										<masterclipid>masterclip-15</masterclipid>
										<name>A001_06071243_C005</name>
										<enabled>TRUE</enabled>
										<duration>601</duration>
										<rate>
											<timebase>25</timebase>
											<ntsc>FALSE</ntsc>
										</rate>
										<start>35360</start>
										<end>35961</end>
										<in>0</in>
										<out>601</out>
										<pproTicksIn>0</pproTicksIn>
										<pproTicksOut>6106544640000</pproTicksOut>
										<alphatype>none</alphatype>
										<file id="file-15"/>
										<logginginfo>
											<description></description>
											<scene></scene>
											<shottake></shottake>
											<lognote></lognote>
											<good></good>
											<originalvideofilename></originalvideofilename>
											<originalaudiofilename></originalaudiofilename>
										</logginginfo>
										<colorinfo>
											<lut></lut>
											<lut1></lut1>
											<asc_sop></asc_sop>
											<asc_sat></asc_sat>
											<lut2></lut2>
										</colorinfo>
									</clipitem>
									<enabled>TRUE</enabled>
									<locked>FALSE</locked>
								</track>
							</video>
							<audio>
								<numOutputChannels>2</numOutputChannels>
								<format>
									<samplecharacteristics>
										<depth>16</depth>
										<samplerate>48000</samplerate>
									</samplecharacteristics>
								</format>
								<outputs>
									<group>
										<index>1</index>
										<numchannels>1</numchannels>
										<downmix>0</downmix>
										<channel>
											<index>1</index>
										</channel>
									</group>
									<group>
										<index>2</index>
										<numchannels>1</numchannels>
										<downmix>0</downmix>
										<channel>
											<index>2</index>
										</channel>
									</group>
								</outputs>
								<track TL.SQTrackAudioKeyframeStyle="0" TL.SQTrackShy="0" TL.SQTrackExpandedHeight="25" TL.SQTrackExpanded="0" MZ.TrackTargeted="1" PannerCurrentValue="0.5" PannerStartKeyframe="-91445760000000000,0.5,0,0,0,0,0,0" PannerName="Balance" currentExplodedTrackIndex="0" totalExplodedTrackCount="1" premiereTrackType="Stereo">
									<clipitem id="clipitem-90" premiereChannelType="mono">
										<masterclipid>masterclip-11</masterclipid>
										<name>A001_06071220_C001</name>
										<enabled>TRUE</enabled>
										<duration>923</duration>
										<rate>
											<timebase>25</timebase>
											<ntsc>FALSE</ntsc>
										</rate>
										<start>0</start>
										<end>923</end>
										<in>0</in>
										<out>923</out>
										<pproTicksIn>0</pproTicksIn>
										<pproTicksOut>9378270720000</pproTicksOut>
										<file id="file-11"/>
										<sourcetrack>
											<mediatype>audio</mediatype>
											<trackindex>1</trackindex>
										</sourcetrack>
											<marker>
												<comment></comment>
												<name></name>
												<in>103</in>
												<out>-1</out>
											</marker>
										<link>
											<linkclipref>clipitem-85</linkclipref>
											<mediatype>video</mediatype>
											<trackindex>1</trackindex>
											<clipindex>1</clipindex>
										</link>
										<link>
											<linkclipref>clipitem-90</linkclipref>
											<mediatype>audio</mediatype>
											<trackindex>1</trackindex>
											<clipindex>1</clipindex>
											<groupindex>1</groupindex>
										</link>
										<link>
											<linkclipref>clipitem-95</linkclipref>
											<mediatype>audio</mediatype>
											<trackindex>2</trackindex>
											<clipindex>1</clipindex>
											<groupindex>1</groupindex>
										</link>
										<logginginfo>
											<description></description>
											<scene></scene>
											<shottake></shottake>
											<lognote></lognote>
											<good></good>
											<originalvideofilename></originalvideofilename>
											<originalaudiofilename></originalaudiofilename>
										</logginginfo>
										<colorinfo>
											<lut></lut>
											<lut1></lut1>
											<asc_sop></asc_sop>
											<asc_sat></asc_sat>
											<lut2></lut2>
										</colorinfo>
									</clipitem>
									<clipitem id="clipitem-91" premiereChannelType="mono">
										<masterclipid>masterclip-12</masterclipid>
										<name>A001_06071221_C002</name>
										<enabled>TRUE</enabled>
										<duration>918</duration>
										<rate>
											<timebase>25</timebase>
											<ntsc>FALSE</ntsc>
										</rate>
										<start>1926</start>
										<end>2844</end>
										<in>0</in>
										<out>918</out>
										<pproTicksIn>0</pproTicksIn>
										<pproTicksOut>9327467520000</pproTicksOut>
										<file id="file-12"/>
										<sourcetrack>
											<mediatype>audio</mediatype>
											<trackindex>1</trackindex>
										</sourcetrack>
											<marker>
												<comment></comment>
												<name></name>
												<in>120</in>
												<out>-1</out>
											</marker>
										<link>
											<linkclipref>clipitem-86</linkclipref>
											<mediatype>video</mediatype>
											<trackindex>1</trackindex>
											<clipindex>2</clipindex>
										</link>
										<link>
											<linkclipref>clipitem-91</linkclipref>
											<mediatype>audio</mediatype>
											<trackindex>1</trackindex>
											<clipindex>2</clipindex>
											<groupindex>1</groupindex>
										</link>
										<link>
											<linkclipref>clipitem-96</linkclipref>
											<mediatype>audio</mediatype>
											<trackindex>2</trackindex>
											<clipindex>2</clipindex>
											<groupindex>1</groupindex>
										</link>
										<logginginfo>
											<description></description>
											<scene></scene>
											<shottake></shottake>
											<lognote></lognote>
											<good></good>
											<originalvideofilename></originalvideofilename>
											<originalaudiofilename></originalaudiofilename>
										</logginginfo>
										<colorinfo>
											<lut></lut>
											<lut1></lut1>
											<asc_sop></asc_sop>
											<asc_sat></asc_sat>
											<lut2></lut2>
										</colorinfo>
									</clipitem>
									<clipitem id="clipitem-92" premiereChannelType="mono">
										<masterclipid>masterclip-13</masterclipid>
										<name>A001_06071223_C003</name>
										<enabled>TRUE</enabled>
										<duration>1798</duration>
										<rate>
											<timebase>25</timebase>
											<ntsc>FALSE</ntsc>
										</rate>
										<start>4820</start>
										<end>6618</end>
										<in>0</in>
										<out>1798</out>
										<pproTicksIn>0</pproTicksIn>
										<pproTicksOut>18268830720000</pproTicksOut>
										<file id="file-13"/>
										<sourcetrack>
											<mediatype>audio</mediatype>
											<trackindex>1</trackindex>
										</sourcetrack>
											<marker>
												<comment></comment>
												<name></name>
												<in>99</in>
												<out>-1</out>
											</marker>
											<marker>
												<comment></comment>
												<name></name>
												<in>1123</in>
												<out>-1</out>
												<pproColor>4281828977</pproColor>
											</marker>
										<link>
											<linkclipref>clipitem-87</linkclipref>
											<mediatype>video</mediatype>
											<trackindex>1</trackindex>
											<clipindex>3</clipindex>
										</link>
										<link>
											<linkclipref>clipitem-92</linkclipref>
											<mediatype>audio</mediatype>
											<trackindex>1</trackindex>
											<clipindex>3</clipindex>
											<groupindex>1</groupindex>
										</link>
										<link>
											<linkclipref>clipitem-97</linkclipref>
											<mediatype>audio</mediatype>
											<trackindex>2</trackindex>
											<clipindex>3</clipindex>
											<groupindex>1</groupindex>
										</link>
										<logginginfo>
											<description></description>
											<scene></scene>
											<shottake></shottake>
											<lognote></lognote>
											<good></good>
											<originalvideofilename></originalvideofilename>
											<originalaudiofilename></originalaudiofilename>
										</logginginfo>
										<colorinfo>
											<lut></lut>
											<lut1></lut1>
											<asc_sop></asc_sop>
											<asc_sat></asc_sat>
											<lut2></lut2>
										</colorinfo>
									</clipitem>
									<clipitem id="clipitem-93" premiereChannelType="mono">
										<masterclipid>masterclip-14</masterclipid>
										<name>A001_06071229_C004</name>
										<enabled>TRUE</enabled>
										<duration>2873</duration>
										<rate>
											<timebase>25</timebase>
											<ntsc>FALSE</ntsc>
										</rate>
										<start>13763</start>
										<end>16636</end>
										<in>0</in>
										<out>2873</out>
										<pproTicksIn>0</pproTicksIn>
										<pproTicksOut>29191518720000</pproTicksOut>
										<file id="file-14"/>
										<sourcetrack>
											<mediatype>audio</mediatype>
											<trackindex>1</trackindex>
										</sourcetrack>
											<marker>
												<comment></comment>
												<name></name>
												<in>2565</in>
												<out>-1</out>
												<pproColor>4281828977</pproColor>
											</marker>
											<marker>
												<comment></comment>
												<name></name>
												<in>180</in>
												<out>-1</out>
												<pproColor>4281828977</pproColor>
											</marker>
										<link>
											<linkclipref>clipitem-88</linkclipref>
											<mediatype>video</mediatype>
											<trackindex>1</trackindex>
											<clipindex>4</clipindex>
										</link>
										<link>
											<linkclipref>clipitem-93</linkclipref>
											<mediatype>audio</mediatype>
											<trackindex>1</trackindex>
											<clipindex>4</clipindex>
											<groupindex>1</groupindex>
										</link>
										<link>
											<linkclipref>clipitem-98</linkclipref>
											<mediatype>audio</mediatype>
											<trackindex>2</trackindex>
											<clipindex>4</clipindex>
											<groupindex>1</groupindex>
										</link>
										<logginginfo>
											<description></description>
											<scene></scene>
											<shottake></shottake>
											<lognote></lognote>
											<good></good>
											<originalvideofilename></originalvideofilename>
											<originalaudiofilename></originalaudiofilename>
										</logginginfo>
										<colorinfo>
											<lut></lut>
											<lut1></lut1>
											<asc_sop></asc_sop>
											<asc_sat></asc_sat>
											<lut2></lut2>
										</colorinfo>
									</clipitem>
									<clipitem id="clipitem-94" premiereChannelType="mono">
										<masterclipid>masterclip-15</masterclipid>
										<name>A001_06071243_C005</name>
										<enabled>TRUE</enabled>
										<duration>601</duration>
										<rate>
											<timebase>25</timebase>
											<ntsc>FALSE</ntsc>
										</rate>
										<start>35360</start>
										<end>35961</end>
										<in>0</in>
										<out>601</out>
										<pproTicksIn>0</pproTicksIn>
										<pproTicksOut>6106544640000</pproTicksOut>
										<file id="file-15"/>
										<sourcetrack>
											<mediatype>audio</mediatype>
											<trackindex>1</trackindex>
										</sourcetrack>
										<logginginfo>
											<description></description>
											<scene></scene>
											<shottake></shottake>
											<lognote></lognote>
											<good></good>
											<originalvideofilename></originalvideofilename>
											<originalaudiofilename></originalaudiofilename>
										</logginginfo>
										<colorinfo>
											<lut></lut>
											<lut1></lut1>
											<asc_sop></asc_sop>
											<asc_sat></asc_sat>
											<lut2></lut2>
										</colorinfo>
									</clipitem>
									<enabled>TRUE</enabled>
									<locked>FALSE</locked>
									<outputchannelindex>1</outputchannelindex>
								</track>
								<track TL.SQTrackAudioKeyframeStyle="0" TL.SQTrackShy="0" TL.SQTrackExpandedHeight="25" TL.SQTrackExpanded="0" MZ.TrackTargeted="1" PannerCurrentValue="0.5" PannerStartKeyframe="-91445760000000000,0.5,0,0,0,0,0,0" PannerName="Balance" currentExplodedTrackIndex="0" totalExplodedTrackCount="1" premiereTrackType="Stereo">
									<clipitem id="clipitem-95" premiereChannelType="mono">
										<masterclipid>masterclip-11</masterclipid>
										<name>A001_06071220_C001</name>
										<enabled>TRUE</enabled>
										<duration>923</duration>
										<rate>
											<timebase>25</timebase>
											<ntsc>FALSE</ntsc>
										</rate>
										<start>0</start>
										<end>923</end>
										<in>0</in>
										<out>923</out>
										<pproTicksIn>0</pproTicksIn>
										<pproTicksOut>9378270720000</pproTicksOut>
										<file id="file-11"/>
										<sourcetrack>
											<mediatype>audio</mediatype>
											<trackindex>1</trackindex>
										</sourcetrack>
											<marker>
												<comment></comment>
												<name></name>
												<in>103</in>
												<out>-1</out>
											</marker>
										<link>
											<linkclipref>clipitem-85</linkclipref>
											<mediatype>video</mediatype>
											<trackindex>1</trackindex>
											<clipindex>1</clipindex>
										</link>
										<link>
											<linkclipref>clipitem-90</linkclipref>
											<mediatype>audio</mediatype>
											<trackindex>1</trackindex>
											<clipindex>1</clipindex>
											<groupindex>1</groupindex>
										</link>
										<link>
											<linkclipref>clipitem-95</linkclipref>
											<mediatype>audio</mediatype>
											<trackindex>2</trackindex>
											<clipindex>1</clipindex>
											<groupindex>1</groupindex>
										</link>
										<logginginfo>
											<description></description>
											<scene></scene>
											<shottake></shottake>
											<lognote></lognote>
											<good></good>
											<originalvideofilename></originalvideofilename>
											<originalaudiofilename></originalaudiofilename>
										</logginginfo>
										<colorinfo>
											<lut></lut>
											<lut1></lut1>
											<asc_sop></asc_sop>
											<asc_sat></asc_sat>
											<lut2></lut2>
										</colorinfo>
									</clipitem>
									<clipitem id="clipitem-96" premiereChannelType="mono">
										<masterclipid>masterclip-12</masterclipid>
										<name>A001_06071221_C002</name>
										<enabled>TRUE</enabled>
										<duration>918</duration>
										<rate>
											<timebase>25</timebase>
											<ntsc>FALSE</ntsc>
										</rate>
										<start>1926</start>
										<end>2844</end>
										<in>0</in>
										<out>918</out>
										<pproTicksIn>0</pproTicksIn>
										<pproTicksOut>9327467520000</pproTicksOut>
										<file id="file-12"/>
										<sourcetrack>
											<mediatype>audio</mediatype>
											<trackindex>1</trackindex>
										</sourcetrack>
											<marker>
												<comment></comment>
												<name></name>
												<in>120</in>
												<out>-1</out>
											</marker>
										<link>
											<linkclipref>clipitem-86</linkclipref>
											<mediatype>video</mediatype>
											<trackindex>1</trackindex>
											<clipindex>2</clipindex>
										</link>
										<link>
											<linkclipref>clipitem-91</linkclipref>
											<mediatype>audio</mediatype>
											<trackindex>1</trackindex>
											<clipindex>2</clipindex>
											<groupindex>1</groupindex>
										</link>
										<link>
											<linkclipref>clipitem-96</linkclipref>
											<mediatype>audio</mediatype>
											<trackindex>2</trackindex>
											<clipindex>2</clipindex>
											<groupindex>1</groupindex>
										</link>
										<logginginfo>
											<description></description>
											<scene></scene>
											<shottake></shottake>
											<lognote></lognote>
											<good></good>
											<originalvideofilename></originalvideofilename>
											<originalaudiofilename></originalaudiofilename>
										</logginginfo>
										<colorinfo>
											<lut></lut>
											<lut1></lut1>
											<asc_sop></asc_sop>
											<asc_sat></asc_sat>
											<lut2></lut2>
										</colorinfo>
									</clipitem>
									<clipitem id="clipitem-97" premiereChannelType="mono">
										<masterclipid>masterclip-13</masterclipid>
										<name>A001_06071223_C003</name>
										<enabled>TRUE</enabled>
										<duration>1798</duration>
										<rate>
											<timebase>25</timebase>
											<ntsc>FALSE</ntsc>
										</rate>
										<start>4820</start>
										<end>6618</end>
										<in>0</in>
										<out>1798</out>
										<pproTicksIn>0</pproTicksIn>
										<pproTicksOut>18268830720000</pproTicksOut>
										<file id="file-13"/>
										<sourcetrack>
											<mediatype>audio</mediatype>
											<trackindex>1</trackindex>
										</sourcetrack>
											<marker>
												<comment></comment>
												<name></name>
												<in>99</in>
												<out>-1</out>
											</marker>
											<marker>
												<comment></comment>
												<name></name>
												<in>1123</in>
												<out>-1</out>
												<pproColor>4281828977</pproColor>
											</marker>
										<link>
											<linkclipref>clipitem-87</linkclipref>
											<mediatype>video</mediatype>
											<trackindex>1</trackindex>
											<clipindex>3</clipindex>
										</link>
										<link>
											<linkclipref>clipitem-92</linkclipref>
											<mediatype>audio</mediatype>
											<trackindex>1</trackindex>
											<clipindex>3</clipindex>
											<groupindex>1</groupindex>
										</link>
										<link>
											<linkclipref>clipitem-97</linkclipref>
											<mediatype>audio</mediatype>
											<trackindex>2</trackindex>
											<clipindex>3</clipindex>
											<groupindex>1</groupindex>
										</link>
										<logginginfo>
											<description></description>
											<scene></scene>
											<shottake></shottake>
											<lognote></lognote>
											<good></good>
											<originalvideofilename></originalvideofilename>
											<originalaudiofilename></originalaudiofilename>
										</logginginfo>
										<colorinfo>
											<lut></lut>
											<lut1></lut1>
											<asc_sop></asc_sop>
											<asc_sat></asc_sat>
											<lut2></lut2>
										</colorinfo>
									</clipitem>
									<clipitem id="clipitem-98" premiereChannelType="mono">
										<masterclipid>masterclip-14</masterclipid>
										<name>A001_06071229_C004</name>
										<enabled>TRUE</enabled>
										<duration>2873</duration>
										<rate>
											<timebase>25</timebase>
											<ntsc>FALSE</ntsc>
										</rate>
										<start>13763</start>
										<end>16636</end>
										<in>0</in>
										<out>2873</out>
										<pproTicksIn>0</pproTicksIn>
										<pproTicksOut>29191518720000</pproTicksOut>
										<file id="file-14"/>
										<sourcetrack>
											<mediatype>audio</mediatype>
											<trackindex>1</trackindex>
										</sourcetrack>
											<marker>
												<comment></comment>
												<name></name>
												<in>2565</in>
												<out>-1</out>
												<pproColor>4281828977</pproColor>
											</marker>
											<marker>
												<comment></comment>
												<name></name>
												<in>180</in>
												<out>-1</out>
												<pproColor>4281828977</pproColor>
											</marker>
										<link>
											<linkclipref>clipitem-88</linkclipref>
											<mediatype>video</mediatype>
											<trackindex>1</trackindex>
											<clipindex>4</clipindex>
										</link>
										<link>
											<linkclipref>clipitem-93</linkclipref>
											<mediatype>audio</mediatype>
											<trackindex>1</trackindex>
											<clipindex>4</clipindex>
											<groupindex>1</groupindex>
										</link>
										<link>
											<linkclipref>clipitem-98</linkclipref>
											<mediatype>audio</mediatype>
											<trackindex>2</trackindex>
											<clipindex>4</clipindex>
											<groupindex>1</groupindex>
										</link>
										<logginginfo>
											<description></description>
											<scene></scene>
											<shottake></shottake>
											<lognote></lognote>
											<good></good>
											<originalvideofilename></originalvideofilename>
											<originalaudiofilename></originalaudiofilename>
										</logginginfo>
										<colorinfo>
											<lut></lut>
											<lut1></lut1>
											<asc_sop></asc_sop>
											<asc_sat></asc_sat>
											<lut2></lut2>
										</colorinfo>
									</clipitem>
									<clipitem id="clipitem-99" premiereChannelType="mono">
										<masterclipid>masterclip-15</masterclipid>
										<name>A001_06071243_C005</name>
										<enabled>TRUE</enabled>
										<duration>601</duration>
										<rate>
											<timebase>25</timebase>
											<ntsc>FALSE</ntsc>
										</rate>
										<start>35360</start>
										<end>35961</end>
										<in>0</in>
										<out>601</out>
										<pproTicksIn>0</pproTicksIn>
										<pproTicksOut>6106544640000</pproTicksOut>
										<file id="file-15"/>
										<sourcetrack>
											<mediatype>audio</mediatype>
											<trackindex>1</trackindex>
										</sourcetrack>
										<logginginfo>
											<description></description>
											<scene></scene>
											<shottake></shottake>
											<lognote></lognote>
											<good></good>
											<originalvideofilename></originalvideofilename>
											<originalaudiofilename></originalaudiofilename>
										</logginginfo>
										<colorinfo>
											<lut></lut>
											<lut1></lut1>
											<asc_sop></asc_sop>
											<asc_sat></asc_sat>
											<lut2></lut2>
										</colorinfo>
									</clipitem>
									<enabled>TRUE</enabled>
									<locked>FALSE</locked>
									<outputchannelindex>2</outputchannelindex>
								</track>
							</audio>
						</media>
						<timecode>
							<rate>
								<timebase>25</timebase>
								<ntsc>FALSE</ntsc>
							</rate>
							<string>12:20:13:00</string>
							<frame>1110325</frame>
							<displayformat>NDF</displayformat>
						</timecode>
						<labels>
							<label2>Forest</label2>
						</labels>
						<logginginfo>
							<description></description>
							<scene></scene>
							<shottake></shottake>
							<lognote></lognote>
							<good></good>
							<originalvideofilename></originalvideofilename>
							<originalaudiofilename></originalaudiofilename>
						</logginginfo>
					</sequence>
					<sequence id="sequence-4" MZ.Sequence.PreviewFrameSizeHeight="1080" MZ.Sequence.PreviewFrameSizeWidth="1920" MZ.Sequence.AudioTimeDisplayFormat="200" MZ.Sequence.PreviewRenderingClassID="1297106761" MZ.Sequence.PreviewRenderingPresetCodec="1297107278" MZ.Sequence.PreviewRenderingPresetPath="EncoderPresets\SequencePreview\d8484cf3-c96c-4622-ab1f-ac1a16e196f9\I-Frame Only MPEG.epr" MZ.Sequence.PreviewUseMaxRenderQuality="false" MZ.Sequence.PreviewUseMaxBitDepth="false" MZ.Sequence.EditingModeGUID="d8484cf3-c96c-4622-ab1f-ac1a16e196f9" MZ.Sequence.VideoTimeDisplayFormat="101" MZ.ZeroPoint="8826293952000000" explodedTracks="true">
						<uuid>2c90d0d5-003e-445d-872e-a075ab949ffa</uuid>
						<duration>36375</duration>
						<rate>
							<timebase>25</timebase>
							<ntsc>FALSE</ntsc>
						</rate>
						<name>AutoSeq_A</name>
						<media>
							<video>
								<format>
									<samplecharacteristics>
										<rate>
											<timebase>25</timebase>
											<ntsc>FALSE</ntsc>
										</rate>
										<codec>
											<name>Apple ProRes 422</name>
											<appspecificdata>
												<appname>Final Cut Pro</appname>
												<appmanufacturer>Apple Inc.</appmanufacturer>
												<appversion>7.0</appversion>
												<data>
													<qtcodec>
														<codecname>Apple ProRes 422</codecname>
														<codectypename>Apple ProRes 422</codectypename>
														<codectypecode>apcn</codectypecode>
														<codecvendorcode>appl</codecvendorcode>
														<spatialquality>1024</spatialquality>
														<temporalquality>0</temporalquality>
														<keyframerate>0</keyframerate>
														<datarate>0</datarate>
													</qtcodec>
												</data>
											</appspecificdata>
										</codec>
										<width>1920</width>
										<height>1080</height>
										<anamorphic>FALSE</anamorphic>
										<pixelaspectratio>square</pixelaspectratio>
										<fielddominance>none</fielddominance>
										<colordepth>24</colordepth>
									</samplecharacteristics>
								</format>
								<track TL.SQTrackAudioKeyframeStyle="0" TL.SQTrackShy="0" TL.SQTrackExpandedHeight="25" TL.SQTrackExpanded="0" MZ.TrackTargeted="1">
									<enabled>TRUE</enabled>
									<locked>FALSE</locked>
								</track>
							</video>
							<audio>
								<numOutputChannels>2</numOutputChannels>
								<format>
									<samplecharacteristics>
										<depth>16</depth>
										<samplerate>48000</samplerate>
									</samplecharacteristics>
								</format>
								<outputs>
									<group>
										<index>1</index>
										<numchannels>1</numchannels>
										<downmix>0</downmix>
										<channel>
											<index>1</index>
										</channel>
									</group>
									<group>
										<index>2</index>
										<numchannels>1</numchannels>
										<downmix>0</downmix>
										<channel>
											<index>2</index>
										</channel>
									</group>
								</outputs>
								<track TL.SQTrackAudioKeyframeStyle="0" TL.SQTrackShy="0" TL.SQTrackExpandedHeight="25" TL.SQTrackExpanded="0" MZ.TrackTargeted="1" PannerCurrentValue="0.5" PannerStartKeyframe="-91445760000000000,0.5,0,0,0,0,0,0" PannerName="Balance" currentExplodedTrackIndex="0" totalExplodedTrackCount="1" premiereTrackType="Stereo">
									<clipitem id="clipitem-100" premiereChannelType="mono">
										<masterclipid>masterclip-16</masterclipid>
										<name>130619_001</name>
										<enabled>TRUE</enabled>
										<duration>1200</duration>
										<rate>
											<timebase>25</timebase>
											<ntsc>FALSE</ntsc>
										</rate>
										<start>0</start>
										<end>1200</end>
										<in>0</in>
										<out>1200</out>
										<pproTicksIn>0</pproTicksIn>
										<pproTicksOut>12192768000000</pproTicksOut>
										<file id="file-16"/>
										<sourcetrack>
											<mediatype>audio</mediatype>
											<trackindex>1</trackindex>
										</sourcetrack>
										<logginginfo>
											<description></description>
											<scene></scene>
											<shottake></shottake>
											<lognote></lognote>
											<good></good>
											<originalvideofilename></originalvideofilename>
											<originalaudiofilename></originalaudiofilename>
										</logginginfo>
										<colorinfo>
											<lut></lut>
											<lut1></lut1>
											<asc_sop></asc_sop>
											<asc_sat></asc_sat>
											<lut2></lut2>
										</colorinfo>
									</clipitem>
									<clipitem id="clipitem-101" premiereChannelType="mono">
										<masterclipid>masterclip-17</masterclipid>
										<name>130619_002</name>
										<enabled>TRUE</enabled>
										<duration>1200</duration>
										<rate>
											<timebase>25</timebase>
											<ntsc>FALSE</ntsc>
										</rate>
										<start>1900</start>
										<end>3100</end>
										<in>0</in>
										<out>1200</out>
										<pproTicksIn>0</pproTicksIn>
										<pproTicksOut>12192768000000</pproTicksOut>
										<file id="file-17"/>
										<sourcetrack>
											<mediatype>audio</mediatype>
											<trackindex>1</trackindex>
										</sourcetrack>
										<logginginfo>
											<description></description>
											<scene></scene>
											<shottake></shottake>
											<lognote></lognote>
											<good></good>
											<originalvideofilename></originalvideofilename>
											<originalaudiofilename></originalaudiofilename>
										</logginginfo>
										<colorinfo>
											<lut></lut>
											<lut1></lut1>
											<asc_sop></asc_sop>
											<asc_sat></asc_sat>
											<lut2></lut2>
										</colorinfo>
									</clipitem>
									<clipitem id="clipitem-102" premiereChannelType="mono">
										<masterclipid>masterclip-18</masterclipid>
										<name>130619_003</name>
										<enabled>TRUE</enabled>
										<duration>1975</duration>
										<rate>
											<timebase>25</timebase>
											<ntsc>FALSE</ntsc>
										</rate>
										<start>4875</start>
										<end>6850</end>
										<in>0</in>
										<out>1975</out>
										<pproTicksIn>0</pproTicksIn>
										<pproTicksOut>20067264000000</pproTicksOut>
										<file id="file-18"/>
										<sourcetrack>
											<mediatype>audio</mediatype>
											<trackindex>1</trackindex>
										</sourcetrack>
											<marker>
												<comment></comment>
												<name></name>
												<in>1205</in>
												<out>-1</out>
												<pproColor>4281828977</pproColor>
											</marker>
										<logginginfo>
											<description></description>
											<scene></scene>
											<shottake></shottake>
											<lognote></lognote>
											<good></good>
											<originalvideofilename></originalvideofilename>
											<originalaudiofilename></originalaudiofilename>
										</logginginfo>
										<colorinfo>
											<lut></lut>
											<lut1></lut1>
											<asc_sop></asc_sop>
											<asc_sat></asc_sat>
											<lut2></lut2>
										</colorinfo>
									</clipitem>
									<clipitem id="clipitem-103" premiereChannelType="mono">
										<masterclipid>masterclip-19</masterclipid>
										<name>130619_004</name>
										<enabled>TRUE</enabled>
										<duration>3325</duration>
										<rate>
											<timebase>25</timebase>
											<ntsc>FALSE</ntsc>
										</rate>
										<start>13800</start>
										<end>17125</end>
										<in>0</in>
										<out>3325</out>
										<pproTicksIn>0</pproTicksIn>
										<pproTicksOut>33784128000000</pproTicksOut>
										<file id="file-19"/>
										<sourcetrack>
											<mediatype>audio</mediatype>
											<trackindex>1</trackindex>
										</sourcetrack>
											<marker>
												<comment></comment>
												<name></name>
												<in>2664</in>
												<out>-1</out>
												<pproColor>4281828977</pproColor>
											</marker>
										<logginginfo>
											<description></description>
											<scene></scene>
											<shottake></shottake>
											<lognote></lognote>
											<good></good>
											<originalvideofilename></originalvideofilename>
											<originalaudiofilename></originalaudiofilename>
										</logginginfo>
										<colorinfo>
											<lut></lut>
											<lut1></lut1>
											<asc_sop></asc_sop>
											<asc_sat></asc_sat>
											<lut2></lut2>
										</colorinfo>
									</clipitem>
									<clipitem id="clipitem-104" premiereChannelType="mono">
										<masterclipid>masterclip-20</masterclipid>
										<name>130619_005</name>
										<enabled>TRUE</enabled>
										<duration>1575</duration>
										<rate>
											<timebase>25</timebase>
											<ntsc>FALSE</ntsc>
										</rate>
										<start>34800</start>
										<end>36375</end>
										<in>0</in>
										<out>1575</out>
										<pproTicksIn>0</pproTicksIn>
										<pproTicksOut>16003008000000</pproTicksOut>
										<file id="file-20"/>
										<sourcetrack>
											<mediatype>audio</mediatype>
											<trackindex>1</trackindex>
										</sourcetrack>
										<logginginfo>
											<description></description>
											<scene></scene>
											<shottake></shottake>
											<lognote></lognote>
											<good></good>
											<originalvideofilename></originalvideofilename>
											<originalaudiofilename></originalaudiofilename>
										</logginginfo>
										<colorinfo>
											<lut></lut>
											<lut1></lut1>
											<asc_sop></asc_sop>
											<asc_sat></asc_sat>
											<lut2></lut2>
										</colorinfo>
									</clipitem>
									<enabled>TRUE</enabled>
									<locked>FALSE</locked>
									<outputchannelindex>1</outputchannelindex>
								</track>
								<track TL.SQTrackAudioKeyframeStyle="0" TL.SQTrackShy="0" TL.SQTrackExpandedHeight="25" TL.SQTrackExpanded="0" MZ.TrackTargeted="1" PannerCurrentValue="0.5" PannerStartKeyframe="-91445760000000000,0.5,0,0,0,0,0,0" PannerName="Balance" currentExplodedTrackIndex="0" totalExplodedTrackCount="1" premiereTrackType="Stereo">
									<clipitem id="clipitem-105" premiereChannelType="mono">
										<masterclipid>masterclip-16</masterclipid>
										<name>130619_001</name>
										<enabled>TRUE</enabled>
										<duration>1200</duration>
										<rate>
											<timebase>25</timebase>
											<ntsc>FALSE</ntsc>
										</rate>
										<start>0</start>
										<end>1200</end>
										<in>0</in>
										<out>1200</out>
										<pproTicksIn>0</pproTicksIn>
										<pproTicksOut>12192768000000</pproTicksOut>
										<file id="file-16"/>
										<sourcetrack>
											<mediatype>audio</mediatype>
											<trackindex>1</trackindex>
										</sourcetrack>
										<logginginfo>
											<description></description>
											<scene></scene>
											<shottake></shottake>
											<lognote></lognote>
											<good></good>
											<originalvideofilename></originalvideofilename>
											<originalaudiofilename></originalaudiofilename>
										</logginginfo>
										<colorinfo>
											<lut></lut>
											<lut1></lut1>
											<asc_sop></asc_sop>
											<asc_sat></asc_sat>
											<lut2></lut2>
										</colorinfo>
									</clipitem>
									<clipitem id="clipitem-106" premiereChannelType="mono">
										<masterclipid>masterclip-17</masterclipid>
										<name>130619_002</name>
										<enabled>TRUE</enabled>
										<duration>1200</duration>
										<rate>
											<timebase>25</timebase>
											<ntsc>FALSE</ntsc>
										</rate>
										<start>1900</start>
										<end>3100</end>
										<in>0</in>
										<out>1200</out>
										<pproTicksIn>0</pproTicksIn>
										<pproTicksOut>12192768000000</pproTicksOut>
										<file id="file-17"/>
										<sourcetrack>
											<mediatype>audio</mediatype>
											<trackindex>1</trackindex>
										</sourcetrack>
										<logginginfo>
											<description></description>
											<scene></scene>
											<shottake></shottake>
											<lognote></lognote>
											<good></good>
											<originalvideofilename></originalvideofilename>
											<originalaudiofilename></originalaudiofilename>
										</logginginfo>
										<colorinfo>
											<lut></lut>
											<lut1></lut1>
											<asc_sop></asc_sop>
											<asc_sat></asc_sat>
											<lut2></lut2>
										</colorinfo>
									</clipitem>
									<clipitem id="clipitem-107" premiereChannelType="mono">
										<masterclipid>masterclip-18</masterclipid>
										<name>130619_003</name>
										<enabled>TRUE</enabled>
										<duration>1975</duration>
										<rate>
											<timebase>25</timebase>
											<ntsc>FALSE</ntsc>
										</rate>
										<start>4875</start>
										<end>6850</end>
										<in>0</in>
										<out>1975</out>
										<pproTicksIn>0</pproTicksIn>
										<pproTicksOut>20067264000000</pproTicksOut>
										<file id="file-18"/>
										<sourcetrack>
											<mediatype>audio</mediatype>
											<trackindex>1</trackindex>
										</sourcetrack>
											<marker>
												<comment></comment>
												<name></name>
												<in>1205</in>
												<out>-1</out>
												<pproColor>4281828977</pproColor>
											</marker>
										<logginginfo>
											<description></description>
											<scene></scene>
											<shottake></shottake>
											<lognote></lognote>
											<good></good>
											<originalvideofilename></originalvideofilename>
											<originalaudiofilename></originalaudiofilename>
										</logginginfo>
										<colorinfo>
											<lut></lut>
											<lut1></lut1>
											<asc_sop></asc_sop>
											<asc_sat></asc_sat>
											<lut2></lut2>
										</colorinfo>
									</clipitem>
									<clipitem id="clipitem-108" premiereChannelType="mono">
										<masterclipid>masterclip-19</masterclipid>
										<name>130619_004</name>
										<enabled>TRUE</enabled>
										<duration>3325</duration>
										<rate>
											<timebase>25</timebase>
											<ntsc>FALSE</ntsc>
										</rate>
										<start>13800</start>
										<end>17125</end>
										<in>0</in>
										<out>3325</out>
										<pproTicksIn>0</pproTicksIn>
										<pproTicksOut>33784128000000</pproTicksOut>
										<file id="file-19"/>
										<sourcetrack>
											<mediatype>audio</mediatype>
											<trackindex>1</trackindex>
										</sourcetrack>
											<marker>
												<comment></comment>
												<name></name>
												<in>2664</in>
												<out>-1</out>
												<pproColor>4281828977</pproColor>
											</marker>
										<logginginfo>
											<description></description>
											<scene></scene>
											<shottake></shottake>
											<lognote></lognote>
											<good></good>
											<originalvideofilename></originalvideofilename>
											<originalaudiofilename></originalaudiofilename>
										</logginginfo>
										<colorinfo>
											<lut></lut>
											<lut1></lut1>
											<asc_sop></asc_sop>
											<asc_sat></asc_sat>
											<lut2></lut2>
										</colorinfo>
									</clipitem>
									<clipitem id="clipitem-109" premiereChannelType="mono">
										<masterclipid>masterclip-20</masterclipid>
										<name>130619_005</name>
										<enabled>TRUE</enabled>
										<duration>1575</duration>
										<rate>
											<timebase>25</timebase>
											<ntsc>FALSE</ntsc>
										</rate>
										<start>34800</start>
										<end>36375</end>
										<in>0</in>
										<out>1575</out>
										<pproTicksIn>0</pproTicksIn>
										<pproTicksOut>16003008000000</pproTicksOut>
										<file id="file-20"/>
										<sourcetrack>
											<mediatype>audio</mediatype>
											<trackindex>1</trackindex>
										</sourcetrack>
										<logginginfo>
											<description></description>
											<scene></scene>
											<shottake></shottake>
											<lognote></lognote>
											<good></good>
											<originalvideofilename></originalvideofilename>
											<originalaudiofilename></originalaudiofilename>
										</logginginfo>
										<colorinfo>
											<lut></lut>
											<lut1></lut1>
											<asc_sop></asc_sop>
											<asc_sat></asc_sat>
											<lut2></lut2>
										</colorinfo>
									</clipitem>
									<enabled>TRUE</enabled>
									<locked>FALSE</locked>
									<outputchannelindex>2</outputchannelindex>
								</track>
								<track TL.SQTrackAudioKeyframeStyle="0" TL.SQTrackShy="0" TL.SQTrackExpandedHeight="25" TL.SQTrackExpanded="0" MZ.TrackTargeted="1" PannerCurrentValue="0.5" PannerStartKeyframe="-91445760000000000,0.5,0,0,0,0,0,0" PannerName="Balance" currentExplodedTrackIndex="0" totalExplodedTrackCount="1" premiereTrackType="Stereo">
									<clipitem id="clipitem-110" premiereChannelType="mono">
										<masterclipid>masterclip-16</masterclipid>
										<name>130619_001</name>
										<enabled>TRUE</enabled>
										<duration>1200</duration>
										<rate>
											<timebase>25</timebase>
											<ntsc>FALSE</ntsc>
										</rate>
										<start>0</start>
										<end>1200</end>
										<in>0</in>
										<out>1200</out>
										<pproTicksIn>0</pproTicksIn>
										<pproTicksOut>12192768000000</pproTicksOut>
										<file id="file-16"/>
										<sourcetrack>
											<mediatype>audio</mediatype>
											<trackindex>1</trackindex>
										</sourcetrack>
										<logginginfo>
											<description></description>
											<scene></scene>
											<shottake></shottake>
											<lognote></lognote>
											<good></good>
											<originalvideofilename></originalvideofilename>
											<originalaudiofilename></originalaudiofilename>
										</logginginfo>
										<colorinfo>
											<lut></lut>
											<lut1></lut1>
											<asc_sop></asc_sop>
											<asc_sat></asc_sat>
											<lut2></lut2>
										</colorinfo>
									</clipitem>
									<clipitem id="clipitem-111" premiereChannelType="mono">
										<masterclipid>masterclip-17</masterclipid>
										<name>130619_002</name>
										<enabled>TRUE</enabled>
										<duration>1200</duration>
										<rate>
											<timebase>25</timebase>
											<ntsc>FALSE</ntsc>
										</rate>
										<start>1900</start>
										<end>3100</end>
										<in>0</in>
										<out>1200</out>
										<pproTicksIn>0</pproTicksIn>
										<pproTicksOut>12192768000000</pproTicksOut>
										<file id="file-17"/>
										<sourcetrack>
											<mediatype>audio</mediatype>
											<trackindex>1</trackindex>
										</sourcetrack>
										<logginginfo>
											<description></description>
											<scene></scene>
											<shottake></shottake>
											<lognote></lognote>
											<good></good>
											<originalvideofilename></originalvideofilename>
											<originalaudiofilename></originalaudiofilename>
										</logginginfo>
										<colorinfo>
											<lut></lut>
											<lut1></lut1>
											<asc_sop></asc_sop>
											<asc_sat></asc_sat>
											<lut2></lut2>
										</colorinfo>
									</clipitem>
									<clipitem id="clipitem-112" premiereChannelType="mono">
										<masterclipid>masterclip-18</masterclipid>
										<name>130619_003</name>
										<enabled>TRUE</enabled>
										<duration>1975</duration>
										<rate>
											<timebase>25</timebase>
											<ntsc>FALSE</ntsc>
										</rate>
										<start>4875</start>
										<end>6850</end>
										<in>0</in>
										<out>1975</out>
										<pproTicksIn>0</pproTicksIn>
										<pproTicksOut>20067264000000</pproTicksOut>
										<file id="file-18"/>
										<sourcetrack>
											<mediatype>audio</mediatype>
											<trackindex>1</trackindex>
										</sourcetrack>
											<marker>
												<comment></comment>
												<name></name>
												<in>1205</in>
												<out>-1</out>
												<pproColor>4281828977</pproColor>
											</marker>
										<logginginfo>
											<description></description>
											<scene></scene>
											<shottake></shottake>
											<lognote></lognote>
											<good></good>
											<originalvideofilename></originalvideofilename>
											<originalaudiofilename></originalaudiofilename>
										</logginginfo>
										<colorinfo>
											<lut></lut>
											<lut1></lut1>
											<asc_sop></asc_sop>
											<asc_sat></asc_sat>
											<lut2></lut2>
										</colorinfo>
									</clipitem>
									<clipitem id="clipitem-113" premiereChannelType="mono">
										<masterclipid>masterclip-19</masterclipid>
										<name>130619_004</name>
										<enabled>TRUE</enabled>
										<duration>3325</duration>
										<rate>
											<timebase>25</timebase>
											<ntsc>FALSE</ntsc>
										</rate>
										<start>13800</start>
										<end>17125</end>
										<in>0</in>
										<out>3325</out>
										<pproTicksIn>0</pproTicksIn>
										<pproTicksOut>33784128000000</pproTicksOut>
										<file id="file-19"/>
										<sourcetrack>
											<mediatype>audio</mediatype>
											<trackindex>1</trackindex>
										</sourcetrack>
											<marker>
												<comment></comment>
												<name></name>
												<in>2664</in>
												<out>-1</out>
												<pproColor>4281828977</pproColor>
											</marker>
										<logginginfo>
											<description></description>
											<scene></scene>
											<shottake></shottake>
											<lognote></lognote>
											<good></good>
											<originalvideofilename></originalvideofilename>
											<originalaudiofilename></originalaudiofilename>
										</logginginfo>
										<colorinfo>
											<lut></lut>
											<lut1></lut1>
											<asc_sop></asc_sop>
											<asc_sat></asc_sat>
											<lut2></lut2>
										</colorinfo>
									</clipitem>
									<clipitem id="clipitem-114" premiereChannelType="mono">
										<masterclipid>masterclip-20</masterclipid>
										<name>130619_005</name>
										<enabled>TRUE</enabled>
										<duration>1575</duration>
										<rate>
											<timebase>25</timebase>
											<ntsc>FALSE</ntsc>
										</rate>
										<start>34800</start>
										<end>36375</end>
										<in>0</in>
										<out>1575</out>
										<pproTicksIn>0</pproTicksIn>
										<pproTicksOut>16003008000000</pproTicksOut>
										<file id="file-20"/>
										<sourcetrack>
											<mediatype>audio</mediatype>
											<trackindex>1</trackindex>
										</sourcetrack>
										<logginginfo>
											<description></description>
											<scene></scene>
											<shottake></shottake>
											<lognote></lognote>
											<good></good>
											<originalvideofilename></originalvideofilename>
											<originalaudiofilename></originalaudiofilename>
										</logginginfo>
										<colorinfo>
											<lut></lut>
											<lut1></lut1>
											<asc_sop></asc_sop>
											<asc_sat></asc_sat>
											<lut2></lut2>
										</colorinfo>
									</clipitem>
									<enabled>TRUE</enabled>
									<locked>FALSE</locked>
									<outputchannelindex>1</outputchannelindex>
								</track>
								<track TL.SQTrackAudioKeyframeStyle="0" TL.SQTrackShy="0" TL.SQTrackExpandedHeight="25" TL.SQTrackExpanded="0" MZ.TrackTargeted="1" PannerCurrentValue="0.5" PannerStartKeyframe="-91445760000000000,0.5,0,0,0,0,0,0" PannerName="Balance" currentExplodedTrackIndex="0" totalExplodedTrackCount="1" premiereTrackType="Stereo">
									<clipitem id="clipitem-115" premiereChannelType="mono">
										<masterclipid>masterclip-16</masterclipid>
										<name>130619_001</name>
										<enabled>TRUE</enabled>
										<duration>1200</duration>
										<rate>
											<timebase>25</timebase>
											<ntsc>FALSE</ntsc>
										</rate>
										<start>0</start>
										<end>1200</end>
										<in>0</in>
										<out>1200</out>
										<pproTicksIn>0</pproTicksIn>
										<pproTicksOut>12192768000000</pproTicksOut>
										<file id="file-16"/>
										<sourcetrack>
											<mediatype>audio</mediatype>
											<trackindex>1</trackindex>
										</sourcetrack>
										<logginginfo>
											<description></description>
											<scene></scene>
											<shottake></shottake>
											<lognote></lognote>
											<good></good>
											<originalvideofilename></originalvideofilename>
											<originalaudiofilename></originalaudiofilename>
										</logginginfo>
										<colorinfo>
											<lut></lut>
											<lut1></lut1>
											<asc_sop></asc_sop>
											<asc_sat></asc_sat>
											<lut2></lut2>
										</colorinfo>
									</clipitem>
									<clipitem id="clipitem-116" premiereChannelType="mono">
										<masterclipid>masterclip-17</masterclipid>
										<name>130619_002</name>
										<enabled>TRUE</enabled>
										<duration>1200</duration>
										<rate>
											<timebase>25</timebase>
											<ntsc>FALSE</ntsc>
										</rate>
										<start>1900</start>
										<end>3100</end>
										<in>0</in>
										<out>1200</out>
										<pproTicksIn>0</pproTicksIn>
										<pproTicksOut>12192768000000</pproTicksOut>
										<file id="file-17"/>
										<sourcetrack>
											<mediatype>audio</mediatype>
											<trackindex>1</trackindex>
										</sourcetrack>
										<logginginfo>
											<description></description>
											<scene></scene>
											<shottake></shottake>
											<lognote></lognote>
											<good></good>
											<originalvideofilename></originalvideofilename>
											<originalaudiofilename></originalaudiofilename>
										</logginginfo>
										<colorinfo>
											<lut></lut>
											<lut1></lut1>
											<asc_sop></asc_sop>
											<asc_sat></asc_sat>
											<lut2></lut2>
										</colorinfo>
									</clipitem>
									<clipitem id="clipitem-117" premiereChannelType="mono">
										<masterclipid>masterclip-18</masterclipid>
										<name>130619_003</name>
										<enabled>TRUE</enabled>
										<duration>1975</duration>
										<rate>
											<timebase>25</timebase>
											<ntsc>FALSE</ntsc>
										</rate>
										<start>4875</start>
										<end>6850</end>
										<in>0</in>
										<out>1975</out>
										<pproTicksIn>0</pproTicksIn>
										<pproTicksOut>20067264000000</pproTicksOut>
										<file id="file-18"/>
										<sourcetrack>
											<mediatype>audio</mediatype>
											<trackindex>1</trackindex>
										</sourcetrack>
											<marker>
												<comment></comment>
												<name></name>
												<in>1205</in>
												<out>-1</out>
												<pproColor>4281828977</pproColor>
											</marker>
										<logginginfo>
											<description></description>
											<scene></scene>
											<shottake></shottake>
											<lognote></lognote>
											<good></good>
											<originalvideofilename></originalvideofilename>
											<originalaudiofilename></originalaudiofilename>
										</logginginfo>
										<colorinfo>
											<lut></lut>
											<lut1></lut1>
											<asc_sop></asc_sop>
											<asc_sat></asc_sat>
											<lut2></lut2>
										</colorinfo>
									</clipitem>
									<clipitem id="clipitem-118" premiereChannelType="mono">
										<masterclipid>masterclip-19</masterclipid>
										<name>130619_004</name>
										<enabled>TRUE</enabled>
										<duration>3325</duration>
										<rate>
											<timebase>25</timebase>
											<ntsc>FALSE</ntsc>
										</rate>
										<start>13800</start>
										<end>17125</end>
										<in>0</in>
										<out>3325</out>
										<pproTicksIn>0</pproTicksIn>
										<pproTicksOut>33784128000000</pproTicksOut>
										<file id="file-19"/>
										<sourcetrack>
											<mediatype>audio</mediatype>
											<trackindex>1</trackindex>
										</sourcetrack>
											<marker>
												<comment></comment>
												<name></name>
												<in>2664</in>
												<out>-1</out>
												<pproColor>4281828977</pproColor>
											</marker>
										<logginginfo>
											<description></description>
											<scene></scene>
											<shottake></shottake>
											<lognote></lognote>
											<good></good>
											<originalvideofilename></originalvideofilename>
											<originalaudiofilename></originalaudiofilename>
										</logginginfo>
										<colorinfo>
											<lut></lut>
											<lut1></lut1>
											<asc_sop></asc_sop>
											<asc_sat></asc_sat>
											<lut2></lut2>
										</colorinfo>
									</clipitem>
									<clipitem id="clipitem-119" premiereChannelType="mono">
										<masterclipid>masterclip-20</masterclipid>
										<name>130619_005</name>
										<enabled>TRUE</enabled>
										<duration>1575</duration>
										<rate>
											<timebase>25</timebase>
											<ntsc>FALSE</ntsc>
										</rate>
										<start>34800</start>
										<end>36375</end>
										<in>0</in>
										<out>1575</out>
										<pproTicksIn>0</pproTicksIn>
										<pproTicksOut>16003008000000</pproTicksOut>
										<file id="file-20"/>
										<sourcetrack>
											<mediatype>audio</mediatype>
											<trackindex>1</trackindex>
										</sourcetrack>
										<logginginfo>
											<description></description>
											<scene></scene>
											<shottake></shottake>
											<lognote></lognote>
											<good></good>
											<originalvideofilename></originalvideofilename>
											<originalaudiofilename></originalaudiofilename>
										</logginginfo>
										<colorinfo>
											<lut></lut>
											<lut1></lut1>
											<asc_sop></asc_sop>
											<asc_sat></asc_sat>
											<lut2></lut2>
										</colorinfo>
									</clipitem>
									<enabled>TRUE</enabled>
									<locked>FALSE</locked>
									<outputchannelindex>2</outputchannelindex>
								</track>
							</audio>
						</media>
						<timecode>
							<rate>
								<timebase>25</timebase>
								<ntsc>FALSE</ntsc>
							</rate>
							<string>09:39:07:00</string>
							<frame>868675</frame>
							<displayformat>NDF</displayformat>
						</timecode>
						<labels>
							<label2>Forest</label2>
						</labels>
						<logginginfo>
							<description></description>
							<scene></scene>
							<shottake></shottake>
							<lognote></lognote>
							<good></good>
							<originalvideofilename></originalvideofilename>
							<originalaudiofilename></originalaudiofilename>
						</logginginfo>
					</sequence>
				</children>
			</bin>
		</children>
	</project>
</xmeml>
