<?xml version='1.0' encoding='UTF-8'?>
<xmeml version="4"><project><bin><name>AutoSeq_V1</name><children><bin><name>Masterclips_Video</name><children><clip explodedTracks="true" id="masterclip-1"><masterclipid>masterclip-1</masterclipid><duration>923</duration><ismasterclip>TRUE</ismasterclip><name>A001_06071220_C001</name><rate><timebase>25</timebase><ntsc>FALSE</ntsc></rate><media><video><track><clipitem id="clipitem-1"><masterclipid>masterclip-1</masterclipid><name>A001_06071220_C001</name><rate><timebase>25</timebase><ntsc>FALSE</ntsc></rate><alphatype>none</alphatype><pixelaspectratio>square</pixelaspectratio><anamorphic>FALSE</anamorphic><file id="file-1"><name>A001_06071220_C001</name><rate><timebase>25</timebase><ntsc>FALSE</ntsc></rate><duration>923</duration><pathurl>file://localhost/Q%3A/Projects/HAZEN_ALPHA/MEDIA_OCM/DAY%201/A001_06071220_C001.mov</pathurl><media><video /><audio><channelcount>2</channelcount></audio></media></file><link><linkclipref>clipitem-1</linkclipref><mediatype>video</mediatype><trackindex>1</trackindex><clipindex>1</clipindex></link><link><linkclipref>clipitem-2</linkclipref><mediatype>audio</mediatype><trackindex>1</trackindex><clipindex>1</clipindex></link><link><linkclipref>clipitem-3</linkclipref><mediatype>audio</mediatype><trackindex>2</trackindex><clipindex>1</clipindex></link></clipitem></track></video><audio><track><clipitem id="clipitem-2"><masterclipid>masterclip-1</masterclipid><name>A001_06071220_C001</name><rate><timebase>25</timebase><ntsc>FALSE</ntsc></rate><sourcetrack><mediatype>audio</mediatype><trackindex>1</trackindex></sourcetrack><link><linkclipref>clipitem-1</linkclipref><mediatype>video</mediatype><trackindex>1</trackindex><clipindex>1</clipindex></link><link><linkclipref>clipitem-2</linkclipref><mediatype>audio</mediatype><trackindex>1</trackindex><clipindex>1</clipindex></link><link><linkclipref>clipitem-3</linkclipref><mediatype>audio</mediatype><trackindex>2</trackindex><clipindex>1</clipindex></link></clipitem><file id="file-1" /></track><track><clipitem id="clipitem-3"><masterclipid>masterclip-1</masterclipid><name>A001_06071220_C001</name><rate><timebase>25</timebase><ntsc>FALSE</ntsc></rate><sourcetrack><mediatype>audio</mediatype><trackindex>2</trackindex></sourcetrack><link><linkclipref>clipitem-1</linkclipref><mediatype>video</mediatype><trackindex>1</trackindex><clipindex>1</clipindex></link><link><linkclipref>clipitem-2</linkclipref><mediatype>audio</mediatype><trackindex>1</trackindex><clipindex>1</clipindex></link><link><linkclipref>clipitem-3</linkclipref><mediatype>audio</mediatype><trackindex>2</trackindex><clipindex>1</clipindex></link></clipitem><file id="file-1" /></track></audio></media></clip><clip explodedTracks="true" id="masterclip-2"><masterclipid>masterclip-2</masterclipid><duration>918</duration><ismasterclip>TRUE</ismasterclip><name>A001_06071221_C002</name><rate><timebase>25</timebase><ntsc>FALSE</ntsc></rate><media><video><track><clipitem id="clipitem-4"><masterclipid>masterclip-2</masterclipid><name>A001_06071221_C002</name><rate><timebase>25</timebase><ntsc>FALSE</ntsc></rate><alphatype>none</alphatype><pixelaspectratio>square</pixelaspectratio><anamorphic>FALSE</anamorphic><file id="file-2"><name>A001_06071221_C002</name><rate><timebase>25</timebase><ntsc>FALSE</ntsc></rate><duration>918</duration><pathurl>file://localhost/Q%3A/Projects/HAZEN_ALPHA/MEDIA_OCM/DAY%201/A001_06071221_C002.mov</pathurl><media><video /><audio><channelcount>2</channelcount></audio></media></file><link><linkclipref>clipitem-4</linkclipref><mediatype>video</mediatype><trackindex>1</trackindex><clipindex>1</clipindex></link><link><linkclipref>clipitem-5</linkclipref><mediatype>audio</mediatype><trackindex>1</trackindex><clipindex>1</clipindex></link><link><linkclipref>clipitem-6</linkclipref><mediatype>audio</mediatype><trackindex>2</trackindex><clipindex>1</clipindex></link></clipitem></track></video><audio><track><clipitem id="clipitem-5"><masterclipid>masterclip-2</masterclipid><name>A001_06071221_C002</name><rate><timebase>25</timebase><ntsc>FALSE</ntsc></rate><sourcetrack><mediatype>audio</mediatype><trackindex>1</trackindex></sourcetrack><link><linkclipref>clipitem-4</linkclipref><mediatype>video</mediatype><trackindex>1</trackindex><clipindex>1</clipindex></link><link><linkclipref>clipitem-5</linkclipref><mediatype>audio</mediatype><trackindex>1</trackindex><clipindex>1</clipindex></link><link><linkclipref>clipitem-6</linkclipref><mediatype>audio</mediatype><trackindex>2</trackindex><clipindex>1</clipindex></link></clipitem><file id="file-2" /></track><track><clipitem id="clipitem-6"><masterclipid>masterclip-2</masterclipid><name>A001_06071221_C002</name><rate><timebase>25</timebase><ntsc>FALSE</ntsc></rate><sourcetrack><mediatype>audio</mediatype><trackindex>2</trackindex></sourcetrack><link><linkclipref>clipitem-4</linkclipref><mediatype>video</mediatype><trackindex>1</trackindex><clipindex>1</clipindex></link><link><linkclipref>clipitem-5</linkclipref><mediatype>audio</mediatype><trackindex>1</trackindex><clipindex>1</clipindex></link><link><linkclipref>clipitem-6</linkclipref><mediatype>audio</mediatype><trackindex>2</trackindex><clipindex>1</clipindex></link></clipitem><file id="file-2" /></track></audio></media></clip><clip explodedTracks="true" id="masterclip-3"><masterclipid>masterclip-3</masterclipid><duration>1798</duration><ismasterclip>TRUE</ismasterclip><name>A001_06071223_C003</name><rate><timebase>25</timebase><ntsc>FALSE</ntsc></rate><media><video><track><clipitem id="clipitem-7"><masterclipid>masterclip-3</masterclipid><name>A001_06071223_C003</name><rate><timebase>25</timebase><ntsc>FALSE</ntsc></rate><alphatype>none</alphatype><pixelaspectratio>square</pixelaspectratio><anamorphic>FALSE</anamorphic><file id="file-3"><name>A001_06071223_C003</name><rate><timebase>25</timebase><ntsc>FALSE</ntsc></rate><duration>1798</duration><pathurl>file://localhost/Q%3A/Projects/HAZEN_ALPHA/MEDIA_OCM/DAY%201/A001_06071223_C003.mov</pathurl><media><video /><audio><channelcount>2</channelcount></audio></media></file><link><linkclipref>clipitem-7</linkclipref><mediatype>video</mediatype><trackindex>1</trackindex><clipindex>1</clipindex></link><link><linkclipref>clipitem-8</linkclipref><mediatype>audio</mediatype><trackindex>1</trackindex><clipindex>1</clipindex></link><link><linkclipref>clipitem-9</linkclipref><mediatype>audio</mediatype><trackindex>2</trackindex><clipindex>1</clipindex></link></clipitem></track></video><audio><track><clipitem id="clipitem-8"><masterclipid>masterclip-3</masterclipid><name>A001_06071223_C003</name><rate><timebase>25</timebase><ntsc>FALSE</ntsc></rate><sourcetrack><mediatype>audio</mediatype><trackindex>1</trackindex></sourcetrack><link><linkclipref>clipitem-7</linkclipref><mediatype>video</mediatype><trackindex>1</trackindex><clipindex>1</clipindex></link><link><linkclipref>clipitem-8</linkclipref><mediatype>audio</mediatype><trackindex>1</trackindex><clipindex>1</clipindex></link><link><linkclipref>clipitem-9</linkclipref><mediatype>audio</mediatype><trackindex>2</trackindex><clipindex>1</clipindex></link></clipitem><file id="file-3" /></track><track><clipitem id="clipitem-9"><masterclipid>masterclip-3</masterclipid><name>A001_06071223_C003</name><rate><timebase>25</timebase><ntsc>FALSE</ntsc></rate><sourcetrack><mediatype>audio</mediatype><trackindex>2</trackindex></sourcetrack><link><linkclipref>clipitem-7</linkclipref><mediatype>video</mediatype><trackindex>1</trackindex><clipindex>1</clipindex></link><link><linkclipref>clipitem-8</linkclipref><mediatype>audio</mediatype><trackindex>1</trackindex><clipindex>1</clipindex></link><link><linkclipref>clipitem-9</linkclipref><mediatype>audio</mediatype><trackindex>2</trackindex><clipindex>1</clipindex></link></clipitem><file id="file-3" /></track></audio></media></clip><clip explodedTracks="true" id="masterclip-4"><masterclipid>masterclip-4</masterclipid><duration>2873</duration><ismasterclip>TRUE</ismasterclip><name>A001_06071229_C004</name><rate><timebase>25</timebase><ntsc>FALSE</ntsc></rate><media><video><track><clipitem id="clipitem-10"><masterclipid>masterclip-4</masterclipid><name>A001_06071229_C004</name><rate><timebase>25</timebase><ntsc>FALSE</ntsc></rate><alphatype>none</alphatype><pixelaspectratio>square</pixelaspectratio><anamorphic>FALSE</anamorphic><file id="file-4"><name>A001_06071229_C004</name><rate><timebase>25</timebase><ntsc>FALSE</ntsc></rate><duration>2873</duration><pathurl>file://localhost/Q%3A/Projects/HAZEN_ALPHA/MEDIA_OCM/DAY%201/A001_06071229_C004.mov</pathurl><media><video /><audio><channelcount>2</channelcount></audio></media></file><link><linkclipref>clipitem-10</linkclipref><mediatype>video</mediatype><trackindex>1</trackindex><clipindex>1</clipindex></link><link><linkclipref>clipitem-11</linkclipref><mediatype>audio</mediatype><trackindex>1</trackindex><clipindex>1</clipindex></link><link><linkclipref>clipitem-12</linkclipref><mediatype>audio</mediatype><trackindex>2</trackindex><clipindex>1</clipindex></link></clipitem></track></video><audio><track><clipitem id="clipitem-11"><masterclipid>masterclip-4</masterclipid><name>A001_06071229_C004</name><rate><timebase>25</timebase><ntsc>FALSE</ntsc></rate><sourcetrack><mediatype>audio</mediatype><trackindex>1</trackindex></sourcetrack><link><linkclipref>clipitem-10</linkclipref><mediatype>video</mediatype><trackindex>1</trackindex><clipindex>1</clipindex></link><link><linkclipref>clipitem-11</linkclipref><mediatype>audio</mediatype><trackindex>1</trackindex><clipindex>1</clipindex></link><link><linkclipref>clipitem-12</linkclipref><mediatype>audio</mediatype><trackindex>2</trackindex><clipindex>1</clipindex></link></clipitem><file id="file-4" /></track><track><clipitem id="clipitem-12"><masterclipid>masterclip-4</masterclipid><name>A001_06071229_C004</name><rate><timebase>25</timebase><ntsc>FALSE</ntsc></rate><sourcetrack><mediatype>audio</mediatype><trackindex>2</trackindex></sourcetrack><link><linkclipref>clipitem-10</linkclipref><mediatype>video</mediatype><trackindex>1</trackindex><clipindex>1</clipindex></link><link><linkclipref>clipitem-11</linkclipref><mediatype>audio</mediatype><trackindex>1</trackindex><clipindex>1</clipindex></link><link><linkclipref>clipitem-12</linkclipref><mediatype>audio</mediatype><trackindex>2</trackindex><clipindex>1</clipindex></link></clipitem><file id="file-4" /></track></audio></media></clip><clip explodedTracks="true" id="masterclip-5"><masterclipid>masterclip-5</masterclipid><duration>601</duration><ismasterclip>TRUE</ismasterclip><name>A001_06071243_C005</name><rate><timebase>25</timebase><ntsc>FALSE</ntsc></rate><media><video><track><clipitem id="clipitem-13"><masterclipid>masterclip-5</masterclipid><name>A001_06071243_C005</name><rate><timebase>25</timebase><ntsc>FALSE</ntsc></rate><alphatype>none</alphatype><pixelaspectratio>square</pixelaspectratio><anamorphic>FALSE</anamorphic><file id="file-5"><name>A001_06071243_C005</name><rate><timebase>25</timebase><ntsc>FALSE</ntsc></rate><duration>601</duration><pathurl>file://localhost/Q%3A/Projects/HAZEN_ALPHA/MEDIA_OCM/DAY%201/A001_06071243_C005.mov</pathurl><media><video /><audio><channelcount>2</channelcount></audio></media></file><link><linkclipref>clipitem-13</linkclipref><mediatype>video</mediatype><trackindex>1</trackindex><clipindex>1</clipindex></link><link><linkclipref>clipitem-14</linkclipref><mediatype>audio</mediatype><trackindex>1</trackindex><clipindex>1</clipindex></link><link><linkclipref>clipitem-15</linkclipref><mediatype>audio</mediatype><trackindex>2</trackindex><clipindex>1</clipindex></link></clipitem></track></video><audio><track><clipitem id="clipitem-14"><masterclipid>masterclip-5</masterclipid><name>A001_06071243_C005</name><rate><timebase>25</timebase><ntsc>FALSE</ntsc></rate><sourcetrack><mediatype>audio</mediatype><trackindex>1</trackindex></sourcetrack><link><linkclipref>clipitem-13</linkclipref><mediatype>video</mediatype><trackindex>1</trackindex><clipindex>1</clipindex></link><link><linkclipref>clipitem-14</linkclipref><mediatype>audio</mediatype><trackindex>1</trackindex><clipindex>1</clipindex></link><link><linkclipref>clipitem-15</linkclipref><mediatype>audio</mediatype><trackindex>2</trackindex><clipindex>1</clipindex></link></clipitem><file id="file-5" /></track><track><clipitem id="clipitem-15"><masterclipid>masterclip-5</masterclipid><name>A001_06071243_C005</name><rate><timebase>25</timebase><ntsc>FALSE</ntsc></rate><sourcetrack><mediatype>audio</mediatype><trackindex>2</trackindex></sourcetrack><link><linkclipref>clipitem-13</linkclipref><mediatype>video</mediatype><trackindex>1</trackindex><clipindex>1</clipindex></link><link><linkclipref>clipitem-14</linkclipref><mediatype>audio</mediatype><trackindex>1</trackindex><clipindex>1</clipindex></link><link><linkclipref>clipitem-15</linkclipref><mediatype>audio</mediatype><trackindex>2</trackindex><clipindex>1</clipindex></link></clipitem><file id="file-5" /></track></audio></media></clip><clip explodedTracks="true" id="masterclip-6"><masterclipid>masterclip-6</masterclipid><duration>4277</duration><ismasterclip>TRUE</ismasterclip><name>A001_06071244_C006</name><rate><timebase>25</timebase><ntsc>FALSE</ntsc></rate><media><video><track><clipitem id="clipitem-16"><masterclipid>masterclip-6</masterclipid><name>A001_06071244_C006</name><rate><timebase>25</timebase><ntsc>FALSE</ntsc></rate><alphatype>none</alphatype><pixelaspectratio>square</pixelaspectratio><anamorphic>FALSE</anamorphic><file id="file-6"><name>A001_06071244_C006</name><rate><timebase>25</timebase><ntsc>FALSE</ntsc></rate><duration>4277</duration><pathurl>file://localhost/Q%3A/Projects/HAZEN_ALPHA/MEDIA_OCM/DAY%201/A001_06071244_C006.mov</pathurl><media><video /><audio><channelcount>2</channelcount></audio></media></file><link><linkclipref>clipitem-16</linkclipref><mediatype>video</mediatype><trackindex>1</trackindex><clipindex>1</clipindex></link><link><linkclipref>clipitem-17</linkclipref><mediatype>audio</mediatype><trackindex>1</trackindex><clipindex>1</clipindex></link><link><linkclipref>clipitem-18</linkclipref><mediatype>audio</mediatype><trackindex>2</trackindex><clipindex>1</clipindex></link></clipitem></track></video><audio><track><clipitem id="clipitem-17"><masterclipid>masterclip-6</masterclipid><name>A001_06071244_C006</name><rate><timebase>25</timebase><ntsc>FALSE</ntsc></rate><sourcetrack><mediatype>audio</mediatype><trackindex>1</trackindex></sourcetrack><link><linkclipref>clipitem-16</linkclipref><mediatype>video</mediatype><trackindex>1</trackindex><clipindex>1</clipindex></link><link><linkclipref>clipitem-17</linkclipref><mediatype>audio</mediatype><trackindex>1</trackindex><clipindex>1</clipindex></link><link><linkclipref>clipitem-18</linkclipref><mediatype>audio</mediatype><trackindex>2</trackindex><clipindex>1</clipindex></link></clipitem><file id="file-6" /></track><track><clipitem id="clipitem-18"><masterclipid>masterclip-6</masterclipid><name>A001_06071244_C006</name><rate><timebase>25</timebase><ntsc>FALSE</ntsc></rate><sourcetrack><mediatype>audio</mediatype><trackindex>2</trackindex></sourcetrack><link><linkclipref>clipitem-16</linkclipref><mediatype>video</mediatype><trackindex>1</trackindex><clipindex>1</clipindex></link><link><linkclipref>clipitem-17</linkclipref><mediatype>audio</mediatype><trackindex>1</trackindex><clipindex>1</clipindex></link><link><linkclipref>clipitem-18</linkclipref><mediatype>audio</mediatype><trackindex>2</trackindex><clipindex>1</clipindex></link></clipitem><file id="file-6" /></track></audio></media></clip><clip explodedTracks="true" id="masterclip-7"><masterclipid>masterclip-7</masterclipid><duration>3237</duration><ismasterclip>TRUE</ismasterclip><name>A001_06071251_C007</name><rate><timebase>25</timebase><ntsc>FALSE</ntsc></rate><media><video><track><clipitem id="clipitem-19"><masterclipid>masterclip-7</masterclipid><name>A001_06071251_C007</name><rate><timebase>25</timebase><ntsc>FALSE</ntsc></rate><alphatype>none</alphatype><pixelaspectratio>square</pixelaspectratio><anamorphic>FALSE</anamorphic><file id="file-7"><name>A001_06071251_C007</name><rate><timebase>25</timebase><ntsc>FALSE</ntsc></rate><duration>3237</duration><pathurl>file://localhost/Q%3A/Projects/HAZEN_ALPHA/MEDIA_OCM/DAY%201/A001_06071251_C007.mov</pathurl><media><video /><audio><channelcount>2</channelcount></audio></media></file><link><linkclipref>clipitem-19</linkclipref><mediatype>video</mediatype><trackindex>1</trackindex><clipindex>1</clipindex></link><link><linkclipref>clipitem-20</linkclipref><mediatype>audio</mediatype><trackindex>1</trackindex><clipindex>1</clipindex></link><link><linkclipref>clipitem-21</linkclipref><mediatype>audio</mediatype><trackindex>2</trackindex><clipindex>1</clipindex></link></clipitem></track></video><audio><track><clipitem id="clipitem-20"><masterclipid>masterclip-7</masterclipid><name>A001_06071251_C007</name><rate><timebase>25</timebase><ntsc>FALSE</ntsc></rate><sourcetrack><mediatype>audio</mediatype><trackindex>1</trackindex></sourcetrack><link><linkclipref>clipitem-19</linkclipref><mediatype>video</mediatype><trackindex>1</trackindex><clipindex>1</clipindex></link><link><linkclipref>clipitem-20</linkclipref><mediatype>audio</mediatype><trackindex>1</trackindex><clipindex>1</clipindex></link><link><linkclipref>clipitem-21</linkclipref><mediatype>audio</mediatype><trackindex>2</trackindex><clipindex>1</clipindex></link></clipitem><file id="file-7" /></track><track><clipitem id="clipitem-21"><masterclipid>masterclip-7</masterclipid><name>A001_06071251_C007</name><rate><timebase>25</timebase><ntsc>FALSE</ntsc></rate><sourcetrack><mediatype>audio</mediatype><trackindex>2</trackindex></sourcetrack><link><linkclipref>clipitem-19</linkclipref><mediatype>video</mediatype><trackindex>1</trackindex><clipindex>1</clipindex></link><link><linkclipref>clipitem-20</linkclipref><mediatype>audio</mediatype><trackindex>1</trackindex><clipindex>1</clipindex></link><link><linkclipref>clipitem-21</linkclipref><mediatype>audio</mediatype><trackindex>2</trackindex><clipindex>1</clipindex></link></clipitem><file id="file-7" /></track></audio></media></clip><clip explodedTracks="true" id="masterclip-8"><masterclipid>masterclip-8</masterclipid><duration>2245</duration><ismasterclip>TRUE</ismasterclip><name>A001_06071317_C008</name><rate><timebase>25</timebase><ntsc>FALSE</ntsc></rate><media><video><track><clipitem id="clipitem-22"><masterclipid>masterclip-8</masterclipid><name>A001_06071317_C008</name><rate><timebase>25</timebase><ntsc>FALSE</ntsc></rate><alphatype>none</alphatype><pixelaspectratio>square</pixelaspectratio><anamorphic>FALSE</anamorphic><file id="file-8"><name>A001_06071317_C008</name><rate><timebase>25</timebase><ntsc>FALSE</ntsc></rate><duration>2245</duration><pathurl>file://localhost/Q%3A/Projects/HAZEN_ALPHA/MEDIA_OCM/DAY%201/A001_06071317_C008.mov</pathurl><media><video /><audio><channelcount>2</channelcount></audio></media></file><link><linkclipref>clipitem-22</linkclipref><mediatype>video</mediatype><trackindex>1</trackindex><clipindex>1</clipindex></link><link><linkclipref>clipitem-23</linkclipref><mediatype>audio</mediatype><trackindex>1</trackindex><clipindex>1</clipindex></link><link><linkclipref>clipitem-24</linkclipref><mediatype>audio</mediatype><trackindex>2</trackindex><clipindex>1</clipindex></link></clipitem></track></video><audio><track><clipitem id="clipitem-23"><masterclipid>masterclip-8</masterclipid><name>A001_06071317_C008</name><rate><timebase>25</timebase><ntsc>FALSE</ntsc></rate><sourcetrack><mediatype>audio</mediatype><trackindex>1</trackindex></sourcetrack><link><linkclipref>clipitem-22</linkclipref><mediatype>video</mediatype><trackindex>1</trackindex><clipindex>1</clipindex></link><link><linkclipref>clipitem-23</linkclipref><mediatype>audio</mediatype><trackindex>1</trackindex><clipindex>1</clipindex></link><link><linkclipref>clipitem-24</linkclipref><mediatype>audio</mediatype><trackindex>2</trackindex><clipindex>1</clipindex></link></clipitem><file id="file-8" /></track><track><clipitem id="clipitem-24"><masterclipid>masterclip-8</masterclipid><name>A001_06071317_C008</name><rate><timebase>25</timebase><ntsc>FALSE</ntsc></rate><sourcetrack><mediatype>audio</mediatype><trackindex>2</trackindex></sourcetrack><link><linkclipref>clipitem-22</linkclipref><mediatype>video</mediatype><trackindex>1</trackindex><clipindex>1</clipindex></link><link><linkclipref>clipitem-23</linkclipref><mediatype>audio</mediatype><trackindex>1</trackindex><clipindex>1</clipindex></link><link><linkclipref>clipitem-24</linkclipref><mediatype>audio</mediatype><trackindex>2</trackindex><clipindex>1</clipindex></link></clipitem><file id="file-8" /></track></audio></media></clip><clip explodedTracks="true" id="masterclip-9"><masterclipid>masterclip-9</masterclipid><duration>1756</duration><ismasterclip>TRUE</ismasterclip><name>A001_06071319_C009</name><rate><timebase>25</timebase><ntsc>FALSE</ntsc></rate><media><video><track><clipitem id="clipitem-25"><masterclipid>masterclip-9</masterclipid><name>A001_06071319_C009</name><rate><timebase>25</timebase><ntsc>FALSE</ntsc></rate><alphatype>none</alphatype><pixelaspectratio>square</pixelaspectratio><anamorphic>FALSE</anamorphic><file id="file-9"><name>A001_06071319_C009</name><rate><timebase>25</timebase><ntsc>FALSE</ntsc></rate><duration>1756</duration><pathurl>file://localhost/Q%3A/Projects/HAZEN_ALPHA/MEDIA_OCM/DAY%201/A001_06071319_C009.mov</pathurl><media><video /><audio><channelcount>2</channelcount></audio></media></file><link><linkclipref>clipitem-25</linkclipref><mediatype>video</mediatype><trackindex>1</trackindex><clipindex>1</clipindex></link><link><linkclipref>clipitem-26</linkclipref><mediatype>audio</mediatype><trackindex>1</trackindex><clipindex>1</clipindex></link><link><linkclipref>clipitem-27</linkclipref><mediatype>audio</mediatype><trackindex>2</trackindex><clipindex>1</clipindex></link></clipitem></track></video><audio><track><clipitem id="clipitem-26"><masterclipid>masterclip-9</masterclipid><name>A001_06071319_C009</name><rate><timebase>25</timebase><ntsc>FALSE</ntsc></rate><sourcetrack><mediatype>audio</mediatype><trackindex>1</trackindex></sourcetrack><link><linkclipref>clipitem-25</linkclipref><mediatype>video</mediatype><trackindex>1</trackindex><clipindex>1</clipindex></link><link><linkclipref>clipitem-26</linkclipref><mediatype>audio</mediatype><trackindex>1</trackindex><clipindex>1</clipindex></link><link><linkclipref>clipitem-27</linkclipref><mediatype>audio</mediatype><trackindex>2</trackindex><clipindex>1</clipindex></link></clipitem><file id="file-9" /></track><track><clipitem id="clipitem-27"><masterclipid>masterclip-9</masterclipid><name>A001_06071319_C009</name><rate><timebase>25</timebase><ntsc>FALSE</ntsc></rate><sourcetrack><mediatype>audio</mediatype><trackindex>2</trackindex></sourcetrack><link><linkclipref>clipitem-25</linkclipref><mediatype>video</mediatype><trackindex>1</trackindex><clipindex>1</clipindex></link><link><linkclipref>clipitem-26</linkclipref><mediatype>audio</mediatype><trackindex>1</trackindex><clipindex>1</clipindex></link><link><linkclipref>clipitem-27</linkclipref><mediatype>audio</mediatype><trackindex>2</trackindex><clipindex>1</clipindex></link></clipitem><file id="file-9" /></track></audio></media></clip><clip explodedTracks="true" id="masterclip-10"><masterclipid>masterclip-10</masterclipid><duration>4005</duration><ismasterclip>TRUE</ismasterclip><name>A001_06071325_C010</name><rate><timebase>25</timebase><ntsc>FALSE</ntsc></rate><media><video><track><clipitem id="clipitem-28"><masterclipid>masterclip-10</masterclipid><name>A001_06071325_C010</name><rate><timebase>25</timebase><ntsc>FALSE</ntsc></rate><alphatype>none</alphatype><pixelaspectratio>square</pixelaspectratio><anamorphic>FALSE</anamorphic><file id="file-10"><name>A001_06071325_C010</name><rate><timebase>25</timebase><ntsc>FALSE</ntsc></rate><duration>4005</duration><pathurl>file://localhost/Q%3A/Projects/HAZEN_ALPHA/MEDIA_OCM/DAY%201/A001_06071325_C010.mov</pathurl><media><video /><audio><channelcount>2</channelcount></audio></media></file><link><linkclipref>clipitem-28</linkclipref><mediatype>video</mediatype><trackindex>1</trackindex><clipindex>1</clipindex></link><link><linkclipref>clipitem-29</linkclipref><mediatype>audio</mediatype><trackindex>1</trackindex><clipindex>1</clipindex></link><link><linkclipref>clipitem-30</linkclipref><mediatype>audio</mediatype><trackindex>2</trackindex><clipindex>1</clipindex></link></clipitem></track></video><audio><track><clipitem id="clipitem-29"><masterclipid>masterclip-10</masterclipid><name>A001_06071325_C010</name><rate><timebase>25</timebase><ntsc>FALSE</ntsc></rate><sourcetrack><mediatype>audio</mediatype><trackindex>1</trackindex></sourcetrack><link><linkclipref>clipitem-28</linkclipref><mediatype>video</mediatype><trackindex>1</trackindex><clipindex>1</clipindex></link><link><linkclipref>clipitem-29</linkclipref><mediatype>audio</mediatype><trackindex>1</trackindex><clipindex>1</clipindex></link><link><linkclipref>clipitem-30</linkclipref><mediatype>audio</mediatype><trackindex>2</trackindex><clipindex>1</clipindex></link></clipitem><file id="file-10" /></track><track><clipitem id="clipitem-30"><masterclipid>masterclip-10</masterclipid><name>A001_06071325_C010</name><rate><timebase>25</timebase><ntsc>FALSE</ntsc></rate><sourcetrack><mediatype>audio</mediatype><trackindex>2</trackindex></sourcetrack><link><linkclipref>clipitem-28</linkclipref><mediatype>video</mediatype><trackindex>1</trackindex><clipindex>1</clipindex></link><link><linkclipref>clipitem-29</linkclipref><mediatype>audio</mediatype><trackindex>1</trackindex><clipindex>1</clipindex></link><link><linkclipref>clipitem-30</linkclipref><mediatype>audio</mediatype><trackindex>2</trackindex><clipindex>1</clipindex></link></clipitem><file id="file-10" /></track></audio></media></clip><clip explodedTracks="true" id="masterclip-11"><masterclipid>masterclip-11</masterclipid><duration>2863</duration><ismasterclip>TRUE</ismasterclip><name>A001_06071329_C011</name><rate><timebase>25</timebase><ntsc>FALSE</ntsc></rate><media><video><track><clipitem id="clipitem-31"><masterclipid>masterclip-11</masterclipid><name>A001_06071329_C011</name><rate><timebase>25</timebase><ntsc>FALSE</ntsc></rate><alphatype>none</alphatype><pixelaspectratio>square</pixelaspectratio><anamorphic>FALSE</anamorphic><file id="file-11"><name>A001_06071329_C011</name><rate><timebase>25</timebase><ntsc>FALSE</ntsc></rate><duration>2863</duration><pathurl>file://localhost/Q%3A/Projects/HAZEN_ALPHA/MEDIA_OCM/DAY%201/A001_06071329_C011.mov</pathurl><media><video /><audio><channelcount>2</channelcount></audio></media></file><link><linkclipref>clipitem-31</linkclipref><mediatype>video</mediatype><trackindex>1</trackindex><clipindex>1</clipindex></link><link><linkclipref>clipitem-32</linkclipref><mediatype>audio</mediatype><trackindex>1</trackindex><clipindex>1</clipindex></link><link><linkclipref>clipitem-33</linkclipref><mediatype>audio</mediatype><trackindex>2</trackindex><clipindex>1</clipindex></link></clipitem></track></video><audio><track><clipitem id="clipitem-32"><masterclipid>masterclip-11</masterclipid><name>A001_06071329_C011</name><rate><timebase>25</timebase><ntsc>FALSE</ntsc></rate><sourcetrack><mediatype>audio</mediatype><trackindex>1</trackindex></sourcetrack><link><linkclipref>clipitem-31</linkclipref><mediatype>video</mediatype><trackindex>1</trackindex><clipindex>1</clipindex></link><link><linkclipref>clipitem-32</linkclipref><mediatype>audio</mediatype><trackindex>1</trackindex><clipindex>1</clipindex></link><link><linkclipref>clipitem-33</linkclipref><mediatype>audio</mediatype><trackindex>2</trackindex><clipindex>1</clipindex></link></clipitem><file id="file-11" /></track><track><clipitem id="clipitem-33"><masterclipid>masterclip-11</masterclipid><name>A001_06071329_C011</name><rate><timebase>25</timebase><ntsc>FALSE</ntsc></rate><sourcetrack><mediatype>audio</mediatype><trackindex>2</trackindex></sourcetrack><link><linkclipref>clipitem-31</linkclipref><mediatype>video</mediatype><trackindex>1</trackindex><clipindex>1</clipindex></link><link><linkclipref>clipitem-32</linkclipref><mediatype>audio</mediatype><trackindex>1</trackindex><clipindex>1</clipindex></link><link><linkclipref>clipitem-33</linkclipref><mediatype>audio</mediatype><trackindex>2</trackindex><clipindex>1</clipindex></link></clipitem><file id="file-11" /></track></audio></media></clip><clip explodedTracks="true" id="masterclip-12"><masterclipid>masterclip-12</masterclipid><duration>1671</duration><ismasterclip>TRUE</ismasterclip><name>A001_06071332_C012</name><rate><timebase>25</timebase><ntsc>FALSE</ntsc></rate><media><video><track><clipitem id="clipitem-34"><masterclipid>masterclip-12</masterclipid><name>A001_06071332_C012</name><rate><timebase>25</timebase><ntsc>FALSE</ntsc></rate><alphatype>none</alphatype><pixelaspectratio>square</pixelaspectratio><anamorphic>FALSE</anamorphic><file id="file-12"><name>A001_06071332_C012</name><rate><timebase>25</timebase><ntsc>FALSE</ntsc></rate><duration>1671</duration><pathurl>file://localhost/Q%3A/Projects/HAZEN_ALPHA/MEDIA_OCM/DAY%201/A001_06071332_C012.mov</pathurl><media><video /><audio><channelcount>2</channelcount></audio></media></file><link><linkclipref>clipitem-34</linkclipref><mediatype>video</mediatype><trackindex>1</trackindex><clipindex>1</clipindex></link><link><linkclipref>clipitem-35</linkclipref><mediatype>audio</mediatype><trackindex>1</trackindex><clipindex>1</clipindex></link><link><linkclipref>clipitem-36</linkclipref><mediatype>audio</mediatype><trackindex>2</trackindex><clipindex>1</clipindex></link></clipitem></track></video><audio><track><clipitem id="clipitem-35"><masterclipid>masterclip-12</masterclipid><name>A001_06071332_C012</name><rate><timebase>25</timebase><ntsc>FALSE</ntsc></rate><sourcetrack><mediatype>audio</mediatype><trackindex>1</trackindex></sourcetrack><link><linkclipref>clipitem-34</linkclipref><mediatype>video</mediatype><trackindex>1</trackindex><clipindex>1</clipindex></link><link><linkclipref>clipitem-35</linkclipref><mediatype>audio</mediatype><trackindex>1</trackindex><clipindex>1</clipindex></link><link><linkclipref>clipitem-36</linkclipref><mediatype>audio</mediatype><trackindex>2</trackindex><clipindex>1</clipindex></link></clipitem><file id="file-12" /></track><track><clipitem id="clipitem-36"><masterclipid>masterclip-12</masterclipid><name>A001_06071332_C012</name><rate><timebase>25</timebase><ntsc>FALSE</ntsc></rate><sourcetrack><mediatype>audio</mediatype><trackindex>2</trackindex></sourcetrack><link><linkclipref>clipitem-34</linkclipref><mediatype>video</mediatype><trackindex>1</trackindex><clipindex>1</clipindex></link><link><linkclipref>clipitem-35</linkclipref><mediatype>audio</mediatype><trackindex>1</trackindex><clipindex>1</clipindex></link><link><linkclipref>clipitem-36</linkclipref><mediatype>audio</mediatype><trackindex>2</trackindex><clipindex>1</clipindex></link></clipitem><file id="file-12" /></track></audio></media></clip><clip explodedTracks="true" id="masterclip-13"><masterclipid>masterclip-13</masterclipid><duration>430</duration><ismasterclip>TRUE</ismasterclip><name>A001_06071335_C013</name><rate><timebase>25</timebase><ntsc>FALSE</ntsc></rate><media><video><track><clipitem id="clipitem-37"><masterclipid>masterclip-13</masterclipid><name>A001_06071335_C013</name><rate><timebase>25</timebase><ntsc>FALSE</ntsc></rate><alphatype>none</alphatype><pixelaspectratio>square</pixelaspectratio><anamorphic>FALSE</anamorphic><file id="file-13"><name>A001_06071335_C013</name><rate><timebase>25</timebase><ntsc>FALSE</ntsc></rate><duration>430</duration><pathurl>file://localhost/Q%3A/Projects/HAZEN_ALPHA/MEDIA_OCM/DAY%201/A001_06071335_C013.mov</pathurl><media><video /><audio><channelcount>2</channelcount></audio></media></file><link><linkclipref>clipitem-37</linkclipref><mediatype>video</mediatype><trackindex>1</trackindex><clipindex>1</clipindex></link><link><linkclipref>clipitem-38</linkclipref><mediatype>audio</mediatype><trackindex>1</trackindex><clipindex>1</clipindex></link><link><linkclipref>clipitem-39</linkclipref><mediatype>audio</mediatype><trackindex>2</trackindex><clipindex>1</clipindex></link></clipitem></track></video><audio><track><clipitem id="clipitem-38"><masterclipid>masterclip-13</masterclipid><name>A001_06071335_C013</name><rate><timebase>25</timebase><ntsc>FALSE</ntsc></rate><sourcetrack><mediatype>audio</mediatype><trackindex>1</trackindex></sourcetrack><link><linkclipref>clipitem-37</linkclipref><mediatype>video</mediatype><trackindex>1</trackindex><clipindex>1</clipindex></link><link><linkclipref>clipitem-38</linkclipref><mediatype>audio</mediatype><trackindex>1</trackindex><clipindex>1</clipindex></link><link><linkclipref>clipitem-39</linkclipref><mediatype>audio</mediatype><trackindex>2</trackindex><clipindex>1</clipindex></link></clipitem><file id="file-13" /></track><track><clipitem id="clipitem-39"><masterclipid>masterclip-13</masterclipid><name>A001_06071335_C013</name><rate><timebase>25</timebase><ntsc>FALSE</ntsc></rate><sourcetrack><mediatype>audio</mediatype><trackindex>2</trackindex></sourcetrack><link><linkclipref>clipitem-37</linkclipref><mediatype>video</mediatype><trackindex>1</trackindex><clipindex>1</clipindex></link><link><linkclipref>clipitem-38</linkclipref><mediatype>audio</mediatype><trackindex>1</trackindex><clipindex>1</clipindex></link><link><linkclipref>clipitem-39</linkclipref><mediatype>audio</mediatype><trackindex>2</trackindex><clipindex>1</clipindex></link></clipitem><file id="file-13" /></track></audio></media></clip><clip explodedTracks="true" id="masterclip-14"><masterclipid>masterclip-14</masterclipid><duration>2885</duration><ismasterclip>TRUE</ismasterclip><name>A001_06071336_C014</name><rate><timebase>25</timebase><ntsc>FALSE</ntsc></rate><media><video><track><clipitem id="clipitem-40"><masterclipid>masterclip-14</masterclipid><name>A001_06071336_C014</name><rate><timebase>25</timebase><ntsc>FALSE</ntsc></rate><alphatype>none</alphatype><pixelaspectratio>square</pixelaspectratio><anamorphic>FALSE</anamorphic><file id="file-14"><name>A001_06071336_C014</name><rate><timebase>25</timebase><ntsc>FALSE</ntsc></rate><duration>2885</duration><pathurl>file://localhost/Q%3A/Projects/HAZEN_ALPHA/MEDIA_OCM/DAY%201/A001_06071336_C014.mov</pathurl><media><video /><audio><channelcount>2</channelcount></audio></media></file><link><linkclipref>clipitem-40</linkclipref><mediatype>video</mediatype><trackindex>1</trackindex><clipindex>1</clipindex></link><link><linkclipref>clipitem-41</linkclipref><mediatype>audio</mediatype><trackindex>1</trackindex><clipindex>1</clipindex></link><link><linkclipref>clipitem-42</linkclipref><mediatype>audio</mediatype><trackindex>2</trackindex><clipindex>1</clipindex></link></clipitem></track></video><audio><track><clipitem id="clipitem-41"><masterclipid>masterclip-14</masterclipid><name>A001_06071336_C014</name><rate><timebase>25</timebase><ntsc>FALSE</ntsc></rate><sourcetrack><mediatype>audio</mediatype><trackindex>1</trackindex></sourcetrack><link><linkclipref>clipitem-40</linkclipref><mediatype>video</mediatype><trackindex>1</trackindex><clipindex>1</clipindex></link><link><linkclipref>clipitem-41</linkclipref><mediatype>audio</mediatype><trackindex>1</trackindex><clipindex>1</clipindex></link><link><linkclipref>clipitem-42</linkclipref><mediatype>audio</mediatype><trackindex>2</trackindex><clipindex>1</clipindex></link></clipitem><file id="file-14" /></track><track><clipitem id="clipitem-42"><masterclipid>masterclip-14</masterclipid><name>A001_06071336_C014</name><rate><timebase>25</timebase><ntsc>FALSE</ntsc></rate><sourcetrack><mediatype>audio</mediatype><trackindex>2</trackindex></sourcetrack><link><linkclipref>clipitem-40</linkclipref><mediatype>video</mediatype><trackindex>1</trackindex><clipindex>1</clipindex></link><link><linkclipref>clipitem-41</linkclipref><mediatype>audio</mediatype><trackindex>1</trackindex><clipindex>1</clipindex></link><link><linkclipref>clipitem-42</linkclipref><mediatype>audio</mediatype><trackindex>2</trackindex><clipindex>1</clipindex></link></clipitem><file id="file-14" /></track></audio></media></clip><clip explodedTracks="true" id="masterclip-15"><masterclipid>masterclip-15</masterclipid><duration>1850</duration><ismasterclip>TRUE</ismasterclip><name>A001_06071707_C015</name><rate><timebase>25</timebase><ntsc>FALSE</ntsc></rate><media><video><track><clipitem id="clipitem-43"><masterclipid>masterclip-15</masterclipid><name>A001_06071707_C015</name><rate><timebase>25</timebase><ntsc>FALSE</ntsc></rate><alphatype>none</alphatype><pixelaspectratio>square</pixelaspectratio><anamorphic>FALSE</anamorphic><file id="file-15"><name>A001_06071707_C015</name><rate><timebase>25</timebase><ntsc>FALSE</ntsc></rate><duration>1850</duration><pathurl>file://localhost/Q%3A/Projects/HAZEN_ALPHA/MEDIA_OCM/DAY%201/A001_06071707_C015.mov</pathurl><media><video /><audio><channelcount>2</channelcount></audio></media></file><link><linkclipref>clipitem-43</linkclipref><mediatype>video</mediatype><trackindex>1</trackindex><clipindex>1</clipindex></link><link><linkclipref>clipitem-44</linkclipref><mediatype>audio</mediatype><trackindex>1</trackindex><clipindex>1</clipindex></link><link><linkclipref>clipitem-45</linkclipref><mediatype>audio</mediatype><trackindex>2</trackindex><clipindex>1</clipindex></link></clipitem></track></video><audio><track><clipitem id="clipitem-44"><masterclipid>masterclip-15</masterclipid><name>A001_06071707_C015</name><rate><timebase>25</timebase><ntsc>FALSE</ntsc></rate><sourcetrack><mediatype>audio</mediatype><trackindex>1</trackindex></sourcetrack><link><linkclipref>clipitem-43</linkclipref><mediatype>video</mediatype><trackindex>1</trackindex><clipindex>1</clipindex></link><link><linkclipref>clipitem-44</linkclipref><mediatype>audio</mediatype><trackindex>1</trackindex><clipindex>1</clipindex></link><link><linkclipref>clipitem-45</linkclipref><mediatype>audio</mediatype><trackindex>2</trackindex><clipindex>1</clipindex></link></clipitem><file id="file-15" /></track><track><clipitem id="clipitem-45"><masterclipid>masterclip-15</masterclipid><name>A001_06071707_C015</name><rate><timebase>25</timebase><ntsc>FALSE</ntsc></rate><sourcetrack><mediatype>audio</mediatype><trackindex>2</trackindex></sourcetrack><link><linkclipref>clipitem-43</linkclipref><mediatype>video</mediatype><trackindex>1</trackindex><clipindex>1</clipindex></link><link><linkclipref>clipitem-44</linkclipref><mediatype>audio</mediatype><trackindex>1</trackindex><clipindex>1</clipindex></link><link><linkclipref>clipitem-45</linkclipref><mediatype>audio</mediatype><trackindex>2</trackindex><clipindex>1</clipindex></link></clipitem><file id="file-15" /></track></audio></media></clip><clip explodedTracks="true" id="masterclip-16"><masterclipid>masterclip-16</masterclipid><duration>2311</duration><ismasterclip>TRUE</ismasterclip><name>A001_06071717_C016</name><rate><timebase>25</timebase><ntsc>FALSE</ntsc></rate><media><video><track><clipitem id="clipitem-46"><masterclipid>masterclip-16</masterclipid><name>A001_06071717_C016</name><rate><timebase>25</timebase><ntsc>FALSE</ntsc></rate><alphatype>none</alphatype><pixelaspectratio>square</pixelaspectratio><anamorphic>FALSE</anamorphic><file id="file-16"><name>A001_06071717_C016</name><rate><timebase>25</timebase><ntsc>FALSE</ntsc></rate><duration>2311</duration><pathurl>file://localhost/Q%3A/Projects/HAZEN_ALPHA/MEDIA_OCM/DAY%201/A001_06071717_C016.mov</pathurl><media><video /><audio><channelcount>2</channelcount></audio></media></file><link><linkclipref>clipitem-46</linkclipref><mediatype>video</mediatype><trackindex>1</trackindex><clipindex>1</clipindex></link><link><linkclipref>clipitem-47</linkclipref><mediatype>audio</mediatype><trackindex>1</trackindex><clipindex>1</clipindex></link><link><linkclipref>clipitem-48</linkclipref><mediatype>audio</mediatype><trackindex>2</trackindex><clipindex>1</clipindex></link></clipitem></track></video><audio><track><clipitem id="clipitem-47"><masterclipid>masterclip-16</masterclipid><name>A001_06071717_C016</name><rate><timebase>25</timebase><ntsc>FALSE</ntsc></rate><sourcetrack><mediatype>audio</mediatype><trackindex>1</trackindex></sourcetrack><link><linkclipref>clipitem-46</linkclipref><mediatype>video</mediatype><trackindex>1</trackindex><clipindex>1</clipindex></link><link><linkclipref>clipitem-47</linkclipref><mediatype>audio</mediatype><trackindex>1</trackindex><clipindex>1</clipindex></link><link><linkclipref>clipitem-48</linkclipref><mediatype>audio</mediatype><trackindex>2</trackindex><clipindex>1</clipindex></link></clipitem><file id="file-16" /></track><track><clipitem id="clipitem-48"><masterclipid>masterclip-16</masterclipid><name>A001_06071717_C016</name><rate><timebase>25</timebase><ntsc>FALSE</ntsc></rate><sourcetrack><mediatype>audio</mediatype><trackindex>2</trackindex></sourcetrack><link><linkclipref>clipitem-46</linkclipref><mediatype>video</mediatype><trackindex>1</trackindex><clipindex>1</clipindex></link><link><linkclipref>clipitem-47</linkclipref><mediatype>audio</mediatype><trackindex>1</trackindex><clipindex>1</clipindex></link><link><linkclipref>clipitem-48</linkclipref><mediatype>audio</mediatype><trackindex>2</trackindex><clipindex>1</clipindex></link></clipitem><file id="file-16" /></track></audio></media></clip><clip explodedTracks="true" id="masterclip-17"><masterclipid>masterclip-17</masterclipid><duration>2008</duration><ismasterclip>TRUE</ismasterclip><name>A001_06071722_C017</name><rate><timebase>25</timebase><ntsc>FALSE</ntsc></rate><media><video><track><clipitem id="clipitem-49"><masterclipid>masterclip-17</masterclipid><name>A001_06071722_C017</name><rate><timebase>25</timebase><ntsc>FALSE</ntsc></rate><alphatype>none</alphatype><pixelaspectratio>square</pixelaspectratio><anamorphic>FALSE</anamorphic><file id="file-17"><name>A001_06071722_C017</name><rate><timebase>25</timebase><ntsc>FALSE</ntsc></rate><duration>2008</duration><pathurl>file://localhost/Q%3A/Projects/HAZEN_ALPHA/MEDIA_OCM/DAY%201/A001_06071722_C017.mov</pathurl><media><video /><audio><channelcount>2</channelcount></audio></media></file><link><linkclipref>clipitem-49</linkclipref><mediatype>video</mediatype><trackindex>1</trackindex><clipindex>1</clipindex></link><link><linkclipref>clipitem-50</linkclipref><mediatype>audio</mediatype><trackindex>1</trackindex><clipindex>1</clipindex></link><link><linkclipref>clipitem-51</linkclipref><mediatype>audio</mediatype><trackindex>2</trackindex><clipindex>1</clipindex></link></clipitem></track></video><audio><track><clipitem id="clipitem-50"><masterclipid>masterclip-17</masterclipid><name>A001_06071722_C017</name><rate><timebase>25</timebase><ntsc>FALSE</ntsc></rate><sourcetrack><mediatype>audio</mediatype><trackindex>1</trackindex></sourcetrack><link><linkclipref>clipitem-49</linkclipref><mediatype>video</mediatype><trackindex>1</trackindex><clipindex>1</clipindex></link><link><linkclipref>clipitem-50</linkclipref><mediatype>audio</mediatype><trackindex>1</trackindex><clipindex>1</clipindex></link><link><linkclipref>clipitem-51</linkclipref><mediatype>audio</mediatype><trackindex>2</trackindex><clipindex>1</clipindex></link></clipitem><file id="file-17" /></track><track><clipitem id="clipitem-51"><masterclipid>masterclip-17</masterclipid><name>A001_06071722_C017</name><rate><timebase>25</timebase><ntsc>FALSE</ntsc></rate><sourcetrack><mediatype>audio</mediatype><trackindex>2</trackindex></sourcetrack><link><linkclipref>clipitem-49</linkclipref><mediatype>video</mediatype><trackindex>1</trackindex><clipindex>1</clipindex></link><link><linkclipref>clipitem-50</linkclipref><mediatype>audio</mediatype><trackindex>1</trackindex><clipindex>1</clipindex></link><link><linkclipref>clipitem-51</linkclipref><mediatype>audio</mediatype><trackindex>2</trackindex><clipindex>1</clipindex></link></clipitem><file id="file-17" /></track></audio></media></clip><clip explodedTracks="true" id="masterclip-18"><masterclipid>masterclip-18</masterclipid><duration>2300</duration><ismasterclip>TRUE</ismasterclip><name>A001_06071726_C018</name><rate><timebase>25</timebase><ntsc>FALSE</ntsc></rate><media><video><track><clipitem id="clipitem-52"><masterclipid>masterclip-18</masterclipid><name>A001_06071726_C018</name><rate><timebase>25</timebase><ntsc>FALSE</ntsc></rate><alphatype>none</alphatype><pixelaspectratio>square</pixelaspectratio><anamorphic>FALSE</anamorphic><file id="file-18"><name>A001_06071726_C018</name><rate><timebase>25</timebase><ntsc>FALSE</ntsc></rate><duration>2300</duration><pathurl>file://localhost/Q%3A/Projects/HAZEN_ALPHA/MEDIA_OCM/DAY%201/A001_06071726_C018.mov</pathurl><media><video /><audio><channelcount>2</channelcount></audio></media></file><link><linkclipref>clipitem-52</linkclipref><mediatype>video</mediatype><trackindex>1</trackindex><clipindex>1</clipindex></link><link><linkclipref>clipitem-53</linkclipref><mediatype>audio</mediatype><trackindex>1</trackindex><clipindex>1</clipindex></link><link><linkclipref>clipitem-54</linkclipref><mediatype>audio</mediatype><trackindex>2</trackindex><clipindex>1</clipindex></link></clipitem></track></video><audio><track><clipitem id="clipitem-53"><masterclipid>masterclip-18</masterclipid><name>A001_06071726_C018</name><rate><timebase>25</timebase><ntsc>FALSE</ntsc></rate><sourcetrack><mediatype>audio</mediatype><trackindex>1</trackindex></sourcetrack><link><linkclipref>clipitem-52</linkclipref><mediatype>video</mediatype><trackindex>1</trackindex><clipindex>1</clipindex></link><link><linkclipref>clipitem-53</linkclipref><mediatype>audio</mediatype><trackindex>1</trackindex><clipindex>1</clipindex></link><link><linkclipref>clipitem-54</linkclipref><mediatype>audio</mediatype><trackindex>2</trackindex><clipindex>1</clipindex></link></clipitem><file id="file-18" /></track><track><clipitem id="clipitem-54"><masterclipid>masterclip-18</masterclipid><name>A001_06071726_C018</name><rate><timebase>25</timebase><ntsc>FALSE</ntsc></rate><sourcetrack><mediatype>audio</mediatype><trackindex>2</trackindex></sourcetrack><link><linkclipref>clipitem-52</linkclipref><mediatype>video</mediatype><trackindex>1</trackindex><clipindex>1</clipindex></link><link><linkclipref>clipitem-53</linkclipref><mediatype>audio</mediatype><trackindex>1</trackindex><clipindex>1</clipindex></link><link><linkclipref>clipitem-54</linkclipref><mediatype>audio</mediatype><trackindex>2</trackindex><clipindex>1</clipindex></link></clipitem><file id="file-18" /></track></audio></media></clip><clip explodedTracks="true" id="masterclip-19"><masterclipid>masterclip-19</masterclipid><duration>1554</duration><ismasterclip>TRUE</ismasterclip><name>A001_06071737_C019</name><rate><timebase>25</timebase><ntsc>FALSE</ntsc></rate><media><video><track><clipitem id="clipitem-55"><masterclipid>masterclip-19</masterclipid><name>A001_06071737_C019</name><rate><timebase>25</timebase><ntsc>FALSE</ntsc></rate><alphatype>none</alphatype><pixelaspectratio>square</pixelaspectratio><anamorphic>FALSE</anamorphic><file id="file-19"><name>A001_06071737_C019</name><rate><timebase>25</timebase><ntsc>FALSE</ntsc></rate><duration>1554</duration><pathurl>file://localhost/Q%3A/Projects/HAZEN_ALPHA/MEDIA_OCM/DAY%201/A001_06071737_C019.mov</pathurl><media><video /><audio><channelcount>2</channelcount></audio></media></file><link><linkclipref>clipitem-55</linkclipref><mediatype>video</mediatype><trackindex>1</trackindex><clipindex>1</clipindex></link><link><linkclipref>clipitem-56</linkclipref><mediatype>audio</mediatype><trackindex>1</trackindex><clipindex>1</clipindex></link><link><linkclipref>clipitem-57</linkclipref><mediatype>audio</mediatype><trackindex>2</trackindex><clipindex>1</clipindex></link></clipitem></track></video><audio><track><clipitem id="clipitem-56"><masterclipid>masterclip-19</masterclipid><name>A001_06071737_C019</name><rate><timebase>25</timebase><ntsc>FALSE</ntsc></rate><sourcetrack><mediatype>audio</mediatype><trackindex>1</trackindex></sourcetrack><link><linkclipref>clipitem-55</linkclipref><mediatype>video</mediatype><trackindex>1</trackindex><clipindex>1</clipindex></link><link><linkclipref>clipitem-56</linkclipref><mediatype>audio</mediatype><trackindex>1</trackindex><clipindex>1</clipindex></link><link><linkclipref>clipitem-57</linkclipref><mediatype>audio</mediatype><trackindex>2</trackindex><clipindex>1</clipindex></link></clipitem><file id="file-19" /></track><track><clipitem id="clipitem-57"><masterclipid>masterclip-19</masterclipid><name>A001_06071737_C019</name><rate><timebase>25</timebase><ntsc>FALSE</ntsc></rate><sourcetrack><mediatype>audio</mediatype><trackindex>2</trackindex></sourcetrack><link><linkclipref>clipitem-55</linkclipref><mediatype>video</mediatype><trackindex>1</trackindex><clipindex>1</clipindex></link><link><linkclipref>clipitem-56</linkclipref><mediatype>audio</mediatype><trackindex>1</trackindex><clipindex>1</clipindex></link><link><linkclipref>clipitem-57</linkclipref><mediatype>audio</mediatype><trackindex>2</trackindex><clipindex>1</clipindex></link></clipitem><file id="file-19" /></track></audio></media></clip><clip explodedTracks="true" id="masterclip-20"><masterclipid>masterclip-20</masterclipid><duration>1102</duration><ismasterclip>TRUE</ismasterclip><name>A001_06071740_C020</name><rate><timebase>25</timebase><ntsc>FALSE</ntsc></rate><media><video><track><clipitem id="clipitem-58"><masterclipid>masterclip-20</masterclipid><name>A001_06071740_C020</name><rate><timebase>25</timebase><ntsc>FALSE</ntsc></rate><alphatype>none</alphatype><pixelaspectratio>square</pixelaspectratio><anamorphic>FALSE</anamorphic><file id="file-20"><name>A001_06071740_C020</name><rate><timebase>25</timebase><ntsc>FALSE</ntsc></rate><duration>1102</duration><pathurl>file://localhost/Q%3A/Projects/HAZEN_ALPHA/MEDIA_OCM/DAY%201/A001_06071740_C020.mov</pathurl><media><video /><audio><channelcount>2</channelcount></audio></media></file><link><linkclipref>clipitem-58</linkclipref><mediatype>video</mediatype><trackindex>1</trackindex><clipindex>1</clipindex></link><link><linkclipref>clipitem-59</linkclipref><mediatype>audio</mediatype><trackindex>1</trackindex><clipindex>1</clipindex></link><link><linkclipref>clipitem-60</linkclipref><mediatype>audio</mediatype><trackindex>2</trackindex><clipindex>1</clipindex></link></clipitem></track></video><audio><track><clipitem id="clipitem-59"><masterclipid>masterclip-20</masterclipid><name>A001_06071740_C020</name><rate><timebase>25</timebase><ntsc>FALSE</ntsc></rate><sourcetrack><mediatype>audio</mediatype><trackindex>1</trackindex></sourcetrack><link><linkclipref>clipitem-58</linkclipref><mediatype>video</mediatype><trackindex>1</trackindex><clipindex>1</clipindex></link><link><linkclipref>clipitem-59</linkclipref><mediatype>audio</mediatype><trackindex>1</trackindex><clipindex>1</clipindex></link><link><linkclipref>clipitem-60</linkclipref><mediatype>audio</mediatype><trackindex>2</trackindex><clipindex>1</clipindex></link></clipitem><file id="file-20" /></track><track><clipitem id="clipitem-60"><masterclipid>masterclip-20</masterclipid><name>A001_06071740_C020</name><rate><timebase>25</timebase><ntsc>FALSE</ntsc></rate><sourcetrack><mediatype>audio</mediatype><trackindex>2</trackindex></sourcetrack><link><linkclipref>clipitem-58</linkclipref><mediatype>video</mediatype><trackindex>1</trackindex><clipindex>1</clipindex></link><link><linkclipref>clipitem-59</linkclipref><mediatype>audio</mediatype><trackindex>1</trackindex><clipindex>1</clipindex></link><link><linkclipref>clipitem-60</linkclipref><mediatype>audio</mediatype><trackindex>2</trackindex><clipindex>1</clipindex></link></clipitem><file id="file-20" /></track></audio></media></clip><clip explodedTracks="true" id="masterclip-21"><masterclipid>masterclip-21</masterclipid><duration>1476</duration><ismasterclip>TRUE</ismasterclip><name>A001_06071743_C021</name><rate><timebase>25</timebase><ntsc>FALSE</ntsc></rate><media><video><track><clipitem id="clipitem-61"><masterclipid>masterclip-21</masterclipid><name>A001_06071743_C021</name><rate><timebase>25</timebase><ntsc>FALSE</ntsc></rate><alphatype>none</alphatype><pixelaspectratio>square</pixelaspectratio><anamorphic>FALSE</anamorphic><file id="file-21"><name>A001_06071743_C021</name><rate><timebase>25</timebase><ntsc>FALSE</ntsc></rate><duration>1476</duration><pathurl>file://localhost/Q%3A/Projects/HAZEN_ALPHA/MEDIA_OCM/DAY%201/A001_06071743_C021.mov</pathurl><media><video /><audio><channelcount>2</channelcount></audio></media></file><link><linkclipref>clipitem-61</linkclipref><mediatype>video</mediatype><trackindex>1</trackindex><clipindex>1</clipindex></link><link><linkclipref>clipitem-62</linkclipref><mediatype>audio</mediatype><trackindex>1</trackindex><clipindex>1</clipindex></link><link><linkclipref>clipitem-63</linkclipref><mediatype>audio</mediatype><trackindex>2</trackindex><clipindex>1</clipindex></link></clipitem></track></video><audio><track><clipitem id="clipitem-62"><masterclipid>masterclip-21</masterclipid><name>A001_06071743_C021</name><rate><timebase>25</timebase><ntsc>FALSE</ntsc></rate><sourcetrack><mediatype>audio</mediatype><trackindex>1</trackindex></sourcetrack><link><linkclipref>clipitem-61</linkclipref><mediatype>video</mediatype><trackindex>1</trackindex><clipindex>1</clipindex></link><link><linkclipref>clipitem-62</linkclipref><mediatype>audio</mediatype><trackindex>1</trackindex><clipindex>1</clipindex></link><link><linkclipref>clipitem-63</linkclipref><mediatype>audio</mediatype><trackindex>2</trackindex><clipindex>1</clipindex></link></clipitem><file id="file-21" /></track><track><clipitem id="clipitem-63"><masterclipid>masterclip-21</masterclipid><name>A001_06071743_C021</name><rate><timebase>25</timebase><ntsc>FALSE</ntsc></rate><sourcetrack><mediatype>audio</mediatype><trackindex>2</trackindex></sourcetrack><link><linkclipref>clipitem-61</linkclipref><mediatype>video</mediatype><trackindex>1</trackindex><clipindex>1</clipindex></link><link><linkclipref>clipitem-62</linkclipref><mediatype>audio</mediatype><trackindex>1</trackindex><clipindex>1</clipindex></link><link><linkclipref>clipitem-63</linkclipref><mediatype>audio</mediatype><trackindex>2</trackindex><clipindex>1</clipindex></link></clipitem><file id="file-21" /></track></audio></media></clip><clip explodedTracks="true" id="masterclip-22"><masterclipid>masterclip-22</masterclipid><duration>1541</duration><ismasterclip>TRUE</ismasterclip><name>A001_06071748_C022</name><rate><timebase>25</timebase><ntsc>FALSE</ntsc></rate><media><video><track><clipitem id="clipitem-64"><masterclipid>masterclip-22</masterclipid><name>A001_06071748_C022</name><rate><timebase>25</timebase><ntsc>FALSE</ntsc></rate><alphatype>none</alphatype><pixelaspectratio>square</pixelaspectratio><anamorphic>FALSE</anamorphic><file id="file-22"><name>A001_06071748_C022</name><rate><timebase>25</timebase><ntsc>FALSE</ntsc></rate><duration>1541</duration><pathurl>file://localhost/Q%3A/Projects/HAZEN_ALPHA/MEDIA_OCM/DAY%201/A001_06071748_C022.mov</pathurl><media><video /><audio><channelcount>2</channelcount></audio></media></file><link><linkclipref>clipitem-64</linkclipref><mediatype>video</mediatype><trackindex>1</trackindex><clipindex>1</clipindex></link><link><linkclipref>clipitem-65</linkclipref><mediatype>audio</mediatype><trackindex>1</trackindex><clipindex>1</clipindex></link><link><linkclipref>clipitem-66</linkclipref><mediatype>audio</mediatype><trackindex>2</trackindex><clipindex>1</clipindex></link></clipitem></track></video><audio><track><clipitem id="clipitem-65"><masterclipid>masterclip-22</masterclipid><name>A001_06071748_C022</name><rate><timebase>25</timebase><ntsc>FALSE</ntsc></rate><sourcetrack><mediatype>audio</mediatype><trackindex>1</trackindex></sourcetrack><link><linkclipref>clipitem-64</linkclipref><mediatype>video</mediatype><trackindex>1</trackindex><clipindex>1</clipindex></link><link><linkclipref>clipitem-65</linkclipref><mediatype>audio</mediatype><trackindex>1</trackindex><clipindex>1</clipindex></link><link><linkclipref>clipitem-66</linkclipref><mediatype>audio</mediatype><trackindex>2</trackindex><clipindex>1</clipindex></link></clipitem><file id="file-22" /></track><track><clipitem id="clipitem-66"><masterclipid>masterclip-22</masterclipid><name>A001_06071748_C022</name><rate><timebase>25</timebase><ntsc>FALSE</ntsc></rate><sourcetrack><mediatype>audio</mediatype><trackindex>2</trackindex></sourcetrack><link><linkclipref>clipitem-64</linkclipref><mediatype>video</mediatype><trackindex>1</trackindex><clipindex>1</clipindex></link><link><linkclipref>clipitem-65</linkclipref><mediatype>audio</mediatype><trackindex>1</trackindex><clipindex>1</clipindex></link><link><linkclipref>clipitem-66</linkclipref><mediatype>audio</mediatype><trackindex>2</trackindex><clipindex>1</clipindex></link></clipitem><file id="file-22" /></track></audio></media></clip><clip explodedTracks="true" id="masterclip-23"><masterclipid>masterclip-23</masterclipid><duration>3693</duration><ismasterclip>TRUE</ismasterclip><name>A001_06071750_C023</name><rate><timebase>25</timebase><ntsc>FALSE</ntsc></rate><media><video><track><clipitem id="clipitem-67"><masterclipid>masterclip-23</masterclipid><name>A001_06071750_C023</name><rate><timebase>25</timebase><ntsc>FALSE</ntsc></rate><alphatype>none</alphatype><pixelaspectratio>square</pixelaspectratio><anamorphic>FALSE</anamorphic><file id="file-23"><name>A001_06071750_C023</name><rate><timebase>25</timebase><ntsc>FALSE</ntsc></rate><duration>3693</duration><pathurl>file://localhost/Q%3A/Projects/HAZEN_ALPHA/MEDIA_OCM/DAY%201/A001_06071750_C023.mov</pathurl><media><video /><audio><channelcount>2</channelcount></audio></media></file><link><linkclipref>clipitem-67</linkclipref><mediatype>video</mediatype><trackindex>1</trackindex><clipindex>1</clipindex></link><link><linkclipref>clipitem-68</linkclipref><mediatype>audio</mediatype><trackindex>1</trackindex><clipindex>1</clipindex></link><link><linkclipref>clipitem-69</linkclipref><mediatype>audio</mediatype><trackindex>2</trackindex><clipindex>1</clipindex></link></clipitem></track></video><audio><track><clipitem id="clipitem-68"><masterclipid>masterclip-23</masterclipid><name>A001_06071750_C023</name><rate><timebase>25</timebase><ntsc>FALSE</ntsc></rate><sourcetrack><mediatype>audio</mediatype><trackindex>1</trackindex></sourcetrack><link><linkclipref>clipitem-67</linkclipref><mediatype>video</mediatype><trackindex>1</trackindex><clipindex>1</clipindex></link><link><linkclipref>clipitem-68</linkclipref><mediatype>audio</mediatype><trackindex>1</trackindex><clipindex>1</clipindex></link><link><linkclipref>clipitem-69</linkclipref><mediatype>audio</mediatype><trackindex>2</trackindex><clipindex>1</clipindex></link></clipitem><file id="file-23" /></track><track><clipitem id="clipitem-69"><masterclipid>masterclip-23</masterclipid><name>A001_06071750_C023</name><rate><timebase>25</timebase><ntsc>FALSE</ntsc></rate><sourcetrack><mediatype>audio</mediatype><trackindex>2</trackindex></sourcetrack><link><linkclipref>clipitem-67</linkclipref><mediatype>video</mediatype><trackindex>1</trackindex><clipindex>1</clipindex></link><link><linkclipref>clipitem-68</linkclipref><mediatype>audio</mediatype><trackindex>1</trackindex><clipindex>1</clipindex></link><link><linkclipref>clipitem-69</linkclipref><mediatype>audio</mediatype><trackindex>2</trackindex><clipindex>1</clipindex></link></clipitem><file id="file-23" /></track></audio></media></clip><clip explodedTracks="true" id="masterclip-24"><masterclipid>masterclip-24</masterclipid><duration>1719</duration><ismasterclip>TRUE</ismasterclip><name>A001_06071754_C024</name><rate><timebase>25</timebase><ntsc>FALSE</ntsc></rate><media><video><track><clipitem id="clipitem-70"><masterclipid>masterclip-24</masterclipid><name>A001_06071754_C024</name><rate><timebase>25</timebase><ntsc>FALSE</ntsc></rate><alphatype>none</alphatype><pixelaspectratio>square</pixelaspectratio><anamorphic>FALSE</anamorphic><file id="file-24"><name>A001_06071754_C024</name><rate><timebase>25</timebase><ntsc>FALSE</ntsc></rate><duration>1719</duration><pathurl>file://localhost/Q%3A/Projects/HAZEN_ALPHA/MEDIA_OCM/DAY%201/A001_06071754_C024.mov</pathurl><media><video /><audio><channelcount>2</channelcount></audio></media></file><link><linkclipref>clipitem-70</linkclipref><mediatype>video</mediatype><trackindex>1</trackindex><clipindex>1</clipindex></link><link><linkclipref>clipitem-71</linkclipref><mediatype>audio</mediatype><trackindex>1</trackindex><clipindex>1</clipindex></link><link><linkclipref>clipitem-72</linkclipref><mediatype>audio</mediatype><trackindex>2</trackindex><clipindex>1</clipindex></link></clipitem></track></video><audio><track><clipitem id="clipitem-71"><masterclipid>masterclip-24</masterclipid><name>A001_06071754_C024</name><rate><timebase>25</timebase><ntsc>FALSE</ntsc></rate><sourcetrack><mediatype>audio</mediatype><trackindex>1</trackindex></sourcetrack><link><linkclipref>clipitem-70</linkclipref><mediatype>video</mediatype><trackindex>1</trackindex><clipindex>1</clipindex></link><link><linkclipref>clipitem-71</linkclipref><mediatype>audio</mediatype><trackindex>1</trackindex><clipindex>1</clipindex></link><link><linkclipref>clipitem-72</linkclipref><mediatype>audio</mediatype><trackindex>2</trackindex><clipindex>1</clipindex></link></clipitem><file id="file-24" /></track><track><clipitem id="clipitem-72"><masterclipid>masterclip-24</masterclipid><name>A001_06071754_C024</name><rate><timebase>25</timebase><ntsc>FALSE</ntsc></rate><sourcetrack><mediatype>audio</mediatype><trackindex>2</trackindex></sourcetrack><link><linkclipref>clipitem-70</linkclipref><mediatype>video</mediatype><trackindex>1</trackindex><clipindex>1</clipindex></link><link><linkclipref>clipitem-71</linkclipref><mediatype>audio</mediatype><trackindex>1</trackindex><clipindex>1</clipindex></link><link><linkclipref>clipitem-72</linkclipref><mediatype>audio</mediatype><trackindex>2</trackindex><clipindex>1</clipindex></link></clipitem><file id="file-24" /></track></audio></media></clip><clip explodedTracks="true" id="masterclip-25"><masterclipid>masterclip-25</masterclipid><duration>1574</duration><ismasterclip>TRUE</ismasterclip><name>A001_06071759_C025</name><rate><timebase>25</timebase><ntsc>FALSE</ntsc></rate><media><video><track><clipitem id="clipitem-73"><masterclipid>masterclip-25</masterclipid><name>A001_06071759_C025</name><rate><timebase>25</timebase><ntsc>FALSE</ntsc></rate><alphatype>none</alphatype><pixelaspectratio>square</pixelaspectratio><anamorphic>FALSE</anamorphic><file id="file-25"><name>A001_06071759_C025</name><rate><timebase>25</timebase><ntsc>FALSE</ntsc></rate><duration>1574</duration><pathurl>file://localhost/Q%3A/Projects/HAZEN_ALPHA/MEDIA_OCM/DAY%201/A001_06071759_C025.mov</pathurl><media><video /><audio><channelcount>2</channelcount></audio></media></file><link><linkclipref>clipitem-73</linkclipref><mediatype>video</mediatype><trackindex>1</trackindex><clipindex>1</clipindex></link><link><linkclipref>clipitem-74</linkclipref><mediatype>audio</mediatype><trackindex>1</trackindex><clipindex>1</clipindex></link><link><linkclipref>clipitem-75</linkclipref><mediatype>audio</mediatype><trackindex>2</trackindex><clipindex>1</clipindex></link></clipitem></track></video><audio><track><clipitem id="clipitem-74"><masterclipid>masterclip-25</masterclipid><name>A001_06071759_C025</name><rate><timebase>25</timebase><ntsc>FALSE</ntsc></rate><sourcetrack><mediatype>audio</mediatype><trackindex>1</trackindex></sourcetrack><link><linkclipref>clipitem-73</linkclipref><mediatype>video</mediatype><trackindex>1</trackindex><clipindex>1</clipindex></link><link><linkclipref>clipitem-74</linkclipref><mediatype>audio</mediatype><trackindex>1</trackindex><clipindex>1</clipindex></link><link><linkclipref>clipitem-75</linkclipref><mediatype>audio</mediatype><trackindex>2</trackindex><clipindex>1</clipindex></link></clipitem><file id="file-25" /></track><track><clipitem id="clipitem-75"><masterclipid>masterclip-25</masterclipid><name>A001_06071759_C025</name><rate><timebase>25</timebase><ntsc>FALSE</ntsc></rate><sourcetrack><mediatype>audio</mediatype><trackindex>2</trackindex></sourcetrack><link><linkclipref>clipitem-73</linkclipref><mediatype>video</mediatype><trackindex>1</trackindex><clipindex>1</clipindex></link><link><linkclipref>clipitem-74</linkclipref><mediatype>audio</mediatype><trackindex>1</trackindex><clipindex>1</clipindex></link><link><linkclipref>clipitem-75</linkclipref><mediatype>audio</mediatype><trackindex>2</trackindex><clipindex>1</clipindex></link></clipitem><file id="file-25" /></track></audio></media></clip><clip explodedTracks="true" id="masterclip-26"><masterclipid>masterclip-26</masterclipid><duration>14100</duration><ismasterclip>TRUE</ismasterclip><name>A001_06071810_C026</name><rate><timebase>25</timebase><ntsc>FALSE</ntsc></rate><media><video><track><clipitem id="clipitem-76"><masterclipid>masterclip-26</masterclipid><name>A001_06071810_C026</name><rate><timebase>25</timebase><ntsc>FALSE</ntsc></rate><alphatype>none</alphatype><pixelaspectratio>square</pixelaspectratio><anamorphic>FALSE</anamorphic><file id="file-26"><name>A001_06071810_C026</name><rate><timebase>25</timebase><ntsc>FALSE</ntsc></rate><duration>14100</duration><pathurl>file://localhost/Q%3A/Projects/HAZEN_ALPHA/MEDIA_OCM/DAY%201/A001_06071810_C026.mov</pathurl><media><video /><audio><channelcount>2</channelcount></audio></media></file><link><linkclipref>clipitem-76</linkclipref><mediatype>video</mediatype><trackindex>1</trackindex><clipindex>1</clipindex></link><link><linkclipref>clipitem-77</linkclipref><mediatype>audio</mediatype><trackindex>1</trackindex><clipindex>1</clipindex></link><link><linkclipref>clipitem-78</linkclipref><mediatype>audio</mediatype><trackindex>2</trackindex><clipindex>1</clipindex></link></clipitem></track></video><audio><track><clipitem id="clipitem-77"><masterclipid>masterclip-26</masterclipid><name>A001_06071810_C026</name><rate><timebase>25</timebase><ntsc>FALSE</ntsc></rate><sourcetrack><mediatype>audio</mediatype><trackindex>1</trackindex></sourcetrack><link><linkclipref>clipitem-76</linkclipref><mediatype>video</mediatype><trackindex>1</trackindex><clipindex>1</clipindex></link><link><linkclipref>clipitem-77</linkclipref><mediatype>audio</mediatype><trackindex>1</trackindex><clipindex>1</clipindex></link><link><linkclipref>clipitem-78</linkclipref><mediatype>audio</mediatype><trackindex>2</trackindex><clipindex>1</clipindex></link></clipitem><file id="file-26" /></track><track><clipitem id="clipitem-78"><masterclipid>masterclip-26</masterclipid><name>A001_06071810_C026</name><rate><timebase>25</timebase><ntsc>FALSE</ntsc></rate><sourcetrack><mediatype>audio</mediatype><trackindex>2</trackindex></sourcetrack><link><linkclipref>clipitem-76</linkclipref><mediatype>video</mediatype><trackindex>1</trackindex><clipindex>1</clipindex></link><link><linkclipref>clipitem-77</linkclipref><mediatype>audio</mediatype><trackindex>1</trackindex><clipindex>1</clipindex></link><link><linkclipref>clipitem-78</linkclipref><mediatype>audio</mediatype><trackindex>2</trackindex><clipindex>1</clipindex></link></clipitem><file id="file-26" /></track></audio></media></clip></children></bin><bin><name>Masterclips_Audio</name><children><clip explodedTracks="true" id="masterclip-27"><masterclipid>masterclip-27</masterclipid><duration>1200</duration><ismasterclip>TRUE</ismasterclip><name>130619_001</name><rate><timebase>25</timebase><ntsc>FALSE</ntsc></rate><media><audio><track><clipitem id="clipitem-79"><masterclipid>masterclip-27</masterclipid><name>130619_001</name><rate><timebase>25</timebase><ntsc>FALSE</ntsc></rate><sourcetrack><mediatype>audio</mediatype><trackindex>1</trackindex></sourcetrack><link><linkclipref>clipitem-79</linkclipref><mediatype>audio</mediatype><trackindex>1</trackindex><clipindex>1</clipindex></link><link><linkclipref>clipitem-80</linkclipref><mediatype>audio</mediatype><trackindex>2</trackindex><clipindex>1</clipindex></link><link><linkclipref>clipitem-81</linkclipref><mediatype>audio</mediatype><trackindex>3</trackindex><clipindex>1</clipindex></link><link><linkclipref>clipitem-82</linkclipref><mediatype>audio</mediatype><trackindex>4</trackindex><clipindex>1</clipindex></link></clipitem><file id="file-27" /></track><track><clipitem id="clipitem-80"><masterclipid>masterclip-27</masterclipid><name>130619_001</name><rate><timebase>25</timebase><ntsc>FALSE</ntsc></rate><file id="file-27"><pathurl>file://localhost/Q%3A/Projects/HAZEN_ALPHA/AUDIO/F8_SD2/130619/130619_001.WAV</pathurl><name>130619_001</name><rate><timebase>25</timebase><ntsc>FALSE</ntsc></rate><duration>1200</duration><media><audio><channelcount>1</channelcount><audiochannel><sourcechannel>1</sourcechannel></audiochannel></audio><audio><channelcount>1</channelcount><audiochannel><sourcechannel>2</sourcechannel></audiochannel></audio><audio><channelcount>1</channelcount><audiochannel><sourcechannel>3</sourcechannel></audiochannel></audio><audio><channelcount>1</channelcount><audiochannel><sourcechannel>4</sourcechannel></audiochannel></audio></media></file><sourcetrack><mediatype>audio</mediatype><trackindex>2</trackindex></sourcetrack><link><linkclipref>clipitem-79</linkclipref><mediatype>audio</mediatype><trackindex>1</trackindex><clipindex>1</clipindex></link><link><linkclipref>clipitem-80</linkclipref><mediatype>audio</mediatype><trackindex>2</trackindex><clipindex>1</clipindex></link><link><linkclipref>clipitem-81</linkclipref><mediatype>audio</mediatype><trackindex>3</trackindex><clipindex>1</clipindex></link><link><linkclipref>clipitem-82</linkclipref><mediatype>audio</mediatype><trackindex>4</trackindex><clipindex>1</clipindex></link></clipitem></track><track><clipitem id="clipitem-81"><masterclipid>masterclip-27</masterclipid><name>130619_001</name><rate><timebase>25</timebase><ntsc>FALSE</ntsc></rate><sourcetrack><mediatype>audio</mediatype><trackindex>3</trackindex></sourcetrack><link><linkclipref>clipitem-79</linkclipref><mediatype>audio</mediatype><trackindex>1</trackindex><clipindex>1</clipindex></link><link><linkclipref>clipitem-80</linkclipref><mediatype>audio</mediatype><trackindex>2</trackindex><clipindex>1</clipindex></link><link><linkclipref>clipitem-81</linkclipref><mediatype>audio</mediatype><trackindex>3</trackindex><clipindex>1</clipindex></link><link><linkclipref>clipitem-82</linkclipref><mediatype>audio</mediatype><trackindex>4</trackindex><clipindex>1</clipindex></link></clipitem><file id="file-27" /></track><track><clipitem id="clipitem-82"><masterclipid>masterclip-27</masterclipid><name>130619_001</name><rate><timebase>25</timebase><ntsc>FALSE</ntsc></rate><sourcetrack><mediatype>audio</mediatype><trackindex>4</trackindex></sourcetrack><link><linkclipref>clipitem-79</linkclipref><mediatype>audio</mediatype><trackindex>1</trackindex><clipindex>1</clipindex></link><link><linkclipref>clipitem-80</linkclipref><mediatype>audio</mediatype><trackindex>2</trackindex><clipindex>1</clipindex></link><link><linkclipref>clipitem-81</linkclipref><mediatype>audio</mediatype><trackindex>3</trackindex><clipindex>1</clipindex></link><link><linkclipref>clipitem-82</linkclipref><mediatype>audio</mediatype><trackindex>4</trackindex><clipindex>1</clipindex></link></clipitem><file id="file-27" /></track></audio></media></clip><clip explodedTracks="true" id="masterclip-28"><masterclipid>masterclip-28</masterclipid><duration>1200</duration><ismasterclip>TRUE</ismasterclip><name>130619_002</name><rate><timebase>25</timebase><ntsc>FALSE</ntsc></rate><media><audio><track><clipitem id="clipitem-83"><masterclipid>masterclip-28</masterclipid><name>130619_002</name><rate><timebase>25</timebase><ntsc>FALSE</ntsc></rate><sourcetrack><mediatype>audio</mediatype><trackindex>1</trackindex></sourcetrack><link><linkclipref>clipitem-83</linkclipref><mediatype>audio</mediatype><trackindex>1</trackindex><clipindex>1</clipindex></link><link><linkclipref>clipitem-84</linkclipref><mediatype>audio</mediatype><trackindex>2</trackindex><clipindex>1</clipindex></link><link><linkclipref>clipitem-85</linkclipref><mediatype>audio</mediatype><trackindex>3</trackindex><clipindex>1</clipindex></link><link><linkclipref>clipitem-86</linkclipref><mediatype>audio</mediatype><trackindex>4</trackindex><clipindex>1</clipindex></link></clipitem><file id="file-28" /></track><track><clipitem id="clipitem-84"><masterclipid>masterclip-28</masterclipid><name>130619_002</name><rate><timebase>25</timebase><ntsc>FALSE</ntsc></rate><file id="file-28"><pathurl>file://localhost/Q%3A/Projects/HAZEN_ALPHA/AUDIO/F8_SD2/130619/130619_002.WAV</pathurl><name>130619_002</name><rate><timebase>25</timebase><ntsc>FALSE</ntsc></rate><duration>1200</duration><media><audio><channelcount>1</channelcount><audiochannel><sourcechannel>1</sourcechannel></audiochannel></audio><audio><channelcount>1</channelcount><audiochannel><sourcechannel>2</sourcechannel></audiochannel></audio><audio><channelcount>1</channelcount><audiochannel><sourcechannel>3</sourcechannel></audiochannel></audio><audio><channelcount>1</channelcount><audiochannel><sourcechannel>4</sourcechannel></audiochannel></audio></media></file><sourcetrack><mediatype>audio</mediatype><trackindex>2</trackindex></sourcetrack><link><linkclipref>clipitem-83</linkclipref><mediatype>audio</mediatype><trackindex>1</trackindex><clipindex>1</clipindex></link><link><linkclipref>clipitem-84</linkclipref><mediatype>audio</mediatype><trackindex>2</trackindex><clipindex>1</clipindex></link><link><linkclipref>clipitem-85</linkclipref><mediatype>audio</mediatype><trackindex>3</trackindex><clipindex>1</clipindex></link><link><linkclipref>clipitem-86</linkclipref><mediatype>audio</mediatype><trackindex>4</trackindex><clipindex>1</clipindex></link></clipitem></track><track><clipitem id="clipitem-85"><masterclipid>masterclip-28</masterclipid><name>130619_002</name><rate><timebase>25</timebase><ntsc>FALSE</ntsc></rate><sourcetrack><mediatype>audio</mediatype><trackindex>3</trackindex></sourcetrack><link><linkclipref>clipitem-83</linkclipref><mediatype>audio</mediatype><trackindex>1</trackindex><clipindex>1</clipindex></link><link><linkclipref>clipitem-84</linkclipref><mediatype>audio</mediatype><trackindex>2</trackindex><clipindex>1</clipindex></link><link><linkclipref>clipitem-85</linkclipref><mediatype>audio</mediatype><trackindex>3</trackindex><clipindex>1</clipindex></link><link><linkclipref>clipitem-86</linkclipref><mediatype>audio</mediatype><trackindex>4</trackindex><clipindex>1</clipindex></link></clipitem><file id="file-28" /></track><track><clipitem id="clipitem-86"><masterclipid>masterclip-28</masterclipid><name>130619_002</name><rate><timebase>25</timebase><ntsc>FALSE</ntsc></rate><sourcetrack><mediatype>audio</mediatype><trackindex>4</trackindex></sourcetrack><link><linkclipref>clipitem-83</linkclipref><mediatype>audio</mediatype><trackindex>1</trackindex><clipindex>1</clipindex></link><link><linkclipref>clipitem-84</linkclipref><mediatype>audio</mediatype><trackindex>2</trackindex><clipindex>1</clipindex></link><link><linkclipref>clipitem-85</linkclipref><mediatype>audio</mediatype><trackindex>3</trackindex><clipindex>1</clipindex></link><link><linkclipref>clipitem-86</linkclipref><mediatype>audio</mediatype><trackindex>4</trackindex><clipindex>1</clipindex></link></clipitem><file id="file-28" /></track></audio></media></clip><clip explodedTracks="true" id="masterclip-29"><masterclipid>masterclip-29</masterclipid><duration>1975</duration><ismasterclip>TRUE</ismasterclip><name>130619_003</name><rate><timebase>25</timebase><ntsc>FALSE</ntsc></rate><media><audio><track><clipitem id="clipitem-87"><masterclipid>masterclip-29</masterclipid><name>130619_003</name><rate><timebase>25</timebase><ntsc>FALSE</ntsc></rate><sourcetrack><mediatype>audio</mediatype><trackindex>1</trackindex></sourcetrack><link><linkclipref>clipitem-87</linkclipref><mediatype>audio</mediatype><trackindex>1</trackindex><clipindex>1</clipindex></link><link><linkclipref>clipitem-88</linkclipref><mediatype>audio</mediatype><trackindex>2</trackindex><clipindex>1</clipindex></link><link><linkclipref>clipitem-89</linkclipref><mediatype>audio</mediatype><trackindex>3</trackindex><clipindex>1</clipindex></link><link><linkclipref>clipitem-90</linkclipref><mediatype>audio</mediatype><trackindex>4</trackindex><clipindex>1</clipindex></link></clipitem><file id="file-29" /></track><track><clipitem id="clipitem-88"><masterclipid>masterclip-29</masterclipid><name>130619_003</name><rate><timebase>25</timebase><ntsc>FALSE</ntsc></rate><file id="file-29"><pathurl>file://localhost/Q%3A/Projects/HAZEN_ALPHA/AUDIO/F8_SD2/130619/130619_003.WAV</pathurl><name>130619_003</name><rate><timebase>25</timebase><ntsc>FALSE</ntsc></rate><duration>1975</duration><media><audio><channelcount>1</channelcount><audiochannel><sourcechannel>1</sourcechannel></audiochannel></audio><audio><channelcount>1</channelcount><audiochannel><sourcechannel>2</sourcechannel></audiochannel></audio><audio><channelcount>1</channelcount><audiochannel><sourcechannel>3</sourcechannel></audiochannel></audio><audio><channelcount>1</channelcount><audiochannel><sourcechannel>4</sourcechannel></audiochannel></audio></media></file><sourcetrack><mediatype>audio</mediatype><trackindex>2</trackindex></sourcetrack><link><linkclipref>clipitem-87</linkclipref><mediatype>audio</mediatype><trackindex>1</trackindex><clipindex>1</clipindex></link><link><linkclipref>clipitem-88</linkclipref><mediatype>audio</mediatype><trackindex>2</trackindex><clipindex>1</clipindex></link><link><linkclipref>clipitem-89</linkclipref><mediatype>audio</mediatype><trackindex>3</trackindex><clipindex>1</clipindex></link><link><linkclipref>clipitem-90</linkclipref><mediatype>audio</mediatype><trackindex>4</trackindex><clipindex>1</clipindex></link></clipitem></track><track><clipitem id="clipitem-89"><masterclipid>masterclip-29</masterclipid><name>130619_003</name><rate><timebase>25</timebase><ntsc>FALSE</ntsc></rate><sourcetrack><mediatype>audio</mediatype><trackindex>3</trackindex></sourcetrack><link><linkclipref>clipitem-87</linkclipref><mediatype>audio</mediatype><trackindex>1</trackindex><clipindex>1</clipindex></link><link><linkclipref>clipitem-88</linkclipref><mediatype>audio</mediatype><trackindex>2</trackindex><clipindex>1</clipindex></link><link><linkclipref>clipitem-89</linkclipref><mediatype>audio</mediatype><trackindex>3</trackindex><clipindex>1</clipindex></link><link><linkclipref>clipitem-90</linkclipref><mediatype>audio</mediatype><trackindex>4</trackindex><clipindex>1</clipindex></link></clipitem><file id="file-29" /></track><track><clipitem id="clipitem-90"><masterclipid>masterclip-29</masterclipid><name>130619_003</name><rate><timebase>25</timebase><ntsc>FALSE</ntsc></rate><sourcetrack><mediatype>audio</mediatype><trackindex>4</trackindex></sourcetrack><link><linkclipref>clipitem-87</linkclipref><mediatype>audio</mediatype><trackindex>1</trackindex><clipindex>1</clipindex></link><link><linkclipref>clipitem-88</linkclipref><mediatype>audio</mediatype><trackindex>2</trackindex><clipindex>1</clipindex></link><link><linkclipref>clipitem-89</linkclipref><mediatype>audio</mediatype><trackindex>3</trackindex><clipindex>1</clipindex></link><link><linkclipref>clipitem-90</linkclipref><mediatype>audio</mediatype><trackindex>4</trackindex><clipindex>1</clipindex></link></clipitem><file id="file-29" /></track></audio></media></clip><clip explodedTracks="true" id="masterclip-30"><masterclipid>masterclip-30</masterclipid><duration>3325</duration><ismasterclip>TRUE</ismasterclip><name>130619_004</name><rate><timebase>25</timebase><ntsc>FALSE</ntsc></rate><media><audio><track><clipitem id="clipitem-91"><masterclipid>masterclip-30</masterclipid><name>130619_004</name><rate><timebase>25</timebase><ntsc>FALSE</ntsc></rate><sourcetrack><mediatype>audio</mediatype><trackindex>1</trackindex></sourcetrack><link><linkclipref>clipitem-91</linkclipref><mediatype>audio</mediatype><trackindex>1</trackindex><clipindex>1</clipindex></link><link><linkclipref>clipitem-92</linkclipref><mediatype>audio</mediatype><trackindex>2</trackindex><clipindex>1</clipindex></link><link><linkclipref>clipitem-93</linkclipref><mediatype>audio</mediatype><trackindex>3</trackindex><clipindex>1</clipindex></link><link><linkclipref>clipitem-94</linkclipref><mediatype>audio</mediatype><trackindex>4</trackindex><clipindex>1</clipindex></link></clipitem><file id="file-30" /></track><track><clipitem id="clipitem-92"><masterclipid>masterclip-30</masterclipid><name>130619_004</name><rate><timebase>25</timebase><ntsc>FALSE</ntsc></rate><file id="file-30"><pathurl>file://localhost/Q%3A/Projects/HAZEN_ALPHA/AUDIO/F8_SD2/130619/130619_004.WAV</pathurl><name>130619_004</name><rate><timebase>25</timebase><ntsc>FALSE</ntsc></rate><duration>3325</duration><media><audio><channelcount>1</channelcount><audiochannel><sourcechannel>1</sourcechannel></audiochannel></audio><audio><channelcount>1</channelcount><audiochannel><sourcechannel>2</sourcechannel></audiochannel></audio><audio><channelcount>1</channelcount><audiochannel><sourcechannel>3</sourcechannel></audiochannel></audio><audio><channelcount>1</channelcount><audiochannel><sourcechannel>4</sourcechannel></audiochannel></audio></media></file><sourcetrack><mediatype>audio</mediatype><trackindex>2</trackindex></sourcetrack><link><linkclipref>clipitem-91</linkclipref><mediatype>audio</mediatype><trackindex>1</trackindex><clipindex>1</clipindex></link><link><linkclipref>clipitem-92</linkclipref><mediatype>audio</mediatype><trackindex>2</trackindex><clipindex>1</clipindex></link><link><linkclipref>clipitem-93</linkclipref><mediatype>audio</mediatype><trackindex>3</trackindex><clipindex>1</clipindex></link><link><linkclipref>clipitem-94</linkclipref><mediatype>audio</mediatype><trackindex>4</trackindex><clipindex>1</clipindex></link></clipitem></track><track><clipitem id="clipitem-93"><masterclipid>masterclip-30</masterclipid><name>130619_004</name><rate><timebase>25</timebase><ntsc>FALSE</ntsc></rate><sourcetrack><mediatype>audio</mediatype><trackindex>3</trackindex></sourcetrack><link><linkclipref>clipitem-91</linkclipref><mediatype>audio</mediatype><trackindex>1</trackindex><clipindex>1</clipindex></link><link><linkclipref>clipitem-92</linkclipref><mediatype>audio</mediatype><trackindex>2</trackindex><clipindex>1</clipindex></link><link><linkclipref>clipitem-93</linkclipref><mediatype>audio</mediatype><trackindex>3</trackindex><clipindex>1</clipindex></link><link><linkclipref>clipitem-94</linkclipref><mediatype>audio</mediatype><trackindex>4</trackindex><clipindex>1</clipindex></link></clipitem><file id="file-30" /></track><track><clipitem id="clipitem-94"><masterclipid>masterclip-30</masterclipid><name>130619_004</name><rate><timebase>25</timebase><ntsc>FALSE</ntsc></rate><sourcetrack><mediatype>audio</mediatype><trackindex>4</trackindex></sourcetrack><link><linkclipref>clipitem-91</linkclipref><mediatype>audio</mediatype><trackindex>1</trackindex><clipindex>1</clipindex></link><link><linkclipref>clipitem-92</linkclipref><mediatype>audio</mediatype><trackindex>2</trackindex><clipindex>1</clipindex></link><link><linkclipref>clipitem-93</linkclipref><mediatype>audio</mediatype><trackindex>3</trackindex><clipindex>1</clipindex></link><link><linkclipref>clipitem-94</linkclipref><mediatype>audio</mediatype><trackindex>4</trackindex><clipindex>1</clipindex></link></clipitem><file id="file-30" /></track></audio></media></clip><clip explodedTracks="true" id="masterclip-31"><masterclipid>masterclip-31</masterclipid><duration>1575</duration><ismasterclip>TRUE</ismasterclip><name>130619_005</name><rate><timebase>25</timebase><ntsc>FALSE</ntsc></rate><media><audio><track><clipitem id="clipitem-95"><masterclipid>masterclip-31</masterclipid><name>130619_005</name><rate><timebase>25</timebase><ntsc>FALSE</ntsc></rate><sourcetrack><mediatype>audio</mediatype><trackindex>1</trackindex></sourcetrack><link><linkclipref>clipitem-95</linkclipref><mediatype>audio</mediatype><trackindex>1</trackindex><clipindex>1</clipindex></link><link><linkclipref>clipitem-96</linkclipref><mediatype>audio</mediatype><trackindex>2</trackindex><clipindex>1</clipindex></link><link><linkclipref>clipitem-97</linkclipref><mediatype>audio</mediatype><trackindex>3</trackindex><clipindex>1</clipindex></link><link><linkclipref>clipitem-98</linkclipref><mediatype>audio</mediatype><trackindex>4</trackindex><clipindex>1</clipindex></link></clipitem><file id="file-31" /></track><track><clipitem id="clipitem-96"><masterclipid>masterclip-31</masterclipid><name>130619_005</name><rate><timebase>25</timebase><ntsc>FALSE</ntsc></rate><file id="file-31"><pathurl>file://localhost/Q%3A/Projects/HAZEN_ALPHA/AUDIO/F8_SD2/130619/130619_005.WAV</pathurl><name>130619_005</name><rate><timebase>25</timebase><ntsc>FALSE</ntsc></rate><duration>1575</duration><media><audio><channelcount>1</channelcount><audiochannel><sourcechannel>1</sourcechannel></audiochannel></audio><audio><channelcount>1</channelcount><audiochannel><sourcechannel>2</sourcechannel></audiochannel></audio><audio><channelcount>1</channelcount><audiochannel><sourcechannel>3</sourcechannel></audiochannel></audio><audio><channelcount>1</channelcount><audiochannel><sourcechannel>4</sourcechannel></audiochannel></audio></media></file><sourcetrack><mediatype>audio</mediatype><trackindex>2</trackindex></sourcetrack><link><linkclipref>clipitem-95</linkclipref><mediatype>audio</mediatype><trackindex>1</trackindex><clipindex>1</clipindex></link><link><linkclipref>clipitem-96</linkclipref><mediatype>audio</mediatype><trackindex>2</trackindex><clipindex>1</clipindex></link><link><linkclipref>clipitem-97</linkclipref><mediatype>audio</mediatype><trackindex>3</trackindex><clipindex>1</clipindex></link><link><linkclipref>clipitem-98</linkclipref><mediatype>audio</mediatype><trackindex>4</trackindex><clipindex>1</clipindex></link></clipitem></track><track><clipitem id="clipitem-97"><masterclipid>masterclip-31</masterclipid><name>130619_005</name><rate><timebase>25</timebase><ntsc>FALSE</ntsc></rate><sourcetrack><mediatype>audio</mediatype><trackindex>3</trackindex></sourcetrack><link><linkclipref>clipitem-95</linkclipref><mediatype>audio</mediatype><trackindex>1</trackindex><clipindex>1</clipindex></link><link><linkclipref>clipitem-96</linkclipref><mediatype>audio</mediatype><trackindex>2</trackindex><clipindex>1</clipindex></link><link><linkclipref>clipitem-97</linkclipref><mediatype>audio</mediatype><trackindex>3</trackindex><clipindex>1</clipindex></link><link><linkclipref>clipitem-98</linkclipref><mediatype>audio</mediatype><trackindex>4</trackindex><clipindex>1</clipindex></link></clipitem><file id="file-31" /></track><track><clipitem id="clipitem-98"><masterclipid>masterclip-31</masterclipid><name>130619_005</name><rate><timebase>25</timebase><ntsc>FALSE</ntsc></rate><sourcetrack><mediatype>audio</mediatype><trackindex>4</trackindex></sourcetrack><link><linkclipref>clipitem-95</linkclipref><mediatype>audio</mediatype><trackindex>1</trackindex><clipindex>1</clipindex></link><link><linkclipref>clipitem-96</linkclipref><mediatype>audio</mediatype><trackindex>2</trackindex><clipindex>1</clipindex></link><link><linkclipref>clipitem-97</linkclipref><mediatype>audio</mediatype><trackindex>3</trackindex><clipindex>1</clipindex></link><link><linkclipref>clipitem-98</linkclipref><mediatype>audio</mediatype><trackindex>4</trackindex><clipindex>1</clipindex></link></clipitem><file id="file-31" /></track></audio></media></clip><clip explodedTracks="true" id="masterclip-32"><masterclipid>masterclip-32</masterclipid><duration>4400</duration><ismasterclip>TRUE</ismasterclip><name>130619_006</name><rate><timebase>25</timebase><ntsc>FALSE</ntsc></rate><media><audio><track><clipitem id="clipitem-99"><masterclipid>masterclip-32</masterclipid><name>130619_006</name><rate><timebase>25</timebase><ntsc>FALSE</ntsc></rate><sourcetrack><mediatype>audio</mediatype><trackindex>1</trackindex></sourcetrack><link><linkclipref>clipitem-99</linkclipref><mediatype>audio</mediatype><trackindex>1</trackindex><clipindex>1</clipindex></link><link><linkclipref>clipitem-100</linkclipref><mediatype>audio</mediatype><trackindex>2</trackindex><clipindex>1</clipindex></link><link><linkclipref>clipitem-101</linkclipref><mediatype>audio</mediatype><trackindex>3</trackindex><clipindex>1</clipindex></link><link><linkclipref>clipitem-102</linkclipref><mediatype>audio</mediatype><trackindex>4</trackindex><clipindex>1</clipindex></link></clipitem><file id="file-32" /></track><track><clipitem id="clipitem-100"><masterclipid>masterclip-32</masterclipid><name>130619_006</name><rate><timebase>25</timebase><ntsc>FALSE</ntsc></rate><file id="file-32"><pathurl>file://localhost/Q%3A/Projects/HAZEN_ALPHA/AUDIO/F8_SD2/130619/130619_006.WAV</pathurl><name>130619_006</name><rate><timebase>25</timebase><ntsc>FALSE</ntsc></rate><duration>4400</duration><media><audio><channelcount>1</channelcount><audiochannel><sourcechannel>1</sourcechannel></audiochannel></audio><audio><channelcount>1</channelcount><audiochannel><sourcechannel>2</sourcechannel></audiochannel></audio><audio><channelcount>1</channelcount><audiochannel><sourcechannel>3</sourcechannel></audiochannel></audio><audio><channelcount>1</channelcount><audiochannel><sourcechannel>4</sourcechannel></audiochannel></audio></media></file><sourcetrack><mediatype>audio</mediatype><trackindex>2</trackindex></sourcetrack><link><linkclipref>clipitem-99</linkclipref><mediatype>audio</mediatype><trackindex>1</trackindex><clipindex>1</clipindex></link><link><linkclipref>clipitem-100</linkclipref><mediatype>audio</mediatype><trackindex>2</trackindex><clipindex>1</clipindex></link><link><linkclipref>clipitem-101</linkclipref><mediatype>audio</mediatype><trackindex>3</trackindex><clipindex>1</clipindex></link><link><linkclipref>clipitem-102</linkclipref><mediatype>audio</mediatype><trackindex>4</trackindex><clipindex>1</clipindex></link></clipitem></track><track><clipitem id="clipitem-101"><masterclipid>masterclip-32</masterclipid><name>130619_006</name><rate><timebase>25</timebase><ntsc>FALSE</ntsc></rate><sourcetrack><mediatype>audio</mediatype><trackindex>3</trackindex></sourcetrack><link><linkclipref>clipitem-99</linkclipref><mediatype>audio</mediatype><trackindex>1</trackindex><clipindex>1</clipindex></link><link><linkclipref>clipitem-100</linkclipref><mediatype>audio</mediatype><trackindex>2</trackindex><clipindex>1</clipindex></link><link><linkclipref>clipitem-101</linkclipref><mediatype>audio</mediatype><trackindex>3</trackindex><clipindex>1</clipindex></link><link><linkclipref>clipitem-102</linkclipref><mediatype>audio</mediatype><trackindex>4</trackindex><clipindex>1</clipindex></link></clipitem><file id="file-32" /></track><track><clipitem id="clipitem-102"><masterclipid>masterclip-32</masterclipid><name>130619_006</name><rate><timebase>25</timebase><ntsc>FALSE</ntsc></rate><sourcetrack><mediatype>audio</mediatype><trackindex>4</trackindex></sourcetrack><link><linkclipref>clipitem-99</linkclipref><mediatype>audio</mediatype><trackindex>1</trackindex><clipindex>1</clipindex></link><link><linkclipref>clipitem-100</linkclipref><mediatype>audio</mediatype><trackindex>2</trackindex><clipindex>1</clipindex></link><link><linkclipref>clipitem-101</linkclipref><mediatype>audio</mediatype><trackindex>3</trackindex><clipindex>1</clipindex></link><link><linkclipref>clipitem-102</linkclipref><mediatype>audio</mediatype><trackindex>4</trackindex><clipindex>1</clipindex></link></clipitem><file id="file-32" /></track></audio></media></clip><clip explodedTracks="true" id="masterclip-33"><masterclipid>masterclip-33</masterclipid><duration>2550</duration><ismasterclip>TRUE</ismasterclip><name>130619_007</name><rate><timebase>25</timebase><ntsc>FALSE</ntsc></rate><media><audio><track><clipitem id="clipitem-103"><masterclipid>masterclip-33</masterclipid><name>130619_007</name><rate><timebase>25</timebase><ntsc>FALSE</ntsc></rate><sourcetrack><mediatype>audio</mediatype><trackindex>1</trackindex></sourcetrack><link><linkclipref>clipitem-103</linkclipref><mediatype>audio</mediatype><trackindex>1</trackindex><clipindex>1</clipindex></link><link><linkclipref>clipitem-104</linkclipref><mediatype>audio</mediatype><trackindex>2</trackindex><clipindex>1</clipindex></link><link><linkclipref>clipitem-105</linkclipref><mediatype>audio</mediatype><trackindex>3</trackindex><clipindex>1</clipindex></link><link><linkclipref>clipitem-106</linkclipref><mediatype>audio</mediatype><trackindex>4</trackindex><clipindex>1</clipindex></link></clipitem><file id="file-33" /></track><track><clipitem id="clipitem-104"><masterclipid>masterclip-33</masterclipid><name>130619_007</name><rate><timebase>25</timebase><ntsc>FALSE</ntsc></rate><file id="file-33"><pathurl>file://localhost/Q%3A/Projects/HAZEN_ALPHA/AUDIO/F8_SD2/130619/130619_007.WAV</pathurl><name>130619_007</name><rate><timebase>25</timebase><ntsc>FALSE</ntsc></rate><duration>2550</duration><media><audio><channelcount>1</channelcount><audiochannel><sourcechannel>1</sourcechannel></audiochannel></audio><audio><channelcount>1</channelcount><audiochannel><sourcechannel>2</sourcechannel></audiochannel></audio><audio><channelcount>1</channelcount><audiochannel><sourcechannel>3</sourcechannel></audiochannel></audio><audio><channelcount>1</channelcount><audiochannel><sourcechannel>4</sourcechannel></audiochannel></audio></media></file><sourcetrack><mediatype>audio</mediatype><trackindex>2</trackindex></sourcetrack><link><linkclipref>clipitem-103</linkclipref><mediatype>audio</mediatype><trackindex>1</trackindex><clipindex>1</clipindex></link><link><linkclipref>clipitem-104</linkclipref><mediatype>audio</mediatype><trackindex>2</trackindex><clipindex>1</clipindex></link><link><linkclipref>clipitem-105</linkclipref><mediatype>audio</mediatype><trackindex>3</trackindex><clipindex>1</clipindex></link><link><linkclipref>clipitem-106</linkclipref><mediatype>audio</mediatype><trackindex>4</trackindex><clipindex>1</clipindex></link></clipitem></track><track><clipitem id="clipitem-105"><masterclipid>masterclip-33</masterclipid><name>130619_007</name><rate><timebase>25</timebase><ntsc>FALSE</ntsc></rate><sourcetrack><mediatype>audio</mediatype><trackindex>3</trackindex></sourcetrack><link><linkclipref>clipitem-103</linkclipref><mediatype>audio</mediatype><trackindex>1</trackindex><clipindex>1</clipindex></link><link><linkclipref>clipitem-104</linkclipref><mediatype>audio</mediatype><trackindex>2</trackindex><clipindex>1</clipindex></link><link><linkclipref>clipitem-105</linkclipref><mediatype>audio</mediatype><trackindex>3</trackindex><clipindex>1</clipindex></link><link><linkclipref>clipitem-106</linkclipref><mediatype>audio</mediatype><trackindex>4</trackindex><clipindex>1</clipindex></link></clipitem><file id="file-33" /></track><track><clipitem id="clipitem-106"><masterclipid>masterclip-33</masterclipid><name>130619_007</name><rate><timebase>25</timebase><ntsc>FALSE</ntsc></rate><sourcetrack><mediatype>audio</mediatype><trackindex>4</trackindex></sourcetrack><link><linkclipref>clipitem-103</linkclipref><mediatype>audio</mediatype><trackindex>1</trackindex><clipindex>1</clipindex></link><link><linkclipref>clipitem-104</linkclipref><mediatype>audio</mediatype><trackindex>2</trackindex><clipindex>1</clipindex></link><link><linkclipref>clipitem-105</linkclipref><mediatype>audio</mediatype><trackindex>3</trackindex><clipindex>1</clipindex></link><link><linkclipref>clipitem-106</linkclipref><mediatype>audio</mediatype><trackindex>4</trackindex><clipindex>1</clipindex></link></clipitem><file id="file-33" /></track></audio></media></clip><clip explodedTracks="true" id="masterclip-34"><masterclipid>masterclip-34</masterclipid><duration>2100</duration><ismasterclip>TRUE</ismasterclip><name>130619_008</name><rate><timebase>25</timebase><ntsc>FALSE</ntsc></rate><media><audio><track><clipitem id="clipitem-107"><masterclipid>masterclip-34</masterclipid><name>130619_008</name><rate><timebase>25</timebase><ntsc>FALSE</ntsc></rate><sourcetrack><mediatype>audio</mediatype><trackindex>1</trackindex></sourcetrack><link><linkclipref>clipitem-107</linkclipref><mediatype>audio</mediatype><trackindex>1</trackindex><clipindex>1</clipindex></link><link><linkclipref>clipitem-108</linkclipref><mediatype>audio</mediatype><trackindex>2</trackindex><clipindex>1</clipindex></link><link><linkclipref>clipitem-109</linkclipref><mediatype>audio</mediatype><trackindex>3</trackindex><clipindex>1</clipindex></link><link><linkclipref>clipitem-110</linkclipref><mediatype>audio</mediatype><trackindex>4</trackindex><clipindex>1</clipindex></link></clipitem><file id="file-34" /></track><track><clipitem id="clipitem-108"><masterclipid>masterclip-34</masterclipid><name>130619_008</name><rate><timebase>25</timebase><ntsc>FALSE</ntsc></rate><file id="file-34"><pathurl>file://localhost/Q%3A/Projects/HAZEN_ALPHA/AUDIO/F8_SD2/130619/130619_008.WAV</pathurl><name>130619_008</name><rate><timebase>25</timebase><ntsc>FALSE</ntsc></rate><duration>2100</duration><media><audio><channelcount>1</channelcount><audiochannel><sourcechannel>1</sourcechannel></audiochannel></audio><audio><channelcount>1</channelcount><audiochannel><sourcechannel>2</sourcechannel></audiochannel></audio><audio><channelcount>1</channelcount><audiochannel><sourcechannel>3</sourcechannel></audiochannel></audio><audio><channelcount>1</channelcount><audiochannel><sourcechannel>4</sourcechannel></audiochannel></audio></media></file><sourcetrack><mediatype>audio</mediatype><trackindex>2</trackindex></sourcetrack><link><linkclipref>clipitem-107</linkclipref><mediatype>audio</mediatype><trackindex>1</trackindex><clipindex>1</clipindex></link><link><linkclipref>clipitem-108</linkclipref><mediatype>audio</mediatype><trackindex>2</trackindex><clipindex>1</clipindex></link><link><linkclipref>clipitem-109</linkclipref><mediatype>audio</mediatype><trackindex>3</trackindex><clipindex>1</clipindex></link><link><linkclipref>clipitem-110</linkclipref><mediatype>audio</mediatype><trackindex>4</trackindex><clipindex>1</clipindex></link></clipitem></track><track><clipitem id="clipitem-109"><masterclipid>masterclip-34</masterclipid><name>130619_008</name><rate><timebase>25</timebase><ntsc>FALSE</ntsc></rate><sourcetrack><mediatype>audio</mediatype><trackindex>3</trackindex></sourcetrack><link><linkclipref>clipitem-107</linkclipref><mediatype>audio</mediatype><trackindex>1</trackindex><clipindex>1</clipindex></link><link><linkclipref>clipitem-108</linkclipref><mediatype>audio</mediatype><trackindex>2</trackindex><clipindex>1</clipindex></link><link><linkclipref>clipitem-109</linkclipref><mediatype>audio</mediatype><trackindex>3</trackindex><clipindex>1</clipindex></link><link><linkclipref>clipitem-110</linkclipref><mediatype>audio</mediatype><trackindex>4</trackindex><clipindex>1</clipindex></link></clipitem><file id="file-34" /></track><track><clipitem id="clipitem-110"><masterclipid>masterclip-34</masterclipid><name>130619_008</name><rate><timebase>25</timebase><ntsc>FALSE</ntsc></rate><sourcetrack><mediatype>audio</mediatype><trackindex>4</trackindex></sourcetrack><link><linkclipref>clipitem-107</linkclipref><mediatype>audio</mediatype><trackindex>1</trackindex><clipindex>1</clipindex></link><link><linkclipref>clipitem-108</linkclipref><mediatype>audio</mediatype><trackindex>2</trackindex><clipindex>1</clipindex></link><link><linkclipref>clipitem-109</linkclipref><mediatype>audio</mediatype><trackindex>3</trackindex><clipindex>1</clipindex></link><link><linkclipref>clipitem-110</linkclipref><mediatype>audio</mediatype><trackindex>4</trackindex><clipindex>1</clipindex></link></clipitem><file id="file-34" /></track></audio></media></clip><clip explodedTracks="true" id="masterclip-35"><masterclipid>masterclip-35</masterclipid><duration>4300</duration><ismasterclip>TRUE</ismasterclip><name>130619_009</name><rate><timebase>25</timebase><ntsc>FALSE</ntsc></rate><media><audio><track><clipitem id="clipitem-111"><masterclipid>masterclip-35</masterclipid><name>130619_009</name><rate><timebase>25</timebase><ntsc>FALSE</ntsc></rate><sourcetrack><mediatype>audio</mediatype><trackindex>1</trackindex></sourcetrack><link><linkclipref>clipitem-111</linkclipref><mediatype>audio</mediatype><trackindex>1</trackindex><clipindex>1</clipindex></link><link><linkclipref>clipitem-112</linkclipref><mediatype>audio</mediatype><trackindex>2</trackindex><clipindex>1</clipindex></link><link><linkclipref>clipitem-113</linkclipref><mediatype>audio</mediatype><trackindex>3</trackindex><clipindex>1</clipindex></link><link><linkclipref>clipitem-114</linkclipref><mediatype>audio</mediatype><trackindex>4</trackindex><clipindex>1</clipindex></link></clipitem><file id="file-35" /></track><track><clipitem id="clipitem-112"><masterclipid>masterclip-35</masterclipid><name>130619_009</name><rate><timebase>25</timebase><ntsc>FALSE</ntsc></rate><file id="file-35"><pathurl>file://localhost/Q%3A/Projects/HAZEN_ALPHA/AUDIO/F8_SD2/130619/130619_009.WAV</pathurl><name>130619_009</name><rate><timebase>25</timebase><ntsc>FALSE</ntsc></rate><duration>4300</duration><media><audio><channelcount>1</channelcount><audiochannel><sourcechannel>1</sourcechannel></audiochannel></audio><audio><channelcount>1</channelcount><audiochannel><sourcechannel>2</sourcechannel></audiochannel></audio><audio><channelcount>1</channelcount><audiochannel><sourcechannel>3</sourcechannel></audiochannel></audio><audio><channelcount>1</channelcount><audiochannel><sourcechannel>4</sourcechannel></audiochannel></audio></media></file><sourcetrack><mediatype>audio</mediatype><trackindex>2</trackindex></sourcetrack><link><linkclipref>clipitem-111</linkclipref><mediatype>audio</mediatype><trackindex>1</trackindex><clipindex>1</clipindex></link><link><linkclipref>clipitem-112</linkclipref><mediatype>audio</mediatype><trackindex>2</trackindex><clipindex>1</clipindex></link><link><linkclipref>clipitem-113</linkclipref><mediatype>audio</mediatype><trackindex>3</trackindex><clipindex>1</clipindex></link><link><linkclipref>clipitem-114</linkclipref><mediatype>audio</mediatype><trackindex>4</trackindex><clipindex>1</clipindex></link></clipitem></track><track><clipitem id="clipitem-113"><masterclipid>masterclip-35</masterclipid><name>130619_009</name><rate><timebase>25</timebase><ntsc>FALSE</ntsc></rate><sourcetrack><mediatype>audio</mediatype><trackindex>3</trackindex></sourcetrack><link><linkclipref>clipitem-111</linkclipref><mediatype>audio</mediatype><trackindex>1</trackindex><clipindex>1</clipindex></link><link><linkclipref>clipitem-112</linkclipref><mediatype>audio</mediatype><trackindex>2</trackindex><clipindex>1</clipindex></link><link><linkclipref>clipitem-113</linkclipref><mediatype>audio</mediatype><trackindex>3</trackindex><clipindex>1</clipindex></link><link><linkclipref>clipitem-114</linkclipref><mediatype>audio</mediatype><trackindex>4</trackindex><clipindex>1</clipindex></link></clipitem><file id="file-35" /></track><track><clipitem id="clipitem-114"><masterclipid>masterclip-35</masterclipid><name>130619_009</name><rate><timebase>25</timebase><ntsc>FALSE</ntsc></rate><sourcetrack><mediatype>audio</mediatype><trackindex>4</trackindex></sourcetrack><link><linkclipref>clipitem-111</linkclipref><mediatype>audio</mediatype><trackindex>1</trackindex><clipindex>1</clipindex></link><link><linkclipref>clipitem-112</linkclipref><mediatype>audio</mediatype><trackindex>2</trackindex><clipindex>1</clipindex></link><link><linkclipref>clipitem-113</linkclipref><mediatype>audio</mediatype><trackindex>3</trackindex><clipindex>1</clipindex></link><link><linkclipref>clipitem-114</linkclipref><mediatype>audio</mediatype><trackindex>4</trackindex><clipindex>1</clipindex></link></clipitem><file id="file-35" /></track></audio></media></clip><clip explodedTracks="true" id="masterclip-36"><masterclipid>masterclip-36</masterclipid><duration>1950</duration><ismasterclip>TRUE</ismasterclip><name>130619_010</name><rate><timebase>25</timebase><ntsc>FALSE</ntsc></rate><media><audio><track><clipitem id="clipitem-115"><masterclipid>masterclip-36</masterclipid><name>130619_010</name><rate><timebase>25</timebase><ntsc>FALSE</ntsc></rate><sourcetrack><mediatype>audio</mediatype><trackindex>1</trackindex></sourcetrack><link><linkclipref>clipitem-115</linkclipref><mediatype>audio</mediatype><trackindex>1</trackindex><clipindex>1</clipindex></link><link><linkclipref>clipitem-116</linkclipref><mediatype>audio</mediatype><trackindex>2</trackindex><clipindex>1</clipindex></link></clipitem><file id="file-36" /></track><track><clipitem id="clipitem-116"><masterclipid>masterclip-36</masterclipid><name>130619_010</name><rate><timebase>25</timebase><ntsc>FALSE</ntsc></rate><file id="file-36"><pathurl>file://localhost/Q%3A/Projects/HAZEN_ALPHA/AUDIO/F8_SD2/130619/130619_010.WAV</pathurl><name>130619_010</name><rate><timebase>25</timebase><ntsc>FALSE</ntsc></rate><duration>1950</duration><media><audio><channelcount>1</channelcount><audiochannel><sourcechannel>1</sourcechannel></audiochannel></audio><audio><channelcount>1</channelcount><audiochannel><sourcechannel>2</sourcechannel></audiochannel></audio></media></file><sourcetrack><mediatype>audio</mediatype><trackindex>2</trackindex></sourcetrack><link><linkclipref>clipitem-115</linkclipref><mediatype>audio</mediatype><trackindex>1</trackindex><clipindex>1</clipindex></link><link><linkclipref>clipitem-116</linkclipref><mediatype>audio</mediatype><trackindex>2</trackindex><clipindex>1</clipindex></link></clipitem></track></audio></media></clip><clip explodedTracks="true" id="masterclip-37"><masterclipid>masterclip-37</masterclipid><duration>2375</duration><ismasterclip>TRUE</ismasterclip><name>130619_011</name><rate><timebase>25</timebase><ntsc>FALSE</ntsc></rate><media><audio><track><clipitem id="clipitem-117"><masterclipid>masterclip-37</masterclipid><name>130619_011</name><rate><timebase>25</timebase><ntsc>FALSE</ntsc></rate><sourcetrack><mediatype>audio</mediatype><trackindex>1</trackindex></sourcetrack><link><linkclipref>clipitem-117</linkclipref><mediatype>audio</mediatype><trackindex>1</trackindex><clipindex>1</clipindex></link><link><linkclipref>clipitem-118</linkclipref><mediatype>audio</mediatype><trackindex>2</trackindex><clipindex>1</clipindex></link></clipitem><file id="file-37" /></track><track><clipitem id="clipitem-118"><masterclipid>masterclip-37</masterclipid><name>130619_011</name><rate><timebase>25</timebase><ntsc>FALSE</ntsc></rate><file id="file-37"><pathurl>file://localhost/Q%3A/Projects/HAZEN_ALPHA/AUDIO/F8_SD2/130619/130619_011.WAV</pathurl><name>130619_011</name><rate><timebase>25</timebase><ntsc>FALSE</ntsc></rate><duration>2375</duration><media><audio><channelcount>1</channelcount><audiochannel><sourcechannel>1</sourcechannel></audiochannel></audio><audio><channelcount>1</channelcount><audiochannel><sourcechannel>2</sourcechannel></audiochannel></audio></media></file><sourcetrack><mediatype>audio</mediatype><trackindex>2</trackindex></sourcetrack><link><linkclipref>clipitem-117</linkclipref><mediatype>audio</mediatype><trackindex>1</trackindex><clipindex>1</clipindex></link><link><linkclipref>clipitem-118</linkclipref><mediatype>audio</mediatype><trackindex>2</trackindex><clipindex>1</clipindex></link></clipitem></track></audio></media></clip><clip explodedTracks="true" id="masterclip-38"><masterclipid>masterclip-38</masterclipid><duration>2075</duration><ismasterclip>TRUE</ismasterclip><name>130619_012</name><rate><timebase>25</timebase><ntsc>FALSE</ntsc></rate><media><audio><track><clipitem id="clipitem-119"><masterclipid>masterclip-38</masterclipid><name>130619_012</name><rate><timebase>25</timebase><ntsc>FALSE</ntsc></rate><sourcetrack><mediatype>audio</mediatype><trackindex>1</trackindex></sourcetrack><link><linkclipref>clipitem-119</linkclipref><mediatype>audio</mediatype><trackindex>1</trackindex><clipindex>1</clipindex></link><link><linkclipref>clipitem-120</linkclipref><mediatype>audio</mediatype><trackindex>2</trackindex><clipindex>1</clipindex></link></clipitem><file id="file-38" /></track><track><clipitem id="clipitem-120"><masterclipid>masterclip-38</masterclipid><name>130619_012</name><rate><timebase>25</timebase><ntsc>FALSE</ntsc></rate><file id="file-38"><pathurl>file://localhost/Q%3A/Projects/HAZEN_ALPHA/AUDIO/F8_SD2/130619/130619_012.WAV</pathurl><name>130619_012</name><rate><timebase>25</timebase><ntsc>FALSE</ntsc></rate><duration>2075</duration><media><audio><channelcount>1</channelcount><audiochannel><sourcechannel>1</sourcechannel></audiochannel></audio><audio><channelcount>1</channelcount><audiochannel><sourcechannel>2</sourcechannel></audiochannel></audio></media></file><sourcetrack><mediatype>audio</mediatype><trackindex>2</trackindex></sourcetrack><link><linkclipref>clipitem-119</linkclipref><mediatype>audio</mediatype><trackindex>1</trackindex><clipindex>1</clipindex></link><link><linkclipref>clipitem-120</linkclipref><mediatype>audio</mediatype><trackindex>2</trackindex><clipindex>1</clipindex></link></clipitem></track></audio></media></clip><clip explodedTracks="true" id="masterclip-39"><masterclipid>masterclip-39</masterclipid><duration>2375</duration><ismasterclip>TRUE</ismasterclip><name>130619_013</name><rate><timebase>25</timebase><ntsc>FALSE</ntsc></rate><media><audio><track><clipitem id="clipitem-121"><masterclipid>masterclip-39</masterclipid><name>130619_013</name><rate><timebase>25</timebase><ntsc>FALSE</ntsc></rate><sourcetrack><mediatype>audio</mediatype><trackindex>1</trackindex></sourcetrack><link><linkclipref>clipitem-121</linkclipref><mediatype>audio</mediatype><trackindex>1</trackindex><clipindex>1</clipindex></link><link><linkclipref>clipitem-122</linkclipref><mediatype>audio</mediatype><trackindex>2</trackindex><clipindex>1</clipindex></link></clipitem><file id="file-39" /></track><track><clipitem id="clipitem-122"><masterclipid>masterclip-39</masterclipid><name>130619_013</name><rate><timebase>25</timebase><ntsc>FALSE</ntsc></rate><file id="file-39"><pathurl>file://localhost/Q%3A/Projects/HAZEN_ALPHA/AUDIO/F8_SD2/130619/130619_013.WAV</pathurl><name>130619_013</name><rate><timebase>25</timebase><ntsc>FALSE</ntsc></rate><duration>2375</duration><media><audio><channelcount>1</channelcount><audiochannel><sourcechannel>1</sourcechannel></audiochannel></audio><audio><channelcount>1</channelcount><audiochannel><sourcechannel>2</sourcechannel></audiochannel></audio></media></file><sourcetrack><mediatype>audio</mediatype><trackindex>2</trackindex></sourcetrack><link><linkclipref>clipitem-121</linkclipref><mediatype>audio</mediatype><trackindex>1</trackindex><clipindex>1</clipindex></link><link><linkclipref>clipitem-122</linkclipref><mediatype>audio</mediatype><trackindex>2</trackindex><clipindex>1</clipindex></link></clipitem></track></audio></media></clip><clip explodedTracks="true" id="masterclip-40"><masterclipid>masterclip-40</masterclipid><duration>1575</duration><ismasterclip>TRUE</ismasterclip><name>130619_014</name><rate><timebase>25</timebase><ntsc>FALSE</ntsc></rate><media><audio><track><clipitem id="clipitem-123"><masterclipid>masterclip-40</masterclipid><name>130619_014</name><rate><timebase>25</timebase><ntsc>FALSE</ntsc></rate><sourcetrack><mediatype>audio</mediatype><trackindex>1</trackindex></sourcetrack><link><linkclipref>clipitem-123</linkclipref><mediatype>audio</mediatype><trackindex>1</trackindex><clipindex>1</clipindex></link><link><linkclipref>clipitem-124</linkclipref><mediatype>audio</mediatype><trackindex>2</trackindex><clipindex>1</clipindex></link></clipitem><file id="file-40" /></track><track><clipitem id="clipitem-124"><masterclipid>masterclip-40</masterclipid><name>130619_014</name><rate><timebase>25</timebase><ntsc>FALSE</ntsc></rate><file id="file-40"><pathurl>file://localhost/Q%3A/Projects/HAZEN_ALPHA/AUDIO/F8_SD2/130619/130619_014.WAV</pathurl><name>130619_014</name><rate><timebase>25</timebase><ntsc>FALSE</ntsc></rate><duration>1575</duration><media><audio><channelcount>1</channelcount><audiochannel><sourcechannel>1</sourcechannel></audiochannel></audio><audio><channelcount>1</channelcount><audiochannel><sourcechannel>2</sourcechannel></audiochannel></audio></media></file><sourcetrack><mediatype>audio</mediatype><trackindex>2</trackindex></sourcetrack><link><linkclipref>clipitem-123</linkclipref><mediatype>audio</mediatype><trackindex>1</trackindex><clipindex>1</clipindex></link><link><linkclipref>clipitem-124</linkclipref><mediatype>audio</mediatype><trackindex>2</trackindex><clipindex>1</clipindex></link></clipitem></track></audio></media></clip><clip explodedTracks="true" id="masterclip-41"><masterclipid>masterclip-41</masterclipid><duration>1475</duration><ismasterclip>TRUE</ismasterclip><name>130619_015</name><rate><timebase>25</timebase><ntsc>FALSE</ntsc></rate><media><audio><track><clipitem id="clipitem-125"><masterclipid>masterclip-41</masterclipid><name>130619_015</name><rate><timebase>25</timebase><ntsc>FALSE</ntsc></rate><sourcetrack><mediatype>audio</mediatype><trackindex>1</trackindex></sourcetrack><link><linkclipref>clipitem-125</linkclipref><mediatype>audio</mediatype><trackindex>1</trackindex><clipindex>1</clipindex></link><link><linkclipref>clipitem-126</linkclipref><mediatype>audio</mediatype><trackindex>2</trackindex><clipindex>1</clipindex></link></clipitem><file id="file-41" /></track><track><clipitem id="clipitem-126"><masterclipid>masterclip-41</masterclipid><name>130619_015</name><rate><timebase>25</timebase><ntsc>FALSE</ntsc></rate><file id="file-41"><pathurl>file://localhost/Q%3A/Projects/HAZEN_ALPHA/AUDIO/F8_SD2/130619/130619_015.WAV</pathurl><name>130619_015</name><rate><timebase>25</timebase><ntsc>FALSE</ntsc></rate><duration>1475</duration><media><audio><channelcount>1</channelcount><audiochannel><sourcechannel>1</sourcechannel></audiochannel></audio><audio><channelcount>1</channelcount><audiochannel><sourcechannel>2</sourcechannel></audiochannel></audio></media></file><sourcetrack><mediatype>audio</mediatype><trackindex>2</trackindex></sourcetrack><link><linkclipref>clipitem-125</linkclipref><mediatype>audio</mediatype><trackindex>1</trackindex><clipindex>1</clipindex></link><link><linkclipref>clipitem-126</linkclipref><mediatype>audio</mediatype><trackindex>2</trackindex><clipindex>1</clipindex></link></clipitem></track></audio></media></clip><clip explodedTracks="true" id="masterclip-42"><masterclipid>masterclip-42</masterclipid><duration>1500</duration><ismasterclip>TRUE</ismasterclip><name>130619_016</name><rate><timebase>25</timebase><ntsc>FALSE</ntsc></rate><media><audio><track><clipitem id="clipitem-127"><masterclipid>masterclip-42</masterclipid><name>130619_016</name><rate><timebase>25</timebase><ntsc>FALSE</ntsc></rate><sourcetrack><mediatype>audio</mediatype><trackindex>1</trackindex></sourcetrack><link><linkclipref>clipitem-127</linkclipref><mediatype>audio</mediatype><trackindex>1</trackindex><clipindex>1</clipindex></link><link><linkclipref>clipitem-128</linkclipref><mediatype>audio</mediatype><trackindex>2</trackindex><clipindex>1</clipindex></link></clipitem><file id="file-42" /></track><track><clipitem id="clipitem-128"><masterclipid>masterclip-42</masterclipid><name>130619_016</name><rate><timebase>25</timebase><ntsc>FALSE</ntsc></rate><file id="file-42"><pathurl>file://localhost/Q%3A/Projects/HAZEN_ALPHA/AUDIO/F8_SD2/130619/130619_016.WAV</pathurl><name>130619_016</name><rate><timebase>25</timebase><ntsc>FALSE</ntsc></rate><duration>1500</duration><media><audio><channelcount>1</channelcount><audiochannel><sourcechannel>1</sourcechannel></audiochannel></audio><audio><channelcount>1</channelcount><audiochannel><sourcechannel>2</sourcechannel></audiochannel></audio></media></file><sourcetrack><mediatype>audio</mediatype><trackindex>2</trackindex></sourcetrack><link><linkclipref>clipitem-127</linkclipref><mediatype>audio</mediatype><trackindex>1</trackindex><clipindex>1</clipindex></link><link><linkclipref>clipitem-128</linkclipref><mediatype>audio</mediatype><trackindex>2</trackindex><clipindex>1</clipindex></link></clipitem></track></audio></media></clip><clip explodedTracks="true" id="masterclip-43"><masterclipid>masterclip-43</masterclipid><duration>1600</duration><ismasterclip>TRUE</ismasterclip><name>130619_017</name><rate><timebase>25</timebase><ntsc>FALSE</ntsc></rate><media><audio><track><clipitem id="clipitem-129"><masterclipid>masterclip-43</masterclipid><name>130619_017</name><rate><timebase>25</timebase><ntsc>FALSE</ntsc></rate><sourcetrack><mediatype>audio</mediatype><trackindex>1</trackindex></sourcetrack><link><linkclipref>clipitem-129</linkclipref><mediatype>audio</mediatype><trackindex>1</trackindex><clipindex>1</clipindex></link><link><linkclipref>clipitem-130</linkclipref><mediatype>audio</mediatype><trackindex>2</trackindex><clipindex>1</clipindex></link></clipitem><file id="file-43" /></track><track><clipitem id="clipitem-130"><masterclipid>masterclip-43</masterclipid><name>130619_017</name><rate><timebase>25</timebase><ntsc>FALSE</ntsc></rate><file id="file-43"><pathurl>file://localhost/Q%3A/Projects/HAZEN_ALPHA/AUDIO/F8_SD2/130619/130619_017.WAV</pathurl><name>130619_017</name><rate><timebase>25</timebase><ntsc>FALSE</ntsc></rate><duration>1600</duration><media><audio><channelcount>1</channelcount><audiochannel><sourcechannel>1</sourcechannel></audiochannel></audio><audio><channelcount>1</channelcount><audiochannel><sourcechannel>2</sourcechannel></audiochannel></audio></media></file><sourcetrack><mediatype>audio</mediatype><trackindex>2</trackindex></sourcetrack><link><linkclipref>clipitem-129</linkclipref><mediatype>audio</mediatype><trackindex>1</trackindex><clipindex>1</clipindex></link><link><linkclipref>clipitem-130</linkclipref><mediatype>audio</mediatype><trackindex>2</trackindex><clipindex>1</clipindex></link></clipitem></track></audio></media></clip><clip explodedTracks="true" id="masterclip-44"><masterclipid>masterclip-44</masterclipid><duration>3825</duration><ismasterclip>TRUE</ismasterclip><name>130619_018</name><rate><timebase>25</timebase><ntsc>FALSE</ntsc></rate><media><audio><track><clipitem id="clipitem-131"><masterclipid>masterclip-44</masterclipid><name>130619_018</name><rate><timebase>25</timebase><ntsc>FALSE</ntsc></rate><sourcetrack><mediatype>audio</mediatype><trackindex>1</trackindex></sourcetrack><link><linkclipref>clipitem-131</linkclipref><mediatype>audio</mediatype><trackindex>1</trackindex><clipindex>1</clipindex></link><link><linkclipref>clipitem-132</linkclipref><mediatype>audio</mediatype><trackindex>2</trackindex><clipindex>1</clipindex></link></clipitem><file id="file-44" /></track><track><clipitem id="clipitem-132"><masterclipid>masterclip-44</masterclipid><name>130619_018</name><rate><timebase>25</timebase><ntsc>FALSE</ntsc></rate><file id="file-44"><pathurl>file://localhost/Q%3A/Projects/HAZEN_ALPHA/AUDIO/F8_SD2/130619/130619_018.WAV</pathurl><name>130619_018</name><rate><timebase>25</timebase><ntsc>FALSE</ntsc></rate><duration>3825</duration><media><audio><channelcount>1</channelcount><audiochannel><sourcechannel>1</sourcechannel></audiochannel></audio><audio><channelcount>1</channelcount><audiochannel><sourcechannel>2</sourcechannel></audiochannel></audio></media></file><sourcetrack><mediatype>audio</mediatype><trackindex>2</trackindex></sourcetrack><link><linkclipref>clipitem-131</linkclipref><mediatype>audio</mediatype><trackindex>1</trackindex><clipindex>1</clipindex></link><link><linkclipref>clipitem-132</linkclipref><mediatype>audio</mediatype><trackindex>2</trackindex><clipindex>1</clipindex></link></clipitem></track></audio></media></clip><clip explodedTracks="true" id="masterclip-45"><masterclipid>masterclip-45</masterclipid><duration>1725</duration><ismasterclip>TRUE</ismasterclip><name>130619_019</name><rate><timebase>25</timebase><ntsc>FALSE</ntsc></rate><media><audio><track><clipitem id="clipitem-133"><masterclipid>masterclip-45</masterclipid><name>130619_019</name><rate><timebase>25</timebase><ntsc>FALSE</ntsc></rate><sourcetrack><mediatype>audio</mediatype><trackindex>1</trackindex></sourcetrack><link><linkclipref>clipitem-133</linkclipref><mediatype>audio</mediatype><trackindex>1</trackindex><clipindex>1</clipindex></link><link><linkclipref>clipitem-134</linkclipref><mediatype>audio</mediatype><trackindex>2</trackindex><clipindex>1</clipindex></link></clipitem><file id="file-45" /></track><track><clipitem id="clipitem-134"><masterclipid>masterclip-45</masterclipid><name>130619_019</name><rate><timebase>25</timebase><ntsc>FALSE</ntsc></rate><file id="file-45"><pathurl>file://localhost/Q%3A/Projects/HAZEN_ALPHA/AUDIO/F8_SD2/130619/130619_019.WAV</pathurl><name>130619_019</name><rate><timebase>25</timebase><ntsc>FALSE</ntsc></rate><duration>1725</duration><media><audio><channelcount>1</channelcount><audiochannel><sourcechannel>1</sourcechannel></audiochannel></audio><audio><channelcount>1</channelcount><audiochannel><sourcechannel>2</sourcechannel></audiochannel></audio></media></file><sourcetrack><mediatype>audio</mediatype><trackindex>2</trackindex></sourcetrack><link><linkclipref>clipitem-133</linkclipref><mediatype>audio</mediatype><trackindex>1</trackindex><clipindex>1</clipindex></link><link><linkclipref>clipitem-134</linkclipref><mediatype>audio</mediatype><trackindex>2</trackindex><clipindex>1</clipindex></link></clipitem></track></audio></media></clip><clip explodedTracks="true" id="masterclip-46"><masterclipid>masterclip-46</masterclipid><duration>1450</duration><ismasterclip>TRUE</ismasterclip><name>130619_020</name><rate><timebase>25</timebase><ntsc>FALSE</ntsc></rate><media><audio><track><clipitem id="clipitem-135"><masterclipid>masterclip-46</masterclipid><name>130619_020</name><rate><timebase>25</timebase><ntsc>FALSE</ntsc></rate><sourcetrack><mediatype>audio</mediatype><trackindex>1</trackindex></sourcetrack><link><linkclipref>clipitem-135</linkclipref><mediatype>audio</mediatype><trackindex>1</trackindex><clipindex>1</clipindex></link><link><linkclipref>clipitem-136</linkclipref><mediatype>audio</mediatype><trackindex>2</trackindex><clipindex>1</clipindex></link></clipitem><file id="file-46" /></track><track><clipitem id="clipitem-136"><masterclipid>masterclip-46</masterclipid><name>130619_020</name><rate><timebase>25</timebase><ntsc>FALSE</ntsc></rate><file id="file-46"><pathurl>file://localhost/Q%3A/Projects/HAZEN_ALPHA/AUDIO/F8_SD2/130619/130619_020.WAV</pathurl><name>130619_020</name><rate><timebase>25</timebase><ntsc>FALSE</ntsc></rate><duration>1450</duration><media><audio><channelcount>1</channelcount><audiochannel><sourcechannel>1</sourcechannel></audiochannel></audio><audio><channelcount>1</channelcount><audiochannel><sourcechannel>2</sourcechannel></audiochannel></audio></media></file><sourcetrack><mediatype>audio</mediatype><trackindex>2</trackindex></sourcetrack><link><linkclipref>clipitem-135</linkclipref><mediatype>audio</mediatype><trackindex>1</trackindex><clipindex>1</clipindex></link><link><linkclipref>clipitem-136</linkclipref><mediatype>audio</mediatype><trackindex>2</trackindex><clipindex>1</clipindex></link></clipitem></track></audio></media></clip><clip explodedTracks="true" id="masterclip-47"><masterclipid>masterclip-47</masterclipid><duration>14200</duration><ismasterclip>TRUE</ismasterclip><name>130619_021</name><rate><timebase>25</timebase><ntsc>FALSE</ntsc></rate><media><audio><track><clipitem id="clipitem-137"><masterclipid>masterclip-47</masterclipid><name>130619_021</name><rate><timebase>25</timebase><ntsc>FALSE</ntsc></rate><sourcetrack><mediatype>audio</mediatype><trackindex>1</trackindex></sourcetrack><link><linkclipref>clipitem-137</linkclipref><mediatype>audio</mediatype><trackindex>1</trackindex><clipindex>1</clipindex></link><link><linkclipref>clipitem-138</linkclipref><mediatype>audio</mediatype><trackindex>2</trackindex><clipindex>1</clipindex></link></clipitem><file id="file-47" /></track><track><clipitem id="clipitem-138"><masterclipid>masterclip-47</masterclipid><name>130619_021</name><rate><timebase>25</timebase><ntsc>FALSE</ntsc></rate><file id="file-47"><pathurl>file://localhost/Q%3A/Projects/HAZEN_ALPHA/AUDIO/F8_SD2/130619/130619_021.WAV</pathurl><name>130619_021</name><rate><timebase>25</timebase><ntsc>FALSE</ntsc></rate><duration>14200</duration><media><audio><channelcount>1</channelcount><audiochannel><sourcechannel>1</sourcechannel></audiochannel></audio><audio><channelcount>1</channelcount><audiochannel><sourcechannel>2</sourcechannel></audiochannel></audio></media></file><sourcetrack><mediatype>audio</mediatype><trackindex>2</trackindex></sourcetrack><link><linkclipref>clipitem-137</linkclipref><mediatype>audio</mediatype><trackindex>1</trackindex><clipindex>1</clipindex></link><link><linkclipref>clipitem-138</linkclipref><mediatype>audio</mediatype><trackindex>2</trackindex><clipindex>1</clipindex></link></clipitem></track></audio></media></clip></children></bin><bin><name>Sequences</name><children><sequence MZ.Sequence.AudioTimeDisplayFormat="200" MZ.Sequence.EditingModeGUID="d8484cf3-c96c-4622-ab1f-ac1a16e196f9" MZ.Sequence.PreviewFrameSizeHeight="1080" MZ.Sequence.PreviewFrameSizeWidth="1920" MZ.Sequence.PreviewRenderingClassID="1297106761" MZ.Sequence.PreviewRenderingPresetCodec="1297107278" MZ.Sequence.PreviewRenderingPresetPath="EncoderPresets\SequencePreview\d8484cf3-c96c-4622-ab1f-ac1a16e196f9\I-Frame Only MPEG.epr" MZ.Sequence.PreviewUseMaxBitDepth="false" MZ.Sequence.PreviewUseMaxRenderQuality="false" MZ.Sequence.VideoTimeDisplayFormat="101" explodedTracks="true" id="sequence-1"><name>AutoSeq_V</name><rate><timebase>25</timebase><ntsc>FALSE</ntsc></rate><duration>539809</duration><timecode><rate><timebase>25</timebase><ntsc>FALSE</ntsc></rate><frame>1110325</frame><timecode>12:20:13:00</timecode><displayformat>NDF</displayformat></timecode><media><video><format><samplecharacteristics><rate><timebase>25</timebase><ntsc>FALSE</ntsc></rate><codec><name>prores</name></codec><width>2048</width><height>1152</height><anamorphic>FALSE</anamorphic><pixelaspectratio>square</pixelaspectratio><fielddominance>none</fielddominance></samplecharacteristics></format><track MZ.TrackTargeted="1" PannerCurrentValue="0.5" PannerName="Balance" PannerStartKeyframe="-91445760000000000,0.5,0,0,0,0,0,0" TL.SQTrackAudioKeyframeStyle="0" TL.SQTrackExpanded="0" TL.SQTrackExpandedHeight="25" TL.SQTrackShy="0" currentExplodedTrackIndex="0" premiereTrackType="Stereo" totalExplodedTrackCount="1"><clipitem id="clipitem-139"><masterclipid>masterclip-1</masterclipid><name>A001_06071220_C001</name><duration>923</duration><file id="file-1" /><enabled>TRUE</enabled><alphatype>none</alphatype><start>0</start><end>923</end><in>0</in><out>923</out><link><linkclipref>clipitem-139</linkclipref><mediatype>video</mediatype><trackindex>1</trackindex><clipindex>2</clipindex></link><link><linkclipref>clipitem-140</linkclipref><mediatype>audio</mediatype><trackindex>1</trackindex><clipindex>2</clipindex></link><link><linkclipref>clipitem-141</linkclipref><mediatype>audio</mediatype><trackindex>2</trackindex><clipindex>2</clipindex></link></clipitem><clipitem id="clipitem-142"><masterclipid>masterclip-2</masterclipid><name>A001_06071221_C002</name><duration>918</duration><file id="file-2" /><enabled>TRUE</enabled><alphatype>none</alphatype><start>1926</start><end>2844</end><in>0</in><out>918</out><link><linkclipref>clipitem-142</linkclipref><mediatype>video</mediatype><trackindex>1</trackindex><clipindex>3</clipindex></link><link><linkclipref>clipitem-143</linkclipref><mediatype>audio</mediatype><trackindex>1</trackindex><clipindex>3</clipindex></link><link><linkclipref>clipitem-144</linkclipref><mediatype>audio</mediatype><trackindex>2</trackindex><clipindex>3</clipindex></link></clipitem><clipitem id="clipitem-145"><masterclipid>masterclip-3</masterclipid><name>A001_06071223_C003</name><duration>1798</duration><file id="file-3" /><enabled>TRUE</enabled><alphatype>none</alphatype><start>4820</start><end>6618</end><in>0</in><out>1798</out><link><linkclipref>clipitem-145</linkclipref><mediatype>video</mediatype><trackindex>1</trackindex><clipindex>4</clipindex></link><link><linkclipref>clipitem-146</linkclipref><mediatype>audio</mediatype><trackindex>1</trackindex><clipindex>4</clipindex></link><link><linkclipref>clipitem-147</linkclipref><mediatype>audio</mediatype><trackindex>2</trackindex><clipindex>4</clipindex></link></clipitem><clipitem id="clipitem-148"><masterclipid>masterclip-4</masterclipid><name>A001_06071229_C004</name><duration>2873</duration><file id="file-4" /><enabled>TRUE</enabled><alphatype>none</alphatype><start>13763</start><end>16636</end><in>0</in><out>2873</out><link><linkclipref>clipitem-148</linkclipref><mediatype>video</mediatype><trackindex>1</trackindex><clipindex>5</clipindex></link><link><linkclipref>clipitem-149</linkclipref><mediatype>audio</mediatype><trackindex>1</trackindex><clipindex>5</clipindex></link><link><linkclipref>clipitem-150</linkclipref><mediatype>audio</mediatype><trackindex>2</trackindex><clipindex>5</clipindex></link></clipitem><clipitem id="clipitem-151"><masterclipid>masterclip-5</masterclipid><name>A001_06071243_C005</name><duration>601</duration><file id="file-5" /><enabled>TRUE</enabled><alphatype>none</alphatype><start>35360</start><end>35961</end><in>0</in><out>601</out><link><linkclipref>clipitem-151</linkclipref><mediatype>video</mediatype><trackindex>1</trackindex><clipindex>6</clipindex></link><link><linkclipref>clipitem-152</linkclipref><mediatype>audio</mediatype><trackindex>1</trackindex><clipindex>6</clipindex></link><link><linkclipref>clipitem-153</linkclipref><mediatype>audio</mediatype><trackindex>2</trackindex><clipindex>6</clipindex></link></clipitem><clipitem id="clipitem-154"><masterclipid>masterclip-6</masterclipid><name>A001_06071244_C006</name><duration>4277</duration><file id="file-6" /><enabled>TRUE</enabled><alphatype>none</alphatype><start>36466</start><end>40743</end><in>0</in><out>4277</out><link><linkclipref>clipitem-154</linkclipref><mediatype>video</mediatype><trackindex>1</trackindex><clipindex>7</clipindex></link><link><linkclipref>clipitem-155</linkclipref><mediatype>audio</mediatype><trackindex>1</trackindex><clipindex>7</clipindex></link><link><linkclipref>clipitem-156</linkclipref><mediatype>audio</mediatype><trackindex>2</trackindex><clipindex>7</clipindex></link></clipitem><clipitem id="clipitem-157"><masterclipid>masterclip-7</masterclipid><name>A001_06071251_C007</name><duration>3237</duration><file id="file-7" /><enabled>TRUE</enabled><alphatype>none</alphatype><start>46339</start><end>49576</end><in>0</in><out>3237</out><link><linkclipref>clipitem-157</linkclipref><mediatype>video</mediatype><trackindex>1</trackindex><clipindex>8</clipindex></link><link><linkclipref>clipitem-158</linkclipref><mediatype>audio</mediatype><trackindex>1</trackindex><clipindex>8</clipindex></link><link><linkclipref>clipitem-159</linkclipref><mediatype>audio</mediatype><trackindex>2</trackindex><clipindex>8</clipindex></link></clipitem><clipitem id="clipitem-160"><masterclipid>masterclip-8</masterclipid><name>A001_06071317_C008</name><duration>2245</duration><file id="file-8" /><enabled>TRUE</enabled><alphatype>none</alphatype><start>85669</start><end>87914</end><in>0</in><out>2245</out><link><linkclipref>clipitem-160</linkclipref><mediatype>video</mediatype><trackindex>1</trackindex><clipindex>9</clipindex></link><link><linkclipref>clipitem-161</linkclipref><mediatype>audio</mediatype><trackindex>1</trackindex><clipindex>9</clipindex></link><link><linkclipref>clipitem-162</linkclipref><mediatype>audio</mediatype><trackindex>2</trackindex><clipindex>9</clipindex></link></clipitem><clipitem id="clipitem-163"><masterclipid>masterclip-9</masterclipid><name>A001_06071319_C009</name><duration>1756</duration><file id="file-9" /><enabled>TRUE</enabled><alphatype>none</alphatype><start>88897</start><end>90653</end><in>0</in><out>1756</out><link><linkclipref>clipitem-163</linkclipref><mediatype>video</mediatype><trackindex>1</trackindex><clipindex>10</clipindex></link><link><linkclipref>clipitem-164</linkclipref><mediatype>audio</mediatype><trackindex>1</trackindex><clipindex>10</clipindex></link><link><linkclipref>clipitem-165</linkclipref><mediatype>audio</mediatype><trackindex>2</trackindex><clipindex>10</clipindex></link></clipitem><clipitem id="clipitem-166"><masterclipid>masterclip-10</masterclipid><name>A001_06071325_C010</name><duration>4005</duration><file id="file-10" /><enabled>TRUE</enabled><alphatype>none</alphatype><start>98411</start><end>102416</end><in>0</in><out>4005</out><link><linkclipref>clipitem-166</linkclipref><mediatype>video</mediatype><trackindex>1</trackindex><clipindex>11</clipindex></link><link><linkclipref>clipitem-167</linkclipref><mediatype>audio</mediatype><trackindex>1</trackindex><clipindex>11</clipindex></link><link><linkclipref>clipitem-168</linkclipref><mediatype>audio</mediatype><trackindex>2</trackindex><clipindex>11</clipindex></link></clipitem><clipitem id="clipitem-169"><masterclipid>masterclip-11</masterclipid><name>A001_06071329_C011</name><duration>2863</duration><file id="file-11" /><enabled>TRUE</enabled><alphatype>none</alphatype><start>104503</start><end>107366</end><in>0</in><out>2863</out><link><linkclipref>clipitem-169</linkclipref><mediatype>video</mediatype><trackindex>1</trackindex><clipindex>12</clipindex></link><link><linkclipref>clipitem-170</linkclipref><mediatype>audio</mediatype><trackindex>1</trackindex><clipindex>12</clipindex></link><link><linkclipref>clipitem-171</linkclipref><mediatype>audio</mediatype><trackindex>2</trackindex><clipindex>12</clipindex></link></clipitem><clipitem id="clipitem-172"><masterclipid>masterclip-12</masterclipid><name>A001_06071332_C012</name><duration>1671</duration><file id="file-12" /><enabled>TRUE</enabled><alphatype>none</alphatype><start>108374</start><end>110045</end><in>0</in><out>1671</out><link><linkclipref>clipitem-172</linkclipref><mediatype>video</mediatype><trackindex>1</trackindex><clipindex>13</clipindex></link><link><linkclipref>clipitem-173</linkclipref><mediatype>audio</mediatype><trackindex>1</trackindex><clipindex>13</clipindex></link><link><linkclipref>clipitem-174</linkclipref><mediatype>audio</mediatype><trackindex>2</trackindex><clipindex>13</clipindex></link></clipitem><clipitem id="clipitem-175"><masterclipid>masterclip-13</masterclipid><name>A001_06071335_C013</name><duration>430</duration><file id="file-13" /><enabled>TRUE</enabled><alphatype>none</alphatype><start>112486</start><end>112916</end><in>0</in><out>430</out><link><linkclipref>clipitem-175</linkclipref><mediatype>video</mediatype><trackindex>1</trackindex><clipindex>14</clipindex></link><link><linkclipref>clipitem-176</linkclipref><mediatype>audio</mediatype><trackindex>1</trackindex><clipindex>14</clipindex></link><link><linkclipref>clipitem-177</linkclipref><mediatype>audio</mediatype><trackindex>2</trackindex><clipindex>14</clipindex></link></clipitem><clipitem id="clipitem-178"><masterclipid>masterclip-14</masterclipid><name>A001_06071336_C014</name><duration>2885</duration><file id="file-14" /><enabled>TRUE</enabled><alphatype>none</alphatype><start>114591</start><end>117476</end><in>0</in><out>2885</out><link><linkclipref>clipitem-178</linkclipref><mediatype>video</mediatype><trackindex>1</trackindex><clipindex>15</clipindex></link><link><linkclipref>clipitem-179</linkclipref><mediatype>audio</mediatype><trackindex>1</trackindex><clipindex>15</clipindex></link><link><linkclipref>clipitem-180</linkclipref><mediatype>audio</mediatype><trackindex>2</trackindex><clipindex>15</clipindex></link></clipitem><clipitem id="clipitem-181"><masterclipid>masterclip-15</masterclipid><name>A001_06071707_C015</name><duration>1850</duration><file id="file-15" /><enabled>TRUE</enabled><alphatype>none</alphatype><start>431530</start><end>433380</end><in>0</in><out>1850</out><link><linkclipref>clipitem-181</linkclipref><mediatype>video</mediatype><trackindex>1</trackindex><clipindex>16</clipindex></link><link><linkclipref>clipitem-182</linkclipref><mediatype>audio</mediatype><trackindex>1</trackindex><clipindex>16</clipindex></link><link><linkclipref>clipitem-183</linkclipref><mediatype>audio</mediatype><trackindex>2</trackindex><clipindex>16</clipindex></link></clipitem><clipitem id="clipitem-184"><masterclipid>masterclip-16</masterclipid><name>A001_06071717_C016</name><duration>2311</duration><file id="file-16" /><enabled>TRUE</enabled><alphatype>none</alphatype><start>446445</start><end>448756</end><in>0</in><out>2311</out><link><linkclipref>clipitem-184</linkclipref><mediatype>video</mediatype><trackindex>1</trackindex><clipindex>17</clipindex></link><link><linkclipref>clipitem-185</linkclipref><mediatype>audio</mediatype><trackindex>1</trackindex><clipindex>17</clipindex></link><link><linkclipref>clipitem-186</linkclipref><mediatype>audio</mediatype><trackindex>2</trackindex><clipindex>17</clipindex></link></clipitem><clipitem id="clipitem-187"><masterclipid>masterclip-17</masterclipid><name>A001_06071722_C017</name><duration>2008</duration><file id="file-17" /><enabled>TRUE</enabled><alphatype>none</alphatype><start>453215</start><end>455223</end><in>0</in><out>2008</out><link><linkclipref>clipitem-187</linkclipref><mediatype>video</mediatype><trackindex>1</trackindex><clipindex>18</clipindex></link><link><linkclipref>clipitem-188</linkclipref><mediatype>audio</mediatype><trackindex>1</trackindex><clipindex>18</clipindex></link><link><linkclipref>clipitem-189</linkclipref><mediatype>audio</mediatype><trackindex>2</trackindex><clipindex>18</clipindex></link></clipitem><clipitem id="clipitem-190"><masterclipid>masterclip-18</masterclipid><name>A001_06071726_C018</name><duration>2300</duration><file id="file-18" /><enabled>TRUE</enabled><alphatype>none</alphatype><start>459751</start><end>462051</end><in>0</in><out>2300</out><link><linkclipref>clipitem-190</linkclipref><mediatype>video</mediatype><trackindex>1</trackindex><clipindex>19</clipindex></link><link><linkclipref>clipitem-191</linkclipref><mediatype>audio</mediatype><trackindex>1</trackindex><clipindex>19</clipindex></link><link><linkclipref>clipitem-192</linkclipref><mediatype>audio</mediatype><trackindex>2</trackindex><clipindex>19</clipindex></link></clipitem><clipitem id="clipitem-193"><masterclipid>masterclip-19</masterclipid><name>A001_06071737_C019</name><duration>1554</duration><file id="file-19" /><enabled>TRUE</enabled><alphatype>none</alphatype><start>475516</start><end>477070</end><in>0</in><out>1554</out><link><linkclipref>clipitem-193</linkclipref><mediatype>video</mediatype><trackindex>1</trackindex><clipindex>20</clipindex></link><link><linkclipref>clipitem-194</linkclipref><mediatype>audio</mediatype><trackindex>1</trackindex><clipindex>20</clipindex></link><link><linkclipref>clipitem-195</linkclipref><mediatype>audio</mediatype><trackindex>2</trackindex><clipindex>20</clipindex></link></clipitem><clipitem id="clipitem-196"><masterclipid>masterclip-20</masterclipid><name>A001_06071740_C020</name><duration>1102</duration><file id="file-20" /><enabled>TRUE</enabled><alphatype>none</alphatype><start>480248</start><end>481350</end><in>0</in><out>1102</out><link><linkclipref>clipitem-196</linkclipref><mediatype>video</mediatype><trackindex>1</trackindex><clipindex>21</clipindex></link><link><linkclipref>clipitem-197</linkclipref><mediatype>audio</mediatype><trackindex>1</trackindex><clipindex>21</clipindex></link><link><linkclipref>clipitem-198</linkclipref><mediatype>audio</mediatype><trackindex>2</trackindex><clipindex>21</clipindex></link></clipitem><clipitem id="clipitem-199"><masterclipid>masterclip-21</masterclipid><name>A001_06071743_C021</name><duration>1476</duration><file id="file-21" /><enabled>TRUE</enabled><alphatype>none</alphatype><start>484207</start><end>485683</end><in>0</in><out>1476</out><link><linkclipref>clipitem-199</linkclipref><mediatype>video</mediatype><trackindex>1</trackindex><clipindex>22</clipindex></link><link><linkclipref>clipitem-200</linkclipref><mediatype>audio</mediatype><trackindex>1</trackindex><clipindex>22</clipindex></link><link><linkclipref>clipitem-201</linkclipref><mediatype>audio</mediatype><trackindex>2</trackindex><clipindex>22</clipindex></link></clipitem><clipitem id="clipitem-202"><masterclipid>masterclip-22</masterclipid><name>A001_06071748_C022</name><duration>1541</duration><file id="file-22" /><enabled>TRUE</enabled><alphatype>none</alphatype><start>492520</start><end>494061</end><in>0</in><out>1541</out><link><linkclipref>clipitem-202</linkclipref><mediatype>video</mediatype><trackindex>1</trackindex><clipindex>23</clipindex></link><link><linkclipref>clipitem-203</linkclipref><mediatype>audio</mediatype><trackindex>1</trackindex><clipindex>23</clipindex></link><link><linkclipref>clipitem-204</linkclipref><mediatype>audio</mediatype><trackindex>2</trackindex><clipindex>23</clipindex></link></clipitem><clipitem id="clipitem-205"><masterclipid>masterclip-23</masterclipid><name>A001_06071750_C023</name><duration>3693</duration><file id="file-23" /><enabled>TRUE</enabled><alphatype>none</alphatype><start>495925</start><end>499618</end><in>0</in><out>3693</out><link><linkclipref>clipitem-205</linkclipref><mediatype>video</mediatype><trackindex>1</trackindex><clipindex>24</clipindex></link><link><linkclipref>clipitem-206</linkclipref><mediatype>audio</mediatype><trackindex>1</trackindex><clipindex>24</clipindex></link><link><linkclipref>clipitem-207</linkclipref><mediatype>audio</mediatype><trackindex>2</trackindex><clipindex>24</clipindex></link></clipitem><clipitem id="clipitem-208"><masterclipid>masterclip-24</masterclipid><name>A001_06071754_C024</name><duration>1719</duration><file id="file-24" /><enabled>TRUE</enabled><alphatype>none</alphatype><start>501320</start><end>503039</end><in>0</in><out>1719</out><link><linkclipref>clipitem-208</linkclipref><mediatype>video</mediatype><trackindex>1</trackindex><clipindex>25</clipindex></link><link><linkclipref>clipitem-209</linkclipref><mediatype>audio</mediatype><trackindex>1</trackindex><clipindex>25</clipindex></link><link><linkclipref>clipitem-210</linkclipref><mediatype>audio</mediatype><trackindex>2</trackindex><clipindex>25</clipindex></link></clipitem><clipitem id="clipitem-211"><masterclipid>masterclip-25</masterclipid><name>A001_06071759_C025</name><duration>1574</duration><file id="file-25" /><enabled>TRUE</enabled><alphatype>none</alphatype><start>508223</start><end>509797</end><in>0</in><out>1574</out><link><linkclipref>clipitem-211</linkclipref><mediatype>video</mediatype><trackindex>1</trackindex><clipindex>26</clipindex></link><link><linkclipref>clipitem-212</linkclipref><mediatype>audio</mediatype><trackindex>1</trackindex><clipindex>26</clipindex></link><link><linkclipref>clipitem-213</linkclipref><mediatype>audio</mediatype><trackindex>2</trackindex><clipindex>26</clipindex></link></clipitem><clipitem id="clipitem-214"><masterclipid>masterclip-26</masterclipid><name>A001_06071810_C026</name><duration>14100</duration><file id="file-26" /><enabled>TRUE</enabled><alphatype>none</alphatype><start>525709</start><end>539809</end><in>0</in><out>14100</out><link><linkclipref>clipitem-214</linkclipref><mediatype>video</mediatype><trackindex>1</trackindex><clipindex>27</clipindex></link><link><linkclipref>clipitem-215</linkclipref><mediatype>audio</mediatype><trackindex>1</trackindex><clipindex>27</clipindex></link><link><linkclipref>clipitem-216</linkclipref><mediatype>audio</mediatype><trackindex>2</trackindex><clipindex>27</clipindex></link></clipitem></track></video><audio><track MZ.TrackTargeted="1" PannerCurrentValue="0.5" PannerName="Balance" PannerStartKeyframe="-91445760000000000,0.5,0,0,0,0,0,0" TL.SQTrackAudioKeyframeStyle="0" TL.SQTrackExpanded="0" TL.SQTrackExpandedHeight="25" TL.SQTrackShy="0" currentExplodedTrackIndex="0" premiereTrackType="Stereo" totalExplodedTrackCount="1"><clipitem id="clipitem-140"><masterclipid>masterclip-1</masterclipid><name>A001_06071220_C001</name><duration>923</duration><file id="file-1" /><enabled>TRUE</enabled><start>0</start><end>923</end><in>0</in><out>923</out><sourcetrack><mediatype>audio</mediatype><trackindex>1</trackindex></sourcetrack><link><linkclipref>clipitem-139</linkclipref><mediatype>video</mediatype><trackindex>1</trackindex><clipindex>2</clipindex></link><link><linkclipref>clipitem-140</linkclipref><mediatype>audio</mediatype><trackindex>1</trackindex><clipindex>2</clipindex></link><link><linkclipref>clipitem-141</linkclipref><mediatype>audio</mediatype><trackindex>2</trackindex><clipindex>2</clipindex></link></clipitem><clipitem id="clipitem-143"><masterclipid>masterclip-2</masterclipid><name>A001_06071221_C002</name><duration>918</duration><file id="file-2" /><enabled>TRUE</enabled><start>1926</start><end>2844</end><in>0</in><out>918</out><sourcetrack><mediatype>audio</mediatype><trackindex>1</trackindex></sourcetrack><link><linkclipref>clipitem-142</linkclipref><mediatype>video</mediatype><trackindex>1</trackindex><clipindex>3</clipindex></link><link><linkclipref>clipitem-143</linkclipref><mediatype>audio</mediatype><trackindex>1</trackindex><clipindex>3</clipindex></link><link><linkclipref>clipitem-144</linkclipref><mediatype>audio</mediatype><trackindex>2</trackindex><clipindex>3</clipindex></link></clipitem><clipitem id="clipitem-146"><masterclipid>masterclip-3</masterclipid><name>A001_06071223_C003</name><duration>1798</duration><file id="file-3" /><enabled>TRUE</enabled><start>4820</start><end>6618</end><in>0</in><out>1798</out><sourcetrack><mediatype>audio</mediatype><trackindex>1</trackindex></sourcetrack><link><linkclipref>clipitem-145</linkclipref><mediatype>video</mediatype><trackindex>1</trackindex><clipindex>4</clipindex></link><link><linkclipref>clipitem-146</linkclipref><mediatype>audio</mediatype><trackindex>1</trackindex><clipindex>4</clipindex></link><link><linkclipref>clipitem-147</linkclipref><mediatype>audio</mediatype><trackindex>2</trackindex><clipindex>4</clipindex></link></clipitem><clipitem id="clipitem-149"><masterclipid>masterclip-4</masterclipid><name>A001_06071229_C004</name><duration>2873</duration><file id="file-4" /><enabled>TRUE</enabled><start>13763</start><end>16636</end><in>0</in><out>2873</out><sourcetrack><mediatype>audio</mediatype><trackindex>1</trackindex></sourcetrack><link><linkclipref>clipitem-148</linkclipref><mediatype>video</mediatype><trackindex>1</trackindex><clipindex>5</clipindex></link><link><linkclipref>clipitem-149</linkclipref><mediatype>audio</mediatype><trackindex>1</trackindex><clipindex>5</clipindex></link><link><linkclipref>clipitem-150</linkclipref><mediatype>audio</mediatype><trackindex>2</trackindex><clipindex>5</clipindex></link></clipitem><clipitem id="clipitem-152"><masterclipid>masterclip-5</masterclipid><name>A001_06071243_C005</name><duration>601</duration><file id="file-5" /><enabled>TRUE</enabled><start>35360</start><end>35961</end><in>0</in><out>601</out><sourcetrack><mediatype>audio</mediatype><trackindex>1</trackindex></sourcetrack><link><linkclipref>clipitem-151</linkclipref><mediatype>video</mediatype><trackindex>1</trackindex><clipindex>6</clipindex></link><link><linkclipref>clipitem-152</linkclipref><mediatype>audio</mediatype><trackindex>1</trackindex><clipindex>6</clipindex></link><link><linkclipref>clipitem-153</linkclipref><mediatype>audio</mediatype><trackindex>2</trackindex><clipindex>6</clipindex></link></clipitem><clipitem id="clipitem-155"><masterclipid>masterclip-6</masterclipid><name>A001_06071244_C006</name><duration>4277</duration><file id="file-6" /><enabled>TRUE</enabled><start>36466</start><end>40743</end><in>0</in><out>4277</out><sourcetrack><mediatype>audio</mediatype><trackindex>1</trackindex></sourcetrack><link><linkclipref>clipitem-154</linkclipref><mediatype>video</mediatype><trackindex>1</trackindex><clipindex>7</clipindex></link><link><linkclipref>clipitem-155</linkclipref><mediatype>audio</mediatype><trackindex>1</trackindex><clipindex>7</clipindex></link><link><linkclipref>clipitem-156</linkclipref><mediatype>audio</mediatype><trackindex>2</trackindex><clipindex>7</clipindex></link></clipitem><clipitem id="clipitem-158"><masterclipid>masterclip-7</masterclipid><name>A001_06071251_C007</name><duration>3237</duration><file id="file-7" /><enabled>TRUE</enabled><start>46339</start><end>49576</end><in>0</in><out>3237</out><sourcetrack><mediatype>audio</mediatype><trackindex>1</trackindex></sourcetrack><link><linkclipref>clipitem-157</linkclipref><mediatype>video</mediatype><trackindex>1</trackindex><clipindex>8</clipindex></link><link><linkclipref>clipitem-158</linkclipref><mediatype>audio</mediatype><trackindex>1</trackindex><clipindex>8</clipindex></link><link><linkclipref>clipitem-159</linkclipref><mediatype>audio</mediatype><trackindex>2</trackindex><clipindex>8</clipindex></link></clipitem><clipitem id="clipitem-161"><masterclipid>masterclip-8</masterclipid><name>A001_06071317_C008</name><duration>2245</duration><file id="file-8" /><enabled>TRUE</enabled><start>85669</start><end>87914</end><in>0</in><out>2245</out><sourcetrack><mediatype>audio</mediatype><trackindex>1</trackindex></sourcetrack><link><linkclipref>clipitem-160</linkclipref><mediatype>video</mediatype><trackindex>1</trackindex><clipindex>9</clipindex></link><link><linkclipref>clipitem-161</linkclipref><mediatype>audio</mediatype><trackindex>1</trackindex><clipindex>9</clipindex></link><link><linkclipref>clipitem-162</linkclipref><mediatype>audio</mediatype><trackindex>2</trackindex><clipindex>9</clipindex></link></clipitem><clipitem id="clipitem-164"><masterclipid>masterclip-9</masterclipid><name>A001_06071319_C009</name><duration>1756</duration><file id="file-9" /><enabled>TRUE</enabled><start>88897</start><end>90653</end><in>0</in><out>1756</out><sourcetrack><mediatype>audio</mediatype><trackindex>1</trackindex></sourcetrack><link><linkclipref>clipitem-163</linkclipref><mediatype>video</mediatype><trackindex>1</trackindex><clipindex>10</clipindex></link><link><linkclipref>clipitem-164</linkclipref><mediatype>audio</mediatype><trackindex>1</trackindex><clipindex>10</clipindex></link><link><linkclipref>clipitem-165</linkclipref><mediatype>audio</mediatype><trackindex>2</trackindex><clipindex>10</clipindex></link></clipitem><clipitem id="clipitem-167"><masterclipid>masterclip-10</masterclipid><name>A001_06071325_C010</name><duration>4005</duration><file id="file-10" /><enabled>TRUE</enabled><start>98411</start><end>102416</end><in>0</in><out>4005</out><sourcetrack><mediatype>audio</mediatype><trackindex>1</trackindex></sourcetrack><link><linkclipref>clipitem-166</linkclipref><mediatype>video</mediatype><trackindex>1</trackindex><clipindex>11</clipindex></link><link><linkclipref>clipitem-167</linkclipref><mediatype>audio</mediatype><trackindex>1</trackindex><clipindex>11</clipindex></link><link><linkclipref>clipitem-168</linkclipref><mediatype>audio</mediatype><trackindex>2</trackindex><clipindex>11</clipindex></link></clipitem><clipitem id="clipitem-170"><masterclipid>masterclip-11</masterclipid><name>A001_06071329_C011</name><duration>2863</duration><file id="file-11" /><enabled>TRUE</enabled><start>104503</start><end>107366</end><in>0</in><out>2863</out><sourcetrack><mediatype>audio</mediatype><trackindex>1</trackindex></sourcetrack><link><linkclipref>clipitem-169</linkclipref><mediatype>video</mediatype><trackindex>1</trackindex><clipindex>12</clipindex></link><link><linkclipref>clipitem-170</linkclipref><mediatype>audio</mediatype><trackindex>1</trackindex><clipindex>12</clipindex></link><link><linkclipref>clipitem-171</linkclipref><mediatype>audio</mediatype><trackindex>2</trackindex><clipindex>12</clipindex></link></clipitem><clipitem id="clipitem-173"><masterclipid>masterclip-12</masterclipid><name>A001_06071332_C012</name><duration>1671</duration><file id="file-12" /><enabled>TRUE</enabled><start>108374</start><end>110045</end><in>0</in><out>1671</out><sourcetrack><mediatype>audio</mediatype><trackindex>1</trackindex></sourcetrack><link><linkclipref>clipitem-172</linkclipref><mediatype>video</mediatype><trackindex>1</trackindex><clipindex>13</clipindex></link><link><linkclipref>clipitem-173</linkclipref><mediatype>audio</mediatype><trackindex>1</trackindex><clipindex>13</clipindex></link><link><linkclipref>clipitem-174</linkclipref><mediatype>audio</mediatype><trackindex>2</trackindex><clipindex>13</clipindex></link></clipitem><clipitem id="clipitem-176"><masterclipid>masterclip-13</masterclipid><name>A001_06071335_C013</name><duration>430</duration><file id="file-13" /><enabled>TRUE</enabled><start>112486</start><end>112916</end><in>0</in><out>430</out><sourcetrack><mediatype>audio</mediatype><trackindex>1</trackindex></sourcetrack><link><linkclipref>clipitem-175</linkclipref><mediatype>video</mediatype><trackindex>1</trackindex><clipindex>14</clipindex></link><link><linkclipref>clipitem-176</linkclipref><mediatype>audio</mediatype><trackindex>1</trackindex><clipindex>14</clipindex></link><link><linkclipref>clipitem-177</linkclipref><mediatype>audio</mediatype><trackindex>2</trackindex><clipindex>14</clipindex></link></clipitem><clipitem id="clipitem-179"><masterclipid>masterclip-14</masterclipid><name>A001_06071336_C014</name><duration>2885</duration><file id="file-14" /><enabled>TRUE</enabled><start>114591</start><end>117476</end><in>0</in><out>2885</out><sourcetrack><mediatype>audio</mediatype><trackindex>1</trackindex></sourcetrack><link><linkclipref>clipitem-178</linkclipref><mediatype>video</mediatype><trackindex>1</trackindex><clipindex>15</clipindex></link><link><linkclipref>clipitem-179</linkclipref><mediatype>audio</mediatype><trackindex>1</trackindex><clipindex>15</clipindex></link><link><linkclipref>clipitem-180</linkclipref><mediatype>audio</mediatype><trackindex>2</trackindex><clipindex>15</clipindex></link></clipitem><clipitem id="clipitem-182"><masterclipid>masterclip-15</masterclipid><name>A001_06071707_C015</name><duration>1850</duration><file id="file-15" /><enabled>TRUE</enabled><start>431530</start><end>433380</end><in>0</in><out>1850</out><sourcetrack><mediatype>audio</mediatype><trackindex>1</trackindex></sourcetrack><link><linkclipref>clipitem-181</linkclipref><mediatype>video</mediatype><trackindex>1</trackindex><clipindex>16</clipindex></link><link><linkclipref>clipitem-182</linkclipref><mediatype>audio</mediatype><trackindex>1</trackindex><clipindex>16</clipindex></link><link><linkclipref>clipitem-183</linkclipref><mediatype>audio</mediatype><trackindex>2</trackindex><clipindex>16</clipindex></link></clipitem><clipitem id="clipitem-185"><masterclipid>masterclip-16</masterclipid><name>A001_06071717_C016</name><duration>2311</duration><file id="file-16" /><enabled>TRUE</enabled><start>446445</start><end>448756</end><in>0</in><out>2311</out><sourcetrack><mediatype>audio</mediatype><trackindex>1</trackindex></sourcetrack><link><linkclipref>clipitem-184</linkclipref><mediatype>video</mediatype><trackindex>1</trackindex><clipindex>17</clipindex></link><link><linkclipref>clipitem-185</linkclipref><mediatype>audio</mediatype><trackindex>1</trackindex><clipindex>17</clipindex></link><link><linkclipref>clipitem-186</linkclipref><mediatype>audio</mediatype><trackindex>2</trackindex><clipindex>17</clipindex></link></clipitem><clipitem id="clipitem-188"><masterclipid>masterclip-17</masterclipid><name>A001_06071722_C017</name><duration>2008</duration><file id="file-17" /><enabled>TRUE</enabled><start>453215</start><end>455223</end><in>0</in><out>2008</out><sourcetrack><mediatype>audio</mediatype><trackindex>1</trackindex></sourcetrack><link><linkclipref>clipitem-187</linkclipref><mediatype>video</mediatype><trackindex>1</trackindex><clipindex>18</clipindex></link><link><linkclipref>clipitem-188</linkclipref><mediatype>audio</mediatype><trackindex>1</trackindex><clipindex>18</clipindex></link><link><linkclipref>clipitem-189</linkclipref><mediatype>audio</mediatype><trackindex>2</trackindex><clipindex>18</clipindex></link></clipitem><clipitem id="clipitem-191"><masterclipid>masterclip-18</masterclipid><name>A001_06071726_C018</name><duration>2300</duration><file id="file-18" /><enabled>TRUE</enabled><start>459751</start><end>462051</end><in>0</in><out>2300</out><sourcetrack><mediatype>audio</mediatype><trackindex>1</trackindex></sourcetrack><link><linkclipref>clipitem-190</linkclipref><mediatype>video</mediatype><trackindex>1</trackindex><clipindex>19</clipindex></link><link><linkclipref>clipitem-191</linkclipref><mediatype>audio</mediatype><trackindex>1</trackindex><clipindex>19</clipindex></link><link><linkclipref>clipitem-192</linkclipref><mediatype>audio</mediatype><trackindex>2</trackindex><clipindex>19</clipindex></link></clipitem><clipitem id="clipitem-194"><masterclipid>masterclip-19</masterclipid><name>A001_06071737_C019</name><duration>1554</duration><file id="file-19" /><enabled>TRUE</enabled><start>475516</start><end>477070</end><in>0</in><out>1554</out><sourcetrack><mediatype>audio</mediatype><trackindex>1</trackindex></sourcetrack><link><linkclipref>clipitem-193</linkclipref><mediatype>video</mediatype><trackindex>1</trackindex><clipindex>20</clipindex></link><link><linkclipref>clipitem-194</linkclipref><mediatype>audio</mediatype><trackindex>1</trackindex><clipindex>20</clipindex></link><link><linkclipref>clipitem-195</linkclipref><mediatype>audio</mediatype><trackindex>2</trackindex><clipindex>20</clipindex></link></clipitem><clipitem id="clipitem-197"><masterclipid>masterclip-20</masterclipid><name>A001_06071740_C020</name><duration>1102</duration><file id="file-20" /><enabled>TRUE</enabled><start>480248</start><end>481350</end><in>0</in><out>1102</out><sourcetrack><mediatype>audio</mediatype><trackindex>1</trackindex></sourcetrack><link><linkclipref>clipitem-196</linkclipref><mediatype>video</mediatype><trackindex>1</trackindex><clipindex>21</clipindex></link><link><linkclipref>clipitem-197</linkclipref><mediatype>audio</mediatype><trackindex>1</trackindex><clipindex>21</clipindex></link><link><linkclipref>clipitem-198</linkclipref><mediatype>audio</mediatype><trackindex>2</trackindex><clipindex>21</clipindex></link></clipitem><clipitem id="clipitem-200"><masterclipid>masterclip-21</masterclipid><name>A001_06071743_C021</name><duration>1476</duration><file id="file-21" /><enabled>TRUE</enabled><start>484207</start><end>485683</end><in>0</in><out>1476</out><sourcetrack><mediatype>audio</mediatype><trackindex>1</trackindex></sourcetrack><link><linkclipref>clipitem-199</linkclipref><mediatype>video</mediatype><trackindex>1</trackindex><clipindex>22</clipindex></link><link><linkclipref>clipitem-200</linkclipref><mediatype>audio</mediatype><trackindex>1</trackindex><clipindex>22</clipindex></link><link><linkclipref>clipitem-201</linkclipref><mediatype>audio</mediatype><trackindex>2</trackindex><clipindex>22</clipindex></link></clipitem><clipitem id="clipitem-203"><masterclipid>masterclip-22</masterclipid><name>A001_06071748_C022</name><duration>1541</duration><file id="file-22" /><enabled>TRUE</enabled><start>492520</start><end>494061</end><in>0</in><out>1541</out><sourcetrack><mediatype>audio</mediatype><trackindex>1</trackindex></sourcetrack><link><linkclipref>clipitem-202</linkclipref><mediatype>video</mediatype><trackindex>1</trackindex><clipindex>23</clipindex></link><link><linkclipref>clipitem-203</linkclipref><mediatype>audio</mediatype><trackindex>1</trackindex><clipindex>23</clipindex></link><link><linkclipref>clipitem-204</linkclipref><mediatype>audio</mediatype><trackindex>2</trackindex><clipindex>23</clipindex></link></clipitem><clipitem id="clipitem-206"><masterclipid>masterclip-23</masterclipid><name>A001_06071750_C023</name><duration>3693</duration><file id="file-23" /><enabled>TRUE</enabled><start>495925</start><end>499618</end><in>0</in><out>3693</out><sourcetrack><mediatype>audio</mediatype><trackindex>1</trackindex></sourcetrack><link><linkclipref>clipitem-205</linkclipref><mediatype>video</mediatype><trackindex>1</trackindex><clipindex>24</clipindex></link><link><linkclipref>clipitem-206</linkclipref><mediatype>audio</mediatype><trackindex>1</trackindex><clipindex>24</clipindex></link><link><linkclipref>clipitem-207</linkclipref><mediatype>audio</mediatype><trackindex>2</trackindex><clipindex>24</clipindex></link></clipitem><clipitem id="clipitem-209"><masterclipid>masterclip-24</masterclipid><name>A001_06071754_C024</name><duration>1719</duration><file id="file-24" /><enabled>TRUE</enabled><start>501320</start><end>503039</end><in>0</in><out>1719</out><sourcetrack><mediatype>audio</mediatype><trackindex>1</trackindex></sourcetrack><link><linkclipref>clipitem-208</linkclipref><mediatype>video</mediatype><trackindex>1</trackindex><clipindex>25</clipindex></link><link><linkclipref>clipitem-209</linkclipref><mediatype>audio</mediatype><trackindex>1</trackindex><clipindex>25</clipindex></link><link><linkclipref>clipitem-210</linkclipref><mediatype>audio</mediatype><trackindex>2</trackindex><clipindex>25</clipindex></link></clipitem><clipitem id="clipitem-212"><masterclipid>masterclip-25</masterclipid><name>A001_06071759_C025</name><duration>1574</duration><file id="file-25" /><enabled>TRUE</enabled><start>508223</start><end>509797</end><in>0</in><out>1574</out><sourcetrack><mediatype>audio</mediatype><trackindex>1</trackindex></sourcetrack><link><linkclipref>clipitem-211</linkclipref><mediatype>video</mediatype><trackindex>1</trackindex><clipindex>26</clipindex></link><link><linkclipref>clipitem-212</linkclipref><mediatype>audio</mediatype><trackindex>1</trackindex><clipindex>26</clipindex></link><link><linkclipref>clipitem-213</linkclipref><mediatype>audio</mediatype><trackindex>2</trackindex><clipindex>26</clipindex></link></clipitem><clipitem id="clipitem-215"><masterclipid>masterclip-26</masterclipid><name>A001_06071810_C026</name><duration>14100</duration><file id="file-26" /><enabled>TRUE</enabled><start>525709</start><end>539809</end><in>0</in><out>14100</out><sourcetrack><mediatype>audio</mediatype><trackindex>1</trackindex></sourcetrack><link><linkclipref>clipitem-214</linkclipref><mediatype>video</mediatype><trackindex>1</trackindex><clipindex>27</clipindex></link><link><linkclipref>clipitem-215</linkclipref><mediatype>audio</mediatype><trackindex>1</trackindex><clipindex>27</clipindex></link><link><linkclipref>clipitem-216</linkclipref><mediatype>audio</mediatype><trackindex>2</trackindex><clipindex>27</clipindex></link></clipitem></track><track MZ.TrackTargeted="1" PannerCurrentValue="0.5" PannerName="Balance" PannerStartKeyframe="-91445760000000000,0.5,0,0,0,0,0,0" TL.SQTrackAudioKeyframeStyle="0" TL.SQTrackExpanded="0" TL.SQTrackExpandedHeight="25" TL.SQTrackShy="0" currentExplodedTrackIndex="0" premiereTrackType="Stereo" totalExplodedTrackCount="1"><clipitem id="clipitem-141"><masterclipid>masterclip-1</masterclipid><name>A001_06071220_C001</name><duration>923</duration><file id="file-1" /><enabled>TRUE</enabled><start>0</start><end>923</end><in>0</in><out>923</out><sourcetrack><mediatype>audio</mediatype><trackindex>2</trackindex></sourcetrack><link><linkclipref>clipitem-139</linkclipref><mediatype>video</mediatype><trackindex>1</trackindex><clipindex>2</clipindex></link><link><linkclipref>clipitem-140</linkclipref><mediatype>audio</mediatype><trackindex>1</trackindex><clipindex>2</clipindex></link><link><linkclipref>clipitem-141</linkclipref><mediatype>audio</mediatype><trackindex>2</trackindex><clipindex>2</clipindex></link></clipitem><clipitem id="clipitem-144"><masterclipid>masterclip-2</masterclipid><name>A001_06071221_C002</name><duration>918</duration><file id="file-2" /><enabled>TRUE</enabled><start>1926</start><end>2844</end><in>0</in><out>918</out><sourcetrack><mediatype>audio</mediatype><trackindex>2</trackindex></sourcetrack><link><linkclipref>clipitem-142</linkclipref><mediatype>video</mediatype><trackindex>1</trackindex><clipindex>3</clipindex></link><link><linkclipref>clipitem-143</linkclipref><mediatype>audio</mediatype><trackindex>1</trackindex><clipindex>3</clipindex></link><link><linkclipref>clipitem-144</linkclipref><mediatype>audio</mediatype><trackindex>2</trackindex><clipindex>3</clipindex></link></clipitem><clipitem id="clipitem-147"><masterclipid>masterclip-3</masterclipid><name>A001_06071223_C003</name><duration>1798</duration><file id="file-3" /><enabled>TRUE</enabled><start>4820</start><end>6618</end><in>0</in><out>1798</out><sourcetrack><mediatype>audio</mediatype><trackindex>2</trackindex></sourcetrack><link><linkclipref>clipitem-145</linkclipref><mediatype>video</mediatype><trackindex>1</trackindex><clipindex>4</clipindex></link><link><linkclipref>clipitem-146</linkclipref><mediatype>audio</mediatype><trackindex>1</trackindex><clipindex>4</clipindex></link><link><linkclipref>clipitem-147</linkclipref><mediatype>audio</mediatype><trackindex>2</trackindex><clipindex>4</clipindex></link></clipitem><clipitem id="clipitem-150"><masterclipid>masterclip-4</masterclipid><name>A001_06071229_C004</name><duration>2873</duration><file id="file-4" /><enabled>TRUE</enabled><start>13763</start><end>16636</end><in>0</in><out>2873</out><sourcetrack><mediatype>audio</mediatype><trackindex>2</trackindex></sourcetrack><link><linkclipref>clipitem-148</linkclipref><mediatype>video</mediatype><trackindex>1</trackindex><clipindex>5</clipindex></link><link><linkclipref>clipitem-149</linkclipref><mediatype>audio</mediatype><trackindex>1</trackindex><clipindex>5</clipindex></link><link><linkclipref>clipitem-150</linkclipref><mediatype>audio</mediatype><trackindex>2</trackindex><clipindex>5</clipindex></link></clipitem><clipitem id="clipitem-153"><masterclipid>masterclip-5</masterclipid><name>A001_06071243_C005</name><duration>601</duration><file id="file-5" /><enabled>TRUE</enabled><start>35360</start><end>35961</end><in>0</in><out>601</out><sourcetrack><mediatype>audio</mediatype><trackindex>2</trackindex></sourcetrack><link><linkclipref>clipitem-151</linkclipref><mediatype>video</mediatype><trackindex>1</trackindex><clipindex>6</clipindex></link><link><linkclipref>clipitem-152</linkclipref><mediatype>audio</mediatype><trackindex>1</trackindex><clipindex>6</clipindex></link><link><linkclipref>clipitem-153</linkclipref><mediatype>audio</mediatype><trackindex>2</trackindex><clipindex>6</clipindex></link></clipitem><clipitem id="clipitem-156"><masterclipid>masterclip-6</masterclipid><name>A001_06071244_C006</name><duration>4277</duration><file id="file-6" /><enabled>TRUE</enabled><start>36466</start><end>40743</end><in>0</in><out>4277</out><sourcetrack><mediatype>audio</mediatype><trackindex>2</trackindex></sourcetrack><link><linkclipref>clipitem-154</linkclipref><mediatype>video</mediatype><trackindex>1</trackindex><clipindex>7</clipindex></link><link><linkclipref>clipitem-155</linkclipref><mediatype>audio</mediatype><trackindex>1</trackindex><clipindex>7</clipindex></link><link><linkclipref>clipitem-156</linkclipref><mediatype>audio</mediatype><trackindex>2</trackindex><clipindex>7</clipindex></link></clipitem><clipitem id="clipitem-159"><masterclipid>masterclip-7</masterclipid><name>A001_06071251_C007</name><duration>3237</duration><file id="file-7" /><enabled>TRUE</enabled><start>46339</start><end>49576</end><in>0</in><out>3237</out><sourcetrack><mediatype>audio</mediatype><trackindex>2</trackindex></sourcetrack><link><linkclipref>clipitem-157</linkclipref><mediatype>video</mediatype><trackindex>1</trackindex><clipindex>8</clipindex></link><link><linkclipref>clipitem-158</linkclipref><mediatype>audio</mediatype><trackindex>1</trackindex><clipindex>8</clipindex></link><link><linkclipref>clipitem-159</linkclipref><mediatype>audio</mediatype><trackindex>2</trackindex><clipindex>8</clipindex></link></clipitem><clipitem id="clipitem-162"><masterclipid>masterclip-8</masterclipid><name>A001_06071317_C008</name><duration>2245</duration><file id="file-8" /><enabled>TRUE</enabled><start>85669</start><end>87914</end><in>0</in><out>2245</out><sourcetrack><mediatype>audio</mediatype><trackindex>2</trackindex></sourcetrack><link><linkclipref>clipitem-160</linkclipref><mediatype>video</mediatype><trackindex>1</trackindex><clipindex>9</clipindex></link><link><linkclipref>clipitem-161</linkclipref><mediatype>audio</mediatype><trackindex>1</trackindex><clipindex>9</clipindex></link><link><linkclipref>clipitem-162</linkclipref><mediatype>audio</mediatype><trackindex>2</trackindex><clipindex>9</clipindex></link></clipitem><clipitem id="clipitem-165"><masterclipid>masterclip-9</masterclipid><name>A001_06071319_C009</name><duration>1756</duration><file id="file-9" /><enabled>TRUE</enabled><start>88897</start><end>90653</end><in>0</in><out>1756</out><sourcetrack><mediatype>audio</mediatype><trackindex>2</trackindex></sourcetrack><link><linkclipref>clipitem-163</linkclipref><mediatype>video</mediatype><trackindex>1</trackindex><clipindex>10</clipindex></link><link><linkclipref>clipitem-164</linkclipref><mediatype>audio</mediatype><trackindex>1</trackindex><clipindex>10</clipindex></link><link><linkclipref>clipitem-165</linkclipref><mediatype>audio</mediatype><trackindex>2</trackindex><clipindex>10</clipindex></link></clipitem><clipitem id="clipitem-168"><masterclipid>masterclip-10</masterclipid><name>A001_06071325_C010</name><duration>4005</duration><file id="file-10" /><enabled>TRUE</enabled><start>98411</start><end>102416</end><in>0</in><out>4005</out><sourcetrack><mediatype>audio</mediatype><trackindex>2</trackindex></sourcetrack><link><linkclipref>clipitem-166</linkclipref><mediatype>video</mediatype><trackindex>1</trackindex><clipindex>11</clipindex></link><link><linkclipref>clipitem-167</linkclipref><mediatype>audio</mediatype><trackindex>1</trackindex><clipindex>11</clipindex></link><link><linkclipref>clipitem-168</linkclipref><mediatype>audio</mediatype><trackindex>2</trackindex><clipindex>11</clipindex></link></clipitem><clipitem id="clipitem-171"><masterclipid>masterclip-11</masterclipid><name>A001_06071329_C011</name><duration>2863</duration><file id="file-11" /><enabled>TRUE</enabled><start>104503</start><end>107366</end><in>0</in><out>2863</out><sourcetrack><mediatype>audio</mediatype><trackindex>2</trackindex></sourcetrack><link><linkclipref>clipitem-169</linkclipref><mediatype>video</mediatype><trackindex>1</trackindex><clipindex>12</clipindex></link><link><linkclipref>clipitem-170</linkclipref><mediatype>audio</mediatype><trackindex>1</trackindex><clipindex>12</clipindex></link><link><linkclipref>clipitem-171</linkclipref><mediatype>audio</mediatype><trackindex>2</trackindex><clipindex>12</clipindex></link></clipitem><clipitem id="clipitem-174"><masterclipid>masterclip-12</masterclipid><name>A001_06071332_C012</name><duration>1671</duration><file id="file-12" /><enabled>TRUE</enabled><start>108374</start><end>110045</end><in>0</in><out>1671</out><sourcetrack><mediatype>audio</mediatype><trackindex>2</trackindex></sourcetrack><link><linkclipref>clipitem-172</linkclipref><mediatype>video</mediatype><trackindex>1</trackindex><clipindex>13</clipindex></link><link><linkclipref>clipitem-173</linkclipref><mediatype>audio</mediatype><trackindex>1</trackindex><clipindex>13</clipindex></link><link><linkclipref>clipitem-174</linkclipref><mediatype>audio</mediatype><trackindex>2</trackindex><clipindex>13</clipindex></link></clipitem><clipitem id="clipitem-177"><masterclipid>masterclip-13</masterclipid><name>A001_06071335_C013</name><duration>430</duration><file id="file-13" /><enabled>TRUE</enabled><start>112486</start><end>112916</end><in>0</in><out>430</out><sourcetrack><mediatype>audio</mediatype><trackindex>2</trackindex></sourcetrack><link><linkclipref>clipitem-175</linkclipref><mediatype>video</mediatype><trackindex>1</trackindex><clipindex>14</clipindex></link><link><linkclipref>clipitem-176</linkclipref><mediatype>audio</mediatype><trackindex>1</trackindex><clipindex>14</clipindex></link><link><linkclipref>clipitem-177</linkclipref><mediatype>audio</mediatype><trackindex>2</trackindex><clipindex>14</clipindex></link></clipitem><clipitem id="clipitem-180"><masterclipid>masterclip-14</masterclipid><name>A001_06071336_C014</name><duration>2885</duration><file id="file-14" /><enabled>TRUE</enabled><start>114591</start><end>117476</end><in>0</in><out>2885</out><sourcetrack><mediatype>audio</mediatype><trackindex>2</trackindex></sourcetrack><link><linkclipref>clipitem-178</linkclipref><mediatype>video</mediatype><trackindex>1</trackindex><clipindex>15</clipindex></link><link><linkclipref>clipitem-179</linkclipref><mediatype>audio</mediatype><trackindex>1</trackindex><clipindex>15</clipindex></link><link><linkclipref>clipitem-180</linkclipref><mediatype>audio</mediatype><trackindex>2</trackindex><clipindex>15</clipindex></link></clipitem><clipitem id="clipitem-183"><masterclipid>masterclip-15</masterclipid><name>A001_06071707_C015</name><duration>1850</duration><file id="file-15" /><enabled>TRUE</enabled><start>431530</start><end>433380</end><in>0</in><out>1850</out><sourcetrack><mediatype>audio</mediatype><trackindex>2</trackindex></sourcetrack><link><linkclipref>clipitem-181</linkclipref><mediatype>video</mediatype><trackindex>1</trackindex><clipindex>16</clipindex></link><link><linkclipref>clipitem-182</linkclipref><mediatype>audio</mediatype><trackindex>1</trackindex><clipindex>16</clipindex></link><link><linkclipref>clipitem-183</linkclipref><mediatype>audio</mediatype><trackindex>2</trackindex><clipindex>16</clipindex></link></clipitem><clipitem id="clipitem-186"><masterclipid>masterclip-16</masterclipid><name>A001_06071717_C016</name><duration>2311</duration><file id="file-16" /><enabled>TRUE</enabled><start>446445</start><end>448756</end><in>0</in><out>2311</out><sourcetrack><mediatype>audio</mediatype><trackindex>2</trackindex></sourcetrack><link><linkclipref>clipitem-184</linkclipref><mediatype>video</mediatype><trackindex>1</trackindex><clipindex>17</clipindex></link><link><linkclipref>clipitem-185</linkclipref><mediatype>audio</mediatype><trackindex>1</trackindex><clipindex>17</clipindex></link><link><linkclipref>clipitem-186</linkclipref><mediatype>audio</mediatype><trackindex>2</trackindex><clipindex>17</clipindex></link></clipitem><clipitem id="clipitem-189"><masterclipid>masterclip-17</masterclipid><name>A001_06071722_C017</name><duration>2008</duration><file id="file-17" /><enabled>TRUE</enabled><start>453215</start><end>455223</end><in>0</in><out>2008</out><sourcetrack><mediatype>audio</mediatype><trackindex>2</trackindex></sourcetrack><link><linkclipref>clipitem-187</linkclipref><mediatype>video</mediatype><trackindex>1</trackindex><clipindex>18</clipindex></link><link><linkclipref>clipitem-188</linkclipref><mediatype>audio</mediatype><trackindex>1</trackindex><clipindex>18</clipindex></link><link><linkclipref>clipitem-189</linkclipref><mediatype>audio</mediatype><trackindex>2</trackindex><clipindex>18</clipindex></link></clipitem><clipitem id="clipitem-192"><masterclipid>masterclip-18</masterclipid><name>A001_06071726_C018</name><duration>2300</duration><file id="file-18" /><enabled>TRUE</enabled><start>459751</start><end>462051</end><in>0</in><out>2300</out><sourcetrack><mediatype>audio</mediatype><trackindex>2</trackindex></sourcetrack><link><linkclipref>clipitem-190</linkclipref><mediatype>video</mediatype><trackindex>1</trackindex><clipindex>19</clipindex></link><link><linkclipref>clipitem-191</linkclipref><mediatype>audio</mediatype><trackindex>1</trackindex><clipindex>19</clipindex></link><link><linkclipref>clipitem-192</linkclipref><mediatype>audio</mediatype><trackindex>2</trackindex><clipindex>19</clipindex></link></clipitem><clipitem id="clipitem-195"><masterclipid>masterclip-19</masterclipid><name>A001_06071737_C019</name><duration>1554</duration><file id="file-19" /><enabled>TRUE</enabled><start>475516</start><end>477070</end><in>0</in><out>1554</out><sourcetrack><mediatype>audio</mediatype><trackindex>2</trackindex></sourcetrack><link><linkclipref>clipitem-193</linkclipref><mediatype>video</mediatype><trackindex>1</trackindex><clipindex>20</clipindex></link><link><linkclipref>clipitem-194</linkclipref><mediatype>audio</mediatype><trackindex>1</trackindex><clipindex>20</clipindex></link><link><linkclipref>clipitem-195</linkclipref><mediatype>audio</mediatype><trackindex>2</trackindex><clipindex>20</clipindex></link></clipitem><clipitem id="clipitem-198"><masterclipid>masterclip-20</masterclipid><name>A001_06071740_C020</name><duration>1102</duration><file id="file-20" /><enabled>TRUE</enabled><start>480248</start><end>481350</end><in>0</in><out>1102</out><sourcetrack><mediatype>audio</mediatype><trackindex>2</trackindex></sourcetrack><link><linkclipref>clipitem-196</linkclipref><mediatype>video</mediatype><trackindex>1</trackindex><clipindex>21</clipindex></link><link><linkclipref>clipitem-197</linkclipref><mediatype>audio</mediatype><trackindex>1</trackindex><clipindex>21</clipindex></link><link><linkclipref>clipitem-198</linkclipref><mediatype>audio</mediatype><trackindex>2</trackindex><clipindex>21</clipindex></link></clipitem><clipitem id="clipitem-201"><masterclipid>masterclip-21</masterclipid><name>A001_06071743_C021</name><duration>1476</duration><file id="file-21" /><enabled>TRUE</enabled><start>484207</start><end>485683</end><in>0</in><out>1476</out><sourcetrack><mediatype>audio</mediatype><trackindex>2</trackindex></sourcetrack><link><linkclipref>clipitem-199</linkclipref><mediatype>video</mediatype><trackindex>1</trackindex><clipindex>22</clipindex></link><link><linkclipref>clipitem-200</linkclipref><mediatype>audio</mediatype><trackindex>1</trackindex><clipindex>22</clipindex></link><link><linkclipref>clipitem-201</linkclipref><mediatype>audio</mediatype><trackindex>2</trackindex><clipindex>22</clipindex></link></clipitem><clipitem id="clipitem-204"><masterclipid>masterclip-22</masterclipid><name>A001_06071748_C022</name><duration>1541</duration><file id="file-22" /><enabled>TRUE</enabled><start>492520</start><end>494061</end><in>0</in><out>1541</out><sourcetrack><mediatype>audio</mediatype><trackindex>2</trackindex></sourcetrack><link><linkclipref>clipitem-202</linkclipref><mediatype>video</mediatype><trackindex>1</trackindex><clipindex>23</clipindex></link><link><linkclipref>clipitem-203</linkclipref><mediatype>audio</mediatype><trackindex>1</trackindex><clipindex>23</clipindex></link><link><linkclipref>clipitem-204</linkclipref><mediatype>audio</mediatype><trackindex>2</trackindex><clipindex>23</clipindex></link></clipitem><clipitem id="clipitem-207"><masterclipid>masterclip-23</masterclipid><name>A001_06071750_C023</name><duration>3693</duration><file id="file-23" /><enabled>TRUE</enabled><start>495925</start><end>499618</end><in>0</in><out>3693</out><sourcetrack><mediatype>audio</mediatype><trackindex>2</trackindex></sourcetrack><link><linkclipref>clipitem-205</linkclipref><mediatype>video</mediatype><trackindex>1</trackindex><clipindex>24</clipindex></link><link><linkclipref>clipitem-206</linkclipref><mediatype>audio</mediatype><trackindex>1</trackindex><clipindex>24</clipindex></link><link><linkclipref>clipitem-207</linkclipref><mediatype>audio</mediatype><trackindex>2</trackindex><clipindex>24</clipindex></link></clipitem><clipitem id="clipitem-210"><masterclipid>masterclip-24</masterclipid><name>A001_06071754_C024</name><duration>1719</duration><file id="file-24" /><enabled>TRUE</enabled><start>501320</start><end>503039</end><in>0</in><out>1719</out><sourcetrack><mediatype>audio</mediatype><trackindex>2</trackindex></sourcetrack><link><linkclipref>clipitem-208</linkclipref><mediatype>video</mediatype><trackindex>1</trackindex><clipindex>25</clipindex></link><link><linkclipref>clipitem-209</linkclipref><mediatype>audio</mediatype><trackindex>1</trackindex><clipindex>25</clipindex></link><link><linkclipref>clipitem-210</linkclipref><mediatype>audio</mediatype><trackindex>2</trackindex><clipindex>25</clipindex></link></clipitem><clipitem id="clipitem-213"><masterclipid>masterclip-25</masterclipid><name>A001_06071759_C025</name><duration>1574</duration><file id="file-25" /><enabled>TRUE</enabled><start>508223</start><end>509797</end><in>0</in><out>1574</out><sourcetrack><mediatype>audio</mediatype><trackindex>2</trackindex></sourcetrack><link><linkclipref>clipitem-211</linkclipref><mediatype>video</mediatype><trackindex>1</trackindex><clipindex>26</clipindex></link><link><linkclipref>clipitem-212</linkclipref><mediatype>audio</mediatype><trackindex>1</trackindex><clipindex>26</clipindex></link><link><linkclipref>clipitem-213</linkclipref><mediatype>audio</mediatype><trackindex>2</trackindex><clipindex>26</clipindex></link></clipitem><clipitem id="clipitem-216"><masterclipid>masterclip-26</masterclipid><name>A001_06071810_C026</name><duration>14100</duration><file id="file-26" /><enabled>TRUE</enabled><start>525709</start><end>539809</end><in>0</in><out>14100</out><sourcetrack><mediatype>audio</mediatype><trackindex>2</trackindex></sourcetrack><link><linkclipref>clipitem-214</linkclipref><mediatype>video</mediatype><trackindex>1</trackindex><clipindex>27</clipindex></link><link><linkclipref>clipitem-215</linkclipref><mediatype>audio</mediatype><trackindex>1</trackindex><clipindex>27</clipindex></link><link><linkclipref>clipitem-216</linkclipref><mediatype>audio</mediatype><trackindex>2</trackindex><clipindex>27</clipindex></link></clipitem></track></audio></media></sequence><sequence MZ.Sequence.AudioTimeDisplayFormat="200" MZ.Sequence.EditingModeGUID="d8484cf3-c96c-4622-ab1f-ac1a16e196f9" MZ.Sequence.PreviewFrameSizeHeight="1080" MZ.Sequence.PreviewFrameSizeWidth="1920" MZ.Sequence.PreviewRenderingClassID="1297106761" MZ.Sequence.PreviewRenderingPresetCodec="1297107278" MZ.Sequence.PreviewRenderingPresetPath="EncoderPresets\SequencePreview\d8484cf3-c96c-4622-ab1f-ac1a16e196f9\I-Frame Only MPEG.epr" MZ.Sequence.PreviewUseMaxBitDepth="false" MZ.Sequence.PreviewUseMaxRenderQuality="false" MZ.Sequence.VideoTimeDisplayFormat="101" explodedTracks="true" id="sequence-2"><name>AutoSeq_A</name><rate><timebase>25</timebase><ntsc>FALSE</ntsc></rate><duration>540050</duration><timecode><rate><timebase>25</timebase><ntsc>FALSE</ntsc></rate><frame>868675</frame><timecode>09:39:07:00</timecode><displayformat>NDF</displayformat></timecode><media><video><format><samplecharacteristics><rate><timebase>25</timebase><ntsc>FALSE</ntsc></rate><width>1920</width><height>1080</height><alphatype>none</alphatype><anamorphic>FALSE</anamorphic><pixelaspectratio>square</pixelaspectratio><fielddominance>none</fielddominance></samplecharacteristics></format><track MZ.TrackTargeted="1" PannerCurrentValue="0.5" PannerName="Balance" PannerStartKeyframe="-91445760000000000,0.5,0,0,0,0,0,0" TL.SQTrackAudioKeyframeStyle="0" TL.SQTrackExpanded="0" TL.SQTrackExpandedHeight="25" TL.SQTrackShy="0" currentExplodedTrackIndex="0" premiereTrackType="Stereo" totalExplodedTrackCount="1" /></video><audio><track MZ.TrackTargeted="1" PannerCurrentValue="0.5" PannerName="Balance" PannerStartKeyframe="-91445760000000000,0.5,0,0,0,0,0,0" TL.SQTrackAudioKeyframeStyle="0" TL.SQTrackExpanded="0" TL.SQTrackExpandedHeight="25" TL.SQTrackShy="0" currentExplodedTrackIndex="0" premiereTrackType="Stereo" totalExplodedTrackCount="1"><clipitem id="clipitem-217"><masterclipid>masterclip-27</masterclipid><name>130619_001</name><duration>1200</duration><file id="file-27" /><enabled>TRUE</enabled><start>0</start><end>1200</end><in>0</in><out>1200</out><sourcetrack><mediatype>audio</mediatype><trackindex>1</trackindex></sourcetrack><link><linkclipref>clipitem-217</linkclipref><mediatype>audio</mediatype><trackindex>1</trackindex><clipindex>2</clipindex></link><link><linkclipref>clipitem-218</linkclipref><mediatype>audio</mediatype><trackindex>2</trackindex><clipindex>2</clipindex></link><link><linkclipref>clipitem-219</linkclipref><mediatype>audio</mediatype><trackindex>3</trackindex><clipindex>2</clipindex></link><link><linkclipref>clipitem-220</linkclipref><mediatype>audio</mediatype><trackindex>4</trackindex><clipindex>2</clipindex></link></clipitem><clipitem id="clipitem-221"><masterclipid>masterclip-28</masterclipid><name>130619_002</name><duration>1200</duration><file id="file-28" /><enabled>TRUE</enabled><start>1900</start><end>3100</end><in>0</in><out>1200</out><sourcetrack><mediatype>audio</mediatype><trackindex>1</trackindex></sourcetrack><link><linkclipref>clipitem-221</linkclipref><mediatype>audio</mediatype><trackindex>1</trackindex><clipindex>3</clipindex></link><link><linkclipref>clipitem-222</linkclipref><mediatype>audio</mediatype><trackindex>2</trackindex><clipindex>3</clipindex></link><link><linkclipref>clipitem-223</linkclipref><mediatype>audio</mediatype><trackindex>3</trackindex><clipindex>3</clipindex></link><link><linkclipref>clipitem-224</linkclipref><mediatype>audio</mediatype><trackindex>4</trackindex><clipindex>3</clipindex></link></clipitem><clipitem id="clipitem-225"><masterclipid>masterclip-29</masterclipid><name>130619_003</name><duration>1975</duration><file id="file-29" /><enabled>TRUE</enabled><start>4875</start><end>6850</end><in>0</in><out>1975</out><sourcetrack><mediatype>audio</mediatype><trackindex>1</trackindex></sourcetrack><link><linkclipref>clipitem-225</linkclipref><mediatype>audio</mediatype><trackindex>1</trackindex><clipindex>4</clipindex></link><link><linkclipref>clipitem-226</linkclipref><mediatype>audio</mediatype><trackindex>2</trackindex><clipindex>4</clipindex></link><link><linkclipref>clipitem-227</linkclipref><mediatype>audio</mediatype><trackindex>3</trackindex><clipindex>4</clipindex></link><link><linkclipref>clipitem-228</linkclipref><mediatype>audio</mediatype><trackindex>4</trackindex><clipindex>4</clipindex></link></clipitem><clipitem id="clipitem-229"><masterclipid>masterclip-30</masterclipid><name>130619_004</name><duration>3325</duration><file id="file-30" /><enabled>TRUE</enabled><start>13800</start><end>17125</end><in>0</in><out>3325</out><sourcetrack><mediatype>audio</mediatype><trackindex>1</trackindex></sourcetrack><link><linkclipref>clipitem-229</linkclipref><mediatype>audio</mediatype><trackindex>1</trackindex><clipindex>5</clipindex></link><link><linkclipref>clipitem-230</linkclipref><mediatype>audio</mediatype><trackindex>2</trackindex><clipindex>5</clipindex></link><link><linkclipref>clipitem-231</linkclipref><mediatype>audio</mediatype><trackindex>3</trackindex><clipindex>5</clipindex></link><link><linkclipref>clipitem-232</linkclipref><mediatype>audio</mediatype><trackindex>4</trackindex><clipindex>5</clipindex></link></clipitem><clipitem id="clipitem-233"><masterclipid>masterclip-31</masterclipid><name>130619_005</name><duration>1575</duration><file id="file-31" /><enabled>TRUE</enabled><start>34800</start><end>36375</end><in>0</in><out>1575</out><sourcetrack><mediatype>audio</mediatype><trackindex>1</trackindex></sourcetrack><link><linkclipref>clipitem-233</linkclipref><mediatype>audio</mediatype><trackindex>1</trackindex><clipindex>6</clipindex></link><link><linkclipref>clipitem-234</linkclipref><mediatype>audio</mediatype><trackindex>2</trackindex><clipindex>6</clipindex></link><link><linkclipref>clipitem-235</linkclipref><mediatype>audio</mediatype><trackindex>3</trackindex><clipindex>6</clipindex></link><link><linkclipref>clipitem-236</linkclipref><mediatype>audio</mediatype><trackindex>4</trackindex><clipindex>6</clipindex></link></clipitem><clipitem id="clipitem-237"><masterclipid>masterclip-32</masterclipid><name>130619_006</name><duration>4400</duration><file id="file-32" /><enabled>TRUE</enabled><start>36550</start><end>40950</end><in>0</in><out>4400</out><sourcetrack><mediatype>audio</mediatype><trackindex>1</trackindex></sourcetrack><link><linkclipref>clipitem-237</linkclipref><mediatype>audio</mediatype><trackindex>1</trackindex><clipindex>7</clipindex></link><link><linkclipref>clipitem-238</linkclipref><mediatype>audio</mediatype><trackindex>2</trackindex><clipindex>7</clipindex></link><link><linkclipref>clipitem-239</linkclipref><mediatype>audio</mediatype><trackindex>3</trackindex><clipindex>7</clipindex></link><link><linkclipref>clipitem-240</linkclipref><mediatype>audio</mediatype><trackindex>4</trackindex><clipindex>7</clipindex></link></clipitem><clipitem id="clipitem-241"><masterclipid>masterclip-33</masterclipid><name>130619_007</name><duration>2550</duration><file id="file-33" /><enabled>TRUE</enabled><start>85700</start><end>88250</end><in>0</in><out>2550</out><sourcetrack><mediatype>audio</mediatype><trackindex>1</trackindex></sourcetrack><link><linkclipref>clipitem-241</linkclipref><mediatype>audio</mediatype><trackindex>1</trackindex><clipindex>8</clipindex></link><link><linkclipref>clipitem-242</linkclipref><mediatype>audio</mediatype><trackindex>2</trackindex><clipindex>8</clipindex></link><link><linkclipref>clipitem-243</linkclipref><mediatype>audio</mediatype><trackindex>3</trackindex><clipindex>8</clipindex></link><link><linkclipref>clipitem-244</linkclipref><mediatype>audio</mediatype><trackindex>4</trackindex><clipindex>8</clipindex></link></clipitem><clipitem id="clipitem-245"><masterclipid>masterclip-34</masterclipid><name>130619_008</name><duration>2100</duration><file id="file-34" /><enabled>TRUE</enabled><start>88850</start><end>90950</end><in>0</in><out>2100</out><sourcetrack><mediatype>audio</mediatype><trackindex>1</trackindex></sourcetrack><link><linkclipref>clipitem-245</linkclipref><mediatype>audio</mediatype><trackindex>1</trackindex><clipindex>9</clipindex></link><link><linkclipref>clipitem-246</linkclipref><mediatype>audio</mediatype><trackindex>2</trackindex><clipindex>9</clipindex></link><link><linkclipref>clipitem-247</linkclipref><mediatype>audio</mediatype><trackindex>3</trackindex><clipindex>9</clipindex></link><link><linkclipref>clipitem-248</linkclipref><mediatype>audio</mediatype><trackindex>4</trackindex><clipindex>9</clipindex></link></clipitem><clipitem id="clipitem-249"><masterclipid>masterclip-35</masterclipid><name>130619_009</name><duration>4300</duration><file id="file-35" /><enabled>TRUE</enabled><start>98525</start><end>102825</end><in>0</in><out>4300</out><sourcetrack><mediatype>audio</mediatype><trackindex>1</trackindex></sourcetrack><link><linkclipref>clipitem-249</linkclipref><mediatype>audio</mediatype><trackindex>1</trackindex><clipindex>10</clipindex></link><link><linkclipref>clipitem-250</linkclipref><mediatype>audio</mediatype><trackindex>2</trackindex><clipindex>10</clipindex></link><link><linkclipref>clipitem-251</linkclipref><mediatype>audio</mediatype><trackindex>3</trackindex><clipindex>10</clipindex></link><link><linkclipref>clipitem-252</linkclipref><mediatype>audio</mediatype><trackindex>4</trackindex><clipindex>10</clipindex></link></clipitem><clipitem id="clipitem-253"><masterclipid>masterclip-36</masterclipid><name>130619_010</name><duration>1950</duration><file id="file-36" /><enabled>TRUE</enabled><start>431675</start><end>433625</end><in>0</in><out>1950</out><sourcetrack><mediatype>audio</mediatype><trackindex>1</trackindex></sourcetrack><link><linkclipref>clipitem-253</linkclipref><mediatype>audio</mediatype><trackindex>1</trackindex><clipindex>11</clipindex></link><link><linkclipref>clipitem-254</linkclipref><mediatype>audio</mediatype><trackindex>2</trackindex><clipindex>11</clipindex></link></clipitem><clipitem id="clipitem-255"><masterclipid>masterclip-37</masterclipid><name>130619_011</name><duration>2375</duration><file id="file-37" /><enabled>TRUE</enabled><start>446600</start><end>448975</end><in>0</in><out>2375</out><sourcetrack><mediatype>audio</mediatype><trackindex>1</trackindex></sourcetrack><link><linkclipref>clipitem-255</linkclipref><mediatype>audio</mediatype><trackindex>1</trackindex><clipindex>12</clipindex></link><link><linkclipref>clipitem-256</linkclipref><mediatype>audio</mediatype><trackindex>2</trackindex><clipindex>12</clipindex></link></clipitem><clipitem id="clipitem-257"><masterclipid>masterclip-38</masterclipid><name>130619_012</name><duration>2075</duration><file id="file-38" /><enabled>TRUE</enabled><start>453350</start><end>455425</end><in>0</in><out>2075</out><sourcetrack><mediatype>audio</mediatype><trackindex>1</trackindex></sourcetrack><link><linkclipref>clipitem-257</linkclipref><mediatype>audio</mediatype><trackindex>1</trackindex><clipindex>13</clipindex></link><link><linkclipref>clipitem-258</linkclipref><mediatype>audio</mediatype><trackindex>2</trackindex><clipindex>13</clipindex></link></clipitem><clipitem id="clipitem-259"><masterclipid>masterclip-39</masterclipid><name>130619_013</name><duration>2375</duration><file id="file-39" /><enabled>TRUE</enabled><start>459875</start><end>462250</end><in>0</in><out>2375</out><sourcetrack><mediatype>audio</mediatype><trackindex>1</trackindex></sourcetrack><link><linkclipref>clipitem-259</linkclipref><mediatype>audio</mediatype><trackindex>1</trackindex><clipindex>14</clipindex></link><link><linkclipref>clipitem-260</linkclipref><mediatype>audio</mediatype><trackindex>2</trackindex><clipindex>14</clipindex></link></clipitem><clipitem id="clipitem-261"><masterclipid>masterclip-40</masterclipid><name>130619_014</name><duration>1575</duration><file id="file-40" /><enabled>TRUE</enabled><start>475650</start><end>477225</end><in>0</in><out>1575</out><sourcetrack><mediatype>audio</mediatype><trackindex>1</trackindex></sourcetrack><link><linkclipref>clipitem-261</linkclipref><mediatype>audio</mediatype><trackindex>1</trackindex><clipindex>15</clipindex></link><link><linkclipref>clipitem-262</linkclipref><mediatype>audio</mediatype><trackindex>2</trackindex><clipindex>15</clipindex></link></clipitem><clipitem id="clipitem-263"><masterclipid>masterclip-41</masterclipid><name>130619_015</name><duration>1475</duration><file id="file-41" /><enabled>TRUE</enabled><start>480075</start><end>481550</end><in>0</in><out>1475</out><sourcetrack><mediatype>audio</mediatype><trackindex>1</trackindex></sourcetrack><link><linkclipref>clipitem-263</linkclipref><mediatype>audio</mediatype><trackindex>1</trackindex><clipindex>16</clipindex></link><link><linkclipref>clipitem-264</linkclipref><mediatype>audio</mediatype><trackindex>2</trackindex><clipindex>16</clipindex></link></clipitem><clipitem id="clipitem-265"><masterclipid>masterclip-42</masterclipid><name>130619_016</name><duration>1500</duration><file id="file-42" /><enabled>TRUE</enabled><start>484400</start><end>485900</end><in>0</in><out>1500</out><sourcetrack><mediatype>audio</mediatype><trackindex>1</trackindex></sourcetrack><link><linkclipref>clipitem-265</linkclipref><mediatype>audio</mediatype><trackindex>1</trackindex><clipindex>17</clipindex></link><link><linkclipref>clipitem-266</linkclipref><mediatype>audio</mediatype><trackindex>2</trackindex><clipindex>17</clipindex></link></clipitem><clipitem id="clipitem-267"><masterclipid>masterclip-43</masterclipid><name>130619_017</name><duration>1600</duration><file id="file-43" /><enabled>TRUE</enabled><start>492675</start><end>494275</end><in>0</in><out>1600</out><sourcetrack><mediatype>audio</mediatype><trackindex>1</trackindex></sourcetrack><link><linkclipref>clipitem-267</linkclipref><mediatype>audio</mediatype><trackindex>1</trackindex><clipindex>18</clipindex></link><link><linkclipref>clipitem-268</linkclipref><mediatype>audio</mediatype><trackindex>2</trackindex><clipindex>18</clipindex></link></clipitem><clipitem id="clipitem-269"><masterclipid>masterclip-44</masterclipid><name>130619_018</name><duration>3825</duration><file id="file-44" /><enabled>TRUE</enabled><start>496000</start><end>499825</end><in>0</in><out>3825</out><sourcetrack><mediatype>audio</mediatype><trackindex>1</trackindex></sourcetrack><link><linkclipref>clipitem-269</linkclipref><mediatype>audio</mediatype><trackindex>1</trackindex><clipindex>19</clipindex></link><link><linkclipref>clipitem-270</linkclipref><mediatype>audio</mediatype><trackindex>2</trackindex><clipindex>19</clipindex></link></clipitem><clipitem id="clipitem-271"><masterclipid>masterclip-45</masterclipid><name>130619_019</name><duration>1725</duration><file id="file-45" /><enabled>TRUE</enabled><start>501525</start><end>503250</end><in>0</in><out>1725</out><sourcetrack><mediatype>audio</mediatype><trackindex>1</trackindex></sourcetrack><link><linkclipref>clipitem-271</linkclipref><mediatype>audio</mediatype><trackindex>1</trackindex><clipindex>20</clipindex></link><link><linkclipref>clipitem-272</linkclipref><mediatype>audio</mediatype><trackindex>2</trackindex><clipindex>20</clipindex></link></clipitem><clipitem id="clipitem-273"><masterclipid>masterclip-46</masterclipid><name>130619_020</name><duration>1450</duration><file id="file-46" /><enabled>TRUE</enabled><start>508525</start><end>509975</end><in>0</in><out>1450</out><sourcetrack><mediatype>audio</mediatype><trackindex>1</trackindex></sourcetrack><link><linkclipref>clipitem-273</linkclipref><mediatype>audio</mediatype><trackindex>1</trackindex><clipindex>21</clipindex></link><link><linkclipref>clipitem-274</linkclipref><mediatype>audio</mediatype><trackindex>2</trackindex><clipindex>21</clipindex></link></clipitem><clipitem id="clipitem-275"><masterclipid>masterclip-47</masterclipid><name>130619_021</name><duration>14200</duration><file id="file-47" /><enabled>TRUE</enabled><start>525850</start><end>540050</end><in>0</in><out>14200</out><sourcetrack><mediatype>audio</mediatype><trackindex>1</trackindex></sourcetrack><link><linkclipref>clipitem-275</linkclipref><mediatype>audio</mediatype><trackindex>1</trackindex><clipindex>22</clipindex></link><link><linkclipref>clipitem-276</linkclipref><mediatype>audio</mediatype><trackindex>2</trackindex><clipindex>22</clipindex></link></clipitem></track><track MZ.TrackTargeted="1" PannerCurrentValue="0.5" PannerName="Balance" PannerStartKeyframe="-91445760000000000,0.5,0,0,0,0,0,0" TL.SQTrackAudioKeyframeStyle="0" TL.SQTrackExpanded="0" TL.SQTrackExpandedHeight="25" TL.SQTrackShy="0" currentExplodedTrackIndex="0" premiereTrackType="Stereo" totalExplodedTrackCount="1"><clipitem id="clipitem-218"><masterclipid>masterclip-27</masterclipid><name>130619_001</name><duration>1200</duration><file id="file-27" /><enabled>TRUE</enabled><start>0</start><end>1200</end><in>0</in><out>1200</out><sourcetrack><mediatype>audio</mediatype><trackindex>2</trackindex></sourcetrack><link><linkclipref>clipitem-217</linkclipref><mediatype>audio</mediatype><trackindex>1</trackindex><clipindex>2</clipindex></link><link><linkclipref>clipitem-218</linkclipref><mediatype>audio</mediatype><trackindex>2</trackindex><clipindex>2</clipindex></link><link><linkclipref>clipitem-219</linkclipref><mediatype>audio</mediatype><trackindex>3</trackindex><clipindex>2</clipindex></link><link><linkclipref>clipitem-220</linkclipref><mediatype>audio</mediatype><trackindex>4</trackindex><clipindex>2</clipindex></link></clipitem><clipitem id="clipitem-222"><masterclipid>masterclip-28</masterclipid><name>130619_002</name><duration>1200</duration><file id="file-28" /><enabled>TRUE</enabled><start>1900</start><end>3100</end><in>0</in><out>1200</out><sourcetrack><mediatype>audio</mediatype><trackindex>2</trackindex></sourcetrack><link><linkclipref>clipitem-221</linkclipref><mediatype>audio</mediatype><trackindex>1</trackindex><clipindex>3</clipindex></link><link><linkclipref>clipitem-222</linkclipref><mediatype>audio</mediatype><trackindex>2</trackindex><clipindex>3</clipindex></link><link><linkclipref>clipitem-223</linkclipref><mediatype>audio</mediatype><trackindex>3</trackindex><clipindex>3</clipindex></link><link><linkclipref>clipitem-224</linkclipref><mediatype>audio</mediatype><trackindex>4</trackindex><clipindex>3</clipindex></link></clipitem><clipitem id="clipitem-226"><masterclipid>masterclip-29</masterclipid><name>130619_003</name><duration>1975</duration><file id="file-29" /><enabled>TRUE</enabled><start>4875</start><end>6850</end><in>0</in><out>1975</out><sourcetrack><mediatype>audio</mediatype><trackindex>2</trackindex></sourcetrack><link><linkclipref>clipitem-225</linkclipref><mediatype>audio</mediatype><trackindex>1</trackindex><clipindex>4</clipindex></link><link><linkclipref>clipitem-226</linkclipref><mediatype>audio</mediatype><trackindex>2</trackindex><clipindex>4</clipindex></link><link><linkclipref>clipitem-227</linkclipref><mediatype>audio</mediatype><trackindex>3</trackindex><clipindex>4</clipindex></link><link><linkclipref>clipitem-228</linkclipref><mediatype>audio</mediatype><trackindex>4</trackindex><clipindex>4</clipindex></link></clipitem><clipitem id="clipitem-230"><masterclipid>masterclip-30</masterclipid><name>130619_004</name><duration>3325</duration><file id="file-30" /><enabled>TRUE</enabled><start>13800</start><end>17125</end><in>0</in><out>3325</out><sourcetrack><mediatype>audio</mediatype><trackindex>2</trackindex></sourcetrack><link><linkclipref>clipitem-229</linkclipref><mediatype>audio</mediatype><trackindex>1</trackindex><clipindex>5</clipindex></link><link><linkclipref>clipitem-230</linkclipref><mediatype>audio</mediatype><trackindex>2</trackindex><clipindex>5</clipindex></link><link><linkclipref>clipitem-231</linkclipref><mediatype>audio</mediatype><trackindex>3</trackindex><clipindex>5</clipindex></link><link><linkclipref>clipitem-232</linkclipref><mediatype>audio</mediatype><trackindex>4</trackindex><clipindex>5</clipindex></link></clipitem><clipitem id="clipitem-234"><masterclipid>masterclip-31</masterclipid><name>130619_005</name><duration>1575</duration><file id="file-31" /><enabled>TRUE</enabled><start>34800</start><end>36375</end><in>0</in><out>1575</out><sourcetrack><mediatype>audio</mediatype><trackindex>2</trackindex></sourcetrack><link><linkclipref>clipitem-233</linkclipref><mediatype>audio</mediatype><trackindex>1</trackindex><clipindex>6</clipindex></link><link><linkclipref>clipitem-234</linkclipref><mediatype>audio</mediatype><trackindex>2</trackindex><clipindex>6</clipindex></link><link><linkclipref>clipitem-235</linkclipref><mediatype>audio</mediatype><trackindex>3</trackindex><clipindex>6</clipindex></link><link><linkclipref>clipitem-236</linkclipref><mediatype>audio</mediatype><trackindex>4</trackindex><clipindex>6</clipindex></link></clipitem><clipitem id="clipitem-238"><masterclipid>masterclip-32</masterclipid><name>130619_006</name><duration>4400</duration><file id="file-32" /><enabled>TRUE</enabled><start>36550</start><end>40950</end><in>0</in><out>4400</out><sourcetrack><mediatype>audio</mediatype><trackindex>2</trackindex></sourcetrack><link><linkclipref>clipitem-237</linkclipref><mediatype>audio</mediatype><trackindex>1</trackindex><clipindex>7</clipindex></link><link><linkclipref>clipitem-238</linkclipref><mediatype>audio</mediatype><trackindex>2</trackindex><clipindex>7</clipindex></link><link><linkclipref>clipitem-239</linkclipref><mediatype>audio</mediatype><trackindex>3</trackindex><clipindex>7</clipindex></link><link><linkclipref>clipitem-240</linkclipref><mediatype>audio</mediatype><trackindex>4</trackindex><clipindex>7</clipindex></link></clipitem><clipitem id="clipitem-242"><masterclipid>masterclip-33</masterclipid><name>130619_007</name><duration>2550</duration><file id="file-33" /><enabled>TRUE</enabled><start>85700</start><end>88250</end><in>0</in><out>2550</out><sourcetrack><mediatype>audio</mediatype><trackindex>2</trackindex></sourcetrack><link><linkclipref>clipitem-241</linkclipref><mediatype>audio</mediatype><trackindex>1</trackindex><clipindex>8</clipindex></link><link><linkclipref>clipitem-242</linkclipref><mediatype>audio</mediatype><trackindex>2</trackindex><clipindex>8</clipindex></link><link><linkclipref>clipitem-243</linkclipref><mediatype>audio</mediatype><trackindex>3</trackindex><clipindex>8</clipindex></link><link><linkclipref>clipitem-244</linkclipref><mediatype>audio</mediatype><trackindex>4</trackindex><clipindex>8</clipindex></link></clipitem><clipitem id="clipitem-246"><masterclipid>masterclip-34</masterclipid><name>130619_008</name><duration>2100</duration><file id="file-34" /><enabled>TRUE</enabled><start>88850</start><end>90950</end><in>0</in><out>2100</out><sourcetrack><mediatype>audio</mediatype><trackindex>2</trackindex></sourcetrack><link><linkclipref>clipitem-245</linkclipref><mediatype>audio</mediatype><trackindex>1</trackindex><clipindex>9</clipindex></link><link><linkclipref>clipitem-246</linkclipref><mediatype>audio</mediatype><trackindex>2</trackindex><clipindex>9</clipindex></link><link><linkclipref>clipitem-247</linkclipref><mediatype>audio</mediatype><trackindex>3</trackindex><clipindex>9</clipindex></link><link><linkclipref>clipitem-248</linkclipref><mediatype>audio</mediatype><trackindex>4</trackindex><clipindex>9</clipindex></link></clipitem><clipitem id="clipitem-250"><masterclipid>masterclip-35</masterclipid><name>130619_009</name><duration>4300</duration><file id="file-35" /><enabled>TRUE</enabled><start>98525</start><end>102825</end><in>0</in><out>4300</out><sourcetrack><mediatype>audio</mediatype><trackindex>2</trackindex></sourcetrack><link><linkclipref>clipitem-249</linkclipref><mediatype>audio</mediatype><trackindex>1</trackindex><clipindex>10</clipindex></link><link><linkclipref>clipitem-250</linkclipref><mediatype>audio</mediatype><trackindex>2</trackindex><clipindex>10</clipindex></link><link><linkclipref>clipitem-251</linkclipref><mediatype>audio</mediatype><trackindex>3</trackindex><clipindex>10</clipindex></link><link><linkclipref>clipitem-252</linkclipref><mediatype>audio</mediatype><trackindex>4</trackindex><clipindex>10</clipindex></link></clipitem><clipitem id="clipitem-254"><masterclipid>masterclip-36</masterclipid><name>130619_010</name><duration>1950</duration><file id="file-36" /><enabled>TRUE</enabled><start>431675</start><end>433625</end><in>0</in><out>1950</out><sourcetrack><mediatype>audio</mediatype><trackindex>2</trackindex></sourcetrack><link><linkclipref>clipitem-253</linkclipref><mediatype>audio</mediatype><trackindex>1</trackindex><clipindex>11</clipindex></link><link><linkclipref>clipitem-254</linkclipref><mediatype>audio</mediatype><trackindex>2</trackindex><clipindex>11</clipindex></link></clipitem><clipitem id="clipitem-256"><masterclipid>masterclip-37</masterclipid><name>130619_011</name><duration>2375</duration><file id="file-37" /><enabled>TRUE</enabled><start>446600</start><end>448975</end><in>0</in><out>2375</out><sourcetrack><mediatype>audio</mediatype><trackindex>2</trackindex></sourcetrack><link><linkclipref>clipitem-255</linkclipref><mediatype>audio</mediatype><trackindex>1</trackindex><clipindex>12</clipindex></link><link><linkclipref>clipitem-256</linkclipref><mediatype>audio</mediatype><trackindex>2</trackindex><clipindex>12</clipindex></link></clipitem><clipitem id="clipitem-258"><masterclipid>masterclip-38</masterclipid><name>130619_012</name><duration>2075</duration><file id="file-38" /><enabled>TRUE</enabled><start>453350</start><end>455425</end><in>0</in><out>2075</out><sourcetrack><mediatype>audio</mediatype><trackindex>2</trackindex></sourcetrack><link><linkclipref>clipitem-257</linkclipref><mediatype>audio</mediatype><trackindex>1</trackindex><clipindex>13</clipindex></link><link><linkclipref>clipitem-258</linkclipref><mediatype>audio</mediatype><trackindex>2</trackindex><clipindex>13</clipindex></link></clipitem><clipitem id="clipitem-260"><masterclipid>masterclip-39</masterclipid><name>130619_013</name><duration>2375</duration><file id="file-39" /><enabled>TRUE</enabled><start>459875</start><end>462250</end><in>0</in><out>2375</out><sourcetrack><mediatype>audio</mediatype><trackindex>2</trackindex></sourcetrack><link><linkclipref>clipitem-259</linkclipref><mediatype>audio</mediatype><trackindex>1</trackindex><clipindex>14</clipindex></link><link><linkclipref>clipitem-260</linkclipref><mediatype>audio</mediatype><trackindex>2</trackindex><clipindex>14</clipindex></link></clipitem><clipitem id="clipitem-262"><masterclipid>masterclip-40</masterclipid><name>130619_014</name><duration>1575</duration><file id="file-40" /><enabled>TRUE</enabled><start>475650</start><end>477225</end><in>0</in><out>1575</out><sourcetrack><mediatype>audio</mediatype><trackindex>2</trackindex></sourcetrack><link><linkclipref>clipitem-261</linkclipref><mediatype>audio</mediatype><trackindex>1</trackindex><clipindex>15</clipindex></link><link><linkclipref>clipitem-262</linkclipref><mediatype>audio</mediatype><trackindex>2</trackindex><clipindex>15</clipindex></link></clipitem><clipitem id="clipitem-264"><masterclipid>masterclip-41</masterclipid><name>130619_015</name><duration>1475</duration><file id="file-41" /><enabled>TRUE</enabled><start>480075</start><end>481550</end><in>0</in><out>1475</out><sourcetrack><mediatype>audio</mediatype><trackindex>2</trackindex></sourcetrack><link><linkclipref>clipitem-263</linkclipref><mediatype>audio</mediatype><trackindex>1</trackindex><clipindex>16</clipindex></link><link><linkclipref>clipitem-264</linkclipref><mediatype>audio</mediatype><trackindex>2</trackindex><clipindex>16</clipindex></link></clipitem><clipitem id="clipitem-266"><masterclipid>masterclip-42</masterclipid><name>130619_016</name><duration>1500</duration><file id="file-42" /><enabled>TRUE</enabled><start>484400</start><end>485900</end><in>0</in><out>1500</out><sourcetrack><mediatype>audio</mediatype><trackindex>2</trackindex></sourcetrack><link><linkclipref>clipitem-265</linkclipref><mediatype>audio</mediatype><trackindex>1</trackindex><clipindex>17</clipindex></link><link><linkclipref>clipitem-266</linkclipref><mediatype>audio</mediatype><trackindex>2</trackindex><clipindex>17</clipindex></link></clipitem><clipitem id="clipitem-268"><masterclipid>masterclip-43</masterclipid><name>130619_017</name><duration>1600</duration><file id="file-43" /><enabled>TRUE</enabled><start>492675</start><end>494275</end><in>0</in><out>1600</out><sourcetrack><mediatype>audio</mediatype><trackindex>2</trackindex></sourcetrack><link><linkclipref>clipitem-267</linkclipref><mediatype>audio</mediatype><trackindex>1</trackindex><clipindex>18</clipindex></link><link><linkclipref>clipitem-268</linkclipref><mediatype>audio</mediatype><trackindex>2</trackindex><clipindex>18</clipindex></link></clipitem><clipitem id="clipitem-270"><masterclipid>masterclip-44</masterclipid><name>130619_018</name><duration>3825</duration><file id="file-44" /><enabled>TRUE</enabled><start>496000</start><end>499825</end><in>0</in><out>3825</out><sourcetrack><mediatype>audio</mediatype><trackindex>2</trackindex></sourcetrack><link><linkclipref>clipitem-269</linkclipref><mediatype>audio</mediatype><trackindex>1</trackindex><clipindex>19</clipindex></link><link><linkclipref>clipitem-270</linkclipref><mediatype>audio</mediatype><trackindex>2</trackindex><clipindex>19</clipindex></link></clipitem><clipitem id="clipitem-272"><masterclipid>masterclip-45</masterclipid><name>130619_019</name><duration>1725</duration><file id="file-45" /><enabled>TRUE</enabled><start>501525</start><end>503250</end><in>0</in><out>1725</out><sourcetrack><mediatype>audio</mediatype><trackindex>2</trackindex></sourcetrack><link><linkclipref>clipitem-271</linkclipref><mediatype>audio</mediatype><trackindex>1</trackindex><clipindex>20</clipindex></link><link><linkclipref>clipitem-272</linkclipref><mediatype>audio</mediatype><trackindex>2</trackindex><clipindex>20</clipindex></link></clipitem><clipitem id="clipitem-274"><masterclipid>masterclip-46</masterclipid><name>130619_020</name><duration>1450</duration><file id="file-46" /><enabled>TRUE</enabled><start>508525</start><end>509975</end><in>0</in><out>1450</out><sourcetrack><mediatype>audio</mediatype><trackindex>2</trackindex></sourcetrack><link><linkclipref>clipitem-273</linkclipref><mediatype>audio</mediatype><trackindex>1</trackindex><clipindex>21</clipindex></link><link><linkclipref>clipitem-274</linkclipref><mediatype>audio</mediatype><trackindex>2</trackindex><clipindex>21</clipindex></link></clipitem><clipitem id="clipitem-276"><masterclipid>masterclip-47</masterclipid><name>130619_021</name><duration>14200</duration><file id="file-47" /><enabled>TRUE</enabled><start>525850</start><end>540050</end><in>0</in><out>14200</out><sourcetrack><mediatype>audio</mediatype><trackindex>2</trackindex></sourcetrack><link><linkclipref>clipitem-275</linkclipref><mediatype>audio</mediatype><trackindex>1</trackindex><clipindex>22</clipindex></link><link><linkclipref>clipitem-276</linkclipref><mediatype>audio</mediatype><trackindex>2</trackindex><clipindex>22</clipindex></link></clipitem></track><track MZ.TrackTargeted="1" PannerCurrentValue="0.5" PannerName="Balance" PannerStartKeyframe="-91445760000000000,0.5,0,0,0,0,0,0" TL.SQTrackAudioKeyframeStyle="0" TL.SQTrackExpanded="0" TL.SQTrackExpandedHeight="25" TL.SQTrackShy="0" currentExplodedTrackIndex="0" premiereTrackType="Stereo" totalExplodedTrackCount="1"><clipitem id="clipitem-219"><masterclipid>masterclip-27</masterclipid><name>130619_001</name><duration>1200</duration><file id="file-27" /><enabled>TRUE</enabled><start>0</start><end>1200</end><in>0</in><out>1200</out><sourcetrack><mediatype>audio</mediatype><trackindex>3</trackindex></sourcetrack><link><linkclipref>clipitem-217</linkclipref><mediatype>audio</mediatype><trackindex>1</trackindex><clipindex>2</clipindex></link><link><linkclipref>clipitem-218</linkclipref><mediatype>audio</mediatype><trackindex>2</trackindex><clipindex>2</clipindex></link><link><linkclipref>clipitem-219</linkclipref><mediatype>audio</mediatype><trackindex>3</trackindex><clipindex>2</clipindex></link><link><linkclipref>clipitem-220</linkclipref><mediatype>audio</mediatype><trackindex>4</trackindex><clipindex>2</clipindex></link></clipitem><clipitem id="clipitem-223"><masterclipid>masterclip-28</masterclipid><name>130619_002</name><duration>1200</duration><file id="file-28" /><enabled>TRUE</enabled><start>1900</start><end>3100</end><in>0</in><out>1200</out><sourcetrack><mediatype>audio</mediatype><trackindex>3</trackindex></sourcetrack><link><linkclipref>clipitem-221</linkclipref><mediatype>audio</mediatype><trackindex>1</trackindex><clipindex>3</clipindex></link><link><linkclipref>clipitem-222</linkclipref><mediatype>audio</mediatype><trackindex>2</trackindex><clipindex>3</clipindex></link><link><linkclipref>clipitem-223</linkclipref><mediatype>audio</mediatype><trackindex>3</trackindex><clipindex>3</clipindex></link><link><linkclipref>clipitem-224</linkclipref><mediatype>audio</mediatype><trackindex>4</trackindex><clipindex>3</clipindex></link></clipitem><clipitem id="clipitem-227"><masterclipid>masterclip-29</masterclipid><name>130619_003</name><duration>1975</duration><file id="file-29" /><enabled>TRUE</enabled><start>4875</start><end>6850</end><in>0</in><out>1975</out><sourcetrack><mediatype>audio</mediatype><trackindex>3</trackindex></sourcetrack><link><linkclipref>clipitem-225</linkclipref><mediatype>audio</mediatype><trackindex>1</trackindex><clipindex>4</clipindex></link><link><linkclipref>clipitem-226</linkclipref><mediatype>audio</mediatype><trackindex>2</trackindex><clipindex>4</clipindex></link><link><linkclipref>clipitem-227</linkclipref><mediatype>audio</mediatype><trackindex>3</trackindex><clipindex>4</clipindex></link><link><linkclipref>clipitem-228</linkclipref><mediatype>audio</mediatype><trackindex>4</trackindex><clipindex>4</clipindex></link></clipitem><clipitem id="clipitem-231"><masterclipid>masterclip-30</masterclipid><name>130619_004</name><duration>3325</duration><file id="file-30" /><enabled>TRUE</enabled><start>13800</start><end>17125</end><in>0</in><out>3325</out><sourcetrack><mediatype>audio</mediatype><trackindex>3</trackindex></sourcetrack><link><linkclipref>clipitem-229</linkclipref><mediatype>audio</mediatype><trackindex>1</trackindex><clipindex>5</clipindex></link><link><linkclipref>clipitem-230</linkclipref><mediatype>audio</mediatype><trackindex>2</trackindex><clipindex>5</clipindex></link><link><linkclipref>clipitem-231</linkclipref><mediatype>audio</mediatype><trackindex>3</trackindex><clipindex>5</clipindex></link><link><linkclipref>clipitem-232</linkclipref><mediatype>audio</mediatype><trackindex>4</trackindex><clipindex>5</clipindex></link></clipitem><clipitem id="clipitem-235"><masterclipid>masterclip-31</masterclipid><name>130619_005</name><duration>1575</duration><file id="file-31" /><enabled>TRUE</enabled><start>34800</start><end>36375</end><in>0</in><out>1575</out><sourcetrack><mediatype>audio</mediatype><trackindex>3</trackindex></sourcetrack><link><linkclipref>clipitem-233</linkclipref><mediatype>audio</mediatype><trackindex>1</trackindex><clipindex>6</clipindex></link><link><linkclipref>clipitem-234</linkclipref><mediatype>audio</mediatype><trackindex>2</trackindex><clipindex>6</clipindex></link><link><linkclipref>clipitem-235</linkclipref><mediatype>audio</mediatype><trackindex>3</trackindex><clipindex>6</clipindex></link><link><linkclipref>clipitem-236</linkclipref><mediatype>audio</mediatype><trackindex>4</trackindex><clipindex>6</clipindex></link></clipitem><clipitem id="clipitem-239"><masterclipid>masterclip-32</masterclipid><name>130619_006</name><duration>4400</duration><file id="file-32" /><enabled>TRUE</enabled><start>36550</start><end>40950</end><in>0</in><out>4400</out><sourcetrack><mediatype>audio</mediatype><trackindex>3</trackindex></sourcetrack><link><linkclipref>clipitem-237</linkclipref><mediatype>audio</mediatype><trackindex>1</trackindex><clipindex>7</clipindex></link><link><linkclipref>clipitem-238</linkclipref><mediatype>audio</mediatype><trackindex>2</trackindex><clipindex>7</clipindex></link><link><linkclipref>clipitem-239</linkclipref><mediatype>audio</mediatype><trackindex>3</trackindex><clipindex>7</clipindex></link><link><linkclipref>clipitem-240</linkclipref><mediatype>audio</mediatype><trackindex>4</trackindex><clipindex>7</clipindex></link></clipitem><clipitem id="clipitem-243"><masterclipid>masterclip-33</masterclipid><name>130619_007</name><duration>2550</duration><file id="file-33" /><enabled>TRUE</enabled><start>85700</start><end>88250</end><in>0</in><out>2550</out><sourcetrack><mediatype>audio</mediatype><trackindex>3</trackindex></sourcetrack><link><linkclipref>clipitem-241</linkclipref><mediatype>audio</mediatype><trackindex>1</trackindex><clipindex>8</clipindex></link><link><linkclipref>clipitem-242</linkclipref><mediatype>audio</mediatype><trackindex>2</trackindex><clipindex>8</clipindex></link><link><linkclipref>clipitem-243</linkclipref><mediatype>audio</mediatype><trackindex>3</trackindex><clipindex>8</clipindex></link><link><linkclipref>clipitem-244</linkclipref><mediatype>audio</mediatype><trackindex>4</trackindex><clipindex>8</clipindex></link></clipitem><clipitem id="clipitem-247"><masterclipid>masterclip-34</masterclipid><name>130619_008</name><duration>2100</duration><file id="file-34" /><enabled>TRUE</enabled><start>88850</start><end>90950</end><in>0</in><out>2100</out><sourcetrack><mediatype>audio</mediatype><trackindex>3</trackindex></sourcetrack><link><linkclipref>clipitem-245</linkclipref><mediatype>audio</mediatype><trackindex>1</trackindex><clipindex>9</clipindex></link><link><linkclipref>clipitem-246</linkclipref><mediatype>audio</mediatype><trackindex>2</trackindex><clipindex>9</clipindex></link><link><linkclipref>clipitem-247</linkclipref><mediatype>audio</mediatype><trackindex>3</trackindex><clipindex>9</clipindex></link><link><linkclipref>clipitem-248</linkclipref><mediatype>audio</mediatype><trackindex>4</trackindex><clipindex>9</clipindex></link></clipitem><clipitem id="clipitem-251"><masterclipid>masterclip-35</masterclipid><name>130619_009</name><duration>4300</duration><file id="file-35" /><enabled>TRUE</enabled><start>98525</start><end>102825</end><in>0</in><out>4300</out><sourcetrack><mediatype>audio</mediatype><trackindex>3</trackindex></sourcetrack><link><linkclipref>clipitem-249</linkclipref><mediatype>audio</mediatype><trackindex>1</trackindex><clipindex>10</clipindex></link><link><linkclipref>clipitem-250</linkclipref><mediatype>audio</mediatype><trackindex>2</trackindex><clipindex>10</clipindex></link><link><linkclipref>clipitem-251</linkclipref><mediatype>audio</mediatype><trackindex>3</trackindex><clipindex>10</clipindex></link><link><linkclipref>clipitem-252</linkclipref><mediatype>audio</mediatype><trackindex>4</trackindex><clipindex>10</clipindex></link></clipitem></track><track MZ.TrackTargeted="1" PannerCurrentValue="0.5" PannerName="Balance" PannerStartKeyframe="-91445760000000000,0.5,0,0,0,0,0,0" TL.SQTrackAudioKeyframeStyle="0" TL.SQTrackExpanded="0" TL.SQTrackExpandedHeight="25" TL.SQTrackShy="0" currentExplodedTrackIndex="0" premiereTrackType="Stereo" totalExplodedTrackCount="1"><clipitem id="clipitem-220"><masterclipid>masterclip-27</masterclipid><name>130619_001</name><duration>1200</duration><file id="file-27" /><enabled>TRUE</enabled><start>0</start><end>1200</end><in>0</in><out>1200</out><sourcetrack><mediatype>audio</mediatype><trackindex>4</trackindex></sourcetrack><link><linkclipref>clipitem-217</linkclipref><mediatype>audio</mediatype><trackindex>1</trackindex><clipindex>2</clipindex></link><link><linkclipref>clipitem-218</linkclipref><mediatype>audio</mediatype><trackindex>2</trackindex><clipindex>2</clipindex></link><link><linkclipref>clipitem-219</linkclipref><mediatype>audio</mediatype><trackindex>3</trackindex><clipindex>2</clipindex></link><link><linkclipref>clipitem-220</linkclipref><mediatype>audio</mediatype><trackindex>4</trackindex><clipindex>2</clipindex></link></clipitem><clipitem id="clipitem-224"><masterclipid>masterclip-28</masterclipid><name>130619_002</name><duration>1200</duration><file id="file-28" /><enabled>TRUE</enabled><start>1900</start><end>3100</end><in>0</in><out>1200</out><sourcetrack><mediatype>audio</mediatype><trackindex>4</trackindex></sourcetrack><link><linkclipref>clipitem-221</linkclipref><mediatype>audio</mediatype><trackindex>1</trackindex><clipindex>3</clipindex></link><link><linkclipref>clipitem-222</linkclipref><mediatype>audio</mediatype><trackindex>2</trackindex><clipindex>3</clipindex></link><link><linkclipref>clipitem-223</linkclipref><mediatype>audio</mediatype><trackindex>3</trackindex><clipindex>3</clipindex></link><link><linkclipref>clipitem-224</linkclipref><mediatype>audio</mediatype><trackindex>4</trackindex><clipindex>3</clipindex></link></clipitem><clipitem id="clipitem-228"><masterclipid>masterclip-29</masterclipid><name>130619_003</name><duration>1975</duration><file id="file-29" /><enabled>TRUE</enabled><start>4875</start><end>6850</end><in>0</in><out>1975</out><sourcetrack><mediatype>audio</mediatype><trackindex>4</trackindex></sourcetrack><link><linkclipref>clipitem-225</linkclipref><mediatype>audio</mediatype><trackindex>1</trackindex><clipindex>4</clipindex></link><link><linkclipref>clipitem-226</linkclipref><mediatype>audio</mediatype><trackindex>2</trackindex><clipindex>4</clipindex></link><link><linkclipref>clipitem-227</linkclipref><mediatype>audio</mediatype><trackindex>3</trackindex><clipindex>4</clipindex></link><link><linkclipref>clipitem-228</linkclipref><mediatype>audio</mediatype><trackindex>4</trackindex><clipindex>4</clipindex></link></clipitem><clipitem id="clipitem-232"><masterclipid>masterclip-30</masterclipid><name>130619_004</name><duration>3325</duration><file id="file-30" /><enabled>TRUE</enabled><start>13800</start><end>17125</end><in>0</in><out>3325</out><sourcetrack><mediatype>audio</mediatype><trackindex>4</trackindex></sourcetrack><link><linkclipref>clipitem-229</linkclipref><mediatype>audio</mediatype><trackindex>1</trackindex><clipindex>5</clipindex></link><link><linkclipref>clipitem-230</linkclipref><mediatype>audio</mediatype><trackindex>2</trackindex><clipindex>5</clipindex></link><link><linkclipref>clipitem-231</linkclipref><mediatype>audio</mediatype><trackindex>3</trackindex><clipindex>5</clipindex></link><link><linkclipref>clipitem-232</linkclipref><mediatype>audio</mediatype><trackindex>4</trackindex><clipindex>5</clipindex></link></clipitem><clipitem id="clipitem-236"><masterclipid>masterclip-31</masterclipid><name>130619_005</name><duration>1575</duration><file id="file-31" /><enabled>TRUE</enabled><start>34800</start><end>36375</end><in>0</in><out>1575</out><sourcetrack><mediatype>audio</mediatype><trackindex>4</trackindex></sourcetrack><link><linkclipref>clipitem-233</linkclipref><mediatype>audio</mediatype><trackindex>1</trackindex><clipindex>6</clipindex></link><link><linkclipref>clipitem-234</linkclipref><mediatype>audio</mediatype><trackindex>2</trackindex><clipindex>6</clipindex></link><link><linkclipref>clipitem-235</linkclipref><mediatype>audio</mediatype><trackindex>3</trackindex><clipindex>6</clipindex></link><link><linkclipref>clipitem-236</linkclipref><mediatype>audio</mediatype><trackindex>4</trackindex><clipindex>6</clipindex></link></clipitem><clipitem id="clipitem-240"><masterclipid>masterclip-32</masterclipid><name>130619_006</name><duration>4400</duration><file id="file-32" /><enabled>TRUE</enabled><start>36550</start><end>40950</end><in>0</in><out>4400</out><sourcetrack><mediatype>audio</mediatype><trackindex>4</trackindex></sourcetrack><link><linkclipref>clipitem-237</linkclipref><mediatype>audio</mediatype><trackindex>1</trackindex><clipindex>7</clipindex></link><link><linkclipref>clipitem-238</linkclipref><mediatype>audio</mediatype><trackindex>2</trackindex><clipindex>7</clipindex></link><link><linkclipref>clipitem-239</linkclipref><mediatype>audio</mediatype><trackindex>3</trackindex><clipindex>7</clipindex></link><link><linkclipref>clipitem-240</linkclipref><mediatype>audio</mediatype><trackindex>4</trackindex><clipindex>7</clipindex></link></clipitem><clipitem id="clipitem-244"><masterclipid>masterclip-33</masterclipid><name>130619_007</name><duration>2550</duration><file id="file-33" /><enabled>TRUE</enabled><start>85700</start><end>88250</end><in>0</in><out>2550</out><sourcetrack><mediatype>audio</mediatype><trackindex>4</trackindex></sourcetrack><link><linkclipref>clipitem-241</linkclipref><mediatype>audio</mediatype><trackindex>1</trackindex><clipindex>8</clipindex></link><link><linkclipref>clipitem-242</linkclipref><mediatype>audio</mediatype><trackindex>2</trackindex><clipindex>8</clipindex></link><link><linkclipref>clipitem-243</linkclipref><mediatype>audio</mediatype><trackindex>3</trackindex><clipindex>8</clipindex></link><link><linkclipref>clipitem-244</linkclipref><mediatype>audio</mediatype><trackindex>4</trackindex><clipindex>8</clipindex></link></clipitem><clipitem id="clipitem-248"><masterclipid>masterclip-34</masterclipid><name>130619_008</name><duration>2100</duration><file id="file-34" /><enabled>TRUE</enabled><start>88850</start><end>90950</end><in>0</in><out>2100</out><sourcetrack><mediatype>audio</mediatype><trackindex>4</trackindex></sourcetrack><link><linkclipref>clipitem-245</linkclipref><mediatype>audio</mediatype><trackindex>1</trackindex><clipindex>9</clipindex></link><link><linkclipref>clipitem-246</linkclipref><mediatype>audio</mediatype><trackindex>2</trackindex><clipindex>9</clipindex></link><link><linkclipref>clipitem-247</linkclipref><mediatype>audio</mediatype><trackindex>3</trackindex><clipindex>9</clipindex></link><link><linkclipref>clipitem-248</linkclipref><mediatype>audio</mediatype><trackindex>4</trackindex><clipindex>9</clipindex></link></clipitem><clipitem id="clipitem-252"><masterclipid>masterclip-35</masterclipid><name>130619_009</name><duration>4300</duration><file id="file-35" /><enabled>TRUE</enabled><start>98525</start><end>102825</end><in>0</in><out>4300</out><sourcetrack><mediatype>audio</mediatype><trackindex>4</trackindex></sourcetrack><link><linkclipref>clipitem-249</linkclipref><mediatype>audio</mediatype><trackindex>1</trackindex><clipindex>10</clipindex></link><link><linkclipref>clipitem-250</linkclipref><mediatype>audio</mediatype><trackindex>2</trackindex><clipindex>10</clipindex></link><link><linkclipref>clipitem-251</linkclipref><mediatype>audio</mediatype><trackindex>3</trackindex><clipindex>10</clipindex></link><link><linkclipref>clipitem-252</linkclipref><mediatype>audio</mediatype><trackindex>4</trackindex><clipindex>10</clipindex></link></clipitem></track></audio></media></sequence></children></bin></children></bin></project></xmeml>