<?xml version="1.0" encoding="UTF-8"?>
<!DOCTYPE xmeml>
<xmeml version="4">
	<project>
		<name>sample_pr_2</name>
		<children>
			<sequence id="sequence-2" TL.SQAudioVisibleBase="0" TL.SQVideoVisibleBase="0" TL.SQVisibleBaseTime="0" TL.SQAVDividerPosition="0.5" TL.SQHideShyTracks="0" TL.SQHeaderWidth="236" Monitor.ProgramZoomOut="365386775040000" Monitor.ProgramZoomIn="0" TL.SQTimePerPixel="2.2205228758169935" MZ.EditLine="359280230400000" MZ.Sequence.PreviewFrameSizeHeight="1080" MZ.Sequence.PreviewFrameSizeWidth="1920" MZ.Sequence.AudioTimeDisplayFormat="200" MZ.Sequence.PreviewRenderingClassID="1297106761" MZ.Sequence.PreviewRenderingPresetCodec="1297107278" MZ.Sequence.PreviewRenderingPresetPath="EncoderPresets\SequencePreview\d8484cf3-c96c-4622-ab1f-ac1a16e196f9\I-Frame Only MPEG.epr" MZ.Sequence.PreviewUseMaxRenderQuality="false" MZ.Sequence.PreviewUseMaxBitDepth="false" MZ.Sequence.EditingModeGUID="d8484cf3-c96c-4622-ab1f-ac1a16e196f9" MZ.Sequence.VideoTimeDisplayFormat="101" MZ.WorkOutPoint="72272632320000" MZ.WorkInPoint="0" MZ.ZeroPoint="11281612608000000" explodedTracks="true">
				<uuid>b73db25f-4cb0-47d5-a177-783ce3ce0f47</uuid>
				<duration>35961</duration>
				<rate>
					<timebase>25</timebase>
					<ntsc>FALSE</ntsc>
				</rate>
				<name>SYNC_1</name>
				<media>
					<video>
						<format>
							<samplecharacteristics>
								<rate>
									<timebase>25</timebase>
									<ntsc>FALSE</ntsc>
								</rate>
								<codec>
									<name>Apple ProRes 422</name>
									<appspecificdata>
										<appname>Final Cut Pro</appname>
										<appmanufacturer>Apple Inc.</appmanufacturer>
										<appversion>7.0</appversion>
										<data>
											<qtcodec>
												<codecname>Apple ProRes 422</codecname>
												<codectypename>Apple ProRes 422</codectypename>
												<codectypecode>apcn</codectypecode>
												<codecvendorcode>appl</codecvendorcode>
												<spatialquality>1024</spatialquality>
												<temporalquality>0</temporalquality>
												<keyframerate>0</keyframerate>
												<datarate>0</datarate>
											</qtcodec>
										</data>
									</appspecificdata>
								</codec>
								<width>2048</width>
								<height>1152</height>
								<anamorphic>FALSE</anamorphic>
								<pixelaspectratio>square</pixelaspectratio>
								<fielddominance>none</fielddominance>
								<colordepth>24</colordepth>
							</samplecharacteristics>
						</format>
						<track TL.SQTrackShy="0" TL.SQTrackExpandedHeight="25" TL.SQTrackExpanded="0" MZ.TrackTargeted="1">
							<clipitem id="clipitem-16">
								<masterclipid>masterclip-6</masterclipid>
								<name>A001_06071220_C001.mov</name>
								<enabled>TRUE</enabled>
								<duration>923</duration>
								<rate>
									<timebase>25</timebase>
									<ntsc>FALSE</ntsc>
								</rate>
								<start>0</start>
								<end>923</end>
								<in>0</in>
								<out>923</out>
								<pproTicksIn>0</pproTicksIn>
								<pproTicksOut>9378270720000</pproTicksOut>
								<alphatype>none</alphatype>
								<pixelaspectratio>square</pixelaspectratio>
								<anamorphic>FALSE</anamorphic>
								<file id="file-6">
									<name>A001_06071220_C001.mov</name>
									<pathurl>file://localhost/Q%3a/Projects/HAZEN_ALPHA/MEDIA_OCM/DAY%201/A001_06071220_C001.mov</pathurl>
									<rate>
										<timebase>25</timebase>
										<ntsc>FALSE</ntsc>
									</rate>
									<duration>923</duration>
									<timecode>
										<rate>
											<timebase>25</timebase>
											<ntsc>FALSE</ntsc>
										</rate>
										<string>12:20:13:00</string>
										<frame>1110325</frame>
										<displayformat>NDF</displayformat>
									</timecode>
									<media>
										<video>
											<samplecharacteristics>
												<rate>
													<timebase>25</timebase>
													<ntsc>FALSE</ntsc>
												</rate>
												<width>2048</width>
												<height>1152</height>
												<anamorphic>FALSE</anamorphic>
												<pixelaspectratio>square</pixelaspectratio>
												<fielddominance>none</fielddominance>
											</samplecharacteristics>
										</video>
										<audio>
											<samplecharacteristics>
												<depth>16</depth>
												<samplerate>48000</samplerate>
											</samplecharacteristics>
											<channelcount>2</channelcount>
										</audio>
									</media>
								</file>
									<marker>
										<comment></comment>
										<name></name>
										<in>103</in>
										<out>-1</out>
									</marker>
								<link>
									<linkclipref>clipitem-16</linkclipref>
									<mediatype>video</mediatype>
									<trackindex>1</trackindex>
									<clipindex>1</clipindex>
								</link>
								<link>
									<linkclipref>clipitem-21</linkclipref>
									<mediatype>audio</mediatype>
									<trackindex>1</trackindex>
									<clipindex>1</clipindex>
									<groupindex>1</groupindex>
								</link>
								<link>
									<linkclipref>clipitem-26</linkclipref>
									<mediatype>audio</mediatype>
									<trackindex>2</trackindex>
									<clipindex>1</clipindex>
									<groupindex>1</groupindex>
								</link>
								<logginginfo>
									<description></description>
									<scene></scene>
									<shottake></shottake>
									<lognote></lognote>
									<good></good>
									<originalvideofilename></originalvideofilename>
									<originalaudiofilename></originalaudiofilename>
								</logginginfo>
								<colorinfo>
									<lut></lut>
									<lut1></lut1>
									<asc_sop></asc_sop>
									<asc_sat></asc_sat>
									<lut2></lut2>
								</colorinfo>
								<labels>
									<label2>Iris</label2>
								</labels>
							</clipitem>
							<clipitem id="clipitem-17">
								<masterclipid>masterclip-7</masterclipid>
								<name>A001_06071221_C002.mov</name>
								<enabled>TRUE</enabled>
								<duration>918</duration>
								<rate>
									<timebase>25</timebase>
									<ntsc>FALSE</ntsc>
								</rate>
								<start>1926</start>
								<end>2844</end>
								<in>0</in>
								<out>918</out>
								<pproTicksIn>0</pproTicksIn>
								<pproTicksOut>9327467520000</pproTicksOut>
								<alphatype>none</alphatype>
								<pixelaspectratio>square</pixelaspectratio>
								<anamorphic>FALSE</anamorphic>
								<file id="file-7">
									<name>A001_06071221_C002.mov</name>
									<pathurl>file://localhost/Q%3a/Projects/HAZEN_ALPHA/MEDIA_OCM/DAY%201/A001_06071221_C002.mov</pathurl>
									<rate>
										<timebase>25</timebase>
										<ntsc>FALSE</ntsc>
									</rate>
									<duration>918</duration>
									<timecode>
										<rate>
											<timebase>25</timebase>
											<ntsc>FALSE</ntsc>
										</rate>
										<string>12:21:30:01</string>
										<frame>1112251</frame>
										<displayformat>NDF</displayformat>
									</timecode>
									<media>
										<video>
											<samplecharacteristics>
												<rate>
													<timebase>25</timebase>
													<ntsc>FALSE</ntsc>
												</rate>
												<width>2048</width>
												<height>1152</height>
												<anamorphic>FALSE</anamorphic>
												<pixelaspectratio>square</pixelaspectratio>
												<fielddominance>none</fielddominance>
											</samplecharacteristics>
										</video>
										<audio>
											<samplecharacteristics>
												<depth>16</depth>
												<samplerate>48000</samplerate>
											</samplecharacteristics>
											<channelcount>2</channelcount>
										</audio>
									</media>
								</file>
									<marker>
										<comment></comment>
										<name></name>
										<in>120</in>
										<out>-1</out>
									</marker>
								<link>
									<linkclipref>clipitem-17</linkclipref>
									<mediatype>video</mediatype>
									<trackindex>1</trackindex>
									<clipindex>2</clipindex>
								</link>
								<link>
									<linkclipref>clipitem-22</linkclipref>
									<mediatype>audio</mediatype>
									<trackindex>1</trackindex>
									<clipindex>2</clipindex>
									<groupindex>1</groupindex>
								</link>
								<link>
									<linkclipref>clipitem-27</linkclipref>
									<mediatype>audio</mediatype>
									<trackindex>2</trackindex>
									<clipindex>2</clipindex>
									<groupindex>1</groupindex>
								</link>
								<logginginfo>
									<description></description>
									<scene></scene>
									<shottake></shottake>
									<lognote></lognote>
									<good></good>
									<originalvideofilename></originalvideofilename>
									<originalaudiofilename></originalaudiofilename>
								</logginginfo>
								<colorinfo>
									<lut></lut>
									<lut1></lut1>
									<asc_sop></asc_sop>
									<asc_sat></asc_sat>
									<lut2></lut2>
								</colorinfo>
								<labels>
									<label2>Iris</label2>
								</labels>
							</clipitem>
							<clipitem id="clipitem-18">
								<masterclipid>masterclip-8</masterclipid>
								<name>A001_06071223_C003.mov</name>
								<enabled>TRUE</enabled>
								<duration>1798</duration>
								<rate>
									<timebase>25</timebase>
									<ntsc>FALSE</ntsc>
								</rate>
								<start>4820</start>
								<end>6618</end>
								<in>0</in>
								<out>1798</out>
								<pproTicksIn>0</pproTicksIn>
								<pproTicksOut>18268830720000</pproTicksOut>
								<alphatype>none</alphatype>
								<pixelaspectratio>square</pixelaspectratio>
								<anamorphic>FALSE</anamorphic>
								<file id="file-8">
									<name>A001_06071223_C003.mov</name>
									<pathurl>file://localhost/Q%3a/Projects/HAZEN_ALPHA/MEDIA_OCM/DAY%201/A001_06071223_C003.mov</pathurl>
									<rate>
										<timebase>25</timebase>
										<ntsc>FALSE</ntsc>
									</rate>
									<duration>1798</duration>
									<timecode>
										<rate>
											<timebase>25</timebase>
											<ntsc>FALSE</ntsc>
										</rate>
										<string>12:23:25:20</string>
										<frame>1115145</frame>
										<displayformat>NDF</displayformat>
									</timecode>
									<media>
										<video>
											<samplecharacteristics>
												<rate>
													<timebase>25</timebase>
													<ntsc>FALSE</ntsc>
												</rate>
												<width>2048</width>
												<height>1152</height>
												<anamorphic>FALSE</anamorphic>
												<pixelaspectratio>square</pixelaspectratio>
												<fielddominance>none</fielddominance>
											</samplecharacteristics>
										</video>
										<audio>
											<samplecharacteristics>
												<depth>16</depth>
												<samplerate>48000</samplerate>
											</samplecharacteristics>
											<channelcount>2</channelcount>
										</audio>
									</media>
								</file>
									<marker>
										<comment></comment>
										<name></name>
										<in>1123</in>
										<out>-1</out>
										<pproColor>4281828977</pproColor>
									</marker>
									<marker>
										<comment></comment>
										<name></name>
										<in>99</in>
										<out>-1</out>
									</marker>
								<link>
									<linkclipref>clipitem-18</linkclipref>
									<mediatype>video</mediatype>
									<trackindex>1</trackindex>
									<clipindex>3</clipindex>
								</link>
								<link>
									<linkclipref>clipitem-23</linkclipref>
									<mediatype>audio</mediatype>
									<trackindex>1</trackindex>
									<clipindex>3</clipindex>
									<groupindex>1</groupindex>
								</link>
								<link>
									<linkclipref>clipitem-28</linkclipref>
									<mediatype>audio</mediatype>
									<trackindex>2</trackindex>
									<clipindex>3</clipindex>
									<groupindex>1</groupindex>
								</link>
								<logginginfo>
									<description></description>
									<scene></scene>
									<shottake></shottake>
									<lognote></lognote>
									<good></good>
									<originalvideofilename></originalvideofilename>
									<originalaudiofilename></originalaudiofilename>
								</logginginfo>
								<colorinfo>
									<lut></lut>
									<lut1></lut1>
									<asc_sop></asc_sop>
									<asc_sat></asc_sat>
									<lut2></lut2>
								</colorinfo>
								<labels>
									<label2>Iris</label2>
								</labels>
							</clipitem>
							<clipitem id="clipitem-19">
								<masterclipid>masterclip-9</masterclipid>
								<name>A001_06071229_C004.mov</name>
								<enabled>TRUE</enabled>
								<duration>2873</duration>
								<rate>
									<timebase>25</timebase>
									<ntsc>FALSE</ntsc>
								</rate>
								<start>13763</start>
								<end>16636</end>
								<in>0</in>
								<out>2873</out>
								<pproTicksIn>0</pproTicksIn>
								<pproTicksOut>29191518720000</pproTicksOut>
								<alphatype>none</alphatype>
								<pixelaspectratio>square</pixelaspectratio>
								<anamorphic>FALSE</anamorphic>
								<file id="file-9">
									<name>A001_06071229_C004.mov</name>
									<pathurl>file://localhost/Q%3a/Projects/HAZEN_ALPHA/MEDIA_OCM/DAY%201/A001_06071229_C004.mov</pathurl>
									<rate>
										<timebase>25</timebase>
										<ntsc>FALSE</ntsc>
									</rate>
									<duration>2873</duration>
									<timecode>
										<rate>
											<timebase>25</timebase>
											<ntsc>FALSE</ntsc>
										</rate>
										<string>12:29:23:13</string>
										<frame>1124088</frame>
										<displayformat>NDF</displayformat>
									</timecode>
									<media>
										<video>
											<samplecharacteristics>
												<rate>
													<timebase>25</timebase>
													<ntsc>FALSE</ntsc>
												</rate>
												<width>2048</width>
												<height>1152</height>
												<anamorphic>FALSE</anamorphic>
												<pixelaspectratio>square</pixelaspectratio>
												<fielddominance>none</fielddominance>
											</samplecharacteristics>
										</video>
										<audio>
											<samplecharacteristics>
												<depth>16</depth>
												<samplerate>48000</samplerate>
											</samplecharacteristics>
											<channelcount>2</channelcount>
										</audio>
									</media>
								</file>
									<marker>
										<comment></comment>
										<name></name>
										<in>180</in>
										<out>-1</out>
										<pproColor>4281828977</pproColor>
									</marker>
									<marker>
										<comment></comment>
										<name></name>
										<in>2565</in>
										<out>-1</out>
										<pproColor>4281828977</pproColor>
									</marker>
								<link>
									<linkclipref>clipitem-19</linkclipref>
									<mediatype>video</mediatype>
									<trackindex>1</trackindex>
									<clipindex>4</clipindex>
								</link>
								<link>
									<linkclipref>clipitem-24</linkclipref>
									<mediatype>audio</mediatype>
									<trackindex>1</trackindex>
									<clipindex>4</clipindex>
									<groupindex>1</groupindex>
								</link>
								<link>
									<linkclipref>clipitem-29</linkclipref>
									<mediatype>audio</mediatype>
									<trackindex>2</trackindex>
									<clipindex>4</clipindex>
									<groupindex>1</groupindex>
								</link>
								<logginginfo>
									<description></description>
									<scene></scene>
									<shottake></shottake>
									<lognote></lognote>
									<good></good>
									<originalvideofilename></originalvideofilename>
									<originalaudiofilename></originalaudiofilename>
								</logginginfo>
								<colorinfo>
									<lut></lut>
									<lut1></lut1>
									<asc_sop></asc_sop>
									<asc_sat></asc_sat>
									<lut2></lut2>
								</colorinfo>
								<labels>
									<label2>Iris</label2>
								</labels>
							</clipitem>
							<clipitem id="clipitem-20">
								<masterclipid>masterclip-10</masterclipid>
								<name>A001_06071243_C005.mov</name>
								<enabled>TRUE</enabled>
								<duration>601</duration>
								<rate>
									<timebase>25</timebase>
									<ntsc>FALSE</ntsc>
								</rate>
								<start>35360</start>
								<end>35961</end>
								<in>0</in>
								<out>601</out>
								<pproTicksIn>0</pproTicksIn>
								<pproTicksOut>6106544640000</pproTicksOut>
								<alphatype>none</alphatype>
								<pixelaspectratio>square</pixelaspectratio>
								<anamorphic>FALSE</anamorphic>
								<file id="file-10">
									<name>A001_06071243_C005.mov</name>
									<pathurl>file://localhost/Q%3a/Projects/HAZEN_ALPHA/MEDIA_OCM/DAY%201/A001_06071243_C005.mov</pathurl>
									<rate>
										<timebase>25</timebase>
										<ntsc>FALSE</ntsc>
									</rate>
									<duration>601</duration>
									<timecode>
										<rate>
											<timebase>25</timebase>
											<ntsc>FALSE</ntsc>
										</rate>
										<string>12:43:47:10</string>
										<frame>1145685</frame>
										<displayformat>NDF</displayformat>
									</timecode>
									<media>
										<video>
											<samplecharacteristics>
												<rate>
													<timebase>25</timebase>
													<ntsc>FALSE</ntsc>
												</rate>
												<width>2048</width>
												<height>1152</height>
												<anamorphic>FALSE</anamorphic>
												<pixelaspectratio>square</pixelaspectratio>
												<fielddominance>none</fielddominance>
											</samplecharacteristics>
										</video>
										<audio>
											<samplecharacteristics>
												<depth>16</depth>
												<samplerate>48000</samplerate>
											</samplecharacteristics>
											<channelcount>2</channelcount>
										</audio>
									</media>
								</file>
									<marker>
										<comment></comment>
										<name></name>
										<in>68</in>
										<out>485</out>
										<pproColor>4281740498</pproColor>
									</marker>
								<link>
									<linkclipref>clipitem-20</linkclipref>
									<mediatype>video</mediatype>
									<trackindex>1</trackindex>
									<clipindex>5</clipindex>
								</link>
								<link>
									<linkclipref>clipitem-25</linkclipref>
									<mediatype>audio</mediatype>
									<trackindex>1</trackindex>
									<clipindex>5</clipindex>
									<groupindex>1</groupindex>
								</link>
								<link>
									<linkclipref>clipitem-30</linkclipref>
									<mediatype>audio</mediatype>
									<trackindex>2</trackindex>
									<clipindex>5</clipindex>
									<groupindex>1</groupindex>
								</link>
								<logginginfo>
									<description></description>
									<scene></scene>
									<shottake></shottake>
									<lognote></lognote>
									<good></good>
									<originalvideofilename></originalvideofilename>
									<originalaudiofilename></originalaudiofilename>
								</logginginfo>
								<colorinfo>
									<lut></lut>
									<lut1></lut1>
									<asc_sop></asc_sop>
									<asc_sat></asc_sat>
									<lut2></lut2>
								</colorinfo>
								<labels>
									<label2>Iris</label2>
								</labels>
							</clipitem>
							<enabled>TRUE</enabled>
							<locked>FALSE</locked>
						</track>
						<track TL.SQTrackShy="0" TL.SQTrackExpandedHeight="25" TL.SQTrackExpanded="0" MZ.TrackTargeted="0">
							<enabled>TRUE</enabled>
							<locked>FALSE</locked>
						</track>
						<track TL.SQTrackShy="0" TL.SQTrackExpandedHeight="25" TL.SQTrackExpanded="0" MZ.TrackTargeted="0">
							<enabled>TRUE</enabled>
							<locked>FALSE</locked>
						</track>
					</video>
					<audio>
						<numOutputChannels>2</numOutputChannels>
						<format>
							<samplecharacteristics>
								<depth>16</depth>
								<samplerate>48000</samplerate>
							</samplecharacteristics>
						</format>
						<outputs>
							<group>
								<index>1</index>
								<numchannels>1</numchannels>
								<downmix>0</downmix>
								<channel>
									<index>1</index>
								</channel>
							</group>
							<group>
								<index>2</index>
								<numchannels>1</numchannels>
								<downmix>0</downmix>
								<channel>
									<index>2</index>
								</channel>
							</group>
						</outputs>
						<track TL.SQTrackAudioKeyframeStyle="0" TL.SQTrackShy="0" TL.SQTrackExpandedHeight="25" TL.SQTrackExpanded="0" MZ.TrackTargeted="1" PannerCurrentValue="0.5" PannerStartKeyframe="-91445760000000000,0.5,0,0,0,0,0,0" PannerName="Balance" currentExplodedTrackIndex="0" totalExplodedTrackCount="2" premiereTrackType="Stereo">
							<clipitem id="clipitem-21" premiereChannelType="stereo">
								<masterclipid>masterclip-6</masterclipid>
								<name>A001_06071220_C001.mov</name>
								<enabled>TRUE</enabled>
								<duration>923</duration>
								<rate>
									<timebase>25</timebase>
									<ntsc>FALSE</ntsc>
								</rate>
								<start>0</start>
								<end>923</end>
								<in>0</in>
								<out>923</out>
								<pproTicksIn>0</pproTicksIn>
								<pproTicksOut>9378270720000</pproTicksOut>
								<file id="file-6"/>
								<sourcetrack>
									<mediatype>audio</mediatype>
									<trackindex>1</trackindex>
								</sourcetrack>
									<marker>
										<comment></comment>
										<name></name>
										<in>103</in>
										<out>-1</out>
									</marker>
								<link>
									<linkclipref>clipitem-16</linkclipref>
									<mediatype>video</mediatype>
									<trackindex>1</trackindex>
									<clipindex>1</clipindex>
								</link>
								<link>
									<linkclipref>clipitem-21</linkclipref>
									<mediatype>audio</mediatype>
									<trackindex>1</trackindex>
									<clipindex>1</clipindex>
									<groupindex>1</groupindex>
								</link>
								<link>
									<linkclipref>clipitem-26</linkclipref>
									<mediatype>audio</mediatype>
									<trackindex>2</trackindex>
									<clipindex>1</clipindex>
									<groupindex>1</groupindex>
								</link>
								<logginginfo>
									<description></description>
									<scene></scene>
									<shottake></shottake>
									<lognote></lognote>
									<good></good>
									<originalvideofilename></originalvideofilename>
									<originalaudiofilename></originalaudiofilename>
								</logginginfo>
								<colorinfo>
									<lut></lut>
									<lut1></lut1>
									<asc_sop></asc_sop>
									<asc_sat></asc_sat>
									<lut2></lut2>
								</colorinfo>
								<labels>
									<label2>Iris</label2>
								</labels>
							</clipitem>
							<clipitem id="clipitem-22" premiereChannelType="stereo">
								<masterclipid>masterclip-7</masterclipid>
								<name>A001_06071221_C002.mov</name>
								<enabled>TRUE</enabled>
								<duration>918</duration>
								<rate>
									<timebase>25</timebase>
									<ntsc>FALSE</ntsc>
								</rate>
								<start>1926</start>
								<end>2844</end>
								<in>0</in>
								<out>918</out>
								<pproTicksIn>0</pproTicksIn>
								<pproTicksOut>9327467520000</pproTicksOut>
								<file id="file-7"/>
								<sourcetrack>
									<mediatype>audio</mediatype>
									<trackindex>1</trackindex>
								</sourcetrack>
									<marker>
										<comment></comment>
										<name></name>
										<in>120</in>
										<out>-1</out>
									</marker>
								<link>
									<linkclipref>clipitem-17</linkclipref>
									<mediatype>video</mediatype>
									<trackindex>1</trackindex>
									<clipindex>2</clipindex>
								</link>
								<link>
									<linkclipref>clipitem-22</linkclipref>
									<mediatype>audio</mediatype>
									<trackindex>1</trackindex>
									<clipindex>2</clipindex>
									<groupindex>1</groupindex>
								</link>
								<link>
									<linkclipref>clipitem-27</linkclipref>
									<mediatype>audio</mediatype>
									<trackindex>2</trackindex>
									<clipindex>2</clipindex>
									<groupindex>1</groupindex>
								</link>
								<logginginfo>
									<description></description>
									<scene></scene>
									<shottake></shottake>
									<lognote></lognote>
									<good></good>
									<originalvideofilename></originalvideofilename>
									<originalaudiofilename></originalaudiofilename>
								</logginginfo>
								<colorinfo>
									<lut></lut>
									<lut1></lut1>
									<asc_sop></asc_sop>
									<asc_sat></asc_sat>
									<lut2></lut2>
								</colorinfo>
								<labels>
									<label2>Iris</label2>
								</labels>
							</clipitem>
							<clipitem id="clipitem-23" premiereChannelType="stereo">
								<masterclipid>masterclip-8</masterclipid>
								<name>A001_06071223_C003.mov</name>
								<enabled>TRUE</enabled>
								<duration>1798</duration>
								<rate>
									<timebase>25</timebase>
									<ntsc>FALSE</ntsc>
								</rate>
								<start>4820</start>
								<end>6618</end>
								<in>0</in>
								<out>1798</out>
								<pproTicksIn>0</pproTicksIn>
								<pproTicksOut>18268830720000</pproTicksOut>
								<file id="file-8"/>
								<sourcetrack>
									<mediatype>audio</mediatype>
									<trackindex>1</trackindex>
								</sourcetrack>
									<marker>
										<comment></comment>
										<name></name>
										<in>1123</in>
										<out>-1</out>
										<pproColor>4281828977</pproColor>
									</marker>
									<marker>
										<comment></comment>
										<name></name>
										<in>99</in>
										<out>-1</out>
									</marker>
								<link>
									<linkclipref>clipitem-18</linkclipref>
									<mediatype>video</mediatype>
									<trackindex>1</trackindex>
									<clipindex>3</clipindex>
								</link>
								<link>
									<linkclipref>clipitem-23</linkclipref>
									<mediatype>audio</mediatype>
									<trackindex>1</trackindex>
									<clipindex>3</clipindex>
									<groupindex>1</groupindex>
								</link>
								<link>
									<linkclipref>clipitem-28</linkclipref>
									<mediatype>audio</mediatype>
									<trackindex>2</trackindex>
									<clipindex>3</clipindex>
									<groupindex>1</groupindex>
								</link>
								<logginginfo>
									<description></description>
									<scene></scene>
									<shottake></shottake>
									<lognote></lognote>
									<good></good>
									<originalvideofilename></originalvideofilename>
									<originalaudiofilename></originalaudiofilename>
								</logginginfo>
								<colorinfo>
									<lut></lut>
									<lut1></lut1>
									<asc_sop></asc_sop>
									<asc_sat></asc_sat>
									<lut2></lut2>
								</colorinfo>
								<labels>
									<label2>Iris</label2>
								</labels>
							</clipitem>
							<clipitem id="clipitem-24" premiereChannelType="stereo">
								<masterclipid>masterclip-9</masterclipid>
								<name>A001_06071229_C004.mov</name>
								<enabled>TRUE</enabled>
								<duration>2873</duration>
								<rate>
									<timebase>25</timebase>
									<ntsc>FALSE</ntsc>
								</rate>
								<start>13763</start>
								<end>16636</end>
								<in>0</in>
								<out>2873</out>
								<pproTicksIn>0</pproTicksIn>
								<pproTicksOut>29191518720000</pproTicksOut>
								<file id="file-9"/>
								<sourcetrack>
									<mediatype>audio</mediatype>
									<trackindex>1</trackindex>
								</sourcetrack>
									<marker>
										<comment></comment>
										<name></name>
										<in>180</in>
										<out>-1</out>
										<pproColor>4281828977</pproColor>
									</marker>
									<marker>
										<comment></comment>
										<name></name>
										<in>2565</in>
										<out>-1</out>
										<pproColor>4281828977</pproColor>
									</marker>
								<link>
									<linkclipref>clipitem-19</linkclipref>
									<mediatype>video</mediatype>
									<trackindex>1</trackindex>
									<clipindex>4</clipindex>
								</link>
								<link>
									<linkclipref>clipitem-24</linkclipref>
									<mediatype>audio</mediatype>
									<trackindex>1</trackindex>
									<clipindex>4</clipindex>
									<groupindex>1</groupindex>
								</link>
								<link>
									<linkclipref>clipitem-29</linkclipref>
									<mediatype>audio</mediatype>
									<trackindex>2</trackindex>
									<clipindex>4</clipindex>
									<groupindex>1</groupindex>
								</link>
								<logginginfo>
									<description></description>
									<scene></scene>
									<shottake></shottake>
									<lognote></lognote>
									<good></good>
									<originalvideofilename></originalvideofilename>
									<originalaudiofilename></originalaudiofilename>
								</logginginfo>
								<colorinfo>
									<lut></lut>
									<lut1></lut1>
									<asc_sop></asc_sop>
									<asc_sat></asc_sat>
									<lut2></lut2>
								</colorinfo>
								<labels>
									<label2>Iris</label2>
								</labels>
							</clipitem>
							<clipitem id="clipitem-25" premiereChannelType="stereo">
								<masterclipid>masterclip-10</masterclipid>
								<name>A001_06071243_C005.mov</name>
								<enabled>TRUE</enabled>
								<duration>601</duration>
								<rate>
									<timebase>25</timebase>
									<ntsc>FALSE</ntsc>
								</rate>
								<start>35360</start>
								<end>35961</end>
								<in>0</in>
								<out>601</out>
								<pproTicksIn>0</pproTicksIn>
								<pproTicksOut>6106544640000</pproTicksOut>
								<file id="file-10"/>
								<sourcetrack>
									<mediatype>audio</mediatype>
									<trackindex>1</trackindex>
								</sourcetrack>
									<marker>
										<comment></comment>
										<name></name>
										<in>68</in>
										<out>485</out>
										<pproColor>4281740498</pproColor>
									</marker>
								<link>
									<linkclipref>clipitem-20</linkclipref>
									<mediatype>video</mediatype>
									<trackindex>1</trackindex>
									<clipindex>5</clipindex>
								</link>
								<link>
									<linkclipref>clipitem-25</linkclipref>
									<mediatype>audio</mediatype>
									<trackindex>1</trackindex>
									<clipindex>5</clipindex>
									<groupindex>1</groupindex>
								</link>
								<link>
									<linkclipref>clipitem-30</linkclipref>
									<mediatype>audio</mediatype>
									<trackindex>2</trackindex>
									<clipindex>5</clipindex>
									<groupindex>1</groupindex>
								</link>
								<logginginfo>
									<description></description>
									<scene></scene>
									<shottake></shottake>
									<lognote></lognote>
									<good></good>
									<originalvideofilename></originalvideofilename>
									<originalaudiofilename></originalaudiofilename>
								</logginginfo>
								<colorinfo>
									<lut></lut>
									<lut1></lut1>
									<asc_sop></asc_sop>
									<asc_sat></asc_sat>
									<lut2></lut2>
								</colorinfo>
								<labels>
									<label2>Iris</label2>
								</labels>
							</clipitem>
							<enabled>TRUE</enabled>
							<locked>FALSE</locked>
							<outputchannelindex>1</outputchannelindex>
						</track>
						<track TL.SQTrackAudioKeyframeStyle="0" TL.SQTrackShy="0" TL.SQTrackExpandedHeight="25" TL.SQTrackExpanded="0" MZ.TrackTargeted="1" PannerCurrentValue="0.5" PannerStartKeyframe="-91445760000000000,0.5,0,0,0,0,0,0" PannerName="Balance" currentExplodedTrackIndex="1" totalExplodedTrackCount="2" premiereTrackType="Stereo">
							<clipitem id="clipitem-26" premiereChannelType="stereo">
								<masterclipid>masterclip-6</masterclipid>
								<name>A001_06071220_C001.mov</name>
								<enabled>TRUE</enabled>
								<duration>923</duration>
								<rate>
									<timebase>25</timebase>
									<ntsc>FALSE</ntsc>
								</rate>
								<start>0</start>
								<end>923</end>
								<in>0</in>
								<out>923</out>
								<pproTicksIn>0</pproTicksIn>
								<pproTicksOut>9378270720000</pproTicksOut>
								<file id="file-6"/>
								<sourcetrack>
									<mediatype>audio</mediatype>
									<trackindex>2</trackindex>
								</sourcetrack>
									<marker>
										<comment></comment>
										<name></name>
										<in>103</in>
										<out>-1</out>
									</marker>
								<link>
									<linkclipref>clipitem-16</linkclipref>
									<mediatype>video</mediatype>
									<trackindex>1</trackindex>
									<clipindex>1</clipindex>
								</link>
								<link>
									<linkclipref>clipitem-21</linkclipref>
									<mediatype>audio</mediatype>
									<trackindex>1</trackindex>
									<clipindex>1</clipindex>
									<groupindex>1</groupindex>
								</link>
								<link>
									<linkclipref>clipitem-26</linkclipref>
									<mediatype>audio</mediatype>
									<trackindex>2</trackindex>
									<clipindex>1</clipindex>
									<groupindex>1</groupindex>
								</link>
								<logginginfo>
									<description></description>
									<scene></scene>
									<shottake></shottake>
									<lognote></lognote>
									<good></good>
									<originalvideofilename></originalvideofilename>
									<originalaudiofilename></originalaudiofilename>
								</logginginfo>
								<colorinfo>
									<lut></lut>
									<lut1></lut1>
									<asc_sop></asc_sop>
									<asc_sat></asc_sat>
									<lut2></lut2>
								</colorinfo>
								<labels>
									<label2>Iris</label2>
								</labels>
							</clipitem>
							<clipitem id="clipitem-27" premiereChannelType="stereo">
								<masterclipid>masterclip-7</masterclipid>
								<name>A001_06071221_C002.mov</name>
								<enabled>TRUE</enabled>
								<duration>918</duration>
								<rate>
									<timebase>25</timebase>
									<ntsc>FALSE</ntsc>
								</rate>
								<start>1926</start>
								<end>2844</end>
								<in>0</in>
								<out>918</out>
								<pproTicksIn>0</pproTicksIn>
								<pproTicksOut>9327467520000</pproTicksOut>
								<file id="file-7"/>
								<sourcetrack>
									<mediatype>audio</mediatype>
									<trackindex>2</trackindex>
								</sourcetrack>
									<marker>
										<comment></comment>
										<name></name>
										<in>120</in>
										<out>-1</out>
									</marker>
								<link>
									<linkclipref>clipitem-17</linkclipref>
									<mediatype>video</mediatype>
									<trackindex>1</trackindex>
									<clipindex>2</clipindex>
								</link>
								<link>
									<linkclipref>clipitem-22</linkclipref>
									<mediatype>audio</mediatype>
									<trackindex>1</trackindex>
									<clipindex>2</clipindex>
									<groupindex>1</groupindex>
								</link>
								<link>
									<linkclipref>clipitem-27</linkclipref>
									<mediatype>audio</mediatype>
									<trackindex>2</trackindex>
									<clipindex>2</clipindex>
									<groupindex>1</groupindex>
								</link>
								<logginginfo>
									<description></description>
									<scene></scene>
									<shottake></shottake>
									<lognote></lognote>
									<good></good>
									<originalvideofilename></originalvideofilename>
									<originalaudiofilename></originalaudiofilename>
								</logginginfo>
								<colorinfo>
									<lut></lut>
									<lut1></lut1>
									<asc_sop></asc_sop>
									<asc_sat></asc_sat>
									<lut2></lut2>
								</colorinfo>
								<labels>
									<label2>Iris</label2>
								</labels>
							</clipitem>
							<clipitem id="clipitem-28" premiereChannelType="stereo">
								<masterclipid>masterclip-8</masterclipid>
								<name>A001_06071223_C003.mov</name>
								<enabled>TRUE</enabled>
								<duration>1798</duration>
								<rate>
									<timebase>25</timebase>
									<ntsc>FALSE</ntsc>
								</rate>
								<start>4820</start>
								<end>6618</end>
								<in>0</in>
								<out>1798</out>
								<pproTicksIn>0</pproTicksIn>
								<pproTicksOut>18268830720000</pproTicksOut>
								<file id="file-8"/>
								<sourcetrack>
									<mediatype>audio</mediatype>
									<trackindex>2</trackindex>
								</sourcetrack>
									<marker>
										<comment></comment>
										<name></name>
										<in>1123</in>
										<out>-1</out>
										<pproColor>4281828977</pproColor>
									</marker>
									<marker>
										<comment></comment>
										<name></name>
										<in>99</in>
										<out>-1</out>
									</marker>
								<link>
									<linkclipref>clipitem-18</linkclipref>
									<mediatype>video</mediatype>
									<trackindex>1</trackindex>
									<clipindex>3</clipindex>
								</link>
								<link>
									<linkclipref>clipitem-23</linkclipref>
									<mediatype>audio</mediatype>
									<trackindex>1</trackindex>
									<clipindex>3</clipindex>
									<groupindex>1</groupindex>
								</link>
								<link>
									<linkclipref>clipitem-28</linkclipref>
									<mediatype>audio</mediatype>
									<trackindex>2</trackindex>
									<clipindex>3</clipindex>
									<groupindex>1</groupindex>
								</link>
								<logginginfo>
									<description></description>
									<scene></scene>
									<shottake></shottake>
									<lognote></lognote>
									<good></good>
									<originalvideofilename></originalvideofilename>
									<originalaudiofilename></originalaudiofilename>
								</logginginfo>
								<colorinfo>
									<lut></lut>
									<lut1></lut1>
									<asc_sop></asc_sop>
									<asc_sat></asc_sat>
									<lut2></lut2>
								</colorinfo>
								<labels>
									<label2>Iris</label2>
								</labels>
							</clipitem>
							<clipitem id="clipitem-29" premiereChannelType="stereo">
								<masterclipid>masterclip-9</masterclipid>
								<name>A001_06071229_C004.mov</name>
								<enabled>TRUE</enabled>
								<duration>2873</duration>
								<rate>
									<timebase>25</timebase>
									<ntsc>FALSE</ntsc>
								</rate>
								<start>13763</start>
								<end>16636</end>
								<in>0</in>
								<out>2873</out>
								<pproTicksIn>0</pproTicksIn>
								<pproTicksOut>29191518720000</pproTicksOut>
								<file id="file-9"/>
								<sourcetrack>
									<mediatype>audio</mediatype>
									<trackindex>2</trackindex>
								</sourcetrack>
									<marker>
										<comment></comment>
										<name></name>
										<in>180</in>
										<out>-1</out>
										<pproColor>4281828977</pproColor>
									</marker>
									<marker>
										<comment></comment>
										<name></name>
										<in>2565</in>
										<out>-1</out>
										<pproColor>4281828977</pproColor>
									</marker>
								<link>
									<linkclipref>clipitem-19</linkclipref>
									<mediatype>video</mediatype>
									<trackindex>1</trackindex>
									<clipindex>4</clipindex>
								</link>
								<link>
									<linkclipref>clipitem-24</linkclipref>
									<mediatype>audio</mediatype>
									<trackindex>1</trackindex>
									<clipindex>4</clipindex>
									<groupindex>1</groupindex>
								</link>
								<link>
									<linkclipref>clipitem-29</linkclipref>
									<mediatype>audio</mediatype>
									<trackindex>2</trackindex>
									<clipindex>4</clipindex>
									<groupindex>1</groupindex>
								</link>
								<logginginfo>
									<description></description>
									<scene></scene>
									<shottake></shottake>
									<lognote></lognote>
									<good></good>
									<originalvideofilename></originalvideofilename>
									<originalaudiofilename></originalaudiofilename>
								</logginginfo>
								<colorinfo>
									<lut></lut>
									<lut1></lut1>
									<asc_sop></asc_sop>
									<asc_sat></asc_sat>
									<lut2></lut2>
								</colorinfo>
								<labels>
									<label2>Iris</label2>
								</labels>
							</clipitem>
							<clipitem id="clipitem-30" premiereChannelType="stereo">
								<masterclipid>masterclip-10</masterclipid>
								<name>A001_06071243_C005.mov</name>
								<enabled>TRUE</enabled>
								<duration>601</duration>
								<rate>
									<timebase>25</timebase>
									<ntsc>FALSE</ntsc>
								</rate>
								<start>35360</start>
								<end>35961</end>
								<in>0</in>
								<out>601</out>
								<pproTicksIn>0</pproTicksIn>
								<pproTicksOut>6106544640000</pproTicksOut>
								<file id="file-10"/>
								<sourcetrack>
									<mediatype>audio</mediatype>
									<trackindex>2</trackindex>
								</sourcetrack>
									<marker>
										<comment></comment>
										<name></name>
										<in>68</in>
										<out>485</out>
										<pproColor>4281740498</pproColor>
									</marker>
								<link>
									<linkclipref>clipitem-20</linkclipref>
									<mediatype>video</mediatype>
									<trackindex>1</trackindex>
									<clipindex>5</clipindex>
								</link>
								<link>
									<linkclipref>clipitem-25</linkclipref>
									<mediatype>audio</mediatype>
									<trackindex>1</trackindex>
									<clipindex>5</clipindex>
									<groupindex>1</groupindex>
								</link>
								<link>
									<linkclipref>clipitem-30</linkclipref>
									<mediatype>audio</mediatype>
									<trackindex>2</trackindex>
									<clipindex>5</clipindex>
									<groupindex>1</groupindex>
								</link>
								<logginginfo>
									<description></description>
									<scene></scene>
									<shottake></shottake>
									<lognote></lognote>
									<good></good>
									<originalvideofilename></originalvideofilename>
									<originalaudiofilename></originalaudiofilename>
								</logginginfo>
								<colorinfo>
									<lut></lut>
									<lut1></lut1>
									<asc_sop></asc_sop>
									<asc_sat></asc_sat>
									<lut2></lut2>
								</colorinfo>
								<labels>
									<label2>Iris</label2>
								</labels>
							</clipitem>
							<enabled>TRUE</enabled>
							<locked>FALSE</locked>
							<outputchannelindex>2</outputchannelindex>
						</track>
						<track TL.SQTrackAudioKeyframeStyle="0" TL.SQTrackShy="0" TL.SQTrackExpandedHeight="25" TL.SQTrackExpanded="0" MZ.TrackTargeted="1" PannerCurrentValue="0.5" PannerStartKeyframe="-91445760000000000,0.5,0,0,0,0,0,0" PannerName="Balance" currentExplodedTrackIndex="0" totalExplodedTrackCount="2" premiereTrackType="Stereo">
							<enabled>TRUE</enabled>
							<locked>FALSE</locked>
							<outputchannelindex>1</outputchannelindex>
						</track>
						<track TL.SQTrackAudioKeyframeStyle="0" TL.SQTrackShy="0" TL.SQTrackExpandedHeight="25" TL.SQTrackExpanded="0" MZ.TrackTargeted="1" PannerCurrentValue="0.5" PannerStartKeyframe="-91445760000000000,0.5,0,0,0,0,0,0" PannerName="Balance" currentExplodedTrackIndex="1" totalExplodedTrackCount="2" premiereTrackType="Stereo">
							<enabled>TRUE</enabled>
							<locked>FALSE</locked>
							<outputchannelindex>2</outputchannelindex>
						</track>
						<track TL.SQTrackAudioKeyframeStyle="0" TL.SQTrackShy="0" TL.SQTrackExpandedHeight="25" TL.SQTrackExpanded="0" MZ.TrackTargeted="1" PannerCurrentValue="0.5" PannerStartKeyframe="-91445760000000000,0.5,0,0,0,0,0,0" PannerName="Balance" currentExplodedTrackIndex="0" totalExplodedTrackCount="2" premiereTrackType="Stereo">
							<enabled>TRUE</enabled>
							<locked>FALSE</locked>
							<outputchannelindex>1</outputchannelindex>
						</track>
						<track TL.SQTrackAudioKeyframeStyle="0" TL.SQTrackShy="0" TL.SQTrackExpandedHeight="25" TL.SQTrackExpanded="0" MZ.TrackTargeted="1" PannerCurrentValue="0.5" PannerStartKeyframe="-91445760000000000,0.5,0,0,0,0,0,0" PannerName="Balance" currentExplodedTrackIndex="1" totalExplodedTrackCount="2" premiereTrackType="Stereo">
							<enabled>TRUE</enabled>
							<locked>FALSE</locked>
							<outputchannelindex>2</outputchannelindex>
						</track>
					</audio>
				</media>
				<timecode>
					<rate>
						<timebase>25</timebase>
						<ntsc>FALSE</ntsc>
					</rate>
					<string>12:20:13:00</string>
					<frame>1110325</frame>
					<displayformat>NDF</displayformat>
				</timecode>
				<labels>
					<label2>Forest</label2>
				</labels>
				<logginginfo>
					<description></description>
					<scene></scene>
					<shottake></shottake>
					<lognote></lognote>
					<good></good>
					<originalvideofilename></originalvideofilename>
					<originalaudiofilename></originalaudiofilename>
				</logginginfo>
			</sequence>
			<bin>
				<name>MASTER</name>
				<labels>
					<label2>Mango</label2>
				</labels>
				<children>
					<clip id="masterclip-6" explodedTracks="true">
						<uuid>494f3dbd-aac7-4f8d-b39e-d7f6247957f1</uuid>
						<masterclipid>masterclip-6</masterclipid>
						<ismasterclip>TRUE</ismasterclip>
						<duration>923</duration>
						<rate>
							<timebase>25</timebase>
							<ntsc>FALSE</ntsc>
						</rate>
						<name>A001_06071220_C001.mov</name>
						<media>
							<video>
								<track>
									<clipitem id="clipitem-31">
										<masterclipid>masterclip-6</masterclipid>
										<name>A001_06071220_C001.mov</name>
										<rate>
											<timebase>25</timebase>
											<ntsc>FALSE</ntsc>
										</rate>
										<alphatype>none</alphatype>
										<file id="file-6"/>
										<link>
											<linkclipref>clipitem-31</linkclipref>
											<mediatype>video</mediatype>
											<trackindex>1</trackindex>
											<clipindex>1</clipindex>
										</link>
										<link>
											<linkclipref>clipitem-32</linkclipref>
											<mediatype>audio</mediatype>
											<trackindex>1</trackindex>
											<clipindex>1</clipindex>
											<groupindex>1</groupindex>
										</link>
										<link>
											<linkclipref>clipitem-33</linkclipref>
											<mediatype>audio</mediatype>
											<trackindex>2</trackindex>
											<clipindex>1</clipindex>
											<groupindex>1</groupindex>
										</link>
									</clipitem>
								</track>
							</video>
							<audio>
								<track>
									<clipitem id="clipitem-32">
										<masterclipid>masterclip-6</masterclipid>
										<name>A001_06071220_C001.mov</name>
										<rate>
											<timebase>25</timebase>
											<ntsc>FALSE</ntsc>
										</rate>
										<file id="file-6"/>
										<sourcetrack>
											<mediatype>audio</mediatype>
											<trackindex>1</trackindex>
										</sourcetrack>
										<link>
											<linkclipref>clipitem-31</linkclipref>
											<mediatype>video</mediatype>
											<trackindex>1</trackindex>
											<clipindex>1</clipindex>
										</link>
										<link>
											<linkclipref>clipitem-32</linkclipref>
											<mediatype>audio</mediatype>
											<trackindex>1</trackindex>
											<clipindex>1</clipindex>
											<groupindex>1</groupindex>
										</link>
										<link>
											<linkclipref>clipitem-33</linkclipref>
											<mediatype>audio</mediatype>
											<trackindex>2</trackindex>
											<clipindex>1</clipindex>
											<groupindex>1</groupindex>
										</link>
									</clipitem>
								</track>
								<track>
									<clipitem id="clipitem-33">
										<masterclipid>masterclip-6</masterclipid>
										<name>A001_06071220_C001.mov</name>
										<rate>
											<timebase>25</timebase>
											<ntsc>FALSE</ntsc>
										</rate>
										<file id="file-6"/>
										<sourcetrack>
											<mediatype>audio</mediatype>
											<trackindex>2</trackindex>
										</sourcetrack>
										<link>
											<linkclipref>clipitem-31</linkclipref>
											<mediatype>video</mediatype>
											<trackindex>1</trackindex>
											<clipindex>1</clipindex>
										</link>
										<link>
											<linkclipref>clipitem-32</linkclipref>
											<mediatype>audio</mediatype>
											<trackindex>1</trackindex>
											<clipindex>1</clipindex>
											<groupindex>1</groupindex>
										</link>
										<link>
											<linkclipref>clipitem-33</linkclipref>
											<mediatype>audio</mediatype>
											<trackindex>2</trackindex>
											<clipindex>1</clipindex>
											<groupindex>1</groupindex>
										</link>
									</clipitem>
								</track>
							</audio>
						</media>
							<marker>
								<comment></comment>
								<name></name>
								<in>103</in>
								<out>-1</out>
							</marker>
						<logginginfo>
							<description></description>
							<scene></scene>
							<shottake></shottake>
							<lognote></lognote>
							<good></good>
							<originalvideofilename></originalvideofilename>
							<originalaudiofilename></originalaudiofilename>
						</logginginfo>
						<colorinfo>
							<lut></lut>
							<lut1></lut1>
							<asc_sop></asc_sop>
							<asc_sat></asc_sat>
							<lut2></lut2>
						</colorinfo>
						<labels>
							<label2>Iris</label2>
						</labels>
					</clip>
					<clip id="masterclip-7" explodedTracks="true">
						<uuid>6b838da7-dd03-43e0-ad7d-804c8b84cd6f</uuid>
						<masterclipid>masterclip-7</masterclipid>
						<ismasterclip>TRUE</ismasterclip>
						<duration>918</duration>
						<rate>
							<timebase>25</timebase>
							<ntsc>FALSE</ntsc>
						</rate>
						<name>A001_06071221_C002.mov</name>
						<media>
							<video>
								<track>
									<clipitem id="clipitem-34">
										<masterclipid>masterclip-7</masterclipid>
										<name>A001_06071221_C002.mov</name>
										<rate>
											<timebase>25</timebase>
											<ntsc>FALSE</ntsc>
										</rate>
										<alphatype>none</alphatype>
										<file id="file-7"/>
										<link>
											<linkclipref>clipitem-34</linkclipref>
											<mediatype>video</mediatype>
											<trackindex>1</trackindex>
											<clipindex>1</clipindex>
										</link>
										<link>
											<linkclipref>clipitem-35</linkclipref>
											<mediatype>audio</mediatype>
											<trackindex>1</trackindex>
											<clipindex>1</clipindex>
											<groupindex>1</groupindex>
										</link>
										<link>
											<linkclipref>clipitem-36</linkclipref>
											<mediatype>audio</mediatype>
											<trackindex>2</trackindex>
											<clipindex>1</clipindex>
											<groupindex>1</groupindex>
										</link>
									</clipitem>
								</track>
							</video>
							<audio>
								<track>
									<clipitem id="clipitem-35">
										<masterclipid>masterclip-7</masterclipid>
										<name>A001_06071221_C002.mov</name>
										<rate>
											<timebase>25</timebase>
											<ntsc>FALSE</ntsc>
										</rate>
										<file id="file-7"/>
										<sourcetrack>
											<mediatype>audio</mediatype>
											<trackindex>1</trackindex>
										</sourcetrack>
										<link>
											<linkclipref>clipitem-34</linkclipref>
											<mediatype>video</mediatype>
											<trackindex>1</trackindex>
											<clipindex>1</clipindex>
										</link>
										<link>
											<linkclipref>clipitem-35</linkclipref>
											<mediatype>audio</mediatype>
											<trackindex>1</trackindex>
											<clipindex>1</clipindex>
											<groupindex>1</groupindex>
										</link>
										<link>
											<linkclipref>clipitem-36</linkclipref>
											<mediatype>audio</mediatype>
											<trackindex>2</trackindex>
											<clipindex>1</clipindex>
											<groupindex>1</groupindex>
										</link>
									</clipitem>
								</track>
								<track>
									<clipitem id="clipitem-36">
										<masterclipid>masterclip-7</masterclipid>
										<name>A001_06071221_C002.mov</name>
										<rate>
											<timebase>25</timebase>
											<ntsc>FALSE</ntsc>
										</rate>
										<file id="file-7"/>
										<sourcetrack>
											<mediatype>audio</mediatype>
											<trackindex>2</trackindex>
										</sourcetrack>
										<link>
											<linkclipref>clipitem-34</linkclipref>
											<mediatype>video</mediatype>
											<trackindex>1</trackindex>
											<clipindex>1</clipindex>
										</link>
										<link>
											<linkclipref>clipitem-35</linkclipref>
											<mediatype>audio</mediatype>
											<trackindex>1</trackindex>
											<clipindex>1</clipindex>
											<groupindex>1</groupindex>
										</link>
										<link>
											<linkclipref>clipitem-36</linkclipref>
											<mediatype>audio</mediatype>
											<trackindex>2</trackindex>
											<clipindex>1</clipindex>
											<groupindex>1</groupindex>
										</link>
									</clipitem>
								</track>
							</audio>
						</media>
							<marker>
								<comment></comment>
								<name></name>
								<in>120</in>
								<out>-1</out>
							</marker>
						<logginginfo>
							<description></description>
							<scene></scene>
							<shottake></shottake>
							<lognote></lognote>
							<good></good>
							<originalvideofilename></originalvideofilename>
							<originalaudiofilename></originalaudiofilename>
						</logginginfo>
						<colorinfo>
							<lut></lut>
							<lut1></lut1>
							<asc_sop></asc_sop>
							<asc_sat></asc_sat>
							<lut2></lut2>
						</colorinfo>
						<labels>
							<label2>Iris</label2>
						</labels>
					</clip>
					<clip id="masterclip-8" explodedTracks="true">
						<uuid>e72d80f9-7e89-47df-bb62-5041024576d0</uuid>
						<masterclipid>masterclip-8</masterclipid>
						<ismasterclip>TRUE</ismasterclip>
						<duration>1798</duration>
						<rate>
							<timebase>25</timebase>
							<ntsc>FALSE</ntsc>
						</rate>
						<name>A001_06071223_C003.mov</name>
						<media>
							<video>
								<track>
									<clipitem id="clipitem-37">
										<masterclipid>masterclip-8</masterclipid>
										<name>A001_06071223_C003.mov</name>
										<rate>
											<timebase>25</timebase>
											<ntsc>FALSE</ntsc>
										</rate>
										<alphatype>none</alphatype>
										<file id="file-8"/>
										<link>
											<linkclipref>clipitem-37</linkclipref>
											<mediatype>video</mediatype>
											<trackindex>1</trackindex>
											<clipindex>1</clipindex>
										</link>
										<link>
											<linkclipref>clipitem-38</linkclipref>
											<mediatype>audio</mediatype>
											<trackindex>1</trackindex>
											<clipindex>1</clipindex>
											<groupindex>1</groupindex>
										</link>
										<link>
											<linkclipref>clipitem-39</linkclipref>
											<mediatype>audio</mediatype>
											<trackindex>2</trackindex>
											<clipindex>1</clipindex>
											<groupindex>1</groupindex>
										</link>
									</clipitem>
								</track>
							</video>
							<audio>
								<track>
									<clipitem id="clipitem-38">
										<masterclipid>masterclip-8</masterclipid>
										<name>A001_06071223_C003.mov</name>
										<rate>
											<timebase>25</timebase>
											<ntsc>FALSE</ntsc>
										</rate>
										<file id="file-8"/>
										<sourcetrack>
											<mediatype>audio</mediatype>
											<trackindex>1</trackindex>
										</sourcetrack>
										<link>
											<linkclipref>clipitem-37</linkclipref>
											<mediatype>video</mediatype>
											<trackindex>1</trackindex>
											<clipindex>1</clipindex>
										</link>
										<link>
											<linkclipref>clipitem-38</linkclipref>
											<mediatype>audio</mediatype>
											<trackindex>1</trackindex>
											<clipindex>1</clipindex>
											<groupindex>1</groupindex>
										</link>
										<link>
											<linkclipref>clipitem-39</linkclipref>
											<mediatype>audio</mediatype>
											<trackindex>2</trackindex>
											<clipindex>1</clipindex>
											<groupindex>1</groupindex>
										</link>
									</clipitem>
								</track>
								<track>
									<clipitem id="clipitem-39">
										<masterclipid>masterclip-8</masterclipid>
										<name>A001_06071223_C003.mov</name>
										<rate>
											<timebase>25</timebase>
											<ntsc>FALSE</ntsc>
										</rate>
										<file id="file-8"/>
										<sourcetrack>
											<mediatype>audio</mediatype>
											<trackindex>2</trackindex>
										</sourcetrack>
										<link>
											<linkclipref>clipitem-37</linkclipref>
											<mediatype>video</mediatype>
											<trackindex>1</trackindex>
											<clipindex>1</clipindex>
										</link>
										<link>
											<linkclipref>clipitem-38</linkclipref>
											<mediatype>audio</mediatype>
											<trackindex>1</trackindex>
											<clipindex>1</clipindex>
											<groupindex>1</groupindex>
										</link>
										<link>
											<linkclipref>clipitem-39</linkclipref>
											<mediatype>audio</mediatype>
											<trackindex>2</trackindex>
											<clipindex>1</clipindex>
											<groupindex>1</groupindex>
										</link>
									</clipitem>
								</track>
							</audio>
						</media>
							<marker>
								<comment></comment>
								<name></name>
								<in>1123</in>
								<out>-1</out>
								<pproColor>4281828977</pproColor>
							</marker>
							<marker>
								<comment></comment>
								<name></name>
								<in>99</in>
								<out>-1</out>
							</marker>
						<logginginfo>
							<description></description>
							<scene></scene>
							<shottake></shottake>
							<lognote></lognote>
							<good></good>
							<originalvideofilename></originalvideofilename>
							<originalaudiofilename></originalaudiofilename>
						</logginginfo>
						<colorinfo>
							<lut></lut>
							<lut1></lut1>
							<asc_sop></asc_sop>
							<asc_sat></asc_sat>
							<lut2></lut2>
						</colorinfo>
						<labels>
							<label2>Iris</label2>
						</labels>
					</clip>
					<clip id="masterclip-9" explodedTracks="true">
						<uuid>ee107468-e8cb-4779-86b9-18c52a3f8f7f</uuid>
						<masterclipid>masterclip-9</masterclipid>
						<ismasterclip>TRUE</ismasterclip>
						<duration>2873</duration>
						<rate>
							<timebase>25</timebase>
							<ntsc>FALSE</ntsc>
						</rate>
						<name>A001_06071229_C004.mov</name>
						<media>
							<video>
								<track>
									<clipitem id="clipitem-40">
										<masterclipid>masterclip-9</masterclipid>
										<name>A001_06071229_C004.mov</name>
										<rate>
											<timebase>25</timebase>
											<ntsc>FALSE</ntsc>
										</rate>
										<alphatype>none</alphatype>
										<file id="file-9"/>
										<link>
											<linkclipref>clipitem-40</linkclipref>
											<mediatype>video</mediatype>
											<trackindex>1</trackindex>
											<clipindex>1</clipindex>
										</link>
										<link>
											<linkclipref>clipitem-41</linkclipref>
											<mediatype>audio</mediatype>
											<trackindex>1</trackindex>
											<clipindex>1</clipindex>
											<groupindex>1</groupindex>
										</link>
										<link>
											<linkclipref>clipitem-42</linkclipref>
											<mediatype>audio</mediatype>
											<trackindex>2</trackindex>
											<clipindex>1</clipindex>
											<groupindex>1</groupindex>
										</link>
									</clipitem>
								</track>
							</video>
							<audio>
								<track>
									<clipitem id="clipitem-41">
										<masterclipid>masterclip-9</masterclipid>
										<name>A001_06071229_C004.mov</name>
										<rate>
											<timebase>25</timebase>
											<ntsc>FALSE</ntsc>
										</rate>
										<file id="file-9"/>
										<sourcetrack>
											<mediatype>audio</mediatype>
											<trackindex>1</trackindex>
										</sourcetrack>
										<link>
											<linkclipref>clipitem-40</linkclipref>
											<mediatype>video</mediatype>
											<trackindex>1</trackindex>
											<clipindex>1</clipindex>
										</link>
										<link>
											<linkclipref>clipitem-41</linkclipref>
											<mediatype>audio</mediatype>
											<trackindex>1</trackindex>
											<clipindex>1</clipindex>
											<groupindex>1</groupindex>
										</link>
										<link>
											<linkclipref>clipitem-42</linkclipref>
											<mediatype>audio</mediatype>
											<trackindex>2</trackindex>
											<clipindex>1</clipindex>
											<groupindex>1</groupindex>
										</link>
									</clipitem>
								</track>
								<track>
									<clipitem id="clipitem-42">
										<masterclipid>masterclip-9</masterclipid>
										<name>A001_06071229_C004.mov</name>
										<rate>
											<timebase>25</timebase>
											<ntsc>FALSE</ntsc>
										</rate>
										<file id="file-9"/>
										<sourcetrack>
											<mediatype>audio</mediatype>
											<trackindex>2</trackindex>
										</sourcetrack>
										<link>
											<linkclipref>clipitem-40</linkclipref>
											<mediatype>video</mediatype>
											<trackindex>1</trackindex>
											<clipindex>1</clipindex>
										</link>
										<link>
											<linkclipref>clipitem-41</linkclipref>
											<mediatype>audio</mediatype>
											<trackindex>1</trackindex>
											<clipindex>1</clipindex>
											<groupindex>1</groupindex>
										</link>
										<link>
											<linkclipref>clipitem-42</linkclipref>
											<mediatype>audio</mediatype>
											<trackindex>2</trackindex>
											<clipindex>1</clipindex>
											<groupindex>1</groupindex>
										</link>
									</clipitem>
								</track>
							</audio>
						</media>
							<marker>
								<comment></comment>
								<name></name>
								<in>180</in>
								<out>-1</out>
								<pproColor>4281828977</pproColor>
							</marker>
							<marker>
								<comment></comment>
								<name></name>
								<in>2565</in>
								<out>-1</out>
								<pproColor>4281828977</pproColor>
							</marker>
						<logginginfo>
							<description></description>
							<scene></scene>
							<shottake></shottake>
							<lognote></lognote>
							<good></good>
							<originalvideofilename></originalvideofilename>
							<originalaudiofilename></originalaudiofilename>
						</logginginfo>
						<colorinfo>
							<lut></lut>
							<lut1></lut1>
							<asc_sop></asc_sop>
							<asc_sat></asc_sat>
							<lut2></lut2>
						</colorinfo>
						<labels>
							<label2>Iris</label2>
						</labels>
					</clip>
					<clip id="masterclip-10" explodedTracks="true">
						<uuid>987586aa-f11f-4eb8-bc1d-ddf4583e5a38</uuid>
						<masterclipid>masterclip-10</masterclipid>
						<ismasterclip>TRUE</ismasterclip>
						<duration>601</duration>
						<rate>
							<timebase>25</timebase>
							<ntsc>FALSE</ntsc>
						</rate>
						<name>A001_06071243_C005.mov</name>
						<media>
							<video>
								<track>
									<clipitem id="clipitem-43">
										<masterclipid>masterclip-10</masterclipid>
										<name>A001_06071243_C005.mov</name>
										<rate>
											<timebase>25</timebase>
											<ntsc>FALSE</ntsc>
										</rate>
										<alphatype>none</alphatype>
										<file id="file-10"/>
										<link>
											<linkclipref>clipitem-43</linkclipref>
											<mediatype>video</mediatype>
											<trackindex>1</trackindex>
											<clipindex>1</clipindex>
										</link>
										<link>
											<linkclipref>clipitem-44</linkclipref>
											<mediatype>audio</mediatype>
											<trackindex>1</trackindex>
											<clipindex>1</clipindex>
											<groupindex>1</groupindex>
										</link>
										<link>
											<linkclipref>clipitem-45</linkclipref>
											<mediatype>audio</mediatype>
											<trackindex>2</trackindex>
											<clipindex>1</clipindex>
											<groupindex>1</groupindex>
										</link>
									</clipitem>
								</track>
							</video>
							<audio>
								<track>
									<clipitem id="clipitem-44">
										<masterclipid>masterclip-10</masterclipid>
										<name>A001_06071243_C005.mov</name>
										<rate>
											<timebase>25</timebase>
											<ntsc>FALSE</ntsc>
										</rate>
										<file id="file-10"/>
										<sourcetrack>
											<mediatype>audio</mediatype>
											<trackindex>1</trackindex>
										</sourcetrack>
										<link>
											<linkclipref>clipitem-43</linkclipref>
											<mediatype>video</mediatype>
											<trackindex>1</trackindex>
											<clipindex>1</clipindex>
										</link>
										<link>
											<linkclipref>clipitem-44</linkclipref>
											<mediatype>audio</mediatype>
											<trackindex>1</trackindex>
											<clipindex>1</clipindex>
											<groupindex>1</groupindex>
										</link>
										<link>
											<linkclipref>clipitem-45</linkclipref>
											<mediatype>audio</mediatype>
											<trackindex>2</trackindex>
											<clipindex>1</clipindex>
											<groupindex>1</groupindex>
										</link>
									</clipitem>
								</track>
								<track>
									<clipitem id="clipitem-45">
										<masterclipid>masterclip-10</masterclipid>
										<name>A001_06071243_C005.mov</name>
										<rate>
											<timebase>25</timebase>
											<ntsc>FALSE</ntsc>
										</rate>
										<file id="file-10"/>
										<sourcetrack>
											<mediatype>audio</mediatype>
											<trackindex>2</trackindex>
										</sourcetrack>
										<link>
											<linkclipref>clipitem-43</linkclipref>
											<mediatype>video</mediatype>
											<trackindex>1</trackindex>
											<clipindex>1</clipindex>
										</link>
										<link>
											<linkclipref>clipitem-44</linkclipref>
											<mediatype>audio</mediatype>
											<trackindex>1</trackindex>
											<clipindex>1</clipindex>
											<groupindex>1</groupindex>
										</link>
										<link>
											<linkclipref>clipitem-45</linkclipref>
											<mediatype>audio</mediatype>
											<trackindex>2</trackindex>
											<clipindex>1</clipindex>
											<groupindex>1</groupindex>
										</link>
									</clipitem>
								</track>
							</audio>
						</media>
							<marker>
								<comment></comment>
								<name></name>
								<in>68</in>
								<out>485</out>
								<pproColor>4281740498</pproColor>
							</marker>
						<logginginfo>
							<description></description>
							<scene></scene>
							<shottake></shottake>
							<lognote></lognote>
							<good></good>
							<originalvideofilename></originalvideofilename>
							<originalaudiofilename></originalaudiofilename>
						</logginginfo>
						<colorinfo>
							<lut></lut>
							<lut1></lut1>
							<asc_sop></asc_sop>
							<asc_sat></asc_sat>
							<lut2></lut2>
						</colorinfo>
						<labels>
							<label2>Iris</label2>
						</labels>
					</clip>
				</children>
			</bin>
		</children>
	</project>
</xmeml>
