<?xml version='1.0' encoding='UTF-8'?>
<xmeml version="4"><project><name>AutoSeq_Project</name><children><bin><name>AutoSeq_MasterClips</name><labels><label2>Mango</label2></labels><children><clip explodedTracks="true" id="masterclip-1"><duration>2112</duration><ismasterclip>TRUE</ismasterclip><name>T001C001_190510_R6XC.[0771071-0773182]</name><masterclipid>masterclip-1</masterclipid><labels><label2>Iris</label2></labels><rate><timebase>25</timebase><ntsc>FALSE</ntsc></rate><media><video><track><clipitem id="clipitem-1"><masterclipid>masterclip-1</masterclipid><rate><timebase>25</timebase><ntsc>FALSE</ntsc></rate><alphatype>none</alphatype><pixelaspectratio>square</pixelaspectratio><anamorphic>FALSE</anamorphic><file id="file-1"><name>T001C001_190510_R6XC.[0771071-0773182]</name><rate><timebase>25</timebase><ntsc>FALSE</ntsc></rate><duration>2112</duration><pathurl>file://localhost/Q%3A/Projects/PRODIGAL_SON/MEDIA_TRANS/190511_D01/T001C001_190510_R6XC.%5B0771071-0773182%5D.mov</pathurl><timecode><rate><timebase>25</timebase><ntsc>FALSE</ntsc></rate><string>08:34:02:21</string><frame>771071</frame><displayformat>NDF</displayformat></timecode><media><video><samplecharacteristics><rate><timebase>25</timebase><ntsc>FALSE</ntsc></rate><width>1678</width><height>1080</height><pixelaspectratio>square</pixelaspectratio><anamorphic>FALSE</anamorphic><fielddominance>none</fielddominance></samplecharacteristics></video></media></file></clipitem></track></video></media></clip><clip explodedTracks="true" id="masterclip-2"><duration>2444</duration><ismasterclip>TRUE</ismasterclip><name>T001C002_190510_R6XC.[0775552-0777995]</name><masterclipid>masterclip-2</masterclipid><labels><label2>Iris</label2></labels><rate><timebase>25</timebase><ntsc>FALSE</ntsc></rate><media><video><track><clipitem id="clipitem-2"><masterclipid>masterclip-2</masterclipid><rate><timebase>25</timebase><ntsc>FALSE</ntsc></rate><alphatype>none</alphatype><pixelaspectratio>square</pixelaspectratio><anamorphic>FALSE</anamorphic><file id="file-2"><name>T001C002_190510_R6XC.[0775552-0777995]</name><rate><timebase>25</timebase><ntsc>FALSE</ntsc></rate><duration>2444</duration><pathurl>file://localhost/Q%3A/Projects/PRODIGAL_SON/MEDIA_TRANS/190511_D01/T001C002_190510_R6XC.%5B0775552-0777995%5D.mov</pathurl><timecode><rate><timebase>25</timebase><ntsc>FALSE</ntsc></rate><string>08:37:02:02</string><frame>775552</frame><displayformat>NDF</displayformat></timecode><media><video><samplecharacteristics><rate><timebase>25</timebase><ntsc>FALSE</ntsc></rate><width>1678</width><height>1080</height><pixelaspectratio>square</pixelaspectratio><anamorphic>FALSE</anamorphic><fielddominance>none</fielddominance></samplecharacteristics></video></media></file></clipitem></track></video></media></clip><clip explodedTracks="true" id="masterclip-3"><duration>2471</duration><ismasterclip>TRUE</ismasterclip><name>T001C004_190510_R6XC.[0812500-0814970]</name><masterclipid>masterclip-3</masterclipid><labels><label2>Iris</label2></labels><rate><timebase>25</timebase><ntsc>FALSE</ntsc></rate><media><video><track><clipitem id="clipitem-3"><masterclipid>masterclip-3</masterclipid><rate><timebase>25</timebase><ntsc>FALSE</ntsc></rate><alphatype>none</alphatype><pixelaspectratio>square</pixelaspectratio><anamorphic>FALSE</anamorphic><file id="file-3"><name>T001C004_190510_R6XC.[0812500-0814970]</name><rate><timebase>25</timebase><ntsc>FALSE</ntsc></rate><duration>2471</duration><pathurl>file://localhost/Q%3A/Projects/PRODIGAL_SON/MEDIA_TRANS/190511_D01/T001C004_190510_R6XC.%5B0812500-0814970%5D.mov</pathurl><timecode><rate><timebase>25</timebase><ntsc>FALSE</ntsc></rate><string>09:01:40:00</string><frame>812500</frame><displayformat>NDF</displayformat></timecode><media><video><samplecharacteristics><rate><timebase>25</timebase><ntsc>FALSE</ntsc></rate><width>1678</width><height>1080</height><pixelaspectratio>square</pixelaspectratio><anamorphic>FALSE</anamorphic><fielddominance>none</fielddominance></samplecharacteristics></video></media></file></clipitem></track></video></media></clip><clip explodedTracks="true" id="masterclip-4"><duration>1834</duration><ismasterclip>TRUE</ismasterclip><name>T001C005_190510_R6XC.[0844782-0846615]</name><masterclipid>masterclip-4</masterclipid><labels><label2>Iris</label2></labels><rate><timebase>25</timebase><ntsc>FALSE</ntsc></rate><media><video><track><clipitem id="clipitem-4"><masterclipid>masterclip-4</masterclipid><rate><timebase>25</timebase><ntsc>FALSE</ntsc></rate><alphatype>none</alphatype><pixelaspectratio>square</pixelaspectratio><anamorphic>FALSE</anamorphic><file id="file-4"><name>T001C005_190510_R6XC.[0844782-0846615]</name><rate><timebase>25</timebase><ntsc>FALSE</ntsc></rate><duration>1834</duration><pathurl>file://localhost/Q%3A/Projects/PRODIGAL_SON/MEDIA_TRANS/190511_D01/T001C005_190510_R6XC.%5B0844782-0846615%5D.mov</pathurl><timecode><rate><timebase>25</timebase><ntsc>FALSE</ntsc></rate><string>09:23:11:07</string><frame>844782</frame><displayformat>NDF</displayformat></timecode><media><video><samplecharacteristics><rate><timebase>25</timebase><ntsc>FALSE</ntsc></rate><width>1678</width><height>1080</height><pixelaspectratio>square</pixelaspectratio><anamorphic>FALSE</anamorphic><fielddominance>none</fielddominance></samplecharacteristics></video></media></file></clipitem></track></video></media></clip><clip explodedTracks="true" id="masterclip-5"><duration>9325</duration><ismasterclip>TRUE</ismasterclip><name>T001C006_190510_R6XC.[0945567-0954891]</name><masterclipid>masterclip-5</masterclipid><labels><label2>Iris</label2></labels><rate><timebase>25</timebase><ntsc>FALSE</ntsc></rate><media><video><track><clipitem id="clipitem-5"><masterclipid>masterclip-5</masterclipid><rate><timebase>25</timebase><ntsc>FALSE</ntsc></rate><alphatype>none</alphatype><pixelaspectratio>square</pixelaspectratio><anamorphic>FALSE</anamorphic><file id="file-5"><name>T001C006_190510_R6XC.[0945567-0954891]</name><rate><timebase>25</timebase><ntsc>FALSE</ntsc></rate><duration>9325</duration><pathurl>file://localhost/Q%3A/Projects/PRODIGAL_SON/MEDIA_TRANS/190511_D01/T001C006_190510_R6XC.%5B0945567-0954891%5D.mov</pathurl><timecode><rate><timebase>25</timebase><ntsc>FALSE</ntsc></rate><string>10:30:22:17</string><frame>945567</frame><displayformat>NDF</displayformat></timecode><media><video><samplecharacteristics><rate><timebase>25</timebase><ntsc>FALSE</ntsc></rate><width>1678</width><height>1080</height><pixelaspectratio>square</pixelaspectratio><anamorphic>FALSE</anamorphic><fielddominance>none</fielddominance></samplecharacteristics></video></media></file></clipitem></track></video></media></clip><clip explodedTracks="true" id="masterclip-6"><duration>2439</duration><ismasterclip>TRUE</ismasterclip><name>T001C007_190511_R6XC.[0975322-0977760]</name><masterclipid>masterclip-6</masterclipid><labels><label2>Iris</label2></labels><rate><timebase>25</timebase><ntsc>FALSE</ntsc></rate><media><video><track><clipitem id="clipitem-6"><masterclipid>masterclip-6</masterclipid><rate><timebase>25</timebase><ntsc>FALSE</ntsc></rate><alphatype>none</alphatype><pixelaspectratio>square</pixelaspectratio><anamorphic>FALSE</anamorphic><file id="file-6"><name>T001C007_190511_R6XC.[0975322-0977760]</name><rate><timebase>25</timebase><ntsc>FALSE</ntsc></rate><duration>2439</duration><pathurl>file://localhost/Q%3A/Projects/PRODIGAL_SON/MEDIA_TRANS/190511_D01/T001C007_190511_R6XC.%5B0975322-0977760%5D.mov</pathurl><timecode><rate><timebase>25</timebase><ntsc>FALSE</ntsc></rate><string>10:50:12:22</string><frame>975322</frame><displayformat>NDF</displayformat></timecode><media><video><samplecharacteristics><rate><timebase>25</timebase><ntsc>FALSE</ntsc></rate><width>1678</width><height>1080</height><pixelaspectratio>square</pixelaspectratio><anamorphic>FALSE</anamorphic><fielddominance>none</fielddominance></samplecharacteristics></video></media></file></clipitem></track></video></media></clip><clip explodedTracks="true" id="masterclip-7"><duration>1498</duration><ismasterclip>TRUE</ismasterclip><name>T001C008_190511_R6XC.[0998481-0999978]</name><masterclipid>masterclip-7</masterclipid><labels><label2>Iris</label2></labels><rate><timebase>25</timebase><ntsc>FALSE</ntsc></rate><media><video><track><clipitem id="clipitem-7"><masterclipid>masterclip-7</masterclipid><rate><timebase>25</timebase><ntsc>FALSE</ntsc></rate><alphatype>none</alphatype><pixelaspectratio>square</pixelaspectratio><anamorphic>FALSE</anamorphic><file id="file-7"><name>T001C008_190511_R6XC.[0998481-0999978]</name><rate><timebase>25</timebase><ntsc>FALSE</ntsc></rate><duration>1498</duration><pathurl>file://localhost/Q%3A/Projects/PRODIGAL_SON/MEDIA_TRANS/190511_D01/T001C008_190511_R6XC.%5B0998481-0999978%5D.mov</pathurl><timecode><rate><timebase>25</timebase><ntsc>FALSE</ntsc></rate><string>11:05:39:06</string><frame>998481</frame><displayformat>NDF</displayformat></timecode><media><video><samplecharacteristics><rate><timebase>25</timebase><ntsc>FALSE</ntsc></rate><width>1678</width><height>1080</height><pixelaspectratio>square</pixelaspectratio><anamorphic>FALSE</anamorphic><fielddominance>none</fielddominance></samplecharacteristics></video></media></file></clipitem></track></video></media></clip><clip explodedTracks="true" id="masterclip-8"><duration>1694</duration><ismasterclip>TRUE</ismasterclip><name>T001C009_190511_R6XC.[1020697-1022390]</name><masterclipid>masterclip-8</masterclipid><labels><label2>Iris</label2></labels><rate><timebase>25</timebase><ntsc>FALSE</ntsc></rate><media><video><track><clipitem id="clipitem-8"><masterclipid>masterclip-8</masterclipid><rate><timebase>25</timebase><ntsc>FALSE</ntsc></rate><alphatype>none</alphatype><pixelaspectratio>square</pixelaspectratio><anamorphic>FALSE</anamorphic><file id="file-8"><name>T001C009_190511_R6XC.[1020697-1022390]</name><rate><timebase>25</timebase><ntsc>FALSE</ntsc></rate><duration>1694</duration><pathurl>file://localhost/Q%3A/Projects/PRODIGAL_SON/MEDIA_TRANS/190511_D01/T001C009_190511_R6XC.%5B1020697-1022390%5D.mov</pathurl><timecode><rate><timebase>25</timebase><ntsc>FALSE</ntsc></rate><string>11:20:27:22</string><frame>1020697</frame><displayformat>NDF</displayformat></timecode><media><video><samplecharacteristics><rate><timebase>25</timebase><ntsc>FALSE</ntsc></rate><width>1678</width><height>1080</height><pixelaspectratio>square</pixelaspectratio><anamorphic>FALSE</anamorphic><fielddominance>none</fielddominance></samplecharacteristics></video></media></file></clipitem></track></video></media></clip><clip explodedTracks="true" id="masterclip-9"><duration>1690</duration><ismasterclip>TRUE</ismasterclip><name>T001C010_190511_R6XC.[1043405-1045094]</name><masterclipid>masterclip-9</masterclipid><labels><label2>Iris</label2></labels><rate><timebase>25</timebase><ntsc>FALSE</ntsc></rate><media><video><track><clipitem id="clipitem-9"><masterclipid>masterclip-9</masterclipid><rate><timebase>25</timebase><ntsc>FALSE</ntsc></rate><alphatype>none</alphatype><pixelaspectratio>square</pixelaspectratio><anamorphic>FALSE</anamorphic><file id="file-9"><name>T001C010_190511_R6XC.[1043405-1045094]</name><rate><timebase>25</timebase><ntsc>FALSE</ntsc></rate><duration>1690</duration><pathurl>file://localhost/Q%3A/Projects/PRODIGAL_SON/MEDIA_TRANS/190511_D01/T001C010_190511_R6XC.%5B1043405-1045094%5D.mov</pathurl><timecode><rate><timebase>25</timebase><ntsc>FALSE</ntsc></rate><string>11:35:36:05</string><frame>1043405</frame><displayformat>NDF</displayformat></timecode><media><video><samplecharacteristics><rate><timebase>25</timebase><ntsc>FALSE</ntsc></rate><width>1678</width><height>1080</height><pixelaspectratio>square</pixelaspectratio><anamorphic>FALSE</anamorphic><fielddominance>none</fielddominance></samplecharacteristics></video></media></file></clipitem></track></video></media></clip><clip explodedTracks="true" id="masterclip-10"><duration>2583</duration><ismasterclip>TRUE</ismasterclip><name>A002C001_190511_R6XC.[1230177-1232759]</name><masterclipid>masterclip-10</masterclipid><labels><label2>Iris</label2></labels><rate><timebase>25</timebase><ntsc>FALSE</ntsc></rate><media><video><track><clipitem id="clipitem-10"><masterclipid>masterclip-10</masterclipid><rate><timebase>25</timebase><ntsc>FALSE</ntsc></rate><alphatype>none</alphatype><pixelaspectratio>square</pixelaspectratio><anamorphic>FALSE</anamorphic><file id="file-10"><name>A002C001_190511_R6XC.[1230177-1232759]</name><rate><timebase>25</timebase><ntsc>FALSE</ntsc></rate><duration>2583</duration><pathurl>file://localhost/Q%3A/Projects/PRODIGAL_SON/MEDIA_TRANS/190511_D01/A002C001_190511_R6XC.%5B1230177-1232759%5D.mov</pathurl><timecode><rate><timebase>25</timebase><ntsc>FALSE</ntsc></rate><string>13:40:07:02</string><frame>1230177</frame><displayformat>NDF</displayformat></timecode><media><video><samplecharacteristics><rate><timebase>25</timebase><ntsc>FALSE</ntsc></rate><width>1678</width><height>1080</height><pixelaspectratio>square</pixelaspectratio><anamorphic>FALSE</anamorphic><fielddominance>none</fielddominance></samplecharacteristics></video></media></file></clipitem></track></video></media></clip><clip explodedTracks="true" id="masterclip-11"><duration>1077</duration><ismasterclip>TRUE</ismasterclip><name>A002C002_190511_R6XC.[1238357-1239433]</name><masterclipid>masterclip-11</masterclipid><labels><label2>Iris</label2></labels><rate><timebase>25</timebase><ntsc>FALSE</ntsc></rate><media><video><track><clipitem id="clipitem-11"><masterclipid>masterclip-11</masterclipid><rate><timebase>25</timebase><ntsc>FALSE</ntsc></rate><alphatype>none</alphatype><pixelaspectratio>square</pixelaspectratio><anamorphic>FALSE</anamorphic><file id="file-11"><name>A002C002_190511_R6XC.[1238357-1239433]</name><rate><timebase>25</timebase><ntsc>FALSE</ntsc></rate><duration>1077</duration><pathurl>file://localhost/Q%3A/Projects/PRODIGAL_SON/MEDIA_TRANS/190511_D01/A002C002_190511_R6XC.%5B1238357-1239433%5D.mov</pathurl><timecode><rate><timebase>25</timebase><ntsc>FALSE</ntsc></rate><string>13:45:34:07</string><frame>1238357</frame><displayformat>NDF</displayformat></timecode><media><video><samplecharacteristics><rate><timebase>25</timebase><ntsc>FALSE</ntsc></rate><width>1678</width><height>1080</height><pixelaspectratio>square</pixelaspectratio><anamorphic>FALSE</anamorphic><fielddominance>none</fielddominance></samplecharacteristics></video></media></file></clipitem></track></video></media></clip><clip explodedTracks="true" id="masterclip-12"><duration>2846</duration><ismasterclip>TRUE</ismasterclip><name>A002C003_190511_R6XC.[1240863-1243708]</name><masterclipid>masterclip-12</masterclipid><labels><label2>Iris</label2></labels><rate><timebase>25</timebase><ntsc>FALSE</ntsc></rate><media><video><track><clipitem id="clipitem-12"><masterclipid>masterclip-12</masterclipid><rate><timebase>25</timebase><ntsc>FALSE</ntsc></rate><alphatype>none</alphatype><pixelaspectratio>square</pixelaspectratio><anamorphic>FALSE</anamorphic><file id="file-12"><name>A002C003_190511_R6XC.[1240863-1243708]</name><rate><timebase>25</timebase><ntsc>FALSE</ntsc></rate><duration>2846</duration><pathurl>file://localhost/Q%3A/Projects/PRODIGAL_SON/MEDIA_TRANS/190511_D01/A002C003_190511_R6XC.%5B1240863-1243708%5D.mov</pathurl><timecode><rate><timebase>25</timebase><ntsc>FALSE</ntsc></rate><string>13:47:14:13</string><frame>1240863</frame><displayformat>NDF</displayformat></timecode><media><video><samplecharacteristics><rate><timebase>25</timebase><ntsc>FALSE</ntsc></rate><width>1678</width><height>1080</height><pixelaspectratio>square</pixelaspectratio><anamorphic>FALSE</anamorphic><fielddominance>none</fielddominance></samplecharacteristics></video></media></file></clipitem></track></video></media></clip><clip explodedTracks="true" id="masterclip-13"><duration>3626</duration><ismasterclip>TRUE</ismasterclip><name>A002C004_190511_R6XC.[1245536-1249161]</name><masterclipid>masterclip-13</masterclipid><labels><label2>Iris</label2></labels><rate><timebase>25</timebase><ntsc>FALSE</ntsc></rate><media><video><track><clipitem id="clipitem-13"><masterclipid>masterclip-13</masterclipid><rate><timebase>25</timebase><ntsc>FALSE</ntsc></rate><alphatype>none</alphatype><pixelaspectratio>square</pixelaspectratio><anamorphic>FALSE</anamorphic><file id="file-13"><name>A002C004_190511_R6XC.[1245536-1249161]</name><rate><timebase>25</timebase><ntsc>FALSE</ntsc></rate><duration>3626</duration><pathurl>file://localhost/Q%3A/Projects/PRODIGAL_SON/MEDIA_TRANS/190511_D01/A002C004_190511_R6XC.%5B1245536-1249161%5D.mov</pathurl><timecode><rate><timebase>25</timebase><ntsc>FALSE</ntsc></rate><string>13:50:21:11</string><frame>1245536</frame><displayformat>NDF</displayformat></timecode><media><video><samplecharacteristics><rate><timebase>25</timebase><ntsc>FALSE</ntsc></rate><width>1678</width><height>1080</height><pixelaspectratio>square</pixelaspectratio><anamorphic>FALSE</anamorphic><fielddominance>none</fielddominance></samplecharacteristics></video></media></file></clipitem></track></video></media></clip><clip explodedTracks="true" id="masterclip-14"><duration>3022</duration><ismasterclip>TRUE</ismasterclip><name>A002C005_190511_R6XC.[1252221-1255242]</name><masterclipid>masterclip-14</masterclipid><labels><label2>Iris</label2></labels><rate><timebase>25</timebase><ntsc>FALSE</ntsc></rate><media><video><track><clipitem id="clipitem-14"><masterclipid>masterclip-14</masterclipid><rate><timebase>25</timebase><ntsc>FALSE</ntsc></rate><alphatype>none</alphatype><pixelaspectratio>square</pixelaspectratio><anamorphic>FALSE</anamorphic><file id="file-14"><name>A002C005_190511_R6XC.[1252221-1255242]</name><rate><timebase>25</timebase><ntsc>FALSE</ntsc></rate><duration>3022</duration><pathurl>file://localhost/Q%3A/Projects/PRODIGAL_SON/MEDIA_TRANS/190511_D01/A002C005_190511_R6XC.%5B1252221-1255242%5D.mov</pathurl><timecode><rate><timebase>25</timebase><ntsc>FALSE</ntsc></rate><string>13:54:48:21</string><frame>1252221</frame><displayformat>NDF</displayformat></timecode><media><video><samplecharacteristics><rate><timebase>25</timebase><ntsc>FALSE</ntsc></rate><width>1678</width><height>1080</height><pixelaspectratio>square</pixelaspectratio><anamorphic>FALSE</anamorphic><fielddominance>none</fielddominance></samplecharacteristics></video></media></file></clipitem></track></video></media></clip><clip explodedTracks="true" id="masterclip-15"><duration>2445</duration><ismasterclip>TRUE</ismasterclip><name>A002C006_190511_R6XC.[1280886-1283330]</name><masterclipid>masterclip-15</masterclipid><labels><label2>Iris</label2></labels><rate><timebase>25</timebase><ntsc>FALSE</ntsc></rate><media><video><track><clipitem id="clipitem-15"><masterclipid>masterclip-15</masterclipid><rate><timebase>25</timebase><ntsc>FALSE</ntsc></rate><alphatype>none</alphatype><pixelaspectratio>square</pixelaspectratio><anamorphic>FALSE</anamorphic><file id="file-15"><name>A002C006_190511_R6XC.[1280886-1283330]</name><rate><timebase>25</timebase><ntsc>FALSE</ntsc></rate><duration>2445</duration><pathurl>file://localhost/Q%3A/Projects/PRODIGAL_SON/MEDIA_TRANS/190511_D01/A002C006_190511_R6XC.%5B1280886-1283330%5D.mov</pathurl><timecode><rate><timebase>25</timebase><ntsc>FALSE</ntsc></rate><string>14:13:55:11</string><frame>1280886</frame><displayformat>NDF</displayformat></timecode><media><video><samplecharacteristics><rate><timebase>25</timebase><ntsc>FALSE</ntsc></rate><width>1678</width><height>1080</height><pixelaspectratio>square</pixelaspectratio><anamorphic>FALSE</anamorphic><fielddominance>none</fielddominance></samplecharacteristics></video></media></file></clipitem></track></video></media></clip><clip explodedTracks="true" id="masterclip-16"><duration>1723</duration><ismasterclip>TRUE</ismasterclip><name>A002C007_190511_R6XC.[1284452-1286174]</name><masterclipid>masterclip-16</masterclipid><labels><label2>Iris</label2></labels><rate><timebase>25</timebase><ntsc>FALSE</ntsc></rate><media><video><track><clipitem id="clipitem-16"><masterclipid>masterclip-16</masterclipid><rate><timebase>25</timebase><ntsc>FALSE</ntsc></rate><alphatype>none</alphatype><pixelaspectratio>square</pixelaspectratio><anamorphic>FALSE</anamorphic><file id="file-16"><name>A002C007_190511_R6XC.[1284452-1286174]</name><rate><timebase>25</timebase><ntsc>FALSE</ntsc></rate><duration>1723</duration><pathurl>file://localhost/Q%3A/Projects/PRODIGAL_SON/MEDIA_TRANS/190511_D01/A002C007_190511_R6XC.%5B1284452-1286174%5D.mov</pathurl><timecode><rate><timebase>25</timebase><ntsc>FALSE</ntsc></rate><string>14:16:18:02</string><frame>1284452</frame><displayformat>NDF</displayformat></timecode><media><video><samplecharacteristics><rate><timebase>25</timebase><ntsc>FALSE</ntsc></rate><width>1678</width><height>1080</height><pixelaspectratio>square</pixelaspectratio><anamorphic>FALSE</anamorphic><fielddominance>none</fielddominance></samplecharacteristics></video></media></file></clipitem></track></video></media></clip><clip explodedTracks="true" id="masterclip-17"><duration>4517</duration><ismasterclip>TRUE</ismasterclip><name>A003C001_190511_R6XC.[1540211-1544727]</name><masterclipid>masterclip-17</masterclipid><labels><label2>Iris</label2></labels><rate><timebase>25</timebase><ntsc>FALSE</ntsc></rate><media><video><track><clipitem id="clipitem-17"><masterclipid>masterclip-17</masterclipid><rate><timebase>25</timebase><ntsc>FALSE</ntsc></rate><alphatype>none</alphatype><pixelaspectratio>square</pixelaspectratio><anamorphic>FALSE</anamorphic><file id="file-17"><name>A003C001_190511_R6XC.[1540211-1544727]</name><rate><timebase>25</timebase><ntsc>FALSE</ntsc></rate><duration>4517</duration><pathurl>file://localhost/Q%3A/Projects/PRODIGAL_SON/MEDIA_TRANS/190511_D01/A003C001_190511_R6XC.%5B1540211-1544727%5D.mov</pathurl><timecode><rate><timebase>25</timebase><ntsc>FALSE</ntsc></rate><string>17:06:48:11</string><frame>1540211</frame><displayformat>NDF</displayformat></timecode><media><video><samplecharacteristics><rate><timebase>25</timebase><ntsc>FALSE</ntsc></rate><width>1678</width><height>1080</height><pixelaspectratio>square</pixelaspectratio><anamorphic>FALSE</anamorphic><fielddominance>none</fielddominance></samplecharacteristics></video></media></file></clipitem></track></video></media></clip><clip explodedTracks="true" id="masterclip-18"><duration>3853</duration><ismasterclip>TRUE</ismasterclip><name>A003C002_190511_R6XC.[1562614-1566466]</name><masterclipid>masterclip-18</masterclipid><labels><label2>Iris</label2></labels><rate><timebase>25</timebase><ntsc>FALSE</ntsc></rate><media><video><track><clipitem id="clipitem-18"><masterclipid>masterclip-18</masterclipid><rate><timebase>25</timebase><ntsc>FALSE</ntsc></rate><alphatype>none</alphatype><pixelaspectratio>square</pixelaspectratio><anamorphic>FALSE</anamorphic><file id="file-18"><name>A003C002_190511_R6XC.[1562614-1566466]</name><rate><timebase>25</timebase><ntsc>FALSE</ntsc></rate><duration>3853</duration><pathurl>file://localhost/Q%3A/Projects/PRODIGAL_SON/MEDIA_TRANS/190511_D01/A003C002_190511_R6XC.%5B1562614-1566466%5D.mov</pathurl><timecode><rate><timebase>25</timebase><ntsc>FALSE</ntsc></rate><string>17:21:44:14</string><frame>1562614</frame><displayformat>NDF</displayformat></timecode><media><video><samplecharacteristics><rate><timebase>25</timebase><ntsc>FALSE</ntsc></rate><width>1678</width><height>1080</height><pixelaspectratio>square</pixelaspectratio><anamorphic>FALSE</anamorphic><fielddominance>none</fielddominance></samplecharacteristics></video></media></file></clipitem></track></video></media></clip><clip explodedTracks="true" id="masterclip-19"><duration>8150</duration><ismasterclip>TRUE</ismasterclip><name>A003C003_190511_R6XC.[1572393-1580542]</name><masterclipid>masterclip-19</masterclipid><labels><label2>Iris</label2></labels><rate><timebase>25</timebase><ntsc>FALSE</ntsc></rate><media><video><track><clipitem id="clipitem-19"><masterclipid>masterclip-19</masterclipid><rate><timebase>25</timebase><ntsc>FALSE</ntsc></rate><alphatype>none</alphatype><pixelaspectratio>square</pixelaspectratio><anamorphic>FALSE</anamorphic><file id="file-19"><name>A003C003_190511_R6XC.[1572393-1580542]</name><rate><timebase>25</timebase><ntsc>FALSE</ntsc></rate><duration>8150</duration><pathurl>file://localhost/Q%3A/Projects/PRODIGAL_SON/MEDIA_TRANS/190511_D01/A003C003_190511_R6XC.%5B1572393-1580542%5D.mov</pathurl><timecode><rate><timebase>25</timebase><ntsc>FALSE</ntsc></rate><string>17:28:15:18</string><frame>1572393</frame><displayformat>NDF</displayformat></timecode><media><video><samplecharacteristics><rate><timebase>25</timebase><ntsc>FALSE</ntsc></rate><width>1678</width><height>1080</height><pixelaspectratio>square</pixelaspectratio><anamorphic>FALSE</anamorphic><fielddominance>none</fielddominance></samplecharacteristics></video></media></file></clipitem></track></video></media></clip><clip explodedTracks="true" id="masterclip-20"><duration>4957</duration><ismasterclip>TRUE</ismasterclip><name>A003C004_190511_R6XC.[1582384-1587340]</name><masterclipid>masterclip-20</masterclipid><labels><label2>Iris</label2></labels><rate><timebase>25</timebase><ntsc>FALSE</ntsc></rate><media><video><track><clipitem id="clipitem-20"><masterclipid>masterclip-20</masterclipid><rate><timebase>25</timebase><ntsc>FALSE</ntsc></rate><alphatype>none</alphatype><pixelaspectratio>square</pixelaspectratio><anamorphic>FALSE</anamorphic><file id="file-20"><name>A003C004_190511_R6XC.[1582384-1587340]</name><rate><timebase>25</timebase><ntsc>FALSE</ntsc></rate><duration>4957</duration><pathurl>file://localhost/Q%3A/Projects/PRODIGAL_SON/MEDIA_TRANS/190511_D01/A003C004_190511_R6XC.%5B1582384-1587340%5D.mov</pathurl><timecode><rate><timebase>25</timebase><ntsc>FALSE</ntsc></rate><string>17:34:55:09</string><frame>1582384</frame><displayformat>NDF</displayformat></timecode><media><video><samplecharacteristics><rate><timebase>25</timebase><ntsc>FALSE</ntsc></rate><width>1678</width><height>1080</height><pixelaspectratio>square</pixelaspectratio><anamorphic>FALSE</anamorphic><fielddominance>none</fielddominance></samplecharacteristics></video></media></file></clipitem></track></video></media></clip><clip explodedTracks="true" id="masterclip-21"><duration>3290</duration><ismasterclip>TRUE</ismasterclip><name>A003C005_190511_R6XC.[1680865-1684154]</name><masterclipid>masterclip-21</masterclipid><labels><label2>Iris</label2></labels><rate><timebase>25</timebase><ntsc>FALSE</ntsc></rate><media><video><track><clipitem id="clipitem-21"><masterclipid>masterclip-21</masterclipid><rate><timebase>25</timebase><ntsc>FALSE</ntsc></rate><alphatype>none</alphatype><pixelaspectratio>square</pixelaspectratio><anamorphic>FALSE</anamorphic><file id="file-21"><name>A003C005_190511_R6XC.[1680865-1684154]</name><rate><timebase>25</timebase><ntsc>FALSE</ntsc></rate><duration>3290</duration><pathurl>file://localhost/Q%3A/Projects/PRODIGAL_SON/MEDIA_TRANS/190511_D01/A003C005_190511_R6XC.%5B1680865-1684154%5D.mov</pathurl><timecode><rate><timebase>25</timebase><ntsc>FALSE</ntsc></rate><string>18:40:34:15</string><frame>1680865</frame><displayformat>NDF</displayformat></timecode><media><video><samplecharacteristics><rate><timebase>25</timebase><ntsc>FALSE</ntsc></rate><width>1678</width><height>1080</height><pixelaspectratio>square</pixelaspectratio><anamorphic>FALSE</anamorphic><fielddominance>none</fielddominance></samplecharacteristics></video></media></file></clipitem></track></video></media></clip><clip explodedTracks="true" id="masterclip-22"><duration>3497</duration><ismasterclip>TRUE</ismasterclip><name>A003C006_190511_R6XC.[1687928-1691424]</name><masterclipid>masterclip-22</masterclipid><labels><label2>Iris</label2></labels><rate><timebase>25</timebase><ntsc>FALSE</ntsc></rate><media><video><track><clipitem id="clipitem-22"><masterclipid>masterclip-22</masterclipid><rate><timebase>25</timebase><ntsc>FALSE</ntsc></rate><alphatype>none</alphatype><pixelaspectratio>square</pixelaspectratio><anamorphic>FALSE</anamorphic><file id="file-22"><name>A003C006_190511_R6XC.[1687928-1691424]</name><rate><timebase>25</timebase><ntsc>FALSE</ntsc></rate><duration>3497</duration><pathurl>file://localhost/Q%3A/Projects/PRODIGAL_SON/MEDIA_TRANS/190511_D01/A003C006_190511_R6XC.%5B1687928-1691424%5D.mov</pathurl><timecode><rate><timebase>25</timebase><ntsc>FALSE</ntsc></rate><string>18:45:17:03</string><frame>1687928</frame><displayformat>NDF</displayformat></timecode><media><video><samplecharacteristics><rate><timebase>25</timebase><ntsc>FALSE</ntsc></rate><width>1678</width><height>1080</height><pixelaspectratio>square</pixelaspectratio><anamorphic>FALSE</anamorphic><fielddominance>none</fielddominance></samplecharacteristics></video></media></file></clipitem></track></video></media></clip></children></bin><bin><name>AutoSeq_Sequence1</name><labels><label2>Mango</label2></labels><children><sequence MZ.EditLine="1897723054080000" MZ.Sequence.AudioTimeDisplayFormat="200" MZ.Sequence.EditingModeGUID="d8484cf3-c96c-4622-ab1f-ac1a16e196f9" MZ.Sequence.PreviewFrameSizeHeight="1080" MZ.Sequence.PreviewFrameSizeWidth="1678" MZ.Sequence.PreviewRenderingClassID="1297106761" MZ.Sequence.PreviewRenderingPresetCodec="1297107278" MZ.Sequence.PreviewRenderingPresetPath="EncoderPresets\SequencePreview\d8484cf3-c96c-4622-ab1f-ac1a16e196f9\I-Frame Only MPEG.epr" MZ.Sequence.PreviewUseMaxBitDepth="false" MZ.Sequence.PreviewUseMaxRenderQuality="false" MZ.Sequence.VideoTimeDisplayFormat="101" MZ.WorkInPoint="0" MZ.WorkOutPoint="72272632320000" MZ.ZeroPoint="10601662579200000" Monitor.ProgramZoomIn="0" Monitor.ProgramZoomOut="1923967987200000" TL.SQAVDividerPosition="0.5" TL.SQAudioVisibleBase="0" TL.SQHeaderWidth="236" TL.SQHideShyTracks="0" TL.SQTimePerPixel="5.8178647023939369" TL.SQVideoVisibleBase="0" TL.SQVisibleBaseTime="0" explodedTracks="true" id="sequence-1"><duration>920354</duration><name>autoseq-1</name><rate><timebase>25</timebase><ntsc>FALSE</ntsc></rate><labels><label2>Rose</label2></labels><timecode><rate><timebase>25</timebase><ntsc>FALSE</ntsc></rate><string>08:34:02:21</string><frame>771071</frame><displayformat>NDF</displayformat></timecode><media><video><format><samplecharacteristics><rate><timebase>25</timebase><ntsc>FALSE</ntsc></rate><codec><name>prores</name></codec><width>1678</width><height>1080</height><fielddominance>none</fielddominance><pixelaspectratio>square</pixelaspectratio><anamorphic>FALSE</anamorphic><colordepth>24</colordepth></samplecharacteristics></format><track MZ.TrackTargeted="1" TL.SQTrackExpanded="0" TL.SQTrackExpandedHeight="25" TL.SQTrackShy="0"><enabled>TRUE</enabled><locked>FALSE</locked><clipitem id="clipitem-23"><masterclipid>masterclip-1</masterclipid><name>T001C001_190510_R6XC.[0771071-0773182]</name><enabled>TRUE</enabled><duration>2112</duration><alphatype>none</alphatype><file id="file-1" /><labels><label2>Iris</label2></labels><start>0</start><end>2112</end><in>0</in><out>2112</out></clipitem><clipitem id="clipitem-24"><masterclipid>masterclip-2</masterclipid><name>T001C002_190510_R6XC.[0775552-0777995]</name><enabled>TRUE</enabled><duration>2444</duration><alphatype>none</alphatype><file id="file-2" /><labels><label2>Iris</label2></labels><start>4481</start><end>6925</end><in>0</in><out>2444</out></clipitem><clipitem id="clipitem-25"><masterclipid>masterclip-3</masterclipid><name>T001C004_190510_R6XC.[0812500-0814970]</name><enabled>TRUE</enabled><duration>2471</duration><alphatype>none</alphatype><file id="file-3" /><labels><label2>Iris</label2></labels><start>41429</start><end>43900</end><in>0</in><out>2471</out></clipitem><clipitem id="clipitem-26"><masterclipid>masterclip-4</masterclipid><name>T001C005_190510_R6XC.[0844782-0846615]</name><enabled>TRUE</enabled><duration>1834</duration><alphatype>none</alphatype><file id="file-4" /><labels><label2>Iris</label2></labels><start>73711</start><end>75545</end><in>0</in><out>1834</out></clipitem><clipitem id="clipitem-27"><masterclipid>masterclip-5</masterclipid><name>T001C006_190510_R6XC.[0945567-0954891]</name><enabled>TRUE</enabled><duration>9325</duration><alphatype>none</alphatype><file id="file-5" /><labels><label2>Iris</label2></labels><start>174496</start><end>183821</end><in>0</in><out>9325</out></clipitem><clipitem id="clipitem-28"><masterclipid>masterclip-6</masterclipid><name>T001C007_190511_R6XC.[0975322-0977760]</name><enabled>TRUE</enabled><duration>2439</duration><alphatype>none</alphatype><file id="file-6" /><labels><label2>Iris</label2></labels><start>204251</start><end>206690</end><in>0</in><out>2439</out></clipitem><clipitem id="clipitem-29"><masterclipid>masterclip-7</masterclipid><name>T001C008_190511_R6XC.[0998481-0999978]</name><enabled>TRUE</enabled><duration>1498</duration><alphatype>none</alphatype><file id="file-7" /><labels><label2>Iris</label2></labels><start>227410</start><end>228908</end><in>0</in><out>1498</out></clipitem><clipitem id="clipitem-30"><masterclipid>masterclip-8</masterclipid><name>T001C009_190511_R6XC.[1020697-1022390]</name><enabled>TRUE</enabled><duration>1694</duration><alphatype>none</alphatype><file id="file-8" /><labels><label2>Iris</label2></labels><start>249626</start><end>251320</end><in>0</in><out>1694</out></clipitem><clipitem id="clipitem-31"><masterclipid>masterclip-9</masterclipid><name>T001C010_190511_R6XC.[1043405-1045094]</name><enabled>TRUE</enabled><duration>1690</duration><alphatype>none</alphatype><file id="file-9" /><labels><label2>Iris</label2></labels><start>272334</start><end>274024</end><in>0</in><out>1690</out></clipitem><clipitem id="clipitem-32"><masterclipid>masterclip-10</masterclipid><name>A002C001_190511_R6XC.[1230177-1232759]</name><enabled>TRUE</enabled><duration>2583</duration><alphatype>none</alphatype><file id="file-10" /><labels><label2>Iris</label2></labels><start>459106</start><end>461689</end><in>0</in><out>2583</out></clipitem><clipitem id="clipitem-33"><masterclipid>masterclip-11</masterclipid><name>A002C002_190511_R6XC.[1238357-1239433]</name><enabled>TRUE</enabled><duration>1077</duration><alphatype>none</alphatype><file id="file-11" /><labels><label2>Iris</label2></labels><start>467286</start><end>468363</end><in>0</in><out>1077</out></clipitem><clipitem id="clipitem-34"><masterclipid>masterclip-12</masterclipid><name>A002C003_190511_R6XC.[1240863-1243708]</name><enabled>TRUE</enabled><duration>2846</duration><alphatype>none</alphatype><file id="file-12" /><labels><label2>Iris</label2></labels><start>469792</start><end>472638</end><in>0</in><out>2846</out></clipitem><clipitem id="clipitem-35"><masterclipid>masterclip-13</masterclipid><name>A002C004_190511_R6XC.[1245536-1249161]</name><enabled>TRUE</enabled><duration>3626</duration><alphatype>none</alphatype><file id="file-13" /><labels><label2>Iris</label2></labels><start>474465</start><end>478091</end><in>0</in><out>3626</out></clipitem><clipitem id="clipitem-36"><masterclipid>masterclip-14</masterclipid><name>A002C005_190511_R6XC.[1252221-1255242]</name><enabled>TRUE</enabled><duration>3022</duration><alphatype>none</alphatype><file id="file-14" /><labels><label2>Iris</label2></labels><start>481150</start><end>484172</end><in>0</in><out>3022</out></clipitem><clipitem id="clipitem-37"><masterclipid>masterclip-15</masterclipid><name>A002C006_190511_R6XC.[1280886-1283330]</name><enabled>TRUE</enabled><duration>2445</duration><alphatype>none</alphatype><file id="file-15" /><labels><label2>Iris</label2></labels><start>509815</start><end>512260</end><in>0</in><out>2445</out></clipitem><clipitem id="clipitem-38"><masterclipid>masterclip-16</masterclipid><name>A002C007_190511_R6XC.[1284452-1286174]</name><enabled>TRUE</enabled><duration>1723</duration><alphatype>none</alphatype><file id="file-16" /><labels><label2>Iris</label2></labels><start>513381</start><end>515104</end><in>0</in><out>1723</out></clipitem><clipitem id="clipitem-39"><masterclipid>masterclip-17</masterclipid><name>A003C001_190511_R6XC.[1540211-1544727]</name><enabled>TRUE</enabled><duration>4517</duration><alphatype>none</alphatype><file id="file-17" /><labels><label2>Iris</label2></labels><start>769140</start><end>773657</end><in>0</in><out>4517</out></clipitem><clipitem id="clipitem-40"><masterclipid>masterclip-18</masterclipid><name>A003C002_190511_R6XC.[1562614-1566466]</name><enabled>TRUE</enabled><duration>3853</duration><alphatype>none</alphatype><file id="file-18" /><labels><label2>Iris</label2></labels><start>791543</start><end>795396</end><in>0</in><out>3853</out></clipitem><clipitem id="clipitem-41"><masterclipid>masterclip-19</masterclipid><name>A003C003_190511_R6XC.[1572393-1580542]</name><enabled>TRUE</enabled><duration>8150</duration><alphatype>none</alphatype><file id="file-19" /><labels><label2>Iris</label2></labels><start>801322</start><end>809472</end><in>0</in><out>8150</out></clipitem><clipitem id="clipitem-42"><masterclipid>masterclip-20</masterclipid><name>A003C004_190511_R6XC.[1582384-1587340]</name><enabled>TRUE</enabled><duration>4957</duration><alphatype>none</alphatype><file id="file-20" /><labels><label2>Iris</label2></labels><start>811313</start><end>816270</end><in>0</in><out>4957</out></clipitem><clipitem id="clipitem-43"><masterclipid>masterclip-21</masterclipid><name>A003C005_190511_R6XC.[1680865-1684154]</name><enabled>TRUE</enabled><duration>3290</duration><alphatype>none</alphatype><file id="file-21" /><labels><label2>Iris</label2></labels><start>909794</start><end>913084</end><in>0</in><out>3290</out></clipitem><clipitem id="clipitem-44"><masterclipid>masterclip-22</masterclipid><name>A003C006_190511_R6XC.[1687928-1691424]</name><enabled>TRUE</enabled><duration>3497</duration><alphatype>none</alphatype><file id="file-22" /><labels><label2>Iris</label2></labels><start>916857</start><end>920354</end><in>0</in><out>3497</out></clipitem></track></video><audio><format><samplecharacteristics><depth>16</depth><samplerate>48000</samplerate></samplecharacteristics></format><numOutputChannels>2</numOutputChannels><outputs><group><index>1</index><numchannels>1</numchannels><downmix>0</downmix><channel><index>1</index></channel></group><group><index>2</index><numchannels>1</numchannels><downmix>0</downmix><channel><index>2</index></channel></group></outputs><track MZ.TrackTargeted="1" PannerCurrentValue="0.5" PannerName="Balance" PannerStartKeyframe="-91445760000000000,0.5,0,0,0,0,0,0" TL.SQTrackAudioKeyframeStyle="0" TL.SQTrackExpanded="0" TL.SQTrackExpandedHeight="25" TL.SQTrackShy="0" currentExplodedTrackIndex="0" premiereTrackType="Stereo" totalExplodedTrackCount="1"><enabled>TRUE</enabled><locked>FALSE</locked><outputchannelindex>1</outputchannelindex></track></audio></media></sequence></children></bin></children></project></xmeml>