<?xml version="1.0" encoding="UTF-8"?>
<!DOCTYPE xmeml>
<xmeml version="4">
	<project>
		<name>test</name>
		<children>
			<bin>
				<name>AUTOSEQ_1</name>
				<labels>
					<label2>Mango</label2>
				</labels>
				<children>
					<bin>
						<name>AUTOSEQ_1_MASTER_CLIPS</name>
						<labels>
							<label2>Mango</label2>
						</labels>
						<children>
							<clip id="masterclip-1" explodedTracks="true">
								<uuid>33166538-6ac6-4e02-9164-1c797b808436</uuid>
								<masterclipid>masterclip-1</masterclipid>
								<ismasterclip>TRUE</ismasterclip>
								<duration>2112</duration>
								<rate>
									<timebase>25</timebase>
									<ntsc>FALSE</ntsc>
								</rate>
								<in>0</in>
								<out>2112</out>
								<name>T001C001_190510_R6XC.[0771071-0773182].mov</name>
								<media>
									<video>
										<track>
											<clipitem id="clipitem-1">
												<masterclipid>masterclip-1</masterclipid>
												<name>T001C001_190510_R6XC.[0771071-0773182].mov</name>
												<rate>
													<timebase>25</timebase>
													<ntsc>FALSE</ntsc>
												</rate>
												<alphatype>none</alphatype>
												<pixelaspectratio>square</pixelaspectratio>
												<anamorphic>FALSE</anamorphic>
												<file id="file-1">
													<name>T001C001_190510_R6XC.[0771071-0773182].mov</name>
													<pathurl>file://localhost/Q%3a/Projects/PRODIGAL_SON/MEDIA_TRANS/190511_D01/T001C001_190510_R6XC.[0771071-0773182].mov</pathurl>
													<rate>
														<timebase>25</timebase>
														<ntsc>FALSE</ntsc>
													</rate>
													<duration>2112</duration>
													<timecode>
														<rate>
															<timebase>25</timebase>
															<ntsc>FALSE</ntsc>
														</rate>
														<string>00:00:00:00</string>
														<frame>0</frame>
														<displayformat>NDF</displayformat>
													</timecode>
													<media>
														<video>
															<samplecharacteristics>
																<rate>
																	<timebase>25</timebase>
																	<ntsc>FALSE</ntsc>
																</rate>
																<width>720</width>
																<height>480</height>
																<anamorphic>FALSE</anamorphic>
																<pixelaspectratio>square</pixelaspectratio>
																<fielddominance>none</fielddominance>
															</samplecharacteristics>
														</video>
														<audio>
															<samplecharacteristics>
																<depth>16</depth>
																<samplerate>48000</samplerate>
															</samplecharacteristics>
															<channelcount>2</channelcount>
														</audio>
													</media>
												</file>
												<link>
													<linkclipref>clipitem-1</linkclipref>
													<mediatype>video</mediatype>
													<trackindex>1</trackindex>
													<clipindex>1</clipindex>
												</link>
												<link>
													<linkclipref>clipitem-2</linkclipref>
													<mediatype>audio</mediatype>
													<trackindex>1</trackindex>
													<clipindex>1</clipindex>
													<groupindex>1</groupindex>
												</link>
												<link>
													<linkclipref>clipitem-3</linkclipref>
													<mediatype>audio</mediatype>
													<trackindex>2</trackindex>
													<clipindex>1</clipindex>
													<groupindex>1</groupindex>
												</link>
											</clipitem>
										</track>
									</video>
									<audio>
										<track>
											<clipitem id="clipitem-2">
												<masterclipid>masterclip-1</masterclipid>
												<name>T001C001_190510_R6XC.[0771071-0773182].mov</name>
												<rate>
													<timebase>25</timebase>
													<ntsc>FALSE</ntsc>
												</rate>
												<file id="file-1"/>
												<sourcetrack>
													<mediatype>audio</mediatype>
													<trackindex>1</trackindex>
												</sourcetrack>
												<link>
													<linkclipref>clipitem-1</linkclipref>
													<mediatype>video</mediatype>
													<trackindex>1</trackindex>
													<clipindex>1</clipindex>
												</link>
												<link>
													<linkclipref>clipitem-2</linkclipref>
													<mediatype>audio</mediatype>
													<trackindex>1</trackindex>
													<clipindex>1</clipindex>
													<groupindex>1</groupindex>
												</link>
												<link>
													<linkclipref>clipitem-3</linkclipref>
													<mediatype>audio</mediatype>
													<trackindex>2</trackindex>
													<clipindex>1</clipindex>
													<groupindex>1</groupindex>
												</link>
											</clipitem>
										</track>
										<track>
											<clipitem id="clipitem-3">
												<masterclipid>masterclip-1</masterclipid>
												<name>T001C001_190510_R6XC.[0771071-0773182].mov</name>
												<rate>
													<timebase>25</timebase>
													<ntsc>FALSE</ntsc>
												</rate>
												<file id="file-1"/>
												<sourcetrack>
													<mediatype>audio</mediatype>
													<trackindex>2</trackindex>
												</sourcetrack>
												<link>
													<linkclipref>clipitem-1</linkclipref>
													<mediatype>video</mediatype>
													<trackindex>1</trackindex>
													<clipindex>1</clipindex>
												</link>
												<link>
													<linkclipref>clipitem-2</linkclipref>
													<mediatype>audio</mediatype>
													<trackindex>1</trackindex>
													<clipindex>1</clipindex>
													<groupindex>1</groupindex>
												</link>
												<link>
													<linkclipref>clipitem-3</linkclipref>
													<mediatype>audio</mediatype>
													<trackindex>2</trackindex>
													<clipindex>1</clipindex>
													<groupindex>1</groupindex>
												</link>
											</clipitem>
										</track>
									</audio>
								</media>
								<logginginfo>
									<description></description>
									<scene></scene>
									<shottake></shottake>
									<lognote></lognote>
									<good></good>
									<originalvideofilename></originalvideofilename>
									<originalaudiofilename></originalaudiofilename>
								</logginginfo>
								<colorinfo>
									<lut></lut>
									<lut1></lut1>
									<asc_sop></asc_sop>
									<asc_sat></asc_sat>
									<lut2></lut2>
								</colorinfo>
								<labels>
									<label2>Iris</label2>
								</labels>
							</clip>
							<clip id="masterclip-2" explodedTracks="true">
								<uuid>517b6112-e0ad-4337-a0c9-bbf0fac93096</uuid>
								<masterclipid>masterclip-2</masterclipid>
								<ismasterclip>TRUE</ismasterclip>
								<duration>2444</duration>
								<rate>
									<timebase>25</timebase>
									<ntsc>FALSE</ntsc>
								</rate>
								<in>0</in>
								<out>2444</out>
								<name>T001C002_190510_R6XC.[0775552-0777995].mov</name>
								<media>
									<video>
										<track>
											<clipitem id="clipitem-4">
												<masterclipid>masterclip-2</masterclipid>
												<name>T001C002_190510_R6XC.[0775552-0777995].mov</name>
												<rate>
													<timebase>25</timebase>
													<ntsc>FALSE</ntsc>
												</rate>
												<alphatype>none</alphatype>
												<pixelaspectratio>square</pixelaspectratio>
												<anamorphic>FALSE</anamorphic>
												<file id="file-2">
													<name>T001C002_190510_R6XC.[0775552-0777995].mov</name>
													<pathurl>file://localhost/Q%3a/Projects/PRODIGAL_SON/MEDIA_TRANS/190511_D01/T001C002_190510_R6XC.[0775552-0777995].mov</pathurl>
													<rate>
														<timebase>25</timebase>
														<ntsc>FALSE</ntsc>
													</rate>
													<duration>2444</duration>
													<timecode>
														<rate>
															<timebase>25</timebase>
															<ntsc>FALSE</ntsc>
														</rate>
														<string>00:00:00:00</string>
														<frame>0</frame>
														<displayformat>NDF</displayformat>
													</timecode>
													<media>
														<video>
															<samplecharacteristics>
																<rate>
																	<timebase>25</timebase>
																	<ntsc>FALSE</ntsc>
																</rate>
																<width>720</width>
																<height>480</height>
																<anamorphic>FALSE</anamorphic>
																<pixelaspectratio>square</pixelaspectratio>
																<fielddominance>none</fielddominance>
															</samplecharacteristics>
														</video>
														<audio>
															<samplecharacteristics>
																<depth>16</depth>
																<samplerate>48000</samplerate>
															</samplecharacteristics>
															<channelcount>2</channelcount>
														</audio>
													</media>
												</file>
												<link>
													<linkclipref>clipitem-4</linkclipref>
													<mediatype>video</mediatype>
													<trackindex>1</trackindex>
													<clipindex>1</clipindex>
												</link>
												<link>
													<linkclipref>clipitem-5</linkclipref>
													<mediatype>audio</mediatype>
													<trackindex>1</trackindex>
													<clipindex>1</clipindex>
													<groupindex>1</groupindex>
												</link>
												<link>
													<linkclipref>clipitem-6</linkclipref>
													<mediatype>audio</mediatype>
													<trackindex>2</trackindex>
													<clipindex>1</clipindex>
													<groupindex>1</groupindex>
												</link>
											</clipitem>
										</track>
									</video>
									<audio>
										<track>
											<clipitem id="clipitem-5">
												<masterclipid>masterclip-2</masterclipid>
												<name>T001C002_190510_R6XC.[0775552-0777995].mov</name>
												<rate>
													<timebase>25</timebase>
													<ntsc>FALSE</ntsc>
												</rate>
												<file id="file-2"/>
												<sourcetrack>
													<mediatype>audio</mediatype>
													<trackindex>1</trackindex>
												</sourcetrack>
												<link>
													<linkclipref>clipitem-4</linkclipref>
													<mediatype>video</mediatype>
													<trackindex>1</trackindex>
													<clipindex>1</clipindex>
												</link>
												<link>
													<linkclipref>clipitem-5</linkclipref>
													<mediatype>audio</mediatype>
													<trackindex>1</trackindex>
													<clipindex>1</clipindex>
													<groupindex>1</groupindex>
												</link>
												<link>
													<linkclipref>clipitem-6</linkclipref>
													<mediatype>audio</mediatype>
													<trackindex>2</trackindex>
													<clipindex>1</clipindex>
													<groupindex>1</groupindex>
												</link>
											</clipitem>
										</track>
										<track>
											<clipitem id="clipitem-6">
												<masterclipid>masterclip-2</masterclipid>
												<name>T001C002_190510_R6XC.[0775552-0777995].mov</name>
												<rate>
													<timebase>25</timebase>
													<ntsc>FALSE</ntsc>
												</rate>
												<file id="file-2"/>
												<sourcetrack>
													<mediatype>audio</mediatype>
													<trackindex>2</trackindex>
												</sourcetrack>
												<link>
													<linkclipref>clipitem-4</linkclipref>
													<mediatype>video</mediatype>
													<trackindex>1</trackindex>
													<clipindex>1</clipindex>
												</link>
												<link>
													<linkclipref>clipitem-5</linkclipref>
													<mediatype>audio</mediatype>
													<trackindex>1</trackindex>
													<clipindex>1</clipindex>
													<groupindex>1</groupindex>
												</link>
												<link>
													<linkclipref>clipitem-6</linkclipref>
													<mediatype>audio</mediatype>
													<trackindex>2</trackindex>
													<clipindex>1</clipindex>
													<groupindex>1</groupindex>
												</link>
											</clipitem>
										</track>
									</audio>
								</media>
								<logginginfo>
									<description></description>
									<scene></scene>
									<shottake></shottake>
									<lognote></lognote>
									<good></good>
									<originalvideofilename></originalvideofilename>
									<originalaudiofilename></originalaudiofilename>
								</logginginfo>
								<colorinfo>
									<lut></lut>
									<lut1></lut1>
									<asc_sop></asc_sop>
									<asc_sat></asc_sat>
									<lut2></lut2>
								</colorinfo>
								<labels>
									<label2>Iris</label2>
								</labels>
							</clip>
							<clip id="masterclip-3" explodedTracks="true">
								<uuid>ddfd1880-e1bd-485a-bde9-ed90f9130bb4</uuid>
								<masterclipid>masterclip-3</masterclipid>
								<ismasterclip>TRUE</ismasterclip>
								<duration>2471</duration>
								<rate>
									<timebase>25</timebase>
									<ntsc>FALSE</ntsc>
								</rate>
								<in>0</in>
								<out>2471</out>
								<name>T001C004_190510_R6XC.[0812500-0814970].mov</name>
								<media>
									<video>
										<track>
											<clipitem id="clipitem-7">
												<masterclipid>masterclip-3</masterclipid>
												<name>T001C004_190510_R6XC.[0812500-0814970].mov</name>
												<rate>
													<timebase>25</timebase>
													<ntsc>FALSE</ntsc>
												</rate>
												<alphatype>none</alphatype>
												<pixelaspectratio>square</pixelaspectratio>
												<anamorphic>FALSE</anamorphic>
												<file id="file-3">
													<name>T001C004_190510_R6XC.[0812500-0814970].mov</name>
													<pathurl>file://localhost/Q%3a/Projects/PRODIGAL_SON/MEDIA_TRANS/190511_D01/T001C004_190510_R6XC.[0812500-0814970].mov</pathurl>
													<rate>
														<timebase>25</timebase>
														<ntsc>FALSE</ntsc>
													</rate>
													<duration>2471</duration>
													<timecode>
														<rate>
															<timebase>25</timebase>
															<ntsc>FALSE</ntsc>
														</rate>
														<string>00:00:00:00</string>
														<frame>0</frame>
														<displayformat>NDF</displayformat>
													</timecode>
													<media>
														<video>
															<samplecharacteristics>
																<rate>
																	<timebase>25</timebase>
																	<ntsc>FALSE</ntsc>
																</rate>
																<width>720</width>
																<height>480</height>
																<anamorphic>FALSE</anamorphic>
																<pixelaspectratio>square</pixelaspectratio>
																<fielddominance>none</fielddominance>
															</samplecharacteristics>
														</video>
														<audio>
															<samplecharacteristics>
																<depth>16</depth>
																<samplerate>48000</samplerate>
															</samplecharacteristics>
															<channelcount>2</channelcount>
														</audio>
													</media>
												</file>
												<link>
													<linkclipref>clipitem-7</linkclipref>
													<mediatype>video</mediatype>
													<trackindex>1</trackindex>
													<clipindex>1</clipindex>
												</link>
												<link>
													<linkclipref>clipitem-8</linkclipref>
													<mediatype>audio</mediatype>
													<trackindex>1</trackindex>
													<clipindex>1</clipindex>
													<groupindex>1</groupindex>
												</link>
												<link>
													<linkclipref>clipitem-9</linkclipref>
													<mediatype>audio</mediatype>
													<trackindex>2</trackindex>
													<clipindex>1</clipindex>
													<groupindex>1</groupindex>
												</link>
											</clipitem>
										</track>
									</video>
									<audio>
										<track>
											<clipitem id="clipitem-8">
												<masterclipid>masterclip-3</masterclipid>
												<name>T001C004_190510_R6XC.[0812500-0814970].mov</name>
												<rate>
													<timebase>25</timebase>
													<ntsc>FALSE</ntsc>
												</rate>
												<file id="file-3"/>
												<sourcetrack>
													<mediatype>audio</mediatype>
													<trackindex>1</trackindex>
												</sourcetrack>
												<link>
													<linkclipref>clipitem-7</linkclipref>
													<mediatype>video</mediatype>
													<trackindex>1</trackindex>
													<clipindex>1</clipindex>
												</link>
												<link>
													<linkclipref>clipitem-8</linkclipref>
													<mediatype>audio</mediatype>
													<trackindex>1</trackindex>
													<clipindex>1</clipindex>
													<groupindex>1</groupindex>
												</link>
												<link>
													<linkclipref>clipitem-9</linkclipref>
													<mediatype>audio</mediatype>
													<trackindex>2</trackindex>
													<clipindex>1</clipindex>
													<groupindex>1</groupindex>
												</link>
											</clipitem>
										</track>
										<track>
											<clipitem id="clipitem-9">
												<masterclipid>masterclip-3</masterclipid>
												<name>T001C004_190510_R6XC.[0812500-0814970].mov</name>
												<rate>
													<timebase>25</timebase>
													<ntsc>FALSE</ntsc>
												</rate>
												<file id="file-3"/>
												<sourcetrack>
													<mediatype>audio</mediatype>
													<trackindex>2</trackindex>
												</sourcetrack>
												<link>
													<linkclipref>clipitem-7</linkclipref>
													<mediatype>video</mediatype>
													<trackindex>1</trackindex>
													<clipindex>1</clipindex>
												</link>
												<link>
													<linkclipref>clipitem-8</linkclipref>
													<mediatype>audio</mediatype>
													<trackindex>1</trackindex>
													<clipindex>1</clipindex>
													<groupindex>1</groupindex>
												</link>
												<link>
													<linkclipref>clipitem-9</linkclipref>
													<mediatype>audio</mediatype>
													<trackindex>2</trackindex>
													<clipindex>1</clipindex>
													<groupindex>1</groupindex>
												</link>
											</clipitem>
										</track>
									</audio>
								</media>
								<logginginfo>
									<description></description>
									<scene></scene>
									<shottake></shottake>
									<lognote></lognote>
									<good></good>
									<originalvideofilename></originalvideofilename>
									<originalaudiofilename></originalaudiofilename>
								</logginginfo>
								<colorinfo>
									<lut></lut>
									<lut1></lut1>
									<asc_sop></asc_sop>
									<asc_sat></asc_sat>
									<lut2></lut2>
								</colorinfo>
								<labels>
									<label2>Iris</label2>
								</labels>
							</clip>
							<clip id="masterclip-4" explodedTracks="true">
								<uuid>a16dd10d-ba8d-45c2-af35-77d9fa38273d</uuid>
								<masterclipid>masterclip-4</masterclipid>
								<ismasterclip>TRUE</ismasterclip>
								<duration>1834</duration>
								<rate>
									<timebase>25</timebase>
									<ntsc>FALSE</ntsc>
								</rate>
								<in>0</in>
								<out>1834</out>
								<name>T001C005_190510_R6XC.[0844782-0846615].mov</name>
								<media>
									<video>
										<track>
											<clipitem id="clipitem-10">
												<masterclipid>masterclip-4</masterclipid>
												<name>T001C005_190510_R6XC.[0844782-0846615].mov</name>
												<rate>
													<timebase>25</timebase>
													<ntsc>FALSE</ntsc>
												</rate>
												<alphatype>none</alphatype>
												<pixelaspectratio>square</pixelaspectratio>
												<anamorphic>FALSE</anamorphic>
												<file id="file-4">
													<name>T001C005_190510_R6XC.[0844782-0846615].mov</name>
													<pathurl>file://localhost/Q%3a/Projects/PRODIGAL_SON/MEDIA_TRANS/190511_D01/T001C005_190510_R6XC.[0844782-0846615].mov</pathurl>
													<rate>
														<timebase>25</timebase>
														<ntsc>FALSE</ntsc>
													</rate>
													<duration>1834</duration>
													<timecode>
														<rate>
															<timebase>25</timebase>
															<ntsc>FALSE</ntsc>
														</rate>
														<string>00:00:00:00</string>
														<frame>0</frame>
														<displayformat>NDF</displayformat>
													</timecode>
													<media>
														<video>
															<samplecharacteristics>
																<rate>
																	<timebase>25</timebase>
																	<ntsc>FALSE</ntsc>
																</rate>
																<width>720</width>
																<height>480</height>
																<anamorphic>FALSE</anamorphic>
																<pixelaspectratio>square</pixelaspectratio>
																<fielddominance>none</fielddominance>
															</samplecharacteristics>
														</video>
														<audio>
															<samplecharacteristics>
																<depth>16</depth>
																<samplerate>48000</samplerate>
															</samplecharacteristics>
															<channelcount>2</channelcount>
														</audio>
													</media>
												</file>
												<link>
													<linkclipref>clipitem-10</linkclipref>
													<mediatype>video</mediatype>
													<trackindex>1</trackindex>
													<clipindex>1</clipindex>
												</link>
												<link>
													<linkclipref>clipitem-11</linkclipref>
													<mediatype>audio</mediatype>
													<trackindex>1</trackindex>
													<clipindex>1</clipindex>
													<groupindex>1</groupindex>
												</link>
												<link>
													<linkclipref>clipitem-12</linkclipref>
													<mediatype>audio</mediatype>
													<trackindex>2</trackindex>
													<clipindex>1</clipindex>
													<groupindex>1</groupindex>
												</link>
											</clipitem>
										</track>
									</video>
									<audio>
										<track>
											<clipitem id="clipitem-11">
												<masterclipid>masterclip-4</masterclipid>
												<name>T001C005_190510_R6XC.[0844782-0846615].mov</name>
												<rate>
													<timebase>25</timebase>
													<ntsc>FALSE</ntsc>
												</rate>
												<file id="file-4"/>
												<sourcetrack>
													<mediatype>audio</mediatype>
													<trackindex>1</trackindex>
												</sourcetrack>
												<link>
													<linkclipref>clipitem-10</linkclipref>
													<mediatype>video</mediatype>
													<trackindex>1</trackindex>
													<clipindex>1</clipindex>
												</link>
												<link>
													<linkclipref>clipitem-11</linkclipref>
													<mediatype>audio</mediatype>
													<trackindex>1</trackindex>
													<clipindex>1</clipindex>
													<groupindex>1</groupindex>
												</link>
												<link>
													<linkclipref>clipitem-12</linkclipref>
													<mediatype>audio</mediatype>
													<trackindex>2</trackindex>
													<clipindex>1</clipindex>
													<groupindex>1</groupindex>
												</link>
											</clipitem>
										</track>
										<track>
											<clipitem id="clipitem-12">
												<masterclipid>masterclip-4</masterclipid>
												<name>T001C005_190510_R6XC.[0844782-0846615].mov</name>
												<rate>
													<timebase>25</timebase>
													<ntsc>FALSE</ntsc>
												</rate>
												<file id="file-4"/>
												<sourcetrack>
													<mediatype>audio</mediatype>
													<trackindex>2</trackindex>
												</sourcetrack>
												<link>
													<linkclipref>clipitem-10</linkclipref>
													<mediatype>video</mediatype>
													<trackindex>1</trackindex>
													<clipindex>1</clipindex>
												</link>
												<link>
													<linkclipref>clipitem-11</linkclipref>
													<mediatype>audio</mediatype>
													<trackindex>1</trackindex>
													<clipindex>1</clipindex>
													<groupindex>1</groupindex>
												</link>
												<link>
													<linkclipref>clipitem-12</linkclipref>
													<mediatype>audio</mediatype>
													<trackindex>2</trackindex>
													<clipindex>1</clipindex>
													<groupindex>1</groupindex>
												</link>
											</clipitem>
										</track>
									</audio>
								</media>
								<logginginfo>
									<description></description>
									<scene></scene>
									<shottake></shottake>
									<lognote></lognote>
									<good></good>
									<originalvideofilename></originalvideofilename>
									<originalaudiofilename></originalaudiofilename>
								</logginginfo>
								<colorinfo>
									<lut></lut>
									<lut1></lut1>
									<asc_sop></asc_sop>
									<asc_sat></asc_sat>
									<lut2></lut2>
								</colorinfo>
								<labels>
									<label2>Iris</label2>
								</labels>
							</clip>
							<clip id="masterclip-5" explodedTracks="true">
								<uuid>ba8da26c-1abb-41bb-8257-e82a1f0d6eae</uuid>
								<masterclipid>masterclip-5</masterclipid>
								<ismasterclip>TRUE</ismasterclip>
								<duration>9325</duration>
								<rate>
									<timebase>25</timebase>
									<ntsc>FALSE</ntsc>
								</rate>
								<in>0</in>
								<out>9325</out>
								<name>T001C006_190510_R6XC.[0945567-0954891].mov</name>
								<media>
									<video>
										<track>
											<clipitem id="clipitem-13">
												<masterclipid>masterclip-5</masterclipid>
												<name>T001C006_190510_R6XC.[0945567-0954891].mov</name>
												<rate>
													<timebase>25</timebase>
													<ntsc>FALSE</ntsc>
												</rate>
												<alphatype>none</alphatype>
												<pixelaspectratio>square</pixelaspectratio>
												<anamorphic>FALSE</anamorphic>
												<file id="file-5">
													<name>T001C006_190510_R6XC.[0945567-0954891].mov</name>
													<pathurl>file://localhost/Q%3a/Projects/PRODIGAL_SON/MEDIA_TRANS/190511_D01/T001C006_190510_R6XC.[0945567-0954891].mov</pathurl>
													<rate>
														<timebase>25</timebase>
														<ntsc>FALSE</ntsc>
													</rate>
													<duration>9325</duration>
													<timecode>
														<rate>
															<timebase>25</timebase>
															<ntsc>FALSE</ntsc>
														</rate>
														<string>00:00:00:00</string>
														<frame>0</frame>
														<displayformat>NDF</displayformat>
													</timecode>
													<media>
														<video>
															<samplecharacteristics>
																<rate>
																	<timebase>25</timebase>
																	<ntsc>FALSE</ntsc>
																</rate>
																<width>720</width>
																<height>480</height>
																<anamorphic>FALSE</anamorphic>
																<pixelaspectratio>square</pixelaspectratio>
																<fielddominance>none</fielddominance>
															</samplecharacteristics>
														</video>
														<audio>
															<samplecharacteristics>
																<depth>16</depth>
																<samplerate>48000</samplerate>
															</samplecharacteristics>
															<channelcount>2</channelcount>
														</audio>
													</media>
												</file>
												<link>
													<linkclipref>clipitem-13</linkclipref>
													<mediatype>video</mediatype>
													<trackindex>1</trackindex>
													<clipindex>1</clipindex>
												</link>
												<link>
													<linkclipref>clipitem-14</linkclipref>
													<mediatype>audio</mediatype>
													<trackindex>1</trackindex>
													<clipindex>1</clipindex>
													<groupindex>1</groupindex>
												</link>
												<link>
													<linkclipref>clipitem-15</linkclipref>
													<mediatype>audio</mediatype>
													<trackindex>2</trackindex>
													<clipindex>1</clipindex>
													<groupindex>1</groupindex>
												</link>
											</clipitem>
										</track>
									</video>
									<audio>
										<track>
											<clipitem id="clipitem-14">
												<masterclipid>masterclip-5</masterclipid>
												<name>T001C006_190510_R6XC.[0945567-0954891].mov</name>
												<rate>
													<timebase>25</timebase>
													<ntsc>FALSE</ntsc>
												</rate>
												<file id="file-5"/>
												<sourcetrack>
													<mediatype>audio</mediatype>
													<trackindex>1</trackindex>
												</sourcetrack>
												<link>
													<linkclipref>clipitem-13</linkclipref>
													<mediatype>video</mediatype>
													<trackindex>1</trackindex>
													<clipindex>1</clipindex>
												</link>
												<link>
													<linkclipref>clipitem-14</linkclipref>
													<mediatype>audio</mediatype>
													<trackindex>1</trackindex>
													<clipindex>1</clipindex>
													<groupindex>1</groupindex>
												</link>
												<link>
													<linkclipref>clipitem-15</linkclipref>
													<mediatype>audio</mediatype>
													<trackindex>2</trackindex>
													<clipindex>1</clipindex>
													<groupindex>1</groupindex>
												</link>
											</clipitem>
										</track>
										<track>
											<clipitem id="clipitem-15">
												<masterclipid>masterclip-5</masterclipid>
												<name>T001C006_190510_R6XC.[0945567-0954891].mov</name>
												<rate>
													<timebase>25</timebase>
													<ntsc>FALSE</ntsc>
												</rate>
												<file id="file-5"/>
												<sourcetrack>
													<mediatype>audio</mediatype>
													<trackindex>2</trackindex>
												</sourcetrack>
												<link>
													<linkclipref>clipitem-13</linkclipref>
													<mediatype>video</mediatype>
													<trackindex>1</trackindex>
													<clipindex>1</clipindex>
												</link>
												<link>
													<linkclipref>clipitem-14</linkclipref>
													<mediatype>audio</mediatype>
													<trackindex>1</trackindex>
													<clipindex>1</clipindex>
													<groupindex>1</groupindex>
												</link>
												<link>
													<linkclipref>clipitem-15</linkclipref>
													<mediatype>audio</mediatype>
													<trackindex>2</trackindex>
													<clipindex>1</clipindex>
													<groupindex>1</groupindex>
												</link>
											</clipitem>
										</track>
									</audio>
								</media>
								<logginginfo>
									<description></description>
									<scene></scene>
									<shottake></shottake>
									<lognote></lognote>
									<good></good>
									<originalvideofilename></originalvideofilename>
									<originalaudiofilename></originalaudiofilename>
								</logginginfo>
								<colorinfo>
									<lut></lut>
									<lut1></lut1>
									<asc_sop></asc_sop>
									<asc_sat></asc_sat>
									<lut2></lut2>
								</colorinfo>
								<labels>
									<label2>Iris</label2>
								</labels>
							</clip>
							<clip id="masterclip-6" explodedTracks="true">
								<uuid>5f335a88-1f94-4b76-ac8d-ea6edab6fcf5</uuid>
								<masterclipid>masterclip-6</masterclipid>
								<ismasterclip>TRUE</ismasterclip>
								<duration>2439</duration>
								<rate>
									<timebase>25</timebase>
									<ntsc>FALSE</ntsc>
								</rate>
								<in>0</in>
								<out>2439</out>
								<name>T001C007_190511_R6XC.[0975322-0977760].mov</name>
								<media>
									<video>
										<track>
											<clipitem id="clipitem-16">
												<masterclipid>masterclip-6</masterclipid>
												<name>T001C007_190511_R6XC.[0975322-0977760].mov</name>
												<rate>
													<timebase>25</timebase>
													<ntsc>FALSE</ntsc>
												</rate>
												<alphatype>none</alphatype>
												<pixelaspectratio>square</pixelaspectratio>
												<anamorphic>FALSE</anamorphic>
												<file id="file-6">
													<name>T001C007_190511_R6XC.[0975322-0977760].mov</name>
													<pathurl>file://localhost/Q%3a/Projects/PRODIGAL_SON/MEDIA_TRANS/190511_D01/T001C007_190511_R6XC.[0975322-0977760].mov</pathurl>
													<rate>
														<timebase>25</timebase>
														<ntsc>FALSE</ntsc>
													</rate>
													<duration>2439</duration>
													<timecode>
														<rate>
															<timebase>25</timebase>
															<ntsc>FALSE</ntsc>
														</rate>
														<string>00:00:00:00</string>
														<frame>0</frame>
														<displayformat>NDF</displayformat>
													</timecode>
													<media>
														<video>
															<samplecharacteristics>
																<rate>
																	<timebase>25</timebase>
																	<ntsc>FALSE</ntsc>
																</rate>
																<width>720</width>
																<height>480</height>
																<anamorphic>FALSE</anamorphic>
																<pixelaspectratio>square</pixelaspectratio>
																<fielddominance>none</fielddominance>
															</samplecharacteristics>
														</video>
														<audio>
															<samplecharacteristics>
																<depth>16</depth>
																<samplerate>48000</samplerate>
															</samplecharacteristics>
															<channelcount>2</channelcount>
														</audio>
													</media>
												</file>
												<link>
													<linkclipref>clipitem-16</linkclipref>
													<mediatype>video</mediatype>
													<trackindex>1</trackindex>
													<clipindex>1</clipindex>
												</link>
												<link>
													<linkclipref>clipitem-17</linkclipref>
													<mediatype>audio</mediatype>
													<trackindex>1</trackindex>
													<clipindex>1</clipindex>
													<groupindex>1</groupindex>
												</link>
												<link>
													<linkclipref>clipitem-18</linkclipref>
													<mediatype>audio</mediatype>
													<trackindex>2</trackindex>
													<clipindex>1</clipindex>
													<groupindex>1</groupindex>
												</link>
											</clipitem>
										</track>
									</video>
									<audio>
										<track>
											<clipitem id="clipitem-17">
												<masterclipid>masterclip-6</masterclipid>
												<name>T001C007_190511_R6XC.[0975322-0977760].mov</name>
												<rate>
													<timebase>25</timebase>
													<ntsc>FALSE</ntsc>
												</rate>
												<file id="file-6"/>
												<sourcetrack>
													<mediatype>audio</mediatype>
													<trackindex>1</trackindex>
												</sourcetrack>
												<link>
													<linkclipref>clipitem-16</linkclipref>
													<mediatype>video</mediatype>
													<trackindex>1</trackindex>
													<clipindex>1</clipindex>
												</link>
												<link>
													<linkclipref>clipitem-17</linkclipref>
													<mediatype>audio</mediatype>
													<trackindex>1</trackindex>
													<clipindex>1</clipindex>
													<groupindex>1</groupindex>
												</link>
												<link>
													<linkclipref>clipitem-18</linkclipref>
													<mediatype>audio</mediatype>
													<trackindex>2</trackindex>
													<clipindex>1</clipindex>
													<groupindex>1</groupindex>
												</link>
											</clipitem>
										</track>
										<track>
											<clipitem id="clipitem-18">
												<masterclipid>masterclip-6</masterclipid>
												<name>T001C007_190511_R6XC.[0975322-0977760].mov</name>
												<rate>
													<timebase>25</timebase>
													<ntsc>FALSE</ntsc>
												</rate>
												<file id="file-6"/>
												<sourcetrack>
													<mediatype>audio</mediatype>
													<trackindex>2</trackindex>
												</sourcetrack>
												<link>
													<linkclipref>clipitem-16</linkclipref>
													<mediatype>video</mediatype>
													<trackindex>1</trackindex>
													<clipindex>1</clipindex>
												</link>
												<link>
													<linkclipref>clipitem-17</linkclipref>
													<mediatype>audio</mediatype>
													<trackindex>1</trackindex>
													<clipindex>1</clipindex>
													<groupindex>1</groupindex>
												</link>
												<link>
													<linkclipref>clipitem-18</linkclipref>
													<mediatype>audio</mediatype>
													<trackindex>2</trackindex>
													<clipindex>1</clipindex>
													<groupindex>1</groupindex>
												</link>
											</clipitem>
										</track>
									</audio>
								</media>
								<logginginfo>
									<description></description>
									<scene></scene>
									<shottake></shottake>
									<lognote></lognote>
									<good></good>
									<originalvideofilename></originalvideofilename>
									<originalaudiofilename></originalaudiofilename>
								</logginginfo>
								<colorinfo>
									<lut></lut>
									<lut1></lut1>
									<asc_sop></asc_sop>
									<asc_sat></asc_sat>
									<lut2></lut2>
								</colorinfo>
								<labels>
									<label2>Iris</label2>
								</labels>
							</clip>
							<clip id="masterclip-7" explodedTracks="true">
								<uuid>0f2d32e9-0ca1-4a07-8138-416f26a8317d</uuid>
								<masterclipid>masterclip-7</masterclipid>
								<ismasterclip>TRUE</ismasterclip>
								<duration>1498</duration>
								<rate>
									<timebase>25</timebase>
									<ntsc>FALSE</ntsc>
								</rate>
								<in>0</in>
								<out>1498</out>
								<name>T001C008_190511_R6XC.[0998481-0999978].mov</name>
								<media>
									<video>
										<track>
											<clipitem id="clipitem-19">
												<masterclipid>masterclip-7</masterclipid>
												<name>T001C008_190511_R6XC.[0998481-0999978].mov</name>
												<rate>
													<timebase>25</timebase>
													<ntsc>FALSE</ntsc>
												</rate>
												<alphatype>none</alphatype>
												<pixelaspectratio>square</pixelaspectratio>
												<anamorphic>FALSE</anamorphic>
												<file id="file-7">
													<name>T001C008_190511_R6XC.[0998481-0999978].mov</name>
													<pathurl>file://localhost/Q%3a/Projects/PRODIGAL_SON/MEDIA_TRANS/190511_D01/T001C008_190511_R6XC.[0998481-0999978].mov</pathurl>
													<rate>
														<timebase>25</timebase>
														<ntsc>FALSE</ntsc>
													</rate>
													<duration>1498</duration>
													<timecode>
														<rate>
															<timebase>25</timebase>
															<ntsc>FALSE</ntsc>
														</rate>
														<string>00:00:00:00</string>
														<frame>0</frame>
														<displayformat>NDF</displayformat>
													</timecode>
													<media>
														<video>
															<samplecharacteristics>
																<rate>
																	<timebase>25</timebase>
																	<ntsc>FALSE</ntsc>
																</rate>
																<width>720</width>
																<height>480</height>
																<anamorphic>FALSE</anamorphic>
																<pixelaspectratio>square</pixelaspectratio>
																<fielddominance>none</fielddominance>
															</samplecharacteristics>
														</video>
														<audio>
															<samplecharacteristics>
																<depth>16</depth>
																<samplerate>48000</samplerate>
															</samplecharacteristics>
															<channelcount>2</channelcount>
														</audio>
													</media>
												</file>
												<link>
													<linkclipref>clipitem-19</linkclipref>
													<mediatype>video</mediatype>
													<trackindex>1</trackindex>
													<clipindex>1</clipindex>
												</link>
												<link>
													<linkclipref>clipitem-20</linkclipref>
													<mediatype>audio</mediatype>
													<trackindex>1</trackindex>
													<clipindex>1</clipindex>
													<groupindex>1</groupindex>
												</link>
												<link>
													<linkclipref>clipitem-21</linkclipref>
													<mediatype>audio</mediatype>
													<trackindex>2</trackindex>
													<clipindex>1</clipindex>
													<groupindex>1</groupindex>
												</link>
											</clipitem>
										</track>
									</video>
									<audio>
										<track>
											<clipitem id="clipitem-20">
												<masterclipid>masterclip-7</masterclipid>
												<name>T001C008_190511_R6XC.[0998481-0999978].mov</name>
												<rate>
													<timebase>25</timebase>
													<ntsc>FALSE</ntsc>
												</rate>
												<file id="file-7"/>
												<sourcetrack>
													<mediatype>audio</mediatype>
													<trackindex>1</trackindex>
												</sourcetrack>
												<link>
													<linkclipref>clipitem-19</linkclipref>
													<mediatype>video</mediatype>
													<trackindex>1</trackindex>
													<clipindex>1</clipindex>
												</link>
												<link>
													<linkclipref>clipitem-20</linkclipref>
													<mediatype>audio</mediatype>
													<trackindex>1</trackindex>
													<clipindex>1</clipindex>
													<groupindex>1</groupindex>
												</link>
												<link>
													<linkclipref>clipitem-21</linkclipref>
													<mediatype>audio</mediatype>
													<trackindex>2</trackindex>
													<clipindex>1</clipindex>
													<groupindex>1</groupindex>
												</link>
											</clipitem>
										</track>
										<track>
											<clipitem id="clipitem-21">
												<masterclipid>masterclip-7</masterclipid>
												<name>T001C008_190511_R6XC.[0998481-0999978].mov</name>
												<rate>
													<timebase>25</timebase>
													<ntsc>FALSE</ntsc>
												</rate>
												<file id="file-7"/>
												<sourcetrack>
													<mediatype>audio</mediatype>
													<trackindex>2</trackindex>
												</sourcetrack>
												<link>
													<linkclipref>clipitem-19</linkclipref>
													<mediatype>video</mediatype>
													<trackindex>1</trackindex>
													<clipindex>1</clipindex>
												</link>
												<link>
													<linkclipref>clipitem-20</linkclipref>
													<mediatype>audio</mediatype>
													<trackindex>1</trackindex>
													<clipindex>1</clipindex>
													<groupindex>1</groupindex>
												</link>
												<link>
													<linkclipref>clipitem-21</linkclipref>
													<mediatype>audio</mediatype>
													<trackindex>2</trackindex>
													<clipindex>1</clipindex>
													<groupindex>1</groupindex>
												</link>
											</clipitem>
										</track>
									</audio>
								</media>
								<logginginfo>
									<description></description>
									<scene></scene>
									<shottake></shottake>
									<lognote></lognote>
									<good></good>
									<originalvideofilename></originalvideofilename>
									<originalaudiofilename></originalaudiofilename>
								</logginginfo>
								<colorinfo>
									<lut></lut>
									<lut1></lut1>
									<asc_sop></asc_sop>
									<asc_sat></asc_sat>
									<lut2></lut2>
								</colorinfo>
								<labels>
									<label2>Iris</label2>
								</labels>
							</clip>
							<clip id="masterclip-8" explodedTracks="true">
								<uuid>8a8b35dd-cf10-4b54-bee2-9e09c386e9fe</uuid>
								<masterclipid>masterclip-8</masterclipid>
								<ismasterclip>TRUE</ismasterclip>
								<duration>1694</duration>
								<rate>
									<timebase>25</timebase>
									<ntsc>FALSE</ntsc>
								</rate>
								<in>0</in>
								<out>1694</out>
								<name>T001C009_190511_R6XC.[1020697-1022390].mov</name>
								<media>
									<video>
										<track>
											<clipitem id="clipitem-22">
												<masterclipid>masterclip-8</masterclipid>
												<name>T001C009_190511_R6XC.[1020697-1022390].mov</name>
												<rate>
													<timebase>25</timebase>
													<ntsc>FALSE</ntsc>
												</rate>
												<alphatype>none</alphatype>
												<pixelaspectratio>square</pixelaspectratio>
												<anamorphic>FALSE</anamorphic>
												<file id="file-8">
													<name>T001C009_190511_R6XC.[1020697-1022390].mov</name>
													<pathurl>file://localhost/Q%3a/Projects/PRODIGAL_SON/MEDIA_TRANS/190511_D01/T001C009_190511_R6XC.[1020697-1022390].mov</pathurl>
													<rate>
														<timebase>25</timebase>
														<ntsc>FALSE</ntsc>
													</rate>
													<duration>1694</duration>
													<timecode>
														<rate>
															<timebase>25</timebase>
															<ntsc>FALSE</ntsc>
														</rate>
														<string>00:00:00:00</string>
														<frame>0</frame>
														<displayformat>NDF</displayformat>
													</timecode>
													<media>
														<video>
															<samplecharacteristics>
																<rate>
																	<timebase>25</timebase>
																	<ntsc>FALSE</ntsc>
																</rate>
																<width>720</width>
																<height>480</height>
																<anamorphic>FALSE</anamorphic>
																<pixelaspectratio>square</pixelaspectratio>
																<fielddominance>none</fielddominance>
															</samplecharacteristics>
														</video>
														<audio>
															<samplecharacteristics>
																<depth>16</depth>
																<samplerate>48000</samplerate>
															</samplecharacteristics>
															<channelcount>2</channelcount>
														</audio>
													</media>
												</file>
												<link>
													<linkclipref>clipitem-22</linkclipref>
													<mediatype>video</mediatype>
													<trackindex>1</trackindex>
													<clipindex>1</clipindex>
												</link>
												<link>
													<linkclipref>clipitem-23</linkclipref>
													<mediatype>audio</mediatype>
													<trackindex>1</trackindex>
													<clipindex>1</clipindex>
													<groupindex>1</groupindex>
												</link>
												<link>
													<linkclipref>clipitem-24</linkclipref>
													<mediatype>audio</mediatype>
													<trackindex>2</trackindex>
													<clipindex>1</clipindex>
													<groupindex>1</groupindex>
												</link>
											</clipitem>
										</track>
									</video>
									<audio>
										<track>
											<clipitem id="clipitem-23">
												<masterclipid>masterclip-8</masterclipid>
												<name>T001C009_190511_R6XC.[1020697-1022390].mov</name>
												<rate>
													<timebase>25</timebase>
													<ntsc>FALSE</ntsc>
												</rate>
												<file id="file-8"/>
												<sourcetrack>
													<mediatype>audio</mediatype>
													<trackindex>1</trackindex>
												</sourcetrack>
												<link>
													<linkclipref>clipitem-22</linkclipref>
													<mediatype>video</mediatype>
													<trackindex>1</trackindex>
													<clipindex>1</clipindex>
												</link>
												<link>
													<linkclipref>clipitem-23</linkclipref>
													<mediatype>audio</mediatype>
													<trackindex>1</trackindex>
													<clipindex>1</clipindex>
													<groupindex>1</groupindex>
												</link>
												<link>
													<linkclipref>clipitem-24</linkclipref>
													<mediatype>audio</mediatype>
													<trackindex>2</trackindex>
													<clipindex>1</clipindex>
													<groupindex>1</groupindex>
												</link>
											</clipitem>
										</track>
										<track>
											<clipitem id="clipitem-24">
												<masterclipid>masterclip-8</masterclipid>
												<name>T001C009_190511_R6XC.[1020697-1022390].mov</name>
												<rate>
													<timebase>25</timebase>
													<ntsc>FALSE</ntsc>
												</rate>
												<file id="file-8"/>
												<sourcetrack>
													<mediatype>audio</mediatype>
													<trackindex>2</trackindex>
												</sourcetrack>
												<link>
													<linkclipref>clipitem-22</linkclipref>
													<mediatype>video</mediatype>
													<trackindex>1</trackindex>
													<clipindex>1</clipindex>
												</link>
												<link>
													<linkclipref>clipitem-23</linkclipref>
													<mediatype>audio</mediatype>
													<trackindex>1</trackindex>
													<clipindex>1</clipindex>
													<groupindex>1</groupindex>
												</link>
												<link>
													<linkclipref>clipitem-24</linkclipref>
													<mediatype>audio</mediatype>
													<trackindex>2</trackindex>
													<clipindex>1</clipindex>
													<groupindex>1</groupindex>
												</link>
											</clipitem>
										</track>
									</audio>
								</media>
								<logginginfo>
									<description></description>
									<scene></scene>
									<shottake></shottake>
									<lognote></lognote>
									<good></good>
									<originalvideofilename></originalvideofilename>
									<originalaudiofilename></originalaudiofilename>
								</logginginfo>
								<colorinfo>
									<lut></lut>
									<lut1></lut1>
									<asc_sop></asc_sop>
									<asc_sat></asc_sat>
									<lut2></lut2>
								</colorinfo>
								<labels>
									<label2>Iris</label2>
								</labels>
							</clip>
							<clip id="masterclip-9" explodedTracks="true">
								<uuid>18bf249f-b292-4bb6-ba79-dd06e23be500</uuid>
								<masterclipid>masterclip-9</masterclipid>
								<ismasterclip>TRUE</ismasterclip>
								<duration>1690</duration>
								<rate>
									<timebase>25</timebase>
									<ntsc>FALSE</ntsc>
								</rate>
								<in>0</in>
								<out>1690</out>
								<name>T001C010_190511_R6XC.[1043405-1045094].mov</name>
								<media>
									<video>
										<track>
											<clipitem id="clipitem-25">
												<masterclipid>masterclip-9</masterclipid>
												<name>T001C010_190511_R6XC.[1043405-1045094].mov</name>
												<rate>
													<timebase>25</timebase>
													<ntsc>FALSE</ntsc>
												</rate>
												<alphatype>none</alphatype>
												<pixelaspectratio>square</pixelaspectratio>
												<anamorphic>FALSE</anamorphic>
												<file id="file-9">
													<name>T001C010_190511_R6XC.[1043405-1045094].mov</name>
													<pathurl>file://localhost/Q%3a/Projects/PRODIGAL_SON/MEDIA_TRANS/190511_D01/T001C010_190511_R6XC.[1043405-1045094].mov</pathurl>
													<rate>
														<timebase>25</timebase>
														<ntsc>FALSE</ntsc>
													</rate>
													<duration>1690</duration>
													<timecode>
														<rate>
															<timebase>25</timebase>
															<ntsc>FALSE</ntsc>
														</rate>
														<string>00:00:00:00</string>
														<frame>0</frame>
														<displayformat>NDF</displayformat>
													</timecode>
													<media>
														<video>
															<samplecharacteristics>
																<rate>
																	<timebase>25</timebase>
																	<ntsc>FALSE</ntsc>
																</rate>
																<width>720</width>
																<height>480</height>
																<anamorphic>FALSE</anamorphic>
																<pixelaspectratio>square</pixelaspectratio>
																<fielddominance>none</fielddominance>
															</samplecharacteristics>
														</video>
														<audio>
															<samplecharacteristics>
																<depth>16</depth>
																<samplerate>48000</samplerate>
															</samplecharacteristics>
															<channelcount>2</channelcount>
														</audio>
													</media>
												</file>
												<link>
													<linkclipref>clipitem-25</linkclipref>
													<mediatype>video</mediatype>
													<trackindex>1</trackindex>
													<clipindex>1</clipindex>
												</link>
												<link>
													<linkclipref>clipitem-26</linkclipref>
													<mediatype>audio</mediatype>
													<trackindex>1</trackindex>
													<clipindex>1</clipindex>
													<groupindex>1</groupindex>
												</link>
												<link>
													<linkclipref>clipitem-27</linkclipref>
													<mediatype>audio</mediatype>
													<trackindex>2</trackindex>
													<clipindex>1</clipindex>
													<groupindex>1</groupindex>
												</link>
											</clipitem>
										</track>
									</video>
									<audio>
										<track>
											<clipitem id="clipitem-26">
												<masterclipid>masterclip-9</masterclipid>
												<name>T001C010_190511_R6XC.[1043405-1045094].mov</name>
												<rate>
													<timebase>25</timebase>
													<ntsc>FALSE</ntsc>
												</rate>
												<file id="file-9"/>
												<sourcetrack>
													<mediatype>audio</mediatype>
													<trackindex>1</trackindex>
												</sourcetrack>
												<link>
													<linkclipref>clipitem-25</linkclipref>
													<mediatype>video</mediatype>
													<trackindex>1</trackindex>
													<clipindex>1</clipindex>
												</link>
												<link>
													<linkclipref>clipitem-26</linkclipref>
													<mediatype>audio</mediatype>
													<trackindex>1</trackindex>
													<clipindex>1</clipindex>
													<groupindex>1</groupindex>
												</link>
												<link>
													<linkclipref>clipitem-27</linkclipref>
													<mediatype>audio</mediatype>
													<trackindex>2</trackindex>
													<clipindex>1</clipindex>
													<groupindex>1</groupindex>
												</link>
											</clipitem>
										</track>
										<track>
											<clipitem id="clipitem-27">
												<masterclipid>masterclip-9</masterclipid>
												<name>T001C010_190511_R6XC.[1043405-1045094].mov</name>
												<rate>
													<timebase>25</timebase>
													<ntsc>FALSE</ntsc>
												</rate>
												<file id="file-9"/>
												<sourcetrack>
													<mediatype>audio</mediatype>
													<trackindex>2</trackindex>
												</sourcetrack>
												<link>
													<linkclipref>clipitem-25</linkclipref>
													<mediatype>video</mediatype>
													<trackindex>1</trackindex>
													<clipindex>1</clipindex>
												</link>
												<link>
													<linkclipref>clipitem-26</linkclipref>
													<mediatype>audio</mediatype>
													<trackindex>1</trackindex>
													<clipindex>1</clipindex>
													<groupindex>1</groupindex>
												</link>
												<link>
													<linkclipref>clipitem-27</linkclipref>
													<mediatype>audio</mediatype>
													<trackindex>2</trackindex>
													<clipindex>1</clipindex>
													<groupindex>1</groupindex>
												</link>
											</clipitem>
										</track>
									</audio>
								</media>
								<logginginfo>
									<description></description>
									<scene></scene>
									<shottake></shottake>
									<lognote></lognote>
									<good></good>
									<originalvideofilename></originalvideofilename>
									<originalaudiofilename></originalaudiofilename>
								</logginginfo>
								<colorinfo>
									<lut></lut>
									<lut1></lut1>
									<asc_sop></asc_sop>
									<asc_sat></asc_sat>
									<lut2></lut2>
								</colorinfo>
								<labels>
									<label2>Iris</label2>
								</labels>
							</clip>
							<clip id="masterclip-10" explodedTracks="true">
								<uuid>bf22819e-5f88-492c-a8e9-1dd5d419e05e</uuid>
								<masterclipid>masterclip-10</masterclipid>
								<ismasterclip>TRUE</ismasterclip>
								<duration>3200</duration>
								<rate>
									<timebase>25</timebase>
									<ntsc>FALSE</ntsc>
								</rate>
								<in>0</in>
								<out>3200</out>
								<name>190511_001.WAV</name>
								<media>
									<video>
										<track>
											<clipitem id="clipitem-28">
												<masterclipid>masterclip-10</masterclipid>
												<name>190511_001.WAV</name>
												<rate>
													<timebase>25</timebase>
													<ntsc>FALSE</ntsc>
												</rate>
												<alphatype>none</alphatype>
												<pixelaspectratio>square</pixelaspectratio>
												<anamorphic>FALSE</anamorphic>
												<file id="file-10">
													<name>190511_001.WAV</name>
													<pathurl>file://localhost/Q%3a/Projects/PRODIGAL_SON/MEDIA/190511_D01/AUDIO/PM/190511/190511_001.WAV</pathurl>
													<rate>
														<timebase>25</timebase>
														<ntsc>FALSE</ntsc>
													</rate>
													<duration>3200</duration>
													<timecode>
														<rate>
															<timebase>25</timebase>
															<ntsc>FALSE</ntsc>
														</rate>
														<string>00:00:00:00</string>
														<frame>0</frame>
														<displayformat>NDF</displayformat>
													</timecode>
													<media>
														<video>
															<samplecharacteristics>
																<rate>
																	<timebase>25</timebase>
																	<ntsc>FALSE</ntsc>
																</rate>
																<width>720</width>
																<height>480</height>
																<anamorphic>FALSE</anamorphic>
																<pixelaspectratio>square</pixelaspectratio>
																<fielddominance>none</fielddominance>
															</samplecharacteristics>
														</video>
														<audio>
															<samplecharacteristics>
																<depth>16</depth>
																<samplerate>48000</samplerate>
															</samplecharacteristics>
															<channelcount>2</channelcount>
														</audio>
													</media>
												</file>
												<link>
													<linkclipref>clipitem-28</linkclipref>
													<mediatype>video</mediatype>
													<trackindex>1</trackindex>
													<clipindex>1</clipindex>
												</link>
												<link>
													<linkclipref>clipitem-29</linkclipref>
													<mediatype>audio</mediatype>
													<trackindex>1</trackindex>
													<clipindex>1</clipindex>
													<groupindex>1</groupindex>
												</link>
												<link>
													<linkclipref>clipitem-30</linkclipref>
													<mediatype>audio</mediatype>
													<trackindex>2</trackindex>
													<clipindex>1</clipindex>
													<groupindex>1</groupindex>
												</link>
											</clipitem>
										</track>
									</video>
									<audio>
										<track>
											<clipitem id="clipitem-29">
												<masterclipid>masterclip-10</masterclipid>
												<name>190511_001.WAV</name>
												<rate>
													<timebase>25</timebase>
													<ntsc>FALSE</ntsc>
												</rate>
												<file id="file-10"/>
												<sourcetrack>
													<mediatype>audio</mediatype>
													<trackindex>1</trackindex>
												</sourcetrack>
												<link>
													<linkclipref>clipitem-28</linkclipref>
													<mediatype>video</mediatype>
													<trackindex>1</trackindex>
													<clipindex>1</clipindex>
												</link>
												<link>
													<linkclipref>clipitem-29</linkclipref>
													<mediatype>audio</mediatype>
													<trackindex>1</trackindex>
													<clipindex>1</clipindex>
													<groupindex>1</groupindex>
												</link>
												<link>
													<linkclipref>clipitem-30</linkclipref>
													<mediatype>audio</mediatype>
													<trackindex>2</trackindex>
													<clipindex>1</clipindex>
													<groupindex>1</groupindex>
												</link>
											</clipitem>
										</track>
										<track>
											<clipitem id="clipitem-30">
												<masterclipid>masterclip-10</masterclipid>
												<name>190511_001.WAV</name>
												<rate>
													<timebase>25</timebase>
													<ntsc>FALSE</ntsc>
												</rate>
												<file id="file-10"/>
												<sourcetrack>
													<mediatype>audio</mediatype>
													<trackindex>2</trackindex>
												</sourcetrack>
												<link>
													<linkclipref>clipitem-28</linkclipref>
													<mediatype>video</mediatype>
													<trackindex>1</trackindex>
													<clipindex>1</clipindex>
												</link>
												<link>
													<linkclipref>clipitem-29</linkclipref>
													<mediatype>audio</mediatype>
													<trackindex>1</trackindex>
													<clipindex>1</clipindex>
													<groupindex>1</groupindex>
												</link>
												<link>
													<linkclipref>clipitem-30</linkclipref>
													<mediatype>audio</mediatype>
													<trackindex>2</trackindex>
													<clipindex>1</clipindex>
													<groupindex>1</groupindex>
												</link>
											</clipitem>
										</track>
									</audio>
								</media>
								<logginginfo>
									<description></description>
									<scene></scene>
									<shottake></shottake>
									<lognote></lognote>
									<good></good>
									<originalvideofilename></originalvideofilename>
									<originalaudiofilename></originalaudiofilename>
								</logginginfo>
								<colorinfo>
									<lut></lut>
									<lut1></lut1>
									<asc_sop></asc_sop>
									<asc_sat></asc_sat>
									<lut2></lut2>
								</colorinfo>
								<labels>
									<label2>Iris</label2>
								</labels>
							</clip>
							<clip id="masterclip-11" explodedTracks="true">
								<uuid>d690e604-8339-4658-902a-d7bf21df9547</uuid>
								<masterclipid>masterclip-11</masterclipid>
								<ismasterclip>TRUE</ismasterclip>
								<duration>2583</duration>
								<rate>
									<timebase>25</timebase>
									<ntsc>FALSE</ntsc>
								</rate>
								<in>0</in>
								<out>2583</out>
								<name>A002C001_190511_R6XC.[1230177-1232759].mov</name>
								<media>
									<video>
										<track>
											<clipitem id="clipitem-31">
												<masterclipid>masterclip-11</masterclipid>
												<name>A002C001_190511_R6XC.[1230177-1232759].mov</name>
												<rate>
													<timebase>25</timebase>
													<ntsc>FALSE</ntsc>
												</rate>
												<alphatype>none</alphatype>
												<pixelaspectratio>square</pixelaspectratio>
												<anamorphic>FALSE</anamorphic>
												<file id="file-11">
													<name>A002C001_190511_R6XC.[1230177-1232759].mov</name>
													<pathurl>file://localhost/Q%3a/Projects/PRODIGAL_SON/MEDIA_TRANS/190511_D01/A002C001_190511_R6XC.[1230177-1232759].mov</pathurl>
													<rate>
														<timebase>25</timebase>
														<ntsc>FALSE</ntsc>
													</rate>
													<duration>2583</duration>
													<timecode>
														<rate>
															<timebase>25</timebase>
															<ntsc>FALSE</ntsc>
														</rate>
														<string>00:00:00:00</string>
														<frame>0</frame>
														<displayformat>NDF</displayformat>
													</timecode>
													<media>
														<video>
															<samplecharacteristics>
																<rate>
																	<timebase>25</timebase>
																	<ntsc>FALSE</ntsc>
																</rate>
																<width>720</width>
																<height>480</height>
																<anamorphic>FALSE</anamorphic>
																<pixelaspectratio>square</pixelaspectratio>
																<fielddominance>none</fielddominance>
															</samplecharacteristics>
														</video>
														<audio>
															<samplecharacteristics>
																<depth>16</depth>
																<samplerate>48000</samplerate>
															</samplecharacteristics>
															<channelcount>2</channelcount>
														</audio>
													</media>
												</file>
												<link>
													<linkclipref>clipitem-31</linkclipref>
													<mediatype>video</mediatype>
													<trackindex>1</trackindex>
													<clipindex>1</clipindex>
												</link>
												<link>
													<linkclipref>clipitem-32</linkclipref>
													<mediatype>audio</mediatype>
													<trackindex>1</trackindex>
													<clipindex>1</clipindex>
													<groupindex>1</groupindex>
												</link>
												<link>
													<linkclipref>clipitem-33</linkclipref>
													<mediatype>audio</mediatype>
													<trackindex>2</trackindex>
													<clipindex>1</clipindex>
													<groupindex>1</groupindex>
												</link>
											</clipitem>
										</track>
									</video>
									<audio>
										<track>
											<clipitem id="clipitem-32">
												<masterclipid>masterclip-11</masterclipid>
												<name>A002C001_190511_R6XC.[1230177-1232759].mov</name>
												<rate>
													<timebase>25</timebase>
													<ntsc>FALSE</ntsc>
												</rate>
												<file id="file-11"/>
												<sourcetrack>
													<mediatype>audio</mediatype>
													<trackindex>1</trackindex>
												</sourcetrack>
												<link>
													<linkclipref>clipitem-31</linkclipref>
													<mediatype>video</mediatype>
													<trackindex>1</trackindex>
													<clipindex>1</clipindex>
												</link>
												<link>
													<linkclipref>clipitem-32</linkclipref>
													<mediatype>audio</mediatype>
													<trackindex>1</trackindex>
													<clipindex>1</clipindex>
													<groupindex>1</groupindex>
												</link>
												<link>
													<linkclipref>clipitem-33</linkclipref>
													<mediatype>audio</mediatype>
													<trackindex>2</trackindex>
													<clipindex>1</clipindex>
													<groupindex>1</groupindex>
												</link>
											</clipitem>
										</track>
										<track>
											<clipitem id="clipitem-33">
												<masterclipid>masterclip-11</masterclipid>
												<name>A002C001_190511_R6XC.[1230177-1232759].mov</name>
												<rate>
													<timebase>25</timebase>
													<ntsc>FALSE</ntsc>
												</rate>
												<file id="file-11"/>
												<sourcetrack>
													<mediatype>audio</mediatype>
													<trackindex>2</trackindex>
												</sourcetrack>
												<link>
													<linkclipref>clipitem-31</linkclipref>
													<mediatype>video</mediatype>
													<trackindex>1</trackindex>
													<clipindex>1</clipindex>
												</link>
												<link>
													<linkclipref>clipitem-32</linkclipref>
													<mediatype>audio</mediatype>
													<trackindex>1</trackindex>
													<clipindex>1</clipindex>
													<groupindex>1</groupindex>
												</link>
												<link>
													<linkclipref>clipitem-33</linkclipref>
													<mediatype>audio</mediatype>
													<trackindex>2</trackindex>
													<clipindex>1</clipindex>
													<groupindex>1</groupindex>
												</link>
											</clipitem>
										</track>
									</audio>
								</media>
								<logginginfo>
									<description></description>
									<scene></scene>
									<shottake></shottake>
									<lognote></lognote>
									<good></good>
									<originalvideofilename></originalvideofilename>
									<originalaudiofilename></originalaudiofilename>
								</logginginfo>
								<colorinfo>
									<lut></lut>
									<lut1></lut1>
									<asc_sop></asc_sop>
									<asc_sat></asc_sat>
									<lut2></lut2>
								</colorinfo>
								<labels>
									<label2>Iris</label2>
								</labels>
							</clip>
							<clip id="masterclip-12" explodedTracks="true">
								<uuid>23167a51-e26b-4891-b7f4-7c0c707ac19b</uuid>
								<masterclipid>masterclip-12</masterclipid>
								<ismasterclip>TRUE</ismasterclip>
								<duration>1500</duration>
								<rate>
									<timebase>25</timebase>
									<ntsc>FALSE</ntsc>
								</rate>
								<in>0</in>
								<out>1500</out>
								<name>190511_002.WAV</name>
								<media>
									<video>
										<track>
											<clipitem id="clipitem-34">
												<masterclipid>masterclip-12</masterclipid>
												<name>190511_002.WAV</name>
												<rate>
													<timebase>25</timebase>
													<ntsc>FALSE</ntsc>
												</rate>
												<alphatype>none</alphatype>
												<pixelaspectratio>square</pixelaspectratio>
												<anamorphic>FALSE</anamorphic>
												<file id="file-12">
													<name>190511_002.WAV</name>
													<pathurl>file://localhost/Q%3a/Projects/PRODIGAL_SON/MEDIA/190511_D01/AUDIO/PM/190511/190511_002.WAV</pathurl>
													<rate>
														<timebase>25</timebase>
														<ntsc>FALSE</ntsc>
													</rate>
													<duration>1500</duration>
													<timecode>
														<rate>
															<timebase>25</timebase>
															<ntsc>FALSE</ntsc>
														</rate>
														<string>00:00:00:00</string>
														<frame>0</frame>
														<displayformat>NDF</displayformat>
													</timecode>
													<media>
														<video>
															<samplecharacteristics>
																<rate>
																	<timebase>25</timebase>
																	<ntsc>FALSE</ntsc>
																</rate>
																<width>720</width>
																<height>480</height>
																<anamorphic>FALSE</anamorphic>
																<pixelaspectratio>square</pixelaspectratio>
																<fielddominance>none</fielddominance>
															</samplecharacteristics>
														</video>
														<audio>
															<samplecharacteristics>
																<depth>16</depth>
																<samplerate>48000</samplerate>
															</samplecharacteristics>
															<channelcount>2</channelcount>
														</audio>
													</media>
												</file>
												<link>
													<linkclipref>clipitem-34</linkclipref>
													<mediatype>video</mediatype>
													<trackindex>1</trackindex>
													<clipindex>1</clipindex>
												</link>
												<link>
													<linkclipref>clipitem-35</linkclipref>
													<mediatype>audio</mediatype>
													<trackindex>1</trackindex>
													<clipindex>1</clipindex>
													<groupindex>1</groupindex>
												</link>
												<link>
													<linkclipref>clipitem-36</linkclipref>
													<mediatype>audio</mediatype>
													<trackindex>2</trackindex>
													<clipindex>1</clipindex>
													<groupindex>1</groupindex>
												</link>
											</clipitem>
										</track>
									</video>
									<audio>
										<track>
											<clipitem id="clipitem-35">
												<masterclipid>masterclip-12</masterclipid>
												<name>190511_002.WAV</name>
												<rate>
													<timebase>25</timebase>
													<ntsc>FALSE</ntsc>
												</rate>
												<file id="file-12"/>
												<sourcetrack>
													<mediatype>audio</mediatype>
													<trackindex>1</trackindex>
												</sourcetrack>
												<link>
													<linkclipref>clipitem-34</linkclipref>
													<mediatype>video</mediatype>
													<trackindex>1</trackindex>
													<clipindex>1</clipindex>
												</link>
												<link>
													<linkclipref>clipitem-35</linkclipref>
													<mediatype>audio</mediatype>
													<trackindex>1</trackindex>
													<clipindex>1</clipindex>
													<groupindex>1</groupindex>
												</link>
												<link>
													<linkclipref>clipitem-36</linkclipref>
													<mediatype>audio</mediatype>
													<trackindex>2</trackindex>
													<clipindex>1</clipindex>
													<groupindex>1</groupindex>
												</link>
											</clipitem>
										</track>
										<track>
											<clipitem id="clipitem-36">
												<masterclipid>masterclip-12</masterclipid>
												<name>190511_002.WAV</name>
												<rate>
													<timebase>25</timebase>
													<ntsc>FALSE</ntsc>
												</rate>
												<file id="file-12"/>
												<sourcetrack>
													<mediatype>audio</mediatype>
													<trackindex>2</trackindex>
												</sourcetrack>
												<link>
													<linkclipref>clipitem-34</linkclipref>
													<mediatype>video</mediatype>
													<trackindex>1</trackindex>
													<clipindex>1</clipindex>
												</link>
												<link>
													<linkclipref>clipitem-35</linkclipref>
													<mediatype>audio</mediatype>
													<trackindex>1</trackindex>
													<clipindex>1</clipindex>
													<groupindex>1</groupindex>
												</link>
												<link>
													<linkclipref>clipitem-36</linkclipref>
													<mediatype>audio</mediatype>
													<trackindex>2</trackindex>
													<clipindex>1</clipindex>
													<groupindex>1</groupindex>
												</link>
											</clipitem>
										</track>
									</audio>
								</media>
								<logginginfo>
									<description></description>
									<scene></scene>
									<shottake></shottake>
									<lognote></lognote>
									<good></good>
									<originalvideofilename></originalvideofilename>
									<originalaudiofilename></originalaudiofilename>
								</logginginfo>
								<colorinfo>
									<lut></lut>
									<lut1></lut1>
									<asc_sop></asc_sop>
									<asc_sat></asc_sat>
									<lut2></lut2>
								</colorinfo>
								<labels>
									<label2>Iris</label2>
								</labels>
							</clip>
							<clip id="masterclip-13" explodedTracks="true">
								<uuid>95839497-9c17-4c86-aa93-85c9d1efc24a</uuid>
								<masterclipid>masterclip-13</masterclipid>
								<ismasterclip>TRUE</ismasterclip>
								<duration>1077</duration>
								<rate>
									<timebase>25</timebase>
									<ntsc>FALSE</ntsc>
								</rate>
								<in>0</in>
								<out>1077</out>
								<name>A002C002_190511_R6XC.[1238357-1239433].mov</name>
								<media>
									<video>
										<track>
											<clipitem id="clipitem-37">
												<masterclipid>masterclip-13</masterclipid>
												<name>A002C002_190511_R6XC.[1238357-1239433].mov</name>
												<rate>
													<timebase>25</timebase>
													<ntsc>FALSE</ntsc>
												</rate>
												<alphatype>none</alphatype>
												<pixelaspectratio>square</pixelaspectratio>
												<anamorphic>FALSE</anamorphic>
												<file id="file-13">
													<name>A002C002_190511_R6XC.[1238357-1239433].mov</name>
													<pathurl>file://localhost/Q%3a/Projects/PRODIGAL_SON/MEDIA_TRANS/190511_D01/A002C002_190511_R6XC.[1238357-1239433].mov</pathurl>
													<rate>
														<timebase>25</timebase>
														<ntsc>FALSE</ntsc>
													</rate>
													<duration>1077</duration>
													<timecode>
														<rate>
															<timebase>25</timebase>
															<ntsc>FALSE</ntsc>
														</rate>
														<string>00:00:00:00</string>
														<frame>0</frame>
														<displayformat>NDF</displayformat>
													</timecode>
													<media>
														<video>
															<samplecharacteristics>
																<rate>
																	<timebase>25</timebase>
																	<ntsc>FALSE</ntsc>
																</rate>
																<width>720</width>
																<height>480</height>
																<anamorphic>FALSE</anamorphic>
																<pixelaspectratio>square</pixelaspectratio>
																<fielddominance>none</fielddominance>
															</samplecharacteristics>
														</video>
														<audio>
															<samplecharacteristics>
																<depth>16</depth>
																<samplerate>48000</samplerate>
															</samplecharacteristics>
															<channelcount>2</channelcount>
														</audio>
													</media>
												</file>
												<link>
													<linkclipref>clipitem-37</linkclipref>
													<mediatype>video</mediatype>
													<trackindex>1</trackindex>
													<clipindex>1</clipindex>
												</link>
												<link>
													<linkclipref>clipitem-38</linkclipref>
													<mediatype>audio</mediatype>
													<trackindex>1</trackindex>
													<clipindex>1</clipindex>
													<groupindex>1</groupindex>
												</link>
												<link>
													<linkclipref>clipitem-39</linkclipref>
													<mediatype>audio</mediatype>
													<trackindex>2</trackindex>
													<clipindex>1</clipindex>
													<groupindex>1</groupindex>
												</link>
											</clipitem>
										</track>
									</video>
									<audio>
										<track>
											<clipitem id="clipitem-38">
												<masterclipid>masterclip-13</masterclipid>
												<name>A002C002_190511_R6XC.[1238357-1239433].mov</name>
												<rate>
													<timebase>25</timebase>
													<ntsc>FALSE</ntsc>
												</rate>
												<file id="file-13"/>
												<sourcetrack>
													<mediatype>audio</mediatype>
													<trackindex>1</trackindex>
												</sourcetrack>
												<link>
													<linkclipref>clipitem-37</linkclipref>
													<mediatype>video</mediatype>
													<trackindex>1</trackindex>
													<clipindex>1</clipindex>
												</link>
												<link>
													<linkclipref>clipitem-38</linkclipref>
													<mediatype>audio</mediatype>
													<trackindex>1</trackindex>
													<clipindex>1</clipindex>
													<groupindex>1</groupindex>
												</link>
												<link>
													<linkclipref>clipitem-39</linkclipref>
													<mediatype>audio</mediatype>
													<trackindex>2</trackindex>
													<clipindex>1</clipindex>
													<groupindex>1</groupindex>
												</link>
											</clipitem>
										</track>
										<track>
											<clipitem id="clipitem-39">
												<masterclipid>masterclip-13</masterclipid>
												<name>A002C002_190511_R6XC.[1238357-1239433].mov</name>
												<rate>
													<timebase>25</timebase>
													<ntsc>FALSE</ntsc>
												</rate>
												<file id="file-13"/>
												<sourcetrack>
													<mediatype>audio</mediatype>
													<trackindex>2</trackindex>
												</sourcetrack>
												<link>
													<linkclipref>clipitem-37</linkclipref>
													<mediatype>video</mediatype>
													<trackindex>1</trackindex>
													<clipindex>1</clipindex>
												</link>
												<link>
													<linkclipref>clipitem-38</linkclipref>
													<mediatype>audio</mediatype>
													<trackindex>1</trackindex>
													<clipindex>1</clipindex>
													<groupindex>1</groupindex>
												</link>
												<link>
													<linkclipref>clipitem-39</linkclipref>
													<mediatype>audio</mediatype>
													<trackindex>2</trackindex>
													<clipindex>1</clipindex>
													<groupindex>1</groupindex>
												</link>
											</clipitem>
										</track>
									</audio>
								</media>
								<logginginfo>
									<description></description>
									<scene></scene>
									<shottake></shottake>
									<lognote></lognote>
									<good></good>
									<originalvideofilename></originalvideofilename>
									<originalaudiofilename></originalaudiofilename>
								</logginginfo>
								<colorinfo>
									<lut></lut>
									<lut1></lut1>
									<asc_sop></asc_sop>
									<asc_sat></asc_sat>
									<lut2></lut2>
								</colorinfo>
								<labels>
									<label2>Iris</label2>
								</labels>
							</clip>
							<clip id="masterclip-14" explodedTracks="true">
								<uuid>16423f7f-2dd9-4445-83e6-9bc381f4b4c7</uuid>
								<masterclipid>masterclip-14</masterclipid>
								<ismasterclip>TRUE</ismasterclip>
								<duration>3275</duration>
								<rate>
									<timebase>25</timebase>
									<ntsc>FALSE</ntsc>
								</rate>
								<in>0</in>
								<out>3275</out>
								<name>190511_003.WAV</name>
								<media>
									<video>
										<track>
											<clipitem id="clipitem-40">
												<masterclipid>masterclip-14</masterclipid>
												<name>190511_003.WAV</name>
												<rate>
													<timebase>25</timebase>
													<ntsc>FALSE</ntsc>
												</rate>
												<alphatype>none</alphatype>
												<pixelaspectratio>square</pixelaspectratio>
												<anamorphic>FALSE</anamorphic>
												<file id="file-14">
													<name>190511_003.WAV</name>
													<pathurl>file://localhost/Q%3a/Projects/PRODIGAL_SON/MEDIA/190511_D01/AUDIO/PM/190511/190511_003.WAV</pathurl>
													<rate>
														<timebase>25</timebase>
														<ntsc>FALSE</ntsc>
													</rate>
													<duration>3275</duration>
													<timecode>
														<rate>
															<timebase>25</timebase>
															<ntsc>FALSE</ntsc>
														</rate>
														<string>00:00:00:00</string>
														<frame>0</frame>
														<displayformat>NDF</displayformat>
													</timecode>
													<media>
														<video>
															<samplecharacteristics>
																<rate>
																	<timebase>25</timebase>
																	<ntsc>FALSE</ntsc>
																</rate>
																<width>720</width>
																<height>480</height>
																<anamorphic>FALSE</anamorphic>
																<pixelaspectratio>square</pixelaspectratio>
																<fielddominance>none</fielddominance>
															</samplecharacteristics>
														</video>
														<audio>
															<samplecharacteristics>
																<depth>16</depth>
																<samplerate>48000</samplerate>
															</samplecharacteristics>
															<channelcount>2</channelcount>
														</audio>
													</media>
												</file>
												<link>
													<linkclipref>clipitem-40</linkclipref>
													<mediatype>video</mediatype>
													<trackindex>1</trackindex>
													<clipindex>1</clipindex>
												</link>
												<link>
													<linkclipref>clipitem-41</linkclipref>
													<mediatype>audio</mediatype>
													<trackindex>1</trackindex>
													<clipindex>1</clipindex>
													<groupindex>1</groupindex>
												</link>
												<link>
													<linkclipref>clipitem-42</linkclipref>
													<mediatype>audio</mediatype>
													<trackindex>2</trackindex>
													<clipindex>1</clipindex>
													<groupindex>1</groupindex>
												</link>
											</clipitem>
										</track>
									</video>
									<audio>
										<track>
											<clipitem id="clipitem-41">
												<masterclipid>masterclip-14</masterclipid>
												<name>190511_003.WAV</name>
												<rate>
													<timebase>25</timebase>
													<ntsc>FALSE</ntsc>
												</rate>
												<file id="file-14"/>
												<sourcetrack>
													<mediatype>audio</mediatype>
													<trackindex>1</trackindex>
												</sourcetrack>
												<link>
													<linkclipref>clipitem-40</linkclipref>
													<mediatype>video</mediatype>
													<trackindex>1</trackindex>
													<clipindex>1</clipindex>
												</link>
												<link>
													<linkclipref>clipitem-41</linkclipref>
													<mediatype>audio</mediatype>
													<trackindex>1</trackindex>
													<clipindex>1</clipindex>
													<groupindex>1</groupindex>
												</link>
												<link>
													<linkclipref>clipitem-42</linkclipref>
													<mediatype>audio</mediatype>
													<trackindex>2</trackindex>
													<clipindex>1</clipindex>
													<groupindex>1</groupindex>
												</link>
											</clipitem>
										</track>
										<track>
											<clipitem id="clipitem-42">
												<masterclipid>masterclip-14</masterclipid>
												<name>190511_003.WAV</name>
												<rate>
													<timebase>25</timebase>
													<ntsc>FALSE</ntsc>
												</rate>
												<file id="file-14"/>
												<sourcetrack>
													<mediatype>audio</mediatype>
													<trackindex>2</trackindex>
												</sourcetrack>
												<link>
													<linkclipref>clipitem-40</linkclipref>
													<mediatype>video</mediatype>
													<trackindex>1</trackindex>
													<clipindex>1</clipindex>
												</link>
												<link>
													<linkclipref>clipitem-41</linkclipref>
													<mediatype>audio</mediatype>
													<trackindex>1</trackindex>
													<clipindex>1</clipindex>
													<groupindex>1</groupindex>
												</link>
												<link>
													<linkclipref>clipitem-42</linkclipref>
													<mediatype>audio</mediatype>
													<trackindex>2</trackindex>
													<clipindex>1</clipindex>
													<groupindex>1</groupindex>
												</link>
											</clipitem>
										</track>
									</audio>
								</media>
								<logginginfo>
									<description></description>
									<scene></scene>
									<shottake></shottake>
									<lognote></lognote>
									<good></good>
									<originalvideofilename></originalvideofilename>
									<originalaudiofilename></originalaudiofilename>
								</logginginfo>
								<colorinfo>
									<lut></lut>
									<lut1></lut1>
									<asc_sop></asc_sop>
									<asc_sat></asc_sat>
									<lut2></lut2>
								</colorinfo>
								<labels>
									<label2>Iris</label2>
								</labels>
							</clip>
							<clip id="masterclip-15" explodedTracks="true">
								<uuid>0728b597-555e-45cb-9294-222ac7c67f25</uuid>
								<masterclipid>masterclip-15</masterclipid>
								<ismasterclip>TRUE</ismasterclip>
								<duration>2846</duration>
								<rate>
									<timebase>25</timebase>
									<ntsc>FALSE</ntsc>
								</rate>
								<in>0</in>
								<out>2846</out>
								<name>A002C003_190511_R6XC.[1240863-1243708].mov</name>
								<media>
									<video>
										<track>
											<clipitem id="clipitem-43">
												<masterclipid>masterclip-15</masterclipid>
												<name>A002C003_190511_R6XC.[1240863-1243708].mov</name>
												<rate>
													<timebase>25</timebase>
													<ntsc>FALSE</ntsc>
												</rate>
												<alphatype>none</alphatype>
												<pixelaspectratio>square</pixelaspectratio>
												<anamorphic>FALSE</anamorphic>
												<file id="file-15">
													<name>A002C003_190511_R6XC.[1240863-1243708].mov</name>
													<pathurl>file://localhost/Q%3a/Projects/PRODIGAL_SON/MEDIA_TRANS/190511_D01/A002C003_190511_R6XC.[1240863-1243708].mov</pathurl>
													<rate>
														<timebase>25</timebase>
														<ntsc>FALSE</ntsc>
													</rate>
													<duration>2846</duration>
													<timecode>
														<rate>
															<timebase>25</timebase>
															<ntsc>FALSE</ntsc>
														</rate>
														<string>00:00:00:00</string>
														<frame>0</frame>
														<displayformat>NDF</displayformat>
													</timecode>
													<media>
														<video>
															<samplecharacteristics>
																<rate>
																	<timebase>25</timebase>
																	<ntsc>FALSE</ntsc>
																</rate>
																<width>720</width>
																<height>480</height>
																<anamorphic>FALSE</anamorphic>
																<pixelaspectratio>square</pixelaspectratio>
																<fielddominance>none</fielddominance>
															</samplecharacteristics>
														</video>
														<audio>
															<samplecharacteristics>
																<depth>16</depth>
																<samplerate>48000</samplerate>
															</samplecharacteristics>
															<channelcount>2</channelcount>
														</audio>
													</media>
												</file>
												<link>
													<linkclipref>clipitem-43</linkclipref>
													<mediatype>video</mediatype>
													<trackindex>1</trackindex>
													<clipindex>1</clipindex>
												</link>
												<link>
													<linkclipref>clipitem-44</linkclipref>
													<mediatype>audio</mediatype>
													<trackindex>1</trackindex>
													<clipindex>1</clipindex>
													<groupindex>1</groupindex>
												</link>
												<link>
													<linkclipref>clipitem-45</linkclipref>
													<mediatype>audio</mediatype>
													<trackindex>2</trackindex>
													<clipindex>1</clipindex>
													<groupindex>1</groupindex>
												</link>
											</clipitem>
										</track>
									</video>
									<audio>
										<track>
											<clipitem id="clipitem-44">
												<masterclipid>masterclip-15</masterclipid>
												<name>A002C003_190511_R6XC.[1240863-1243708].mov</name>
												<rate>
													<timebase>25</timebase>
													<ntsc>FALSE</ntsc>
												</rate>
												<file id="file-15"/>
												<sourcetrack>
													<mediatype>audio</mediatype>
													<trackindex>1</trackindex>
												</sourcetrack>
												<link>
													<linkclipref>clipitem-43</linkclipref>
													<mediatype>video</mediatype>
													<trackindex>1</trackindex>
													<clipindex>1</clipindex>
												</link>
												<link>
													<linkclipref>clipitem-44</linkclipref>
													<mediatype>audio</mediatype>
													<trackindex>1</trackindex>
													<clipindex>1</clipindex>
													<groupindex>1</groupindex>
												</link>
												<link>
													<linkclipref>clipitem-45</linkclipref>
													<mediatype>audio</mediatype>
													<trackindex>2</trackindex>
													<clipindex>1</clipindex>
													<groupindex>1</groupindex>
												</link>
											</clipitem>
										</track>
										<track>
											<clipitem id="clipitem-45">
												<masterclipid>masterclip-15</masterclipid>
												<name>A002C003_190511_R6XC.[1240863-1243708].mov</name>
												<rate>
													<timebase>25</timebase>
													<ntsc>FALSE</ntsc>
												</rate>
												<file id="file-15"/>
												<sourcetrack>
													<mediatype>audio</mediatype>
													<trackindex>2</trackindex>
												</sourcetrack>
												<link>
													<linkclipref>clipitem-43</linkclipref>
													<mediatype>video</mediatype>
													<trackindex>1</trackindex>
													<clipindex>1</clipindex>
												</link>
												<link>
													<linkclipref>clipitem-44</linkclipref>
													<mediatype>audio</mediatype>
													<trackindex>1</trackindex>
													<clipindex>1</clipindex>
													<groupindex>1</groupindex>
												</link>
												<link>
													<linkclipref>clipitem-45</linkclipref>
													<mediatype>audio</mediatype>
													<trackindex>2</trackindex>
													<clipindex>1</clipindex>
													<groupindex>1</groupindex>
												</link>
											</clipitem>
										</track>
									</audio>
								</media>
								<logginginfo>
									<description></description>
									<scene></scene>
									<shottake></shottake>
									<lognote></lognote>
									<good></good>
									<originalvideofilename></originalvideofilename>
									<originalaudiofilename></originalaudiofilename>
								</logginginfo>
								<colorinfo>
									<lut></lut>
									<lut1></lut1>
									<asc_sop></asc_sop>
									<asc_sat></asc_sat>
									<lut2></lut2>
								</colorinfo>
								<labels>
									<label2>Iris</label2>
								</labels>
							</clip>
							<clip id="masterclip-16" explodedTracks="true">
								<uuid>89f679e5-044c-4f7d-a9c5-a53ea93bd791</uuid>
								<masterclipid>masterclip-16</masterclipid>
								<ismasterclip>TRUE</ismasterclip>
								<duration>3975</duration>
								<rate>
									<timebase>25</timebase>
									<ntsc>FALSE</ntsc>
								</rate>
								<in>0</in>
								<out>3975</out>
								<name>190511_004.WAV</name>
								<media>
									<video>
										<track>
											<clipitem id="clipitem-46">
												<masterclipid>masterclip-16</masterclipid>
												<name>190511_004.WAV</name>
												<rate>
													<timebase>25</timebase>
													<ntsc>FALSE</ntsc>
												</rate>
												<alphatype>none</alphatype>
												<pixelaspectratio>square</pixelaspectratio>
												<anamorphic>FALSE</anamorphic>
												<file id="file-16">
													<name>190511_004.WAV</name>
													<pathurl>file://localhost/Q%3a/Projects/PRODIGAL_SON/MEDIA/190511_D01/AUDIO/PM/190511/190511_004.WAV</pathurl>
													<rate>
														<timebase>25</timebase>
														<ntsc>FALSE</ntsc>
													</rate>
													<duration>3975</duration>
													<timecode>
														<rate>
															<timebase>25</timebase>
															<ntsc>FALSE</ntsc>
														</rate>
														<string>00:00:00:00</string>
														<frame>0</frame>
														<displayformat>NDF</displayformat>
													</timecode>
													<media>
														<video>
															<samplecharacteristics>
																<rate>
																	<timebase>25</timebase>
																	<ntsc>FALSE</ntsc>
																</rate>
																<width>720</width>
																<height>480</height>
																<anamorphic>FALSE</anamorphic>
																<pixelaspectratio>square</pixelaspectratio>
																<fielddominance>none</fielddominance>
															</samplecharacteristics>
														</video>
														<audio>
															<samplecharacteristics>
																<depth>16</depth>
																<samplerate>48000</samplerate>
															</samplecharacteristics>
															<channelcount>2</channelcount>
														</audio>
													</media>
												</file>
												<link>
													<linkclipref>clipitem-46</linkclipref>
													<mediatype>video</mediatype>
													<trackindex>1</trackindex>
													<clipindex>1</clipindex>
												</link>
												<link>
													<linkclipref>clipitem-47</linkclipref>
													<mediatype>audio</mediatype>
													<trackindex>1</trackindex>
													<clipindex>1</clipindex>
													<groupindex>1</groupindex>
												</link>
												<link>
													<linkclipref>clipitem-48</linkclipref>
													<mediatype>audio</mediatype>
													<trackindex>2</trackindex>
													<clipindex>1</clipindex>
													<groupindex>1</groupindex>
												</link>
											</clipitem>
										</track>
									</video>
									<audio>
										<track>
											<clipitem id="clipitem-47">
												<masterclipid>masterclip-16</masterclipid>
												<name>190511_004.WAV</name>
												<rate>
													<timebase>25</timebase>
													<ntsc>FALSE</ntsc>
												</rate>
												<file id="file-16"/>
												<sourcetrack>
													<mediatype>audio</mediatype>
													<trackindex>1</trackindex>
												</sourcetrack>
												<link>
													<linkclipref>clipitem-46</linkclipref>
													<mediatype>video</mediatype>
													<trackindex>1</trackindex>
													<clipindex>1</clipindex>
												</link>
												<link>
													<linkclipref>clipitem-47</linkclipref>
													<mediatype>audio</mediatype>
													<trackindex>1</trackindex>
													<clipindex>1</clipindex>
													<groupindex>1</groupindex>
												</link>
												<link>
													<linkclipref>clipitem-48</linkclipref>
													<mediatype>audio</mediatype>
													<trackindex>2</trackindex>
													<clipindex>1</clipindex>
													<groupindex>1</groupindex>
												</link>
											</clipitem>
										</track>
										<track>
											<clipitem id="clipitem-48">
												<masterclipid>masterclip-16</masterclipid>
												<name>190511_004.WAV</name>
												<rate>
													<timebase>25</timebase>
													<ntsc>FALSE</ntsc>
												</rate>
												<file id="file-16"/>
												<sourcetrack>
													<mediatype>audio</mediatype>
													<trackindex>2</trackindex>
												</sourcetrack>
												<link>
													<linkclipref>clipitem-46</linkclipref>
													<mediatype>video</mediatype>
													<trackindex>1</trackindex>
													<clipindex>1</clipindex>
												</link>
												<link>
													<linkclipref>clipitem-47</linkclipref>
													<mediatype>audio</mediatype>
													<trackindex>1</trackindex>
													<clipindex>1</clipindex>
													<groupindex>1</groupindex>
												</link>
												<link>
													<linkclipref>clipitem-48</linkclipref>
													<mediatype>audio</mediatype>
													<trackindex>2</trackindex>
													<clipindex>1</clipindex>
													<groupindex>1</groupindex>
												</link>
											</clipitem>
										</track>
									</audio>
								</media>
								<logginginfo>
									<description></description>
									<scene></scene>
									<shottake></shottake>
									<lognote></lognote>
									<good></good>
									<originalvideofilename></originalvideofilename>
									<originalaudiofilename></originalaudiofilename>
								</logginginfo>
								<colorinfo>
									<lut></lut>
									<lut1></lut1>
									<asc_sop></asc_sop>
									<asc_sat></asc_sat>
									<lut2></lut2>
								</colorinfo>
								<labels>
									<label2>Iris</label2>
								</labels>
							</clip>
							<clip id="masterclip-17" explodedTracks="true">
								<uuid>caa874e4-91fe-4185-abda-ede523369e4c</uuid>
								<masterclipid>masterclip-17</masterclipid>
								<ismasterclip>TRUE</ismasterclip>
								<duration>3626</duration>
								<rate>
									<timebase>25</timebase>
									<ntsc>FALSE</ntsc>
								</rate>
								<in>0</in>
								<out>3626</out>
								<name>A002C004_190511_R6XC.[1245536-1249161].mov</name>
								<media>
									<video>
										<track>
											<clipitem id="clipitem-49">
												<masterclipid>masterclip-17</masterclipid>
												<name>A002C004_190511_R6XC.[1245536-1249161].mov</name>
												<rate>
													<timebase>25</timebase>
													<ntsc>FALSE</ntsc>
												</rate>
												<alphatype>none</alphatype>
												<pixelaspectratio>square</pixelaspectratio>
												<anamorphic>FALSE</anamorphic>
												<file id="file-17">
													<name>A002C004_190511_R6XC.[1245536-1249161].mov</name>
													<pathurl>file://localhost/Q%3a/Projects/PRODIGAL_SON/MEDIA_TRANS/190511_D01/A002C004_190511_R6XC.[1245536-1249161].mov</pathurl>
													<rate>
														<timebase>25</timebase>
														<ntsc>FALSE</ntsc>
													</rate>
													<duration>3626</duration>
													<timecode>
														<rate>
															<timebase>25</timebase>
															<ntsc>FALSE</ntsc>
														</rate>
														<string>00:00:00:00</string>
														<frame>0</frame>
														<displayformat>NDF</displayformat>
													</timecode>
													<media>
														<video>
															<samplecharacteristics>
																<rate>
																	<timebase>25</timebase>
																	<ntsc>FALSE</ntsc>
																</rate>
																<width>720</width>
																<height>480</height>
																<anamorphic>FALSE</anamorphic>
																<pixelaspectratio>square</pixelaspectratio>
																<fielddominance>none</fielddominance>
															</samplecharacteristics>
														</video>
														<audio>
															<samplecharacteristics>
																<depth>16</depth>
																<samplerate>48000</samplerate>
															</samplecharacteristics>
															<channelcount>2</channelcount>
														</audio>
													</media>
												</file>
												<link>
													<linkclipref>clipitem-49</linkclipref>
													<mediatype>video</mediatype>
													<trackindex>1</trackindex>
													<clipindex>1</clipindex>
												</link>
												<link>
													<linkclipref>clipitem-50</linkclipref>
													<mediatype>audio</mediatype>
													<trackindex>1</trackindex>
													<clipindex>1</clipindex>
													<groupindex>1</groupindex>
												</link>
												<link>
													<linkclipref>clipitem-51</linkclipref>
													<mediatype>audio</mediatype>
													<trackindex>2</trackindex>
													<clipindex>1</clipindex>
													<groupindex>1</groupindex>
												</link>
											</clipitem>
										</track>
									</video>
									<audio>
										<track>
											<clipitem id="clipitem-50">
												<masterclipid>masterclip-17</masterclipid>
												<name>A002C004_190511_R6XC.[1245536-1249161].mov</name>
												<rate>
													<timebase>25</timebase>
													<ntsc>FALSE</ntsc>
												</rate>
												<file id="file-17"/>
												<sourcetrack>
													<mediatype>audio</mediatype>
													<trackindex>1</trackindex>
												</sourcetrack>
												<link>
													<linkclipref>clipitem-49</linkclipref>
													<mediatype>video</mediatype>
													<trackindex>1</trackindex>
													<clipindex>1</clipindex>
												</link>
												<link>
													<linkclipref>clipitem-50</linkclipref>
													<mediatype>audio</mediatype>
													<trackindex>1</trackindex>
													<clipindex>1</clipindex>
													<groupindex>1</groupindex>
												</link>
												<link>
													<linkclipref>clipitem-51</linkclipref>
													<mediatype>audio</mediatype>
													<trackindex>2</trackindex>
													<clipindex>1</clipindex>
													<groupindex>1</groupindex>
												</link>
											</clipitem>
										</track>
										<track>
											<clipitem id="clipitem-51">
												<masterclipid>masterclip-17</masterclipid>
												<name>A002C004_190511_R6XC.[1245536-1249161].mov</name>
												<rate>
													<timebase>25</timebase>
													<ntsc>FALSE</ntsc>
												</rate>
												<file id="file-17"/>
												<sourcetrack>
													<mediatype>audio</mediatype>
													<trackindex>2</trackindex>
												</sourcetrack>
												<link>
													<linkclipref>clipitem-49</linkclipref>
													<mediatype>video</mediatype>
													<trackindex>1</trackindex>
													<clipindex>1</clipindex>
												</link>
												<link>
													<linkclipref>clipitem-50</linkclipref>
													<mediatype>audio</mediatype>
													<trackindex>1</trackindex>
													<clipindex>1</clipindex>
													<groupindex>1</groupindex>
												</link>
												<link>
													<linkclipref>clipitem-51</linkclipref>
													<mediatype>audio</mediatype>
													<trackindex>2</trackindex>
													<clipindex>1</clipindex>
													<groupindex>1</groupindex>
												</link>
											</clipitem>
										</track>
									</audio>
								</media>
								<logginginfo>
									<description></description>
									<scene></scene>
									<shottake></shottake>
									<lognote></lognote>
									<good></good>
									<originalvideofilename></originalvideofilename>
									<originalaudiofilename></originalaudiofilename>
								</logginginfo>
								<colorinfo>
									<lut></lut>
									<lut1></lut1>
									<asc_sop></asc_sop>
									<asc_sat></asc_sat>
									<lut2></lut2>
								</colorinfo>
								<labels>
									<label2>Iris</label2>
								</labels>
							</clip>
							<clip id="masterclip-18" explodedTracks="true">
								<uuid>4b99bbc7-9c11-4021-8f5c-610c4aa17d93</uuid>
								<masterclipid>masterclip-18</masterclipid>
								<ismasterclip>TRUE</ismasterclip>
								<duration>3375</duration>
								<rate>
									<timebase>25</timebase>
									<ntsc>FALSE</ntsc>
								</rate>
								<in>0</in>
								<out>3375</out>
								<name>190511_005.WAV</name>
								<media>
									<video>
										<track>
											<clipitem id="clipitem-52">
												<masterclipid>masterclip-18</masterclipid>
												<name>190511_005.WAV</name>
												<rate>
													<timebase>25</timebase>
													<ntsc>FALSE</ntsc>
												</rate>
												<alphatype>none</alphatype>
												<pixelaspectratio>square</pixelaspectratio>
												<anamorphic>FALSE</anamorphic>
												<file id="file-18">
													<name>190511_005.WAV</name>
													<pathurl>file://localhost/Q%3a/Projects/PRODIGAL_SON/MEDIA/190511_D01/AUDIO/PM/190511/190511_005.WAV</pathurl>
													<rate>
														<timebase>25</timebase>
														<ntsc>FALSE</ntsc>
													</rate>
													<duration>3375</duration>
													<timecode>
														<rate>
															<timebase>25</timebase>
															<ntsc>FALSE</ntsc>
														</rate>
														<string>00:00:00:00</string>
														<frame>0</frame>
														<displayformat>NDF</displayformat>
													</timecode>
													<media>
														<video>
															<samplecharacteristics>
																<rate>
																	<timebase>25</timebase>
																	<ntsc>FALSE</ntsc>
																</rate>
																<width>720</width>
																<height>480</height>
																<anamorphic>FALSE</anamorphic>
																<pixelaspectratio>square</pixelaspectratio>
																<fielddominance>none</fielddominance>
															</samplecharacteristics>
														</video>
														<audio>
															<samplecharacteristics>
																<depth>16</depth>
																<samplerate>48000</samplerate>
															</samplecharacteristics>
															<channelcount>2</channelcount>
														</audio>
													</media>
												</file>
												<link>
													<linkclipref>clipitem-52</linkclipref>
													<mediatype>video</mediatype>
													<trackindex>1</trackindex>
													<clipindex>1</clipindex>
												</link>
												<link>
													<linkclipref>clipitem-53</linkclipref>
													<mediatype>audio</mediatype>
													<trackindex>1</trackindex>
													<clipindex>1</clipindex>
													<groupindex>1</groupindex>
												</link>
												<link>
													<linkclipref>clipitem-54</linkclipref>
													<mediatype>audio</mediatype>
													<trackindex>2</trackindex>
													<clipindex>1</clipindex>
													<groupindex>1</groupindex>
												</link>
											</clipitem>
										</track>
									</video>
									<audio>
										<track>
											<clipitem id="clipitem-53">
												<masterclipid>masterclip-18</masterclipid>
												<name>190511_005.WAV</name>
												<rate>
													<timebase>25</timebase>
													<ntsc>FALSE</ntsc>
												</rate>
												<file id="file-18"/>
												<sourcetrack>
													<mediatype>audio</mediatype>
													<trackindex>1</trackindex>
												</sourcetrack>
												<link>
													<linkclipref>clipitem-52</linkclipref>
													<mediatype>video</mediatype>
													<trackindex>1</trackindex>
													<clipindex>1</clipindex>
												</link>
												<link>
													<linkclipref>clipitem-53</linkclipref>
													<mediatype>audio</mediatype>
													<trackindex>1</trackindex>
													<clipindex>1</clipindex>
													<groupindex>1</groupindex>
												</link>
												<link>
													<linkclipref>clipitem-54</linkclipref>
													<mediatype>audio</mediatype>
													<trackindex>2</trackindex>
													<clipindex>1</clipindex>
													<groupindex>1</groupindex>
												</link>
											</clipitem>
										</track>
										<track>
											<clipitem id="clipitem-54">
												<masterclipid>masterclip-18</masterclipid>
												<name>190511_005.WAV</name>
												<rate>
													<timebase>25</timebase>
													<ntsc>FALSE</ntsc>
												</rate>
												<file id="file-18"/>
												<sourcetrack>
													<mediatype>audio</mediatype>
													<trackindex>2</trackindex>
												</sourcetrack>
												<link>
													<linkclipref>clipitem-52</linkclipref>
													<mediatype>video</mediatype>
													<trackindex>1</trackindex>
													<clipindex>1</clipindex>
												</link>
												<link>
													<linkclipref>clipitem-53</linkclipref>
													<mediatype>audio</mediatype>
													<trackindex>1</trackindex>
													<clipindex>1</clipindex>
													<groupindex>1</groupindex>
												</link>
												<link>
													<linkclipref>clipitem-54</linkclipref>
													<mediatype>audio</mediatype>
													<trackindex>2</trackindex>
													<clipindex>1</clipindex>
													<groupindex>1</groupindex>
												</link>
											</clipitem>
										</track>
									</audio>
								</media>
								<logginginfo>
									<description></description>
									<scene></scene>
									<shottake></shottake>
									<lognote></lognote>
									<good></good>
									<originalvideofilename></originalvideofilename>
									<originalaudiofilename></originalaudiofilename>
								</logginginfo>
								<colorinfo>
									<lut></lut>
									<lut1></lut1>
									<asc_sop></asc_sop>
									<asc_sat></asc_sat>
									<lut2></lut2>
								</colorinfo>
								<labels>
									<label2>Iris</label2>
								</labels>
							</clip>
							<clip id="masterclip-19" explodedTracks="true">
								<uuid>fda80413-29b5-4289-b37f-c53e0c9993d3</uuid>
								<masterclipid>masterclip-19</masterclipid>
								<ismasterclip>TRUE</ismasterclip>
								<duration>3022</duration>
								<rate>
									<timebase>25</timebase>
									<ntsc>FALSE</ntsc>
								</rate>
								<in>0</in>
								<out>3022</out>
								<name>A002C005_190511_R6XC.[1252221-1255242].mov</name>
								<media>
									<video>
										<track>
											<clipitem id="clipitem-55">
												<masterclipid>masterclip-19</masterclipid>
												<name>A002C005_190511_R6XC.[1252221-1255242].mov</name>
												<rate>
													<timebase>25</timebase>
													<ntsc>FALSE</ntsc>
												</rate>
												<alphatype>none</alphatype>
												<pixelaspectratio>square</pixelaspectratio>
												<anamorphic>FALSE</anamorphic>
												<file id="file-19">
													<name>A002C005_190511_R6XC.[1252221-1255242].mov</name>
													<pathurl>file://localhost/Q%3a/Projects/PRODIGAL_SON/MEDIA_TRANS/190511_D01/A002C005_190511_R6XC.[1252221-1255242].mov</pathurl>
													<rate>
														<timebase>25</timebase>
														<ntsc>FALSE</ntsc>
													</rate>
													<duration>3022</duration>
													<timecode>
														<rate>
															<timebase>25</timebase>
															<ntsc>FALSE</ntsc>
														</rate>
														<string>00:00:00:00</string>
														<frame>0</frame>
														<displayformat>NDF</displayformat>
													</timecode>
													<media>
														<video>
															<samplecharacteristics>
																<rate>
																	<timebase>25</timebase>
																	<ntsc>FALSE</ntsc>
																</rate>
																<width>720</width>
																<height>480</height>
																<anamorphic>FALSE</anamorphic>
																<pixelaspectratio>square</pixelaspectratio>
																<fielddominance>none</fielddominance>
															</samplecharacteristics>
														</video>
														<audio>
															<samplecharacteristics>
																<depth>16</depth>
																<samplerate>48000</samplerate>
															</samplecharacteristics>
															<channelcount>2</channelcount>
														</audio>
													</media>
												</file>
												<link>
													<linkclipref>clipitem-55</linkclipref>
													<mediatype>video</mediatype>
													<trackindex>1</trackindex>
													<clipindex>1</clipindex>
												</link>
												<link>
													<linkclipref>clipitem-56</linkclipref>
													<mediatype>audio</mediatype>
													<trackindex>1</trackindex>
													<clipindex>1</clipindex>
													<groupindex>1</groupindex>
												</link>
												<link>
													<linkclipref>clipitem-57</linkclipref>
													<mediatype>audio</mediatype>
													<trackindex>2</trackindex>
													<clipindex>1</clipindex>
													<groupindex>1</groupindex>
												</link>
											</clipitem>
										</track>
									</video>
									<audio>
										<track>
											<clipitem id="clipitem-56">
												<masterclipid>masterclip-19</masterclipid>
												<name>A002C005_190511_R6XC.[1252221-1255242].mov</name>
												<rate>
													<timebase>25</timebase>
													<ntsc>FALSE</ntsc>
												</rate>
												<file id="file-19"/>
												<sourcetrack>
													<mediatype>audio</mediatype>
													<trackindex>1</trackindex>
												</sourcetrack>
												<link>
													<linkclipref>clipitem-55</linkclipref>
													<mediatype>video</mediatype>
													<trackindex>1</trackindex>
													<clipindex>1</clipindex>
												</link>
												<link>
													<linkclipref>clipitem-56</linkclipref>
													<mediatype>audio</mediatype>
													<trackindex>1</trackindex>
													<clipindex>1</clipindex>
													<groupindex>1</groupindex>
												</link>
												<link>
													<linkclipref>clipitem-57</linkclipref>
													<mediatype>audio</mediatype>
													<trackindex>2</trackindex>
													<clipindex>1</clipindex>
													<groupindex>1</groupindex>
												</link>
											</clipitem>
										</track>
										<track>
											<clipitem id="clipitem-57">
												<masterclipid>masterclip-19</masterclipid>
												<name>A002C005_190511_R6XC.[1252221-1255242].mov</name>
												<rate>
													<timebase>25</timebase>
													<ntsc>FALSE</ntsc>
												</rate>
												<file id="file-19"/>
												<sourcetrack>
													<mediatype>audio</mediatype>
													<trackindex>2</trackindex>
												</sourcetrack>
												<link>
													<linkclipref>clipitem-55</linkclipref>
													<mediatype>video</mediatype>
													<trackindex>1</trackindex>
													<clipindex>1</clipindex>
												</link>
												<link>
													<linkclipref>clipitem-56</linkclipref>
													<mediatype>audio</mediatype>
													<trackindex>1</trackindex>
													<clipindex>1</clipindex>
													<groupindex>1</groupindex>
												</link>
												<link>
													<linkclipref>clipitem-57</linkclipref>
													<mediatype>audio</mediatype>
													<trackindex>2</trackindex>
													<clipindex>1</clipindex>
													<groupindex>1</groupindex>
												</link>
											</clipitem>
										</track>
									</audio>
								</media>
								<logginginfo>
									<description></description>
									<scene></scene>
									<shottake></shottake>
									<lognote></lognote>
									<good></good>
									<originalvideofilename></originalvideofilename>
									<originalaudiofilename></originalaudiofilename>
								</logginginfo>
								<colorinfo>
									<lut></lut>
									<lut1></lut1>
									<asc_sop></asc_sop>
									<asc_sat></asc_sat>
									<lut2></lut2>
								</colorinfo>
								<labels>
									<label2>Iris</label2>
								</labels>
							</clip>
							<clip id="masterclip-20" explodedTracks="true">
								<uuid>dcbe90f8-875f-4c3a-ac03-0a6badd84a37</uuid>
								<masterclipid>masterclip-20</masterclipid>
								<ismasterclip>TRUE</ismasterclip>
								<duration>2900</duration>
								<rate>
									<timebase>25</timebase>
									<ntsc>FALSE</ntsc>
								</rate>
								<in>0</in>
								<out>2900</out>
								<name>190511_006.WAV</name>
								<media>
									<video>
										<track>
											<clipitem id="clipitem-58">
												<masterclipid>masterclip-20</masterclipid>
												<name>190511_006.WAV</name>
												<rate>
													<timebase>25</timebase>
													<ntsc>FALSE</ntsc>
												</rate>
												<alphatype>none</alphatype>
												<pixelaspectratio>square</pixelaspectratio>
												<anamorphic>FALSE</anamorphic>
												<file id="file-20">
													<name>190511_006.WAV</name>
													<pathurl>file://localhost/Q%3a/Projects/PRODIGAL_SON/MEDIA/190511_D01/AUDIO/PM/190511/190511_006.WAV</pathurl>
													<rate>
														<timebase>25</timebase>
														<ntsc>FALSE</ntsc>
													</rate>
													<duration>2900</duration>
													<timecode>
														<rate>
															<timebase>25</timebase>
															<ntsc>FALSE</ntsc>
														</rate>
														<string>00:00:00:00</string>
														<frame>0</frame>
														<displayformat>NDF</displayformat>
													</timecode>
													<media>
														<video>
															<samplecharacteristics>
																<rate>
																	<timebase>25</timebase>
																	<ntsc>FALSE</ntsc>
																</rate>
																<width>720</width>
																<height>480</height>
																<anamorphic>FALSE</anamorphic>
																<pixelaspectratio>square</pixelaspectratio>
																<fielddominance>none</fielddominance>
															</samplecharacteristics>
														</video>
														<audio>
															<samplecharacteristics>
																<depth>16</depth>
																<samplerate>48000</samplerate>
															</samplecharacteristics>
															<channelcount>2</channelcount>
														</audio>
													</media>
												</file>
												<link>
													<linkclipref>clipitem-58</linkclipref>
													<mediatype>video</mediatype>
													<trackindex>1</trackindex>
													<clipindex>1</clipindex>
												</link>
												<link>
													<linkclipref>clipitem-59</linkclipref>
													<mediatype>audio</mediatype>
													<trackindex>1</trackindex>
													<clipindex>1</clipindex>
													<groupindex>1</groupindex>
												</link>
												<link>
													<linkclipref>clipitem-60</linkclipref>
													<mediatype>audio</mediatype>
													<trackindex>2</trackindex>
													<clipindex>1</clipindex>
													<groupindex>1</groupindex>
												</link>
											</clipitem>
										</track>
									</video>
									<audio>
										<track>
											<clipitem id="clipitem-59">
												<masterclipid>masterclip-20</masterclipid>
												<name>190511_006.WAV</name>
												<rate>
													<timebase>25</timebase>
													<ntsc>FALSE</ntsc>
												</rate>
												<file id="file-20"/>
												<sourcetrack>
													<mediatype>audio</mediatype>
													<trackindex>1</trackindex>
												</sourcetrack>
												<link>
													<linkclipref>clipitem-58</linkclipref>
													<mediatype>video</mediatype>
													<trackindex>1</trackindex>
													<clipindex>1</clipindex>
												</link>
												<link>
													<linkclipref>clipitem-59</linkclipref>
													<mediatype>audio</mediatype>
													<trackindex>1</trackindex>
													<clipindex>1</clipindex>
													<groupindex>1</groupindex>
												</link>
												<link>
													<linkclipref>clipitem-60</linkclipref>
													<mediatype>audio</mediatype>
													<trackindex>2</trackindex>
													<clipindex>1</clipindex>
													<groupindex>1</groupindex>
												</link>
											</clipitem>
										</track>
										<track>
											<clipitem id="clipitem-60">
												<masterclipid>masterclip-20</masterclipid>
												<name>190511_006.WAV</name>
												<rate>
													<timebase>25</timebase>
													<ntsc>FALSE</ntsc>
												</rate>
												<file id="file-20"/>
												<sourcetrack>
													<mediatype>audio</mediatype>
													<trackindex>2</trackindex>
												</sourcetrack>
												<link>
													<linkclipref>clipitem-58</linkclipref>
													<mediatype>video</mediatype>
													<trackindex>1</trackindex>
													<clipindex>1</clipindex>
												</link>
												<link>
													<linkclipref>clipitem-59</linkclipref>
													<mediatype>audio</mediatype>
													<trackindex>1</trackindex>
													<clipindex>1</clipindex>
													<groupindex>1</groupindex>
												</link>
												<link>
													<linkclipref>clipitem-60</linkclipref>
													<mediatype>audio</mediatype>
													<trackindex>2</trackindex>
													<clipindex>1</clipindex>
													<groupindex>1</groupindex>
												</link>
											</clipitem>
										</track>
									</audio>
								</media>
								<logginginfo>
									<description></description>
									<scene></scene>
									<shottake></shottake>
									<lognote></lognote>
									<good></good>
									<originalvideofilename></originalvideofilename>
									<originalaudiofilename></originalaudiofilename>
								</logginginfo>
								<colorinfo>
									<lut></lut>
									<lut1></lut1>
									<asc_sop></asc_sop>
									<asc_sat></asc_sat>
									<lut2></lut2>
								</colorinfo>
								<labels>
									<label2>Iris</label2>
								</labels>
							</clip>
							<clip id="masterclip-21" explodedTracks="true">
								<uuid>4e6841e6-6b7b-4157-a37c-7a5793825a31</uuid>
								<masterclipid>masterclip-21</masterclipid>
								<ismasterclip>TRUE</ismasterclip>
								<duration>2445</duration>
								<rate>
									<timebase>25</timebase>
									<ntsc>FALSE</ntsc>
								</rate>
								<in>0</in>
								<out>2445</out>
								<name>A002C006_190511_R6XC.[1280886-1283330].mov</name>
								<media>
									<video>
										<track>
											<clipitem id="clipitem-61">
												<masterclipid>masterclip-21</masterclipid>
												<name>A002C006_190511_R6XC.[1280886-1283330].mov</name>
												<rate>
													<timebase>25</timebase>
													<ntsc>FALSE</ntsc>
												</rate>
												<alphatype>none</alphatype>
												<pixelaspectratio>square</pixelaspectratio>
												<anamorphic>FALSE</anamorphic>
												<file id="file-21">
													<name>A002C006_190511_R6XC.[1280886-1283330].mov</name>
													<pathurl>file://localhost/Q%3a/Projects/PRODIGAL_SON/MEDIA_TRANS/190511_D01/A002C006_190511_R6XC.[1280886-1283330].mov</pathurl>
													<rate>
														<timebase>25</timebase>
														<ntsc>FALSE</ntsc>
													</rate>
													<duration>2445</duration>
													<timecode>
														<rate>
															<timebase>25</timebase>
															<ntsc>FALSE</ntsc>
														</rate>
														<string>00:00:00:00</string>
														<frame>0</frame>
														<displayformat>NDF</displayformat>
													</timecode>
													<media>
														<video>
															<samplecharacteristics>
																<rate>
																	<timebase>25</timebase>
																	<ntsc>FALSE</ntsc>
																</rate>
																<width>720</width>
																<height>480</height>
																<anamorphic>FALSE</anamorphic>
																<pixelaspectratio>square</pixelaspectratio>
																<fielddominance>none</fielddominance>
															</samplecharacteristics>
														</video>
														<audio>
															<samplecharacteristics>
																<depth>16</depth>
																<samplerate>48000</samplerate>
															</samplecharacteristics>
															<channelcount>2</channelcount>
														</audio>
													</media>
												</file>
												<link>
													<linkclipref>clipitem-61</linkclipref>
													<mediatype>video</mediatype>
													<trackindex>1</trackindex>
													<clipindex>1</clipindex>
												</link>
												<link>
													<linkclipref>clipitem-62</linkclipref>
													<mediatype>audio</mediatype>
													<trackindex>1</trackindex>
													<clipindex>1</clipindex>
													<groupindex>1</groupindex>
												</link>
												<link>
													<linkclipref>clipitem-63</linkclipref>
													<mediatype>audio</mediatype>
													<trackindex>2</trackindex>
													<clipindex>1</clipindex>
													<groupindex>1</groupindex>
												</link>
											</clipitem>
										</track>
									</video>
									<audio>
										<track>
											<clipitem id="clipitem-62">
												<masterclipid>masterclip-21</masterclipid>
												<name>A002C006_190511_R6XC.[1280886-1283330].mov</name>
												<rate>
													<timebase>25</timebase>
													<ntsc>FALSE</ntsc>
												</rate>
												<file id="file-21"/>
												<sourcetrack>
													<mediatype>audio</mediatype>
													<trackindex>1</trackindex>
												</sourcetrack>
												<link>
													<linkclipref>clipitem-61</linkclipref>
													<mediatype>video</mediatype>
													<trackindex>1</trackindex>
													<clipindex>1</clipindex>
												</link>
												<link>
													<linkclipref>clipitem-62</linkclipref>
													<mediatype>audio</mediatype>
													<trackindex>1</trackindex>
													<clipindex>1</clipindex>
													<groupindex>1</groupindex>
												</link>
												<link>
													<linkclipref>clipitem-63</linkclipref>
													<mediatype>audio</mediatype>
													<trackindex>2</trackindex>
													<clipindex>1</clipindex>
													<groupindex>1</groupindex>
												</link>
											</clipitem>
										</track>
										<track>
											<clipitem id="clipitem-63">
												<masterclipid>masterclip-21</masterclipid>
												<name>A002C006_190511_R6XC.[1280886-1283330].mov</name>
												<rate>
													<timebase>25</timebase>
													<ntsc>FALSE</ntsc>
												</rate>
												<file id="file-21"/>
												<sourcetrack>
													<mediatype>audio</mediatype>
													<trackindex>2</trackindex>
												</sourcetrack>
												<link>
													<linkclipref>clipitem-61</linkclipref>
													<mediatype>video</mediatype>
													<trackindex>1</trackindex>
													<clipindex>1</clipindex>
												</link>
												<link>
													<linkclipref>clipitem-62</linkclipref>
													<mediatype>audio</mediatype>
													<trackindex>1</trackindex>
													<clipindex>1</clipindex>
													<groupindex>1</groupindex>
												</link>
												<link>
													<linkclipref>clipitem-63</linkclipref>
													<mediatype>audio</mediatype>
													<trackindex>2</trackindex>
													<clipindex>1</clipindex>
													<groupindex>1</groupindex>
												</link>
											</clipitem>
										</track>
									</audio>
								</media>
								<logginginfo>
									<description></description>
									<scene></scene>
									<shottake></shottake>
									<lognote></lognote>
									<good></good>
									<originalvideofilename></originalvideofilename>
									<originalaudiofilename></originalaudiofilename>
								</logginginfo>
								<colorinfo>
									<lut></lut>
									<lut1></lut1>
									<asc_sop></asc_sop>
									<asc_sat></asc_sat>
									<lut2></lut2>
								</colorinfo>
								<labels>
									<label2>Iris</label2>
								</labels>
							</clip>
							<clip id="masterclip-22" explodedTracks="true">
								<uuid>b1f7287a-d98d-4585-889b-23b115b64aae</uuid>
								<masterclipid>masterclip-22</masterclipid>
								<ismasterclip>TRUE</ismasterclip>
								<duration>2100</duration>
								<rate>
									<timebase>25</timebase>
									<ntsc>FALSE</ntsc>
								</rate>
								<in>0</in>
								<out>2100</out>
								<name>190511_007.WAV</name>
								<media>
									<video>
										<track>
											<clipitem id="clipitem-64">
												<masterclipid>masterclip-22</masterclipid>
												<name>190511_007.WAV</name>
												<rate>
													<timebase>25</timebase>
													<ntsc>FALSE</ntsc>
												</rate>
												<alphatype>none</alphatype>
												<pixelaspectratio>square</pixelaspectratio>
												<anamorphic>FALSE</anamorphic>
												<file id="file-22">
													<name>190511_007.WAV</name>
													<pathurl>file://localhost/Q%3a/Projects/PRODIGAL_SON/MEDIA/190511_D01/AUDIO/PM/190511/190511_007.WAV</pathurl>
													<rate>
														<timebase>25</timebase>
														<ntsc>FALSE</ntsc>
													</rate>
													<duration>2100</duration>
													<timecode>
														<rate>
															<timebase>25</timebase>
															<ntsc>FALSE</ntsc>
														</rate>
														<string>00:00:00:00</string>
														<frame>0</frame>
														<displayformat>NDF</displayformat>
													</timecode>
													<media>
														<video>
															<samplecharacteristics>
																<rate>
																	<timebase>25</timebase>
																	<ntsc>FALSE</ntsc>
																</rate>
																<width>720</width>
																<height>480</height>
																<anamorphic>FALSE</anamorphic>
																<pixelaspectratio>square</pixelaspectratio>
																<fielddominance>none</fielddominance>
															</samplecharacteristics>
														</video>
														<audio>
															<samplecharacteristics>
																<depth>16</depth>
																<samplerate>48000</samplerate>
															</samplecharacteristics>
															<channelcount>2</channelcount>
														</audio>
													</media>
												</file>
												<link>
													<linkclipref>clipitem-64</linkclipref>
													<mediatype>video</mediatype>
													<trackindex>1</trackindex>
													<clipindex>1</clipindex>
												</link>
												<link>
													<linkclipref>clipitem-65</linkclipref>
													<mediatype>audio</mediatype>
													<trackindex>1</trackindex>
													<clipindex>1</clipindex>
													<groupindex>1</groupindex>
												</link>
												<link>
													<linkclipref>clipitem-66</linkclipref>
													<mediatype>audio</mediatype>
													<trackindex>2</trackindex>
													<clipindex>1</clipindex>
													<groupindex>1</groupindex>
												</link>
											</clipitem>
										</track>
									</video>
									<audio>
										<track>
											<clipitem id="clipitem-65">
												<masterclipid>masterclip-22</masterclipid>
												<name>190511_007.WAV</name>
												<rate>
													<timebase>25</timebase>
													<ntsc>FALSE</ntsc>
												</rate>
												<file id="file-22"/>
												<sourcetrack>
													<mediatype>audio</mediatype>
													<trackindex>1</trackindex>
												</sourcetrack>
												<link>
													<linkclipref>clipitem-64</linkclipref>
													<mediatype>video</mediatype>
													<trackindex>1</trackindex>
													<clipindex>1</clipindex>
												</link>
												<link>
													<linkclipref>clipitem-65</linkclipref>
													<mediatype>audio</mediatype>
													<trackindex>1</trackindex>
													<clipindex>1</clipindex>
													<groupindex>1</groupindex>
												</link>
												<link>
													<linkclipref>clipitem-66</linkclipref>
													<mediatype>audio</mediatype>
													<trackindex>2</trackindex>
													<clipindex>1</clipindex>
													<groupindex>1</groupindex>
												</link>
											</clipitem>
										</track>
										<track>
											<clipitem id="clipitem-66">
												<masterclipid>masterclip-22</masterclipid>
												<name>190511_007.WAV</name>
												<rate>
													<timebase>25</timebase>
													<ntsc>FALSE</ntsc>
												</rate>
												<file id="file-22"/>
												<sourcetrack>
													<mediatype>audio</mediatype>
													<trackindex>2</trackindex>
												</sourcetrack>
												<link>
													<linkclipref>clipitem-64</linkclipref>
													<mediatype>video</mediatype>
													<trackindex>1</trackindex>
													<clipindex>1</clipindex>
												</link>
												<link>
													<linkclipref>clipitem-65</linkclipref>
													<mediatype>audio</mediatype>
													<trackindex>1</trackindex>
													<clipindex>1</clipindex>
													<groupindex>1</groupindex>
												</link>
												<link>
													<linkclipref>clipitem-66</linkclipref>
													<mediatype>audio</mediatype>
													<trackindex>2</trackindex>
													<clipindex>1</clipindex>
													<groupindex>1</groupindex>
												</link>
											</clipitem>
										</track>
									</audio>
								</media>
								<logginginfo>
									<description></description>
									<scene></scene>
									<shottake></shottake>
									<lognote></lognote>
									<good></good>
									<originalvideofilename></originalvideofilename>
									<originalaudiofilename></originalaudiofilename>
								</logginginfo>
								<colorinfo>
									<lut></lut>
									<lut1></lut1>
									<asc_sop></asc_sop>
									<asc_sat></asc_sat>
									<lut2></lut2>
								</colorinfo>
								<labels>
									<label2>Iris</label2>
								</labels>
							</clip>
							<clip id="masterclip-23" explodedTracks="true">
								<uuid>cb291e66-66f3-4d6f-b7f1-a2b8c87aa36f</uuid>
								<masterclipid>masterclip-23</masterclipid>
								<ismasterclip>TRUE</ismasterclip>
								<duration>1723</duration>
								<rate>
									<timebase>25</timebase>
									<ntsc>FALSE</ntsc>
								</rate>
								<in>0</in>
								<out>1723</out>
								<name>A002C007_190511_R6XC.[1284452-1286174].mov</name>
								<media>
									<video>
										<track>
											<clipitem id="clipitem-67">
												<masterclipid>masterclip-23</masterclipid>
												<name>A002C007_190511_R6XC.[1284452-1286174].mov</name>
												<rate>
													<timebase>25</timebase>
													<ntsc>FALSE</ntsc>
												</rate>
												<alphatype>none</alphatype>
												<pixelaspectratio>square</pixelaspectratio>
												<anamorphic>FALSE</anamorphic>
												<file id="file-23">
													<name>A002C007_190511_R6XC.[1284452-1286174].mov</name>
													<pathurl>file://localhost/Q%3a/Projects/PRODIGAL_SON/MEDIA_TRANS/190511_D01/A002C007_190511_R6XC.[1284452-1286174].mov</pathurl>
													<rate>
														<timebase>25</timebase>
														<ntsc>FALSE</ntsc>
													</rate>
													<duration>1723</duration>
													<timecode>
														<rate>
															<timebase>25</timebase>
															<ntsc>FALSE</ntsc>
														</rate>
														<string>00:00:00:00</string>
														<frame>0</frame>
														<displayformat>NDF</displayformat>
													</timecode>
													<media>
														<video>
															<samplecharacteristics>
																<rate>
																	<timebase>25</timebase>
																	<ntsc>FALSE</ntsc>
																</rate>
																<width>720</width>
																<height>480</height>
																<anamorphic>FALSE</anamorphic>
																<pixelaspectratio>square</pixelaspectratio>
																<fielddominance>none</fielddominance>
															</samplecharacteristics>
														</video>
														<audio>
															<samplecharacteristics>
																<depth>16</depth>
																<samplerate>48000</samplerate>
															</samplecharacteristics>
															<channelcount>2</channelcount>
														</audio>
													</media>
												</file>
												<link>
													<linkclipref>clipitem-67</linkclipref>
													<mediatype>video</mediatype>
													<trackindex>1</trackindex>
													<clipindex>1</clipindex>
												</link>
												<link>
													<linkclipref>clipitem-68</linkclipref>
													<mediatype>audio</mediatype>
													<trackindex>1</trackindex>
													<clipindex>1</clipindex>
													<groupindex>1</groupindex>
												</link>
												<link>
													<linkclipref>clipitem-69</linkclipref>
													<mediatype>audio</mediatype>
													<trackindex>2</trackindex>
													<clipindex>1</clipindex>
													<groupindex>1</groupindex>
												</link>
											</clipitem>
										</track>
									</video>
									<audio>
										<track>
											<clipitem id="clipitem-68">
												<masterclipid>masterclip-23</masterclipid>
												<name>A002C007_190511_R6XC.[1284452-1286174].mov</name>
												<rate>
													<timebase>25</timebase>
													<ntsc>FALSE</ntsc>
												</rate>
												<file id="file-23"/>
												<sourcetrack>
													<mediatype>audio</mediatype>
													<trackindex>1</trackindex>
												</sourcetrack>
												<link>
													<linkclipref>clipitem-67</linkclipref>
													<mediatype>video</mediatype>
													<trackindex>1</trackindex>
													<clipindex>1</clipindex>
												</link>
												<link>
													<linkclipref>clipitem-68</linkclipref>
													<mediatype>audio</mediatype>
													<trackindex>1</trackindex>
													<clipindex>1</clipindex>
													<groupindex>1</groupindex>
												</link>
												<link>
													<linkclipref>clipitem-69</linkclipref>
													<mediatype>audio</mediatype>
													<trackindex>2</trackindex>
													<clipindex>1</clipindex>
													<groupindex>1</groupindex>
												</link>
											</clipitem>
										</track>
										<track>
											<clipitem id="clipitem-69">
												<masterclipid>masterclip-23</masterclipid>
												<name>A002C007_190511_R6XC.[1284452-1286174].mov</name>
												<rate>
													<timebase>25</timebase>
													<ntsc>FALSE</ntsc>
												</rate>
												<file id="file-23"/>
												<sourcetrack>
													<mediatype>audio</mediatype>
													<trackindex>2</trackindex>
												</sourcetrack>
												<link>
													<linkclipref>clipitem-67</linkclipref>
													<mediatype>video</mediatype>
													<trackindex>1</trackindex>
													<clipindex>1</clipindex>
												</link>
												<link>
													<linkclipref>clipitem-68</linkclipref>
													<mediatype>audio</mediatype>
													<trackindex>1</trackindex>
													<clipindex>1</clipindex>
													<groupindex>1</groupindex>
												</link>
												<link>
													<linkclipref>clipitem-69</linkclipref>
													<mediatype>audio</mediatype>
													<trackindex>2</trackindex>
													<clipindex>1</clipindex>
													<groupindex>1</groupindex>
												</link>
											</clipitem>
										</track>
									</audio>
								</media>
								<logginginfo>
									<description></description>
									<scene></scene>
									<shottake></shottake>
									<lognote></lognote>
									<good></good>
									<originalvideofilename></originalvideofilename>
									<originalaudiofilename></originalaudiofilename>
								</logginginfo>
								<colorinfo>
									<lut></lut>
									<lut1></lut1>
									<asc_sop></asc_sop>
									<asc_sat></asc_sat>
									<lut2></lut2>
								</colorinfo>
								<labels>
									<label2>Iris</label2>
								</labels>
							</clip>
							<clip id="masterclip-24" explodedTracks="true">
								<uuid>60d73394-adb8-4bec-81df-c9fc369dac02</uuid>
								<masterclipid>masterclip-24</masterclipid>
								<ismasterclip>TRUE</ismasterclip>
								<duration>4775</duration>
								<rate>
									<timebase>25</timebase>
									<ntsc>FALSE</ntsc>
								</rate>
								<in>0</in>
								<out>4775</out>
								<name>190511_008.WAV</name>
								<media>
									<video>
										<track>
											<clipitem id="clipitem-70">
												<masterclipid>masterclip-24</masterclipid>
												<name>190511_008.WAV</name>
												<rate>
													<timebase>25</timebase>
													<ntsc>FALSE</ntsc>
												</rate>
												<alphatype>none</alphatype>
												<pixelaspectratio>square</pixelaspectratio>
												<anamorphic>FALSE</anamorphic>
												<file id="file-24">
													<name>190511_008.WAV</name>
													<pathurl>file://localhost/Q%3a/Projects/PRODIGAL_SON/MEDIA/190511_D01/AUDIO/PM/190511/190511_008.WAV</pathurl>
													<rate>
														<timebase>25</timebase>
														<ntsc>FALSE</ntsc>
													</rate>
													<duration>4775</duration>
													<timecode>
														<rate>
															<timebase>25</timebase>
															<ntsc>FALSE</ntsc>
														</rate>
														<string>00:00:00:00</string>
														<frame>0</frame>
														<displayformat>NDF</displayformat>
													</timecode>
													<media>
														<video>
															<samplecharacteristics>
																<rate>
																	<timebase>25</timebase>
																	<ntsc>FALSE</ntsc>
																</rate>
																<width>720</width>
																<height>480</height>
																<anamorphic>FALSE</anamorphic>
																<pixelaspectratio>square</pixelaspectratio>
																<fielddominance>none</fielddominance>
															</samplecharacteristics>
														</video>
														<audio>
															<samplecharacteristics>
																<depth>16</depth>
																<samplerate>48000</samplerate>
															</samplecharacteristics>
															<channelcount>2</channelcount>
														</audio>
													</media>
												</file>
												<link>
													<linkclipref>clipitem-70</linkclipref>
													<mediatype>video</mediatype>
													<trackindex>1</trackindex>
													<clipindex>1</clipindex>
												</link>
												<link>
													<linkclipref>clipitem-71</linkclipref>
													<mediatype>audio</mediatype>
													<trackindex>1</trackindex>
													<clipindex>1</clipindex>
													<groupindex>1</groupindex>
												</link>
												<link>
													<linkclipref>clipitem-72</linkclipref>
													<mediatype>audio</mediatype>
													<trackindex>2</trackindex>
													<clipindex>1</clipindex>
													<groupindex>1</groupindex>
												</link>
											</clipitem>
										</track>
									</video>
									<audio>
										<track>
											<clipitem id="clipitem-71">
												<masterclipid>masterclip-24</masterclipid>
												<name>190511_008.WAV</name>
												<rate>
													<timebase>25</timebase>
													<ntsc>FALSE</ntsc>
												</rate>
												<file id="file-24"/>
												<sourcetrack>
													<mediatype>audio</mediatype>
													<trackindex>1</trackindex>
												</sourcetrack>
												<link>
													<linkclipref>clipitem-70</linkclipref>
													<mediatype>video</mediatype>
													<trackindex>1</trackindex>
													<clipindex>1</clipindex>
												</link>
												<link>
													<linkclipref>clipitem-71</linkclipref>
													<mediatype>audio</mediatype>
													<trackindex>1</trackindex>
													<clipindex>1</clipindex>
													<groupindex>1</groupindex>
												</link>
												<link>
													<linkclipref>clipitem-72</linkclipref>
													<mediatype>audio</mediatype>
													<trackindex>2</trackindex>
													<clipindex>1</clipindex>
													<groupindex>1</groupindex>
												</link>
											</clipitem>
										</track>
										<track>
											<clipitem id="clipitem-72">
												<masterclipid>masterclip-24</masterclipid>
												<name>190511_008.WAV</name>
												<rate>
													<timebase>25</timebase>
													<ntsc>FALSE</ntsc>
												</rate>
												<file id="file-24"/>
												<sourcetrack>
													<mediatype>audio</mediatype>
													<trackindex>2</trackindex>
												</sourcetrack>
												<link>
													<linkclipref>clipitem-70</linkclipref>
													<mediatype>video</mediatype>
													<trackindex>1</trackindex>
													<clipindex>1</clipindex>
												</link>
												<link>
													<linkclipref>clipitem-71</linkclipref>
													<mediatype>audio</mediatype>
													<trackindex>1</trackindex>
													<clipindex>1</clipindex>
													<groupindex>1</groupindex>
												</link>
												<link>
													<linkclipref>clipitem-72</linkclipref>
													<mediatype>audio</mediatype>
													<trackindex>2</trackindex>
													<clipindex>1</clipindex>
													<groupindex>1</groupindex>
												</link>
											</clipitem>
										</track>
									</audio>
								</media>
								<logginginfo>
									<description></description>
									<scene></scene>
									<shottake></shottake>
									<lognote></lognote>
									<good></good>
									<originalvideofilename></originalvideofilename>
									<originalaudiofilename></originalaudiofilename>
								</logginginfo>
								<colorinfo>
									<lut></lut>
									<lut1></lut1>
									<asc_sop></asc_sop>
									<asc_sat></asc_sat>
									<lut2></lut2>
								</colorinfo>
								<labels>
									<label2>Iris</label2>
								</labels>
							</clip>
							<clip id="masterclip-25" explodedTracks="true">
								<uuid>e80b95c8-7922-4a0e-80fe-2961e4a83a04</uuid>
								<masterclipid>masterclip-25</masterclipid>
								<ismasterclip>TRUE</ismasterclip>
								<duration>4517</duration>
								<rate>
									<timebase>25</timebase>
									<ntsc>FALSE</ntsc>
								</rate>
								<in>0</in>
								<out>4517</out>
								<name>A003C001_190511_R6XC.[1540211-1544727].mov</name>
								<media>
									<video>
										<track>
											<clipitem id="clipitem-73">
												<masterclipid>masterclip-25</masterclipid>
												<name>A003C001_190511_R6XC.[1540211-1544727].mov</name>
												<rate>
													<timebase>25</timebase>
													<ntsc>FALSE</ntsc>
												</rate>
												<alphatype>none</alphatype>
												<pixelaspectratio>square</pixelaspectratio>
												<anamorphic>FALSE</anamorphic>
												<file id="file-25">
													<name>A003C001_190511_R6XC.[1540211-1544727].mov</name>
													<pathurl>file://localhost/Q%3a/Projects/PRODIGAL_SON/MEDIA_TRANS/190511_D01/A003C001_190511_R6XC.[1540211-1544727].mov</pathurl>
													<rate>
														<timebase>25</timebase>
														<ntsc>FALSE</ntsc>
													</rate>
													<duration>4517</duration>
													<timecode>
														<rate>
															<timebase>25</timebase>
															<ntsc>FALSE</ntsc>
														</rate>
														<string>00:00:00:00</string>
														<frame>0</frame>
														<displayformat>NDF</displayformat>
													</timecode>
													<media>
														<video>
															<samplecharacteristics>
																<rate>
																	<timebase>25</timebase>
																	<ntsc>FALSE</ntsc>
																</rate>
																<width>720</width>
																<height>480</height>
																<anamorphic>FALSE</anamorphic>
																<pixelaspectratio>square</pixelaspectratio>
																<fielddominance>none</fielddominance>
															</samplecharacteristics>
														</video>
														<audio>
															<samplecharacteristics>
																<depth>16</depth>
																<samplerate>48000</samplerate>
															</samplecharacteristics>
															<channelcount>2</channelcount>
														</audio>
													</media>
												</file>
												<link>
													<linkclipref>clipitem-73</linkclipref>
													<mediatype>video</mediatype>
													<trackindex>1</trackindex>
													<clipindex>1</clipindex>
												</link>
												<link>
													<linkclipref>clipitem-74</linkclipref>
													<mediatype>audio</mediatype>
													<trackindex>1</trackindex>
													<clipindex>1</clipindex>
													<groupindex>1</groupindex>
												</link>
												<link>
													<linkclipref>clipitem-75</linkclipref>
													<mediatype>audio</mediatype>
													<trackindex>2</trackindex>
													<clipindex>1</clipindex>
													<groupindex>1</groupindex>
												</link>
											</clipitem>
										</track>
									</video>
									<audio>
										<track>
											<clipitem id="clipitem-74">
												<masterclipid>masterclip-25</masterclipid>
												<name>A003C001_190511_R6XC.[1540211-1544727].mov</name>
												<rate>
													<timebase>25</timebase>
													<ntsc>FALSE</ntsc>
												</rate>
												<file id="file-25"/>
												<sourcetrack>
													<mediatype>audio</mediatype>
													<trackindex>1</trackindex>
												</sourcetrack>
												<link>
													<linkclipref>clipitem-73</linkclipref>
													<mediatype>video</mediatype>
													<trackindex>1</trackindex>
													<clipindex>1</clipindex>
												</link>
												<link>
													<linkclipref>clipitem-74</linkclipref>
													<mediatype>audio</mediatype>
													<trackindex>1</trackindex>
													<clipindex>1</clipindex>
													<groupindex>1</groupindex>
												</link>
												<link>
													<linkclipref>clipitem-75</linkclipref>
													<mediatype>audio</mediatype>
													<trackindex>2</trackindex>
													<clipindex>1</clipindex>
													<groupindex>1</groupindex>
												</link>
											</clipitem>
										</track>
										<track>
											<clipitem id="clipitem-75">
												<masterclipid>masterclip-25</masterclipid>
												<name>A003C001_190511_R6XC.[1540211-1544727].mov</name>
												<rate>
													<timebase>25</timebase>
													<ntsc>FALSE</ntsc>
												</rate>
												<file id="file-25"/>
												<sourcetrack>
													<mediatype>audio</mediatype>
													<trackindex>2</trackindex>
												</sourcetrack>
												<link>
													<linkclipref>clipitem-73</linkclipref>
													<mediatype>video</mediatype>
													<trackindex>1</trackindex>
													<clipindex>1</clipindex>
												</link>
												<link>
													<linkclipref>clipitem-74</linkclipref>
													<mediatype>audio</mediatype>
													<trackindex>1</trackindex>
													<clipindex>1</clipindex>
													<groupindex>1</groupindex>
												</link>
												<link>
													<linkclipref>clipitem-75</linkclipref>
													<mediatype>audio</mediatype>
													<trackindex>2</trackindex>
													<clipindex>1</clipindex>
													<groupindex>1</groupindex>
												</link>
											</clipitem>
										</track>
									</audio>
								</media>
								<logginginfo>
									<description></description>
									<scene></scene>
									<shottake></shottake>
									<lognote></lognote>
									<good></good>
									<originalvideofilename></originalvideofilename>
									<originalaudiofilename></originalaudiofilename>
								</logginginfo>
								<colorinfo>
									<lut></lut>
									<lut1></lut1>
									<asc_sop></asc_sop>
									<asc_sat></asc_sat>
									<lut2></lut2>
								</colorinfo>
								<labels>
									<label2>Iris</label2>
								</labels>
							</clip>
							<clip id="masterclip-26" explodedTracks="true">
								<uuid>01741fef-7297-4776-ab93-a498305359eb</uuid>
								<masterclipid>masterclip-26</masterclipid>
								<ismasterclip>TRUE</ismasterclip>
								<duration>4175</duration>
								<rate>
									<timebase>25</timebase>
									<ntsc>FALSE</ntsc>
								</rate>
								<in>0</in>
								<out>4175</out>
								<name>190511_009.WAV</name>
								<media>
									<video>
										<track>
											<clipitem id="clipitem-76">
												<masterclipid>masterclip-26</masterclipid>
												<name>190511_009.WAV</name>
												<rate>
													<timebase>25</timebase>
													<ntsc>FALSE</ntsc>
												</rate>
												<alphatype>none</alphatype>
												<pixelaspectratio>square</pixelaspectratio>
												<anamorphic>FALSE</anamorphic>
												<file id="file-26">
													<name>190511_009.WAV</name>
													<pathurl>file://localhost/Q%3a/Projects/PRODIGAL_SON/MEDIA/190511_D01/AUDIO/PM/190511/190511_009.WAV</pathurl>
													<rate>
														<timebase>25</timebase>
														<ntsc>FALSE</ntsc>
													</rate>
													<duration>4175</duration>
													<timecode>
														<rate>
															<timebase>25</timebase>
															<ntsc>FALSE</ntsc>
														</rate>
														<string>00:00:00:00</string>
														<frame>0</frame>
														<displayformat>NDF</displayformat>
													</timecode>
													<media>
														<video>
															<samplecharacteristics>
																<rate>
																	<timebase>25</timebase>
																	<ntsc>FALSE</ntsc>
																</rate>
																<width>720</width>
																<height>480</height>
																<anamorphic>FALSE</anamorphic>
																<pixelaspectratio>square</pixelaspectratio>
																<fielddominance>none</fielddominance>
															</samplecharacteristics>
														</video>
														<audio>
															<samplecharacteristics>
																<depth>16</depth>
																<samplerate>48000</samplerate>
															</samplecharacteristics>
															<channelcount>2</channelcount>
														</audio>
													</media>
												</file>
												<link>
													<linkclipref>clipitem-76</linkclipref>
													<mediatype>video</mediatype>
													<trackindex>1</trackindex>
													<clipindex>1</clipindex>
												</link>
												<link>
													<linkclipref>clipitem-77</linkclipref>
													<mediatype>audio</mediatype>
													<trackindex>1</trackindex>
													<clipindex>1</clipindex>
													<groupindex>1</groupindex>
												</link>
												<link>
													<linkclipref>clipitem-78</linkclipref>
													<mediatype>audio</mediatype>
													<trackindex>2</trackindex>
													<clipindex>1</clipindex>
													<groupindex>1</groupindex>
												</link>
											</clipitem>
										</track>
									</video>
									<audio>
										<track>
											<clipitem id="clipitem-77">
												<masterclipid>masterclip-26</masterclipid>
												<name>190511_009.WAV</name>
												<rate>
													<timebase>25</timebase>
													<ntsc>FALSE</ntsc>
												</rate>
												<file id="file-26"/>
												<sourcetrack>
													<mediatype>audio</mediatype>
													<trackindex>1</trackindex>
												</sourcetrack>
												<link>
													<linkclipref>clipitem-76</linkclipref>
													<mediatype>video</mediatype>
													<trackindex>1</trackindex>
													<clipindex>1</clipindex>
												</link>
												<link>
													<linkclipref>clipitem-77</linkclipref>
													<mediatype>audio</mediatype>
													<trackindex>1</trackindex>
													<clipindex>1</clipindex>
													<groupindex>1</groupindex>
												</link>
												<link>
													<linkclipref>clipitem-78</linkclipref>
													<mediatype>audio</mediatype>
													<trackindex>2</trackindex>
													<clipindex>1</clipindex>
													<groupindex>1</groupindex>
												</link>
											</clipitem>
										</track>
										<track>
											<clipitem id="clipitem-78">
												<masterclipid>masterclip-26</masterclipid>
												<name>190511_009.WAV</name>
												<rate>
													<timebase>25</timebase>
													<ntsc>FALSE</ntsc>
												</rate>
												<file id="file-26"/>
												<sourcetrack>
													<mediatype>audio</mediatype>
													<trackindex>2</trackindex>
												</sourcetrack>
												<link>
													<linkclipref>clipitem-76</linkclipref>
													<mediatype>video</mediatype>
													<trackindex>1</trackindex>
													<clipindex>1</clipindex>
												</link>
												<link>
													<linkclipref>clipitem-77</linkclipref>
													<mediatype>audio</mediatype>
													<trackindex>1</trackindex>
													<clipindex>1</clipindex>
													<groupindex>1</groupindex>
												</link>
												<link>
													<linkclipref>clipitem-78</linkclipref>
													<mediatype>audio</mediatype>
													<trackindex>2</trackindex>
													<clipindex>1</clipindex>
													<groupindex>1</groupindex>
												</link>
											</clipitem>
										</track>
									</audio>
								</media>
								<logginginfo>
									<description></description>
									<scene></scene>
									<shottake></shottake>
									<lognote></lognote>
									<good></good>
									<originalvideofilename></originalvideofilename>
									<originalaudiofilename></originalaudiofilename>
								</logginginfo>
								<colorinfo>
									<lut></lut>
									<lut1></lut1>
									<asc_sop></asc_sop>
									<asc_sat></asc_sat>
									<lut2></lut2>
								</colorinfo>
								<labels>
									<label2>Iris</label2>
								</labels>
							</clip>
							<clip id="masterclip-27" explodedTracks="true">
								<uuid>a3746575-61db-4022-bf4b-96637c325837</uuid>
								<masterclipid>masterclip-27</masterclipid>
								<ismasterclip>TRUE</ismasterclip>
								<duration>3853</duration>
								<rate>
									<timebase>25</timebase>
									<ntsc>FALSE</ntsc>
								</rate>
								<in>0</in>
								<out>3853</out>
								<name>A003C002_190511_R6XC.[1562614-1566466].mov</name>
								<media>
									<video>
										<track>
											<clipitem id="clipitem-79">
												<masterclipid>masterclip-27</masterclipid>
												<name>A003C002_190511_R6XC.[1562614-1566466].mov</name>
												<rate>
													<timebase>25</timebase>
													<ntsc>FALSE</ntsc>
												</rate>
												<alphatype>none</alphatype>
												<pixelaspectratio>square</pixelaspectratio>
												<anamorphic>FALSE</anamorphic>
												<file id="file-27">
													<name>A003C002_190511_R6XC.[1562614-1566466].mov</name>
													<pathurl>file://localhost/Q%3a/Projects/PRODIGAL_SON/MEDIA_TRANS/190511_D01/A003C002_190511_R6XC.[1562614-1566466].mov</pathurl>
													<rate>
														<timebase>25</timebase>
														<ntsc>FALSE</ntsc>
													</rate>
													<duration>3853</duration>
													<timecode>
														<rate>
															<timebase>25</timebase>
															<ntsc>FALSE</ntsc>
														</rate>
														<string>00:00:00:00</string>
														<frame>0</frame>
														<displayformat>NDF</displayformat>
													</timecode>
													<media>
														<video>
															<samplecharacteristics>
																<rate>
																	<timebase>25</timebase>
																	<ntsc>FALSE</ntsc>
																</rate>
																<width>720</width>
																<height>480</height>
																<anamorphic>FALSE</anamorphic>
																<pixelaspectratio>square</pixelaspectratio>
																<fielddominance>none</fielddominance>
															</samplecharacteristics>
														</video>
														<audio>
															<samplecharacteristics>
																<depth>16</depth>
																<samplerate>48000</samplerate>
															</samplecharacteristics>
															<channelcount>2</channelcount>
														</audio>
													</media>
												</file>
												<link>
													<linkclipref>clipitem-79</linkclipref>
													<mediatype>video</mediatype>
													<trackindex>1</trackindex>
													<clipindex>1</clipindex>
												</link>
												<link>
													<linkclipref>clipitem-80</linkclipref>
													<mediatype>audio</mediatype>
													<trackindex>1</trackindex>
													<clipindex>1</clipindex>
													<groupindex>1</groupindex>
												</link>
												<link>
													<linkclipref>clipitem-81</linkclipref>
													<mediatype>audio</mediatype>
													<trackindex>2</trackindex>
													<clipindex>1</clipindex>
													<groupindex>1</groupindex>
												</link>
											</clipitem>
										</track>
									</video>
									<audio>
										<track>
											<clipitem id="clipitem-80">
												<masterclipid>masterclip-27</masterclipid>
												<name>A003C002_190511_R6XC.[1562614-1566466].mov</name>
												<rate>
													<timebase>25</timebase>
													<ntsc>FALSE</ntsc>
												</rate>
												<file id="file-27"/>
												<sourcetrack>
													<mediatype>audio</mediatype>
													<trackindex>1</trackindex>
												</sourcetrack>
												<link>
													<linkclipref>clipitem-79</linkclipref>
													<mediatype>video</mediatype>
													<trackindex>1</trackindex>
													<clipindex>1</clipindex>
												</link>
												<link>
													<linkclipref>clipitem-80</linkclipref>
													<mediatype>audio</mediatype>
													<trackindex>1</trackindex>
													<clipindex>1</clipindex>
													<groupindex>1</groupindex>
												</link>
												<link>
													<linkclipref>clipitem-81</linkclipref>
													<mediatype>audio</mediatype>
													<trackindex>2</trackindex>
													<clipindex>1</clipindex>
													<groupindex>1</groupindex>
												</link>
											</clipitem>
										</track>
										<track>
											<clipitem id="clipitem-81">
												<masterclipid>masterclip-27</masterclipid>
												<name>A003C002_190511_R6XC.[1562614-1566466].mov</name>
												<rate>
													<timebase>25</timebase>
													<ntsc>FALSE</ntsc>
												</rate>
												<file id="file-27"/>
												<sourcetrack>
													<mediatype>audio</mediatype>
													<trackindex>2</trackindex>
												</sourcetrack>
												<link>
													<linkclipref>clipitem-79</linkclipref>
													<mediatype>video</mediatype>
													<trackindex>1</trackindex>
													<clipindex>1</clipindex>
												</link>
												<link>
													<linkclipref>clipitem-80</linkclipref>
													<mediatype>audio</mediatype>
													<trackindex>1</trackindex>
													<clipindex>1</clipindex>
													<groupindex>1</groupindex>
												</link>
												<link>
													<linkclipref>clipitem-81</linkclipref>
													<mediatype>audio</mediatype>
													<trackindex>2</trackindex>
													<clipindex>1</clipindex>
													<groupindex>1</groupindex>
												</link>
											</clipitem>
										</track>
									</audio>
								</media>
								<logginginfo>
									<description></description>
									<scene></scene>
									<shottake></shottake>
									<lognote></lognote>
									<good></good>
									<originalvideofilename></originalvideofilename>
									<originalaudiofilename></originalaudiofilename>
								</logginginfo>
								<colorinfo>
									<lut></lut>
									<lut1></lut1>
									<asc_sop></asc_sop>
									<asc_sat></asc_sat>
									<lut2></lut2>
								</colorinfo>
								<labels>
									<label2>Iris</label2>
								</labels>
							</clip>
							<clip id="masterclip-28" explodedTracks="true">
								<uuid>678db761-0606-4d8a-8cf0-ee83369b1b61</uuid>
								<masterclipid>masterclip-28</masterclipid>
								<ismasterclip>TRUE</ismasterclip>
								<duration>4400</duration>
								<rate>
									<timebase>25</timebase>
									<ntsc>FALSE</ntsc>
								</rate>
								<in>0</in>
								<out>4400</out>
								<name>190511_010.WAV</name>
								<media>
									<video>
										<track>
											<clipitem id="clipitem-82">
												<masterclipid>masterclip-28</masterclipid>
												<name>190511_010.WAV</name>
												<rate>
													<timebase>25</timebase>
													<ntsc>FALSE</ntsc>
												</rate>
												<alphatype>none</alphatype>
												<pixelaspectratio>square</pixelaspectratio>
												<anamorphic>FALSE</anamorphic>
												<file id="file-28">
													<name>190511_010.WAV</name>
													<pathurl>file://localhost/Q%3a/Projects/PRODIGAL_SON/MEDIA/190511_D01/AUDIO/PM/190511/190511_010.WAV</pathurl>
													<rate>
														<timebase>25</timebase>
														<ntsc>FALSE</ntsc>
													</rate>
													<duration>4400</duration>
													<timecode>
														<rate>
															<timebase>25</timebase>
															<ntsc>FALSE</ntsc>
														</rate>
														<string>00:00:00:00</string>
														<frame>0</frame>
														<displayformat>NDF</displayformat>
													</timecode>
													<media>
														<video>
															<samplecharacteristics>
																<rate>
																	<timebase>25</timebase>
																	<ntsc>FALSE</ntsc>
																</rate>
																<width>720</width>
																<height>480</height>
																<anamorphic>FALSE</anamorphic>
																<pixelaspectratio>square</pixelaspectratio>
																<fielddominance>none</fielddominance>
															</samplecharacteristics>
														</video>
														<audio>
															<samplecharacteristics>
																<depth>16</depth>
																<samplerate>48000</samplerate>
															</samplecharacteristics>
															<channelcount>2</channelcount>
														</audio>
													</media>
												</file>
												<link>
													<linkclipref>clipitem-82</linkclipref>
													<mediatype>video</mediatype>
													<trackindex>1</trackindex>
													<clipindex>1</clipindex>
												</link>
												<link>
													<linkclipref>clipitem-83</linkclipref>
													<mediatype>audio</mediatype>
													<trackindex>1</trackindex>
													<clipindex>1</clipindex>
													<groupindex>1</groupindex>
												</link>
												<link>
													<linkclipref>clipitem-84</linkclipref>
													<mediatype>audio</mediatype>
													<trackindex>2</trackindex>
													<clipindex>1</clipindex>
													<groupindex>1</groupindex>
												</link>
											</clipitem>
										</track>
									</video>
									<audio>
										<track>
											<clipitem id="clipitem-83">
												<masterclipid>masterclip-28</masterclipid>
												<name>190511_010.WAV</name>
												<rate>
													<timebase>25</timebase>
													<ntsc>FALSE</ntsc>
												</rate>
												<file id="file-28"/>
												<sourcetrack>
													<mediatype>audio</mediatype>
													<trackindex>1</trackindex>
												</sourcetrack>
												<link>
													<linkclipref>clipitem-82</linkclipref>
													<mediatype>video</mediatype>
													<trackindex>1</trackindex>
													<clipindex>1</clipindex>
												</link>
												<link>
													<linkclipref>clipitem-83</linkclipref>
													<mediatype>audio</mediatype>
													<trackindex>1</trackindex>
													<clipindex>1</clipindex>
													<groupindex>1</groupindex>
												</link>
												<link>
													<linkclipref>clipitem-84</linkclipref>
													<mediatype>audio</mediatype>
													<trackindex>2</trackindex>
													<clipindex>1</clipindex>
													<groupindex>1</groupindex>
												</link>
											</clipitem>
										</track>
										<track>
											<clipitem id="clipitem-84">
												<masterclipid>masterclip-28</masterclipid>
												<name>190511_010.WAV</name>
												<rate>
													<timebase>25</timebase>
													<ntsc>FALSE</ntsc>
												</rate>
												<file id="file-28"/>
												<sourcetrack>
													<mediatype>audio</mediatype>
													<trackindex>2</trackindex>
												</sourcetrack>
												<link>
													<linkclipref>clipitem-82</linkclipref>
													<mediatype>video</mediatype>
													<trackindex>1</trackindex>
													<clipindex>1</clipindex>
												</link>
												<link>
													<linkclipref>clipitem-83</linkclipref>
													<mediatype>audio</mediatype>
													<trackindex>1</trackindex>
													<clipindex>1</clipindex>
													<groupindex>1</groupindex>
												</link>
												<link>
													<linkclipref>clipitem-84</linkclipref>
													<mediatype>audio</mediatype>
													<trackindex>2</trackindex>
													<clipindex>1</clipindex>
													<groupindex>1</groupindex>
												</link>
											</clipitem>
										</track>
									</audio>
								</media>
								<logginginfo>
									<description></description>
									<scene></scene>
									<shottake></shottake>
									<lognote></lognote>
									<good></good>
									<originalvideofilename></originalvideofilename>
									<originalaudiofilename></originalaudiofilename>
								</logginginfo>
								<colorinfo>
									<lut></lut>
									<lut1></lut1>
									<asc_sop></asc_sop>
									<asc_sat></asc_sat>
									<lut2></lut2>
								</colorinfo>
								<labels>
									<label2>Iris</label2>
								</labels>
							</clip>
							<clip id="masterclip-29" explodedTracks="true">
								<uuid>cacbc906-23b9-4e1a-b0c9-d0f362c2c611</uuid>
								<masterclipid>masterclip-29</masterclipid>
								<ismasterclip>TRUE</ismasterclip>
								<duration>8150</duration>
								<rate>
									<timebase>25</timebase>
									<ntsc>FALSE</ntsc>
								</rate>
								<in>0</in>
								<out>8150</out>
								<name>A003C003_190511_R6XC.[1572393-1580542].mov</name>
								<media>
									<video>
										<track>
											<clipitem id="clipitem-85">
												<masterclipid>masterclip-29</masterclipid>
												<name>A003C003_190511_R6XC.[1572393-1580542].mov</name>
												<rate>
													<timebase>25</timebase>
													<ntsc>FALSE</ntsc>
												</rate>
												<alphatype>none</alphatype>
												<pixelaspectratio>square</pixelaspectratio>
												<anamorphic>FALSE</anamorphic>
												<file id="file-29">
													<name>A003C003_190511_R6XC.[1572393-1580542].mov</name>
													<pathurl>file://localhost/Q%3a/Projects/PRODIGAL_SON/MEDIA_TRANS/190511_D01/A003C003_190511_R6XC.[1572393-1580542].mov</pathurl>
													<rate>
														<timebase>25</timebase>
														<ntsc>FALSE</ntsc>
													</rate>
													<duration>8150</duration>
													<timecode>
														<rate>
															<timebase>25</timebase>
															<ntsc>FALSE</ntsc>
														</rate>
														<string>00:00:00:00</string>
														<frame>0</frame>
														<displayformat>NDF</displayformat>
													</timecode>
													<media>
														<video>
															<samplecharacteristics>
																<rate>
																	<timebase>25</timebase>
																	<ntsc>FALSE</ntsc>
																</rate>
																<width>720</width>
																<height>480</height>
																<anamorphic>FALSE</anamorphic>
																<pixelaspectratio>square</pixelaspectratio>
																<fielddominance>none</fielddominance>
															</samplecharacteristics>
														</video>
														<audio>
															<samplecharacteristics>
																<depth>16</depth>
																<samplerate>48000</samplerate>
															</samplecharacteristics>
															<channelcount>2</channelcount>
														</audio>
													</media>
												</file>
												<link>
													<linkclipref>clipitem-85</linkclipref>
													<mediatype>video</mediatype>
													<trackindex>1</trackindex>
													<clipindex>1</clipindex>
												</link>
												<link>
													<linkclipref>clipitem-86</linkclipref>
													<mediatype>audio</mediatype>
													<trackindex>1</trackindex>
													<clipindex>1</clipindex>
													<groupindex>1</groupindex>
												</link>
												<link>
													<linkclipref>clipitem-87</linkclipref>
													<mediatype>audio</mediatype>
													<trackindex>2</trackindex>
													<clipindex>1</clipindex>
													<groupindex>1</groupindex>
												</link>
											</clipitem>
										</track>
									</video>
									<audio>
										<track>
											<clipitem id="clipitem-86">
												<masterclipid>masterclip-29</masterclipid>
												<name>A003C003_190511_R6XC.[1572393-1580542].mov</name>
												<rate>
													<timebase>25</timebase>
													<ntsc>FALSE</ntsc>
												</rate>
												<file id="file-29"/>
												<sourcetrack>
													<mediatype>audio</mediatype>
													<trackindex>1</trackindex>
												</sourcetrack>
												<link>
													<linkclipref>clipitem-85</linkclipref>
													<mediatype>video</mediatype>
													<trackindex>1</trackindex>
													<clipindex>1</clipindex>
												</link>
												<link>
													<linkclipref>clipitem-86</linkclipref>
													<mediatype>audio</mediatype>
													<trackindex>1</trackindex>
													<clipindex>1</clipindex>
													<groupindex>1</groupindex>
												</link>
												<link>
													<linkclipref>clipitem-87</linkclipref>
													<mediatype>audio</mediatype>
													<trackindex>2</trackindex>
													<clipindex>1</clipindex>
													<groupindex>1</groupindex>
												</link>
											</clipitem>
										</track>
										<track>
											<clipitem id="clipitem-87">
												<masterclipid>masterclip-29</masterclipid>
												<name>A003C003_190511_R6XC.[1572393-1580542].mov</name>
												<rate>
													<timebase>25</timebase>
													<ntsc>FALSE</ntsc>
												</rate>
												<file id="file-29"/>
												<sourcetrack>
													<mediatype>audio</mediatype>
													<trackindex>2</trackindex>
												</sourcetrack>
												<link>
													<linkclipref>clipitem-85</linkclipref>
													<mediatype>video</mediatype>
													<trackindex>1</trackindex>
													<clipindex>1</clipindex>
												</link>
												<link>
													<linkclipref>clipitem-86</linkclipref>
													<mediatype>audio</mediatype>
													<trackindex>1</trackindex>
													<clipindex>1</clipindex>
													<groupindex>1</groupindex>
												</link>
												<link>
													<linkclipref>clipitem-87</linkclipref>
													<mediatype>audio</mediatype>
													<trackindex>2</trackindex>
													<clipindex>1</clipindex>
													<groupindex>1</groupindex>
												</link>
											</clipitem>
										</track>
									</audio>
								</media>
								<logginginfo>
									<description></description>
									<scene></scene>
									<shottake></shottake>
									<lognote></lognote>
									<good></good>
									<originalvideofilename></originalvideofilename>
									<originalaudiofilename></originalaudiofilename>
								</logginginfo>
								<colorinfo>
									<lut></lut>
									<lut1></lut1>
									<asc_sop></asc_sop>
									<asc_sat></asc_sat>
									<lut2></lut2>
								</colorinfo>
								<labels>
									<label2>Iris</label2>
								</labels>
							</clip>
							<clip id="masterclip-30" explodedTracks="true">
								<uuid>4982c6e9-3e54-4a1f-bb90-b2c15fb74f33</uuid>
								<masterclipid>masterclip-30</masterclipid>
								<ismasterclip>TRUE</ismasterclip>
								<duration>5275</duration>
								<rate>
									<timebase>25</timebase>
									<ntsc>FALSE</ntsc>
								</rate>
								<in>0</in>
								<out>5275</out>
								<name>190511_011.WAV</name>
								<media>
									<video>
										<track>
											<clipitem id="clipitem-88">
												<masterclipid>masterclip-30</masterclipid>
												<name>190511_011.WAV</name>
												<rate>
													<timebase>25</timebase>
													<ntsc>FALSE</ntsc>
												</rate>
												<alphatype>none</alphatype>
												<pixelaspectratio>square</pixelaspectratio>
												<anamorphic>FALSE</anamorphic>
												<file id="file-30">
													<name>190511_011.WAV</name>
													<pathurl>file://localhost/Q%3a/Projects/PRODIGAL_SON/MEDIA/190511_D01/AUDIO/PM/190511/190511_011.WAV</pathurl>
													<rate>
														<timebase>25</timebase>
														<ntsc>FALSE</ntsc>
													</rate>
													<duration>5275</duration>
													<timecode>
														<rate>
															<timebase>25</timebase>
															<ntsc>FALSE</ntsc>
														</rate>
														<string>00:00:00:00</string>
														<frame>0</frame>
														<displayformat>NDF</displayformat>
													</timecode>
													<media>
														<video>
															<samplecharacteristics>
																<rate>
																	<timebase>25</timebase>
																	<ntsc>FALSE</ntsc>
																</rate>
																<width>720</width>
																<height>480</height>
																<anamorphic>FALSE</anamorphic>
																<pixelaspectratio>square</pixelaspectratio>
																<fielddominance>none</fielddominance>
															</samplecharacteristics>
														</video>
														<audio>
															<samplecharacteristics>
																<depth>16</depth>
																<samplerate>48000</samplerate>
															</samplecharacteristics>
															<channelcount>2</channelcount>
														</audio>
													</media>
												</file>
												<link>
													<linkclipref>clipitem-88</linkclipref>
													<mediatype>video</mediatype>
													<trackindex>1</trackindex>
													<clipindex>1</clipindex>
												</link>
												<link>
													<linkclipref>clipitem-89</linkclipref>
													<mediatype>audio</mediatype>
													<trackindex>1</trackindex>
													<clipindex>1</clipindex>
													<groupindex>1</groupindex>
												</link>
												<link>
													<linkclipref>clipitem-90</linkclipref>
													<mediatype>audio</mediatype>
													<trackindex>2</trackindex>
													<clipindex>1</clipindex>
													<groupindex>1</groupindex>
												</link>
											</clipitem>
										</track>
									</video>
									<audio>
										<track>
											<clipitem id="clipitem-89">
												<masterclipid>masterclip-30</masterclipid>
												<name>190511_011.WAV</name>
												<rate>
													<timebase>25</timebase>
													<ntsc>FALSE</ntsc>
												</rate>
												<file id="file-30"/>
												<sourcetrack>
													<mediatype>audio</mediatype>
													<trackindex>1</trackindex>
												</sourcetrack>
												<link>
													<linkclipref>clipitem-88</linkclipref>
													<mediatype>video</mediatype>
													<trackindex>1</trackindex>
													<clipindex>1</clipindex>
												</link>
												<link>
													<linkclipref>clipitem-89</linkclipref>
													<mediatype>audio</mediatype>
													<trackindex>1</trackindex>
													<clipindex>1</clipindex>
													<groupindex>1</groupindex>
												</link>
												<link>
													<linkclipref>clipitem-90</linkclipref>
													<mediatype>audio</mediatype>
													<trackindex>2</trackindex>
													<clipindex>1</clipindex>
													<groupindex>1</groupindex>
												</link>
											</clipitem>
										</track>
										<track>
											<clipitem id="clipitem-90">
												<masterclipid>masterclip-30</masterclipid>
												<name>190511_011.WAV</name>
												<rate>
													<timebase>25</timebase>
													<ntsc>FALSE</ntsc>
												</rate>
												<file id="file-30"/>
												<sourcetrack>
													<mediatype>audio</mediatype>
													<trackindex>2</trackindex>
												</sourcetrack>
												<link>
													<linkclipref>clipitem-88</linkclipref>
													<mediatype>video</mediatype>
													<trackindex>1</trackindex>
													<clipindex>1</clipindex>
												</link>
												<link>
													<linkclipref>clipitem-89</linkclipref>
													<mediatype>audio</mediatype>
													<trackindex>1</trackindex>
													<clipindex>1</clipindex>
													<groupindex>1</groupindex>
												</link>
												<link>
													<linkclipref>clipitem-90</linkclipref>
													<mediatype>audio</mediatype>
													<trackindex>2</trackindex>
													<clipindex>1</clipindex>
													<groupindex>1</groupindex>
												</link>
											</clipitem>
										</track>
									</audio>
								</media>
								<logginginfo>
									<description></description>
									<scene></scene>
									<shottake></shottake>
									<lognote></lognote>
									<good></good>
									<originalvideofilename></originalvideofilename>
									<originalaudiofilename></originalaudiofilename>
								</logginginfo>
								<colorinfo>
									<lut></lut>
									<lut1></lut1>
									<asc_sop></asc_sop>
									<asc_sat></asc_sat>
									<lut2></lut2>
								</colorinfo>
								<labels>
									<label2>Iris</label2>
								</labels>
							</clip>
							<clip id="masterclip-31" explodedTracks="true">
								<uuid>2f5b88b3-16b3-49cc-a8fd-269dce93edb2</uuid>
								<masterclipid>masterclip-31</masterclipid>
								<ismasterclip>TRUE</ismasterclip>
								<duration>4957</duration>
								<rate>
									<timebase>25</timebase>
									<ntsc>FALSE</ntsc>
								</rate>
								<in>0</in>
								<out>4957</out>
								<name>A003C004_190511_R6XC.[1582384-1587340].mov</name>
								<media>
									<video>
										<track>
											<clipitem id="clipitem-91">
												<masterclipid>masterclip-31</masterclipid>
												<name>A003C004_190511_R6XC.[1582384-1587340].mov</name>
												<rate>
													<timebase>25</timebase>
													<ntsc>FALSE</ntsc>
												</rate>
												<alphatype>none</alphatype>
												<pixelaspectratio>square</pixelaspectratio>
												<anamorphic>FALSE</anamorphic>
												<file id="file-31">
													<name>A003C004_190511_R6XC.[1582384-1587340].mov</name>
													<pathurl>file://localhost/Q%3a/Projects/PRODIGAL_SON/MEDIA_TRANS/190511_D01/A003C004_190511_R6XC.[1582384-1587340].mov</pathurl>
													<rate>
														<timebase>25</timebase>
														<ntsc>FALSE</ntsc>
													</rate>
													<duration>4957</duration>
													<timecode>
														<rate>
															<timebase>25</timebase>
															<ntsc>FALSE</ntsc>
														</rate>
														<string>00:00:00:00</string>
														<frame>0</frame>
														<displayformat>NDF</displayformat>
													</timecode>
													<media>
														<video>
															<samplecharacteristics>
																<rate>
																	<timebase>25</timebase>
																	<ntsc>FALSE</ntsc>
																</rate>
																<width>720</width>
																<height>480</height>
																<anamorphic>FALSE</anamorphic>
																<pixelaspectratio>square</pixelaspectratio>
																<fielddominance>none</fielddominance>
															</samplecharacteristics>
														</video>
														<audio>
															<samplecharacteristics>
																<depth>16</depth>
																<samplerate>48000</samplerate>
															</samplecharacteristics>
															<channelcount>2</channelcount>
														</audio>
													</media>
												</file>
												<link>
													<linkclipref>clipitem-91</linkclipref>
													<mediatype>video</mediatype>
													<trackindex>1</trackindex>
													<clipindex>1</clipindex>
												</link>
												<link>
													<linkclipref>clipitem-92</linkclipref>
													<mediatype>audio</mediatype>
													<trackindex>1</trackindex>
													<clipindex>1</clipindex>
													<groupindex>1</groupindex>
												</link>
												<link>
													<linkclipref>clipitem-93</linkclipref>
													<mediatype>audio</mediatype>
													<trackindex>2</trackindex>
													<clipindex>1</clipindex>
													<groupindex>1</groupindex>
												</link>
											</clipitem>
										</track>
									</video>
									<audio>
										<track>
											<clipitem id="clipitem-92">
												<masterclipid>masterclip-31</masterclipid>
												<name>A003C004_190511_R6XC.[1582384-1587340].mov</name>
												<rate>
													<timebase>25</timebase>
													<ntsc>FALSE</ntsc>
												</rate>
												<file id="file-31"/>
												<sourcetrack>
													<mediatype>audio</mediatype>
													<trackindex>1</trackindex>
												</sourcetrack>
												<link>
													<linkclipref>clipitem-91</linkclipref>
													<mediatype>video</mediatype>
													<trackindex>1</trackindex>
													<clipindex>1</clipindex>
												</link>
												<link>
													<linkclipref>clipitem-92</linkclipref>
													<mediatype>audio</mediatype>
													<trackindex>1</trackindex>
													<clipindex>1</clipindex>
													<groupindex>1</groupindex>
												</link>
												<link>
													<linkclipref>clipitem-93</linkclipref>
													<mediatype>audio</mediatype>
													<trackindex>2</trackindex>
													<clipindex>1</clipindex>
													<groupindex>1</groupindex>
												</link>
											</clipitem>
										</track>
										<track>
											<clipitem id="clipitem-93">
												<masterclipid>masterclip-31</masterclipid>
												<name>A003C004_190511_R6XC.[1582384-1587340].mov</name>
												<rate>
													<timebase>25</timebase>
													<ntsc>FALSE</ntsc>
												</rate>
												<file id="file-31"/>
												<sourcetrack>
													<mediatype>audio</mediatype>
													<trackindex>2</trackindex>
												</sourcetrack>
												<link>
													<linkclipref>clipitem-91</linkclipref>
													<mediatype>video</mediatype>
													<trackindex>1</trackindex>
													<clipindex>1</clipindex>
												</link>
												<link>
													<linkclipref>clipitem-92</linkclipref>
													<mediatype>audio</mediatype>
													<trackindex>1</trackindex>
													<clipindex>1</clipindex>
													<groupindex>1</groupindex>
												</link>
												<link>
													<linkclipref>clipitem-93</linkclipref>
													<mediatype>audio</mediatype>
													<trackindex>2</trackindex>
													<clipindex>1</clipindex>
													<groupindex>1</groupindex>
												</link>
											</clipitem>
										</track>
									</audio>
								</media>
								<logginginfo>
									<description></description>
									<scene></scene>
									<shottake></shottake>
									<lognote></lognote>
									<good></good>
									<originalvideofilename></originalvideofilename>
									<originalaudiofilename></originalaudiofilename>
								</logginginfo>
								<colorinfo>
									<lut></lut>
									<lut1></lut1>
									<asc_sop></asc_sop>
									<asc_sat></asc_sat>
									<lut2></lut2>
								</colorinfo>
								<labels>
									<label2>Iris</label2>
								</labels>
							</clip>
							<clip id="masterclip-32" explodedTracks="true">
								<uuid>4f2fb4ca-485a-4678-901c-2a796077d8fb</uuid>
								<masterclipid>masterclip-32</masterclipid>
								<ismasterclip>TRUE</ismasterclip>
								<duration>3575</duration>
								<rate>
									<timebase>25</timebase>
									<ntsc>FALSE</ntsc>
								</rate>
								<in>0</in>
								<out>3575</out>
								<name>190511_012.WAV</name>
								<media>
									<video>
										<track>
											<clipitem id="clipitem-94">
												<masterclipid>masterclip-32</masterclipid>
												<name>190511_012.WAV</name>
												<rate>
													<timebase>25</timebase>
													<ntsc>FALSE</ntsc>
												</rate>
												<alphatype>none</alphatype>
												<pixelaspectratio>square</pixelaspectratio>
												<anamorphic>FALSE</anamorphic>
												<file id="file-32">
													<name>190511_012.WAV</name>
													<pathurl>file://localhost/Q%3a/Projects/PRODIGAL_SON/MEDIA/190511_D01/AUDIO/PM/190511/190511_012.WAV</pathurl>
													<rate>
														<timebase>25</timebase>
														<ntsc>FALSE</ntsc>
													</rate>
													<duration>3575</duration>
													<timecode>
														<rate>
															<timebase>25</timebase>
															<ntsc>FALSE</ntsc>
														</rate>
														<string>00:00:00:00</string>
														<frame>0</frame>
														<displayformat>NDF</displayformat>
													</timecode>
													<media>
														<video>
															<samplecharacteristics>
																<rate>
																	<timebase>25</timebase>
																	<ntsc>FALSE</ntsc>
																</rate>
																<width>720</width>
																<height>480</height>
																<anamorphic>FALSE</anamorphic>
																<pixelaspectratio>square</pixelaspectratio>
																<fielddominance>none</fielddominance>
															</samplecharacteristics>
														</video>
														<audio>
															<samplecharacteristics>
																<depth>16</depth>
																<samplerate>48000</samplerate>
															</samplecharacteristics>
															<channelcount>2</channelcount>
														</audio>
													</media>
												</file>
												<link>
													<linkclipref>clipitem-94</linkclipref>
													<mediatype>video</mediatype>
													<trackindex>1</trackindex>
													<clipindex>1</clipindex>
												</link>
												<link>
													<linkclipref>clipitem-95</linkclipref>
													<mediatype>audio</mediatype>
													<trackindex>1</trackindex>
													<clipindex>1</clipindex>
													<groupindex>1</groupindex>
												</link>
												<link>
													<linkclipref>clipitem-96</linkclipref>
													<mediatype>audio</mediatype>
													<trackindex>2</trackindex>
													<clipindex>1</clipindex>
													<groupindex>1</groupindex>
												</link>
											</clipitem>
										</track>
									</video>
									<audio>
										<track>
											<clipitem id="clipitem-95">
												<masterclipid>masterclip-32</masterclipid>
												<name>190511_012.WAV</name>
												<rate>
													<timebase>25</timebase>
													<ntsc>FALSE</ntsc>
												</rate>
												<file id="file-32"/>
												<sourcetrack>
													<mediatype>audio</mediatype>
													<trackindex>1</trackindex>
												</sourcetrack>
												<link>
													<linkclipref>clipitem-94</linkclipref>
													<mediatype>video</mediatype>
													<trackindex>1</trackindex>
													<clipindex>1</clipindex>
												</link>
												<link>
													<linkclipref>clipitem-95</linkclipref>
													<mediatype>audio</mediatype>
													<trackindex>1</trackindex>
													<clipindex>1</clipindex>
													<groupindex>1</groupindex>
												</link>
												<link>
													<linkclipref>clipitem-96</linkclipref>
													<mediatype>audio</mediatype>
													<trackindex>2</trackindex>
													<clipindex>1</clipindex>
													<groupindex>1</groupindex>
												</link>
											</clipitem>
										</track>
										<track>
											<clipitem id="clipitem-96">
												<masterclipid>masterclip-32</masterclipid>
												<name>190511_012.WAV</name>
												<rate>
													<timebase>25</timebase>
													<ntsc>FALSE</ntsc>
												</rate>
												<file id="file-32"/>
												<sourcetrack>
													<mediatype>audio</mediatype>
													<trackindex>2</trackindex>
												</sourcetrack>
												<link>
													<linkclipref>clipitem-94</linkclipref>
													<mediatype>video</mediatype>
													<trackindex>1</trackindex>
													<clipindex>1</clipindex>
												</link>
												<link>
													<linkclipref>clipitem-95</linkclipref>
													<mediatype>audio</mediatype>
													<trackindex>1</trackindex>
													<clipindex>1</clipindex>
													<groupindex>1</groupindex>
												</link>
												<link>
													<linkclipref>clipitem-96</linkclipref>
													<mediatype>audio</mediatype>
													<trackindex>2</trackindex>
													<clipindex>1</clipindex>
													<groupindex>1</groupindex>
												</link>
											</clipitem>
										</track>
									</audio>
								</media>
								<logginginfo>
									<description></description>
									<scene></scene>
									<shottake></shottake>
									<lognote></lognote>
									<good></good>
									<originalvideofilename></originalvideofilename>
									<originalaudiofilename></originalaudiofilename>
								</logginginfo>
								<colorinfo>
									<lut></lut>
									<lut1></lut1>
									<asc_sop></asc_sop>
									<asc_sat></asc_sat>
									<lut2></lut2>
								</colorinfo>
								<labels>
									<label2>Iris</label2>
								</labels>
							</clip>
							<clip id="masterclip-33" explodedTracks="true">
								<uuid>39b0c949-8b31-4335-b1c9-cf448e66efcb</uuid>
								<masterclipid>masterclip-33</masterclipid>
								<ismasterclip>TRUE</ismasterclip>
								<duration>3290</duration>
								<rate>
									<timebase>25</timebase>
									<ntsc>FALSE</ntsc>
								</rate>
								<in>0</in>
								<out>3290</out>
								<name>A003C005_190511_R6XC.[1680865-1684154].mov</name>
								<media>
									<video>
										<track>
											<clipitem id="clipitem-97">
												<masterclipid>masterclip-33</masterclipid>
												<name>A003C005_190511_R6XC.[1680865-1684154].mov</name>
												<rate>
													<timebase>25</timebase>
													<ntsc>FALSE</ntsc>
												</rate>
												<alphatype>none</alphatype>
												<pixelaspectratio>square</pixelaspectratio>
												<anamorphic>FALSE</anamorphic>
												<file id="file-33">
													<name>A003C005_190511_R6XC.[1680865-1684154].mov</name>
													<pathurl>file://localhost/Q%3a/Projects/PRODIGAL_SON/MEDIA_TRANS/190511_D01/A003C005_190511_R6XC.[1680865-1684154].mov</pathurl>
													<rate>
														<timebase>25</timebase>
														<ntsc>FALSE</ntsc>
													</rate>
													<duration>3290</duration>
													<timecode>
														<rate>
															<timebase>25</timebase>
															<ntsc>FALSE</ntsc>
														</rate>
														<string>00:00:00:00</string>
														<frame>0</frame>
														<displayformat>NDF</displayformat>
													</timecode>
													<media>
														<video>
															<samplecharacteristics>
																<rate>
																	<timebase>25</timebase>
																	<ntsc>FALSE</ntsc>
																</rate>
																<width>720</width>
																<height>480</height>
																<anamorphic>FALSE</anamorphic>
																<pixelaspectratio>square</pixelaspectratio>
																<fielddominance>none</fielddominance>
															</samplecharacteristics>
														</video>
														<audio>
															<samplecharacteristics>
																<depth>16</depth>
																<samplerate>48000</samplerate>
															</samplecharacteristics>
															<channelcount>2</channelcount>
														</audio>
													</media>
												</file>
												<link>
													<linkclipref>clipitem-97</linkclipref>
													<mediatype>video</mediatype>
													<trackindex>1</trackindex>
													<clipindex>1</clipindex>
												</link>
												<link>
													<linkclipref>clipitem-98</linkclipref>
													<mediatype>audio</mediatype>
													<trackindex>1</trackindex>
													<clipindex>1</clipindex>
													<groupindex>1</groupindex>
												</link>
												<link>
													<linkclipref>clipitem-99</linkclipref>
													<mediatype>audio</mediatype>
													<trackindex>2</trackindex>
													<clipindex>1</clipindex>
													<groupindex>1</groupindex>
												</link>
											</clipitem>
										</track>
									</video>
									<audio>
										<track>
											<clipitem id="clipitem-98">
												<masterclipid>masterclip-33</masterclipid>
												<name>A003C005_190511_R6XC.[1680865-1684154].mov</name>
												<rate>
													<timebase>25</timebase>
													<ntsc>FALSE</ntsc>
												</rate>
												<file id="file-33"/>
												<sourcetrack>
													<mediatype>audio</mediatype>
													<trackindex>1</trackindex>
												</sourcetrack>
												<link>
													<linkclipref>clipitem-97</linkclipref>
													<mediatype>video</mediatype>
													<trackindex>1</trackindex>
													<clipindex>1</clipindex>
												</link>
												<link>
													<linkclipref>clipitem-98</linkclipref>
													<mediatype>audio</mediatype>
													<trackindex>1</trackindex>
													<clipindex>1</clipindex>
													<groupindex>1</groupindex>
												</link>
												<link>
													<linkclipref>clipitem-99</linkclipref>
													<mediatype>audio</mediatype>
													<trackindex>2</trackindex>
													<clipindex>1</clipindex>
													<groupindex>1</groupindex>
												</link>
											</clipitem>
										</track>
										<track>
											<clipitem id="clipitem-99">
												<masterclipid>masterclip-33</masterclipid>
												<name>A003C005_190511_R6XC.[1680865-1684154].mov</name>
												<rate>
													<timebase>25</timebase>
													<ntsc>FALSE</ntsc>
												</rate>
												<file id="file-33"/>
												<sourcetrack>
													<mediatype>audio</mediatype>
													<trackindex>2</trackindex>
												</sourcetrack>
												<link>
													<linkclipref>clipitem-97</linkclipref>
													<mediatype>video</mediatype>
													<trackindex>1</trackindex>
													<clipindex>1</clipindex>
												</link>
												<link>
													<linkclipref>clipitem-98</linkclipref>
													<mediatype>audio</mediatype>
													<trackindex>1</trackindex>
													<clipindex>1</clipindex>
													<groupindex>1</groupindex>
												</link>
												<link>
													<linkclipref>clipitem-99</linkclipref>
													<mediatype>audio</mediatype>
													<trackindex>2</trackindex>
													<clipindex>1</clipindex>
													<groupindex>1</groupindex>
												</link>
											</clipitem>
										</track>
									</audio>
								</media>
								<logginginfo>
									<description></description>
									<scene></scene>
									<shottake></shottake>
									<lognote></lognote>
									<good></good>
									<originalvideofilename></originalvideofilename>
									<originalaudiofilename></originalaudiofilename>
								</logginginfo>
								<colorinfo>
									<lut></lut>
									<lut1></lut1>
									<asc_sop></asc_sop>
									<asc_sat></asc_sat>
									<lut2></lut2>
								</colorinfo>
								<labels>
									<label2>Iris</label2>
								</labels>
							</clip>
							<clip id="masterclip-34" explodedTracks="true">
								<uuid>8910aa34-47ef-45aa-84e2-e14d6acdb927</uuid>
								<masterclipid>masterclip-34</masterclipid>
								<ismasterclip>TRUE</ismasterclip>
								<duration>4100</duration>
								<rate>
									<timebase>25</timebase>
									<ntsc>FALSE</ntsc>
								</rate>
								<in>0</in>
								<out>4100</out>
								<name>190511_013.WAV</name>
								<media>
									<video>
										<track>
											<clipitem id="clipitem-100">
												<masterclipid>masterclip-34</masterclipid>
												<name>190511_013.WAV</name>
												<rate>
													<timebase>25</timebase>
													<ntsc>FALSE</ntsc>
												</rate>
												<alphatype>none</alphatype>
												<pixelaspectratio>square</pixelaspectratio>
												<anamorphic>FALSE</anamorphic>
												<file id="file-34">
													<name>190511_013.WAV</name>
													<pathurl>file://localhost/Q%3a/Projects/PRODIGAL_SON/MEDIA/190511_D01/AUDIO/PM/190511/190511_013.WAV</pathurl>
													<rate>
														<timebase>25</timebase>
														<ntsc>FALSE</ntsc>
													</rate>
													<duration>4100</duration>
													<timecode>
														<rate>
															<timebase>25</timebase>
															<ntsc>FALSE</ntsc>
														</rate>
														<string>00:00:00:00</string>
														<frame>0</frame>
														<displayformat>NDF</displayformat>
													</timecode>
													<media>
														<video>
															<samplecharacteristics>
																<rate>
																	<timebase>25</timebase>
																	<ntsc>FALSE</ntsc>
																</rate>
																<width>720</width>
																<height>480</height>
																<anamorphic>FALSE</anamorphic>
																<pixelaspectratio>square</pixelaspectratio>
																<fielddominance>none</fielddominance>
															</samplecharacteristics>
														</video>
														<audio>
															<samplecharacteristics>
																<depth>16</depth>
																<samplerate>48000</samplerate>
															</samplecharacteristics>
															<channelcount>2</channelcount>
														</audio>
													</media>
												</file>
												<link>
													<linkclipref>clipitem-100</linkclipref>
													<mediatype>video</mediatype>
													<trackindex>1</trackindex>
													<clipindex>1</clipindex>
												</link>
												<link>
													<linkclipref>clipitem-101</linkclipref>
													<mediatype>audio</mediatype>
													<trackindex>1</trackindex>
													<clipindex>1</clipindex>
													<groupindex>1</groupindex>
												</link>
												<link>
													<linkclipref>clipitem-102</linkclipref>
													<mediatype>audio</mediatype>
													<trackindex>2</trackindex>
													<clipindex>1</clipindex>
													<groupindex>1</groupindex>
												</link>
											</clipitem>
										</track>
									</video>
									<audio>
										<track>
											<clipitem id="clipitem-101">
												<masterclipid>masterclip-34</masterclipid>
												<name>190511_013.WAV</name>
												<rate>
													<timebase>25</timebase>
													<ntsc>FALSE</ntsc>
												</rate>
												<file id="file-34"/>
												<sourcetrack>
													<mediatype>audio</mediatype>
													<trackindex>1</trackindex>
												</sourcetrack>
												<link>
													<linkclipref>clipitem-100</linkclipref>
													<mediatype>video</mediatype>
													<trackindex>1</trackindex>
													<clipindex>1</clipindex>
												</link>
												<link>
													<linkclipref>clipitem-101</linkclipref>
													<mediatype>audio</mediatype>
													<trackindex>1</trackindex>
													<clipindex>1</clipindex>
													<groupindex>1</groupindex>
												</link>
												<link>
													<linkclipref>clipitem-102</linkclipref>
													<mediatype>audio</mediatype>
													<trackindex>2</trackindex>
													<clipindex>1</clipindex>
													<groupindex>1</groupindex>
												</link>
											</clipitem>
										</track>
										<track>
											<clipitem id="clipitem-102">
												<masterclipid>masterclip-34</masterclipid>
												<name>190511_013.WAV</name>
												<rate>
													<timebase>25</timebase>
													<ntsc>FALSE</ntsc>
												</rate>
												<file id="file-34"/>
												<sourcetrack>
													<mediatype>audio</mediatype>
													<trackindex>2</trackindex>
												</sourcetrack>
												<link>
													<linkclipref>clipitem-100</linkclipref>
													<mediatype>video</mediatype>
													<trackindex>1</trackindex>
													<clipindex>1</clipindex>
												</link>
												<link>
													<linkclipref>clipitem-101</linkclipref>
													<mediatype>audio</mediatype>
													<trackindex>1</trackindex>
													<clipindex>1</clipindex>
													<groupindex>1</groupindex>
												</link>
												<link>
													<linkclipref>clipitem-102</linkclipref>
													<mediatype>audio</mediatype>
													<trackindex>2</trackindex>
													<clipindex>1</clipindex>
													<groupindex>1</groupindex>
												</link>
											</clipitem>
										</track>
									</audio>
								</media>
								<logginginfo>
									<description></description>
									<scene></scene>
									<shottake></shottake>
									<lognote></lognote>
									<good></good>
									<originalvideofilename></originalvideofilename>
									<originalaudiofilename></originalaudiofilename>
								</logginginfo>
								<colorinfo>
									<lut></lut>
									<lut1></lut1>
									<asc_sop></asc_sop>
									<asc_sat></asc_sat>
									<lut2></lut2>
								</colorinfo>
								<labels>
									<label2>Iris</label2>
								</labels>
							</clip>
							<clip id="masterclip-35" explodedTracks="true">
								<uuid>a91ec151-047c-4db4-9583-3f0d5f7044b2</uuid>
								<masterclipid>masterclip-35</masterclipid>
								<ismasterclip>TRUE</ismasterclip>
								<duration>3497</duration>
								<rate>
									<timebase>25</timebase>
									<ntsc>FALSE</ntsc>
								</rate>
								<in>0</in>
								<out>3497</out>
								<name>A003C006_190511_R6XC.[1687928-1691424].mov</name>
								<media>
									<video>
										<track>
											<clipitem id="clipitem-103">
												<masterclipid>masterclip-35</masterclipid>
												<name>A003C006_190511_R6XC.[1687928-1691424].mov</name>
												<rate>
													<timebase>25</timebase>
													<ntsc>FALSE</ntsc>
												</rate>
												<alphatype>none</alphatype>
												<pixelaspectratio>square</pixelaspectratio>
												<anamorphic>FALSE</anamorphic>
												<file id="file-35">
													<name>A003C006_190511_R6XC.[1687928-1691424].mov</name>
													<pathurl>file://localhost/Q%3a/Projects/PRODIGAL_SON/MEDIA_TRANS/190511_D01/A003C006_190511_R6XC.[1687928-1691424].mov</pathurl>
													<rate>
														<timebase>25</timebase>
														<ntsc>FALSE</ntsc>
													</rate>
													<duration>3497</duration>
													<timecode>
														<rate>
															<timebase>25</timebase>
															<ntsc>FALSE</ntsc>
														</rate>
														<string>00:00:00:00</string>
														<frame>0</frame>
														<displayformat>NDF</displayformat>
													</timecode>
													<media>
														<video>
															<samplecharacteristics>
																<rate>
																	<timebase>25</timebase>
																	<ntsc>FALSE</ntsc>
																</rate>
																<width>720</width>
																<height>480</height>
																<anamorphic>FALSE</anamorphic>
																<pixelaspectratio>square</pixelaspectratio>
																<fielddominance>none</fielddominance>
															</samplecharacteristics>
														</video>
														<audio>
															<samplecharacteristics>
																<depth>16</depth>
																<samplerate>48000</samplerate>
															</samplecharacteristics>
															<channelcount>2</channelcount>
														</audio>
													</media>
												</file>
												<link>
													<linkclipref>clipitem-103</linkclipref>
													<mediatype>video</mediatype>
													<trackindex>1</trackindex>
													<clipindex>1</clipindex>
												</link>
												<link>
													<linkclipref>clipitem-104</linkclipref>
													<mediatype>audio</mediatype>
													<trackindex>1</trackindex>
													<clipindex>1</clipindex>
													<groupindex>1</groupindex>
												</link>
												<link>
													<linkclipref>clipitem-105</linkclipref>
													<mediatype>audio</mediatype>
													<trackindex>2</trackindex>
													<clipindex>1</clipindex>
													<groupindex>1</groupindex>
												</link>
											</clipitem>
										</track>
									</video>
									<audio>
										<track>
											<clipitem id="clipitem-104">
												<masterclipid>masterclip-35</masterclipid>
												<name>A003C006_190511_R6XC.[1687928-1691424].mov</name>
												<rate>
													<timebase>25</timebase>
													<ntsc>FALSE</ntsc>
												</rate>
												<file id="file-35"/>
												<sourcetrack>
													<mediatype>audio</mediatype>
													<trackindex>1</trackindex>
												</sourcetrack>
												<link>
													<linkclipref>clipitem-103</linkclipref>
													<mediatype>video</mediatype>
													<trackindex>1</trackindex>
													<clipindex>1</clipindex>
												</link>
												<link>
													<linkclipref>clipitem-104</linkclipref>
													<mediatype>audio</mediatype>
													<trackindex>1</trackindex>
													<clipindex>1</clipindex>
													<groupindex>1</groupindex>
												</link>
												<link>
													<linkclipref>clipitem-105</linkclipref>
													<mediatype>audio</mediatype>
													<trackindex>2</trackindex>
													<clipindex>1</clipindex>
													<groupindex>1</groupindex>
												</link>
											</clipitem>
										</track>
										<track>
											<clipitem id="clipitem-105">
												<masterclipid>masterclip-35</masterclipid>
												<name>A003C006_190511_R6XC.[1687928-1691424].mov</name>
												<rate>
													<timebase>25</timebase>
													<ntsc>FALSE</ntsc>
												</rate>
												<file id="file-35"/>
												<sourcetrack>
													<mediatype>audio</mediatype>
													<trackindex>2</trackindex>
												</sourcetrack>
												<link>
													<linkclipref>clipitem-103</linkclipref>
													<mediatype>video</mediatype>
													<trackindex>1</trackindex>
													<clipindex>1</clipindex>
												</link>
												<link>
													<linkclipref>clipitem-104</linkclipref>
													<mediatype>audio</mediatype>
													<trackindex>1</trackindex>
													<clipindex>1</clipindex>
													<groupindex>1</groupindex>
												</link>
												<link>
													<linkclipref>clipitem-105</linkclipref>
													<mediatype>audio</mediatype>
													<trackindex>2</trackindex>
													<clipindex>1</clipindex>
													<groupindex>1</groupindex>
												</link>
											</clipitem>
										</track>
									</audio>
								</media>
								<logginginfo>
									<description></description>
									<scene></scene>
									<shottake></shottake>
									<lognote></lognote>
									<good></good>
									<originalvideofilename></originalvideofilename>
									<originalaudiofilename></originalaudiofilename>
								</logginginfo>
								<colorinfo>
									<lut></lut>
									<lut1></lut1>
									<asc_sop></asc_sop>
									<asc_sat></asc_sat>
									<lut2></lut2>
								</colorinfo>
								<labels>
									<label2>Iris</label2>
								</labels>
							</clip>
							<clip id="masterclip-36" explodedTracks="true">
								<uuid>f06460dd-01b9-4888-8096-cf36184bb65d</uuid>
								<masterclipid>masterclip-36</masterclipid>
								<ismasterclip>TRUE</ismasterclip>
								<duration>2375</duration>
								<rate>
									<timebase>25</timebase>
									<ntsc>FALSE</ntsc>
								</rate>
								<in>0</in>
								<out>2375</out>
								<name>190511_014.WAV</name>
								<media>
									<video>
										<track>
											<clipitem id="clipitem-106">
												<masterclipid>masterclip-36</masterclipid>
												<name>190511_014.WAV</name>
												<rate>
													<timebase>25</timebase>
													<ntsc>FALSE</ntsc>
												</rate>
												<alphatype>none</alphatype>
												<pixelaspectratio>square</pixelaspectratio>
												<anamorphic>FALSE</anamorphic>
												<file id="file-36">
													<name>190511_014.WAV</name>
													<pathurl>file://localhost/Q%3a/Projects/PRODIGAL_SON/MEDIA/190511_D01/AUDIO/PM/190511/190511_014.WAV</pathurl>
													<rate>
														<timebase>25</timebase>
														<ntsc>FALSE</ntsc>
													</rate>
													<duration>2375</duration>
													<timecode>
														<rate>
															<timebase>25</timebase>
															<ntsc>FALSE</ntsc>
														</rate>
														<string>00:00:00:00</string>
														<frame>0</frame>
														<displayformat>NDF</displayformat>
													</timecode>
													<media>
														<video>
															<samplecharacteristics>
																<rate>
																	<timebase>25</timebase>
																	<ntsc>FALSE</ntsc>
																</rate>
																<width>720</width>
																<height>480</height>
																<anamorphic>FALSE</anamorphic>
																<pixelaspectratio>square</pixelaspectratio>
																<fielddominance>none</fielddominance>
															</samplecharacteristics>
														</video>
														<audio>
															<samplecharacteristics>
																<depth>16</depth>
																<samplerate>48000</samplerate>
															</samplecharacteristics>
															<channelcount>2</channelcount>
														</audio>
													</media>
												</file>
												<link>
													<linkclipref>clipitem-106</linkclipref>
													<mediatype>video</mediatype>
													<trackindex>1</trackindex>
													<clipindex>1</clipindex>
												</link>
												<link>
													<linkclipref>clipitem-107</linkclipref>
													<mediatype>audio</mediatype>
													<trackindex>1</trackindex>
													<clipindex>1</clipindex>
													<groupindex>1</groupindex>
												</link>
												<link>
													<linkclipref>clipitem-108</linkclipref>
													<mediatype>audio</mediatype>
													<trackindex>2</trackindex>
													<clipindex>1</clipindex>
													<groupindex>1</groupindex>
												</link>
											</clipitem>
										</track>
									</video>
									<audio>
										<track>
											<clipitem id="clipitem-107">
												<masterclipid>masterclip-36</masterclipid>
												<name>190511_014.WAV</name>
												<rate>
													<timebase>25</timebase>
													<ntsc>FALSE</ntsc>
												</rate>
												<file id="file-36"/>
												<sourcetrack>
													<mediatype>audio</mediatype>
													<trackindex>1</trackindex>
												</sourcetrack>
												<link>
													<linkclipref>clipitem-106</linkclipref>
													<mediatype>video</mediatype>
													<trackindex>1</trackindex>
													<clipindex>1</clipindex>
												</link>
												<link>
													<linkclipref>clipitem-107</linkclipref>
													<mediatype>audio</mediatype>
													<trackindex>1</trackindex>
													<clipindex>1</clipindex>
													<groupindex>1</groupindex>
												</link>
												<link>
													<linkclipref>clipitem-108</linkclipref>
													<mediatype>audio</mediatype>
													<trackindex>2</trackindex>
													<clipindex>1</clipindex>
													<groupindex>1</groupindex>
												</link>
											</clipitem>
										</track>
										<track>
											<clipitem id="clipitem-108">
												<masterclipid>masterclip-36</masterclipid>
												<name>190511_014.WAV</name>
												<rate>
													<timebase>25</timebase>
													<ntsc>FALSE</ntsc>
												</rate>
												<file id="file-36"/>
												<sourcetrack>
													<mediatype>audio</mediatype>
													<trackindex>2</trackindex>
												</sourcetrack>
												<link>
													<linkclipref>clipitem-106</linkclipref>
													<mediatype>video</mediatype>
													<trackindex>1</trackindex>
													<clipindex>1</clipindex>
												</link>
												<link>
													<linkclipref>clipitem-107</linkclipref>
													<mediatype>audio</mediatype>
													<trackindex>1</trackindex>
													<clipindex>1</clipindex>
													<groupindex>1</groupindex>
												</link>
												<link>
													<linkclipref>clipitem-108</linkclipref>
													<mediatype>audio</mediatype>
													<trackindex>2</trackindex>
													<clipindex>1</clipindex>
													<groupindex>1</groupindex>
												</link>
											</clipitem>
										</track>
									</audio>
								</media>
								<logginginfo>
									<description></description>
									<scene></scene>
									<shottake></shottake>
									<lognote></lognote>
									<good></good>
									<originalvideofilename></originalvideofilename>
									<originalaudiofilename></originalaudiofilename>
								</logginginfo>
								<colorinfo>
									<lut></lut>
									<lut1></lut1>
									<asc_sop></asc_sop>
									<asc_sat></asc_sat>
									<lut2></lut2>
								</colorinfo>
								<labels>
									<label2>Iris</label2>
								</labels>
							</clip>
							<clip id="masterclip-37" explodedTracks="true">
								<uuid>98a95d3f-9e1f-4686-a32c-5d91d2da5f78</uuid>
								<masterclipid>masterclip-37</masterclipid>
								<ismasterclip>TRUE</ismasterclip>
								<duration>1700</duration>
								<rate>
									<timebase>25</timebase>
									<ntsc>FALSE</ntsc>
								</rate>
								<in>0</in>
								<out>1700</out>
								<name>190511_015.WAV</name>
								<media>
									<video>
										<track>
											<clipitem id="clipitem-109">
												<masterclipid>masterclip-37</masterclipid>
												<name>190511_015.WAV</name>
												<rate>
													<timebase>25</timebase>
													<ntsc>FALSE</ntsc>
												</rate>
												<alphatype>none</alphatype>
												<pixelaspectratio>square</pixelaspectratio>
												<anamorphic>FALSE</anamorphic>
												<file id="file-37">
													<name>190511_015.WAV</name>
													<pathurl>file://localhost/Q%3a/Projects/PRODIGAL_SON/MEDIA/190511_D01/AUDIO/PM/190511/190511_015.WAV</pathurl>
													<rate>
														<timebase>25</timebase>
														<ntsc>FALSE</ntsc>
													</rate>
													<duration>1700</duration>
													<timecode>
														<rate>
															<timebase>25</timebase>
															<ntsc>FALSE</ntsc>
														</rate>
														<string>00:00:00:00</string>
														<frame>0</frame>
														<displayformat>NDF</displayformat>
													</timecode>
													<media>
														<video>
															<samplecharacteristics>
																<rate>
																	<timebase>25</timebase>
																	<ntsc>FALSE</ntsc>
																</rate>
																<width>720</width>
																<height>480</height>
																<anamorphic>FALSE</anamorphic>
																<pixelaspectratio>square</pixelaspectratio>
																<fielddominance>none</fielddominance>
															</samplecharacteristics>
														</video>
														<audio>
															<samplecharacteristics>
																<depth>16</depth>
																<samplerate>48000</samplerate>
															</samplecharacteristics>
															<channelcount>2</channelcount>
														</audio>
													</media>
												</file>
												<link>
													<linkclipref>clipitem-109</linkclipref>
													<mediatype>video</mediatype>
													<trackindex>1</trackindex>
													<clipindex>1</clipindex>
												</link>
												<link>
													<linkclipref>clipitem-110</linkclipref>
													<mediatype>audio</mediatype>
													<trackindex>1</trackindex>
													<clipindex>1</clipindex>
													<groupindex>1</groupindex>
												</link>
												<link>
													<linkclipref>clipitem-111</linkclipref>
													<mediatype>audio</mediatype>
													<trackindex>2</trackindex>
													<clipindex>1</clipindex>
													<groupindex>1</groupindex>
												</link>
											</clipitem>
										</track>
									</video>
									<audio>
										<track>
											<clipitem id="clipitem-110">
												<masterclipid>masterclip-37</masterclipid>
												<name>190511_015.WAV</name>
												<rate>
													<timebase>25</timebase>
													<ntsc>FALSE</ntsc>
												</rate>
												<file id="file-37"/>
												<sourcetrack>
													<mediatype>audio</mediatype>
													<trackindex>1</trackindex>
												</sourcetrack>
												<link>
													<linkclipref>clipitem-109</linkclipref>
													<mediatype>video</mediatype>
													<trackindex>1</trackindex>
													<clipindex>1</clipindex>
												</link>
												<link>
													<linkclipref>clipitem-110</linkclipref>
													<mediatype>audio</mediatype>
													<trackindex>1</trackindex>
													<clipindex>1</clipindex>
													<groupindex>1</groupindex>
												</link>
												<link>
													<linkclipref>clipitem-111</linkclipref>
													<mediatype>audio</mediatype>
													<trackindex>2</trackindex>
													<clipindex>1</clipindex>
													<groupindex>1</groupindex>
												</link>
											</clipitem>
										</track>
										<track>
											<clipitem id="clipitem-111">
												<masterclipid>masterclip-37</masterclipid>
												<name>190511_015.WAV</name>
												<rate>
													<timebase>25</timebase>
													<ntsc>FALSE</ntsc>
												</rate>
												<file id="file-37"/>
												<sourcetrack>
													<mediatype>audio</mediatype>
													<trackindex>2</trackindex>
												</sourcetrack>
												<link>
													<linkclipref>clipitem-109</linkclipref>
													<mediatype>video</mediatype>
													<trackindex>1</trackindex>
													<clipindex>1</clipindex>
												</link>
												<link>
													<linkclipref>clipitem-110</linkclipref>
													<mediatype>audio</mediatype>
													<trackindex>1</trackindex>
													<clipindex>1</clipindex>
													<groupindex>1</groupindex>
												</link>
												<link>
													<linkclipref>clipitem-111</linkclipref>
													<mediatype>audio</mediatype>
													<trackindex>2</trackindex>
													<clipindex>1</clipindex>
													<groupindex>1</groupindex>
												</link>
											</clipitem>
										</track>
									</audio>
								</media>
								<logginginfo>
									<description></description>
									<scene></scene>
									<shottake></shottake>
									<lognote></lognote>
									<good></good>
									<originalvideofilename></originalvideofilename>
									<originalaudiofilename></originalaudiofilename>
								</logginginfo>
								<colorinfo>
									<lut></lut>
									<lut1></lut1>
									<asc_sop></asc_sop>
									<asc_sat></asc_sat>
									<lut2></lut2>
								</colorinfo>
								<labels>
									<label2>Iris</label2>
								</labels>
							</clip>
							<clip id="masterclip-38" explodedTracks="true">
								<uuid>d898bd04-e711-403b-8685-fc4635315304</uuid>
								<masterclipid>masterclip-38</masterclipid>
								<ismasterclip>TRUE</ismasterclip>
								<duration>500</duration>
								<rate>
									<timebase>25</timebase>
									<ntsc>FALSE</ntsc>
								</rate>
								<in>0</in>
								<out>500</out>
								<name>190511_016.WAV</name>
								<media>
									<video>
										<track>
											<clipitem id="clipitem-112">
												<masterclipid>masterclip-38</masterclipid>
												<name>190511_016.WAV</name>
												<rate>
													<timebase>25</timebase>
													<ntsc>FALSE</ntsc>
												</rate>
												<alphatype>none</alphatype>
												<pixelaspectratio>square</pixelaspectratio>
												<anamorphic>FALSE</anamorphic>
												<file id="file-38">
													<name>190511_016.WAV</name>
													<pathurl>file://localhost/Q%3a/Projects/PRODIGAL_SON/MEDIA/190511_D01/AUDIO/PM/190511/190511_016.WAV</pathurl>
													<rate>
														<timebase>25</timebase>
														<ntsc>FALSE</ntsc>
													</rate>
													<duration>500</duration>
													<timecode>
														<rate>
															<timebase>25</timebase>
															<ntsc>FALSE</ntsc>
														</rate>
														<string>00:00:00:00</string>
														<frame>0</frame>
														<displayformat>NDF</displayformat>
													</timecode>
													<media>
														<video>
															<samplecharacteristics>
																<rate>
																	<timebase>25</timebase>
																	<ntsc>FALSE</ntsc>
																</rate>
																<width>720</width>
																<height>480</height>
																<anamorphic>FALSE</anamorphic>
																<pixelaspectratio>square</pixelaspectratio>
																<fielddominance>none</fielddominance>
															</samplecharacteristics>
														</video>
														<audio>
															<samplecharacteristics>
																<depth>16</depth>
																<samplerate>48000</samplerate>
															</samplecharacteristics>
															<channelcount>2</channelcount>
														</audio>
													</media>
												</file>
												<link>
													<linkclipref>clipitem-112</linkclipref>
													<mediatype>video</mediatype>
													<trackindex>1</trackindex>
													<clipindex>1</clipindex>
												</link>
												<link>
													<linkclipref>clipitem-113</linkclipref>
													<mediatype>audio</mediatype>
													<trackindex>1</trackindex>
													<clipindex>1</clipindex>
													<groupindex>1</groupindex>
												</link>
												<link>
													<linkclipref>clipitem-114</linkclipref>
													<mediatype>audio</mediatype>
													<trackindex>2</trackindex>
													<clipindex>1</clipindex>
													<groupindex>1</groupindex>
												</link>
											</clipitem>
										</track>
									</video>
									<audio>
										<track>
											<clipitem id="clipitem-113">
												<masterclipid>masterclip-38</masterclipid>
												<name>190511_016.WAV</name>
												<rate>
													<timebase>25</timebase>
													<ntsc>FALSE</ntsc>
												</rate>
												<file id="file-38"/>
												<sourcetrack>
													<mediatype>audio</mediatype>
													<trackindex>1</trackindex>
												</sourcetrack>
												<link>
													<linkclipref>clipitem-112</linkclipref>
													<mediatype>video</mediatype>
													<trackindex>1</trackindex>
													<clipindex>1</clipindex>
												</link>
												<link>
													<linkclipref>clipitem-113</linkclipref>
													<mediatype>audio</mediatype>
													<trackindex>1</trackindex>
													<clipindex>1</clipindex>
													<groupindex>1</groupindex>
												</link>
												<link>
													<linkclipref>clipitem-114</linkclipref>
													<mediatype>audio</mediatype>
													<trackindex>2</trackindex>
													<clipindex>1</clipindex>
													<groupindex>1</groupindex>
												</link>
											</clipitem>
										</track>
										<track>
											<clipitem id="clipitem-114">
												<masterclipid>masterclip-38</masterclipid>
												<name>190511_016.WAV</name>
												<rate>
													<timebase>25</timebase>
													<ntsc>FALSE</ntsc>
												</rate>
												<file id="file-38"/>
												<sourcetrack>
													<mediatype>audio</mediatype>
													<trackindex>2</trackindex>
												</sourcetrack>
												<link>
													<linkclipref>clipitem-112</linkclipref>
													<mediatype>video</mediatype>
													<trackindex>1</trackindex>
													<clipindex>1</clipindex>
												</link>
												<link>
													<linkclipref>clipitem-113</linkclipref>
													<mediatype>audio</mediatype>
													<trackindex>1</trackindex>
													<clipindex>1</clipindex>
													<groupindex>1</groupindex>
												</link>
												<link>
													<linkclipref>clipitem-114</linkclipref>
													<mediatype>audio</mediatype>
													<trackindex>2</trackindex>
													<clipindex>1</clipindex>
													<groupindex>1</groupindex>
												</link>
											</clipitem>
										</track>
									</audio>
								</media>
								<logginginfo>
									<description></description>
									<scene></scene>
									<shottake></shottake>
									<lognote></lognote>
									<good></good>
									<originalvideofilename></originalvideofilename>
									<originalaudiofilename></originalaudiofilename>
								</logginginfo>
								<colorinfo>
									<lut></lut>
									<lut1></lut1>
									<asc_sop></asc_sop>
									<asc_sat></asc_sat>
									<lut2></lut2>
								</colorinfo>
								<labels>
									<label2>Iris</label2>
								</labels>
							</clip>
							<clip id="masterclip-39" explodedTracks="true">
								<uuid>588b77a3-08d4-468f-9538-6f7cd83cd130</uuid>
								<masterclipid>masterclip-39</masterclipid>
								<ismasterclip>TRUE</ismasterclip>
								<duration>975</duration>
								<rate>
									<timebase>25</timebase>
									<ntsc>FALSE</ntsc>
								</rate>
								<in>0</in>
								<out>975</out>
								<name>190511_017.WAV</name>
								<media>
									<video>
										<track>
											<clipitem id="clipitem-115">
												<masterclipid>masterclip-39</masterclipid>
												<name>190511_017.WAV</name>
												<rate>
													<timebase>25</timebase>
													<ntsc>FALSE</ntsc>
												</rate>
												<alphatype>none</alphatype>
												<pixelaspectratio>square</pixelaspectratio>
												<anamorphic>FALSE</anamorphic>
												<file id="file-39">
													<name>190511_017.WAV</name>
													<pathurl>file://localhost/Q%3a/Projects/PRODIGAL_SON/MEDIA/190511_D01/AUDIO/PM/190511/190511_017.WAV</pathurl>
													<rate>
														<timebase>25</timebase>
														<ntsc>FALSE</ntsc>
													</rate>
													<duration>975</duration>
													<timecode>
														<rate>
															<timebase>25</timebase>
															<ntsc>FALSE</ntsc>
														</rate>
														<string>00:00:00:00</string>
														<frame>0</frame>
														<displayformat>NDF</displayformat>
													</timecode>
													<media>
														<video>
															<samplecharacteristics>
																<rate>
																	<timebase>25</timebase>
																	<ntsc>FALSE</ntsc>
																</rate>
																<width>720</width>
																<height>480</height>
																<anamorphic>FALSE</anamorphic>
																<pixelaspectratio>square</pixelaspectratio>
																<fielddominance>none</fielddominance>
															</samplecharacteristics>
														</video>
														<audio>
															<samplecharacteristics>
																<depth>16</depth>
																<samplerate>48000</samplerate>
															</samplecharacteristics>
															<channelcount>2</channelcount>
														</audio>
													</media>
												</file>
												<link>
													<linkclipref>clipitem-115</linkclipref>
													<mediatype>video</mediatype>
													<trackindex>1</trackindex>
													<clipindex>1</clipindex>
												</link>
												<link>
													<linkclipref>clipitem-116</linkclipref>
													<mediatype>audio</mediatype>
													<trackindex>1</trackindex>
													<clipindex>1</clipindex>
													<groupindex>1</groupindex>
												</link>
												<link>
													<linkclipref>clipitem-117</linkclipref>
													<mediatype>audio</mediatype>
													<trackindex>2</trackindex>
													<clipindex>1</clipindex>
													<groupindex>1</groupindex>
												</link>
											</clipitem>
										</track>
									</video>
									<audio>
										<track>
											<clipitem id="clipitem-116">
												<masterclipid>masterclip-39</masterclipid>
												<name>190511_017.WAV</name>
												<rate>
													<timebase>25</timebase>
													<ntsc>FALSE</ntsc>
												</rate>
												<file id="file-39"/>
												<sourcetrack>
													<mediatype>audio</mediatype>
													<trackindex>1</trackindex>
												</sourcetrack>
												<link>
													<linkclipref>clipitem-115</linkclipref>
													<mediatype>video</mediatype>
													<trackindex>1</trackindex>
													<clipindex>1</clipindex>
												</link>
												<link>
													<linkclipref>clipitem-116</linkclipref>
													<mediatype>audio</mediatype>
													<trackindex>1</trackindex>
													<clipindex>1</clipindex>
													<groupindex>1</groupindex>
												</link>
												<link>
													<linkclipref>clipitem-117</linkclipref>
													<mediatype>audio</mediatype>
													<trackindex>2</trackindex>
													<clipindex>1</clipindex>
													<groupindex>1</groupindex>
												</link>
											</clipitem>
										</track>
										<track>
											<clipitem id="clipitem-117">
												<masterclipid>masterclip-39</masterclipid>
												<name>190511_017.WAV</name>
												<rate>
													<timebase>25</timebase>
													<ntsc>FALSE</ntsc>
												</rate>
												<file id="file-39"/>
												<sourcetrack>
													<mediatype>audio</mediatype>
													<trackindex>2</trackindex>
												</sourcetrack>
												<link>
													<linkclipref>clipitem-115</linkclipref>
													<mediatype>video</mediatype>
													<trackindex>1</trackindex>
													<clipindex>1</clipindex>
												</link>
												<link>
													<linkclipref>clipitem-116</linkclipref>
													<mediatype>audio</mediatype>
													<trackindex>1</trackindex>
													<clipindex>1</clipindex>
													<groupindex>1</groupindex>
												</link>
												<link>
													<linkclipref>clipitem-117</linkclipref>
													<mediatype>audio</mediatype>
													<trackindex>2</trackindex>
													<clipindex>1</clipindex>
													<groupindex>1</groupindex>
												</link>
											</clipitem>
										</track>
									</audio>
								</media>
								<logginginfo>
									<description></description>
									<scene></scene>
									<shottake></shottake>
									<lognote></lognote>
									<good></good>
									<originalvideofilename></originalvideofilename>
									<originalaudiofilename></originalaudiofilename>
								</logginginfo>
								<colorinfo>
									<lut></lut>
									<lut1></lut1>
									<asc_sop></asc_sop>
									<asc_sat></asc_sat>
									<lut2></lut2>
								</colorinfo>
								<labels>
									<label2>Iris</label2>
								</labels>
							</clip>
							<clip id="masterclip-40" explodedTracks="true">
								<uuid>816ff3dd-8781-4fda-8108-0b60baeee5e1</uuid>
								<masterclipid>masterclip-40</masterclipid>
								<ismasterclip>TRUE</ismasterclip>
								<duration>2875</duration>
								<rate>
									<timebase>25</timebase>
									<ntsc>FALSE</ntsc>
								</rate>
								<in>0</in>
								<out>2875</out>
								<name>190511_018.WAV</name>
								<media>
									<video>
										<track>
											<clipitem id="clipitem-118">
												<masterclipid>masterclip-40</masterclipid>
												<name>190511_018.WAV</name>
												<rate>
													<timebase>25</timebase>
													<ntsc>FALSE</ntsc>
												</rate>
												<alphatype>none</alphatype>
												<pixelaspectratio>square</pixelaspectratio>
												<anamorphic>FALSE</anamorphic>
												<file id="file-40">
													<name>190511_018.WAV</name>
													<pathurl>file://localhost/Q%3a/Projects/PRODIGAL_SON/MEDIA/190511_D01/AUDIO/PM/190511/190511_018.WAV</pathurl>
													<rate>
														<timebase>25</timebase>
														<ntsc>FALSE</ntsc>
													</rate>
													<duration>2875</duration>
													<timecode>
														<rate>
															<timebase>25</timebase>
															<ntsc>FALSE</ntsc>
														</rate>
														<string>00:00:00:00</string>
														<frame>0</frame>
														<displayformat>NDF</displayformat>
													</timecode>
													<media>
														<video>
															<samplecharacteristics>
																<rate>
																	<timebase>25</timebase>
																	<ntsc>FALSE</ntsc>
																</rate>
																<width>720</width>
																<height>480</height>
																<anamorphic>FALSE</anamorphic>
																<pixelaspectratio>square</pixelaspectratio>
																<fielddominance>none</fielddominance>
															</samplecharacteristics>
														</video>
														<audio>
															<samplecharacteristics>
																<depth>16</depth>
																<samplerate>48000</samplerate>
															</samplecharacteristics>
															<channelcount>2</channelcount>
														</audio>
													</media>
												</file>
												<link>
													<linkclipref>clipitem-118</linkclipref>
													<mediatype>video</mediatype>
													<trackindex>1</trackindex>
													<clipindex>1</clipindex>
												</link>
												<link>
													<linkclipref>clipitem-119</linkclipref>
													<mediatype>audio</mediatype>
													<trackindex>1</trackindex>
													<clipindex>1</clipindex>
													<groupindex>1</groupindex>
												</link>
												<link>
													<linkclipref>clipitem-120</linkclipref>
													<mediatype>audio</mediatype>
													<trackindex>2</trackindex>
													<clipindex>1</clipindex>
													<groupindex>1</groupindex>
												</link>
											</clipitem>
										</track>
									</video>
									<audio>
										<track>
											<clipitem id="clipitem-119">
												<masterclipid>masterclip-40</masterclipid>
												<name>190511_018.WAV</name>
												<rate>
													<timebase>25</timebase>
													<ntsc>FALSE</ntsc>
												</rate>
												<file id="file-40"/>
												<sourcetrack>
													<mediatype>audio</mediatype>
													<trackindex>1</trackindex>
												</sourcetrack>
												<link>
													<linkclipref>clipitem-118</linkclipref>
													<mediatype>video</mediatype>
													<trackindex>1</trackindex>
													<clipindex>1</clipindex>
												</link>
												<link>
													<linkclipref>clipitem-119</linkclipref>
													<mediatype>audio</mediatype>
													<trackindex>1</trackindex>
													<clipindex>1</clipindex>
													<groupindex>1</groupindex>
												</link>
												<link>
													<linkclipref>clipitem-120</linkclipref>
													<mediatype>audio</mediatype>
													<trackindex>2</trackindex>
													<clipindex>1</clipindex>
													<groupindex>1</groupindex>
												</link>
											</clipitem>
										</track>
										<track>
											<clipitem id="clipitem-120">
												<masterclipid>masterclip-40</masterclipid>
												<name>190511_018.WAV</name>
												<rate>
													<timebase>25</timebase>
													<ntsc>FALSE</ntsc>
												</rate>
												<file id="file-40"/>
												<sourcetrack>
													<mediatype>audio</mediatype>
													<trackindex>2</trackindex>
												</sourcetrack>
												<link>
													<linkclipref>clipitem-118</linkclipref>
													<mediatype>video</mediatype>
													<trackindex>1</trackindex>
													<clipindex>1</clipindex>
												</link>
												<link>
													<linkclipref>clipitem-119</linkclipref>
													<mediatype>audio</mediatype>
													<trackindex>1</trackindex>
													<clipindex>1</clipindex>
													<groupindex>1</groupindex>
												</link>
												<link>
													<linkclipref>clipitem-120</linkclipref>
													<mediatype>audio</mediatype>
													<trackindex>2</trackindex>
													<clipindex>1</clipindex>
													<groupindex>1</groupindex>
												</link>
											</clipitem>
										</track>
									</audio>
								</media>
								<logginginfo>
									<description></description>
									<scene></scene>
									<shottake></shottake>
									<lognote></lognote>
									<good></good>
									<originalvideofilename></originalvideofilename>
									<originalaudiofilename></originalaudiofilename>
								</logginginfo>
								<colorinfo>
									<lut></lut>
									<lut1></lut1>
									<asc_sop></asc_sop>
									<asc_sat></asc_sat>
									<lut2></lut2>
								</colorinfo>
								<labels>
									<label2>Iris</label2>
								</labels>
							</clip>
						</children>
					</bin>
					<sequence id="sequence-1" TL.SQAudioVisibleBase="0" TL.SQVideoVisibleBase="0" TL.SQVisibleBaseTime="0" TL.SQAVDividerPosition="0.5" TL.SQHideShyTracks="0" TL.SQHeaderWidth="236" Monitor.ProgramZoomOut="365386775040000" Monitor.ProgramZoomIn="0" TL.SQTimePerPixel="2.2205228758169935" MZ.EditLine="10719475200000" MZ.Sequence.PreviewFrameSizeHeight="1080" MZ.Sequence.PreviewFrameSizeWidth="1678" MZ.Sequence.AudioTimeDisplayFormat="200" MZ.Sequence.PreviewRenderingClassID="1297106761" MZ.Sequence.PreviewRenderingPresetCodec="1297107278" MZ.Sequence.PreviewRenderingPresetPath="EncoderPresets\SequencePreview\d8484cf3-c96c-4622-ab1f-ac1a16e196f9\I-Frame Only MPEG.epr" MZ.Sequence.PreviewUseMaxRenderQuality="false" MZ.Sequence.PreviewUseMaxBitDepth="false" MZ.Sequence.EditingModeGUID="d8484cf3-c96c-4622-ab1f-ac1a16e196f9" MZ.Sequence.VideoTimeDisplayFormat="101" MZ.WorkOutPoint="72272632320000" MZ.WorkInPoint="0" MZ.ZeroPoint="11281612608000000" explodedTracks="true">
						<uuid>b364e95d-6c90-436e-bc54-5e61432bab59</uuid>
						<duration>934629</duration>
						<rate>
							<timebase>25</timebase>
							<ntsc>FALSE</ntsc>
						</rate>
						<name>AUTOSEQ_1</name>
						<media>
							<video>
								<format>
									<samplecharacteristics>
										<rate>
											<timebase>25</timebase>
											<ntsc>FALSE</ntsc>
										</rate>
										<codec>
											<name>Apple ProRes 422</name>
											<appspecificdata>
												<appname>Final Cut Pro</appname>
												<appmanufacturer>Apple Inc.</appmanufacturer>
												<appversion>7.0</appversion>
												<data>
													<qtcodec>
														<codecname>Apple ProRes 422</codecname>
														<codectypename>Apple ProRes 422</codectypename>
														<codectypecode>apcn</codectypecode>
														<codecvendorcode>appl</codecvendorcode>
														<spatialquality>1024</spatialquality>
														<temporalquality>0</temporalquality>
														<keyframerate>0</keyframerate>
														<datarate>0</datarate>
													</qtcodec>
												</data>
											</appspecificdata>
										</codec>
										<width>1678</width>
										<height>1080</height>
										<anamorphic>FALSE</anamorphic>
										<pixelaspectratio>square</pixelaspectratio>
										<fielddominance>none</fielddominance>
										<colordepth>24</colordepth>
									</samplecharacteristics>
								</format>
								<track TL.SQTrackShy="0" TL.SQTrackExpandedHeight="25" TL.SQTrackExpanded="0" MZ.TrackTargeted="1">
									<clipitem id="clipitem-121">
										<masterclipid>masterclip-1</masterclipid>
										<name>T001C001_190510_R6XC.[0771071-0773182].mov</name>
										<enabled>TRUE</enabled>
										<duration>2112</duration>
										<rate>
											<timebase>25</timebase>
											<ntsc>FALSE</ntsc>
										</rate>
										<start>0</start>
										<end>2112</end>
										<in>0</in>
										<out>2112</out>
										<pproTicksIn>0</pproTicksIn>
										<pproTicksOut>21459271680000</pproTicksOut>
										<alphatype>none</alphatype>
										<file id="file-1"/>
										<logginginfo>
											<description></description>
											<scene></scene>
											<shottake></shottake>
											<lognote></lognote>
											<good></good>
											<originalvideofilename></originalvideofilename>
											<originalaudiofilename></originalaudiofilename>
										</logginginfo>
										<colorinfo>
											<lut></lut>
											<lut1></lut1>
											<asc_sop></asc_sop>
											<asc_sat></asc_sat>
											<lut2></lut2>
										</colorinfo>
										<labels>
											<label2>Iris</label2>
										</labels>
									</clipitem>
									<clipitem id="clipitem-122">
										<masterclipid>masterclip-2</masterclipid>
										<name>T001C002_190510_R6XC.[0775552-0777995].mov</name>
										<enabled>TRUE</enabled>
										<duration>2444</duration>
										<rate>
											<timebase>25</timebase>
											<ntsc>FALSE</ntsc>
										</rate>
										<start>4481</start>
										<end>6925</end>
										<in>0</in>
										<out>2444</out>
										<pproTicksIn>0</pproTicksIn>
										<pproTicksOut>24832604160000</pproTicksOut>
										<alphatype>none</alphatype>
										<file id="file-2"/>
										<logginginfo>
											<description></description>
											<scene></scene>
											<shottake></shottake>
											<lognote></lognote>
											<good></good>
											<originalvideofilename></originalvideofilename>
											<originalaudiofilename></originalaudiofilename>
										</logginginfo>
										<colorinfo>
											<lut></lut>
											<lut1></lut1>
											<asc_sop></asc_sop>
											<asc_sat></asc_sat>
											<lut2></lut2>
										</colorinfo>
										<labels>
											<label2>Iris</label2>
										</labels>
									</clipitem>
									<clipitem id="clipitem-123">
										<masterclipid>masterclip-3</masterclipid>
										<name>T001C004_190510_R6XC.[0812500-0814970].mov</name>
										<enabled>TRUE</enabled>
										<duration>2471</duration>
										<rate>
											<timebase>25</timebase>
											<ntsc>FALSE</ntsc>
										</rate>
										<start>41429</start>
										<end>43900</end>
										<in>0</in>
										<out>2471</out>
										<pproTicksIn>0</pproTicksIn>
										<pproTicksOut>25106941440000</pproTicksOut>
										<alphatype>none</alphatype>
										<file id="file-3"/>
										<logginginfo>
											<description></description>
											<scene></scene>
											<shottake></shottake>
											<lognote></lognote>
											<good></good>
											<originalvideofilename></originalvideofilename>
											<originalaudiofilename></originalaudiofilename>
										</logginginfo>
										<colorinfo>
											<lut></lut>
											<lut1></lut1>
											<asc_sop></asc_sop>
											<asc_sat></asc_sat>
											<lut2></lut2>
										</colorinfo>
										<labels>
											<label2>Iris</label2>
										</labels>
									</clipitem>
									<clipitem id="clipitem-124">
										<masterclipid>masterclip-4</masterclipid>
										<name>T001C005_190510_R6XC.[0844782-0846615].mov</name>
										<enabled>TRUE</enabled>
										<duration>1834</duration>
										<rate>
											<timebase>25</timebase>
											<ntsc>FALSE</ntsc>
										</rate>
										<start>73711</start>
										<end>75545</end>
										<in>0</in>
										<out>1834</out>
										<pproTicksIn>0</pproTicksIn>
										<pproTicksOut>18634613760000</pproTicksOut>
										<alphatype>none</alphatype>
										<file id="file-4"/>
										<logginginfo>
											<description></description>
											<scene></scene>
											<shottake></shottake>
											<lognote></lognote>
											<good></good>
											<originalvideofilename></originalvideofilename>
											<originalaudiofilename></originalaudiofilename>
										</logginginfo>
										<colorinfo>
											<lut></lut>
											<lut1></lut1>
											<asc_sop></asc_sop>
											<asc_sat></asc_sat>
											<lut2></lut2>
										</colorinfo>
										<labels>
											<label2>Iris</label2>
										</labels>
									</clipitem>
									<clipitem id="clipitem-125">
										<masterclipid>masterclip-5</masterclipid>
										<name>T001C006_190510_R6XC.[0945567-0954891].mov</name>
										<enabled>TRUE</enabled>
										<duration>9325</duration>
										<rate>
											<timebase>25</timebase>
											<ntsc>FALSE</ntsc>
										</rate>
										<start>174496</start>
										<end>183821</end>
										<in>0</in>
										<out>9325</out>
										<pproTicksIn>0</pproTicksIn>
										<pproTicksOut>94747968000000</pproTicksOut>
										<alphatype>none</alphatype>
										<file id="file-5"/>
										<logginginfo>
											<description></description>
											<scene></scene>
											<shottake></shottake>
											<lognote></lognote>
											<good></good>
											<originalvideofilename></originalvideofilename>
											<originalaudiofilename></originalaudiofilename>
										</logginginfo>
										<colorinfo>
											<lut></lut>
											<lut1></lut1>
											<asc_sop></asc_sop>
											<asc_sat></asc_sat>
											<lut2></lut2>
										</colorinfo>
										<labels>
											<label2>Iris</label2>
										</labels>
									</clipitem>
									<clipitem id="clipitem-126">
										<masterclipid>masterclip-6</masterclipid>
										<name>T001C007_190511_R6XC.[0975322-0977760].mov</name>
										<enabled>TRUE</enabled>
										<duration>2439</duration>
										<rate>
											<timebase>25</timebase>
											<ntsc>FALSE</ntsc>
										</rate>
										<start>204251</start>
										<end>206690</end>
										<in>0</in>
										<out>2439</out>
										<pproTicksIn>0</pproTicksIn>
										<pproTicksOut>24781800960000</pproTicksOut>
										<alphatype>none</alphatype>
										<file id="file-6"/>
										<logginginfo>
											<description></description>
											<scene></scene>
											<shottake></shottake>
											<lognote></lognote>
											<good></good>
											<originalvideofilename></originalvideofilename>
											<originalaudiofilename></originalaudiofilename>
										</logginginfo>
										<colorinfo>
											<lut></lut>
											<lut1></lut1>
											<asc_sop></asc_sop>
											<asc_sat></asc_sat>
											<lut2></lut2>
										</colorinfo>
										<labels>
											<label2>Iris</label2>
										</labels>
									</clipitem>
									<clipitem id="clipitem-127">
										<masterclipid>masterclip-7</masterclipid>
										<name>T001C008_190511_R6XC.[0998481-0999978].mov</name>
										<enabled>TRUE</enabled>
										<duration>1498</duration>
										<rate>
											<timebase>25</timebase>
											<ntsc>FALSE</ntsc>
										</rate>
										<start>227410</start>
										<end>228908</end>
										<in>0</in>
										<out>1498</out>
										<pproTicksIn>0</pproTicksIn>
										<pproTicksOut>15220638720000</pproTicksOut>
										<alphatype>none</alphatype>
										<file id="file-7"/>
										<logginginfo>
											<description></description>
											<scene></scene>
											<shottake></shottake>
											<lognote></lognote>
											<good></good>
											<originalvideofilename></originalvideofilename>
											<originalaudiofilename></originalaudiofilename>
										</logginginfo>
										<colorinfo>
											<lut></lut>
											<lut1></lut1>
											<asc_sop></asc_sop>
											<asc_sat></asc_sat>
											<lut2></lut2>
										</colorinfo>
										<labels>
											<label2>Iris</label2>
										</labels>
									</clipitem>
									<clipitem id="clipitem-128">
										<masterclipid>masterclip-8</masterclipid>
										<name>T001C009_190511_R6XC.[1020697-1022390].mov</name>
										<enabled>TRUE</enabled>
										<duration>1694</duration>
										<rate>
											<timebase>25</timebase>
											<ntsc>FALSE</ntsc>
										</rate>
										<start>249626</start>
										<end>251320</end>
										<in>0</in>
										<out>1694</out>
										<pproTicksIn>0</pproTicksIn>
										<pproTicksOut>17212124160000</pproTicksOut>
										<alphatype>none</alphatype>
										<file id="file-8"/>
										<logginginfo>
											<description></description>
											<scene></scene>
											<shottake></shottake>
											<lognote></lognote>
											<good></good>
											<originalvideofilename></originalvideofilename>
											<originalaudiofilename></originalaudiofilename>
										</logginginfo>
										<colorinfo>
											<lut></lut>
											<lut1></lut1>
											<asc_sop></asc_sop>
											<asc_sat></asc_sat>
											<lut2></lut2>
										</colorinfo>
										<labels>
											<label2>Iris</label2>
										</labels>
									</clipitem>
									<clipitem id="clipitem-129">
										<masterclipid>masterclip-9</masterclipid>
										<name>T001C010_190511_R6XC.[1043405-1045094].mov</name>
										<enabled>TRUE</enabled>
										<duration>1690</duration>
										<rate>
											<timebase>25</timebase>
											<ntsc>FALSE</ntsc>
										</rate>
										<start>272334</start>
										<end>274024</end>
										<in>0</in>
										<out>1690</out>
										<pproTicksIn>0</pproTicksIn>
										<pproTicksOut>17171481600000</pproTicksOut>
										<alphatype>none</alphatype>
										<file id="file-9"/>
										<logginginfo>
											<description></description>
											<scene></scene>
											<shottake></shottake>
											<lognote></lognote>
											<good></good>
											<originalvideofilename></originalvideofilename>
											<originalaudiofilename></originalaudiofilename>
										</logginginfo>
										<colorinfo>
											<lut></lut>
											<lut1></lut1>
											<asc_sop></asc_sop>
											<asc_sat></asc_sat>
											<lut2></lut2>
										</colorinfo>
										<labels>
											<label2>Iris</label2>
										</labels>
									</clipitem>
									<clipitem id="clipitem-130">
										<masterclipid>masterclip-10</masterclipid>
										<name>190511_001.WAV</name>
										<enabled>TRUE</enabled>
										<duration>3200</duration>
										<rate>
											<timebase>25</timebase>
											<ntsc>FALSE</ntsc>
										</rate>
										<start>458579</start>
										<end>461779</end>
										<in>0</in>
										<out>3200</out>
										<pproTicksIn>0</pproTicksIn>
										<pproTicksOut>32514048000000</pproTicksOut>
										<alphatype>none</alphatype>
										<file id="file-10"/>
										<logginginfo>
											<description></description>
											<scene></scene>
											<shottake></shottake>
											<lognote></lognote>
											<good></good>
											<originalvideofilename></originalvideofilename>
											<originalaudiofilename></originalaudiofilename>
										</logginginfo>
										<colorinfo>
											<lut></lut>
											<lut1></lut1>
											<asc_sop></asc_sop>
											<asc_sat></asc_sat>
											<lut2></lut2>
										</colorinfo>
										<labels>
											<label2>Iris</label2>
										</labels>
									</clipitem>
									<clipitem id="clipitem-131">
										<masterclipid>masterclip-11</masterclipid>
										<name>A002C001_190511_R6XC.[1230177-1232759].mov</name>
										<enabled>TRUE</enabled>
										<duration>2583</duration>
										<rate>
											<timebase>25</timebase>
											<ntsc>FALSE</ntsc>
										</rate>
										<start>459106</start>
										<end>461689</end>
										<in>0</in>
										<out>2583</out>
										<pproTicksIn>0</pproTicksIn>
										<pproTicksOut>26244933120000</pproTicksOut>
										<alphatype>none</alphatype>
										<file id="file-11"/>
										<logginginfo>
											<description></description>
											<scene></scene>
											<shottake></shottake>
											<lognote></lognote>
											<good></good>
											<originalvideofilename></originalvideofilename>
											<originalaudiofilename></originalaudiofilename>
										</logginginfo>
										<colorinfo>
											<lut></lut>
											<lut1></lut1>
											<asc_sop></asc_sop>
											<asc_sat></asc_sat>
											<lut2></lut2>
										</colorinfo>
										<labels>
											<label2>Iris</label2>
										</labels>
									</clipitem>
									<clipitem id="clipitem-132">
										<masterclipid>masterclip-12</masterclipid>
										<name>190511_002.WAV</name>
										<enabled>TRUE</enabled>
										<duration>1500</duration>
										<rate>
											<timebase>25</timebase>
											<ntsc>FALSE</ntsc>
										</rate>
										<start>466829</start>
										<end>468329</end>
										<in>0</in>
										<out>1500</out>
										<pproTicksIn>0</pproTicksIn>
										<pproTicksOut>15240960000000</pproTicksOut>
										<alphatype>none</alphatype>
										<file id="file-12"/>
										<logginginfo>
											<description></description>
											<scene></scene>
											<shottake></shottake>
											<lognote></lognote>
											<good></good>
											<originalvideofilename></originalvideofilename>
											<originalaudiofilename></originalaudiofilename>
										</logginginfo>
										<colorinfo>
											<lut></lut>
											<lut1></lut1>
											<asc_sop></asc_sop>
											<asc_sat></asc_sat>
											<lut2></lut2>
										</colorinfo>
										<labels>
											<label2>Iris</label2>
										</labels>
									</clipitem>
									<clipitem id="clipitem-133">
										<masterclipid>masterclip-13</masterclipid>
										<name>A002C002_190511_R6XC.[1238357-1239433].mov</name>
										<enabled>TRUE</enabled>
										<duration>1077</duration>
										<rate>
											<timebase>25</timebase>
											<ntsc>FALSE</ntsc>
										</rate>
										<start>467286</start>
										<end>468363</end>
										<in>0</in>
										<out>1077</out>
										<pproTicksIn>0</pproTicksIn>
										<pproTicksOut>10943009280000</pproTicksOut>
										<alphatype>none</alphatype>
										<file id="file-13"/>
										<logginginfo>
											<description></description>
											<scene></scene>
											<shottake></shottake>
											<lognote></lognote>
											<good></good>
											<originalvideofilename></originalvideofilename>
											<originalaudiofilename></originalaudiofilename>
										</logginginfo>
										<colorinfo>
											<lut></lut>
											<lut1></lut1>
											<asc_sop></asc_sop>
											<asc_sat></asc_sat>
											<lut2></lut2>
										</colorinfo>
										<labels>
											<label2>Iris</label2>
										</labels>
									</clipitem>
									<clipitem id="clipitem-134">
										<masterclipid>masterclip-14</masterclipid>
										<name>190511_003.WAV</name>
										<enabled>TRUE</enabled>
										<duration>3275</duration>
										<rate>
											<timebase>25</timebase>
											<ntsc>FALSE</ntsc>
										</rate>
										<start>469529</start>
										<end>472804</end>
										<in>0</in>
										<out>3275</out>
										<pproTicksIn>0</pproTicksIn>
										<pproTicksOut>33276096000000</pproTicksOut>
										<alphatype>none</alphatype>
										<file id="file-14"/>
										<logginginfo>
											<description></description>
											<scene></scene>
											<shottake></shottake>
											<lognote></lognote>
											<good></good>
											<originalvideofilename></originalvideofilename>
											<originalaudiofilename></originalaudiofilename>
										</logginginfo>
										<colorinfo>
											<lut></lut>
											<lut1></lut1>
											<asc_sop></asc_sop>
											<asc_sat></asc_sat>
											<lut2></lut2>
										</colorinfo>
										<labels>
											<label2>Iris</label2>
										</labels>
									</clipitem>
									<clipitem id="clipitem-135">
										<masterclipid>masterclip-15</masterclipid>
										<name>A002C003_190511_R6XC.[1240863-1243708].mov</name>
										<enabled>TRUE</enabled>
										<duration>2846</duration>
										<rate>
											<timebase>25</timebase>
											<ntsc>FALSE</ntsc>
										</rate>
										<start>469792</start>
										<end>472638</end>
										<in>0</in>
										<out>2846</out>
										<pproTicksIn>0</pproTicksIn>
										<pproTicksOut>28917181440000</pproTicksOut>
										<alphatype>none</alphatype>
										<file id="file-15"/>
										<logginginfo>
											<description></description>
											<scene></scene>
											<shottake></shottake>
											<lognote></lognote>
											<good></good>
											<originalvideofilename></originalvideofilename>
											<originalaudiofilename></originalaudiofilename>
										</logginginfo>
										<colorinfo>
											<lut></lut>
											<lut1></lut1>
											<asc_sop></asc_sop>
											<asc_sat></asc_sat>
											<lut2></lut2>
										</colorinfo>
										<labels>
											<label2>Iris</label2>
										</labels>
									</clipitem>
									<clipitem id="clipitem-136">
										<masterclipid>masterclip-16</masterclipid>
										<name>190511_004.WAV</name>
										<enabled>TRUE</enabled>
										<duration>3975</duration>
										<rate>
											<timebase>25</timebase>
											<ntsc>FALSE</ntsc>
										</rate>
										<start>474229</start>
										<end>478204</end>
										<in>0</in>
										<out>3975</out>
										<pproTicksIn>0</pproTicksIn>
										<pproTicksOut>40388544000000</pproTicksOut>
										<alphatype>none</alphatype>
										<file id="file-16"/>
										<logginginfo>
											<description></description>
											<scene></scene>
											<shottake></shottake>
											<lognote></lognote>
											<good></good>
											<originalvideofilename></originalvideofilename>
											<originalaudiofilename></originalaudiofilename>
										</logginginfo>
										<colorinfo>
											<lut></lut>
											<lut1></lut1>
											<asc_sop></asc_sop>
											<asc_sat></asc_sat>
											<lut2></lut2>
										</colorinfo>
										<labels>
											<label2>Iris</label2>
										</labels>
									</clipitem>
									<clipitem id="clipitem-137">
										<masterclipid>masterclip-17</masterclipid>
										<name>A002C004_190511_R6XC.[1245536-1249161].mov</name>
										<enabled>TRUE</enabled>
										<duration>3626</duration>
										<rate>
											<timebase>25</timebase>
											<ntsc>FALSE</ntsc>
										</rate>
										<start>474465</start>
										<end>478091</end>
										<in>0</in>
										<out>3626</out>
										<pproTicksIn>0</pproTicksIn>
										<pproTicksOut>36842480640000</pproTicksOut>
										<alphatype>none</alphatype>
										<file id="file-17"/>
										<logginginfo>
											<description></description>
											<scene></scene>
											<shottake></shottake>
											<lognote></lognote>
											<good></good>
											<originalvideofilename></originalvideofilename>
											<originalaudiofilename></originalaudiofilename>
										</logginginfo>
										<colorinfo>
											<lut></lut>
											<lut1></lut1>
											<asc_sop></asc_sop>
											<asc_sat></asc_sat>
											<lut2></lut2>
										</colorinfo>
										<labels>
											<label2>Iris</label2>
										</labels>
									</clipitem>
									<clipitem id="clipitem-138">
										<masterclipid>masterclip-18</masterclipid>
										<name>190511_005.WAV</name>
										<enabled>TRUE</enabled>
										<duration>3375</duration>
										<rate>
											<timebase>25</timebase>
											<ntsc>FALSE</ntsc>
										</rate>
										<start>480854</start>
										<end>484229</end>
										<in>0</in>
										<out>3375</out>
										<pproTicksIn>0</pproTicksIn>
										<pproTicksOut>34292160000000</pproTicksOut>
										<alphatype>none</alphatype>
										<file id="file-18"/>
										<logginginfo>
											<description></description>
											<scene></scene>
											<shottake></shottake>
											<lognote></lognote>
											<good></good>
											<originalvideofilename></originalvideofilename>
											<originalaudiofilename></originalaudiofilename>
										</logginginfo>
										<colorinfo>
											<lut></lut>
											<lut1></lut1>
											<asc_sop></asc_sop>
											<asc_sat></asc_sat>
											<lut2></lut2>
										</colorinfo>
										<labels>
											<label2>Iris</label2>
										</labels>
									</clipitem>
									<clipitem id="clipitem-139">
										<masterclipid>masterclip-19</masterclipid>
										<name>A002C005_190511_R6XC.[1252221-1255242].mov</name>
										<enabled>TRUE</enabled>
										<duration>3022</duration>
										<rate>
											<timebase>25</timebase>
											<ntsc>FALSE</ntsc>
										</rate>
										<start>481150</start>
										<end>484172</end>
										<in>0</in>
										<out>3022</out>
										<pproTicksIn>0</pproTicksIn>
										<pproTicksOut>30705454080000</pproTicksOut>
										<alphatype>none</alphatype>
										<file id="file-19"/>
										<logginginfo>
											<description></description>
											<scene></scene>
											<shottake></shottake>
											<lognote></lognote>
											<good></good>
											<originalvideofilename></originalvideofilename>
											<originalaudiofilename></originalaudiofilename>
										</logginginfo>
										<colorinfo>
											<lut></lut>
											<lut1></lut1>
											<asc_sop></asc_sop>
											<asc_sat></asc_sat>
											<lut2></lut2>
										</colorinfo>
										<labels>
											<label2>Iris</label2>
										</labels>
									</clipitem>
									<clipitem id="clipitem-140">
										<masterclipid>masterclip-20</masterclipid>
										<name>190511_006.WAV</name>
										<enabled>TRUE</enabled>
										<duration>2900</duration>
										<rate>
											<timebase>25</timebase>
											<ntsc>FALSE</ntsc>
										</rate>
										<start>509454</start>
										<end>512354</end>
										<in>0</in>
										<out>2900</out>
										<pproTicksIn>0</pproTicksIn>
										<pproTicksOut>29465856000000</pproTicksOut>
										<alphatype>none</alphatype>
										<file id="file-20"/>
										<logginginfo>
											<description></description>
											<scene></scene>
											<shottake></shottake>
											<lognote></lognote>
											<good></good>
											<originalvideofilename></originalvideofilename>
											<originalaudiofilename></originalaudiofilename>
										</logginginfo>
										<colorinfo>
											<lut></lut>
											<lut1></lut1>
											<asc_sop></asc_sop>
											<asc_sat></asc_sat>
											<lut2></lut2>
										</colorinfo>
										<labels>
											<label2>Iris</label2>
										</labels>
									</clipitem>
									<clipitem id="clipitem-141">
										<masterclipid>masterclip-21</masterclipid>
										<name>A002C006_190511_R6XC.[1280886-1283330].mov</name>
										<enabled>TRUE</enabled>
										<duration>2445</duration>
										<rate>
											<timebase>25</timebase>
											<ntsc>FALSE</ntsc>
										</rate>
										<start>509815</start>
										<end>512260</end>
										<in>0</in>
										<out>2445</out>
										<pproTicksIn>0</pproTicksIn>
										<pproTicksOut>24842764800000</pproTicksOut>
										<alphatype>none</alphatype>
										<file id="file-21"/>
										<logginginfo>
											<description></description>
											<scene></scene>
											<shottake></shottake>
											<lognote></lognote>
											<good></good>
											<originalvideofilename></originalvideofilename>
											<originalaudiofilename></originalaudiofilename>
										</logginginfo>
										<colorinfo>
											<lut></lut>
											<lut1></lut1>
											<asc_sop></asc_sop>
											<asc_sat></asc_sat>
											<lut2></lut2>
										</colorinfo>
										<labels>
											<label2>Iris</label2>
										</labels>
									</clipitem>
									<clipitem id="clipitem-142">
										<masterclipid>masterclip-22</masterclipid>
										<name>190511_007.WAV</name>
										<enabled>TRUE</enabled>
										<duration>2100</duration>
										<rate>
											<timebase>25</timebase>
											<ntsc>FALSE</ntsc>
										</rate>
										<start>513154</start>
										<end>515254</end>
										<in>0</in>
										<out>2100</out>
										<pproTicksIn>0</pproTicksIn>
										<pproTicksOut>21337344000000</pproTicksOut>
										<alphatype>none</alphatype>
										<file id="file-22"/>
										<logginginfo>
											<description></description>
											<scene></scene>
											<shottake></shottake>
											<lognote></lognote>
											<good></good>
											<originalvideofilename></originalvideofilename>
											<originalaudiofilename></originalaudiofilename>
										</logginginfo>
										<colorinfo>
											<lut></lut>
											<lut1></lut1>
											<asc_sop></asc_sop>
											<asc_sat></asc_sat>
											<lut2></lut2>
										</colorinfo>
										<labels>
											<label2>Iris</label2>
										</labels>
									</clipitem>
									<clipitem id="clipitem-143">
										<masterclipid>masterclip-23</masterclipid>
										<name>A002C007_190511_R6XC.[1284452-1286174].mov</name>
										<enabled>TRUE</enabled>
										<duration>1723</duration>
										<rate>
											<timebase>25</timebase>
											<ntsc>FALSE</ntsc>
										</rate>
										<start>513381</start>
										<end>515104</end>
										<in>0</in>
										<out>1723</out>
										<pproTicksIn>0</pproTicksIn>
										<pproTicksOut>17506782720000</pproTicksOut>
										<alphatype>none</alphatype>
										<file id="file-23"/>
										<logginginfo>
											<description></description>
											<scene></scene>
											<shottake></shottake>
											<lognote></lognote>
											<good></good>
											<originalvideofilename></originalvideofilename>
											<originalaudiofilename></originalaudiofilename>
										</logginginfo>
										<colorinfo>
											<lut></lut>
											<lut1></lut1>
											<asc_sop></asc_sop>
											<asc_sat></asc_sat>
											<lut2></lut2>
										</colorinfo>
										<labels>
											<label2>Iris</label2>
										</labels>
									</clipitem>
									<clipitem id="clipitem-144">
										<masterclipid>masterclip-24</masterclipid>
										<name>190511_008.WAV</name>
										<enabled>TRUE</enabled>
										<duration>4775</duration>
										<rate>
											<timebase>25</timebase>
											<ntsc>FALSE</ntsc>
										</rate>
										<start>768929</start>
										<end>773704</end>
										<in>0</in>
										<out>4775</out>
										<pproTicksIn>0</pproTicksIn>
										<pproTicksOut>48517056000000</pproTicksOut>
										<alphatype>none</alphatype>
										<file id="file-24"/>
										<logginginfo>
											<description></description>
											<scene></scene>
											<shottake></shottake>
											<lognote></lognote>
											<good></good>
											<originalvideofilename></originalvideofilename>
											<originalaudiofilename></originalaudiofilename>
										</logginginfo>
										<colorinfo>
											<lut></lut>
											<lut1></lut1>
											<asc_sop></asc_sop>
											<asc_sat></asc_sat>
											<lut2></lut2>
										</colorinfo>
										<labels>
											<label2>Iris</label2>
										</labels>
									</clipitem>
									<clipitem id="clipitem-145">
										<masterclipid>masterclip-25</masterclipid>
										<name>A003C001_190511_R6XC.[1540211-1544727].mov</name>
										<enabled>TRUE</enabled>
										<duration>4517</duration>
										<rate>
											<timebase>25</timebase>
											<ntsc>FALSE</ntsc>
										</rate>
										<start>769140</start>
										<end>773657</end>
										<in>0</in>
										<out>4517</out>
										<pproTicksIn>0</pproTicksIn>
										<pproTicksOut>45895610880000</pproTicksOut>
										<alphatype>none</alphatype>
										<file id="file-25"/>
										<logginginfo>
											<description></description>
											<scene></scene>
											<shottake></shottake>
											<lognote></lognote>
											<good></good>
											<originalvideofilename></originalvideofilename>
											<originalaudiofilename></originalaudiofilename>
										</logginginfo>
										<colorinfo>
											<lut></lut>
											<lut1></lut1>
											<asc_sop></asc_sop>
											<asc_sat></asc_sat>
											<lut2></lut2>
										</colorinfo>
										<labels>
											<label2>Iris</label2>
										</labels>
									</clipitem>
									<clipitem id="clipitem-146">
										<masterclipid>masterclip-26</masterclipid>
										<name>190511_009.WAV</name>
										<enabled>TRUE</enabled>
										<duration>4175</duration>
										<rate>
											<timebase>25</timebase>
											<ntsc>FALSE</ntsc>
										</rate>
										<start>791304</start>
										<end>795479</end>
										<in>0</in>
										<out>4175</out>
										<pproTicksIn>0</pproTicksIn>
										<pproTicksOut>42420672000000</pproTicksOut>
										<alphatype>none</alphatype>
										<file id="file-26"/>
										<logginginfo>
											<description></description>
											<scene></scene>
											<shottake></shottake>
											<lognote></lognote>
											<good></good>
											<originalvideofilename></originalvideofilename>
											<originalaudiofilename></originalaudiofilename>
										</logginginfo>
										<colorinfo>
											<lut></lut>
											<lut1></lut1>
											<asc_sop></asc_sop>
											<asc_sat></asc_sat>
											<lut2></lut2>
										</colorinfo>
										<labels>
											<label2>Iris</label2>
										</labels>
									</clipitem>
									<clipitem id="clipitem-147">
										<masterclipid>masterclip-27</masterclipid>
										<name>A003C002_190511_R6XC.[1562614-1566466].mov</name>
										<enabled>TRUE</enabled>
										<duration>3853</duration>
										<rate>
											<timebase>25</timebase>
											<ntsc>FALSE</ntsc>
										</rate>
										<start>791543</start>
										<end>795396</end>
										<in>0</in>
										<out>3853</out>
										<pproTicksIn>0</pproTicksIn>
										<pproTicksOut>39148945920000</pproTicksOut>
										<alphatype>none</alphatype>
										<file id="file-27"/>
										<logginginfo>
											<description></description>
											<scene></scene>
											<shottake></shottake>
											<lognote></lognote>
											<good></good>
											<originalvideofilename></originalvideofilename>
											<originalaudiofilename></originalaudiofilename>
										</logginginfo>
										<colorinfo>
											<lut></lut>
											<lut1></lut1>
											<asc_sop></asc_sop>
											<asc_sat></asc_sat>
											<lut2></lut2>
										</colorinfo>
										<labels>
											<label2>Iris</label2>
										</labels>
									</clipitem>
									<clipitem id="clipitem-148">
										<masterclipid>masterclip-28</masterclipid>
										<name>190511_010.WAV</name>
										<enabled>TRUE</enabled>
										<duration>4400</duration>
										<rate>
											<timebase>25</timebase>
											<ntsc>FALSE</ntsc>
										</rate>
										<start>801029</start>
										<end>805429</end>
										<in>0</in>
										<out>4400</out>
										<pproTicksIn>0</pproTicksIn>
										<pproTicksOut>44706816000000</pproTicksOut>
										<alphatype>none</alphatype>
										<file id="file-28"/>
										<logginginfo>
											<description></description>
											<scene></scene>
											<shottake></shottake>
											<lognote></lognote>
											<good></good>
											<originalvideofilename></originalvideofilename>
											<originalaudiofilename></originalaudiofilename>
										</logginginfo>
										<colorinfo>
											<lut></lut>
											<lut1></lut1>
											<asc_sop></asc_sop>
											<asc_sat></asc_sat>
											<lut2></lut2>
										</colorinfo>
										<labels>
											<label2>Iris</label2>
										</labels>
									</clipitem>
									<clipitem id="clipitem-149">
										<masterclipid>masterclip-29</masterclipid>
										<name>A003C003_190511_R6XC.[1572393-1580542].mov</name>
										<enabled>TRUE</enabled>
										<duration>8150</duration>
										<rate>
											<timebase>25</timebase>
											<ntsc>FALSE</ntsc>
										</rate>
										<start>801322</start>
										<end>809472</end>
										<in>0</in>
										<out>8150</out>
										<pproTicksIn>0</pproTicksIn>
										<pproTicksOut>82809216000000</pproTicksOut>
										<alphatype>none</alphatype>
										<file id="file-29"/>
										<logginginfo>
											<description></description>
											<scene></scene>
											<shottake></shottake>
											<lognote></lognote>
											<good></good>
											<originalvideofilename></originalvideofilename>
											<originalaudiofilename></originalaudiofilename>
										</logginginfo>
										<colorinfo>
											<lut></lut>
											<lut1></lut1>
											<asc_sop></asc_sop>
											<asc_sat></asc_sat>
											<lut2></lut2>
										</colorinfo>
										<labels>
											<label2>Iris</label2>
										</labels>
									</clipitem>
									<clipitem id="clipitem-150">
										<masterclipid>masterclip-30</masterclipid>
										<name>190511_011.WAV</name>
										<enabled>TRUE</enabled>
										<duration>5275</duration>
										<rate>
											<timebase>25</timebase>
											<ntsc>FALSE</ntsc>
										</rate>
										<start>811079</start>
										<end>816354</end>
										<in>0</in>
										<out>5275</out>
										<pproTicksIn>0</pproTicksIn>
										<pproTicksOut>53597376000000</pproTicksOut>
										<alphatype>none</alphatype>
										<file id="file-30"/>
										<logginginfo>
											<description></description>
											<scene></scene>
											<shottake></shottake>
											<lognote></lognote>
											<good></good>
											<originalvideofilename></originalvideofilename>
											<originalaudiofilename></originalaudiofilename>
										</logginginfo>
										<colorinfo>
											<lut></lut>
											<lut1></lut1>
											<asc_sop></asc_sop>
											<asc_sat></asc_sat>
											<lut2></lut2>
										</colorinfo>
										<labels>
											<label2>Iris</label2>
										</labels>
									</clipitem>
									<clipitem id="clipitem-151">
										<masterclipid>masterclip-31</masterclipid>
										<name>A003C004_190511_R6XC.[1582384-1587340].mov</name>
										<enabled>TRUE</enabled>
										<duration>4957</duration>
										<rate>
											<timebase>25</timebase>
											<ntsc>FALSE</ntsc>
										</rate>
										<start>811313</start>
										<end>816270</end>
										<in>0</in>
										<out>4957</out>
										<pproTicksIn>0</pproTicksIn>
										<pproTicksOut>50366292480000</pproTicksOut>
										<alphatype>none</alphatype>
										<file id="file-31"/>
										<logginginfo>
											<description></description>
											<scene></scene>
											<shottake></shottake>
											<lognote></lognote>
											<good></good>
											<originalvideofilename></originalvideofilename>
											<originalaudiofilename></originalaudiofilename>
										</logginginfo>
										<colorinfo>
											<lut></lut>
											<lut1></lut1>
											<asc_sop></asc_sop>
											<asc_sat></asc_sat>
											<lut2></lut2>
										</colorinfo>
										<labels>
											<label2>Iris</label2>
										</labels>
									</clipitem>
									<clipitem id="clipitem-152">
										<masterclipid>masterclip-32</masterclipid>
										<name>190511_012.WAV</name>
										<enabled>TRUE</enabled>
										<duration>3575</duration>
										<rate>
											<timebase>25</timebase>
											<ntsc>FALSE</ntsc>
										</rate>
										<start>909629</start>
										<end>913204</end>
										<in>0</in>
										<out>3575</out>
										<pproTicksIn>0</pproTicksIn>
										<pproTicksOut>36324288000000</pproTicksOut>
										<alphatype>none</alphatype>
										<file id="file-32"/>
										<logginginfo>
											<description></description>
											<scene></scene>
											<shottake></shottake>
											<lognote></lognote>
											<good></good>
											<originalvideofilename></originalvideofilename>
											<originalaudiofilename></originalaudiofilename>
										</logginginfo>
										<colorinfo>
											<lut></lut>
											<lut1></lut1>
											<asc_sop></asc_sop>
											<asc_sat></asc_sat>
											<lut2></lut2>
										</colorinfo>
										<labels>
											<label2>Iris</label2>
										</labels>
									</clipitem>
									<clipitem id="clipitem-153">
										<masterclipid>masterclip-33</masterclipid>
										<name>A003C005_190511_R6XC.[1680865-1684154].mov</name>
										<enabled>TRUE</enabled>
										<duration>3290</duration>
										<rate>
											<timebase>25</timebase>
											<ntsc>FALSE</ntsc>
										</rate>
										<start>909794</start>
										<end>913084</end>
										<in>0</in>
										<out>3290</out>
										<pproTicksIn>0</pproTicksIn>
										<pproTicksOut>33428505600000</pproTicksOut>
										<alphatype>none</alphatype>
										<file id="file-33"/>
										<logginginfo>
											<description></description>
											<scene></scene>
											<shottake></shottake>
											<lognote></lognote>
											<good></good>
											<originalvideofilename></originalvideofilename>
											<originalaudiofilename></originalaudiofilename>
										</logginginfo>
										<colorinfo>
											<lut></lut>
											<lut1></lut1>
											<asc_sop></asc_sop>
											<asc_sat></asc_sat>
											<lut2></lut2>
										</colorinfo>
										<labels>
											<label2>Iris</label2>
										</labels>
									</clipitem>
									<clipitem id="clipitem-154">
										<masterclipid>masterclip-34</masterclipid>
										<name>190511_013.WAV</name>
										<enabled>TRUE</enabled>
										<duration>4100</duration>
										<rate>
											<timebase>25</timebase>
											<ntsc>FALSE</ntsc>
										</rate>
										<start>916379</start>
										<end>920479</end>
										<in>0</in>
										<out>4100</out>
										<pproTicksIn>0</pproTicksIn>
										<pproTicksOut>41658624000000</pproTicksOut>
										<alphatype>none</alphatype>
										<file id="file-34"/>
										<logginginfo>
											<description></description>
											<scene></scene>
											<shottake></shottake>
											<lognote></lognote>
											<good></good>
											<originalvideofilename></originalvideofilename>
											<originalaudiofilename></originalaudiofilename>
										</logginginfo>
										<colorinfo>
											<lut></lut>
											<lut1></lut1>
											<asc_sop></asc_sop>
											<asc_sat></asc_sat>
											<lut2></lut2>
										</colorinfo>
										<labels>
											<label2>Iris</label2>
										</labels>
									</clipitem>
									<clipitem id="clipitem-155">
										<masterclipid>masterclip-35</masterclipid>
										<name>A003C006_190511_R6XC.[1687928-1691424].mov</name>
										<enabled>TRUE</enabled>
										<duration>3497</duration>
										<rate>
											<timebase>25</timebase>
											<ntsc>FALSE</ntsc>
										</rate>
										<start>916857</start>
										<end>920354</end>
										<in>0</in>
										<out>3497</out>
										<pproTicksIn>0</pproTicksIn>
										<pproTicksOut>35531758080000</pproTicksOut>
										<alphatype>none</alphatype>
										<file id="file-35"/>
										<logginginfo>
											<description></description>
											<scene></scene>
											<shottake></shottake>
											<lognote></lognote>
											<good></good>
											<originalvideofilename></originalvideofilename>
											<originalaudiofilename></originalaudiofilename>
										</logginginfo>
										<colorinfo>
											<lut></lut>
											<lut1></lut1>
											<asc_sop></asc_sop>
											<asc_sat></asc_sat>
											<lut2></lut2>
										</colorinfo>
										<labels>
											<label2>Iris</label2>
										</labels>
									</clipitem>
									<clipitem id="clipitem-156">
										<masterclipid>masterclip-36</masterclipid>
										<name>190511_014.WAV</name>
										<enabled>TRUE</enabled>
										<duration>2375</duration>
										<rate>
											<timebase>25</timebase>
											<ntsc>FALSE</ntsc>
										</rate>
										<start>923554</start>
										<end>925929</end>
										<in>0</in>
										<out>2375</out>
										<pproTicksIn>0</pproTicksIn>
										<pproTicksOut>24131520000000</pproTicksOut>
										<alphatype>none</alphatype>
										<file id="file-36"/>
										<logginginfo>
											<description></description>
											<scene></scene>
											<shottake></shottake>
											<lognote></lognote>
											<good></good>
											<originalvideofilename></originalvideofilename>
											<originalaudiofilename></originalaudiofilename>
										</logginginfo>
										<colorinfo>
											<lut></lut>
											<lut1></lut1>
											<asc_sop></asc_sop>
											<asc_sat></asc_sat>
											<lut2></lut2>
										</colorinfo>
										<labels>
											<label2>Iris</label2>
										</labels>
									</clipitem>
									<clipitem id="clipitem-157">
										<masterclipid>masterclip-37</masterclipid>
										<name>190511_015.WAV</name>
										<enabled>TRUE</enabled>
										<duration>1700</duration>
										<rate>
											<timebase>25</timebase>
											<ntsc>FALSE</ntsc>
										</rate>
										<start>926604</start>
										<end>928304</end>
										<in>0</in>
										<out>1700</out>
										<pproTicksIn>0</pproTicksIn>
										<pproTicksOut>17273088000000</pproTicksOut>
										<alphatype>none</alphatype>
										<file id="file-37"/>
										<logginginfo>
											<description></description>
											<scene></scene>
											<shottake></shottake>
											<lognote></lognote>
											<good></good>
											<originalvideofilename></originalvideofilename>
											<originalaudiofilename></originalaudiofilename>
										</logginginfo>
										<colorinfo>
											<lut></lut>
											<lut1></lut1>
											<asc_sop></asc_sop>
											<asc_sat></asc_sat>
											<lut2></lut2>
										</colorinfo>
										<labels>
											<label2>Iris</label2>
										</labels>
									</clipitem>
									<clipitem id="clipitem-158">
										<masterclipid>masterclip-38</masterclipid>
										<name>190511_016.WAV</name>
										<enabled>TRUE</enabled>
										<duration>500</duration>
										<rate>
											<timebase>25</timebase>
											<ntsc>FALSE</ntsc>
										</rate>
										<start>929104</start>
										<end>929604</end>
										<in>0</in>
										<out>500</out>
										<pproTicksIn>0</pproTicksIn>
										<pproTicksOut>5080320000000</pproTicksOut>
										<alphatype>none</alphatype>
										<file id="file-38"/>
										<logginginfo>
											<description></description>
											<scene></scene>
											<shottake></shottake>
											<lognote></lognote>
											<good></good>
											<originalvideofilename></originalvideofilename>
											<originalaudiofilename></originalaudiofilename>
										</logginginfo>
										<colorinfo>
											<lut></lut>
											<lut1></lut1>
											<asc_sop></asc_sop>
											<asc_sat></asc_sat>
											<lut2></lut2>
										</colorinfo>
										<labels>
											<label2>Iris</label2>
										</labels>
									</clipitem>
									<clipitem id="clipitem-159">
										<masterclipid>masterclip-39</masterclipid>
										<name>190511_017.WAV</name>
										<enabled>TRUE</enabled>
										<duration>975</duration>
										<rate>
											<timebase>25</timebase>
											<ntsc>FALSE</ntsc>
										</rate>
										<start>929704</start>
										<end>930679</end>
										<in>0</in>
										<out>975</out>
										<pproTicksIn>0</pproTicksIn>
										<pproTicksOut>9906624000000</pproTicksOut>
										<alphatype>none</alphatype>
										<file id="file-39"/>
										<logginginfo>
											<description></description>
											<scene></scene>
											<shottake></shottake>
											<lognote></lognote>
											<good></good>
											<originalvideofilename></originalvideofilename>
											<originalaudiofilename></originalaudiofilename>
										</logginginfo>
										<colorinfo>
											<lut></lut>
											<lut1></lut1>
											<asc_sop></asc_sop>
											<asc_sat></asc_sat>
											<lut2></lut2>
										</colorinfo>
										<labels>
											<label2>Iris</label2>
										</labels>
									</clipitem>
									<clipitem id="clipitem-160">
										<masterclipid>masterclip-40</masterclipid>
										<name>190511_018.WAV</name>
										<enabled>TRUE</enabled>
										<duration>2875</duration>
										<rate>
											<timebase>25</timebase>
											<ntsc>FALSE</ntsc>
										</rate>
										<start>931754</start>
										<end>934629</end>
										<in>0</in>
										<out>2875</out>
										<pproTicksIn>0</pproTicksIn>
										<pproTicksOut>29211840000000</pproTicksOut>
										<alphatype>none</alphatype>
										<file id="file-40"/>
										<logginginfo>
											<description></description>
											<scene></scene>
											<shottake></shottake>
											<lognote></lognote>
											<good></good>
											<originalvideofilename></originalvideofilename>
											<originalaudiofilename></originalaudiofilename>
										</logginginfo>
										<colorinfo>
											<lut></lut>
											<lut1></lut1>
											<asc_sop></asc_sop>
											<asc_sat></asc_sat>
											<lut2></lut2>
										</colorinfo>
										<labels>
											<label2>Iris</label2>
										</labels>
									</clipitem>
									<enabled>TRUE</enabled>
									<locked>FALSE</locked>
								</track>
							</video>
							<audio>
								<numOutputChannels>2</numOutputChannels>
								<format>
									<samplecharacteristics>
										<depth>16</depth>
										<samplerate>48000</samplerate>
									</samplecharacteristics>
								</format>
								<outputs>
									<group>
										<index>1</index>
										<numchannels>1</numchannels>
										<downmix>0</downmix>
										<channel>
											<index>1</index>
										</channel>
									</group>
									<group>
										<index>2</index>
										<numchannels>1</numchannels>
										<downmix>0</downmix>
										<channel>
											<index>2</index>
										</channel>
									</group>
								</outputs>
								<track TL.SQTrackAudioKeyframeStyle="0" TL.SQTrackShy="0" TL.SQTrackExpandedHeight="25" TL.SQTrackExpanded="0" MZ.TrackTargeted="1" PannerCurrentValue="0.5" PannerStartKeyframe="-91445760000000000,0.5,0,0,0,0,0,0" PannerName="Balance" currentExplodedTrackIndex="0" totalExplodedTrackCount="2" premiereTrackType="Stereo">
									<enabled>TRUE</enabled>
									<locked>FALSE</locked>
									<outputchannelindex>1</outputchannelindex>
								</track>
								<track TL.SQTrackAudioKeyframeStyle="0" TL.SQTrackShy="0" TL.SQTrackExpandedHeight="25" TL.SQTrackExpanded="0" MZ.TrackTargeted="1" PannerCurrentValue="0.5" PannerStartKeyframe="-91445760000000000,0.5,0,0,0,0,0,0" PannerName="Balance" currentExplodedTrackIndex="1" totalExplodedTrackCount="2" premiereTrackType="Stereo">
									<enabled>TRUE</enabled>
									<locked>FALSE</locked>
									<outputchannelindex>2</outputchannelindex>
								</track>
							</audio>
						</media>
						<timecode>
							<rate>
								<timebase>25</timebase>
								<ntsc>FALSE</ntsc>
							</rate>
							<string>12:20:13:00</string>
							<frame>1110325</frame>
							<displayformat>NDF</displayformat>
						</timecode>
						<labels>
							<label2>Forest</label2>
						</labels>
						<logginginfo>
							<description></description>
							<scene></scene>
							<shottake></shottake>
							<lognote></lognote>
							<good></good>
							<originalvideofilename></originalvideofilename>
							<originalaudiofilename></originalaudiofilename>
						</logginginfo>
					</sequence>
				</children>
			</bin>
			<clip id="masterclip-41" explodedTracks="true">
				<uuid>856ee980-ac95-4c8e-a931-974c2d3045f2</uuid>
				<masterclipid>masterclip-41</masterclipid>
				<ismasterclip>TRUE</ismasterclip>
				<duration>2583</duration>
				<rate>
					<timebase>25</timebase>
					<ntsc>FALSE</ntsc>
				</rate>
				<name>A002C001_190511_R6XC.[1230177-1232759].mov</name>
				<media>
					<video>
						<track>
							<clipitem id="clipitem-161">
								<masterclipid>masterclip-41</masterclipid>
								<name>A002C001_190511_R6XC.[1230177-1232759].mov</name>
								<rate>
									<timebase>25</timebase>
									<ntsc>FALSE</ntsc>
								</rate>
								<alphatype>none</alphatype>
								<pixelaspectratio>square</pixelaspectratio>
								<anamorphic>FALSE</anamorphic>
								<file id="file-41">
									<name>A002C001_190511_R6XC.[1230177-1232759].mov</name>
									<pathurl>file://localhost/Q%3a/Projects/PRODIGAL_SON/MEDIA_TRANS/190511_D01/A002C001_190511_R6XC.[1230177-1232759].mov</pathurl>
									<rate>
										<timebase>25</timebase>
										<ntsc>FALSE</ntsc>
									</rate>
									<duration>2583</duration>
									<timecode>
										<rate>
											<timebase>25</timebase>
											<ntsc>FALSE</ntsc>
										</rate>
										<string>13:40:07:02</string>
										<frame>1230177</frame>
										<displayformat>NDF</displayformat>
										<reel>
											<name>A002R6XC</name>
										</reel>
									</timecode>
									<media>
										<video>
											<samplecharacteristics>
												<rate>
													<timebase>25</timebase>
													<ntsc>FALSE</ntsc>
												</rate>
												<width>1678</width>
												<height>1080</height>
												<anamorphic>FALSE</anamorphic>
												<pixelaspectratio>square</pixelaspectratio>
												<fielddominance>none</fielddominance>
											</samplecharacteristics>
										</video>
									</media>
								</file>
							</clipitem>
						</track>
					</video>
				</media>
					<marker>
						<comment></comment>
						<name></name>
						<in>318</in>
						<out>-1</out>
						<pproColor>4281828977</pproColor>
					</marker>
					<marker>
						<comment></comment>
						<name></name>
						<in>2499</in>
						<out>-1</out>
						<pproColor>4281740498</pproColor>
					</marker>
				<logginginfo>
					<description></description>
					<scene></scene>
					<shottake></shottake>
					<lognote></lognote>
					<good></good>
					<originalvideofilename></originalvideofilename>
					<originalaudiofilename></originalaudiofilename>
				</logginginfo>
				<colorinfo>
					<lut></lut>
					<lut1></lut1>
					<asc_sop></asc_sop>
					<asc_sat></asc_sat>
					<lut2></lut2>
				</colorinfo>
				<labels>
					<label2>Violet</label2>
				</labels>
			</clip>
		</children>
	</project>
</xmeml>
