<?xml version="1.0" encoding="UTF-8"?>
<!DOCTYPE xmeml>
<xmeml version="4">
	<project>
		<name>test_ideal_1</name><?xml version="1.0" encoding="UTF-8"?>
<!DOCTYPE xmeml>
<xmeml version="4">
	<project>
		<name>test_ideal_1</name>
		<children>
			<bin>
				<name>BIN_VIDEO</name>
				<labels>
					<label2>Mango</label2>
				</labels>
				<children>
					<clip id="masterclip-43" explodedTracks="true">
						<uuid>69798999-d7c9-49f5-b918-e45f0ec4afe1</uuid>
						<masterclipid>masterclip-43</masterclipid>
						<ismasterclip>TRUE</ismasterclip>
						<duration>2583</duration>
						<rate>
							<timebase>25</timebase>
							<ntsc>FALSE</ntsc>
						</rate>
						<name>A002C001_190511_R6XC.[1230177-1232759].mov</name>
						<media>
							<video>
								<track>
									<clipitem id="clipitem-166">
										<masterclipid>masterclip-43</masterclipid>
										<name>A002C001_190511_R6XC.[1230177-1232759].mov</name>
										<rate>
											<timebase>25</timebase>
											<ntsc>FALSE</ntsc>
										</rate>
										<alphatype>none</alphatype>
										<pixelaspectratio>square</pixelaspectratio>
										<anamorphic>FALSE</anamorphic>
										<file id="file-43">
											<name>A002C001_190511_R6XC.[1230177-1232759].mov</name>
											<pathurl>file://localhost/Q%3a/Projects/PRODIGAL_SON/MEDIA_TRANS/190511_D01/A002C001_190511_R6XC.[1230177-1232759].mov</pathurl>
											<rate>
												<timebase>25</timebase>
												<ntsc>FALSE</ntsc>
											</rate>
											<duration>2583</duration>
											<timecode>
												<rate>
													<timebase>25</timebase>
													<ntsc>FALSE</ntsc>
												</rate>
												<string>13:40:07:02</string>
												<frame>1230177</frame>
												<displayformat>NDF</displayformat>
												<reel>
													<name>A002R6XC</name>
												</reel>
											</timecode>
											<media>
												<video>
													<samplecharacteristics>
														<rate>
															<timebase>25</timebase>
															<ntsc>FALSE</ntsc>
														</rate>
														<width>1678</width>
														<height>1080</height>
														<anamorphic>FALSE</anamorphic>
														<pixelaspectratio>square</pixelaspectratio>
														<fielddominance>none</fielddominance>
													</samplecharacteristics>
												</video>
											</media>
										</file>
									</clipitem>
								</track>
							</video>
						</media>
							<marker>
								<comment></comment>
								<name></name>
								<in>318</in>
								<out>-1</out>
								<pproColor>4281828977</pproColor>
							</marker>
							<marker>
								<comment></comment>
								<name></name>
								<in>2499</in>
								<out>-1</out>
								<pproColor>4281740498</pproColor>
							</marker>
						<logginginfo>
							<description></description>
							<scene></scene>
							<shottake></shottake>
							<lognote></lognote>
							<good></good>
							<originalvideofilename></originalvideofilename>
							<originalaudiofilename></originalaudiofilename>
						</logginginfo>
						<colorinfo>
							<lut></lut>
							<lut1></lut1>
							<asc_sop></asc_sop>
							<asc_sat></asc_sat>
							<lut2></lut2>
						</colorinfo>
						<labels>
							<label2>Violet</label2>
						</labels>
					</clip>
					<clip id="masterclip-44" explodedTracks="true">
						<uuid>5998baec-d657-49bf-849a-7d800b2f7de6</uuid>
						<masterclipid>masterclip-44</masterclipid>
						<ismasterclip>TRUE</ismasterclip>
						<duration>1077</duration>
						<rate>
							<timebase>25</timebase>
							<ntsc>FALSE</ntsc>
						</rate>
						<name>A002C002_190511_R6XC.[1238357-1239433].mov</name>
						<media>
							<video>
								<track>
									<clipitem id="clipitem-167">
										<masterclipid>masterclip-44</masterclipid>
										<name>A002C002_190511_R6XC.[1238357-1239433].mov</name>
										<rate>
											<timebase>25</timebase>
											<ntsc>FALSE</ntsc>
										</rate>
										<alphatype>none</alphatype>
										<pixelaspectratio>square</pixelaspectratio>
										<anamorphic>FALSE</anamorphic>
										<file id="file-44">
											<name>A002C002_190511_R6XC.[1238357-1239433].mov</name>
											<pathurl>file://localhost/Q%3a/Projects/PRODIGAL_SON/MEDIA_TRANS/190511_D01/A002C002_190511_R6XC.[1238357-1239433].mov</pathurl>
											<rate>
												<timebase>25</timebase>
												<ntsc>FALSE</ntsc>
											</rate>
											<duration>1077</duration>
											<timecode>
												<rate>
													<timebase>25</timebase>
													<ntsc>FALSE</ntsc>
												</rate>
												<string>13:45:34:07</string>
												<frame>1238357</frame>
												<displayformat>NDF</displayformat>
												<reel>
													<name>A002R6XC</name>
												</reel>
											</timecode>
											<media>
												<video>
													<samplecharacteristics>
														<rate>
															<timebase>25</timebase>
															<ntsc>FALSE</ntsc>
														</rate>
														<width>1678</width>
														<height>1080</height>
														<anamorphic>FALSE</anamorphic>
														<pixelaspectratio>square</pixelaspectratio>
														<fielddominance>none</fielddominance>
													</samplecharacteristics>
												</video>
											</media>
										</file>
									</clipitem>
								</track>
							</video>
						</media>
							<marker>
								<comment></comment>
								<name></name>
								<in>269</in>
								<out>-1</out>
							</marker>
						<logginginfo>
							<description></description>
							<scene></scene>
							<shottake></shottake>
							<lognote></lognote>
							<good></good>
							<originalvideofilename></originalvideofilename>
							<originalaudiofilename></originalaudiofilename>
						</logginginfo>
						<colorinfo>
							<lut></lut>
							<lut1></lut1>
							<asc_sop></asc_sop>
							<asc_sat></asc_sat>
							<lut2></lut2>
						</colorinfo>
						<labels>
							<label2>Violet</label2>
						</labels>
					</clip>
					<clip id="masterclip-45" explodedTracks="true">
						<uuid>2e9454c0-ccd1-4c4b-8981-fac1ed187fd5</uuid>
						<masterclipid>masterclip-45</masterclipid>
						<ismasterclip>TRUE</ismasterclip>
						<duration>2846</duration>
						<rate>
							<timebase>25</timebase>
							<ntsc>FALSE</ntsc>
						</rate>
						<name>A002C003_190511_R6XC.[1240863-1243708].mov</name>
						<media>
							<video>
								<track>
									<clipitem id="clipitem-168">
										<masterclipid>masterclip-45</masterclipid>
										<name>A002C003_190511_R6XC.[1240863-1243708].mov</name>
										<rate>
											<timebase>25</timebase>
											<ntsc>FALSE</ntsc>
										</rate>
										<alphatype>none</alphatype>
										<pixelaspectratio>square</pixelaspectratio>
										<anamorphic>FALSE</anamorphic>
										<file id="file-45">
											<name>A002C003_190511_R6XC.[1240863-1243708].mov</name>
											<pathurl>file://localhost/Q%3a/Projects/PRODIGAL_SON/MEDIA_TRANS/190511_D01/A002C003_190511_R6XC.[1240863-1243708].mov</pathurl>
											<rate>
												<timebase>25</timebase>
												<ntsc>FALSE</ntsc>
											</rate>
											<duration>2846</duration>
											<timecode>
												<rate>
													<timebase>25</timebase>
													<ntsc>FALSE</ntsc>
												</rate>
												<string>13:47:14:13</string>
												<frame>1240863</frame>
												<displayformat>NDF</displayformat>
												<reel>
													<name>A002R6XC</name>
												</reel>
											</timecode>
											<media>
												<video>
													<samplecharacteristics>
														<rate>
															<timebase>25</timebase>
															<ntsc>FALSE</ntsc>
														</rate>
														<width>1678</width>
														<height>1080</height>
														<anamorphic>FALSE</anamorphic>
														<pixelaspectratio>square</pixelaspectratio>
														<fielddominance>none</fielddominance>
													</samplecharacteristics>
												</video>
											</media>
										</file>
									</clipitem>
								</track>
							</video>
						</media>
						<logginginfo>
							<description></description>
							<scene></scene>
							<shottake></shottake>
							<lognote></lognote>
							<good></good>
							<originalvideofilename></originalvideofilename>
							<originalaudiofilename></originalaudiofilename>
						</logginginfo>
						<colorinfo>
							<lut></lut>
							<lut1></lut1>
							<asc_sop></asc_sop>
							<asc_sat></asc_sat>
							<lut2></lut2>
						</colorinfo>
						<labels>
							<label2>Violet</label2>
						</labels>
					</clip>
					<clip id="masterclip-46" explodedTracks="true">
						<uuid>b3bf18e6-571f-4b41-a9b1-7a28292bbda9</uuid>
						<masterclipid>masterclip-46</masterclipid>
						<ismasterclip>TRUE</ismasterclip>
						<duration>3626</duration>
						<rate>
							<timebase>25</timebase>
							<ntsc>FALSE</ntsc>
						</rate>
						<name>A002C004_190511_R6XC.[1245536-1249161].mov</name>
						<media>
							<video>
								<track>
									<clipitem id="clipitem-169">
										<masterclipid>masterclip-46</masterclipid>
										<name>A002C004_190511_R6XC.[1245536-1249161].mov</name>
										<rate>
											<timebase>25</timebase>
											<ntsc>FALSE</ntsc>
										</rate>
										<alphatype>none</alphatype>
										<pixelaspectratio>square</pixelaspectratio>
										<anamorphic>FALSE</anamorphic>
										<file id="file-46">
											<name>A002C004_190511_R6XC.[1245536-1249161].mov</name>
											<pathurl>file://localhost/Q%3a/Projects/PRODIGAL_SON/MEDIA_TRANS/190511_D01/A002C004_190511_R6XC.[1245536-1249161].mov</pathurl>
											<rate>
												<timebase>25</timebase>
												<ntsc>FALSE</ntsc>
											</rate>
											<duration>3626</duration>
											<timecode>
												<rate>
													<timebase>25</timebase>
													<ntsc>FALSE</ntsc>
												</rate>
												<string>13:50:21:11</string>
												<frame>1245536</frame>
												<displayformat>NDF</displayformat>
												<reel>
													<name>A002R6XC</name>
												</reel>
											</timecode>
											<media>
												<video>
													<samplecharacteristics>
														<rate>
															<timebase>25</timebase>
															<ntsc>FALSE</ntsc>
														</rate>
														<width>1678</width>
														<height>1080</height>
														<anamorphic>FALSE</anamorphic>
														<pixelaspectratio>square</pixelaspectratio>
														<fielddominance>none</fielddominance>
													</samplecharacteristics>
												</video>
											</media>
										</file>
									</clipitem>
								</track>
							</video>
						</media>
						<logginginfo>
							<description></description>
							<scene></scene>
							<shottake></shottake>
							<lognote></lognote>
							<good></good>
							<originalvideofilename></originalvideofilename>
							<originalaudiofilename></originalaudiofilename>
						</logginginfo>
						<colorinfo>
							<lut></lut>
							<lut1></lut1>
							<asc_sop></asc_sop>
							<asc_sat></asc_sat>
							<lut2></lut2>
						</colorinfo>
						<labels>
							<label2>Violet</label2>
						</labels>
					</clip>
					<clip id="masterclip-47" explodedTracks="true">
						<uuid>9235a5ce-ae68-47c8-ad2f-16434aac1e08</uuid>
						<masterclipid>masterclip-47</masterclipid>
						<ismasterclip>TRUE</ismasterclip>
						<duration>3022</duration>
						<rate>
							<timebase>25</timebase>
							<ntsc>FALSE</ntsc>
						</rate>
						<name>A002C005_190511_R6XC.[1252221-1255242].mov</name>
						<media>
							<video>
								<track>
									<clipitem id="clipitem-170">
										<masterclipid>masterclip-47</masterclipid>
										<name>A002C005_190511_R6XC.[1252221-1255242].mov</name>
										<rate>
											<timebase>25</timebase>
											<ntsc>FALSE</ntsc>
										</rate>
										<alphatype>none</alphatype>
										<pixelaspectratio>square</pixelaspectratio>
										<anamorphic>FALSE</anamorphic>
										<file id="file-47">
											<name>A002C005_190511_R6XC.[1252221-1255242].mov</name>
											<pathurl>file://localhost/Q%3a/Projects/PRODIGAL_SON/MEDIA_TRANS/190511_D01/A002C005_190511_R6XC.[1252221-1255242].mov</pathurl>
											<rate>
												<timebase>25</timebase>
												<ntsc>FALSE</ntsc>
											</rate>
											<duration>3022</duration>
											<timecode>
												<rate>
													<timebase>25</timebase>
													<ntsc>FALSE</ntsc>
												</rate>
												<string>13:54:48:21</string>
												<frame>1252221</frame>
												<displayformat>NDF</displayformat>
												<reel>
													<name>A002R6XC</name>
												</reel>
											</timecode>
											<media>
												<video>
													<samplecharacteristics>
														<rate>
															<timebase>25</timebase>
															<ntsc>FALSE</ntsc>
														</rate>
														<width>1678</width>
														<height>1080</height>
														<anamorphic>FALSE</anamorphic>
														<pixelaspectratio>square</pixelaspectratio>
														<fielddominance>none</fielddominance>
													</samplecharacteristics>
												</video>
											</media>
										</file>
									</clipitem>
								</track>
							</video>
						</media>
						<logginginfo>
							<description></description>
							<scene></scene>
							<shottake></shottake>
							<lognote></lognote>
							<good></good>
							<originalvideofilename></originalvideofilename>
							<originalaudiofilename></originalaudiofilename>
						</logginginfo>
						<colorinfo>
							<lut></lut>
							<lut1></lut1>
							<asc_sop></asc_sop>
							<asc_sat></asc_sat>
							<lut2></lut2>
						</colorinfo>
						<labels>
							<label2>Violet</label2>
						</labels>
					</clip>
					<clip id="masterclip-48" explodedTracks="true">
						<uuid>78c2f055-bd62-4a4e-85fe-aea7160ab735</uuid>
						<masterclipid>masterclip-48</masterclipid>
						<ismasterclip>TRUE</ismasterclip>
						<duration>2445</duration>
						<rate>
							<timebase>25</timebase>
							<ntsc>FALSE</ntsc>
						</rate>
						<name>A002C006_190511_R6XC.[1280886-1283330].mov</name>
						<media>
							<video>
								<track>
									<clipitem id="clipitem-171">
										<masterclipid>masterclip-48</masterclipid>
										<name>A002C006_190511_R6XC.[1280886-1283330].mov</name>
										<rate>
											<timebase>25</timebase>
											<ntsc>FALSE</ntsc>
										</rate>
										<alphatype>none</alphatype>
										<pixelaspectratio>square</pixelaspectratio>
										<anamorphic>FALSE</anamorphic>
										<file id="file-48">
											<name>A002C006_190511_R6XC.[1280886-1283330].mov</name>
											<pathurl>file://localhost/Q%3a/Projects/PRODIGAL_SON/MEDIA_TRANS/190511_D01/A002C006_190511_R6XC.[1280886-1283330].mov</pathurl>
											<rate>
												<timebase>25</timebase>
												<ntsc>FALSE</ntsc>
											</rate>
											<duration>2445</duration>
											<timecode>
												<rate>
													<timebase>25</timebase>
													<ntsc>FALSE</ntsc>
												</rate>
												<string>14:13:55:11</string>
												<frame>1280886</frame>
												<displayformat>NDF</displayformat>
												<reel>
													<name>A002R6XC</name>
												</reel>
											</timecode>
											<media>
												<video>
													<samplecharacteristics>
														<rate>
															<timebase>25</timebase>
															<ntsc>FALSE</ntsc>
														</rate>
														<width>1678</width>
														<height>1080</height>
														<anamorphic>FALSE</anamorphic>
														<pixelaspectratio>square</pixelaspectratio>
														<fielddominance>none</fielddominance>
													</samplecharacteristics>
												</video>
											</media>
										</file>
									</clipitem>
								</track>
							</video>
						</media>
						<logginginfo>
							<description></description>
							<scene></scene>
							<shottake></shottake>
							<lognote></lognote>
							<good></good>
							<originalvideofilename></originalvideofilename>
							<originalaudiofilename></originalaudiofilename>
						</logginginfo>
						<colorinfo>
							<lut></lut>
							<lut1></lut1>
							<asc_sop></asc_sop>
							<asc_sat></asc_sat>
							<lut2></lut2>
						</colorinfo>
						<labels>
							<label2>Violet</label2>
						</labels>
					</clip>
					<clip id="masterclip-49" explodedTracks="true">
						<uuid>25a0b605-11f8-471e-bbe0-0e040f9ad2ec</uuid>
						<masterclipid>masterclip-49</masterclipid>
						<ismasterclip>TRUE</ismasterclip>
						<duration>1723</duration>
						<rate>
							<timebase>25</timebase>
							<ntsc>FALSE</ntsc>
						</rate>
						<name>A002C007_190511_R6XC.[1284452-1286174].mov</name>
						<media>
							<video>
								<track>
									<clipitem id="clipitem-172">
										<masterclipid>masterclip-49</masterclipid>
										<name>A002C007_190511_R6XC.[1284452-1286174].mov</name>
										<rate>
											<timebase>25</timebase>
											<ntsc>FALSE</ntsc>
										</rate>
										<alphatype>none</alphatype>
										<pixelaspectratio>square</pixelaspectratio>
										<anamorphic>FALSE</anamorphic>
										<file id="file-49">
											<name>A002C007_190511_R6XC.[1284452-1286174].mov</name>
											<pathurl>file://localhost/Q%3a/Projects/PRODIGAL_SON/MEDIA_TRANS/190511_D01/A002C007_190511_R6XC.[1284452-1286174].mov</pathurl>
											<rate>
												<timebase>25</timebase>
												<ntsc>FALSE</ntsc>
											</rate>
											<duration>1723</duration>
											<timecode>
												<rate>
													<timebase>25</timebase>
													<ntsc>FALSE</ntsc>
												</rate>
												<string>14:16:18:02</string>
												<frame>1284452</frame>
												<displayformat>NDF</displayformat>
												<reel>
													<name>A002R6XC</name>
												</reel>
											</timecode>
											<media>
												<video>
													<samplecharacteristics>
														<rate>
															<timebase>25</timebase>
															<ntsc>FALSE</ntsc>
														</rate>
														<width>1678</width>
														<height>1080</height>
														<anamorphic>FALSE</anamorphic>
														<pixelaspectratio>square</pixelaspectratio>
														<fielddominance>none</fielddominance>
													</samplecharacteristics>
												</video>
											</media>
										</file>
									</clipitem>
								</track>
							</video>
						</media>
						<logginginfo>
							<description></description>
							<scene></scene>
							<shottake></shottake>
							<lognote></lognote>
							<good></good>
							<originalvideofilename></originalvideofilename>
							<originalaudiofilename></originalaudiofilename>
						</logginginfo>
						<colorinfo>
							<lut></lut>
							<lut1></lut1>
							<asc_sop></asc_sop>
							<asc_sat></asc_sat>
							<lut2></lut2>
						</colorinfo>
						<labels>
							<label2>Violet</label2>
						</labels>
					</clip>
					<clip id="masterclip-50" explodedTracks="true">
						<uuid>b53a9abc-3109-45c7-8446-7f4623301b15</uuid>
						<masterclipid>masterclip-50</masterclipid>
						<ismasterclip>TRUE</ismasterclip>
						<duration>4517</duration>
						<rate>
							<timebase>25</timebase>
							<ntsc>FALSE</ntsc>
						</rate>
						<name>A003C001_190511_R6XC.[1540211-1544727].mov</name>
						<media>
							<video>
								<track>
									<clipitem id="clipitem-173">
										<masterclipid>masterclip-50</masterclipid>
										<name>A003C001_190511_R6XC.[1540211-1544727].mov</name>
										<rate>
											<timebase>25</timebase>
											<ntsc>FALSE</ntsc>
										</rate>
										<alphatype>none</alphatype>
										<pixelaspectratio>square</pixelaspectratio>
										<anamorphic>FALSE</anamorphic>
										<file id="file-50">
											<name>A003C001_190511_R6XC.[1540211-1544727].mov</name>
											<pathurl>file://localhost/Q%3a/Projects/PRODIGAL_SON/MEDIA_TRANS/190511_D01/A003C001_190511_R6XC.[1540211-1544727].mov</pathurl>
											<rate>
												<timebase>25</timebase>
												<ntsc>FALSE</ntsc>
											</rate>
											<duration>4517</duration>
											<timecode>
												<rate>
													<timebase>25</timebase>
													<ntsc>FALSE</ntsc>
												</rate>
												<string>17:06:48:11</string>
												<frame>1540211</frame>
												<displayformat>NDF</displayformat>
												<reel>
													<name>A003R6XC</name>
												</reel>
											</timecode>
											<media>
												<video>
													<samplecharacteristics>
														<rate>
															<timebase>25</timebase>
															<ntsc>FALSE</ntsc>
														</rate>
														<width>1678</width>
														<height>1080</height>
														<anamorphic>FALSE</anamorphic>
														<pixelaspectratio>square</pixelaspectratio>
														<fielddominance>none</fielddominance>
													</samplecharacteristics>
												</video>
											</media>
										</file>
									</clipitem>
								</track>
							</video>
						</media>
						<logginginfo>
							<description></description>
							<scene></scene>
							<shottake></shottake>
							<lognote></lognote>
							<good></good>
							<originalvideofilename></originalvideofilename>
							<originalaudiofilename></originalaudiofilename>
						</logginginfo>
						<colorinfo>
							<lut></lut>
							<lut1></lut1>
							<asc_sop></asc_sop>
							<asc_sat></asc_sat>
							<lut2></lut2>
						</colorinfo>
						<labels>
							<label2>Violet</label2>
						</labels>
					</clip>
					<clip id="masterclip-51" explodedTracks="true">
						<uuid>5b791289-aa6d-41b8-8119-29e722540f58</uuid>
						<masterclipid>masterclip-51</masterclipid>
						<ismasterclip>TRUE</ismasterclip>
						<duration>3853</duration>
						<rate>
							<timebase>25</timebase>
							<ntsc>FALSE</ntsc>
						</rate>
						<name>A003C002_190511_R6XC.[1562614-1566466].mov</name>
						<media>
							<video>
								<track>
									<clipitem id="clipitem-174">
										<masterclipid>masterclip-51</masterclipid>
										<name>A003C002_190511_R6XC.[1562614-1566466].mov</name>
										<rate>
											<timebase>25</timebase>
											<ntsc>FALSE</ntsc>
										</rate>
										<alphatype>none</alphatype>
										<pixelaspectratio>square</pixelaspectratio>
										<anamorphic>FALSE</anamorphic>
										<file id="file-51">
											<name>A003C002_190511_R6XC.[1562614-1566466].mov</name>
											<pathurl>file://localhost/Q%3a/Projects/PRODIGAL_SON/MEDIA_TRANS/190511_D01/A003C002_190511_R6XC.[1562614-1566466].mov</pathurl>
											<rate>
												<timebase>25</timebase>
												<ntsc>FALSE</ntsc>
											</rate>
											<duration>3853</duration>
											<timecode>
												<rate>
													<timebase>25</timebase>
													<ntsc>FALSE</ntsc>
												</rate>
												<string>17:21:44:14</string>
												<frame>1562614</frame>
												<displayformat>NDF</displayformat>
												<reel>
													<name>A003R6XC</name>
												</reel>
											</timecode>
											<media>
												<video>
													<samplecharacteristics>
														<rate>
															<timebase>25</timebase>
															<ntsc>FALSE</ntsc>
														</rate>
														<width>1678</width>
														<height>1080</height>
														<anamorphic>FALSE</anamorphic>
														<pixelaspectratio>square</pixelaspectratio>
														<fielddominance>none</fielddominance>
													</samplecharacteristics>
												</video>
											</media>
										</file>
									</clipitem>
								</track>
							</video>
						</media>
						<logginginfo>
							<description></description>
							<scene></scene>
							<shottake></shottake>
							<lognote></lognote>
							<good></good>
							<originalvideofilename></originalvideofilename>
							<originalaudiofilename></originalaudiofilename>
						</logginginfo>
						<colorinfo>
							<lut></lut>
							<lut1></lut1>
							<asc_sop></asc_sop>
							<asc_sat></asc_sat>
							<lut2></lut2>
						</colorinfo>
						<labels>
							<label2>Violet</label2>
						</labels>
					</clip>
					<clip id="masterclip-52" explodedTracks="true">
						<uuid>b348f862-6cd7-488c-8b05-45ef54866c5f</uuid>
						<masterclipid>masterclip-52</masterclipid>
						<ismasterclip>TRUE</ismasterclip>
						<duration>8150</duration>
						<rate>
							<timebase>25</timebase>
							<ntsc>FALSE</ntsc>
						</rate>
						<name>A003C003_190511_R6XC.[1572393-1580542].mov</name>
						<media>
							<video>
								<track>
									<clipitem id="clipitem-175">
										<masterclipid>masterclip-52</masterclipid>
										<name>A003C003_190511_R6XC.[1572393-1580542].mov</name>
										<rate>
											<timebase>25</timebase>
											<ntsc>FALSE</ntsc>
										</rate>
										<alphatype>none</alphatype>
										<pixelaspectratio>square</pixelaspectratio>
										<anamorphic>FALSE</anamorphic>
										<file id="file-52">
											<name>A003C003_190511_R6XC.[1572393-1580542].mov</name>
											<pathurl>file://localhost/Q%3a/Projects/PRODIGAL_SON/MEDIA_TRANS/190511_D01/A003C003_190511_R6XC.[1572393-1580542].mov</pathurl>
											<rate>
												<timebase>25</timebase>
												<ntsc>FALSE</ntsc>
											</rate>
											<duration>8150</duration>
											<timecode>
												<rate>
													<timebase>25</timebase>
													<ntsc>FALSE</ntsc>
												</rate>
												<string>17:28:15:18</string>
												<frame>1572393</frame>
												<displayformat>NDF</displayformat>
												<reel>
													<name>A003R6XC</name>
												</reel>
											</timecode>
											<media>
												<video>
													<samplecharacteristics>
														<rate>
															<timebase>25</timebase>
															<ntsc>FALSE</ntsc>
														</rate>
														<width>1678</width>
														<height>1080</height>
														<anamorphic>FALSE</anamorphic>
														<pixelaspectratio>square</pixelaspectratio>
														<fielddominance>none</fielddominance>
													</samplecharacteristics>
												</video>
											</media>
										</file>
									</clipitem>
								</track>
							</video>
						</media>
						<logginginfo>
							<description></description>
							<scene></scene>
							<shottake></shottake>
							<lognote></lognote>
							<good></good>
							<originalvideofilename></originalvideofilename>
							<originalaudiofilename></originalaudiofilename>
						</logginginfo>
						<colorinfo>
							<lut></lut>
							<lut1></lut1>
							<asc_sop></asc_sop>
							<asc_sat></asc_sat>
							<lut2></lut2>
						</colorinfo>
						<labels>
							<label2>Violet</label2>
						</labels>
					</clip>
					<clip id="masterclip-53" explodedTracks="true">
						<uuid>078d0ee6-7de9-4105-95c2-0eab1da9cb66</uuid>
						<masterclipid>masterclip-53</masterclipid>
						<ismasterclip>TRUE</ismasterclip>
						<duration>4957</duration>
						<rate>
							<timebase>25</timebase>
							<ntsc>FALSE</ntsc>
						</rate>
						<name>A003C004_190511_R6XC.[1582384-1587340].mov</name>
						<media>
							<video>
								<track>
									<clipitem id="clipitem-176">
										<masterclipid>masterclip-53</masterclipid>
										<name>A003C004_190511_R6XC.[1582384-1587340].mov</name>
										<rate>
											<timebase>25</timebase>
											<ntsc>FALSE</ntsc>
										</rate>
										<alphatype>none</alphatype>
										<pixelaspectratio>square</pixelaspectratio>
										<anamorphic>FALSE</anamorphic>
										<file id="file-53">
											<name>A003C004_190511_R6XC.[1582384-1587340].mov</name>
											<pathurl>file://localhost/Q%3a/Projects/PRODIGAL_SON/MEDIA_TRANS/190511_D01/A003C004_190511_R6XC.[1582384-1587340].mov</pathurl>
											<rate>
												<timebase>25</timebase>
												<ntsc>FALSE</ntsc>
											</rate>
											<duration>4957</duration>
											<timecode>
												<rate>
													<timebase>25</timebase>
													<ntsc>FALSE</ntsc>
												</rate>
												<string>17:34:55:09</string>
												<frame>1582384</frame>
												<displayformat>NDF</displayformat>
												<reel>
													<name>A003R6XC</name>
												</reel>
											</timecode>
											<media>
												<video>
													<samplecharacteristics>
														<rate>
															<timebase>25</timebase>
															<ntsc>FALSE</ntsc>
														</rate>
														<width>1678</width>
														<height>1080</height>
														<anamorphic>FALSE</anamorphic>
														<pixelaspectratio>square</pixelaspectratio>
														<fielddominance>none</fielddominance>
													</samplecharacteristics>
												</video>
											</media>
										</file>
									</clipitem>
								</track>
							</video>
						</media>
						<logginginfo>
							<description></description>
							<scene></scene>
							<shottake></shottake>
							<lognote></lognote>
							<good></good>
							<originalvideofilename></originalvideofilename>
							<originalaudiofilename></originalaudiofilename>
						</logginginfo>
						<colorinfo>
							<lut></lut>
							<lut1></lut1>
							<asc_sop></asc_sop>
							<asc_sat></asc_sat>
							<lut2></lut2>
						</colorinfo>
						<labels>
							<label2>Violet</label2>
						</labels>
					</clip>
					<clip id="masterclip-54" explodedTracks="true">
						<uuid>2b1b15b2-3e2d-49cc-98a8-476d5774608a</uuid>
						<masterclipid>masterclip-54</masterclipid>
						<ismasterclip>TRUE</ismasterclip>
						<duration>3290</duration>
						<rate>
							<timebase>25</timebase>
							<ntsc>FALSE</ntsc>
						</rate>
						<name>A003C005_190511_R6XC.[1680865-1684154].mov</name>
						<media>
							<video>
								<track>
									<clipitem id="clipitem-177">
										<masterclipid>masterclip-54</masterclipid>
										<name>A003C005_190511_R6XC.[1680865-1684154].mov</name>
										<rate>
											<timebase>25</timebase>
											<ntsc>FALSE</ntsc>
										</rate>
										<alphatype>none</alphatype>
										<pixelaspectratio>square</pixelaspectratio>
										<anamorphic>FALSE</anamorphic>
										<file id="file-54">
											<name>A003C005_190511_R6XC.[1680865-1684154].mov</name>
											<pathurl>file://localhost/Q%3a/Projects/PRODIGAL_SON/MEDIA_TRANS/190511_D01/A003C005_190511_R6XC.[1680865-1684154].mov</pathurl>
											<rate>
												<timebase>25</timebase>
												<ntsc>FALSE</ntsc>
											</rate>
											<duration>3290</duration>
											<timecode>
												<rate>
													<timebase>25</timebase>
													<ntsc>FALSE</ntsc>
												</rate>
												<string>18:40:34:15</string>
												<frame>1680865</frame>
												<displayformat>NDF</displayformat>
												<reel>
													<name>A003R6XC</name>
												</reel>
											</timecode>
											<media>
												<video>
													<samplecharacteristics>
														<rate>
															<timebase>25</timebase>
															<ntsc>FALSE</ntsc>
														</rate>
														<width>1678</width>
														<height>1080</height>
														<anamorphic>FALSE</anamorphic>
														<pixelaspectratio>square</pixelaspectratio>
														<fielddominance>none</fielddominance>
													</samplecharacteristics>
												</video>
											</media>
										</file>
									</clipitem>
								</track>
							</video>
						</media>
						<logginginfo>
							<description></description>
							<scene></scene>
							<shottake></shottake>
							<lognote></lognote>
							<good></good>
							<originalvideofilename></originalvideofilename>
							<originalaudiofilename></originalaudiofilename>
						</logginginfo>
						<colorinfo>
							<lut></lut>
							<lut1></lut1>
							<asc_sop></asc_sop>
							<asc_sat></asc_sat>
							<lut2></lut2>
						</colorinfo>
						<labels>
							<label2>Violet</label2>
						</labels>
					</clip>
					<clip id="masterclip-55" explodedTracks="true">
						<uuid>19694ab4-41a9-4d96-bbe6-2bb4c82d049c</uuid>
						<masterclipid>masterclip-55</masterclipid>
						<ismasterclip>TRUE</ismasterclip>
						<duration>3497</duration>
						<rate>
							<timebase>25</timebase>
							<ntsc>FALSE</ntsc>
						</rate>
						<name>A003C006_190511_R6XC.[1687928-1691424].mov</name>
						<media>
							<video>
								<track>
									<clipitem id="clipitem-178">
										<masterclipid>masterclip-55</masterclipid>
										<name>A003C006_190511_R6XC.[1687928-1691424].mov</name>
										<rate>
											<timebase>25</timebase>
											<ntsc>FALSE</ntsc>
										</rate>
										<alphatype>none</alphatype>
										<pixelaspectratio>square</pixelaspectratio>
										<anamorphic>FALSE</anamorphic>
										<file id="file-55">
											<name>A003C006_190511_R6XC.[1687928-1691424].mov</name>
											<pathurl>file://localhost/Q%3a/Projects/PRODIGAL_SON/MEDIA_TRANS/190511_D01/A003C006_190511_R6XC.[1687928-1691424].mov</pathurl>
											<rate>
												<timebase>25</timebase>
												<ntsc>FALSE</ntsc>
											</rate>
											<duration>3497</duration>
											<timecode>
												<rate>
													<timebase>25</timebase>
													<ntsc>FALSE</ntsc>
												</rate>
												<string>18:45:17:03</string>
												<frame>1687928</frame>
												<displayformat>NDF</displayformat>
												<reel>
													<name>A003R6XC</name>
												</reel>
											</timecode>
											<media>
												<video>
													<samplecharacteristics>
														<rate>
															<timebase>25</timebase>
															<ntsc>FALSE</ntsc>
														</rate>
														<width>1678</width>
														<height>1080</height>
														<anamorphic>FALSE</anamorphic>
														<pixelaspectratio>square</pixelaspectratio>
														<fielddominance>none</fielddominance>
													</samplecharacteristics>
												</video>
											</media>
										</file>
									</clipitem>
								</track>
							</video>
						</media>
						<logginginfo>
							<description></description>
							<scene></scene>
							<shottake></shottake>
							<lognote></lognote>
							<good></good>
							<originalvideofilename></originalvideofilename>
							<originalaudiofilename></originalaudiofilename>
						</logginginfo>
						<colorinfo>
							<lut></lut>
							<lut1></lut1>
							<asc_sop></asc_sop>
							<asc_sat></asc_sat>
							<lut2></lut2>
						</colorinfo>
						<labels>
							<label2>Violet</label2>
						</labels>
					</clip>
					<clip id="masterclip-56" explodedTracks="true">
						<uuid>253a6258-1017-48fb-8939-99e3c3346158</uuid>
						<masterclipid>masterclip-56</masterclipid>
						<ismasterclip>TRUE</ismasterclip>
						<duration>2112</duration>
						<rate>
							<timebase>25</timebase>
							<ntsc>FALSE</ntsc>
						</rate>
						<name>T001C001_190510_R6XC.[0771071-0773182].mov</name>
						<media>
							<video>
								<track>
									<clipitem id="clipitem-179">
										<masterclipid>masterclip-56</masterclipid>
										<name>T001C001_190510_R6XC.[0771071-0773182].mov</name>
										<rate>
											<timebase>25</timebase>
											<ntsc>FALSE</ntsc>
										</rate>
										<alphatype>none</alphatype>
										<pixelaspectratio>square</pixelaspectratio>
										<anamorphic>FALSE</anamorphic>
										<file id="file-56">
											<name>T001C001_190510_R6XC.[0771071-0773182].mov</name>
											<pathurl>file://localhost/Q%3a/Projects/PRODIGAL_SON/MEDIA_TRANS/190511_D01/T001C001_190510_R6XC.[0771071-0773182].mov</pathurl>
											<rate>
												<timebase>25</timebase>
												<ntsc>FALSE</ntsc>
											</rate>
											<duration>2112</duration>
											<timecode>
												<rate>
													<timebase>25</timebase>
													<ntsc>FALSE</ntsc>
												</rate>
												<string>08:34:02:21</string>
												<frame>771071</frame>
												<displayformat>NDF</displayformat>
												<reel>
													<name>T001R6XC</name>
												</reel>
											</timecode>
											<media>
												<video>
													<samplecharacteristics>
														<rate>
															<timebase>25</timebase>
															<ntsc>FALSE</ntsc>
														</rate>
														<width>1678</width>
														<height>1080</height>
														<anamorphic>FALSE</anamorphic>
														<pixelaspectratio>square</pixelaspectratio>
														<fielddominance>none</fielddominance>
													</samplecharacteristics>
												</video>
											</media>
										</file>
									</clipitem>
								</track>
							</video>
						</media>
							<marker>
								<comment></comment>
								<name></name>
								<in>171</in>
								<out>-1</out>
								<pproColor>4281828977</pproColor>
							</marker>
							<marker>
								<comment></comment>
								<name></name>
								<in>2000</in>
								<out>-1</out>
								<pproColor>4281740498</pproColor>
							</marker>
						<logginginfo>
							<description></description>
							<scene></scene>
							<shottake></shottake>
							<lognote></lognote>
							<good></good>
							<originalvideofilename></originalvideofilename>
							<originalaudiofilename></originalaudiofilename>
						</logginginfo>
						<colorinfo>
							<lut></lut>
							<lut1></lut1>
							<asc_sop></asc_sop>
							<asc_sat></asc_sat>
							<lut2></lut2>
						</colorinfo>
						<labels>
							<label2>Violet</label2>
						</labels>
					</clip>
					<clip id="masterclip-57" explodedTracks="true">
						<uuid>a21e354b-1126-41f0-b201-99223c99de22</uuid>
						<masterclipid>masterclip-57</masterclipid>
						<ismasterclip>TRUE</ismasterclip>
						<duration>2444</duration>
						<rate>
							<timebase>25</timebase>
							<ntsc>FALSE</ntsc>
						</rate>
						<name>T001C002_190510_R6XC.[0775552-0777995].mov</name>
						<media>
							<video>
								<track>
									<clipitem id="clipitem-180">
										<masterclipid>masterclip-57</masterclipid>
										<name>T001C002_190510_R6XC.[0775552-0777995].mov</name>
										<rate>
											<timebase>25</timebase>
											<ntsc>FALSE</ntsc>
										</rate>
										<alphatype>none</alphatype>
										<pixelaspectratio>square</pixelaspectratio>
										<anamorphic>FALSE</anamorphic>
										<file id="file-57">
											<name>T001C002_190510_R6XC.[0775552-0777995].mov</name>
											<pathurl>file://localhost/Q%3a/Projects/PRODIGAL_SON/MEDIA_TRANS/190511_D01/T001C002_190510_R6XC.[0775552-0777995].mov</pathurl>
											<rate>
												<timebase>25</timebase>
												<ntsc>FALSE</ntsc>
											</rate>
											<duration>2444</duration>
											<timecode>
												<rate>
													<timebase>25</timebase>
													<ntsc>FALSE</ntsc>
												</rate>
												<string>08:37:02:02</string>
												<frame>775552</frame>
												<displayformat>NDF</displayformat>
												<reel>
													<name>T001R6XC</name>
												</reel>
											</timecode>
											<media>
												<video>
													<samplecharacteristics>
														<rate>
															<timebase>25</timebase>
															<ntsc>FALSE</ntsc>
														</rate>
														<width>1678</width>
														<height>1080</height>
														<anamorphic>FALSE</anamorphic>
														<pixelaspectratio>square</pixelaspectratio>
														<fielddominance>none</fielddominance>
													</samplecharacteristics>
												</video>
											</media>
										</file>
									</clipitem>
								</track>
							</video>
						</media>
							<marker>
								<comment></comment>
								<name></name>
								<in>110</in>
								<out>-1</out>
								<pproColor>4281828977</pproColor>
							</marker>
							<marker>
								<comment></comment>
								<name></name>
								<in>2241</in>
								<out>-1</out>
								<pproColor>4281740498</pproColor>
							</marker>
						<logginginfo>
							<description></description>
							<scene></scene>
							<shottake></shottake>
							<lognote></lognote>
							<good></good>
							<originalvideofilename></originalvideofilename>
							<originalaudiofilename></originalaudiofilename>
						</logginginfo>
						<colorinfo>
							<lut></lut>
							<lut1></lut1>
							<asc_sop></asc_sop>
							<asc_sat></asc_sat>
							<lut2></lut2>
						</colorinfo>
						<labels>
							<label2>Violet</label2>
						</labels>
					</clip>
					<clip id="masterclip-58" explodedTracks="true">
						<uuid>8748276c-2b48-4451-9b08-2de52341daaa</uuid>
						<masterclipid>masterclip-58</masterclipid>
						<ismasterclip>TRUE</ismasterclip>
						<duration>2471</duration>
						<rate>
							<timebase>25</timebase>
							<ntsc>FALSE</ntsc>
						</rate>
						<name>T001C004_190510_R6XC.[0812500-0814970].mov</name>
						<media>
							<video>
								<track>
									<clipitem id="clipitem-181">
										<masterclipid>masterclip-58</masterclipid>
										<name>T001C004_190510_R6XC.[0812500-0814970].mov</name>
										<rate>
											<timebase>25</timebase>
											<ntsc>FALSE</ntsc>
										</rate>
										<alphatype>none</alphatype>
										<pixelaspectratio>square</pixelaspectratio>
										<anamorphic>FALSE</anamorphic>
										<file id="file-58">
											<name>T001C004_190510_R6XC.[0812500-0814970].mov</name>
											<pathurl>file://localhost/Q%3a/Projects/PRODIGAL_SON/MEDIA_TRANS/190511_D01/T001C004_190510_R6XC.[0812500-0814970].mov</pathurl>
											<rate>
												<timebase>25</timebase>
												<ntsc>FALSE</ntsc>
											</rate>
											<duration>2471</duration>
											<timecode>
												<rate>
													<timebase>25</timebase>
													<ntsc>FALSE</ntsc>
												</rate>
												<string>09:01:40:00</string>
												<frame>812500</frame>
												<displayformat>NDF</displayformat>
												<reel>
													<name>T001R6XC</name>
												</reel>
											</timecode>
											<media>
												<video>
													<samplecharacteristics>
														<rate>
															<timebase>25</timebase>
															<ntsc>FALSE</ntsc>
														</rate>
														<width>1678</width>
														<height>1080</height>
														<anamorphic>FALSE</anamorphic>
														<pixelaspectratio>square</pixelaspectratio>
														<fielddominance>none</fielddominance>
													</samplecharacteristics>
												</video>
											</media>
										</file>
									</clipitem>
								</track>
							</video>
						</media>
							<marker>
								<comment></comment>
								<name></name>
								<in>306</in>
								<out>-1</out>
								<pproColor>4281828977</pproColor>
							</marker>
							<marker>
								<comment></comment>
								<name></name>
								<in>2308</in>
								<out>-1</out>
								<pproColor>4281740498</pproColor>
							</marker>
						<logginginfo>
							<description></description>
							<scene></scene>
							<shottake></shottake>
							<lognote></lognote>
							<good></good>
							<originalvideofilename></originalvideofilename>
							<originalaudiofilename></originalaudiofilename>
						</logginginfo>
						<colorinfo>
							<lut></lut>
							<lut1></lut1>
							<asc_sop></asc_sop>
							<asc_sat></asc_sat>
							<lut2></lut2>
						</colorinfo>
						<labels>
							<label2>Violet</label2>
						</labels>
					</clip>
					<clip id="masterclip-59" explodedTracks="true">
						<uuid>4ed9c329-77c4-491a-bc4f-f5a1f0484aa8</uuid>
						<masterclipid>masterclip-59</masterclipid>
						<ismasterclip>TRUE</ismasterclip>
						<duration>1834</duration>
						<rate>
							<timebase>25</timebase>
							<ntsc>FALSE</ntsc>
						</rate>
						<name>T001C005_190510_R6XC.[0844782-0846615].mov</name>
						<media>
							<video>
								<track>
									<clipitem id="clipitem-182">
										<masterclipid>masterclip-59</masterclipid>
										<name>T001C005_190510_R6XC.[0844782-0846615].mov</name>
										<rate>
											<timebase>25</timebase>
											<ntsc>FALSE</ntsc>
										</rate>
										<alphatype>none</alphatype>
										<pixelaspectratio>square</pixelaspectratio>
										<anamorphic>FALSE</anamorphic>
										<file id="file-59">
											<name>T001C005_190510_R6XC.[0844782-0846615].mov</name>
											<pathurl>file://localhost/Q%3a/Projects/PRODIGAL_SON/MEDIA_TRANS/190511_D01/T001C005_190510_R6XC.[0844782-0846615].mov</pathurl>
											<rate>
												<timebase>25</timebase>
												<ntsc>FALSE</ntsc>
											</rate>
											<duration>1834</duration>
											<timecode>
												<rate>
													<timebase>25</timebase>
													<ntsc>FALSE</ntsc>
												</rate>
												<string>09:23:11:07</string>
												<frame>844782</frame>
												<displayformat>NDF</displayformat>
												<reel>
													<name>T001R6XC</name>
												</reel>
											</timecode>
											<media>
												<video>
													<samplecharacteristics>
														<rate>
															<timebase>25</timebase>
															<ntsc>FALSE</ntsc>
														</rate>
														<width>1678</width>
														<height>1080</height>
														<anamorphic>FALSE</anamorphic>
														<pixelaspectratio>square</pixelaspectratio>
														<fielddominance>none</fielddominance>
													</samplecharacteristics>
												</video>
											</media>
										</file>
									</clipitem>
								</track>
							</video>
						</media>
							<marker>
								<comment></comment>
								<name></name>
								<in>269</in>
								<out>-1</out>
								<pproColor>4281828977</pproColor>
							</marker>
							<marker>
								<comment></comment>
								<name></name>
								<in>1641</in>
								<out>-1</out>
								<pproColor>4281740498</pproColor>
							</marker>
						<logginginfo>
							<description></description>
							<scene></scene>
							<shottake></shottake>
							<lognote></lognote>
							<good></good>
							<originalvideofilename></originalvideofilename>
							<originalaudiofilename></originalaudiofilename>
						</logginginfo>
						<colorinfo>
							<lut></lut>
							<lut1></lut1>
							<asc_sop></asc_sop>
							<asc_sat></asc_sat>
							<lut2></lut2>
						</colorinfo>
						<labels>
							<label2>Violet</label2>
						</labels>
					</clip>
					<clip id="masterclip-60" explodedTracks="true">
						<uuid>eab7edbc-06a4-4846-92b7-a30f4937699b</uuid>
						<masterclipid>masterclip-60</masterclipid>
						<ismasterclip>TRUE</ismasterclip>
						<duration>9325</duration>
						<rate>
							<timebase>25</timebase>
							<ntsc>FALSE</ntsc>
						</rate>
						<name>T001C006_190510_R6XC.[0945567-0954891].mov</name>
						<media>
							<video>
								<track>
									<clipitem id="clipitem-183">
										<masterclipid>masterclip-60</masterclipid>
										<name>T001C006_190510_R6XC.[0945567-0954891].mov</name>
										<rate>
											<timebase>25</timebase>
											<ntsc>FALSE</ntsc>
										</rate>
										<alphatype>none</alphatype>
										<pixelaspectratio>square</pixelaspectratio>
										<anamorphic>FALSE</anamorphic>
										<file id="file-60">
											<name>T001C006_190510_R6XC.[0945567-0954891].mov</name>
											<pathurl>file://localhost/Q%3a/Projects/PRODIGAL_SON/MEDIA_TRANS/190511_D01/T001C006_190510_R6XC.[0945567-0954891].mov</pathurl>
											<rate>
												<timebase>25</timebase>
												<ntsc>FALSE</ntsc>
											</rate>
											<duration>9325</duration>
											<timecode>
												<rate>
													<timebase>25</timebase>
													<ntsc>FALSE</ntsc>
												</rate>
												<string>10:30:22:17</string>
												<frame>945567</frame>
												<displayformat>NDF</displayformat>
												<reel>
													<name>T001R6XC</name>
												</reel>
											</timecode>
											<media>
												<video>
													<samplecharacteristics>
														<rate>
															<timebase>25</timebase>
															<ntsc>FALSE</ntsc>
														</rate>
														<width>1678</width>
														<height>1080</height>
														<anamorphic>FALSE</anamorphic>
														<pixelaspectratio>square</pixelaspectratio>
														<fielddominance>none</fielddominance>
													</samplecharacteristics>
												</video>
											</media>
										</file>
									</clipitem>
								</track>
							</video>
						</media>
						<logginginfo>
							<description></description>
							<scene></scene>
							<shottake></shottake>
							<lognote></lognote>
							<good></good>
							<originalvideofilename></originalvideofilename>
							<originalaudiofilename></originalaudiofilename>
						</logginginfo>
						<colorinfo>
							<lut></lut>
							<lut1></lut1>
							<asc_sop></asc_sop>
							<asc_sat></asc_sat>
							<lut2></lut2>
						</colorinfo>
						<labels>
							<label2>Violet</label2>
						</labels>
					</clip>
					<clip id="masterclip-61" explodedTracks="true">
						<uuid>4732af32-e6ac-47ef-b1cc-159abd27ce36</uuid>
						<masterclipid>masterclip-61</masterclipid>
						<ismasterclip>TRUE</ismasterclip>
						<duration>2439</duration>
						<rate>
							<timebase>25</timebase>
							<ntsc>FALSE</ntsc>
						</rate>
						<name>T001C007_190511_R6XC.[0975322-0977760].mov</name>
						<media>
							<video>
								<track>
									<clipitem id="clipitem-184">
										<masterclipid>masterclip-61</masterclipid>
										<name>T001C007_190511_R6XC.[0975322-0977760].mov</name>
										<rate>
											<timebase>25</timebase>
											<ntsc>FALSE</ntsc>
										</rate>
										<alphatype>none</alphatype>
										<pixelaspectratio>square</pixelaspectratio>
										<anamorphic>FALSE</anamorphic>
										<file id="file-61">
											<name>T001C007_190511_R6XC.[0975322-0977760].mov</name>
											<pathurl>file://localhost/Q%3a/Projects/PRODIGAL_SON/MEDIA_TRANS/190511_D01/T001C007_190511_R6XC.[0975322-0977760].mov</pathurl>
											<rate>
												<timebase>25</timebase>
												<ntsc>FALSE</ntsc>
											</rate>
											<duration>2439</duration>
											<timecode>
												<rate>
													<timebase>25</timebase>
													<ntsc>FALSE</ntsc>
												</rate>
												<string>10:50:12:22</string>
												<frame>975322</frame>
												<displayformat>NDF</displayformat>
												<reel>
													<name>T001R6XC</name>
												</reel>
											</timecode>
											<media>
												<video>
													<samplecharacteristics>
														<rate>
															<timebase>25</timebase>
															<ntsc>FALSE</ntsc>
														</rate>
														<width>1678</width>
														<height>1080</height>
														<anamorphic>FALSE</anamorphic>
														<pixelaspectratio>square</pixelaspectratio>
														<fielddominance>none</fielddominance>
													</samplecharacteristics>
												</video>
											</media>
										</file>
									</clipitem>
								</track>
							</video>
						</media>
						<logginginfo>
							<description></description>
							<scene></scene>
							<shottake></shottake>
							<lognote></lognote>
							<good></good>
							<originalvideofilename></originalvideofilename>
							<originalaudiofilename></originalaudiofilename>
						</logginginfo>
						<colorinfo>
							<lut></lut>
							<lut1></lut1>
							<asc_sop></asc_sop>
							<asc_sat></asc_sat>
							<lut2></lut2>
						</colorinfo>
						<labels>
							<label2>Violet</label2>
						</labels>
					</clip>
					<clip id="masterclip-62" explodedTracks="true">
						<uuid>8bd2cc62-4ab9-4632-a26a-926341d31693</uuid>
						<masterclipid>masterclip-62</masterclipid>
						<ismasterclip>TRUE</ismasterclip>
						<duration>1498</duration>
						<rate>
							<timebase>25</timebase>
							<ntsc>FALSE</ntsc>
						</rate>
						<name>T001C008_190511_R6XC.[0998481-0999978].mov</name>
						<media>
							<video>
								<track>
									<clipitem id="clipitem-185">
										<masterclipid>masterclip-62</masterclipid>
										<name>T001C008_190511_R6XC.[0998481-0999978].mov</name>
										<rate>
											<timebase>25</timebase>
											<ntsc>FALSE</ntsc>
										</rate>
										<alphatype>none</alphatype>
										<pixelaspectratio>square</pixelaspectratio>
										<anamorphic>FALSE</anamorphic>
										<file id="file-62">
											<name>T001C008_190511_R6XC.[0998481-0999978].mov</name>
											<pathurl>file://localhost/Q%3a/Projects/PRODIGAL_SON/MEDIA_TRANS/190511_D01/T001C008_190511_R6XC.[0998481-0999978].mov</pathurl>
											<rate>
												<timebase>25</timebase>
												<ntsc>FALSE</ntsc>
											</rate>
											<duration>1498</duration>
											<timecode>
												<rate>
													<timebase>25</timebase>
													<ntsc>FALSE</ntsc>
												</rate>
												<string>11:05:39:06</string>
												<frame>998481</frame>
												<displayformat>NDF</displayformat>
												<reel>
													<name>T001R6XC</name>
												</reel>
											</timecode>
											<media>
												<video>
													<samplecharacteristics>
														<rate>
															<timebase>25</timebase>
															<ntsc>FALSE</ntsc>
														</rate>
														<width>1678</width>
														<height>1080</height>
														<anamorphic>FALSE</anamorphic>
														<pixelaspectratio>square</pixelaspectratio>
														<fielddominance>none</fielddominance>
													</samplecharacteristics>
												</video>
											</media>
										</file>
									</clipitem>
								</track>
							</video>
						</media>
						<logginginfo>
							<description></description>
							<scene></scene>
							<shottake></shottake>
							<lognote></lognote>
							<good></good>
							<originalvideofilename></originalvideofilename>
							<originalaudiofilename></originalaudiofilename>
						</logginginfo>
						<colorinfo>
							<lut></lut>
							<lut1></lut1>
							<asc_sop></asc_sop>
							<asc_sat></asc_sat>
							<lut2></lut2>
						</colorinfo>
						<labels>
							<label2>Violet</label2>
						</labels>
					</clip>
					<clip id="masterclip-63" explodedTracks="true">
						<uuid>ac0bda9d-e503-4575-b0b7-d41fba5f75f5</uuid>
						<masterclipid>masterclip-63</masterclipid>
						<ismasterclip>TRUE</ismasterclip>
						<duration>1694</duration>
						<rate>
							<timebase>25</timebase>
							<ntsc>FALSE</ntsc>
						</rate>
						<name>T001C009_190511_R6XC.[1020697-1022390].mov</name>
						<media>
							<video>
								<track>
									<clipitem id="clipitem-186">
										<masterclipid>masterclip-63</masterclipid>
										<name>T001C009_190511_R6XC.[1020697-1022390].mov</name>
										<rate>
											<timebase>25</timebase>
											<ntsc>FALSE</ntsc>
										</rate>
										<alphatype>none</alphatype>
										<pixelaspectratio>square</pixelaspectratio>
										<anamorphic>FALSE</anamorphic>
										<file id="file-63">
											<name>T001C009_190511_R6XC.[1020697-1022390].mov</name>
											<pathurl>file://localhost/Q%3a/Projects/PRODIGAL_SON/MEDIA_TRANS/190511_D01/T001C009_190511_R6XC.[1020697-1022390].mov</pathurl>
											<rate>
												<timebase>25</timebase>
												<ntsc>FALSE</ntsc>
											</rate>
											<duration>1694</duration>
											<timecode>
												<rate>
													<timebase>25</timebase>
													<ntsc>FALSE</ntsc>
												</rate>
												<string>11:20:27:22</string>
												<frame>1020697</frame>
												<displayformat>NDF</displayformat>
												<reel>
													<name>T001R6XC</name>
												</reel>
											</timecode>
											<media>
												<video>
													<samplecharacteristics>
														<rate>
															<timebase>25</timebase>
															<ntsc>FALSE</ntsc>
														</rate>
														<width>1678</width>
														<height>1080</height>
														<anamorphic>FALSE</anamorphic>
														<pixelaspectratio>square</pixelaspectratio>
														<fielddominance>none</fielddominance>
													</samplecharacteristics>
												</video>
											</media>
										</file>
									</clipitem>
								</track>
							</video>
						</media>
						<logginginfo>
							<description></description>
							<scene></scene>
							<shottake></shottake>
							<lognote></lognote>
							<good></good>
							<originalvideofilename></originalvideofilename>
							<originalaudiofilename></originalaudiofilename>
						</logginginfo>
						<colorinfo>
							<lut></lut>
							<lut1></lut1>
							<asc_sop></asc_sop>
							<asc_sat></asc_sat>
							<lut2></lut2>
						</colorinfo>
						<labels>
							<label2>Violet</label2>
						</labels>
					</clip>
					<clip id="masterclip-64" explodedTracks="true">
						<uuid>bab39475-6c59-454a-9b16-7bc5071c45ac</uuid>
						<masterclipid>masterclip-64</masterclipid>
						<ismasterclip>TRUE</ismasterclip>
						<duration>1690</duration>
						<rate>
							<timebase>25</timebase>
							<ntsc>FALSE</ntsc>
						</rate>
						<name>T001C010_190511_R6XC.[1043405-1045094].mov</name>
						<media>
							<video>
								<track>
									<clipitem id="clipitem-187">
										<masterclipid>masterclip-64</masterclipid>
										<name>T001C010_190511_R6XC.[1043405-1045094].mov</name>
										<rate>
											<timebase>25</timebase>
											<ntsc>FALSE</ntsc>
										</rate>
										<alphatype>none</alphatype>
										<pixelaspectratio>square</pixelaspectratio>
										<anamorphic>FALSE</anamorphic>
										<file id="file-64">
											<name>T001C010_190511_R6XC.[1043405-1045094].mov</name>
											<pathurl>file://localhost/Q%3a/Projects/PRODIGAL_SON/MEDIA_TRANS/190511_D01/T001C010_190511_R6XC.[1043405-1045094].mov</pathurl>
											<rate>
												<timebase>25</timebase>
												<ntsc>FALSE</ntsc>
											</rate>
											<duration>1690</duration>
											<timecode>
												<rate>
													<timebase>25</timebase>
													<ntsc>FALSE</ntsc>
												</rate>
												<string>11:35:36:05</string>
												<frame>1043405</frame>
												<displayformat>NDF</displayformat>
												<reel>
													<name>T001R6XC</name>
												</reel>
											</timecode>
											<media>
												<video>
													<samplecharacteristics>
														<rate>
															<timebase>25</timebase>
															<ntsc>FALSE</ntsc>
														</rate>
														<width>1678</width>
														<height>1080</height>
														<anamorphic>FALSE</anamorphic>
														<pixelaspectratio>square</pixelaspectratio>
														<fielddominance>none</fielddominance>
													</samplecharacteristics>
												</video>
											</media>
										</file>
									</clipitem>
								</track>
							</video>
						</media>
						<logginginfo>
							<description></description>
							<scene></scene>
							<shottake></shottake>
							<lognote></lognote>
							<good></good>
							<originalvideofilename></originalvideofilename>
							<originalaudiofilename></originalaudiofilename>
						</logginginfo>
						<colorinfo>
							<lut></lut>
							<lut1></lut1>
							<asc_sop></asc_sop>
							<asc_sat></asc_sat>
							<lut2></lut2>
						</colorinfo>
						<labels>
							<label2>Violet</label2>
						</labels>
					</clip>
				</children>
			</bin>
			<bin>
				<name>BIN_AUDIO</name>
				<labels>
					<label2>Mango</label2>
				</labels>
				<children>
					<clip id="masterclip-65" explodedTracks="true">
						<uuid>dc450047-3bbe-4754-b618-ed318105a582</uuid>
						<masterclipid>masterclip-65</masterclipid>
						<ismasterclip>TRUE</ismasterclip>
						<duration>3116</duration>
						<rate>
							<timebase>30</timebase>
							<ntsc>TRUE</ntsc>
						</rate>
						<name>3-01-1.WAV</name>
						<media>
							<audio>
								<track>
									<clipitem id="clipitem-188">
										<masterclipid>masterclip-65</masterclipid>
										<name>3-01-1.WAV</name>
										<rate>
											<timebase>30</timebase>
											<ntsc>TRUE</ntsc>
										</rate>
										<file id="file-65">
											<name>3-01-1.WAV</name>
											<pathurl>file://localhost/S%3a/Projects/PRODIGAL_SON/AUDIO/190511_D01/3-01-1.WAV</pathurl>
											<rate>
												<timebase>30</timebase>
												<ntsc>TRUE</ntsc>
											</rate>
											<duration>3116</duration>
											<timecode>
												<rate>
													<timebase>30</timebase>
													<ntsc>TRUE</ntsc>
												</rate>
												<string>08;33;47;00</string>
												<frame>923886</frame>
												<displayformat>DF</displayformat>
												<reel>
													<name>190511</name>
												</reel>
											</timecode>
											<media>
												<audio>
													<samplecharacteristics>
														<depth>16</depth>
														<samplerate>48000</samplerate>
													</samplecharacteristics>
													<channelcount>1</channelcount>
													<audiochannel>
														<sourcechannel>1</sourcechannel>
													</audiochannel>
												</audio>
												<audio>
													<samplecharacteristics>
														<depth>16</depth>
														<samplerate>48000</samplerate>
													</samplecharacteristics>
													<channelcount>1</channelcount>
													<audiochannel>
														<sourcechannel>2</sourcechannel>
													</audiochannel>
												</audio>
												<audio>
													<samplecharacteristics>
														<depth>16</depth>
														<samplerate>48000</samplerate>
													</samplecharacteristics>
													<channelcount>1</channelcount>
													<audiochannel>
														<sourcechannel>3</sourcechannel>
													</audiochannel>
												</audio>
												<audio>
													<samplecharacteristics>
														<depth>16</depth>
														<samplerate>48000</samplerate>
													</samplecharacteristics>
													<channelcount>1</channelcount>
													<audiochannel>
														<sourcechannel>4</sourcechannel>
													</audiochannel>
												</audio>
												<audio>
													<samplecharacteristics>
														<depth>16</depth>
														<samplerate>48000</samplerate>
													</samplecharacteristics>
													<channelcount>1</channelcount>
													<audiochannel>
														<sourcechannel>5</sourcechannel>
													</audiochannel>
												</audio>
												<audio>
													<samplecharacteristics>
														<depth>16</depth>
														<samplerate>48000</samplerate>
													</samplecharacteristics>
													<channelcount>1</channelcount>
													<audiochannel>
														<sourcechannel>6</sourcechannel>
													</audiochannel>
												</audio>
											</media>
										</file>
										<sourcetrack>
											<mediatype>audio</mediatype>
											<trackindex>1</trackindex>
										</sourcetrack>
										<link>
											<linkclipref>clipitem-188</linkclipref>
											<mediatype>audio</mediatype>
											<trackindex>1</trackindex>
											<clipindex>1</clipindex>
										</link>
										<link>
											<linkclipref>clipitem-189</linkclipref>
											<mediatype>audio</mediatype>
											<trackindex>2</trackindex>
											<clipindex>1</clipindex>
										</link>
										<link>
											<linkclipref>clipitem-190</linkclipref>
											<mediatype>audio</mediatype>
											<trackindex>3</trackindex>
											<clipindex>1</clipindex>
										</link>
										<link>
											<linkclipref>clipitem-191</linkclipref>
											<mediatype>audio</mediatype>
											<trackindex>4</trackindex>
											<clipindex>1</clipindex>
										</link>
										<link>
											<linkclipref>clipitem-192</linkclipref>
											<mediatype>audio</mediatype>
											<trackindex>5</trackindex>
											<clipindex>1</clipindex>
										</link>
										<link>
											<linkclipref>clipitem-193</linkclipref>
											<mediatype>audio</mediatype>
											<trackindex>6</trackindex>
											<clipindex>1</clipindex>
										</link>
									</clipitem>
								</track>
								<track>
									<clipitem id="clipitem-189">
										<masterclipid>masterclip-65</masterclipid>
										<name>3-01-1.WAV</name>
										<rate>
											<timebase>30</timebase>
											<ntsc>TRUE</ntsc>
										</rate>
										<file id="file-65"/>
										<sourcetrack>
											<mediatype>audio</mediatype>
											<trackindex>2</trackindex>
										</sourcetrack>
										<link>
											<linkclipref>clipitem-188</linkclipref>
											<mediatype>audio</mediatype>
											<trackindex>1</trackindex>
											<clipindex>1</clipindex>
										</link>
										<link>
											<linkclipref>clipitem-189</linkclipref>
											<mediatype>audio</mediatype>
											<trackindex>2</trackindex>
											<clipindex>1</clipindex>
										</link>
										<link>
											<linkclipref>clipitem-190</linkclipref>
											<mediatype>audio</mediatype>
											<trackindex>3</trackindex>
											<clipindex>1</clipindex>
										</link>
										<link>
											<linkclipref>clipitem-191</linkclipref>
											<mediatype>audio</mediatype>
											<trackindex>4</trackindex>
											<clipindex>1</clipindex>
										</link>
										<link>
											<linkclipref>clipitem-192</linkclipref>
											<mediatype>audio</mediatype>
											<trackindex>5</trackindex>
											<clipindex>1</clipindex>
										</link>
										<link>
											<linkclipref>clipitem-193</linkclipref>
											<mediatype>audio</mediatype>
											<trackindex>6</trackindex>
											<clipindex>1</clipindex>
										</link>
									</clipitem>
								</track>
								<track>
									<clipitem id="clipitem-190">
										<masterclipid>masterclip-65</masterclipid>
										<name>3-01-1.WAV</name>
										<rate>
											<timebase>30</timebase>
											<ntsc>TRUE</ntsc>
										</rate>
										<file id="file-65"/>
										<sourcetrack>
											<mediatype>audio</mediatype>
											<trackindex>3</trackindex>
										</sourcetrack>
										<link>
											<linkclipref>clipitem-188</linkclipref>
											<mediatype>audio</mediatype>
											<trackindex>1</trackindex>
											<clipindex>1</clipindex>
										</link>
										<link>
											<linkclipref>clipitem-189</linkclipref>
											<mediatype>audio</mediatype>
											<trackindex>2</trackindex>
											<clipindex>1</clipindex>
										</link>
										<link>
											<linkclipref>clipitem-190</linkclipref>
											<mediatype>audio</mediatype>
											<trackindex>3</trackindex>
											<clipindex>1</clipindex>
										</link>
										<link>
											<linkclipref>clipitem-191</linkclipref>
											<mediatype>audio</mediatype>
											<trackindex>4</trackindex>
											<clipindex>1</clipindex>
										</link>
										<link>
											<linkclipref>clipitem-192</linkclipref>
											<mediatype>audio</mediatype>
											<trackindex>5</trackindex>
											<clipindex>1</clipindex>
										</link>
										<link>
											<linkclipref>clipitem-193</linkclipref>
											<mediatype>audio</mediatype>
											<trackindex>6</trackindex>
											<clipindex>1</clipindex>
										</link>
									</clipitem>
								</track>
								<track>
									<clipitem id="clipitem-191">
										<masterclipid>masterclip-65</masterclipid>
										<name>3-01-1.WAV</name>
										<rate>
											<timebase>30</timebase>
											<ntsc>TRUE</ntsc>
										</rate>
										<file id="file-65"/>
										<sourcetrack>
											<mediatype>audio</mediatype>
											<trackindex>4</trackindex>
										</sourcetrack>
										<link>
											<linkclipref>clipitem-188</linkclipref>
											<mediatype>audio</mediatype>
											<trackindex>1</trackindex>
											<clipindex>1</clipindex>
										</link>
										<link>
											<linkclipref>clipitem-189</linkclipref>
											<mediatype>audio</mediatype>
											<trackindex>2</trackindex>
											<clipindex>1</clipindex>
										</link>
										<link>
											<linkclipref>clipitem-190</linkclipref>
											<mediatype>audio</mediatype>
											<trackindex>3</trackindex>
											<clipindex>1</clipindex>
										</link>
										<link>
											<linkclipref>clipitem-191</linkclipref>
											<mediatype>audio</mediatype>
											<trackindex>4</trackindex>
											<clipindex>1</clipindex>
										</link>
										<link>
											<linkclipref>clipitem-192</linkclipref>
											<mediatype>audio</mediatype>
											<trackindex>5</trackindex>
											<clipindex>1</clipindex>
										</link>
										<link>
											<linkclipref>clipitem-193</linkclipref>
											<mediatype>audio</mediatype>
											<trackindex>6</trackindex>
											<clipindex>1</clipindex>
										</link>
									</clipitem>
								</track>
								<track>
									<clipitem id="clipitem-192">
										<masterclipid>masterclip-65</masterclipid>
										<name>3-01-1.WAV</name>
										<rate>
											<timebase>30</timebase>
											<ntsc>TRUE</ntsc>
										</rate>
										<file id="file-65"/>
										<sourcetrack>
											<mediatype>audio</mediatype>
											<trackindex>5</trackindex>
										</sourcetrack>
										<link>
											<linkclipref>clipitem-188</linkclipref>
											<mediatype>audio</mediatype>
											<trackindex>1</trackindex>
											<clipindex>1</clipindex>
										</link>
										<link>
											<linkclipref>clipitem-189</linkclipref>
											<mediatype>audio</mediatype>
											<trackindex>2</trackindex>
											<clipindex>1</clipindex>
										</link>
										<link>
											<linkclipref>clipitem-190</linkclipref>
											<mediatype>audio</mediatype>
											<trackindex>3</trackindex>
											<clipindex>1</clipindex>
										</link>
										<link>
											<linkclipref>clipitem-191</linkclipref>
											<mediatype>audio</mediatype>
											<trackindex>4</trackindex>
											<clipindex>1</clipindex>
										</link>
										<link>
											<linkclipref>clipitem-192</linkclipref>
											<mediatype>audio</mediatype>
											<trackindex>5</trackindex>
											<clipindex>1</clipindex>
										</link>
										<link>
											<linkclipref>clipitem-193</linkclipref>
											<mediatype>audio</mediatype>
											<trackindex>6</trackindex>
											<clipindex>1</clipindex>
										</link>
									</clipitem>
								</track>
								<track>
									<clipitem id="clipitem-193">
										<masterclipid>masterclip-65</masterclipid>
										<name>3-01-1.WAV</name>
										<rate>
											<timebase>30</timebase>
											<ntsc>TRUE</ntsc>
										</rate>
										<file id="file-65"/>
										<sourcetrack>
											<mediatype>audio</mediatype>
											<trackindex>6</trackindex>
										</sourcetrack>
										<link>
											<linkclipref>clipitem-188</linkclipref>
											<mediatype>audio</mediatype>
											<trackindex>1</trackindex>
											<clipindex>1</clipindex>
										</link>
										<link>
											<linkclipref>clipitem-189</linkclipref>
											<mediatype>audio</mediatype>
											<trackindex>2</trackindex>
											<clipindex>1</clipindex>
										</link>
										<link>
											<linkclipref>clipitem-190</linkclipref>
											<mediatype>audio</mediatype>
											<trackindex>3</trackindex>
											<clipindex>1</clipindex>
										</link>
										<link>
											<linkclipref>clipitem-191</linkclipref>
											<mediatype>audio</mediatype>
											<trackindex>4</trackindex>
											<clipindex>1</clipindex>
										</link>
										<link>
											<linkclipref>clipitem-192</linkclipref>
											<mediatype>audio</mediatype>
											<trackindex>5</trackindex>
											<clipindex>1</clipindex>
										</link>
										<link>
											<linkclipref>clipitem-193</linkclipref>
											<mediatype>audio</mediatype>
											<trackindex>6</trackindex>
											<clipindex>1</clipindex>
										</link>
									</clipitem>
								</track>
							</audio>
						</media>
							<marker>
								<comment></comment>
								<name></name>
								<in>680</in>
								<out>-1</out>
								<pproColor>4281828977</pproColor>
							</marker>
							<marker>
								<comment></comment>
								<name></name>
								<in>2873</in>
								<out>-1</out>
								<pproColor>4281740498</pproColor>
							</marker>
						<logginginfo>
							<description></description>
							<scene>3-01</scene>
							<shottake></shottake>
							<lognote></lognote>
							<good></good>
							<originalvideofilename></originalvideofilename>
							<originalaudiofilename></originalaudiofilename>
						</logginginfo>
						<colorinfo>
							<lut></lut>
							<lut1></lut1>
							<asc_sop></asc_sop>
							<asc_sat></asc_sat>
							<lut2></lut2>
						</colorinfo>
						<labels>
							<label2>Mango</label2>
						</labels>
					</clip>
					<clip id="masterclip-66" explodedTracks="true">
						<uuid>26071f46-ced5-4669-9cb3-2ed2f76a94fa</uuid>
						<masterclipid>masterclip-66</masterclipid>
						<ismasterclip>TRUE</ismasterclip>
						<duration>3176</duration>
						<rate>
							<timebase>30</timebase>
							<ntsc>TRUE</ntsc>
						</rate>
						<name>3-01-2.WAV</name>
						<media>
							<audio>
								<track>
									<clipitem id="clipitem-194">
										<masterclipid>masterclip-66</masterclipid>
										<name>3-01-2.WAV</name>
										<rate>
											<timebase>30</timebase>
											<ntsc>TRUE</ntsc>
										</rate>
										<file id="file-66">
											<name>3-01-2.WAV</name>
											<pathurl>file://localhost/S%3a/Projects/PRODIGAL_SON/AUDIO/190511_D01/3-01-2.WAV</pathurl>
											<rate>
												<timebase>30</timebase>
												<ntsc>TRUE</ntsc>
											</rate>
											<duration>3176</duration>
											<timecode>
												<rate>
													<timebase>30</timebase>
													<ntsc>TRUE</ntsc>
												</rate>
												<string>08;36;54;00</string>
												<frame>929490</frame>
												<displayformat>DF</displayformat>
												<reel>
													<name>190511</name>
												</reel>
											</timecode>
											<media>
												<audio>
													<samplecharacteristics>
														<depth>16</depth>
														<samplerate>48000</samplerate>
													</samplecharacteristics>
													<channelcount>1</channelcount>
													<audiochannel>
														<sourcechannel>1</sourcechannel>
													</audiochannel>
												</audio>
												<audio>
													<samplecharacteristics>
														<depth>16</depth>
														<samplerate>48000</samplerate>
													</samplecharacteristics>
													<channelcount>1</channelcount>
													<audiochannel>
														<sourcechannel>2</sourcechannel>
													</audiochannel>
												</audio>
												<audio>
													<samplecharacteristics>
														<depth>16</depth>
														<samplerate>48000</samplerate>
													</samplecharacteristics>
													<channelcount>1</channelcount>
													<audiochannel>
														<sourcechannel>3</sourcechannel>
													</audiochannel>
												</audio>
												<audio>
													<samplecharacteristics>
														<depth>16</depth>
														<samplerate>48000</samplerate>
													</samplecharacteristics>
													<channelcount>1</channelcount>
													<audiochannel>
														<sourcechannel>4</sourcechannel>
													</audiochannel>
												</audio>
												<audio>
													<samplecharacteristics>
														<depth>16</depth>
														<samplerate>48000</samplerate>
													</samplecharacteristics>
													<channelcount>1</channelcount>
													<audiochannel>
														<sourcechannel>5</sourcechannel>
													</audiochannel>
												</audio>
												<audio>
													<samplecharacteristics>
														<depth>16</depth>
														<samplerate>48000</samplerate>
													</samplecharacteristics>
													<channelcount>1</channelcount>
													<audiochannel>
														<sourcechannel>6</sourcechannel>
													</audiochannel>
												</audio>
											</media>
										</file>
										<sourcetrack>
											<mediatype>audio</mediatype>
											<trackindex>1</trackindex>
										</sourcetrack>
										<link>
											<linkclipref>clipitem-194</linkclipref>
											<mediatype>audio</mediatype>
											<trackindex>1</trackindex>
											<clipindex>1</clipindex>
										</link>
										<link>
											<linkclipref>clipitem-195</linkclipref>
											<mediatype>audio</mediatype>
											<trackindex>2</trackindex>
											<clipindex>1</clipindex>
										</link>
										<link>
											<linkclipref>clipitem-196</linkclipref>
											<mediatype>audio</mediatype>
											<trackindex>3</trackindex>
											<clipindex>1</clipindex>
										</link>
										<link>
											<linkclipref>clipitem-197</linkclipref>
											<mediatype>audio</mediatype>
											<trackindex>4</trackindex>
											<clipindex>1</clipindex>
										</link>
										<link>
											<linkclipref>clipitem-198</linkclipref>
											<mediatype>audio</mediatype>
											<trackindex>5</trackindex>
											<clipindex>1</clipindex>
										</link>
										<link>
											<linkclipref>clipitem-199</linkclipref>
											<mediatype>audio</mediatype>
											<trackindex>6</trackindex>
											<clipindex>1</clipindex>
										</link>
									</clipitem>
								</track>
								<track>
									<clipitem id="clipitem-195">
										<masterclipid>masterclip-66</masterclipid>
										<name>3-01-2.WAV</name>
										<rate>
											<timebase>30</timebase>
											<ntsc>TRUE</ntsc>
										</rate>
										<file id="file-66"/>
										<sourcetrack>
											<mediatype>audio</mediatype>
											<trackindex>2</trackindex>
										</sourcetrack>
										<link>
											<linkclipref>clipitem-194</linkclipref>
											<mediatype>audio</mediatype>
											<trackindex>1</trackindex>
											<clipindex>1</clipindex>
										</link>
										<link>
											<linkclipref>clipitem-195</linkclipref>
											<mediatype>audio</mediatype>
											<trackindex>2</trackindex>
											<clipindex>1</clipindex>
										</link>
										<link>
											<linkclipref>clipitem-196</linkclipref>
											<mediatype>audio</mediatype>
											<trackindex>3</trackindex>
											<clipindex>1</clipindex>
										</link>
										<link>
											<linkclipref>clipitem-197</linkclipref>
											<mediatype>audio</mediatype>
											<trackindex>4</trackindex>
											<clipindex>1</clipindex>
										</link>
										<link>
											<linkclipref>clipitem-198</linkclipref>
											<mediatype>audio</mediatype>
											<trackindex>5</trackindex>
											<clipindex>1</clipindex>
										</link>
										<link>
											<linkclipref>clipitem-199</linkclipref>
											<mediatype>audio</mediatype>
											<trackindex>6</trackindex>
											<clipindex>1</clipindex>
										</link>
									</clipitem>
								</track>
								<track>
									<clipitem id="clipitem-196">
										<masterclipid>masterclip-66</masterclipid>
										<name>3-01-2.WAV</name>
										<rate>
											<timebase>30</timebase>
											<ntsc>TRUE</ntsc>
										</rate>
										<file id="file-66"/>
										<sourcetrack>
											<mediatype>audio</mediatype>
											<trackindex>3</trackindex>
										</sourcetrack>
										<link>
											<linkclipref>clipitem-194</linkclipref>
											<mediatype>audio</mediatype>
											<trackindex>1</trackindex>
											<clipindex>1</clipindex>
										</link>
										<link>
											<linkclipref>clipitem-195</linkclipref>
											<mediatype>audio</mediatype>
											<trackindex>2</trackindex>
											<clipindex>1</clipindex>
										</link>
										<link>
											<linkclipref>clipitem-196</linkclipref>
											<mediatype>audio</mediatype>
											<trackindex>3</trackindex>
											<clipindex>1</clipindex>
										</link>
										<link>
											<linkclipref>clipitem-197</linkclipref>
											<mediatype>audio</mediatype>
											<trackindex>4</trackindex>
											<clipindex>1</clipindex>
										</link>
										<link>
											<linkclipref>clipitem-198</linkclipref>
											<mediatype>audio</mediatype>
											<trackindex>5</trackindex>
											<clipindex>1</clipindex>
										</link>
										<link>
											<linkclipref>clipitem-199</linkclipref>
											<mediatype>audio</mediatype>
											<trackindex>6</trackindex>
											<clipindex>1</clipindex>
										</link>
									</clipitem>
								</track>
								<track>
									<clipitem id="clipitem-197">
										<masterclipid>masterclip-66</masterclipid>
										<name>3-01-2.WAV</name>
										<rate>
											<timebase>30</timebase>
											<ntsc>TRUE</ntsc>
										</rate>
										<file id="file-66"/>
										<sourcetrack>
											<mediatype>audio</mediatype>
											<trackindex>4</trackindex>
										</sourcetrack>
										<link>
											<linkclipref>clipitem-194</linkclipref>
											<mediatype>audio</mediatype>
											<trackindex>1</trackindex>
											<clipindex>1</clipindex>
										</link>
										<link>
											<linkclipref>clipitem-195</linkclipref>
											<mediatype>audio</mediatype>
											<trackindex>2</trackindex>
											<clipindex>1</clipindex>
										</link>
										<link>
											<linkclipref>clipitem-196</linkclipref>
											<mediatype>audio</mediatype>
											<trackindex>3</trackindex>
											<clipindex>1</clipindex>
										</link>
										<link>
											<linkclipref>clipitem-197</linkclipref>
											<mediatype>audio</mediatype>
											<trackindex>4</trackindex>
											<clipindex>1</clipindex>
										</link>
										<link>
											<linkclipref>clipitem-198</linkclipref>
											<mediatype>audio</mediatype>
											<trackindex>5</trackindex>
											<clipindex>1</clipindex>
										</link>
										<link>
											<linkclipref>clipitem-199</linkclipref>
											<mediatype>audio</mediatype>
											<trackindex>6</trackindex>
											<clipindex>1</clipindex>
										</link>
									</clipitem>
								</track>
								<track>
									<clipitem id="clipitem-198">
										<masterclipid>masterclip-66</masterclipid>
										<name>3-01-2.WAV</name>
										<rate>
											<timebase>30</timebase>
											<ntsc>TRUE</ntsc>
										</rate>
										<file id="file-66"/>
										<sourcetrack>
											<mediatype>audio</mediatype>
											<trackindex>5</trackindex>
										</sourcetrack>
										<link>
											<linkclipref>clipitem-194</linkclipref>
											<mediatype>audio</mediatype>
											<trackindex>1</trackindex>
											<clipindex>1</clipindex>
										</link>
										<link>
											<linkclipref>clipitem-195</linkclipref>
											<mediatype>audio</mediatype>
											<trackindex>2</trackindex>
											<clipindex>1</clipindex>
										</link>
										<link>
											<linkclipref>clipitem-196</linkclipref>
											<mediatype>audio</mediatype>
											<trackindex>3</trackindex>
											<clipindex>1</clipindex>
										</link>
										<link>
											<linkclipref>clipitem-197</linkclipref>
											<mediatype>audio</mediatype>
											<trackindex>4</trackindex>
											<clipindex>1</clipindex>
										</link>
										<link>
											<linkclipref>clipitem-198</linkclipref>
											<mediatype>audio</mediatype>
											<trackindex>5</trackindex>
											<clipindex>1</clipindex>
										</link>
										<link>
											<linkclipref>clipitem-199</linkclipref>
											<mediatype>audio</mediatype>
											<trackindex>6</trackindex>
											<clipindex>1</clipindex>
										</link>
									</clipitem>
								</track>
								<track>
									<clipitem id="clipitem-199">
										<masterclipid>masterclip-66</masterclipid>
										<name>3-01-2.WAV</name>
										<rate>
											<timebase>30</timebase>
											<ntsc>TRUE</ntsc>
										</rate>
										<file id="file-66"/>
										<sourcetrack>
											<mediatype>audio</mediatype>
											<trackindex>6</trackindex>
										</sourcetrack>
										<link>
											<linkclipref>clipitem-194</linkclipref>
											<mediatype>audio</mediatype>
											<trackindex>1</trackindex>
											<clipindex>1</clipindex>
										</link>
										<link>
											<linkclipref>clipitem-195</linkclipref>
											<mediatype>audio</mediatype>
											<trackindex>2</trackindex>
											<clipindex>1</clipindex>
										</link>
										<link>
											<linkclipref>clipitem-196</linkclipref>
											<mediatype>audio</mediatype>
											<trackindex>3</trackindex>
											<clipindex>1</clipindex>
										</link>
										<link>
											<linkclipref>clipitem-197</linkclipref>
											<mediatype>audio</mediatype>
											<trackindex>4</trackindex>
											<clipindex>1</clipindex>
										</link>
										<link>
											<linkclipref>clipitem-198</linkclipref>
											<mediatype>audio</mediatype>
											<trackindex>5</trackindex>
											<clipindex>1</clipindex>
										</link>
										<link>
											<linkclipref>clipitem-199</linkclipref>
											<mediatype>audio</mediatype>
											<trackindex>6</trackindex>
											<clipindex>1</clipindex>
										</link>
									</clipitem>
								</track>
							</audio>
						</media>
							<marker>
								<comment></comment>
								<name></name>
								<in>375</in>
								<out>-1</out>
								<pproColor>4281828977</pproColor>
							</marker>
							<marker>
								<comment></comment>
								<name></name>
								<in>2929</in>
								<out>-1</out>
								<pproColor>4281740498</pproColor>
							</marker>
						<logginginfo>
							<description></description>
							<scene>3-01</scene>
							<shottake></shottake>
							<lognote></lognote>
							<good></good>
							<originalvideofilename></originalvideofilename>
							<originalaudiofilename></originalaudiofilename>
						</logginginfo>
						<colorinfo>
							<lut></lut>
							<lut1></lut1>
							<asc_sop></asc_sop>
							<asc_sat></asc_sat>
							<lut2></lut2>
						</colorinfo>
						<labels>
							<label2>Mango</label2>
						</labels>
					</clip>
					<clip id="masterclip-67" explodedTracks="true">
						<uuid>7f756c8f-616b-4ddd-84c9-6db29557f3d6</uuid>
						<masterclipid>masterclip-67</masterclipid>
						<ismasterclip>TRUE</ismasterclip>
						<duration>3266</duration>
						<rate>
							<timebase>30</timebase>
							<ntsc>TRUE</ntsc>
						</rate>
						<name>3-02-1.WAV</name>
						<media>
							<audio>
								<track>
									<clipitem id="clipitem-200">
										<masterclipid>masterclip-67</masterclipid>
										<name>3-02-1.WAV</name>
										<rate>
											<timebase>30</timebase>
											<ntsc>TRUE</ntsc>
										</rate>
										<file id="file-67">
											<name>3-02-1.WAV</name>
											<pathurl>file://localhost/S%3a/Projects/PRODIGAL_SON/AUDIO/190511_D01/3-02-1.WAV</pathurl>
											<rate>
												<timebase>30</timebase>
												<ntsc>TRUE</ntsc>
											</rate>
											<duration>3266</duration>
											<timecode>
												<rate>
													<timebase>30</timebase>
													<ntsc>TRUE</ntsc>
												</rate>
												<string>09;01;30;00</string>
												<frame>973726</frame>
												<displayformat>DF</displayformat>
												<reel>
													<name>190511</name>
												</reel>
											</timecode>
											<media>
												<audio>
													<samplecharacteristics>
														<depth>16</depth>
														<samplerate>48000</samplerate>
													</samplecharacteristics>
													<channelcount>1</channelcount>
													<audiochannel>
														<sourcechannel>1</sourcechannel>
													</audiochannel>
												</audio>
												<audio>
													<samplecharacteristics>
														<depth>16</depth>
														<samplerate>48000</samplerate>
													</samplecharacteristics>
													<channelcount>1</channelcount>
													<audiochannel>
														<sourcechannel>2</sourcechannel>
													</audiochannel>
												</audio>
												<audio>
													<samplecharacteristics>
														<depth>16</depth>
														<samplerate>48000</samplerate>
													</samplecharacteristics>
													<channelcount>1</channelcount>
													<audiochannel>
														<sourcechannel>3</sourcechannel>
													</audiochannel>
												</audio>
												<audio>
													<samplecharacteristics>
														<depth>16</depth>
														<samplerate>48000</samplerate>
													</samplecharacteristics>
													<channelcount>1</channelcount>
													<audiochannel>
														<sourcechannel>4</sourcechannel>
													</audiochannel>
												</audio>
												<audio>
													<samplecharacteristics>
														<depth>16</depth>
														<samplerate>48000</samplerate>
													</samplecharacteristics>
													<channelcount>1</channelcount>
													<audiochannel>
														<sourcechannel>5</sourcechannel>
													</audiochannel>
												</audio>
												<audio>
													<samplecharacteristics>
														<depth>16</depth>
														<samplerate>48000</samplerate>
													</samplecharacteristics>
													<channelcount>1</channelcount>
													<audiochannel>
														<sourcechannel>6</sourcechannel>
													</audiochannel>
												</audio>
											</media>
										</file>
										<sourcetrack>
											<mediatype>audio</mediatype>
											<trackindex>1</trackindex>
										</sourcetrack>
										<link>
											<linkclipref>clipitem-200</linkclipref>
											<mediatype>audio</mediatype>
											<trackindex>1</trackindex>
											<clipindex>1</clipindex>
										</link>
										<link>
											<linkclipref>clipitem-201</linkclipref>
											<mediatype>audio</mediatype>
											<trackindex>2</trackindex>
											<clipindex>1</clipindex>
										</link>
										<link>
											<linkclipref>clipitem-202</linkclipref>
											<mediatype>audio</mediatype>
											<trackindex>3</trackindex>
											<clipindex>1</clipindex>
										</link>
										<link>
											<linkclipref>clipitem-203</linkclipref>
											<mediatype>audio</mediatype>
											<trackindex>4</trackindex>
											<clipindex>1</clipindex>
										</link>
										<link>
											<linkclipref>clipitem-204</linkclipref>
											<mediatype>audio</mediatype>
											<trackindex>5</trackindex>
											<clipindex>1</clipindex>
										</link>
										<link>
											<linkclipref>clipitem-205</linkclipref>
											<mediatype>audio</mediatype>
											<trackindex>6</trackindex>
											<clipindex>1</clipindex>
										</link>
									</clipitem>
								</track>
								<track>
									<clipitem id="clipitem-201">
										<masterclipid>masterclip-67</masterclipid>
										<name>3-02-1.WAV</name>
										<rate>
											<timebase>30</timebase>
											<ntsc>TRUE</ntsc>
										</rate>
										<file id="file-67"/>
										<sourcetrack>
											<mediatype>audio</mediatype>
											<trackindex>2</trackindex>
										</sourcetrack>
										<link>
											<linkclipref>clipitem-200</linkclipref>
											<mediatype>audio</mediatype>
											<trackindex>1</trackindex>
											<clipindex>1</clipindex>
										</link>
										<link>
											<linkclipref>clipitem-201</linkclipref>
											<mediatype>audio</mediatype>
											<trackindex>2</trackindex>
											<clipindex>1</clipindex>
										</link>
										<link>
											<linkclipref>clipitem-202</linkclipref>
											<mediatype>audio</mediatype>
											<trackindex>3</trackindex>
											<clipindex>1</clipindex>
										</link>
										<link>
											<linkclipref>clipitem-203</linkclipref>
											<mediatype>audio</mediatype>
											<trackindex>4</trackindex>
											<clipindex>1</clipindex>
										</link>
										<link>
											<linkclipref>clipitem-204</linkclipref>
											<mediatype>audio</mediatype>
											<trackindex>5</trackindex>
											<clipindex>1</clipindex>
										</link>
										<link>
											<linkclipref>clipitem-205</linkclipref>
											<mediatype>audio</mediatype>
											<trackindex>6</trackindex>
											<clipindex>1</clipindex>
										</link>
									</clipitem>
								</track>
								<track>
									<clipitem id="clipitem-202">
										<masterclipid>masterclip-67</masterclipid>
										<name>3-02-1.WAV</name>
										<rate>
											<timebase>30</timebase>
											<ntsc>TRUE</ntsc>
										</rate>
										<file id="file-67"/>
										<sourcetrack>
											<mediatype>audio</mediatype>
											<trackindex>3</trackindex>
										</sourcetrack>
										<link>
											<linkclipref>clipitem-200</linkclipref>
											<mediatype>audio</mediatype>
											<trackindex>1</trackindex>
											<clipindex>1</clipindex>
										</link>
										<link>
											<linkclipref>clipitem-201</linkclipref>
											<mediatype>audio</mediatype>
											<trackindex>2</trackindex>
											<clipindex>1</clipindex>
										</link>
										<link>
											<linkclipref>clipitem-202</linkclipref>
											<mediatype>audio</mediatype>
											<trackindex>3</trackindex>
											<clipindex>1</clipindex>
										</link>
										<link>
											<linkclipref>clipitem-203</linkclipref>
											<mediatype>audio</mediatype>
											<trackindex>4</trackindex>
											<clipindex>1</clipindex>
										</link>
										<link>
											<linkclipref>clipitem-204</linkclipref>
											<mediatype>audio</mediatype>
											<trackindex>5</trackindex>
											<clipindex>1</clipindex>
										</link>
										<link>
											<linkclipref>clipitem-205</linkclipref>
											<mediatype>audio</mediatype>
											<trackindex>6</trackindex>
											<clipindex>1</clipindex>
										</link>
									</clipitem>
								</track>
								<track>
									<clipitem id="clipitem-203">
										<masterclipid>masterclip-67</masterclipid>
										<name>3-02-1.WAV</name>
										<rate>
											<timebase>30</timebase>
											<ntsc>TRUE</ntsc>
										</rate>
										<file id="file-67"/>
										<sourcetrack>
											<mediatype>audio</mediatype>
											<trackindex>4</trackindex>
										</sourcetrack>
										<link>
											<linkclipref>clipitem-200</linkclipref>
											<mediatype>audio</mediatype>
											<trackindex>1</trackindex>
											<clipindex>1</clipindex>
										</link>
										<link>
											<linkclipref>clipitem-201</linkclipref>
											<mediatype>audio</mediatype>
											<trackindex>2</trackindex>
											<clipindex>1</clipindex>
										</link>
										<link>
											<linkclipref>clipitem-202</linkclipref>
											<mediatype>audio</mediatype>
											<trackindex>3</trackindex>
											<clipindex>1</clipindex>
										</link>
										<link>
											<linkclipref>clipitem-203</linkclipref>
											<mediatype>audio</mediatype>
											<trackindex>4</trackindex>
											<clipindex>1</clipindex>
										</link>
										<link>
											<linkclipref>clipitem-204</linkclipref>
											<mediatype>audio</mediatype>
											<trackindex>5</trackindex>
											<clipindex>1</clipindex>
										</link>
										<link>
											<linkclipref>clipitem-205</linkclipref>
											<mediatype>audio</mediatype>
											<trackindex>6</trackindex>
											<clipindex>1</clipindex>
										</link>
									</clipitem>
								</track>
								<track>
									<clipitem id="clipitem-204">
										<masterclipid>masterclip-67</masterclipid>
										<name>3-02-1.WAV</name>
										<rate>
											<timebase>30</timebase>
											<ntsc>TRUE</ntsc>
										</rate>
										<file id="file-67"/>
										<sourcetrack>
											<mediatype>audio</mediatype>
											<trackindex>5</trackindex>
										</sourcetrack>
										<link>
											<linkclipref>clipitem-200</linkclipref>
											<mediatype>audio</mediatype>
											<trackindex>1</trackindex>
											<clipindex>1</clipindex>
										</link>
										<link>
											<linkclipref>clipitem-201</linkclipref>
											<mediatype>audio</mediatype>
											<trackindex>2</trackindex>
											<clipindex>1</clipindex>
										</link>
										<link>
											<linkclipref>clipitem-202</linkclipref>
											<mediatype>audio</mediatype>
											<trackindex>3</trackindex>
											<clipindex>1</clipindex>
										</link>
										<link>
											<linkclipref>clipitem-203</linkclipref>
											<mediatype>audio</mediatype>
											<trackindex>4</trackindex>
											<clipindex>1</clipindex>
										</link>
										<link>
											<linkclipref>clipitem-204</linkclipref>
											<mediatype>audio</mediatype>
											<trackindex>5</trackindex>
											<clipindex>1</clipindex>
										</link>
										<link>
											<linkclipref>clipitem-205</linkclipref>
											<mediatype>audio</mediatype>
											<trackindex>6</trackindex>
											<clipindex>1</clipindex>
										</link>
									</clipitem>
								</track>
								<track>
									<clipitem id="clipitem-205">
										<masterclipid>masterclip-67</masterclipid>
										<name>3-02-1.WAV</name>
										<rate>
											<timebase>30</timebase>
											<ntsc>TRUE</ntsc>
										</rate>
										<file id="file-67"/>
										<sourcetrack>
											<mediatype>audio</mediatype>
											<trackindex>6</trackindex>
										</sourcetrack>
										<link>
											<linkclipref>clipitem-200</linkclipref>
											<mediatype>audio</mediatype>
											<trackindex>1</trackindex>
											<clipindex>1</clipindex>
										</link>
										<link>
											<linkclipref>clipitem-201</linkclipref>
											<mediatype>audio</mediatype>
											<trackindex>2</trackindex>
											<clipindex>1</clipindex>
										</link>
										<link>
											<linkclipref>clipitem-202</linkclipref>
											<mediatype>audio</mediatype>
											<trackindex>3</trackindex>
											<clipindex>1</clipindex>
										</link>
										<link>
											<linkclipref>clipitem-203</linkclipref>
											<mediatype>audio</mediatype>
											<trackindex>4</trackindex>
											<clipindex>1</clipindex>
										</link>
										<link>
											<linkclipref>clipitem-204</linkclipref>
											<mediatype>audio</mediatype>
											<trackindex>5</trackindex>
											<clipindex>1</clipindex>
										</link>
										<link>
											<linkclipref>clipitem-205</linkclipref>
											<mediatype>audio</mediatype>
											<trackindex>6</trackindex>
											<clipindex>1</clipindex>
										</link>
									</clipitem>
								</track>
							</audio>
						</media>
							<marker>
								<comment></comment>
								<name></name>
								<in>667</in>
								<out>-1</out>
								<pproColor>4281828977</pproColor>
							</marker>
							<marker>
								<comment></comment>
								<name></name>
								<in>3067</in>
								<out>-1</out>
								<pproColor>4281740498</pproColor>
							</marker>
						<logginginfo>
							<description></description>
							<scene>3-02</scene>
							<shottake></shottake>
							<lognote></lognote>
							<good></good>
							<originalvideofilename></originalvideofilename>
							<originalaudiofilename></originalaudiofilename>
						</logginginfo>
						<colorinfo>
							<lut></lut>
							<lut1></lut1>
							<asc_sop></asc_sop>
							<asc_sat></asc_sat>
							<lut2></lut2>
						</colorinfo>
						<labels>
							<label2>Mango</label2>
						</labels>
					</clip>
					<clip id="masterclip-68" explodedTracks="true">
						<uuid>b9b55297-6590-4c01-bec3-5f12fe88ab9b</uuid>
						<masterclipid>masterclip-68</masterclipid>
						<ismasterclip>TRUE</ismasterclip>
						<duration>2637</duration>
						<rate>
							<timebase>30</timebase>
							<ntsc>TRUE</ntsc>
						</rate>
						<name>3-03-1.WAV</name>
						<media>
							<audio>
								<track>
									<clipitem id="clipitem-206">
										<masterclipid>masterclip-68</masterclipid>
										<name>3-03-1.WAV</name>
										<rate>
											<timebase>30</timebase>
											<ntsc>TRUE</ntsc>
										</rate>
										<file id="file-68">
											<name>3-03-1.WAV</name>
											<pathurl>file://localhost/S%3a/Projects/PRODIGAL_SON/AUDIO/190511_D01/3-03-1.WAV</pathurl>
											<rate>
												<timebase>30</timebase>
												<ntsc>TRUE</ntsc>
											</rate>
											<duration>2637</duration>
											<timecode>
												<rate>
													<timebase>30</timebase>
													<ntsc>TRUE</ntsc>
												</rate>
												<string>09;23;01;01</string>
												<frame>1012417</frame>
												<displayformat>DF</displayformat>
												<reel>
													<name>190511</name>
												</reel>
											</timecode>
											<media>
												<audio>
													<samplecharacteristics>
														<depth>16</depth>
														<samplerate>48000</samplerate>
													</samplecharacteristics>
													<channelcount>1</channelcount>
													<audiochannel>
														<sourcechannel>1</sourcechannel>
													</audiochannel>
												</audio>
												<audio>
													<samplecharacteristics>
														<depth>16</depth>
														<samplerate>48000</samplerate>
													</samplecharacteristics>
													<channelcount>1</channelcount>
													<audiochannel>
														<sourcechannel>2</sourcechannel>
													</audiochannel>
												</audio>
												<audio>
													<samplecharacteristics>
														<depth>16</depth>
														<samplerate>48000</samplerate>
													</samplecharacteristics>
													<channelcount>1</channelcount>
													<audiochannel>
														<sourcechannel>3</sourcechannel>
													</audiochannel>
												</audio>
												<audio>
													<samplecharacteristics>
														<depth>16</depth>
														<samplerate>48000</samplerate>
													</samplecharacteristics>
													<channelcount>1</channelcount>
													<audiochannel>
														<sourcechannel>4</sourcechannel>
													</audiochannel>
												</audio>
												<audio>
													<samplecharacteristics>
														<depth>16</depth>
														<samplerate>48000</samplerate>
													</samplecharacteristics>
													<channelcount>1</channelcount>
													<audiochannel>
														<sourcechannel>5</sourcechannel>
													</audiochannel>
												</audio>
												<audio>
													<samplecharacteristics>
														<depth>16</depth>
														<samplerate>48000</samplerate>
													</samplecharacteristics>
													<channelcount>1</channelcount>
													<audiochannel>
														<sourcechannel>6</sourcechannel>
													</audiochannel>
												</audio>
											</media>
										</file>
										<sourcetrack>
											<mediatype>audio</mediatype>
											<trackindex>1</trackindex>
										</sourcetrack>
										<link>
											<linkclipref>clipitem-206</linkclipref>
											<mediatype>audio</mediatype>
											<trackindex>1</trackindex>
											<clipindex>1</clipindex>
										</link>
										<link>
											<linkclipref>clipitem-207</linkclipref>
											<mediatype>audio</mediatype>
											<trackindex>2</trackindex>
											<clipindex>1</clipindex>
										</link>
										<link>
											<linkclipref>clipitem-208</linkclipref>
											<mediatype>audio</mediatype>
											<trackindex>3</trackindex>
											<clipindex>1</clipindex>
										</link>
										<link>
											<linkclipref>clipitem-209</linkclipref>
											<mediatype>audio</mediatype>
											<trackindex>4</trackindex>
											<clipindex>1</clipindex>
										</link>
										<link>
											<linkclipref>clipitem-210</linkclipref>
											<mediatype>audio</mediatype>
											<trackindex>5</trackindex>
											<clipindex>1</clipindex>
										</link>
										<link>
											<linkclipref>clipitem-211</linkclipref>
											<mediatype>audio</mediatype>
											<trackindex>6</trackindex>
											<clipindex>1</clipindex>
										</link>
									</clipitem>
								</track>
								<track>
									<clipitem id="clipitem-207">
										<masterclipid>masterclip-68</masterclipid>
										<name>3-03-1.WAV</name>
										<rate>
											<timebase>30</timebase>
											<ntsc>TRUE</ntsc>
										</rate>
										<file id="file-68"/>
										<sourcetrack>
											<mediatype>audio</mediatype>
											<trackindex>2</trackindex>
										</sourcetrack>
										<link>
											<linkclipref>clipitem-206</linkclipref>
											<mediatype>audio</mediatype>
											<trackindex>1</trackindex>
											<clipindex>1</clipindex>
										</link>
										<link>
											<linkclipref>clipitem-207</linkclipref>
											<mediatype>audio</mediatype>
											<trackindex>2</trackindex>
											<clipindex>1</clipindex>
										</link>
										<link>
											<linkclipref>clipitem-208</linkclipref>
											<mediatype>audio</mediatype>
											<trackindex>3</trackindex>
											<clipindex>1</clipindex>
										</link>
										<link>
											<linkclipref>clipitem-209</linkclipref>
											<mediatype>audio</mediatype>
											<trackindex>4</trackindex>
											<clipindex>1</clipindex>
										</link>
										<link>
											<linkclipref>clipitem-210</linkclipref>
											<mediatype>audio</mediatype>
											<trackindex>5</trackindex>
											<clipindex>1</clipindex>
										</link>
										<link>
											<linkclipref>clipitem-211</linkclipref>
											<mediatype>audio</mediatype>
											<trackindex>6</trackindex>
											<clipindex>1</clipindex>
										</link>
									</clipitem>
								</track>
								<track>
									<clipitem id="clipitem-208">
										<masterclipid>masterclip-68</masterclipid>
										<name>3-03-1.WAV</name>
										<rate>
											<timebase>30</timebase>
											<ntsc>TRUE</ntsc>
										</rate>
										<file id="file-68"/>
										<sourcetrack>
											<mediatype>audio</mediatype>
											<trackindex>3</trackindex>
										</sourcetrack>
										<link>
											<linkclipref>clipitem-206</linkclipref>
											<mediatype>audio</mediatype>
											<trackindex>1</trackindex>
											<clipindex>1</clipindex>
										</link>
										<link>
											<linkclipref>clipitem-207</linkclipref>
											<mediatype>audio</mediatype>
											<trackindex>2</trackindex>
											<clipindex>1</clipindex>
										</link>
										<link>
											<linkclipref>clipitem-208</linkclipref>
											<mediatype>audio</mediatype>
											<trackindex>3</trackindex>
											<clipindex>1</clipindex>
										</link>
										<link>
											<linkclipref>clipitem-209</linkclipref>
											<mediatype>audio</mediatype>
											<trackindex>4</trackindex>
											<clipindex>1</clipindex>
										</link>
										<link>
											<linkclipref>clipitem-210</linkclipref>
											<mediatype>audio</mediatype>
											<trackindex>5</trackindex>
											<clipindex>1</clipindex>
										</link>
										<link>
											<linkclipref>clipitem-211</linkclipref>
											<mediatype>audio</mediatype>
											<trackindex>6</trackindex>
											<clipindex>1</clipindex>
										</link>
									</clipitem>
								</track>
								<track>
									<clipitem id="clipitem-209">
										<masterclipid>masterclip-68</masterclipid>
										<name>3-03-1.WAV</name>
										<rate>
											<timebase>30</timebase>
											<ntsc>TRUE</ntsc>
										</rate>
										<file id="file-68"/>
										<sourcetrack>
											<mediatype>audio</mediatype>
											<trackindex>4</trackindex>
										</sourcetrack>
										<link>
											<linkclipref>clipitem-206</linkclipref>
											<mediatype>audio</mediatype>
											<trackindex>1</trackindex>
											<clipindex>1</clipindex>
										</link>
										<link>
											<linkclipref>clipitem-207</linkclipref>
											<mediatype>audio</mediatype>
											<trackindex>2</trackindex>
											<clipindex>1</clipindex>
										</link>
										<link>
											<linkclipref>clipitem-208</linkclipref>
											<mediatype>audio</mediatype>
											<trackindex>3</trackindex>
											<clipindex>1</clipindex>
										</link>
										<link>
											<linkclipref>clipitem-209</linkclipref>
											<mediatype>audio</mediatype>
											<trackindex>4</trackindex>
											<clipindex>1</clipindex>
										</link>
										<link>
											<linkclipref>clipitem-210</linkclipref>
											<mediatype>audio</mediatype>
											<trackindex>5</trackindex>
											<clipindex>1</clipindex>
										</link>
										<link>
											<linkclipref>clipitem-211</linkclipref>
											<mediatype>audio</mediatype>
											<trackindex>6</trackindex>
											<clipindex>1</clipindex>
										</link>
									</clipitem>
								</track>
								<track>
									<clipitem id="clipitem-210">
										<masterclipid>masterclip-68</masterclipid>
										<name>3-03-1.WAV</name>
										<rate>
											<timebase>30</timebase>
											<ntsc>TRUE</ntsc>
										</rate>
										<file id="file-68"/>
										<sourcetrack>
											<mediatype>audio</mediatype>
											<trackindex>5</trackindex>
										</sourcetrack>
										<link>
											<linkclipref>clipitem-206</linkclipref>
											<mediatype>audio</mediatype>
											<trackindex>1</trackindex>
											<clipindex>1</clipindex>
										</link>
										<link>
											<linkclipref>clipitem-207</linkclipref>
											<mediatype>audio</mediatype>
											<trackindex>2</trackindex>
											<clipindex>1</clipindex>
										</link>
										<link>
											<linkclipref>clipitem-208</linkclipref>
											<mediatype>audio</mediatype>
											<trackindex>3</trackindex>
											<clipindex>1</clipindex>
										</link>
										<link>
											<linkclipref>clipitem-209</linkclipref>
											<mediatype>audio</mediatype>
											<trackindex>4</trackindex>
											<clipindex>1</clipindex>
										</link>
										<link>
											<linkclipref>clipitem-210</linkclipref>
											<mediatype>audio</mediatype>
											<trackindex>5</trackindex>
											<clipindex>1</clipindex>
										</link>
										<link>
											<linkclipref>clipitem-211</linkclipref>
											<mediatype>audio</mediatype>
											<trackindex>6</trackindex>
											<clipindex>1</clipindex>
										</link>
									</clipitem>
								</track>
								<track>
									<clipitem id="clipitem-211">
										<masterclipid>masterclip-68</masterclipid>
										<name>3-03-1.WAV</name>
										<rate>
											<timebase>30</timebase>
											<ntsc>TRUE</ntsc>
										</rate>
										<file id="file-68"/>
										<sourcetrack>
											<mediatype>audio</mediatype>
											<trackindex>6</trackindex>
										</sourcetrack>
										<link>
											<linkclipref>clipitem-206</linkclipref>
											<mediatype>audio</mediatype>
											<trackindex>1</trackindex>
											<clipindex>1</clipindex>
										</link>
										<link>
											<linkclipref>clipitem-207</linkclipref>
											<mediatype>audio</mediatype>
											<trackindex>2</trackindex>
											<clipindex>1</clipindex>
										</link>
										<link>
											<linkclipref>clipitem-208</linkclipref>
											<mediatype>audio</mediatype>
											<trackindex>3</trackindex>
											<clipindex>1</clipindex>
										</link>
										<link>
											<linkclipref>clipitem-209</linkclipref>
											<mediatype>audio</mediatype>
											<trackindex>4</trackindex>
											<clipindex>1</clipindex>
										</link>
										<link>
											<linkclipref>clipitem-210</linkclipref>
											<mediatype>audio</mediatype>
											<trackindex>5</trackindex>
											<clipindex>1</clipindex>
										</link>
										<link>
											<linkclipref>clipitem-211</linkclipref>
											<mediatype>audio</mediatype>
											<trackindex>6</trackindex>
											<clipindex>1</clipindex>
										</link>
									</clipitem>
								</track>
							</audio>
						</media>
							<marker>
								<comment></comment>
								<name></name>
								<in>631</in>
								<out>-1</out>
								<pproColor>4281828977</pproColor>
							</marker>
							<marker>
								<comment></comment>
								<name></name>
								<in>2276</in>
								<out>-1</out>
								<pproColor>4281740498</pproColor>
							</marker>
						<logginginfo>
							<description></description>
							<scene>3-03</scene>
							<shottake></shottake>
							<lognote></lognote>
							<good></good>
							<originalvideofilename></originalvideofilename>
							<originalaudiofilename></originalaudiofilename>
						</logginginfo>
						<colorinfo>
							<lut></lut>
							<lut1></lut1>
							<asc_sop></asc_sop>
							<asc_sat></asc_sat>
							<lut2></lut2>
						</colorinfo>
						<labels>
							<label2>Mango</label2>
						</labels>
					</clip>
					<clip id="masterclip-69" explodedTracks="true">
						<uuid>6a2ec8f1-a1fb-4363-8e5b-b5ede1d61bba</uuid>
						<masterclipid>masterclip-69</masterclipid>
						<ismasterclip>TRUE</ismasterclip>
						<duration>3536</duration>
						<rate>
							<timebase>30</timebase>
							<ntsc>TRUE</ntsc>
						</rate>
						<name>3-ATMOS-1.WAV</name>
						<media>
							<audio>
								<track>
									<clipitem id="clipitem-212">
										<masterclipid>masterclip-69</masterclipid>
										<name>3-ATMOS-1.WAV</name>
										<rate>
											<timebase>30</timebase>
											<ntsc>TRUE</ntsc>
										</rate>
										<file id="file-69">
											<name>3-ATMOS-1.WAV</name>
											<pathurl>file://localhost/S%3a/Projects/PRODIGAL_SON/AUDIO/190511_D01/3-ATMOS-1.WAV</pathurl>
											<rate>
												<timebase>30</timebase>
												<ntsc>TRUE</ntsc>
											</rate>
											<duration>3536</duration>
											<timecode>
												<rate>
													<timebase>30</timebase>
													<ntsc>TRUE</ntsc>
												</rate>
												<string>09;48;28;01</string>
												<frame>1058181</frame>
												<displayformat>DF</displayformat>
												<reel>
													<name>190511</name>
												</reel>
											</timecode>
											<media>
												<audio>
													<samplecharacteristics>
														<depth>16</depth>
														<samplerate>48000</samplerate>
													</samplecharacteristics>
													<channelcount>1</channelcount>
													<audiochannel>
														<sourcechannel>1</sourcechannel>
													</audiochannel>
												</audio>
												<audio>
													<samplecharacteristics>
														<depth>16</depth>
														<samplerate>48000</samplerate>
													</samplecharacteristics>
													<channelcount>1</channelcount>
													<audiochannel>
														<sourcechannel>2</sourcechannel>
													</audiochannel>
												</audio>
												<audio>
													<samplecharacteristics>
														<depth>16</depth>
														<samplerate>48000</samplerate>
													</samplecharacteristics>
													<channelcount>1</channelcount>
													<audiochannel>
														<sourcechannel>3</sourcechannel>
													</audiochannel>
												</audio>
												<audio>
													<samplecharacteristics>
														<depth>16</depth>
														<samplerate>48000</samplerate>
													</samplecharacteristics>
													<channelcount>1</channelcount>
													<audiochannel>
														<sourcechannel>4</sourcechannel>
													</audiochannel>
												</audio>
												<audio>
													<samplecharacteristics>
														<depth>16</depth>
														<samplerate>48000</samplerate>
													</samplecharacteristics>
													<channelcount>1</channelcount>
													<audiochannel>
														<sourcechannel>5</sourcechannel>
													</audiochannel>
												</audio>
												<audio>
													<samplecharacteristics>
														<depth>16</depth>
														<samplerate>48000</samplerate>
													</samplecharacteristics>
													<channelcount>1</channelcount>
													<audiochannel>
														<sourcechannel>6</sourcechannel>
													</audiochannel>
												</audio>
											</media>
										</file>
										<sourcetrack>
											<mediatype>audio</mediatype>
											<trackindex>1</trackindex>
										</sourcetrack>
										<link>
											<linkclipref>clipitem-212</linkclipref>
											<mediatype>audio</mediatype>
											<trackindex>1</trackindex>
											<clipindex>1</clipindex>
										</link>
										<link>
											<linkclipref>clipitem-213</linkclipref>
											<mediatype>audio</mediatype>
											<trackindex>2</trackindex>
											<clipindex>1</clipindex>
										</link>
										<link>
											<linkclipref>clipitem-214</linkclipref>
											<mediatype>audio</mediatype>
											<trackindex>3</trackindex>
											<clipindex>1</clipindex>
										</link>
										<link>
											<linkclipref>clipitem-215</linkclipref>
											<mediatype>audio</mediatype>
											<trackindex>4</trackindex>
											<clipindex>1</clipindex>
										</link>
										<link>
											<linkclipref>clipitem-216</linkclipref>
											<mediatype>audio</mediatype>
											<trackindex>5</trackindex>
											<clipindex>1</clipindex>
										</link>
										<link>
											<linkclipref>clipitem-217</linkclipref>
											<mediatype>audio</mediatype>
											<trackindex>6</trackindex>
											<clipindex>1</clipindex>
										</link>
									</clipitem>
								</track>
								<track>
									<clipitem id="clipitem-213">
										<masterclipid>masterclip-69</masterclipid>
										<name>3-ATMOS-1.WAV</name>
										<rate>
											<timebase>30</timebase>
											<ntsc>TRUE</ntsc>
										</rate>
										<file id="file-69"/>
										<sourcetrack>
											<mediatype>audio</mediatype>
											<trackindex>2</trackindex>
										</sourcetrack>
										<link>
											<linkclipref>clipitem-212</linkclipref>
											<mediatype>audio</mediatype>
											<trackindex>1</trackindex>
											<clipindex>1</clipindex>
										</link>
										<link>
											<linkclipref>clipitem-213</linkclipref>
											<mediatype>audio</mediatype>
											<trackindex>2</trackindex>
											<clipindex>1</clipindex>
										</link>
										<link>
											<linkclipref>clipitem-214</linkclipref>
											<mediatype>audio</mediatype>
											<trackindex>3</trackindex>
											<clipindex>1</clipindex>
										</link>
										<link>
											<linkclipref>clipitem-215</linkclipref>
											<mediatype>audio</mediatype>
											<trackindex>4</trackindex>
											<clipindex>1</clipindex>
										</link>
										<link>
											<linkclipref>clipitem-216</linkclipref>
											<mediatype>audio</mediatype>
											<trackindex>5</trackindex>
											<clipindex>1</clipindex>
										</link>
										<link>
											<linkclipref>clipitem-217</linkclipref>
											<mediatype>audio</mediatype>
											<trackindex>6</trackindex>
											<clipindex>1</clipindex>
										</link>
									</clipitem>
								</track>
								<track>
									<clipitem id="clipitem-214">
										<masterclipid>masterclip-69</masterclipid>
										<name>3-ATMOS-1.WAV</name>
										<rate>
											<timebase>30</timebase>
											<ntsc>TRUE</ntsc>
										</rate>
										<file id="file-69"/>
										<sourcetrack>
											<mediatype>audio</mediatype>
											<trackindex>3</trackindex>
										</sourcetrack>
										<link>
											<linkclipref>clipitem-212</linkclipref>
											<mediatype>audio</mediatype>
											<trackindex>1</trackindex>
											<clipindex>1</clipindex>
										</link>
										<link>
											<linkclipref>clipitem-213</linkclipref>
											<mediatype>audio</mediatype>
											<trackindex>2</trackindex>
											<clipindex>1</clipindex>
										</link>
										<link>
											<linkclipref>clipitem-214</linkclipref>
											<mediatype>audio</mediatype>
											<trackindex>3</trackindex>
											<clipindex>1</clipindex>
										</link>
										<link>
											<linkclipref>clipitem-215</linkclipref>
											<mediatype>audio</mediatype>
											<trackindex>4</trackindex>
											<clipindex>1</clipindex>
										</link>
										<link>
											<linkclipref>clipitem-216</linkclipref>
											<mediatype>audio</mediatype>
											<trackindex>5</trackindex>
											<clipindex>1</clipindex>
										</link>
										<link>
											<linkclipref>clipitem-217</linkclipref>
											<mediatype>audio</mediatype>
											<trackindex>6</trackindex>
											<clipindex>1</clipindex>
										</link>
									</clipitem>
								</track>
								<track>
									<clipitem id="clipitem-215">
										<masterclipid>masterclip-69</masterclipid>
										<name>3-ATMOS-1.WAV</name>
										<rate>
											<timebase>30</timebase>
											<ntsc>TRUE</ntsc>
										</rate>
										<file id="file-69"/>
										<sourcetrack>
											<mediatype>audio</mediatype>
											<trackindex>4</trackindex>
										</sourcetrack>
										<link>
											<linkclipref>clipitem-212</linkclipref>
											<mediatype>audio</mediatype>
											<trackindex>1</trackindex>
											<clipindex>1</clipindex>
										</link>
										<link>
											<linkclipref>clipitem-213</linkclipref>
											<mediatype>audio</mediatype>
											<trackindex>2</trackindex>
											<clipindex>1</clipindex>
										</link>
										<link>
											<linkclipref>clipitem-214</linkclipref>
											<mediatype>audio</mediatype>
											<trackindex>3</trackindex>
											<clipindex>1</clipindex>
										</link>
										<link>
											<linkclipref>clipitem-215</linkclipref>
											<mediatype>audio</mediatype>
											<trackindex>4</trackindex>
											<clipindex>1</clipindex>
										</link>
										<link>
											<linkclipref>clipitem-216</linkclipref>
											<mediatype>audio</mediatype>
											<trackindex>5</trackindex>
											<clipindex>1</clipindex>
										</link>
										<link>
											<linkclipref>clipitem-217</linkclipref>
											<mediatype>audio</mediatype>
											<trackindex>6</trackindex>
											<clipindex>1</clipindex>
										</link>
									</clipitem>
								</track>
								<track>
									<clipitem id="clipitem-216">
										<masterclipid>masterclip-69</masterclipid>
										<name>3-ATMOS-1.WAV</name>
										<rate>
											<timebase>30</timebase>
											<ntsc>TRUE</ntsc>
										</rate>
										<file id="file-69"/>
										<sourcetrack>
											<mediatype>audio</mediatype>
											<trackindex>5</trackindex>
										</sourcetrack>
										<link>
											<linkclipref>clipitem-212</linkclipref>
											<mediatype>audio</mediatype>
											<trackindex>1</trackindex>
											<clipindex>1</clipindex>
										</link>
										<link>
											<linkclipref>clipitem-213</linkclipref>
											<mediatype>audio</mediatype>
											<trackindex>2</trackindex>
											<clipindex>1</clipindex>
										</link>
										<link>
											<linkclipref>clipitem-214</linkclipref>
											<mediatype>audio</mediatype>
											<trackindex>3</trackindex>
											<clipindex>1</clipindex>
										</link>
										<link>
											<linkclipref>clipitem-215</linkclipref>
											<mediatype>audio</mediatype>
											<trackindex>4</trackindex>
											<clipindex>1</clipindex>
										</link>
										<link>
											<linkclipref>clipitem-216</linkclipref>
											<mediatype>audio</mediatype>
											<trackindex>5</trackindex>
											<clipindex>1</clipindex>
										</link>
										<link>
											<linkclipref>clipitem-217</linkclipref>
											<mediatype>audio</mediatype>
											<trackindex>6</trackindex>
											<clipindex>1</clipindex>
										</link>
									</clipitem>
								</track>
								<track>
									<clipitem id="clipitem-217">
										<masterclipid>masterclip-69</masterclipid>
										<name>3-ATMOS-1.WAV</name>
										<rate>
											<timebase>30</timebase>
											<ntsc>TRUE</ntsc>
										</rate>
										<file id="file-69"/>
										<sourcetrack>
											<mediatype>audio</mediatype>
											<trackindex>6</trackindex>
										</sourcetrack>
										<link>
											<linkclipref>clipitem-212</linkclipref>
											<mediatype>audio</mediatype>
											<trackindex>1</trackindex>
											<clipindex>1</clipindex>
										</link>
										<link>
											<linkclipref>clipitem-213</linkclipref>
											<mediatype>audio</mediatype>
											<trackindex>2</trackindex>
											<clipindex>1</clipindex>
										</link>
										<link>
											<linkclipref>clipitem-214</linkclipref>
											<mediatype>audio</mediatype>
											<trackindex>3</trackindex>
											<clipindex>1</clipindex>
										</link>
										<link>
											<linkclipref>clipitem-215</linkclipref>
											<mediatype>audio</mediatype>
											<trackindex>4</trackindex>
											<clipindex>1</clipindex>
										</link>
										<link>
											<linkclipref>clipitem-216</linkclipref>
											<mediatype>audio</mediatype>
											<trackindex>5</trackindex>
											<clipindex>1</clipindex>
										</link>
										<link>
											<linkclipref>clipitem-217</linkclipref>
											<mediatype>audio</mediatype>
											<trackindex>6</trackindex>
											<clipindex>1</clipindex>
										</link>
									</clipitem>
								</track>
							</audio>
						</media>
						<logginginfo>
							<description></description>
							<scene>3-ATMOS</scene>
							<shottake></shottake>
							<lognote></lognote>
							<good></good>
							<originalvideofilename></originalvideofilename>
							<originalaudiofilename></originalaudiofilename>
						</logginginfo>
						<colorinfo>
							<lut></lut>
							<lut1></lut1>
							<asc_sop></asc_sop>
							<asc_sat></asc_sat>
							<lut2></lut2>
						</colorinfo>
						<labels>
							<label2>Mango</label2>
						</labels>
					</clip>
					<clip id="masterclip-70" explodedTracks="true">
						<uuid>51426b38-3e47-46a8-9f23-8027cde86b48</uuid>
						<masterclipid>masterclip-70</masterclipid>
						<ismasterclip>TRUE</ismasterclip>
						<duration>2037</duration>
						<rate>
							<timebase>30</timebase>
							<ntsc>TRUE</ntsc>
						</rate>
						<name>3-RT-1.WAV</name>
						<media>
							<audio>
								<track>
									<clipitem id="clipitem-218">
										<masterclipid>masterclip-70</masterclipid>
										<name>3-RT-1.WAV</name>
										<rate>
											<timebase>30</timebase>
											<ntsc>TRUE</ntsc>
										</rate>
										<file id="file-70">
											<name>3-RT-1.WAV</name>
											<pathurl>file://localhost/S%3a/Projects/PRODIGAL_SON/AUDIO/190511_D01/3-RT-1.WAV</pathurl>
											<rate>
												<timebase>30</timebase>
												<ntsc>TRUE</ntsc>
											</rate>
											<duration>2037</duration>
											<timecode>
												<rate>
													<timebase>30</timebase>
													<ntsc>TRUE</ntsc>
												</rate>
												<string>18;51;47;00</string>
												<frame>2035174</frame>
												<displayformat>DF</displayformat>
												<reel>
													<name>190511</name>
												</reel>
											</timecode>
											<media>
												<audio>
													<samplecharacteristics>
														<depth>16</depth>
														<samplerate>48000</samplerate>
													</samplecharacteristics>
													<channelcount>1</channelcount>
													<audiochannel>
														<sourcechannel>1</sourcechannel>
													</audiochannel>
												</audio>
												<audio>
													<samplecharacteristics>
														<depth>16</depth>
														<samplerate>48000</samplerate>
													</samplecharacteristics>
													<channelcount>1</channelcount>
													<audiochannel>
														<sourcechannel>2</sourcechannel>
													</audiochannel>
												</audio>
												<audio>
													<samplecharacteristics>
														<depth>16</depth>
														<samplerate>48000</samplerate>
													</samplecharacteristics>
													<channelcount>1</channelcount>
													<audiochannel>
														<sourcechannel>3</sourcechannel>
													</audiochannel>
												</audio>
												<audio>
													<samplecharacteristics>
														<depth>16</depth>
														<samplerate>48000</samplerate>
													</samplecharacteristics>
													<channelcount>1</channelcount>
													<audiochannel>
														<sourcechannel>4</sourcechannel>
													</audiochannel>
												</audio>
											</media>
										</file>
										<sourcetrack>
											<mediatype>audio</mediatype>
											<trackindex>1</trackindex>
										</sourcetrack>
										<link>
											<linkclipref>clipitem-218</linkclipref>
											<mediatype>audio</mediatype>
											<trackindex>1</trackindex>
											<clipindex>1</clipindex>
										</link>
										<link>
											<linkclipref>clipitem-219</linkclipref>
											<mediatype>audio</mediatype>
											<trackindex>2</trackindex>
											<clipindex>1</clipindex>
										</link>
										<link>
											<linkclipref>clipitem-220</linkclipref>
											<mediatype>audio</mediatype>
											<trackindex>3</trackindex>
											<clipindex>1</clipindex>
										</link>
										<link>
											<linkclipref>clipitem-221</linkclipref>
											<mediatype>audio</mediatype>
											<trackindex>4</trackindex>
											<clipindex>1</clipindex>
										</link>
									</clipitem>
								</track>
								<track>
									<clipitem id="clipitem-219">
										<masterclipid>masterclip-70</masterclipid>
										<name>3-RT-1.WAV</name>
										<rate>
											<timebase>30</timebase>
											<ntsc>TRUE</ntsc>
										</rate>
										<file id="file-70"/>
										<sourcetrack>
											<mediatype>audio</mediatype>
											<trackindex>2</trackindex>
										</sourcetrack>
										<link>
											<linkclipref>clipitem-218</linkclipref>
											<mediatype>audio</mediatype>
											<trackindex>1</trackindex>
											<clipindex>1</clipindex>
										</link>
										<link>
											<linkclipref>clipitem-219</linkclipref>
											<mediatype>audio</mediatype>
											<trackindex>2</trackindex>
											<clipindex>1</clipindex>
										</link>
										<link>
											<linkclipref>clipitem-220</linkclipref>
											<mediatype>audio</mediatype>
											<trackindex>3</trackindex>
											<clipindex>1</clipindex>
										</link>
										<link>
											<linkclipref>clipitem-221</linkclipref>
											<mediatype>audio</mediatype>
											<trackindex>4</trackindex>
											<clipindex>1</clipindex>
										</link>
									</clipitem>
								</track>
								<track>
									<clipitem id="clipitem-220">
										<masterclipid>masterclip-70</masterclipid>
										<name>3-RT-1.WAV</name>
										<rate>
											<timebase>30</timebase>
											<ntsc>TRUE</ntsc>
										</rate>
										<file id="file-70"/>
										<sourcetrack>
											<mediatype>audio</mediatype>
											<trackindex>3</trackindex>
										</sourcetrack>
										<link>
											<linkclipref>clipitem-218</linkclipref>
											<mediatype>audio</mediatype>
											<trackindex>1</trackindex>
											<clipindex>1</clipindex>
										</link>
										<link>
											<linkclipref>clipitem-219</linkclipref>
											<mediatype>audio</mediatype>
											<trackindex>2</trackindex>
											<clipindex>1</clipindex>
										</link>
										<link>
											<linkclipref>clipitem-220</linkclipref>
											<mediatype>audio</mediatype>
											<trackindex>3</trackindex>
											<clipindex>1</clipindex>
										</link>
										<link>
											<linkclipref>clipitem-221</linkclipref>
											<mediatype>audio</mediatype>
											<trackindex>4</trackindex>
											<clipindex>1</clipindex>
										</link>
									</clipitem>
								</track>
								<track>
									<clipitem id="clipitem-221">
										<masterclipid>masterclip-70</masterclipid>
										<name>3-RT-1.WAV</name>
										<rate>
											<timebase>30</timebase>
											<ntsc>TRUE</ntsc>
										</rate>
										<file id="file-70"/>
										<sourcetrack>
											<mediatype>audio</mediatype>
											<trackindex>4</trackindex>
										</sourcetrack>
										<link>
											<linkclipref>clipitem-218</linkclipref>
											<mediatype>audio</mediatype>
											<trackindex>1</trackindex>
											<clipindex>1</clipindex>
										</link>
										<link>
											<linkclipref>clipitem-219</linkclipref>
											<mediatype>audio</mediatype>
											<trackindex>2</trackindex>
											<clipindex>1</clipindex>
										</link>
										<link>
											<linkclipref>clipitem-220</linkclipref>
											<mediatype>audio</mediatype>
											<trackindex>3</trackindex>
											<clipindex>1</clipindex>
										</link>
										<link>
											<linkclipref>clipitem-221</linkclipref>
											<mediatype>audio</mediatype>
											<trackindex>4</trackindex>
											<clipindex>1</clipindex>
										</link>
									</clipitem>
								</track>
							</audio>
						</media>
						<logginginfo>
							<description></description>
							<scene>3-RT</scene>
							<shottake></shottake>
							<lognote></lognote>
							<good></good>
							<originalvideofilename></originalvideofilename>
							<originalaudiofilename></originalaudiofilename>
						</logginginfo>
						<colorinfo>
							<lut></lut>
							<lut1></lut1>
							<asc_sop></asc_sop>
							<asc_sat></asc_sat>
							<lut2></lut2>
						</colorinfo>
						<labels>
							<label2>Mango</label2>
						</labels>
					</clip>
					<clip id="masterclip-71" explodedTracks="true">
						<uuid>a5d2e939-f94c-43e9-b57b-5107948c03b8</uuid>
						<masterclipid>masterclip-71</masterclipid>
						<ismasterclip>TRUE</ismasterclip>
						<duration>2847</duration>
						<rate>
							<timebase>30</timebase>
							<ntsc>TRUE</ntsc>
						</rate>
						<name>3-WILD-MOTHER-1.WAV</name>
						<media>
							<audio>
								<track>
									<clipitem id="clipitem-222">
										<masterclipid>masterclip-71</masterclipid>
										<name>3-WILD-MOTHER-1.WAV</name>
										<rate>
											<timebase>30</timebase>
											<ntsc>TRUE</ntsc>
										</rate>
										<file id="file-71">
											<name>3-WILD-MOTHER-1.WAV</name>
											<pathurl>file://localhost/S%3a/Projects/PRODIGAL_SON/AUDIO/190511_D01/3-WILD-MOTHER-1.WAV</pathurl>
											<rate>
												<timebase>30</timebase>
												<ntsc>TRUE</ntsc>
											</rate>
											<duration>2847</duration>
											<timecode>
												<rate>
													<timebase>30</timebase>
													<ntsc>TRUE</ntsc>
												</rate>
												<string>18;49;45;02</string>
												<frame>2031518</frame>
												<displayformat>DF</displayformat>
												<reel>
													<name>190511</name>
												</reel>
											</timecode>
											<media>
												<audio>
													<samplecharacteristics>
														<depth>16</depth>
														<samplerate>48000</samplerate>
													</samplecharacteristics>
													<channelcount>1</channelcount>
													<audiochannel>
														<sourcechannel>1</sourcechannel>
													</audiochannel>
												</audio>
												<audio>
													<samplecharacteristics>
														<depth>16</depth>
														<samplerate>48000</samplerate>
													</samplecharacteristics>
													<channelcount>1</channelcount>
													<audiochannel>
														<sourcechannel>2</sourcechannel>
													</audiochannel>
												</audio>
												<audio>
													<samplecharacteristics>
														<depth>16</depth>
														<samplerate>48000</samplerate>
													</samplecharacteristics>
													<channelcount>1</channelcount>
													<audiochannel>
														<sourcechannel>3</sourcechannel>
													</audiochannel>
												</audio>
												<audio>
													<samplecharacteristics>
														<depth>16</depth>
														<samplerate>48000</samplerate>
													</samplecharacteristics>
													<channelcount>1</channelcount>
													<audiochannel>
														<sourcechannel>4</sourcechannel>
													</audiochannel>
												</audio>
												<audio>
													<samplecharacteristics>
														<depth>16</depth>
														<samplerate>48000</samplerate>
													</samplecharacteristics>
													<channelcount>1</channelcount>
													<audiochannel>
														<sourcechannel>5</sourcechannel>
													</audiochannel>
												</audio>
												<audio>
													<samplecharacteristics>
														<depth>16</depth>
														<samplerate>48000</samplerate>
													</samplecharacteristics>
													<channelcount>1</channelcount>
													<audiochannel>
														<sourcechannel>6</sourcechannel>
													</audiochannel>
												</audio>
												<audio>
													<samplecharacteristics>
														<depth>16</depth>
														<samplerate>48000</samplerate>
													</samplecharacteristics>
													<channelcount>1</channelcount>
													<audiochannel>
														<sourcechannel>7</sourcechannel>
													</audiochannel>
												</audio>
												<audio>
													<samplecharacteristics>
														<depth>16</depth>
														<samplerate>48000</samplerate>
													</samplecharacteristics>
													<channelcount>1</channelcount>
													<audiochannel>
														<sourcechannel>8</sourcechannel>
													</audiochannel>
												</audio>
											</media>
										</file>
										<sourcetrack>
											<mediatype>audio</mediatype>
											<trackindex>1</trackindex>
										</sourcetrack>
										<link>
											<linkclipref>clipitem-222</linkclipref>
											<mediatype>audio</mediatype>
											<trackindex>1</trackindex>
											<clipindex>1</clipindex>
										</link>
										<link>
											<linkclipref>clipitem-223</linkclipref>
											<mediatype>audio</mediatype>
											<trackindex>2</trackindex>
											<clipindex>1</clipindex>
										</link>
										<link>
											<linkclipref>clipitem-224</linkclipref>
											<mediatype>audio</mediatype>
											<trackindex>3</trackindex>
											<clipindex>1</clipindex>
										</link>
										<link>
											<linkclipref>clipitem-225</linkclipref>
											<mediatype>audio</mediatype>
											<trackindex>4</trackindex>
											<clipindex>1</clipindex>
										</link>
										<link>
											<linkclipref>clipitem-226</linkclipref>
											<mediatype>audio</mediatype>
											<trackindex>5</trackindex>
											<clipindex>1</clipindex>
										</link>
										<link>
											<linkclipref>clipitem-227</linkclipref>
											<mediatype>audio</mediatype>
											<trackindex>6</trackindex>
											<clipindex>1</clipindex>
										</link>
										<link>
											<linkclipref>clipitem-228</linkclipref>
											<mediatype>audio</mediatype>
											<trackindex>7</trackindex>
											<clipindex>1</clipindex>
										</link>
										<link>
											<linkclipref>clipitem-229</linkclipref>
											<mediatype>audio</mediatype>
											<trackindex>8</trackindex>
											<clipindex>1</clipindex>
										</link>
									</clipitem>
								</track>
								<track>
									<clipitem id="clipitem-223">
										<masterclipid>masterclip-71</masterclipid>
										<name>3-WILD-MOTHER-1.WAV</name>
										<rate>
											<timebase>30</timebase>
											<ntsc>TRUE</ntsc>
										</rate>
										<file id="file-71"/>
										<sourcetrack>
											<mediatype>audio</mediatype>
											<trackindex>2</trackindex>
										</sourcetrack>
										<link>
											<linkclipref>clipitem-222</linkclipref>
											<mediatype>audio</mediatype>
											<trackindex>1</trackindex>
											<clipindex>1</clipindex>
										</link>
										<link>
											<linkclipref>clipitem-223</linkclipref>
											<mediatype>audio</mediatype>
											<trackindex>2</trackindex>
											<clipindex>1</clipindex>
										</link>
										<link>
											<linkclipref>clipitem-224</linkclipref>
											<mediatype>audio</mediatype>
											<trackindex>3</trackindex>
											<clipindex>1</clipindex>
										</link>
										<link>
											<linkclipref>clipitem-225</linkclipref>
											<mediatype>audio</mediatype>
											<trackindex>4</trackindex>
											<clipindex>1</clipindex>
										</link>
										<link>
											<linkclipref>clipitem-226</linkclipref>
											<mediatype>audio</mediatype>
											<trackindex>5</trackindex>
											<clipindex>1</clipindex>
										</link>
										<link>
											<linkclipref>clipitem-227</linkclipref>
											<mediatype>audio</mediatype>
											<trackindex>6</trackindex>
											<clipindex>1</clipindex>
										</link>
										<link>
											<linkclipref>clipitem-228</linkclipref>
											<mediatype>audio</mediatype>
											<trackindex>7</trackindex>
											<clipindex>1</clipindex>
										</link>
										<link>
											<linkclipref>clipitem-229</linkclipref>
											<mediatype>audio</mediatype>
											<trackindex>8</trackindex>
											<clipindex>1</clipindex>
										</link>
									</clipitem>
								</track>
								<track>
									<clipitem id="clipitem-224">
										<masterclipid>masterclip-71</masterclipid>
										<name>3-WILD-MOTHER-1.WAV</name>
										<rate>
											<timebase>30</timebase>
											<ntsc>TRUE</ntsc>
										</rate>
										<file id="file-71"/>
										<sourcetrack>
											<mediatype>audio</mediatype>
											<trackindex>3</trackindex>
										</sourcetrack>
										<link>
											<linkclipref>clipitem-222</linkclipref>
											<mediatype>audio</mediatype>
											<trackindex>1</trackindex>
											<clipindex>1</clipindex>
										</link>
										<link>
											<linkclipref>clipitem-223</linkclipref>
											<mediatype>audio</mediatype>
											<trackindex>2</trackindex>
											<clipindex>1</clipindex>
										</link>
										<link>
											<linkclipref>clipitem-224</linkclipref>
											<mediatype>audio</mediatype>
											<trackindex>3</trackindex>
											<clipindex>1</clipindex>
										</link>
										<link>
											<linkclipref>clipitem-225</linkclipref>
											<mediatype>audio</mediatype>
											<trackindex>4</trackindex>
											<clipindex>1</clipindex>
										</link>
										<link>
											<linkclipref>clipitem-226</linkclipref>
											<mediatype>audio</mediatype>
											<trackindex>5</trackindex>
											<clipindex>1</clipindex>
										</link>
										<link>
											<linkclipref>clipitem-227</linkclipref>
											<mediatype>audio</mediatype>
											<trackindex>6</trackindex>
											<clipindex>1</clipindex>
										</link>
										<link>
											<linkclipref>clipitem-228</linkclipref>
											<mediatype>audio</mediatype>
											<trackindex>7</trackindex>
											<clipindex>1</clipindex>
										</link>
										<link>
											<linkclipref>clipitem-229</linkclipref>
											<mediatype>audio</mediatype>
											<trackindex>8</trackindex>
											<clipindex>1</clipindex>
										</link>
									</clipitem>
								</track>
								<track>
									<clipitem id="clipitem-225">
										<masterclipid>masterclip-71</masterclipid>
										<name>3-WILD-MOTHER-1.WAV</name>
										<rate>
											<timebase>30</timebase>
											<ntsc>TRUE</ntsc>
										</rate>
										<file id="file-71"/>
										<sourcetrack>
											<mediatype>audio</mediatype>
											<trackindex>4</trackindex>
										</sourcetrack>
										<link>
											<linkclipref>clipitem-222</linkclipref>
											<mediatype>audio</mediatype>
											<trackindex>1</trackindex>
											<clipindex>1</clipindex>
										</link>
										<link>
											<linkclipref>clipitem-223</linkclipref>
											<mediatype>audio</mediatype>
											<trackindex>2</trackindex>
											<clipindex>1</clipindex>
										</link>
										<link>
											<linkclipref>clipitem-224</linkclipref>
											<mediatype>audio</mediatype>
											<trackindex>3</trackindex>
											<clipindex>1</clipindex>
										</link>
										<link>
											<linkclipref>clipitem-225</linkclipref>
											<mediatype>audio</mediatype>
											<trackindex>4</trackindex>
											<clipindex>1</clipindex>
										</link>
										<link>
											<linkclipref>clipitem-226</linkclipref>
											<mediatype>audio</mediatype>
											<trackindex>5</trackindex>
											<clipindex>1</clipindex>
										</link>
										<link>
											<linkclipref>clipitem-227</linkclipref>
											<mediatype>audio</mediatype>
											<trackindex>6</trackindex>
											<clipindex>1</clipindex>
										</link>
										<link>
											<linkclipref>clipitem-228</linkclipref>
											<mediatype>audio</mediatype>
											<trackindex>7</trackindex>
											<clipindex>1</clipindex>
										</link>
										<link>
											<linkclipref>clipitem-229</linkclipref>
											<mediatype>audio</mediatype>
											<trackindex>8</trackindex>
											<clipindex>1</clipindex>
										</link>
									</clipitem>
								</track>
								<track>
									<clipitem id="clipitem-226">
										<masterclipid>masterclip-71</masterclipid>
										<name>3-WILD-MOTHER-1.WAV</name>
										<rate>
											<timebase>30</timebase>
											<ntsc>TRUE</ntsc>
										</rate>
										<file id="file-71"/>
										<sourcetrack>
											<mediatype>audio</mediatype>
											<trackindex>5</trackindex>
										</sourcetrack>
										<link>
											<linkclipref>clipitem-222</linkclipref>
											<mediatype>audio</mediatype>
											<trackindex>1</trackindex>
											<clipindex>1</clipindex>
										</link>
										<link>
											<linkclipref>clipitem-223</linkclipref>
											<mediatype>audio</mediatype>
											<trackindex>2</trackindex>
											<clipindex>1</clipindex>
										</link>
										<link>
											<linkclipref>clipitem-224</linkclipref>
											<mediatype>audio</mediatype>
											<trackindex>3</trackindex>
											<clipindex>1</clipindex>
										</link>
										<link>
											<linkclipref>clipitem-225</linkclipref>
											<mediatype>audio</mediatype>
											<trackindex>4</trackindex>
											<clipindex>1</clipindex>
										</link>
										<link>
											<linkclipref>clipitem-226</linkclipref>
											<mediatype>audio</mediatype>
											<trackindex>5</trackindex>
											<clipindex>1</clipindex>
										</link>
										<link>
											<linkclipref>clipitem-227</linkclipref>
											<mediatype>audio</mediatype>
											<trackindex>6</trackindex>
											<clipindex>1</clipindex>
										</link>
										<link>
											<linkclipref>clipitem-228</linkclipref>
											<mediatype>audio</mediatype>
											<trackindex>7</trackindex>
											<clipindex>1</clipindex>
										</link>
										<link>
											<linkclipref>clipitem-229</linkclipref>
											<mediatype>audio</mediatype>
											<trackindex>8</trackindex>
											<clipindex>1</clipindex>
										</link>
									</clipitem>
								</track>
								<track>
									<clipitem id="clipitem-227">
										<masterclipid>masterclip-71</masterclipid>
										<name>3-WILD-MOTHER-1.WAV</name>
										<rate>
											<timebase>30</timebase>
											<ntsc>TRUE</ntsc>
										</rate>
										<file id="file-71"/>
										<sourcetrack>
											<mediatype>audio</mediatype>
											<trackindex>6</trackindex>
										</sourcetrack>
										<link>
											<linkclipref>clipitem-222</linkclipref>
											<mediatype>audio</mediatype>
											<trackindex>1</trackindex>
											<clipindex>1</clipindex>
										</link>
										<link>
											<linkclipref>clipitem-223</linkclipref>
											<mediatype>audio</mediatype>
											<trackindex>2</trackindex>
											<clipindex>1</clipindex>
										</link>
										<link>
											<linkclipref>clipitem-224</linkclipref>
											<mediatype>audio</mediatype>
											<trackindex>3</trackindex>
											<clipindex>1</clipindex>
										</link>
										<link>
											<linkclipref>clipitem-225</linkclipref>
											<mediatype>audio</mediatype>
											<trackindex>4</trackindex>
											<clipindex>1</clipindex>
										</link>
										<link>
											<linkclipref>clipitem-226</linkclipref>
											<mediatype>audio</mediatype>
											<trackindex>5</trackindex>
											<clipindex>1</clipindex>
										</link>
										<link>
											<linkclipref>clipitem-227</linkclipref>
											<mediatype>audio</mediatype>
											<trackindex>6</trackindex>
											<clipindex>1</clipindex>
										</link>
										<link>
											<linkclipref>clipitem-228</linkclipref>
											<mediatype>audio</mediatype>
											<trackindex>7</trackindex>
											<clipindex>1</clipindex>
										</link>
										<link>
											<linkclipref>clipitem-229</linkclipref>
											<mediatype>audio</mediatype>
											<trackindex>8</trackindex>
											<clipindex>1</clipindex>
										</link>
									</clipitem>
								</track>
								<track>
									<clipitem id="clipitem-228">
										<masterclipid>masterclip-71</masterclipid>
										<name>3-WILD-MOTHER-1.WAV</name>
										<rate>
											<timebase>30</timebase>
											<ntsc>TRUE</ntsc>
										</rate>
										<file id="file-71"/>
										<sourcetrack>
											<mediatype>audio</mediatype>
											<trackindex>7</trackindex>
										</sourcetrack>
										<link>
											<linkclipref>clipitem-222</linkclipref>
											<mediatype>audio</mediatype>
											<trackindex>1</trackindex>
											<clipindex>1</clipindex>
										</link>
										<link>
											<linkclipref>clipitem-223</linkclipref>
											<mediatype>audio</mediatype>
											<trackindex>2</trackindex>
											<clipindex>1</clipindex>
										</link>
										<link>
											<linkclipref>clipitem-224</linkclipref>
											<mediatype>audio</mediatype>
											<trackindex>3</trackindex>
											<clipindex>1</clipindex>
										</link>
										<link>
											<linkclipref>clipitem-225</linkclipref>
											<mediatype>audio</mediatype>
											<trackindex>4</trackindex>
											<clipindex>1</clipindex>
										</link>
										<link>
											<linkclipref>clipitem-226</linkclipref>
											<mediatype>audio</mediatype>
											<trackindex>5</trackindex>
											<clipindex>1</clipindex>
										</link>
										<link>
											<linkclipref>clipitem-227</linkclipref>
											<mediatype>audio</mediatype>
											<trackindex>6</trackindex>
											<clipindex>1</clipindex>
										</link>
										<link>
											<linkclipref>clipitem-228</linkclipref>
											<mediatype>audio</mediatype>
											<trackindex>7</trackindex>
											<clipindex>1</clipindex>
										</link>
										<link>
											<linkclipref>clipitem-229</linkclipref>
											<mediatype>audio</mediatype>
											<trackindex>8</trackindex>
											<clipindex>1</clipindex>
										</link>
									</clipitem>
								</track>
								<track>
									<clipitem id="clipitem-229">
										<masterclipid>masterclip-71</masterclipid>
										<name>3-WILD-MOTHER-1.WAV</name>
										<rate>
											<timebase>30</timebase>
											<ntsc>TRUE</ntsc>
										</rate>
										<file id="file-71"/>
										<sourcetrack>
											<mediatype>audio</mediatype>
											<trackindex>8</trackindex>
										</sourcetrack>
										<link>
											<linkclipref>clipitem-222</linkclipref>
											<mediatype>audio</mediatype>
											<trackindex>1</trackindex>
											<clipindex>1</clipindex>
										</link>
										<link>
											<linkclipref>clipitem-223</linkclipref>
											<mediatype>audio</mediatype>
											<trackindex>2</trackindex>
											<clipindex>1</clipindex>
										</link>
										<link>
											<linkclipref>clipitem-224</linkclipref>
											<mediatype>audio</mediatype>
											<trackindex>3</trackindex>
											<clipindex>1</clipindex>
										</link>
										<link>
											<linkclipref>clipitem-225</linkclipref>
											<mediatype>audio</mediatype>
											<trackindex>4</trackindex>
											<clipindex>1</clipindex>
										</link>
										<link>
											<linkclipref>clipitem-226</linkclipref>
											<mediatype>audio</mediatype>
											<trackindex>5</trackindex>
											<clipindex>1</clipindex>
										</link>
										<link>
											<linkclipref>clipitem-227</linkclipref>
											<mediatype>audio</mediatype>
											<trackindex>6</trackindex>
											<clipindex>1</clipindex>
										</link>
										<link>
											<linkclipref>clipitem-228</linkclipref>
											<mediatype>audio</mediatype>
											<trackindex>7</trackindex>
											<clipindex>1</clipindex>
										</link>
										<link>
											<linkclipref>clipitem-229</linkclipref>
											<mediatype>audio</mediatype>
											<trackindex>8</trackindex>
											<clipindex>1</clipindex>
										</link>
									</clipitem>
								</track>
							</audio>
						</media>
						<logginginfo>
							<description></description>
							<scene>3-WILD-MOTHER</scene>
							<shottake></shottake>
							<lognote></lognote>
							<good></good>
							<originalvideofilename></originalvideofilename>
							<originalaudiofilename></originalaudiofilename>
						</logginginfo>
						<colorinfo>
							<lut></lut>
							<lut1></lut1>
							<asc_sop></asc_sop>
							<asc_sat></asc_sat>
							<lut2></lut2>
						</colorinfo>
						<labels>
							<label2>Mango</label2>
						</labels>
					</clip>
					<clip id="masterclip-72" explodedTracks="true">
						<uuid>570fab39-a1ff-451b-98ce-fa612f9ae4d0</uuid>
						<masterclipid>masterclip-72</masterclipid>
						<ismasterclip>TRUE</ismasterclip>
						<duration>599</duration>
						<rate>
							<timebase>30</timebase>
							<ntsc>TRUE</ntsc>
						</rate>
						<name>3-WILD-MOTHER-2.WAV</name>
						<media>
							<audio>
								<track>
									<clipitem id="clipitem-230">
										<masterclipid>masterclip-72</masterclipid>
										<name>3-WILD-MOTHER-2.WAV</name>
										<rate>
											<timebase>30</timebase>
											<ntsc>TRUE</ntsc>
										</rate>
										<file id="file-72">
											<name>3-WILD-MOTHER-2.WAV</name>
											<pathurl>file://localhost/S%3a/Projects/PRODIGAL_SON/AUDIO/190511_D01/3-WILD-MOTHER-2.WAV</pathurl>
											<rate>
												<timebase>30</timebase>
												<ntsc>TRUE</ntsc>
											</rate>
											<duration>599</duration>
											<timecode>
												<rate>
													<timebase>30</timebase>
													<ntsc>TRUE</ntsc>
												</rate>
												<string>18;53;27;01</string>
												<frame>2038171</frame>
												<displayformat>DF</displayformat>
												<reel>
													<name>190511</name>
												</reel>
											</timecode>
											<media>
												<audio>
													<samplecharacteristics>
														<depth>16</depth>
														<samplerate>48000</samplerate>
													</samplecharacteristics>
													<channelcount>1</channelcount>
													<audiochannel>
														<sourcechannel>1</sourcechannel>
													</audiochannel>
												</audio>
												<audio>
													<samplecharacteristics>
														<depth>16</depth>
														<samplerate>48000</samplerate>
													</samplecharacteristics>
													<channelcount>1</channelcount>
													<audiochannel>
														<sourcechannel>2</sourcechannel>
													</audiochannel>
												</audio>
												<audio>
													<samplecharacteristics>
														<depth>16</depth>
														<samplerate>48000</samplerate>
													</samplecharacteristics>
													<channelcount>1</channelcount>
													<audiochannel>
														<sourcechannel>3</sourcechannel>
													</audiochannel>
												</audio>
												<audio>
													<samplecharacteristics>
														<depth>16</depth>
														<samplerate>48000</samplerate>
													</samplecharacteristics>
													<channelcount>1</channelcount>
													<audiochannel>
														<sourcechannel>4</sourcechannel>
													</audiochannel>
												</audio>
											</media>
										</file>
										<sourcetrack>
											<mediatype>audio</mediatype>
											<trackindex>1</trackindex>
										</sourcetrack>
										<link>
											<linkclipref>clipitem-230</linkclipref>
											<mediatype>audio</mediatype>
											<trackindex>1</trackindex>
											<clipindex>1</clipindex>
										</link>
										<link>
											<linkclipref>clipitem-231</linkclipref>
											<mediatype>audio</mediatype>
											<trackindex>2</trackindex>
											<clipindex>1</clipindex>
										</link>
										<link>
											<linkclipref>clipitem-232</linkclipref>
											<mediatype>audio</mediatype>
											<trackindex>3</trackindex>
											<clipindex>1</clipindex>
										</link>
										<link>
											<linkclipref>clipitem-233</linkclipref>
											<mediatype>audio</mediatype>
											<trackindex>4</trackindex>
											<clipindex>1</clipindex>
										</link>
									</clipitem>
								</track>
								<track>
									<clipitem id="clipitem-231">
										<masterclipid>masterclip-72</masterclipid>
										<name>3-WILD-MOTHER-2.WAV</name>
										<rate>
											<timebase>30</timebase>
											<ntsc>TRUE</ntsc>
										</rate>
										<file id="file-72"/>
										<sourcetrack>
											<mediatype>audio</mediatype>
											<trackindex>2</trackindex>
										</sourcetrack>
										<link>
											<linkclipref>clipitem-230</linkclipref>
											<mediatype>audio</mediatype>
											<trackindex>1</trackindex>
											<clipindex>1</clipindex>
										</link>
										<link>
											<linkclipref>clipitem-231</linkclipref>
											<mediatype>audio</mediatype>
											<trackindex>2</trackindex>
											<clipindex>1</clipindex>
										</link>
										<link>
											<linkclipref>clipitem-232</linkclipref>
											<mediatype>audio</mediatype>
											<trackindex>3</trackindex>
											<clipindex>1</clipindex>
										</link>
										<link>
											<linkclipref>clipitem-233</linkclipref>
											<mediatype>audio</mediatype>
											<trackindex>4</trackindex>
											<clipindex>1</clipindex>
										</link>
									</clipitem>
								</track>
								<track>
									<clipitem id="clipitem-232">
										<masterclipid>masterclip-72</masterclipid>
										<name>3-WILD-MOTHER-2.WAV</name>
										<rate>
											<timebase>30</timebase>
											<ntsc>TRUE</ntsc>
										</rate>
										<file id="file-72"/>
										<sourcetrack>
											<mediatype>audio</mediatype>
											<trackindex>3</trackindex>
										</sourcetrack>
										<link>
											<linkclipref>clipitem-230</linkclipref>
											<mediatype>audio</mediatype>
											<trackindex>1</trackindex>
											<clipindex>1</clipindex>
										</link>
										<link>
											<linkclipref>clipitem-231</linkclipref>
											<mediatype>audio</mediatype>
											<trackindex>2</trackindex>
											<clipindex>1</clipindex>
										</link>
										<link>
											<linkclipref>clipitem-232</linkclipref>
											<mediatype>audio</mediatype>
											<trackindex>3</trackindex>
											<clipindex>1</clipindex>
										</link>
										<link>
											<linkclipref>clipitem-233</linkclipref>
											<mediatype>audio</mediatype>
											<trackindex>4</trackindex>
											<clipindex>1</clipindex>
										</link>
									</clipitem>
								</track>
								<track>
									<clipitem id="clipitem-233">
										<masterclipid>masterclip-72</masterclipid>
										<name>3-WILD-MOTHER-2.WAV</name>
										<rate>
											<timebase>30</timebase>
											<ntsc>TRUE</ntsc>
										</rate>
										<file id="file-72"/>
										<sourcetrack>
											<mediatype>audio</mediatype>
											<trackindex>4</trackindex>
										</sourcetrack>
										<link>
											<linkclipref>clipitem-230</linkclipref>
											<mediatype>audio</mediatype>
											<trackindex>1</trackindex>
											<clipindex>1</clipindex>
										</link>
										<link>
											<linkclipref>clipitem-231</linkclipref>
											<mediatype>audio</mediatype>
											<trackindex>2</trackindex>
											<clipindex>1</clipindex>
										</link>
										<link>
											<linkclipref>clipitem-232</linkclipref>
											<mediatype>audio</mediatype>
											<trackindex>3</trackindex>
											<clipindex>1</clipindex>
										</link>
										<link>
											<linkclipref>clipitem-233</linkclipref>
											<mediatype>audio</mediatype>
											<trackindex>4</trackindex>
											<clipindex>1</clipindex>
										</link>
									</clipitem>
								</track>
							</audio>
						</media>
						<logginginfo>
							<description></description>
							<scene>3-WILD-MOTHER</scene>
							<shottake></shottake>
							<lognote></lognote>
							<good></good>
							<originalvideofilename></originalvideofilename>
							<originalaudiofilename></originalaudiofilename>
						</logginginfo>
						<colorinfo>
							<lut></lut>
							<lut1></lut1>
							<asc_sop></asc_sop>
							<asc_sat></asc_sat>
							<lut2></lut2>
						</colorinfo>
						<labels>
							<label2>Mango</label2>
						</labels>
					</clip>
					<clip id="masterclip-73" explodedTracks="true">
						<uuid>b927c8a5-a446-4a91-b877-040820e73a46</uuid>
						<masterclipid>masterclip-73</masterclipid>
						<ismasterclip>TRUE</ismasterclip>
						<duration>1168</duration>
						<rate>
							<timebase>30</timebase>
							<ntsc>TRUE</ntsc>
						</rate>
						<name>3-WILD-MOTHER-4.WAV</name>
						<media>
							<audio>
								<track>
									<clipitem id="clipitem-234">
										<masterclipid>masterclip-73</masterclipid>
										<name>3-WILD-MOTHER-4.WAV</name>
										<rate>
											<timebase>30</timebase>
											<ntsc>TRUE</ntsc>
										</rate>
										<file id="file-73">
											<name>3-WILD-MOTHER-4.WAV</name>
											<pathurl>file://localhost/S%3a/Projects/PRODIGAL_SON/AUDIO/190511_D01/3-WILD-MOTHER-4.WAV</pathurl>
											<rate>
												<timebase>30</timebase>
												<ntsc>TRUE</ntsc>
											</rate>
											<duration>1168</duration>
											<timecode>
												<rate>
													<timebase>30</timebase>
													<ntsc>TRUE</ntsc>
												</rate>
												<string>18;53;51;01</string>
												<frame>2038891</frame>
												<displayformat>DF</displayformat>
												<reel>
													<name>190511</name>
												</reel>
											</timecode>
											<media>
												<audio>
													<samplecharacteristics>
														<depth>16</depth>
														<samplerate>48000</samplerate>
													</samplecharacteristics>
													<channelcount>1</channelcount>
													<audiochannel>
														<sourcechannel>1</sourcechannel>
													</audiochannel>
												</audio>
												<audio>
													<samplecharacteristics>
														<depth>16</depth>
														<samplerate>48000</samplerate>
													</samplecharacteristics>
													<channelcount>1</channelcount>
													<audiochannel>
														<sourcechannel>2</sourcechannel>
													</audiochannel>
												</audio>
												<audio>
													<samplecharacteristics>
														<depth>16</depth>
														<samplerate>48000</samplerate>
													</samplecharacteristics>
													<channelcount>1</channelcount>
													<audiochannel>
														<sourcechannel>3</sourcechannel>
													</audiochannel>
												</audio>
												<audio>
													<samplecharacteristics>
														<depth>16</depth>
														<samplerate>48000</samplerate>
													</samplecharacteristics>
													<channelcount>1</channelcount>
													<audiochannel>
														<sourcechannel>4</sourcechannel>
													</audiochannel>
												</audio>
												<audio>
													<samplecharacteristics>
														<depth>16</depth>
														<samplerate>48000</samplerate>
													</samplecharacteristics>
													<channelcount>1</channelcount>
													<audiochannel>
														<sourcechannel>5</sourcechannel>
													</audiochannel>
												</audio>
												<audio>
													<samplecharacteristics>
														<depth>16</depth>
														<samplerate>48000</samplerate>
													</samplecharacteristics>
													<channelcount>1</channelcount>
													<audiochannel>
														<sourcechannel>6</sourcechannel>
													</audiochannel>
												</audio>
											</media>
										</file>
										<sourcetrack>
											<mediatype>audio</mediatype>
											<trackindex>1</trackindex>
										</sourcetrack>
										<link>
											<linkclipref>clipitem-234</linkclipref>
											<mediatype>audio</mediatype>
											<trackindex>1</trackindex>
											<clipindex>1</clipindex>
										</link>
										<link>
											<linkclipref>clipitem-235</linkclipref>
											<mediatype>audio</mediatype>
											<trackindex>2</trackindex>
											<clipindex>1</clipindex>
										</link>
										<link>
											<linkclipref>clipitem-236</linkclipref>
											<mediatype>audio</mediatype>
											<trackindex>3</trackindex>
											<clipindex>1</clipindex>
										</link>
										<link>
											<linkclipref>clipitem-237</linkclipref>
											<mediatype>audio</mediatype>
											<trackindex>4</trackindex>
											<clipindex>1</clipindex>
										</link>
										<link>
											<linkclipref>clipitem-238</linkclipref>
											<mediatype>audio</mediatype>
											<trackindex>5</trackindex>
											<clipindex>1</clipindex>
										</link>
										<link>
											<linkclipref>clipitem-239</linkclipref>
											<mediatype>audio</mediatype>
											<trackindex>6</trackindex>
											<clipindex>1</clipindex>
										</link>
									</clipitem>
								</track>
								<track>
									<clipitem id="clipitem-235">
										<masterclipid>masterclip-73</masterclipid>
										<name>3-WILD-MOTHER-4.WAV</name>
										<rate>
											<timebase>30</timebase>
											<ntsc>TRUE</ntsc>
										</rate>
										<file id="file-73"/>
										<sourcetrack>
											<mediatype>audio</mediatype>
											<trackindex>2</trackindex>
										</sourcetrack>
										<link>
											<linkclipref>clipitem-234</linkclipref>
											<mediatype>audio</mediatype>
											<trackindex>1</trackindex>
											<clipindex>1</clipindex>
										</link>
										<link>
											<linkclipref>clipitem-235</linkclipref>
											<mediatype>audio</mediatype>
											<trackindex>2</trackindex>
											<clipindex>1</clipindex>
										</link>
										<link>
											<linkclipref>clipitem-236</linkclipref>
											<mediatype>audio</mediatype>
											<trackindex>3</trackindex>
											<clipindex>1</clipindex>
										</link>
										<link>
											<linkclipref>clipitem-237</linkclipref>
											<mediatype>audio</mediatype>
											<trackindex>4</trackindex>
											<clipindex>1</clipindex>
										</link>
										<link>
											<linkclipref>clipitem-238</linkclipref>
											<mediatype>audio</mediatype>
											<trackindex>5</trackindex>
											<clipindex>1</clipindex>
										</link>
										<link>
											<linkclipref>clipitem-239</linkclipref>
											<mediatype>audio</mediatype>
											<trackindex>6</trackindex>
											<clipindex>1</clipindex>
										</link>
									</clipitem>
								</track>
								<track>
									<clipitem id="clipitem-236">
										<masterclipid>masterclip-73</masterclipid>
										<name>3-WILD-MOTHER-4.WAV</name>
										<rate>
											<timebase>30</timebase>
											<ntsc>TRUE</ntsc>
										</rate>
										<file id="file-73"/>
										<sourcetrack>
											<mediatype>audio</mediatype>
											<trackindex>3</trackindex>
										</sourcetrack>
										<link>
											<linkclipref>clipitem-234</linkclipref>
											<mediatype>audio</mediatype>
											<trackindex>1</trackindex>
											<clipindex>1</clipindex>
										</link>
										<link>
											<linkclipref>clipitem-235</linkclipref>
											<mediatype>audio</mediatype>
											<trackindex>2</trackindex>
											<clipindex>1</clipindex>
										</link>
										<link>
											<linkclipref>clipitem-236</linkclipref>
											<mediatype>audio</mediatype>
											<trackindex>3</trackindex>
											<clipindex>1</clipindex>
										</link>
										<link>
											<linkclipref>clipitem-237</linkclipref>
											<mediatype>audio</mediatype>
											<trackindex>4</trackindex>
											<clipindex>1</clipindex>
										</link>
										<link>
											<linkclipref>clipitem-238</linkclipref>
											<mediatype>audio</mediatype>
											<trackindex>5</trackindex>
											<clipindex>1</clipindex>
										</link>
										<link>
											<linkclipref>clipitem-239</linkclipref>
											<mediatype>audio</mediatype>
											<trackindex>6</trackindex>
											<clipindex>1</clipindex>
										</link>
									</clipitem>
								</track>
								<track>
									<clipitem id="clipitem-237">
										<masterclipid>masterclip-73</masterclipid>
										<name>3-WILD-MOTHER-4.WAV</name>
										<rate>
											<timebase>30</timebase>
											<ntsc>TRUE</ntsc>
										</rate>
										<file id="file-73"/>
										<sourcetrack>
											<mediatype>audio</mediatype>
											<trackindex>4</trackindex>
										</sourcetrack>
										<link>
											<linkclipref>clipitem-234</linkclipref>
											<mediatype>audio</mediatype>
											<trackindex>1</trackindex>
											<clipindex>1</clipindex>
										</link>
										<link>
											<linkclipref>clipitem-235</linkclipref>
											<mediatype>audio</mediatype>
											<trackindex>2</trackindex>
											<clipindex>1</clipindex>
										</link>
										<link>
											<linkclipref>clipitem-236</linkclipref>
											<mediatype>audio</mediatype>
											<trackindex>3</trackindex>
											<clipindex>1</clipindex>
										</link>
										<link>
											<linkclipref>clipitem-237</linkclipref>
											<mediatype>audio</mediatype>
											<trackindex>4</trackindex>
											<clipindex>1</clipindex>
										</link>
										<link>
											<linkclipref>clipitem-238</linkclipref>
											<mediatype>audio</mediatype>
											<trackindex>5</trackindex>
											<clipindex>1</clipindex>
										</link>
										<link>
											<linkclipref>clipitem-239</linkclipref>
											<mediatype>audio</mediatype>
											<trackindex>6</trackindex>
											<clipindex>1</clipindex>
										</link>
									</clipitem>
								</track>
								<track>
									<clipitem id="clipitem-238">
										<masterclipid>masterclip-73</masterclipid>
										<name>3-WILD-MOTHER-4.WAV</name>
										<rate>
											<timebase>30</timebase>
											<ntsc>TRUE</ntsc>
										</rate>
										<file id="file-73"/>
										<sourcetrack>
											<mediatype>audio</mediatype>
											<trackindex>5</trackindex>
										</sourcetrack>
										<link>
											<linkclipref>clipitem-234</linkclipref>
											<mediatype>audio</mediatype>
											<trackindex>1</trackindex>
											<clipindex>1</clipindex>
										</link>
										<link>
											<linkclipref>clipitem-235</linkclipref>
											<mediatype>audio</mediatype>
											<trackindex>2</trackindex>
											<clipindex>1</clipindex>
										</link>
										<link>
											<linkclipref>clipitem-236</linkclipref>
											<mediatype>audio</mediatype>
											<trackindex>3</trackindex>
											<clipindex>1</clipindex>
										</link>
										<link>
											<linkclipref>clipitem-237</linkclipref>
											<mediatype>audio</mediatype>
											<trackindex>4</trackindex>
											<clipindex>1</clipindex>
										</link>
										<link>
											<linkclipref>clipitem-238</linkclipref>
											<mediatype>audio</mediatype>
											<trackindex>5</trackindex>
											<clipindex>1</clipindex>
										</link>
										<link>
											<linkclipref>clipitem-239</linkclipref>
											<mediatype>audio</mediatype>
											<trackindex>6</trackindex>
											<clipindex>1</clipindex>
										</link>
									</clipitem>
								</track>
								<track>
									<clipitem id="clipitem-239">
										<masterclipid>masterclip-73</masterclipid>
										<name>3-WILD-MOTHER-4.WAV</name>
										<rate>
											<timebase>30</timebase>
											<ntsc>TRUE</ntsc>
										</rate>
										<file id="file-73"/>
										<sourcetrack>
											<mediatype>audio</mediatype>
											<trackindex>6</trackindex>
										</sourcetrack>
										<link>
											<linkclipref>clipitem-234</linkclipref>
											<mediatype>audio</mediatype>
											<trackindex>1</trackindex>
											<clipindex>1</clipindex>
										</link>
										<link>
											<linkclipref>clipitem-235</linkclipref>
											<mediatype>audio</mediatype>
											<trackindex>2</trackindex>
											<clipindex>1</clipindex>
										</link>
										<link>
											<linkclipref>clipitem-236</linkclipref>
											<mediatype>audio</mediatype>
											<trackindex>3</trackindex>
											<clipindex>1</clipindex>
										</link>
										<link>
											<linkclipref>clipitem-237</linkclipref>
											<mediatype>audio</mediatype>
											<trackindex>4</trackindex>
											<clipindex>1</clipindex>
										</link>
										<link>
											<linkclipref>clipitem-238</linkclipref>
											<mediatype>audio</mediatype>
											<trackindex>5</trackindex>
											<clipindex>1</clipindex>
										</link>
										<link>
											<linkclipref>clipitem-239</linkclipref>
											<mediatype>audio</mediatype>
											<trackindex>6</trackindex>
											<clipindex>1</clipindex>
										</link>
									</clipitem>
								</track>
							</audio>
						</media>
						<logginginfo>
							<description></description>
							<scene>3-WILD-MOTHER</scene>
							<shottake></shottake>
							<lognote></lognote>
							<good></good>
							<originalvideofilename></originalvideofilename>
							<originalaudiofilename></originalaudiofilename>
						</logginginfo>
						<colorinfo>
							<lut></lut>
							<lut1></lut1>
							<asc_sop></asc_sop>
							<asc_sat></asc_sat>
							<lut2></lut2>
						</colorinfo>
						<labels>
							<label2>Mango</label2>
						</labels>
					</clip>
					<clip id="masterclip-74" explodedTracks="true">
						<uuid>1eeff7ca-5f23-408c-abb0-1e84dd504444</uuid>
						<masterclipid>masterclip-74</masterclipid>
						<ismasterclip>TRUE</ismasterclip>
						<duration>3446</duration>
						<rate>
							<timebase>30</timebase>
							<ntsc>TRUE</ntsc>
						</rate>
						<name>3-WILD-MOTHER-5.WAV</name>
						<media>
							<audio>
								<track>
									<clipitem id="clipitem-240">
										<masterclipid>masterclip-74</masterclipid>
										<name>3-WILD-MOTHER-5.WAV</name>
										<rate>
											<timebase>30</timebase>
											<ntsc>TRUE</ntsc>
										</rate>
										<file id="file-74">
											<name>3-WILD-MOTHER-5.WAV</name>
											<pathurl>file://localhost/S%3a/Projects/PRODIGAL_SON/AUDIO/190511_D01/3-WILD-MOTHER-5.WAV</pathurl>
											<rate>
												<timebase>30</timebase>
												<ntsc>TRUE</ntsc>
											</rate>
											<duration>3446</duration>
											<timecode>
												<rate>
													<timebase>30</timebase>
													<ntsc>TRUE</ntsc>
												</rate>
												<string>18;55;13;02</string>
												<frame>2041348</frame>
												<displayformat>DF</displayformat>
												<reel>
													<name>190511</name>
												</reel>
											</timecode>
											<media>
												<audio>
													<samplecharacteristics>
														<depth>16</depth>
														<samplerate>48000</samplerate>
													</samplecharacteristics>
													<channelcount>1</channelcount>
													<audiochannel>
														<sourcechannel>1</sourcechannel>
													</audiochannel>
												</audio>
												<audio>
													<samplecharacteristics>
														<depth>16</depth>
														<samplerate>48000</samplerate>
													</samplecharacteristics>
													<channelcount>1</channelcount>
													<audiochannel>
														<sourcechannel>2</sourcechannel>
													</audiochannel>
												</audio>
												<audio>
													<samplecharacteristics>
														<depth>16</depth>
														<samplerate>48000</samplerate>
													</samplecharacteristics>
													<channelcount>1</channelcount>
													<audiochannel>
														<sourcechannel>3</sourcechannel>
													</audiochannel>
												</audio>
												<audio>
													<samplecharacteristics>
														<depth>16</depth>
														<samplerate>48000</samplerate>
													</samplecharacteristics>
													<channelcount>1</channelcount>
													<audiochannel>
														<sourcechannel>4</sourcechannel>
													</audiochannel>
												</audio>
											</media>
										</file>
										<sourcetrack>
											<mediatype>audio</mediatype>
											<trackindex>1</trackindex>
										</sourcetrack>
										<link>
											<linkclipref>clipitem-240</linkclipref>
											<mediatype>audio</mediatype>
											<trackindex>1</trackindex>
											<clipindex>1</clipindex>
										</link>
										<link>
											<linkclipref>clipitem-241</linkclipref>
											<mediatype>audio</mediatype>
											<trackindex>2</trackindex>
											<clipindex>1</clipindex>
										</link>
										<link>
											<linkclipref>clipitem-242</linkclipref>
											<mediatype>audio</mediatype>
											<trackindex>3</trackindex>
											<clipindex>1</clipindex>
										</link>
										<link>
											<linkclipref>clipitem-243</linkclipref>
											<mediatype>audio</mediatype>
											<trackindex>4</trackindex>
											<clipindex>1</clipindex>
										</link>
									</clipitem>
								</track>
								<track>
									<clipitem id="clipitem-241">
										<masterclipid>masterclip-74</masterclipid>
										<name>3-WILD-MOTHER-5.WAV</name>
										<rate>
											<timebase>30</timebase>
											<ntsc>TRUE</ntsc>
										</rate>
										<file id="file-74"/>
										<sourcetrack>
											<mediatype>audio</mediatype>
											<trackindex>2</trackindex>
										</sourcetrack>
										<link>
											<linkclipref>clipitem-240</linkclipref>
											<mediatype>audio</mediatype>
											<trackindex>1</trackindex>
											<clipindex>1</clipindex>
										</link>
										<link>
											<linkclipref>clipitem-241</linkclipref>
											<mediatype>audio</mediatype>
											<trackindex>2</trackindex>
											<clipindex>1</clipindex>
										</link>
										<link>
											<linkclipref>clipitem-242</linkclipref>
											<mediatype>audio</mediatype>
											<trackindex>3</trackindex>
											<clipindex>1</clipindex>
										</link>
										<link>
											<linkclipref>clipitem-243</linkclipref>
											<mediatype>audio</mediatype>
											<trackindex>4</trackindex>
											<clipindex>1</clipindex>
										</link>
									</clipitem>
								</track>
								<track>
									<clipitem id="clipitem-242">
										<masterclipid>masterclip-74</masterclipid>
										<name>3-WILD-MOTHER-5.WAV</name>
										<rate>
											<timebase>30</timebase>
											<ntsc>TRUE</ntsc>
										</rate>
										<file id="file-74"/>
										<sourcetrack>
											<mediatype>audio</mediatype>
											<trackindex>3</trackindex>
										</sourcetrack>
										<link>
											<linkclipref>clipitem-240</linkclipref>
											<mediatype>audio</mediatype>
											<trackindex>1</trackindex>
											<clipindex>1</clipindex>
										</link>
										<link>
											<linkclipref>clipitem-241</linkclipref>
											<mediatype>audio</mediatype>
											<trackindex>2</trackindex>
											<clipindex>1</clipindex>
										</link>
										<link>
											<linkclipref>clipitem-242</linkclipref>
											<mediatype>audio</mediatype>
											<trackindex>3</trackindex>
											<clipindex>1</clipindex>
										</link>
										<link>
											<linkclipref>clipitem-243</linkclipref>
											<mediatype>audio</mediatype>
											<trackindex>4</trackindex>
											<clipindex>1</clipindex>
										</link>
									</clipitem>
								</track>
								<track>
									<clipitem id="clipitem-243">
										<masterclipid>masterclip-74</masterclipid>
										<name>3-WILD-MOTHER-5.WAV</name>
										<rate>
											<timebase>30</timebase>
											<ntsc>TRUE</ntsc>
										</rate>
										<file id="file-74"/>
										<sourcetrack>
											<mediatype>audio</mediatype>
											<trackindex>4</trackindex>
										</sourcetrack>
										<link>
											<linkclipref>clipitem-240</linkclipref>
											<mediatype>audio</mediatype>
											<trackindex>1</trackindex>
											<clipindex>1</clipindex>
										</link>
										<link>
											<linkclipref>clipitem-241</linkclipref>
											<mediatype>audio</mediatype>
											<trackindex>2</trackindex>
											<clipindex>1</clipindex>
										</link>
										<link>
											<linkclipref>clipitem-242</linkclipref>
											<mediatype>audio</mediatype>
											<trackindex>3</trackindex>
											<clipindex>1</clipindex>
										</link>
										<link>
											<linkclipref>clipitem-243</linkclipref>
											<mediatype>audio</mediatype>
											<trackindex>4</trackindex>
											<clipindex>1</clipindex>
										</link>
									</clipitem>
								</track>
							</audio>
						</media>
						<logginginfo>
							<description></description>
							<scene>3-WILD-MOTHER</scene>
							<shottake></shottake>
							<lognote></lognote>
							<good></good>
							<originalvideofilename></originalvideofilename>
							<originalaudiofilename></originalaudiofilename>
						</logginginfo>
						<colorinfo>
							<lut></lut>
							<lut1></lut1>
							<asc_sop></asc_sop>
							<asc_sat></asc_sat>
							<lut2></lut2>
						</colorinfo>
						<labels>
							<label2>Mango</label2>
						</labels>
					</clip>
					<clip id="masterclip-75" explodedTracks="true">
						<uuid>6ff7273d-8597-471d-beed-d47165a7aef1</uuid>
						<masterclipid>masterclip-75</masterclipid>
						<ismasterclip>TRUE</ismasterclip>
						<duration>5724</duration>
						<rate>
							<timebase>30</timebase>
							<ntsc>TRUE</ntsc>
						</rate>
						<name>6-01-1.WAV</name>
						<media>
							<audio>
								<track>
									<clipitem id="clipitem-244">
										<masterclipid>masterclip-75</masterclipid>
										<name>6-01-1.WAV</name>
										<rate>
											<timebase>30</timebase>
											<ntsc>TRUE</ntsc>
										</rate>
										<file id="file-75">
											<name>6-01-1.WAV</name>
											<pathurl>file://localhost/S%3a/Projects/PRODIGAL_SON/AUDIO/190511_D01/6-01-1.WAV</pathurl>
											<rate>
												<timebase>30</timebase>
												<ntsc>TRUE</ntsc>
											</rate>
											<duration>5724</duration>
											<timecode>
												<rate>
													<timebase>30</timebase>
													<ntsc>TRUE</ntsc>
												</rate>
												<string>17;06;40;01</string>
												<frame>1846153</frame>
												<displayformat>DF</displayformat>
												<reel>
													<name>190511</name>
												</reel>
											</timecode>
											<media>
												<audio>
													<samplecharacteristics>
														<depth>16</depth>
														<samplerate>48000</samplerate>
													</samplecharacteristics>
													<channelcount>1</channelcount>
													<audiochannel>
														<sourcechannel>1</sourcechannel>
													</audiochannel>
												</audio>
												<audio>
													<samplecharacteristics>
														<depth>16</depth>
														<samplerate>48000</samplerate>
													</samplecharacteristics>
													<channelcount>1</channelcount>
													<audiochannel>
														<sourcechannel>2</sourcechannel>
													</audiochannel>
												</audio>
												<audio>
													<samplecharacteristics>
														<depth>16</depth>
														<samplerate>48000</samplerate>
													</samplecharacteristics>
													<channelcount>1</channelcount>
													<audiochannel>
														<sourcechannel>3</sourcechannel>
													</audiochannel>
												</audio>
												<audio>
													<samplecharacteristics>
														<depth>16</depth>
														<samplerate>48000</samplerate>
													</samplecharacteristics>
													<channelcount>1</channelcount>
													<audiochannel>
														<sourcechannel>4</sourcechannel>
													</audiochannel>
												</audio>
												<audio>
													<samplecharacteristics>
														<depth>16</depth>
														<samplerate>48000</samplerate>
													</samplecharacteristics>
													<channelcount>1</channelcount>
													<audiochannel>
														<sourcechannel>5</sourcechannel>
													</audiochannel>
												</audio>
												<audio>
													<samplecharacteristics>
														<depth>16</depth>
														<samplerate>48000</samplerate>
													</samplecharacteristics>
													<channelcount>1</channelcount>
													<audiochannel>
														<sourcechannel>6</sourcechannel>
													</audiochannel>
												</audio>
												<audio>
													<samplecharacteristics>
														<depth>16</depth>
														<samplerate>48000</samplerate>
													</samplecharacteristics>
													<channelcount>1</channelcount>
													<audiochannel>
														<sourcechannel>7</sourcechannel>
													</audiochannel>
												</audio>
												<audio>
													<samplecharacteristics>
														<depth>16</depth>
														<samplerate>48000</samplerate>
													</samplecharacteristics>
													<channelcount>1</channelcount>
													<audiochannel>
														<sourcechannel>8</sourcechannel>
													</audiochannel>
												</audio>
											</media>
										</file>
										<sourcetrack>
											<mediatype>audio</mediatype>
											<trackindex>1</trackindex>
										</sourcetrack>
										<link>
											<linkclipref>clipitem-244</linkclipref>
											<mediatype>audio</mediatype>
											<trackindex>1</trackindex>
											<clipindex>1</clipindex>
										</link>
										<link>
											<linkclipref>clipitem-245</linkclipref>
											<mediatype>audio</mediatype>
											<trackindex>2</trackindex>
											<clipindex>1</clipindex>
										</link>
										<link>
											<linkclipref>clipitem-246</linkclipref>
											<mediatype>audio</mediatype>
											<trackindex>3</trackindex>
											<clipindex>1</clipindex>
										</link>
										<link>
											<linkclipref>clipitem-247</linkclipref>
											<mediatype>audio</mediatype>
											<trackindex>4</trackindex>
											<clipindex>1</clipindex>
										</link>
										<link>
											<linkclipref>clipitem-248</linkclipref>
											<mediatype>audio</mediatype>
											<trackindex>5</trackindex>
											<clipindex>1</clipindex>
										</link>
										<link>
											<linkclipref>clipitem-249</linkclipref>
											<mediatype>audio</mediatype>
											<trackindex>6</trackindex>
											<clipindex>1</clipindex>
										</link>
										<link>
											<linkclipref>clipitem-250</linkclipref>
											<mediatype>audio</mediatype>
											<trackindex>7</trackindex>
											<clipindex>1</clipindex>
										</link>
										<link>
											<linkclipref>clipitem-251</linkclipref>
											<mediatype>audio</mediatype>
											<trackindex>8</trackindex>
											<clipindex>1</clipindex>
										</link>
									</clipitem>
								</track>
								<track>
									<clipitem id="clipitem-245">
										<masterclipid>masterclip-75</masterclipid>
										<name>6-01-1.WAV</name>
										<rate>
											<timebase>30</timebase>
											<ntsc>TRUE</ntsc>
										</rate>
										<file id="file-75"/>
										<sourcetrack>
											<mediatype>audio</mediatype>
											<trackindex>2</trackindex>
										</sourcetrack>
										<link>
											<linkclipref>clipitem-244</linkclipref>
											<mediatype>audio</mediatype>
											<trackindex>1</trackindex>
											<clipindex>1</clipindex>
										</link>
										<link>
											<linkclipref>clipitem-245</linkclipref>
											<mediatype>audio</mediatype>
											<trackindex>2</trackindex>
											<clipindex>1</clipindex>
										</link>
										<link>
											<linkclipref>clipitem-246</linkclipref>
											<mediatype>audio</mediatype>
											<trackindex>3</trackindex>
											<clipindex>1</clipindex>
										</link>
										<link>
											<linkclipref>clipitem-247</linkclipref>
											<mediatype>audio</mediatype>
											<trackindex>4</trackindex>
											<clipindex>1</clipindex>
										</link>
										<link>
											<linkclipref>clipitem-248</linkclipref>
											<mediatype>audio</mediatype>
											<trackindex>5</trackindex>
											<clipindex>1</clipindex>
										</link>
										<link>
											<linkclipref>clipitem-249</linkclipref>
											<mediatype>audio</mediatype>
											<trackindex>6</trackindex>
											<clipindex>1</clipindex>
										</link>
										<link>
											<linkclipref>clipitem-250</linkclipref>
											<mediatype>audio</mediatype>
											<trackindex>7</trackindex>
											<clipindex>1</clipindex>
										</link>
										<link>
											<linkclipref>clipitem-251</linkclipref>
											<mediatype>audio</mediatype>
											<trackindex>8</trackindex>
											<clipindex>1</clipindex>
										</link>
									</clipitem>
								</track>
								<track>
									<clipitem id="clipitem-246">
										<masterclipid>masterclip-75</masterclipid>
										<name>6-01-1.WAV</name>
										<rate>
											<timebase>30</timebase>
											<ntsc>TRUE</ntsc>
										</rate>
										<file id="file-75"/>
										<sourcetrack>
											<mediatype>audio</mediatype>
											<trackindex>3</trackindex>
										</sourcetrack>
										<link>
											<linkclipref>clipitem-244</linkclipref>
											<mediatype>audio</mediatype>
											<trackindex>1</trackindex>
											<clipindex>1</clipindex>
										</link>
										<link>
											<linkclipref>clipitem-245</linkclipref>
											<mediatype>audio</mediatype>
											<trackindex>2</trackindex>
											<clipindex>1</clipindex>
										</link>
										<link>
											<linkclipref>clipitem-246</linkclipref>
											<mediatype>audio</mediatype>
											<trackindex>3</trackindex>
											<clipindex>1</clipindex>
										</link>
										<link>
											<linkclipref>clipitem-247</linkclipref>
											<mediatype>audio</mediatype>
											<trackindex>4</trackindex>
											<clipindex>1</clipindex>
										</link>
										<link>
											<linkclipref>clipitem-248</linkclipref>
											<mediatype>audio</mediatype>
											<trackindex>5</trackindex>
											<clipindex>1</clipindex>
										</link>
										<link>
											<linkclipref>clipitem-249</linkclipref>
											<mediatype>audio</mediatype>
											<trackindex>6</trackindex>
											<clipindex>1</clipindex>
										</link>
										<link>
											<linkclipref>clipitem-250</linkclipref>
											<mediatype>audio</mediatype>
											<trackindex>7</trackindex>
											<clipindex>1</clipindex>
										</link>
										<link>
											<linkclipref>clipitem-251</linkclipref>
											<mediatype>audio</mediatype>
											<trackindex>8</trackindex>
											<clipindex>1</clipindex>
										</link>
									</clipitem>
								</track>
								<track>
									<clipitem id="clipitem-247">
										<masterclipid>masterclip-75</masterclipid>
										<name>6-01-1.WAV</name>
										<rate>
											<timebase>30</timebase>
											<ntsc>TRUE</ntsc>
										</rate>
										<file id="file-75"/>
										<sourcetrack>
											<mediatype>audio</mediatype>
											<trackindex>4</trackindex>
										</sourcetrack>
										<link>
											<linkclipref>clipitem-244</linkclipref>
											<mediatype>audio</mediatype>
											<trackindex>1</trackindex>
											<clipindex>1</clipindex>
										</link>
										<link>
											<linkclipref>clipitem-245</linkclipref>
											<mediatype>audio</mediatype>
											<trackindex>2</trackindex>
											<clipindex>1</clipindex>
										</link>
										<link>
											<linkclipref>clipitem-246</linkclipref>
											<mediatype>audio</mediatype>
											<trackindex>3</trackindex>
											<clipindex>1</clipindex>
										</link>
										<link>
											<linkclipref>clipitem-247</linkclipref>
											<mediatype>audio</mediatype>
											<trackindex>4</trackindex>
											<clipindex>1</clipindex>
										</link>
										<link>
											<linkclipref>clipitem-248</linkclipref>
											<mediatype>audio</mediatype>
											<trackindex>5</trackindex>
											<clipindex>1</clipindex>
										</link>
										<link>
											<linkclipref>clipitem-249</linkclipref>
											<mediatype>audio</mediatype>
											<trackindex>6</trackindex>
											<clipindex>1</clipindex>
										</link>
										<link>
											<linkclipref>clipitem-250</linkclipref>
											<mediatype>audio</mediatype>
											<trackindex>7</trackindex>
											<clipindex>1</clipindex>
										</link>
										<link>
											<linkclipref>clipitem-251</linkclipref>
											<mediatype>audio</mediatype>
											<trackindex>8</trackindex>
											<clipindex>1</clipindex>
										</link>
									</clipitem>
								</track>
								<track>
									<clipitem id="clipitem-248">
										<masterclipid>masterclip-75</masterclipid>
										<name>6-01-1.WAV</name>
										<rate>
											<timebase>30</timebase>
											<ntsc>TRUE</ntsc>
										</rate>
										<file id="file-75"/>
										<sourcetrack>
											<mediatype>audio</mediatype>
											<trackindex>5</trackindex>
										</sourcetrack>
										<link>
											<linkclipref>clipitem-244</linkclipref>
											<mediatype>audio</mediatype>
											<trackindex>1</trackindex>
											<clipindex>1</clipindex>
										</link>
										<link>
											<linkclipref>clipitem-245</linkclipref>
											<mediatype>audio</mediatype>
											<trackindex>2</trackindex>
											<clipindex>1</clipindex>
										</link>
										<link>
											<linkclipref>clipitem-246</linkclipref>
											<mediatype>audio</mediatype>
											<trackindex>3</trackindex>
											<clipindex>1</clipindex>
										</link>
										<link>
											<linkclipref>clipitem-247</linkclipref>
											<mediatype>audio</mediatype>
											<trackindex>4</trackindex>
											<clipindex>1</clipindex>
										</link>
										<link>
											<linkclipref>clipitem-248</linkclipref>
											<mediatype>audio</mediatype>
											<trackindex>5</trackindex>
											<clipindex>1</clipindex>
										</link>
										<link>
											<linkclipref>clipitem-249</linkclipref>
											<mediatype>audio</mediatype>
											<trackindex>6</trackindex>
											<clipindex>1</clipindex>
										</link>
										<link>
											<linkclipref>clipitem-250</linkclipref>
											<mediatype>audio</mediatype>
											<trackindex>7</trackindex>
											<clipindex>1</clipindex>
										</link>
										<link>
											<linkclipref>clipitem-251</linkclipref>
											<mediatype>audio</mediatype>
											<trackindex>8</trackindex>
											<clipindex>1</clipindex>
										</link>
									</clipitem>
								</track>
								<track>
									<clipitem id="clipitem-249">
										<masterclipid>masterclip-75</masterclipid>
										<name>6-01-1.WAV</name>
										<rate>
											<timebase>30</timebase>
											<ntsc>TRUE</ntsc>
										</rate>
										<file id="file-75"/>
										<sourcetrack>
											<mediatype>audio</mediatype>
											<trackindex>6</trackindex>
										</sourcetrack>
										<link>
											<linkclipref>clipitem-244</linkclipref>
											<mediatype>audio</mediatype>
											<trackindex>1</trackindex>
											<clipindex>1</clipindex>
										</link>
										<link>
											<linkclipref>clipitem-245</linkclipref>
											<mediatype>audio</mediatype>
											<trackindex>2</trackindex>
											<clipindex>1</clipindex>
										</link>
										<link>
											<linkclipref>clipitem-246</linkclipref>
											<mediatype>audio</mediatype>
											<trackindex>3</trackindex>
											<clipindex>1</clipindex>
										</link>
										<link>
											<linkclipref>clipitem-247</linkclipref>
											<mediatype>audio</mediatype>
											<trackindex>4</trackindex>
											<clipindex>1</clipindex>
										</link>
										<link>
											<linkclipref>clipitem-248</linkclipref>
											<mediatype>audio</mediatype>
											<trackindex>5</trackindex>
											<clipindex>1</clipindex>
										</link>
										<link>
											<linkclipref>clipitem-249</linkclipref>
											<mediatype>audio</mediatype>
											<trackindex>6</trackindex>
											<clipindex>1</clipindex>
										</link>
										<link>
											<linkclipref>clipitem-250</linkclipref>
											<mediatype>audio</mediatype>
											<trackindex>7</trackindex>
											<clipindex>1</clipindex>
										</link>
										<link>
											<linkclipref>clipitem-251</linkclipref>
											<mediatype>audio</mediatype>
											<trackindex>8</trackindex>
											<clipindex>1</clipindex>
										</link>
									</clipitem>
								</track>
								<track>
									<clipitem id="clipitem-250">
										<masterclipid>masterclip-75</masterclipid>
										<name>6-01-1.WAV</name>
										<rate>
											<timebase>30</timebase>
											<ntsc>TRUE</ntsc>
										</rate>
										<file id="file-75"/>
										<sourcetrack>
											<mediatype>audio</mediatype>
											<trackindex>7</trackindex>
										</sourcetrack>
										<link>
											<linkclipref>clipitem-244</linkclipref>
											<mediatype>audio</mediatype>
											<trackindex>1</trackindex>
											<clipindex>1</clipindex>
										</link>
										<link>
											<linkclipref>clipitem-245</linkclipref>
											<mediatype>audio</mediatype>
											<trackindex>2</trackindex>
											<clipindex>1</clipindex>
										</link>
										<link>
											<linkclipref>clipitem-246</linkclipref>
											<mediatype>audio</mediatype>
											<trackindex>3</trackindex>
											<clipindex>1</clipindex>
										</link>
										<link>
											<linkclipref>clipitem-247</linkclipref>
											<mediatype>audio</mediatype>
											<trackindex>4</trackindex>
											<clipindex>1</clipindex>
										</link>
										<link>
											<linkclipref>clipitem-248</linkclipref>
											<mediatype>audio</mediatype>
											<trackindex>5</trackindex>
											<clipindex>1</clipindex>
										</link>
										<link>
											<linkclipref>clipitem-249</linkclipref>
											<mediatype>audio</mediatype>
											<trackindex>6</trackindex>
											<clipindex>1</clipindex>
										</link>
										<link>
											<linkclipref>clipitem-250</linkclipref>
											<mediatype>audio</mediatype>
											<trackindex>7</trackindex>
											<clipindex>1</clipindex>
										</link>
										<link>
											<linkclipref>clipitem-251</linkclipref>
											<mediatype>audio</mediatype>
											<trackindex>8</trackindex>
											<clipindex>1</clipindex>
										</link>
									</clipitem>
								</track>
								<track>
									<clipitem id="clipitem-251">
										<masterclipid>masterclip-75</masterclipid>
										<name>6-01-1.WAV</name>
										<rate>
											<timebase>30</timebase>
											<ntsc>TRUE</ntsc>
										</rate>
										<file id="file-75"/>
										<sourcetrack>
											<mediatype>audio</mediatype>
											<trackindex>8</trackindex>
										</sourcetrack>
										<link>
											<linkclipref>clipitem-244</linkclipref>
											<mediatype>audio</mediatype>
											<trackindex>1</trackindex>
											<clipindex>1</clipindex>
										</link>
										<link>
											<linkclipref>clipitem-245</linkclipref>
											<mediatype>audio</mediatype>
											<trackindex>2</trackindex>
											<clipindex>1</clipindex>
										</link>
										<link>
											<linkclipref>clipitem-246</linkclipref>
											<mediatype>audio</mediatype>
											<trackindex>3</trackindex>
											<clipindex>1</clipindex>
										</link>
										<link>
											<linkclipref>clipitem-247</linkclipref>
											<mediatype>audio</mediatype>
											<trackindex>4</trackindex>
											<clipindex>1</clipindex>
										</link>
										<link>
											<linkclipref>clipitem-248</linkclipref>
											<mediatype>audio</mediatype>
											<trackindex>5</trackindex>
											<clipindex>1</clipindex>
										</link>
										<link>
											<linkclipref>clipitem-249</linkclipref>
											<mediatype>audio</mediatype>
											<trackindex>6</trackindex>
											<clipindex>1</clipindex>
										</link>
										<link>
											<linkclipref>clipitem-250</linkclipref>
											<mediatype>audio</mediatype>
											<trackindex>7</trackindex>
											<clipindex>1</clipindex>
										</link>
										<link>
											<linkclipref>clipitem-251</linkclipref>
											<mediatype>audio</mediatype>
											<trackindex>8</trackindex>
											<clipindex>1</clipindex>
										</link>
									</clipitem>
								</track>
							</audio>
						</media>
						<logginginfo>
							<description></description>
							<scene>6-01</scene>
							<shottake></shottake>
							<lognote></lognote>
							<good></good>
							<originalvideofilename></originalvideofilename>
							<originalaudiofilename></originalaudiofilename>
						</logginginfo>
						<colorinfo>
							<lut></lut>
							<lut1></lut1>
							<asc_sop></asc_sop>
							<asc_sat></asc_sat>
							<lut2></lut2>
						</colorinfo>
						<labels>
							<label2>Mango</label2>
						</labels>
					</clip>
					<clip id="masterclip-76" explodedTracks="true">
						<uuid>bb433ed6-5955-47a8-ab65-bba6883cf3f8</uuid>
						<masterclipid>masterclip-76</masterclipid>
						<ismasterclip>TRUE</ismasterclip>
						<duration>5004</duration>
						<rate>
							<timebase>30</timebase>
							<ntsc>TRUE</ntsc>
						</rate>
						<name>6-01-2.WAV</name>
						<media>
							<audio>
								<track>
									<clipitem id="clipitem-252">
										<masterclipid>masterclip-76</masterclipid>
										<name>6-01-2.WAV</name>
										<rate>
											<timebase>30</timebase>
											<ntsc>TRUE</ntsc>
										</rate>
										<file id="file-76">
											<name>6-01-2.WAV</name>
											<pathurl>file://localhost/S%3a/Projects/PRODIGAL_SON/AUDIO/190511_D01/6-01-2.WAV</pathurl>
											<rate>
												<timebase>30</timebase>
												<ntsc>TRUE</ntsc>
											</rate>
											<duration>5004</duration>
											<timecode>
												<rate>
													<timebase>30</timebase>
													<ntsc>TRUE</ntsc>
												</rate>
												<string>17;21;35;01</string>
												<frame>1872977</frame>
												<displayformat>DF</displayformat>
												<reel>
													<name>190511</name>
												</reel>
											</timecode>
											<media>
												<audio>
													<samplecharacteristics>
														<depth>16</depth>
														<samplerate>48000</samplerate>
													</samplecharacteristics>
													<channelcount>1</channelcount>
													<audiochannel>
														<sourcechannel>1</sourcechannel>
													</audiochannel>
												</audio>
												<audio>
													<samplecharacteristics>
														<depth>16</depth>
														<samplerate>48000</samplerate>
													</samplecharacteristics>
													<channelcount>1</channelcount>
													<audiochannel>
														<sourcechannel>2</sourcechannel>
													</audiochannel>
												</audio>
												<audio>
													<samplecharacteristics>
														<depth>16</depth>
														<samplerate>48000</samplerate>
													</samplecharacteristics>
													<channelcount>1</channelcount>
													<audiochannel>
														<sourcechannel>3</sourcechannel>
													</audiochannel>
												</audio>
												<audio>
													<samplecharacteristics>
														<depth>16</depth>
														<samplerate>48000</samplerate>
													</samplecharacteristics>
													<channelcount>1</channelcount>
													<audiochannel>
														<sourcechannel>4</sourcechannel>
													</audiochannel>
												</audio>
												<audio>
													<samplecharacteristics>
														<depth>16</depth>
														<samplerate>48000</samplerate>
													</samplecharacteristics>
													<channelcount>1</channelcount>
													<audiochannel>
														<sourcechannel>5</sourcechannel>
													</audiochannel>
												</audio>
												<audio>
													<samplecharacteristics>
														<depth>16</depth>
														<samplerate>48000</samplerate>
													</samplecharacteristics>
													<channelcount>1</channelcount>
													<audiochannel>
														<sourcechannel>6</sourcechannel>
													</audiochannel>
												</audio>
												<audio>
													<samplecharacteristics>
														<depth>16</depth>
														<samplerate>48000</samplerate>
													</samplecharacteristics>
													<channelcount>1</channelcount>
													<audiochannel>
														<sourcechannel>7</sourcechannel>
													</audiochannel>
												</audio>
												<audio>
													<samplecharacteristics>
														<depth>16</depth>
														<samplerate>48000</samplerate>
													</samplecharacteristics>
													<channelcount>1</channelcount>
													<audiochannel>
														<sourcechannel>8</sourcechannel>
													</audiochannel>
												</audio>
											</media>
										</file>
										<sourcetrack>
											<mediatype>audio</mediatype>
											<trackindex>1</trackindex>
										</sourcetrack>
										<link>
											<linkclipref>clipitem-252</linkclipref>
											<mediatype>audio</mediatype>
											<trackindex>1</trackindex>
											<clipindex>1</clipindex>
										</link>
										<link>
											<linkclipref>clipitem-253</linkclipref>
											<mediatype>audio</mediatype>
											<trackindex>2</trackindex>
											<clipindex>1</clipindex>
										</link>
										<link>
											<linkclipref>clipitem-254</linkclipref>
											<mediatype>audio</mediatype>
											<trackindex>3</trackindex>
											<clipindex>1</clipindex>
										</link>
										<link>
											<linkclipref>clipitem-255</linkclipref>
											<mediatype>audio</mediatype>
											<trackindex>4</trackindex>
											<clipindex>1</clipindex>
										</link>
										<link>
											<linkclipref>clipitem-256</linkclipref>
											<mediatype>audio</mediatype>
											<trackindex>5</trackindex>
											<clipindex>1</clipindex>
										</link>
										<link>
											<linkclipref>clipitem-257</linkclipref>
											<mediatype>audio</mediatype>
											<trackindex>6</trackindex>
											<clipindex>1</clipindex>
										</link>
										<link>
											<linkclipref>clipitem-258</linkclipref>
											<mediatype>audio</mediatype>
											<trackindex>7</trackindex>
											<clipindex>1</clipindex>
										</link>
										<link>
											<linkclipref>clipitem-259</linkclipref>
											<mediatype>audio</mediatype>
											<trackindex>8</trackindex>
											<clipindex>1</clipindex>
										</link>
									</clipitem>
								</track>
								<track>
									<clipitem id="clipitem-253">
										<masterclipid>masterclip-76</masterclipid>
										<name>6-01-2.WAV</name>
										<rate>
											<timebase>30</timebase>
											<ntsc>TRUE</ntsc>
										</rate>
										<file id="file-76"/>
										<sourcetrack>
											<mediatype>audio</mediatype>
											<trackindex>2</trackindex>
										</sourcetrack>
										<link>
											<linkclipref>clipitem-252</linkclipref>
											<mediatype>audio</mediatype>
											<trackindex>1</trackindex>
											<clipindex>1</clipindex>
										</link>
										<link>
											<linkclipref>clipitem-253</linkclipref>
											<mediatype>audio</mediatype>
											<trackindex>2</trackindex>
											<clipindex>1</clipindex>
										</link>
										<link>
											<linkclipref>clipitem-254</linkclipref>
											<mediatype>audio</mediatype>
											<trackindex>3</trackindex>
											<clipindex>1</clipindex>
										</link>
										<link>
											<linkclipref>clipitem-255</linkclipref>
											<mediatype>audio</mediatype>
											<trackindex>4</trackindex>
											<clipindex>1</clipindex>
										</link>
										<link>
											<linkclipref>clipitem-256</linkclipref>
											<mediatype>audio</mediatype>
											<trackindex>5</trackindex>
											<clipindex>1</clipindex>
										</link>
										<link>
											<linkclipref>clipitem-257</linkclipref>
											<mediatype>audio</mediatype>
											<trackindex>6</trackindex>
											<clipindex>1</clipindex>
										</link>
										<link>
											<linkclipref>clipitem-258</linkclipref>
											<mediatype>audio</mediatype>
											<trackindex>7</trackindex>
											<clipindex>1</clipindex>
										</link>
										<link>
											<linkclipref>clipitem-259</linkclipref>
											<mediatype>audio</mediatype>
											<trackindex>8</trackindex>
											<clipindex>1</clipindex>
										</link>
									</clipitem>
								</track>
								<track>
									<clipitem id="clipitem-254">
										<masterclipid>masterclip-76</masterclipid>
										<name>6-01-2.WAV</name>
										<rate>
											<timebase>30</timebase>
											<ntsc>TRUE</ntsc>
										</rate>
										<file id="file-76"/>
										<sourcetrack>
											<mediatype>audio</mediatype>
											<trackindex>3</trackindex>
										</sourcetrack>
										<link>
											<linkclipref>clipitem-252</linkclipref>
											<mediatype>audio</mediatype>
											<trackindex>1</trackindex>
											<clipindex>1</clipindex>
										</link>
										<link>
											<linkclipref>clipitem-253</linkclipref>
											<mediatype>audio</mediatype>
											<trackindex>2</trackindex>
											<clipindex>1</clipindex>
										</link>
										<link>
											<linkclipref>clipitem-254</linkclipref>
											<mediatype>audio</mediatype>
											<trackindex>3</trackindex>
											<clipindex>1</clipindex>
										</link>
										<link>
											<linkclipref>clipitem-255</linkclipref>
											<mediatype>audio</mediatype>
											<trackindex>4</trackindex>
											<clipindex>1</clipindex>
										</link>
										<link>
											<linkclipref>clipitem-256</linkclipref>
											<mediatype>audio</mediatype>
											<trackindex>5</trackindex>
											<clipindex>1</clipindex>
										</link>
										<link>
											<linkclipref>clipitem-257</linkclipref>
											<mediatype>audio</mediatype>
											<trackindex>6</trackindex>
											<clipindex>1</clipindex>
										</link>
										<link>
											<linkclipref>clipitem-258</linkclipref>
											<mediatype>audio</mediatype>
											<trackindex>7</trackindex>
											<clipindex>1</clipindex>
										</link>
										<link>
											<linkclipref>clipitem-259</linkclipref>
											<mediatype>audio</mediatype>
											<trackindex>8</trackindex>
											<clipindex>1</clipindex>
										</link>
									</clipitem>
								</track>
								<track>
									<clipitem id="clipitem-255">
										<masterclipid>masterclip-76</masterclipid>
										<name>6-01-2.WAV</name>
										<rate>
											<timebase>30</timebase>
											<ntsc>TRUE</ntsc>
										</rate>
										<file id="file-76"/>
										<sourcetrack>
											<mediatype>audio</mediatype>
											<trackindex>4</trackindex>
										</sourcetrack>
										<link>
											<linkclipref>clipitem-252</linkclipref>
											<mediatype>audio</mediatype>
											<trackindex>1</trackindex>
											<clipindex>1</clipindex>
										</link>
										<link>
											<linkclipref>clipitem-253</linkclipref>
											<mediatype>audio</mediatype>
											<trackindex>2</trackindex>
											<clipindex>1</clipindex>
										</link>
										<link>
											<linkclipref>clipitem-254</linkclipref>
											<mediatype>audio</mediatype>
											<trackindex>3</trackindex>
											<clipindex>1</clipindex>
										</link>
										<link>
											<linkclipref>clipitem-255</linkclipref>
											<mediatype>audio</mediatype>
											<trackindex>4</trackindex>
											<clipindex>1</clipindex>
										</link>
										<link>
											<linkclipref>clipitem-256</linkclipref>
											<mediatype>audio</mediatype>
											<trackindex>5</trackindex>
											<clipindex>1</clipindex>
										</link>
										<link>
											<linkclipref>clipitem-257</linkclipref>
											<mediatype>audio</mediatype>
											<trackindex>6</trackindex>
											<clipindex>1</clipindex>
										</link>
										<link>
											<linkclipref>clipitem-258</linkclipref>
											<mediatype>audio</mediatype>
											<trackindex>7</trackindex>
											<clipindex>1</clipindex>
										</link>
										<link>
											<linkclipref>clipitem-259</linkclipref>
											<mediatype>audio</mediatype>
											<trackindex>8</trackindex>
											<clipindex>1</clipindex>
										</link>
									</clipitem>
								</track>
								<track>
									<clipitem id="clipitem-256">
										<masterclipid>masterclip-76</masterclipid>
										<name>6-01-2.WAV</name>
										<rate>
											<timebase>30</timebase>
											<ntsc>TRUE</ntsc>
										</rate>
										<file id="file-76"/>
										<sourcetrack>
											<mediatype>audio</mediatype>
											<trackindex>5</trackindex>
										</sourcetrack>
										<link>
											<linkclipref>clipitem-252</linkclipref>
											<mediatype>audio</mediatype>
											<trackindex>1</trackindex>
											<clipindex>1</clipindex>
										</link>
										<link>
											<linkclipref>clipitem-253</linkclipref>
											<mediatype>audio</mediatype>
											<trackindex>2</trackindex>
											<clipindex>1</clipindex>
										</link>
										<link>
											<linkclipref>clipitem-254</linkclipref>
											<mediatype>audio</mediatype>
											<trackindex>3</trackindex>
											<clipindex>1</clipindex>
										</link>
										<link>
											<linkclipref>clipitem-255</linkclipref>
											<mediatype>audio</mediatype>
											<trackindex>4</trackindex>
											<clipindex>1</clipindex>
										</link>
										<link>
											<linkclipref>clipitem-256</linkclipref>
											<mediatype>audio</mediatype>
											<trackindex>5</trackindex>
											<clipindex>1</clipindex>
										</link>
										<link>
											<linkclipref>clipitem-257</linkclipref>
											<mediatype>audio</mediatype>
											<trackindex>6</trackindex>
											<clipindex>1</clipindex>
										</link>
										<link>
											<linkclipref>clipitem-258</linkclipref>
											<mediatype>audio</mediatype>
											<trackindex>7</trackindex>
											<clipindex>1</clipindex>
										</link>
										<link>
											<linkclipref>clipitem-259</linkclipref>
											<mediatype>audio</mediatype>
											<trackindex>8</trackindex>
											<clipindex>1</clipindex>
										</link>
									</clipitem>
								</track>
								<track>
									<clipitem id="clipitem-257">
										<masterclipid>masterclip-76</masterclipid>
										<name>6-01-2.WAV</name>
										<rate>
											<timebase>30</timebase>
											<ntsc>TRUE</ntsc>
										</rate>
										<file id="file-76"/>
										<sourcetrack>
											<mediatype>audio</mediatype>
											<trackindex>6</trackindex>
										</sourcetrack>
										<link>
											<linkclipref>clipitem-252</linkclipref>
											<mediatype>audio</mediatype>
											<trackindex>1</trackindex>
											<clipindex>1</clipindex>
										</link>
										<link>
											<linkclipref>clipitem-253</linkclipref>
											<mediatype>audio</mediatype>
											<trackindex>2</trackindex>
											<clipindex>1</clipindex>
										</link>
										<link>
											<linkclipref>clipitem-254</linkclipref>
											<mediatype>audio</mediatype>
											<trackindex>3</trackindex>
											<clipindex>1</clipindex>
										</link>
										<link>
											<linkclipref>clipitem-255</linkclipref>
											<mediatype>audio</mediatype>
											<trackindex>4</trackindex>
											<clipindex>1</clipindex>
										</link>
										<link>
											<linkclipref>clipitem-256</linkclipref>
											<mediatype>audio</mediatype>
											<trackindex>5</trackindex>
											<clipindex>1</clipindex>
										</link>
										<link>
											<linkclipref>clipitem-257</linkclipref>
											<mediatype>audio</mediatype>
											<trackindex>6</trackindex>
											<clipindex>1</clipindex>
										</link>
										<link>
											<linkclipref>clipitem-258</linkclipref>
											<mediatype>audio</mediatype>
											<trackindex>7</trackindex>
											<clipindex>1</clipindex>
										</link>
										<link>
											<linkclipref>clipitem-259</linkclipref>
											<mediatype>audio</mediatype>
											<trackindex>8</trackindex>
											<clipindex>1</clipindex>
										</link>
									</clipitem>
								</track>
								<track>
									<clipitem id="clipitem-258">
										<masterclipid>masterclip-76</masterclipid>
										<name>6-01-2.WAV</name>
										<rate>
											<timebase>30</timebase>
											<ntsc>TRUE</ntsc>
										</rate>
										<file id="file-76"/>
										<sourcetrack>
											<mediatype>audio</mediatype>
											<trackindex>7</trackindex>
										</sourcetrack>
										<link>
											<linkclipref>clipitem-252</linkclipref>
											<mediatype>audio</mediatype>
											<trackindex>1</trackindex>
											<clipindex>1</clipindex>
										</link>
										<link>
											<linkclipref>clipitem-253</linkclipref>
											<mediatype>audio</mediatype>
											<trackindex>2</trackindex>
											<clipindex>1</clipindex>
										</link>
										<link>
											<linkclipref>clipitem-254</linkclipref>
											<mediatype>audio</mediatype>
											<trackindex>3</trackindex>
											<clipindex>1</clipindex>
										</link>
										<link>
											<linkclipref>clipitem-255</linkclipref>
											<mediatype>audio</mediatype>
											<trackindex>4</trackindex>
											<clipindex>1</clipindex>
										</link>
										<link>
											<linkclipref>clipitem-256</linkclipref>
											<mediatype>audio</mediatype>
											<trackindex>5</trackindex>
											<clipindex>1</clipindex>
										</link>
										<link>
											<linkclipref>clipitem-257</linkclipref>
											<mediatype>audio</mediatype>
											<trackindex>6</trackindex>
											<clipindex>1</clipindex>
										</link>
										<link>
											<linkclipref>clipitem-258</linkclipref>
											<mediatype>audio</mediatype>
											<trackindex>7</trackindex>
											<clipindex>1</clipindex>
										</link>
										<link>
											<linkclipref>clipitem-259</linkclipref>
											<mediatype>audio</mediatype>
											<trackindex>8</trackindex>
											<clipindex>1</clipindex>
										</link>
									</clipitem>
								</track>
								<track>
									<clipitem id="clipitem-259">
										<masterclipid>masterclip-76</masterclipid>
										<name>6-01-2.WAV</name>
										<rate>
											<timebase>30</timebase>
											<ntsc>TRUE</ntsc>
										</rate>
										<file id="file-76"/>
										<sourcetrack>
											<mediatype>audio</mediatype>
											<trackindex>8</trackindex>
										</sourcetrack>
										<link>
											<linkclipref>clipitem-252</linkclipref>
											<mediatype>audio</mediatype>
											<trackindex>1</trackindex>
											<clipindex>1</clipindex>
										</link>
										<link>
											<linkclipref>clipitem-253</linkclipref>
											<mediatype>audio</mediatype>
											<trackindex>2</trackindex>
											<clipindex>1</clipindex>
										</link>
										<link>
											<linkclipref>clipitem-254</linkclipref>
											<mediatype>audio</mediatype>
											<trackindex>3</trackindex>
											<clipindex>1</clipindex>
										</link>
										<link>
											<linkclipref>clipitem-255</linkclipref>
											<mediatype>audio</mediatype>
											<trackindex>4</trackindex>
											<clipindex>1</clipindex>
										</link>
										<link>
											<linkclipref>clipitem-256</linkclipref>
											<mediatype>audio</mediatype>
											<trackindex>5</trackindex>
											<clipindex>1</clipindex>
										</link>
										<link>
											<linkclipref>clipitem-257</linkclipref>
											<mediatype>audio</mediatype>
											<trackindex>6</trackindex>
											<clipindex>1</clipindex>
										</link>
										<link>
											<linkclipref>clipitem-258</linkclipref>
											<mediatype>audio</mediatype>
											<trackindex>7</trackindex>
											<clipindex>1</clipindex>
										</link>
										<link>
											<linkclipref>clipitem-259</linkclipref>
											<mediatype>audio</mediatype>
											<trackindex>8</trackindex>
											<clipindex>1</clipindex>
										</link>
									</clipitem>
								</track>
							</audio>
						</media>
						<logginginfo>
							<description></description>
							<scene>6-01</scene>
							<shottake></shottake>
							<lognote></lognote>
							<good></good>
							<originalvideofilename></originalvideofilename>
							<originalaudiofilename></originalaudiofilename>
						</logginginfo>
						<colorinfo>
							<lut></lut>
							<lut1></lut1>
							<asc_sop></asc_sop>
							<asc_sat></asc_sat>
							<lut2></lut2>
						</colorinfo>
						<labels>
							<label2>Mango</label2>
						</labels>
					</clip>
					<clip id="masterclip-77" explodedTracks="true">
						<uuid>560fb330-254c-48e4-8815-0ae6d624ce1c</uuid>
						<masterclipid>masterclip-77</masterclipid>
						<ismasterclip>TRUE</ismasterclip>
						<duration>5274</duration>
						<rate>
							<timebase>30</timebase>
							<ntsc>TRUE</ntsc>
						</rate>
						<name>6-01-3.WAV</name>
						<media>
							<audio>
								<track>
									<clipitem id="clipitem-260">
										<masterclipid>masterclip-77</masterclipid>
										<name>6-01-3.WAV</name>
										<rate>
											<timebase>30</timebase>
											<ntsc>TRUE</ntsc>
										</rate>
										<file id="file-77">
											<name>6-01-3.WAV</name>
											<pathurl>file://localhost/S%3a/Projects/PRODIGAL_SON/AUDIO/190511_D01/6-01-3.WAV</pathurl>
											<rate>
												<timebase>30</timebase>
												<ntsc>TRUE</ntsc>
											</rate>
											<duration>5274</duration>
											<timecode>
												<rate>
													<timebase>30</timebase>
													<ntsc>TRUE</ntsc>
												</rate>
												<string>17;28;04;03</string>
												<frame>1884635</frame>
												<displayformat>DF</displayformat>
												<reel>
													<name>190511</name>
												</reel>
											</timecode>
											<media>
												<audio>
													<samplecharacteristics>
														<depth>16</depth>
														<samplerate>48000</samplerate>
													</samplecharacteristics>
													<channelcount>1</channelcount>
													<audiochannel>
														<sourcechannel>1</sourcechannel>
													</audiochannel>
												</audio>
												<audio>
													<samplecharacteristics>
														<depth>16</depth>
														<samplerate>48000</samplerate>
													</samplecharacteristics>
													<channelcount>1</channelcount>
													<audiochannel>
														<sourcechannel>2</sourcechannel>
													</audiochannel>
												</audio>
												<audio>
													<samplecharacteristics>
														<depth>16</depth>
														<samplerate>48000</samplerate>
													</samplecharacteristics>
													<channelcount>1</channelcount>
													<audiochannel>
														<sourcechannel>3</sourcechannel>
													</audiochannel>
												</audio>
												<audio>
													<samplecharacteristics>
														<depth>16</depth>
														<samplerate>48000</samplerate>
													</samplecharacteristics>
													<channelcount>1</channelcount>
													<audiochannel>
														<sourcechannel>4</sourcechannel>
													</audiochannel>
												</audio>
												<audio>
													<samplecharacteristics>
														<depth>16</depth>
														<samplerate>48000</samplerate>
													</samplecharacteristics>
													<channelcount>1</channelcount>
													<audiochannel>
														<sourcechannel>5</sourcechannel>
													</audiochannel>
												</audio>
												<audio>
													<samplecharacteristics>
														<depth>16</depth>
														<samplerate>48000</samplerate>
													</samplecharacteristics>
													<channelcount>1</channelcount>
													<audiochannel>
														<sourcechannel>6</sourcechannel>
													</audiochannel>
												</audio>
												<audio>
													<samplecharacteristics>
														<depth>16</depth>
														<samplerate>48000</samplerate>
													</samplecharacteristics>
													<channelcount>1</channelcount>
													<audiochannel>
														<sourcechannel>7</sourcechannel>
													</audiochannel>
												</audio>
												<audio>
													<samplecharacteristics>
														<depth>16</depth>
														<samplerate>48000</samplerate>
													</samplecharacteristics>
													<channelcount>1</channelcount>
													<audiochannel>
														<sourcechannel>8</sourcechannel>
													</audiochannel>
												</audio>
											</media>
										</file>
										<sourcetrack>
											<mediatype>audio</mediatype>
											<trackindex>1</trackindex>
										</sourcetrack>
										<link>
											<linkclipref>clipitem-260</linkclipref>
											<mediatype>audio</mediatype>
											<trackindex>1</trackindex>
											<clipindex>1</clipindex>
										</link>
										<link>
											<linkclipref>clipitem-261</linkclipref>
											<mediatype>audio</mediatype>
											<trackindex>2</trackindex>
											<clipindex>1</clipindex>
										</link>
										<link>
											<linkclipref>clipitem-262</linkclipref>
											<mediatype>audio</mediatype>
											<trackindex>3</trackindex>
											<clipindex>1</clipindex>
										</link>
										<link>
											<linkclipref>clipitem-263</linkclipref>
											<mediatype>audio</mediatype>
											<trackindex>4</trackindex>
											<clipindex>1</clipindex>
										</link>
										<link>
											<linkclipref>clipitem-264</linkclipref>
											<mediatype>audio</mediatype>
											<trackindex>5</trackindex>
											<clipindex>1</clipindex>
										</link>
										<link>
											<linkclipref>clipitem-265</linkclipref>
											<mediatype>audio</mediatype>
											<trackindex>6</trackindex>
											<clipindex>1</clipindex>
										</link>
										<link>
											<linkclipref>clipitem-266</linkclipref>
											<mediatype>audio</mediatype>
											<trackindex>7</trackindex>
											<clipindex>1</clipindex>
										</link>
										<link>
											<linkclipref>clipitem-267</linkclipref>
											<mediatype>audio</mediatype>
											<trackindex>8</trackindex>
											<clipindex>1</clipindex>
										</link>
									</clipitem>
								</track>
								<track>
									<clipitem id="clipitem-261">
										<masterclipid>masterclip-77</masterclipid>
										<name>6-01-3.WAV</name>
										<rate>
											<timebase>30</timebase>
											<ntsc>TRUE</ntsc>
										</rate>
										<file id="file-77"/>
										<sourcetrack>
											<mediatype>audio</mediatype>
											<trackindex>2</trackindex>
										</sourcetrack>
										<link>
											<linkclipref>clipitem-260</linkclipref>
											<mediatype>audio</mediatype>
											<trackindex>1</trackindex>
											<clipindex>1</clipindex>
										</link>
										<link>
											<linkclipref>clipitem-261</linkclipref>
											<mediatype>audio</mediatype>
											<trackindex>2</trackindex>
											<clipindex>1</clipindex>
										</link>
										<link>
											<linkclipref>clipitem-262</linkclipref>
											<mediatype>audio</mediatype>
											<trackindex>3</trackindex>
											<clipindex>1</clipindex>
										</link>
										<link>
											<linkclipref>clipitem-263</linkclipref>
											<mediatype>audio</mediatype>
											<trackindex>4</trackindex>
											<clipindex>1</clipindex>
										</link>
										<link>
											<linkclipref>clipitem-264</linkclipref>
											<mediatype>audio</mediatype>
											<trackindex>5</trackindex>
											<clipindex>1</clipindex>
										</link>
										<link>
											<linkclipref>clipitem-265</linkclipref>
											<mediatype>audio</mediatype>
											<trackindex>6</trackindex>
											<clipindex>1</clipindex>
										</link>
										<link>
											<linkclipref>clipitem-266</linkclipref>
											<mediatype>audio</mediatype>
											<trackindex>7</trackindex>
											<clipindex>1</clipindex>
										</link>
										<link>
											<linkclipref>clipitem-267</linkclipref>
											<mediatype>audio</mediatype>
											<trackindex>8</trackindex>
											<clipindex>1</clipindex>
										</link>
									</clipitem>
								</track>
								<track>
									<clipitem id="clipitem-262">
										<masterclipid>masterclip-77</masterclipid>
										<name>6-01-3.WAV</name>
										<rate>
											<timebase>30</timebase>
											<ntsc>TRUE</ntsc>
										</rate>
										<file id="file-77"/>
										<sourcetrack>
											<mediatype>audio</mediatype>
											<trackindex>3</trackindex>
										</sourcetrack>
										<link>
											<linkclipref>clipitem-260</linkclipref>
											<mediatype>audio</mediatype>
											<trackindex>1</trackindex>
											<clipindex>1</clipindex>
										</link>
										<link>
											<linkclipref>clipitem-261</linkclipref>
											<mediatype>audio</mediatype>
											<trackindex>2</trackindex>
											<clipindex>1</clipindex>
										</link>
										<link>
											<linkclipref>clipitem-262</linkclipref>
											<mediatype>audio</mediatype>
											<trackindex>3</trackindex>
											<clipindex>1</clipindex>
										</link>
										<link>
											<linkclipref>clipitem-263</linkclipref>
											<mediatype>audio</mediatype>
											<trackindex>4</trackindex>
											<clipindex>1</clipindex>
										</link>
										<link>
											<linkclipref>clipitem-264</linkclipref>
											<mediatype>audio</mediatype>
											<trackindex>5</trackindex>
											<clipindex>1</clipindex>
										</link>
										<link>
											<linkclipref>clipitem-265</linkclipref>
											<mediatype>audio</mediatype>
											<trackindex>6</trackindex>
											<clipindex>1</clipindex>
										</link>
										<link>
											<linkclipref>clipitem-266</linkclipref>
											<mediatype>audio</mediatype>
											<trackindex>7</trackindex>
											<clipindex>1</clipindex>
										</link>
										<link>
											<linkclipref>clipitem-267</linkclipref>
											<mediatype>audio</mediatype>
											<trackindex>8</trackindex>
											<clipindex>1</clipindex>
										</link>
									</clipitem>
								</track>
								<track>
									<clipitem id="clipitem-263">
										<masterclipid>masterclip-77</masterclipid>
										<name>6-01-3.WAV</name>
										<rate>
											<timebase>30</timebase>
											<ntsc>TRUE</ntsc>
										</rate>
										<file id="file-77"/>
										<sourcetrack>
											<mediatype>audio</mediatype>
											<trackindex>4</trackindex>
										</sourcetrack>
										<link>
											<linkclipref>clipitem-260</linkclipref>
											<mediatype>audio</mediatype>
											<trackindex>1</trackindex>
											<clipindex>1</clipindex>
										</link>
										<link>
											<linkclipref>clipitem-261</linkclipref>
											<mediatype>audio</mediatype>
											<trackindex>2</trackindex>
											<clipindex>1</clipindex>
										</link>
										<link>
											<linkclipref>clipitem-262</linkclipref>
											<mediatype>audio</mediatype>
											<trackindex>3</trackindex>
											<clipindex>1</clipindex>
										</link>
										<link>
											<linkclipref>clipitem-263</linkclipref>
											<mediatype>audio</mediatype>
											<trackindex>4</trackindex>
											<clipindex>1</clipindex>
										</link>
										<link>
											<linkclipref>clipitem-264</linkclipref>
											<mediatype>audio</mediatype>
											<trackindex>5</trackindex>
											<clipindex>1</clipindex>
										</link>
										<link>
											<linkclipref>clipitem-265</linkclipref>
											<mediatype>audio</mediatype>
											<trackindex>6</trackindex>
											<clipindex>1</clipindex>
										</link>
										<link>
											<linkclipref>clipitem-266</linkclipref>
											<mediatype>audio</mediatype>
											<trackindex>7</trackindex>
											<clipindex>1</clipindex>
										</link>
										<link>
											<linkclipref>clipitem-267</linkclipref>
											<mediatype>audio</mediatype>
											<trackindex>8</trackindex>
											<clipindex>1</clipindex>
										</link>
									</clipitem>
								</track>
								<track>
									<clipitem id="clipitem-264">
										<masterclipid>masterclip-77</masterclipid>
										<name>6-01-3.WAV</name>
										<rate>
											<timebase>30</timebase>
											<ntsc>TRUE</ntsc>
										</rate>
										<file id="file-77"/>
										<sourcetrack>
											<mediatype>audio</mediatype>
											<trackindex>5</trackindex>
										</sourcetrack>
										<link>
											<linkclipref>clipitem-260</linkclipref>
											<mediatype>audio</mediatype>
											<trackindex>1</trackindex>
											<clipindex>1</clipindex>
										</link>
										<link>
											<linkclipref>clipitem-261</linkclipref>
											<mediatype>audio</mediatype>
											<trackindex>2</trackindex>
											<clipindex>1</clipindex>
										</link>
										<link>
											<linkclipref>clipitem-262</linkclipref>
											<mediatype>audio</mediatype>
											<trackindex>3</trackindex>
											<clipindex>1</clipindex>
										</link>
										<link>
											<linkclipref>clipitem-263</linkclipref>
											<mediatype>audio</mediatype>
											<trackindex>4</trackindex>
											<clipindex>1</clipindex>
										</link>
										<link>
											<linkclipref>clipitem-264</linkclipref>
											<mediatype>audio</mediatype>
											<trackindex>5</trackindex>
											<clipindex>1</clipindex>
										</link>
										<link>
											<linkclipref>clipitem-265</linkclipref>
											<mediatype>audio</mediatype>
											<trackindex>6</trackindex>
											<clipindex>1</clipindex>
										</link>
										<link>
											<linkclipref>clipitem-266</linkclipref>
											<mediatype>audio</mediatype>
											<trackindex>7</trackindex>
											<clipindex>1</clipindex>
										</link>
										<link>
											<linkclipref>clipitem-267</linkclipref>
											<mediatype>audio</mediatype>
											<trackindex>8</trackindex>
											<clipindex>1</clipindex>
										</link>
									</clipitem>
								</track>
								<track>
									<clipitem id="clipitem-265">
										<masterclipid>masterclip-77</masterclipid>
										<name>6-01-3.WAV</name>
										<rate>
											<timebase>30</timebase>
											<ntsc>TRUE</ntsc>
										</rate>
										<file id="file-77"/>
										<sourcetrack>
											<mediatype>audio</mediatype>
											<trackindex>6</trackindex>
										</sourcetrack>
										<link>
											<linkclipref>clipitem-260</linkclipref>
											<mediatype>audio</mediatype>
											<trackindex>1</trackindex>
											<clipindex>1</clipindex>
										</link>
										<link>
											<linkclipref>clipitem-261</linkclipref>
											<mediatype>audio</mediatype>
											<trackindex>2</trackindex>
											<clipindex>1</clipindex>
										</link>
										<link>
											<linkclipref>clipitem-262</linkclipref>
											<mediatype>audio</mediatype>
											<trackindex>3</trackindex>
											<clipindex>1</clipindex>
										</link>
										<link>
											<linkclipref>clipitem-263</linkclipref>
											<mediatype>audio</mediatype>
											<trackindex>4</trackindex>
											<clipindex>1</clipindex>
										</link>
										<link>
											<linkclipref>clipitem-264</linkclipref>
											<mediatype>audio</mediatype>
											<trackindex>5</trackindex>
											<clipindex>1</clipindex>
										</link>
										<link>
											<linkclipref>clipitem-265</linkclipref>
											<mediatype>audio</mediatype>
											<trackindex>6</trackindex>
											<clipindex>1</clipindex>
										</link>
										<link>
											<linkclipref>clipitem-266</linkclipref>
											<mediatype>audio</mediatype>
											<trackindex>7</trackindex>
											<clipindex>1</clipindex>
										</link>
										<link>
											<linkclipref>clipitem-267</linkclipref>
											<mediatype>audio</mediatype>
											<trackindex>8</trackindex>
											<clipindex>1</clipindex>
										</link>
									</clipitem>
								</track>
								<track>
									<clipitem id="clipitem-266">
										<masterclipid>masterclip-77</masterclipid>
										<name>6-01-3.WAV</name>
										<rate>
											<timebase>30</timebase>
											<ntsc>TRUE</ntsc>
										</rate>
										<file id="file-77"/>
										<sourcetrack>
											<mediatype>audio</mediatype>
											<trackindex>7</trackindex>
										</sourcetrack>
										<link>
											<linkclipref>clipitem-260</linkclipref>
											<mediatype>audio</mediatype>
											<trackindex>1</trackindex>
											<clipindex>1</clipindex>
										</link>
										<link>
											<linkclipref>clipitem-261</linkclipref>
											<mediatype>audio</mediatype>
											<trackindex>2</trackindex>
											<clipindex>1</clipindex>
										</link>
										<link>
											<linkclipref>clipitem-262</linkclipref>
											<mediatype>audio</mediatype>
											<trackindex>3</trackindex>
											<clipindex>1</clipindex>
										</link>
										<link>
											<linkclipref>clipitem-263</linkclipref>
											<mediatype>audio</mediatype>
											<trackindex>4</trackindex>
											<clipindex>1</clipindex>
										</link>
										<link>
											<linkclipref>clipitem-264</linkclipref>
											<mediatype>audio</mediatype>
											<trackindex>5</trackindex>
											<clipindex>1</clipindex>
										</link>
										<link>
											<linkclipref>clipitem-265</linkclipref>
											<mediatype>audio</mediatype>
											<trackindex>6</trackindex>
											<clipindex>1</clipindex>
										</link>
										<link>
											<linkclipref>clipitem-266</linkclipref>
											<mediatype>audio</mediatype>
											<trackindex>7</trackindex>
											<clipindex>1</clipindex>
										</link>
										<link>
											<linkclipref>clipitem-267</linkclipref>
											<mediatype>audio</mediatype>
											<trackindex>8</trackindex>
											<clipindex>1</clipindex>
										</link>
									</clipitem>
								</track>
								<track>
									<clipitem id="clipitem-267">
										<masterclipid>masterclip-77</masterclipid>
										<name>6-01-3.WAV</name>
										<rate>
											<timebase>30</timebase>
											<ntsc>TRUE</ntsc>
										</rate>
										<file id="file-77"/>
										<sourcetrack>
											<mediatype>audio</mediatype>
											<trackindex>8</trackindex>
										</sourcetrack>
										<link>
											<linkclipref>clipitem-260</linkclipref>
											<mediatype>audio</mediatype>
											<trackindex>1</trackindex>
											<clipindex>1</clipindex>
										</link>
										<link>
											<linkclipref>clipitem-261</linkclipref>
											<mediatype>audio</mediatype>
											<trackindex>2</trackindex>
											<clipindex>1</clipindex>
										</link>
										<link>
											<linkclipref>clipitem-262</linkclipref>
											<mediatype>audio</mediatype>
											<trackindex>3</trackindex>
											<clipindex>1</clipindex>
										</link>
										<link>
											<linkclipref>clipitem-263</linkclipref>
											<mediatype>audio</mediatype>
											<trackindex>4</trackindex>
											<clipindex>1</clipindex>
										</link>
										<link>
											<linkclipref>clipitem-264</linkclipref>
											<mediatype>audio</mediatype>
											<trackindex>5</trackindex>
											<clipindex>1</clipindex>
										</link>
										<link>
											<linkclipref>clipitem-265</linkclipref>
											<mediatype>audio</mediatype>
											<trackindex>6</trackindex>
											<clipindex>1</clipindex>
										</link>
										<link>
											<linkclipref>clipitem-266</linkclipref>
											<mediatype>audio</mediatype>
											<trackindex>7</trackindex>
											<clipindex>1</clipindex>
										</link>
										<link>
											<linkclipref>clipitem-267</linkclipref>
											<mediatype>audio</mediatype>
											<trackindex>8</trackindex>
											<clipindex>1</clipindex>
										</link>
									</clipitem>
								</track>
							</audio>
						</media>
						<logginginfo>
							<description></description>
							<scene>6-01</scene>
							<shottake></shottake>
							<lognote></lognote>
							<good></good>
							<originalvideofilename></originalvideofilename>
							<originalaudiofilename></originalaudiofilename>
						</logginginfo>
						<colorinfo>
							<lut></lut>
							<lut1></lut1>
							<asc_sop></asc_sop>
							<asc_sat></asc_sat>
							<lut2></lut2>
						</colorinfo>
						<labels>
							<label2>Mango</label2>
						</labels>
					</clip>
					<clip id="masterclip-78" explodedTracks="true">
						<uuid>f4d32aa1-43b9-4246-aca8-d23b0dc67455</uuid>
						<masterclipid>masterclip-78</masterclipid>
						<ismasterclip>TRUE</ismasterclip>
						<duration>6323</duration>
						<rate>
							<timebase>30</timebase>
							<ntsc>TRUE</ntsc>
						</rate>
						<name>6-01-4.WAV</name>
						<media>
							<audio>
								<track>
									<clipitem id="clipitem-268">
										<masterclipid>masterclip-78</masterclipid>
										<name>6-01-4.WAV</name>
										<rate>
											<timebase>30</timebase>
											<ntsc>TRUE</ntsc>
										</rate>
										<file id="file-78">
											<name>6-01-4.WAV</name>
											<pathurl>file://localhost/S%3a/Projects/PRODIGAL_SON/AUDIO/190511_D01/6-01-4.WAV</pathurl>
											<rate>
												<timebase>30</timebase>
												<ntsc>TRUE</ntsc>
											</rate>
											<duration>6323</duration>
											<timecode>
												<rate>
													<timebase>30</timebase>
													<ntsc>TRUE</ntsc>
												</rate>
												<string>17;34;46;01</string>
												<frame>1896683</frame>
												<displayformat>DF</displayformat>
												<reel>
													<name>190511</name>
												</reel>
											</timecode>
											<media>
												<audio>
													<samplecharacteristics>
														<depth>16</depth>
														<samplerate>48000</samplerate>
													</samplecharacteristics>
													<channelcount>1</channelcount>
													<audiochannel>
														<sourcechannel>1</sourcechannel>
													</audiochannel>
												</audio>
												<audio>
													<samplecharacteristics>
														<depth>16</depth>
														<samplerate>48000</samplerate>
													</samplecharacteristics>
													<channelcount>1</channelcount>
													<audiochannel>
														<sourcechannel>2</sourcechannel>
													</audiochannel>
												</audio>
												<audio>
													<samplecharacteristics>
														<depth>16</depth>
														<samplerate>48000</samplerate>
													</samplecharacteristics>
													<channelcount>1</channelcount>
													<audiochannel>
														<sourcechannel>3</sourcechannel>
													</audiochannel>
												</audio>
												<audio>
													<samplecharacteristics>
														<depth>16</depth>
														<samplerate>48000</samplerate>
													</samplecharacteristics>
													<channelcount>1</channelcount>
													<audiochannel>
														<sourcechannel>4</sourcechannel>
													</audiochannel>
												</audio>
												<audio>
													<samplecharacteristics>
														<depth>16</depth>
														<samplerate>48000</samplerate>
													</samplecharacteristics>
													<channelcount>1</channelcount>
													<audiochannel>
														<sourcechannel>5</sourcechannel>
													</audiochannel>
												</audio>
												<audio>
													<samplecharacteristics>
														<depth>16</depth>
														<samplerate>48000</samplerate>
													</samplecharacteristics>
													<channelcount>1</channelcount>
													<audiochannel>
														<sourcechannel>6</sourcechannel>
													</audiochannel>
												</audio>
												<audio>
													<samplecharacteristics>
														<depth>16</depth>
														<samplerate>48000</samplerate>
													</samplecharacteristics>
													<channelcount>1</channelcount>
													<audiochannel>
														<sourcechannel>7</sourcechannel>
													</audiochannel>
												</audio>
												<audio>
													<samplecharacteristics>
														<depth>16</depth>
														<samplerate>48000</samplerate>
													</samplecharacteristics>
													<channelcount>1</channelcount>
													<audiochannel>
														<sourcechannel>8</sourcechannel>
													</audiochannel>
												</audio>
											</media>
										</file>
										<sourcetrack>
											<mediatype>audio</mediatype>
											<trackindex>1</trackindex>
										</sourcetrack>
										<link>
											<linkclipref>clipitem-268</linkclipref>
											<mediatype>audio</mediatype>
											<trackindex>1</trackindex>
											<clipindex>1</clipindex>
										</link>
										<link>
											<linkclipref>clipitem-269</linkclipref>
											<mediatype>audio</mediatype>
											<trackindex>2</trackindex>
											<clipindex>1</clipindex>
										</link>
										<link>
											<linkclipref>clipitem-270</linkclipref>
											<mediatype>audio</mediatype>
											<trackindex>3</trackindex>
											<clipindex>1</clipindex>
										</link>
										<link>
											<linkclipref>clipitem-271</linkclipref>
											<mediatype>audio</mediatype>
											<trackindex>4</trackindex>
											<clipindex>1</clipindex>
										</link>
										<link>
											<linkclipref>clipitem-272</linkclipref>
											<mediatype>audio</mediatype>
											<trackindex>5</trackindex>
											<clipindex>1</clipindex>
										</link>
										<link>
											<linkclipref>clipitem-273</linkclipref>
											<mediatype>audio</mediatype>
											<trackindex>6</trackindex>
											<clipindex>1</clipindex>
										</link>
										<link>
											<linkclipref>clipitem-274</linkclipref>
											<mediatype>audio</mediatype>
											<trackindex>7</trackindex>
											<clipindex>1</clipindex>
										</link>
										<link>
											<linkclipref>clipitem-275</linkclipref>
											<mediatype>audio</mediatype>
											<trackindex>8</trackindex>
											<clipindex>1</clipindex>
										</link>
									</clipitem>
								</track>
								<track>
									<clipitem id="clipitem-269">
										<masterclipid>masterclip-78</masterclipid>
										<name>6-01-4.WAV</name>
										<rate>
											<timebase>30</timebase>
											<ntsc>TRUE</ntsc>
										</rate>
										<file id="file-78"/>
										<sourcetrack>
											<mediatype>audio</mediatype>
											<trackindex>2</trackindex>
										</sourcetrack>
										<link>
											<linkclipref>clipitem-268</linkclipref>
											<mediatype>audio</mediatype>
											<trackindex>1</trackindex>
											<clipindex>1</clipindex>
										</link>
										<link>
											<linkclipref>clipitem-269</linkclipref>
											<mediatype>audio</mediatype>
											<trackindex>2</trackindex>
											<clipindex>1</clipindex>
										</link>
										<link>
											<linkclipref>clipitem-270</linkclipref>
											<mediatype>audio</mediatype>
											<trackindex>3</trackindex>
											<clipindex>1</clipindex>
										</link>
										<link>
											<linkclipref>clipitem-271</linkclipref>
											<mediatype>audio</mediatype>
											<trackindex>4</trackindex>
											<clipindex>1</clipindex>
										</link>
										<link>
											<linkclipref>clipitem-272</linkclipref>
											<mediatype>audio</mediatype>
											<trackindex>5</trackindex>
											<clipindex>1</clipindex>
										</link>
										<link>
											<linkclipref>clipitem-273</linkclipref>
											<mediatype>audio</mediatype>
											<trackindex>6</trackindex>
											<clipindex>1</clipindex>
										</link>
										<link>
											<linkclipref>clipitem-274</linkclipref>
											<mediatype>audio</mediatype>
											<trackindex>7</trackindex>
											<clipindex>1</clipindex>
										</link>
										<link>
											<linkclipref>clipitem-275</linkclipref>
											<mediatype>audio</mediatype>
											<trackindex>8</trackindex>
											<clipindex>1</clipindex>
										</link>
									</clipitem>
								</track>
								<track>
									<clipitem id="clipitem-270">
										<masterclipid>masterclip-78</masterclipid>
										<name>6-01-4.WAV</name>
										<rate>
											<timebase>30</timebase>
											<ntsc>TRUE</ntsc>
										</rate>
										<file id="file-78"/>
										<sourcetrack>
											<mediatype>audio</mediatype>
											<trackindex>3</trackindex>
										</sourcetrack>
										<link>
											<linkclipref>clipitem-268</linkclipref>
											<mediatype>audio</mediatype>
											<trackindex>1</trackindex>
											<clipindex>1</clipindex>
										</link>
										<link>
											<linkclipref>clipitem-269</linkclipref>
											<mediatype>audio</mediatype>
											<trackindex>2</trackindex>
											<clipindex>1</clipindex>
										</link>
										<link>
											<linkclipref>clipitem-270</linkclipref>
											<mediatype>audio</mediatype>
											<trackindex>3</trackindex>
											<clipindex>1</clipindex>
										</link>
										<link>
											<linkclipref>clipitem-271</linkclipref>
											<mediatype>audio</mediatype>
											<trackindex>4</trackindex>
											<clipindex>1</clipindex>
										</link>
										<link>
											<linkclipref>clipitem-272</linkclipref>
											<mediatype>audio</mediatype>
											<trackindex>5</trackindex>
											<clipindex>1</clipindex>
										</link>
										<link>
											<linkclipref>clipitem-273</linkclipref>
											<mediatype>audio</mediatype>
											<trackindex>6</trackindex>
											<clipindex>1</clipindex>
										</link>
										<link>
											<linkclipref>clipitem-274</linkclipref>
											<mediatype>audio</mediatype>
											<trackindex>7</trackindex>
											<clipindex>1</clipindex>
										</link>
										<link>
											<linkclipref>clipitem-275</linkclipref>
											<mediatype>audio</mediatype>
											<trackindex>8</trackindex>
											<clipindex>1</clipindex>
										</link>
									</clipitem>
								</track>
								<track>
									<clipitem id="clipitem-271">
										<masterclipid>masterclip-78</masterclipid>
										<name>6-01-4.WAV</name>
										<rate>
											<timebase>30</timebase>
											<ntsc>TRUE</ntsc>
										</rate>
										<file id="file-78"/>
										<sourcetrack>
											<mediatype>audio</mediatype>
											<trackindex>4</trackindex>
										</sourcetrack>
										<link>
											<linkclipref>clipitem-268</linkclipref>
											<mediatype>audio</mediatype>
											<trackindex>1</trackindex>
											<clipindex>1</clipindex>
										</link>
										<link>
											<linkclipref>clipitem-269</linkclipref>
											<mediatype>audio</mediatype>
											<trackindex>2</trackindex>
											<clipindex>1</clipindex>
										</link>
										<link>
											<linkclipref>clipitem-270</linkclipref>
											<mediatype>audio</mediatype>
											<trackindex>3</trackindex>
											<clipindex>1</clipindex>
										</link>
										<link>
											<linkclipref>clipitem-271</linkclipref>
											<mediatype>audio</mediatype>
											<trackindex>4</trackindex>
											<clipindex>1</clipindex>
										</link>
										<link>
											<linkclipref>clipitem-272</linkclipref>
											<mediatype>audio</mediatype>
											<trackindex>5</trackindex>
											<clipindex>1</clipindex>
										</link>
										<link>
											<linkclipref>clipitem-273</linkclipref>
											<mediatype>audio</mediatype>
											<trackindex>6</trackindex>
											<clipindex>1</clipindex>
										</link>
										<link>
											<linkclipref>clipitem-274</linkclipref>
											<mediatype>audio</mediatype>
											<trackindex>7</trackindex>
											<clipindex>1</clipindex>
										</link>
										<link>
											<linkclipref>clipitem-275</linkclipref>
											<mediatype>audio</mediatype>
											<trackindex>8</trackindex>
											<clipindex>1</clipindex>
										</link>
									</clipitem>
								</track>
								<track>
									<clipitem id="clipitem-272">
										<masterclipid>masterclip-78</masterclipid>
										<name>6-01-4.WAV</name>
										<rate>
											<timebase>30</timebase>
											<ntsc>TRUE</ntsc>
										</rate>
										<file id="file-78"/>
										<sourcetrack>
											<mediatype>audio</mediatype>
											<trackindex>5</trackindex>
										</sourcetrack>
										<link>
											<linkclipref>clipitem-268</linkclipref>
											<mediatype>audio</mediatype>
											<trackindex>1</trackindex>
											<clipindex>1</clipindex>
										</link>
										<link>
											<linkclipref>clipitem-269</linkclipref>
											<mediatype>audio</mediatype>
											<trackindex>2</trackindex>
											<clipindex>1</clipindex>
										</link>
										<link>
											<linkclipref>clipitem-270</linkclipref>
											<mediatype>audio</mediatype>
											<trackindex>3</trackindex>
											<clipindex>1</clipindex>
										</link>
										<link>
											<linkclipref>clipitem-271</linkclipref>
											<mediatype>audio</mediatype>
											<trackindex>4</trackindex>
											<clipindex>1</clipindex>
										</link>
										<link>
											<linkclipref>clipitem-272</linkclipref>
											<mediatype>audio</mediatype>
											<trackindex>5</trackindex>
											<clipindex>1</clipindex>
										</link>
										<link>
											<linkclipref>clipitem-273</linkclipref>
											<mediatype>audio</mediatype>
											<trackindex>6</trackindex>
											<clipindex>1</clipindex>
										</link>
										<link>
											<linkclipref>clipitem-274</linkclipref>
											<mediatype>audio</mediatype>
											<trackindex>7</trackindex>
											<clipindex>1</clipindex>
										</link>
										<link>
											<linkclipref>clipitem-275</linkclipref>
											<mediatype>audio</mediatype>
											<trackindex>8</trackindex>
											<clipindex>1</clipindex>
										</link>
									</clipitem>
								</track>
								<track>
									<clipitem id="clipitem-273">
										<masterclipid>masterclip-78</masterclipid>
										<name>6-01-4.WAV</name>
										<rate>
											<timebase>30</timebase>
											<ntsc>TRUE</ntsc>
										</rate>
										<file id="file-78"/>
										<sourcetrack>
											<mediatype>audio</mediatype>
											<trackindex>6</trackindex>
										</sourcetrack>
										<link>
											<linkclipref>clipitem-268</linkclipref>
											<mediatype>audio</mediatype>
											<trackindex>1</trackindex>
											<clipindex>1</clipindex>
										</link>
										<link>
											<linkclipref>clipitem-269</linkclipref>
											<mediatype>audio</mediatype>
											<trackindex>2</trackindex>
											<clipindex>1</clipindex>
										</link>
										<link>
											<linkclipref>clipitem-270</linkclipref>
											<mediatype>audio</mediatype>
											<trackindex>3</trackindex>
											<clipindex>1</clipindex>
										</link>
										<link>
											<linkclipref>clipitem-271</linkclipref>
											<mediatype>audio</mediatype>
											<trackindex>4</trackindex>
											<clipindex>1</clipindex>
										</link>
										<link>
											<linkclipref>clipitem-272</linkclipref>
											<mediatype>audio</mediatype>
											<trackindex>5</trackindex>
											<clipindex>1</clipindex>
										</link>
										<link>
											<linkclipref>clipitem-273</linkclipref>
											<mediatype>audio</mediatype>
											<trackindex>6</trackindex>
											<clipindex>1</clipindex>
										</link>
										<link>
											<linkclipref>clipitem-274</linkclipref>
											<mediatype>audio</mediatype>
											<trackindex>7</trackindex>
											<clipindex>1</clipindex>
										</link>
										<link>
											<linkclipref>clipitem-275</linkclipref>
											<mediatype>audio</mediatype>
											<trackindex>8</trackindex>
											<clipindex>1</clipindex>
										</link>
									</clipitem>
								</track>
								<track>
									<clipitem id="clipitem-274">
										<masterclipid>masterclip-78</masterclipid>
										<name>6-01-4.WAV</name>
										<rate>
											<timebase>30</timebase>
											<ntsc>TRUE</ntsc>
										</rate>
										<file id="file-78"/>
										<sourcetrack>
											<mediatype>audio</mediatype>
											<trackindex>7</trackindex>
										</sourcetrack>
										<link>
											<linkclipref>clipitem-268</linkclipref>
											<mediatype>audio</mediatype>
											<trackindex>1</trackindex>
											<clipindex>1</clipindex>
										</link>
										<link>
											<linkclipref>clipitem-269</linkclipref>
											<mediatype>audio</mediatype>
											<trackindex>2</trackindex>
											<clipindex>1</clipindex>
										</link>
										<link>
											<linkclipref>clipitem-270</linkclipref>
											<mediatype>audio</mediatype>
											<trackindex>3</trackindex>
											<clipindex>1</clipindex>
										</link>
										<link>
											<linkclipref>clipitem-271</linkclipref>
											<mediatype>audio</mediatype>
											<trackindex>4</trackindex>
											<clipindex>1</clipindex>
										</link>
										<link>
											<linkclipref>clipitem-272</linkclipref>
											<mediatype>audio</mediatype>
											<trackindex>5</trackindex>
											<clipindex>1</clipindex>
										</link>
										<link>
											<linkclipref>clipitem-273</linkclipref>
											<mediatype>audio</mediatype>
											<trackindex>6</trackindex>
											<clipindex>1</clipindex>
										</link>
										<link>
											<linkclipref>clipitem-274</linkclipref>
											<mediatype>audio</mediatype>
											<trackindex>7</trackindex>
											<clipindex>1</clipindex>
										</link>
										<link>
											<linkclipref>clipitem-275</linkclipref>
											<mediatype>audio</mediatype>
											<trackindex>8</trackindex>
											<clipindex>1</clipindex>
										</link>
									</clipitem>
								</track>
								<track>
									<clipitem id="clipitem-275">
										<masterclipid>masterclip-78</masterclipid>
										<name>6-01-4.WAV</name>
										<rate>
											<timebase>30</timebase>
											<ntsc>TRUE</ntsc>
										</rate>
										<file id="file-78"/>
										<sourcetrack>
											<mediatype>audio</mediatype>
											<trackindex>8</trackindex>
										</sourcetrack>
										<link>
											<linkclipref>clipitem-268</linkclipref>
											<mediatype>audio</mediatype>
											<trackindex>1</trackindex>
											<clipindex>1</clipindex>
										</link>
										<link>
											<linkclipref>clipitem-269</linkclipref>
											<mediatype>audio</mediatype>
											<trackindex>2</trackindex>
											<clipindex>1</clipindex>
										</link>
										<link>
											<linkclipref>clipitem-270</linkclipref>
											<mediatype>audio</mediatype>
											<trackindex>3</trackindex>
											<clipindex>1</clipindex>
										</link>
										<link>
											<linkclipref>clipitem-271</linkclipref>
											<mediatype>audio</mediatype>
											<trackindex>4</trackindex>
											<clipindex>1</clipindex>
										</link>
										<link>
											<linkclipref>clipitem-272</linkclipref>
											<mediatype>audio</mediatype>
											<trackindex>5</trackindex>
											<clipindex>1</clipindex>
										</link>
										<link>
											<linkclipref>clipitem-273</linkclipref>
											<mediatype>audio</mediatype>
											<trackindex>6</trackindex>
											<clipindex>1</clipindex>
										</link>
										<link>
											<linkclipref>clipitem-274</linkclipref>
											<mediatype>audio</mediatype>
											<trackindex>7</trackindex>
											<clipindex>1</clipindex>
										</link>
										<link>
											<linkclipref>clipitem-275</linkclipref>
											<mediatype>audio</mediatype>
											<trackindex>8</trackindex>
											<clipindex>1</clipindex>
										</link>
									</clipitem>
								</track>
							</audio>
						</media>
						<logginginfo>
							<description></description>
							<scene>6-01</scene>
							<shottake></shottake>
							<lognote></lognote>
							<good></good>
							<originalvideofilename></originalvideofilename>
							<originalaudiofilename></originalaudiofilename>
						</logginginfo>
						<colorinfo>
							<lut></lut>
							<lut1></lut1>
							<asc_sop></asc_sop>
							<asc_sat></asc_sat>
							<lut2></lut2>
						</colorinfo>
						<labels>
							<label2>Mango</label2>
						</labels>
					</clip>
					<clip id="masterclip-79" explodedTracks="true">
						<uuid>69f45f5e-3f51-4c97-94ec-66e7ab1d7464</uuid>
						<masterclipid>masterclip-79</masterclipid>
						<ismasterclip>TRUE</ismasterclip>
						<duration>3836</duration>
						<rate>
							<timebase>30</timebase>
							<ntsc>TRUE</ntsc>
						</rate>
						<name>12-01-1.WAV</name>
						<media>
							<audio>
								<track>
									<clipitem id="clipitem-276">
										<masterclipid>masterclip-79</masterclipid>
										<name>12-01-1.WAV</name>
										<rate>
											<timebase>30</timebase>
											<ntsc>TRUE</ntsc>
										</rate>
										<file id="file-79">
											<name>12-01-1.WAV</name>
											<pathurl>file://localhost/S%3a/Projects/PRODIGAL_SON/AUDIO/190511_D01/12-01-1.WAV</pathurl>
											<rate>
												<timebase>30</timebase>
												<ntsc>TRUE</ntsc>
											</rate>
											<duration>3836</duration>
											<timecode>
												<rate>
													<timebase>30</timebase>
													<ntsc>TRUE</ntsc>
												</rate>
												<string>13;39;46;01</string>
												<frame>1474105</frame>
												<displayformat>DF</displayformat>
												<reel>
													<name>190511</name>
												</reel>
											</timecode>
											<media>
												<audio>
													<samplecharacteristics>
														<depth>16</depth>
														<samplerate>48000</samplerate>
													</samplecharacteristics>
													<channelcount>1</channelcount>
													<audiochannel>
														<sourcechannel>1</sourcechannel>
													</audiochannel>
												</audio>
												<audio>
													<samplecharacteristics>
														<depth>16</depth>
														<samplerate>48000</samplerate>
													</samplecharacteristics>
													<channelcount>1</channelcount>
													<audiochannel>
														<sourcechannel>2</sourcechannel>
													</audiochannel>
												</audio>
												<audio>
													<samplecharacteristics>
														<depth>16</depth>
														<samplerate>48000</samplerate>
													</samplecharacteristics>
													<channelcount>1</channelcount>
													<audiochannel>
														<sourcechannel>3</sourcechannel>
													</audiochannel>
												</audio>
												<audio>
													<samplecharacteristics>
														<depth>16</depth>
														<samplerate>48000</samplerate>
													</samplecharacteristics>
													<channelcount>1</channelcount>
													<audiochannel>
														<sourcechannel>4</sourcechannel>
													</audiochannel>
												</audio>
												<audio>
													<samplecharacteristics>
														<depth>16</depth>
														<samplerate>48000</samplerate>
													</samplecharacteristics>
													<channelcount>1</channelcount>
													<audiochannel>
														<sourcechannel>5</sourcechannel>
													</audiochannel>
												</audio>
												<audio>
													<samplecharacteristics>
														<depth>16</depth>
														<samplerate>48000</samplerate>
													</samplecharacteristics>
													<channelcount>1</channelcount>
													<audiochannel>
														<sourcechannel>6</sourcechannel>
													</audiochannel>
												</audio>
												<audio>
													<samplecharacteristics>
														<depth>16</depth>
														<samplerate>48000</samplerate>
													</samplecharacteristics>
													<channelcount>1</channelcount>
													<audiochannel>
														<sourcechannel>7</sourcechannel>
													</audiochannel>
												</audio>
												<audio>
													<samplecharacteristics>
														<depth>16</depth>
														<samplerate>48000</samplerate>
													</samplecharacteristics>
													<channelcount>1</channelcount>
													<audiochannel>
														<sourcechannel>8</sourcechannel>
													</audiochannel>
												</audio>
											</media>
										</file>
										<sourcetrack>
											<mediatype>audio</mediatype>
											<trackindex>1</trackindex>
										</sourcetrack>
										<link>
											<linkclipref>clipitem-276</linkclipref>
											<mediatype>audio</mediatype>
											<trackindex>1</trackindex>
											<clipindex>1</clipindex>
										</link>
										<link>
											<linkclipref>clipitem-277</linkclipref>
											<mediatype>audio</mediatype>
											<trackindex>2</trackindex>
											<clipindex>1</clipindex>
										</link>
										<link>
											<linkclipref>clipitem-278</linkclipref>
											<mediatype>audio</mediatype>
											<trackindex>3</trackindex>
											<clipindex>1</clipindex>
										</link>
										<link>
											<linkclipref>clipitem-279</linkclipref>
											<mediatype>audio</mediatype>
											<trackindex>4</trackindex>
											<clipindex>1</clipindex>
										</link>
										<link>
											<linkclipref>clipitem-280</linkclipref>
											<mediatype>audio</mediatype>
											<trackindex>5</trackindex>
											<clipindex>1</clipindex>
										</link>
										<link>
											<linkclipref>clipitem-281</linkclipref>
											<mediatype>audio</mediatype>
											<trackindex>6</trackindex>
											<clipindex>1</clipindex>
										</link>
										<link>
											<linkclipref>clipitem-282</linkclipref>
											<mediatype>audio</mediatype>
											<trackindex>7</trackindex>
											<clipindex>1</clipindex>
										</link>
										<link>
											<linkclipref>clipitem-283</linkclipref>
											<mediatype>audio</mediatype>
											<trackindex>8</trackindex>
											<clipindex>1</clipindex>
										</link>
									</clipitem>
								</track>
								<track>
									<clipitem id="clipitem-277">
										<masterclipid>masterclip-79</masterclipid>
										<name>12-01-1.WAV</name>
										<rate>
											<timebase>30</timebase>
											<ntsc>TRUE</ntsc>
										</rate>
										<file id="file-79"/>
										<sourcetrack>
											<mediatype>audio</mediatype>
											<trackindex>2</trackindex>
										</sourcetrack>
										<link>
											<linkclipref>clipitem-276</linkclipref>
											<mediatype>audio</mediatype>
											<trackindex>1</trackindex>
											<clipindex>1</clipindex>
										</link>
										<link>
											<linkclipref>clipitem-277</linkclipref>
											<mediatype>audio</mediatype>
											<trackindex>2</trackindex>
											<clipindex>1</clipindex>
										</link>
										<link>
											<linkclipref>clipitem-278</linkclipref>
											<mediatype>audio</mediatype>
											<trackindex>3</trackindex>
											<clipindex>1</clipindex>
										</link>
										<link>
											<linkclipref>clipitem-279</linkclipref>
											<mediatype>audio</mediatype>
											<trackindex>4</trackindex>
											<clipindex>1</clipindex>
										</link>
										<link>
											<linkclipref>clipitem-280</linkclipref>
											<mediatype>audio</mediatype>
											<trackindex>5</trackindex>
											<clipindex>1</clipindex>
										</link>
										<link>
											<linkclipref>clipitem-281</linkclipref>
											<mediatype>audio</mediatype>
											<trackindex>6</trackindex>
											<clipindex>1</clipindex>
										</link>
										<link>
											<linkclipref>clipitem-282</linkclipref>
											<mediatype>audio</mediatype>
											<trackindex>7</trackindex>
											<clipindex>1</clipindex>
										</link>
										<link>
											<linkclipref>clipitem-283</linkclipref>
											<mediatype>audio</mediatype>
											<trackindex>8</trackindex>
											<clipindex>1</clipindex>
										</link>
									</clipitem>
								</track>
								<track>
									<clipitem id="clipitem-278">
										<masterclipid>masterclip-79</masterclipid>
										<name>12-01-1.WAV</name>
										<rate>
											<timebase>30</timebase>
											<ntsc>TRUE</ntsc>
										</rate>
										<file id="file-79"/>
										<sourcetrack>
											<mediatype>audio</mediatype>
											<trackindex>3</trackindex>
										</sourcetrack>
										<link>
											<linkclipref>clipitem-276</linkclipref>
											<mediatype>audio</mediatype>
											<trackindex>1</trackindex>
											<clipindex>1</clipindex>
										</link>
										<link>
											<linkclipref>clipitem-277</linkclipref>
											<mediatype>audio</mediatype>
											<trackindex>2</trackindex>
											<clipindex>1</clipindex>
										</link>
										<link>
											<linkclipref>clipitem-278</linkclipref>
											<mediatype>audio</mediatype>
											<trackindex>3</trackindex>
											<clipindex>1</clipindex>
										</link>
										<link>
											<linkclipref>clipitem-279</linkclipref>
											<mediatype>audio</mediatype>
											<trackindex>4</trackindex>
											<clipindex>1</clipindex>
										</link>
										<link>
											<linkclipref>clipitem-280</linkclipref>
											<mediatype>audio</mediatype>
											<trackindex>5</trackindex>
											<clipindex>1</clipindex>
										</link>
										<link>
											<linkclipref>clipitem-281</linkclipref>
											<mediatype>audio</mediatype>
											<trackindex>6</trackindex>
											<clipindex>1</clipindex>
										</link>
										<link>
											<linkclipref>clipitem-282</linkclipref>
											<mediatype>audio</mediatype>
											<trackindex>7</trackindex>
											<clipindex>1</clipindex>
										</link>
										<link>
											<linkclipref>clipitem-283</linkclipref>
											<mediatype>audio</mediatype>
											<trackindex>8</trackindex>
											<clipindex>1</clipindex>
										</link>
									</clipitem>
								</track>
								<track>
									<clipitem id="clipitem-279">
										<masterclipid>masterclip-79</masterclipid>
										<name>12-01-1.WAV</name>
										<rate>
											<timebase>30</timebase>
											<ntsc>TRUE</ntsc>
										</rate>
										<file id="file-79"/>
										<sourcetrack>
											<mediatype>audio</mediatype>
											<trackindex>4</trackindex>
										</sourcetrack>
										<link>
											<linkclipref>clipitem-276</linkclipref>
											<mediatype>audio</mediatype>
											<trackindex>1</trackindex>
											<clipindex>1</clipindex>
										</link>
										<link>
											<linkclipref>clipitem-277</linkclipref>
											<mediatype>audio</mediatype>
											<trackindex>2</trackindex>
											<clipindex>1</clipindex>
										</link>
										<link>
											<linkclipref>clipitem-278</linkclipref>
											<mediatype>audio</mediatype>
											<trackindex>3</trackindex>
											<clipindex>1</clipindex>
										</link>
										<link>
											<linkclipref>clipitem-279</linkclipref>
											<mediatype>audio</mediatype>
											<trackindex>4</trackindex>
											<clipindex>1</clipindex>
										</link>
										<link>
											<linkclipref>clipitem-280</linkclipref>
											<mediatype>audio</mediatype>
											<trackindex>5</trackindex>
											<clipindex>1</clipindex>
										</link>
										<link>
											<linkclipref>clipitem-281</linkclipref>
											<mediatype>audio</mediatype>
											<trackindex>6</trackindex>
											<clipindex>1</clipindex>
										</link>
										<link>
											<linkclipref>clipitem-282</linkclipref>
											<mediatype>audio</mediatype>
											<trackindex>7</trackindex>
											<clipindex>1</clipindex>
										</link>
										<link>
											<linkclipref>clipitem-283</linkclipref>
											<mediatype>audio</mediatype>
											<trackindex>8</trackindex>
											<clipindex>1</clipindex>
										</link>
									</clipitem>
								</track>
								<track>
									<clipitem id="clipitem-280">
										<masterclipid>masterclip-79</masterclipid>
										<name>12-01-1.WAV</name>
										<rate>
											<timebase>30</timebase>
											<ntsc>TRUE</ntsc>
										</rate>
										<file id="file-79"/>
										<sourcetrack>
											<mediatype>audio</mediatype>
											<trackindex>5</trackindex>
										</sourcetrack>
										<link>
											<linkclipref>clipitem-276</linkclipref>
											<mediatype>audio</mediatype>
											<trackindex>1</trackindex>
											<clipindex>1</clipindex>
										</link>
										<link>
											<linkclipref>clipitem-277</linkclipref>
											<mediatype>audio</mediatype>
											<trackindex>2</trackindex>
											<clipindex>1</clipindex>
										</link>
										<link>
											<linkclipref>clipitem-278</linkclipref>
											<mediatype>audio</mediatype>
											<trackindex>3</trackindex>
											<clipindex>1</clipindex>
										</link>
										<link>
											<linkclipref>clipitem-279</linkclipref>
											<mediatype>audio</mediatype>
											<trackindex>4</trackindex>
											<clipindex>1</clipindex>
										</link>
										<link>
											<linkclipref>clipitem-280</linkclipref>
											<mediatype>audio</mediatype>
											<trackindex>5</trackindex>
											<clipindex>1</clipindex>
										</link>
										<link>
											<linkclipref>clipitem-281</linkclipref>
											<mediatype>audio</mediatype>
											<trackindex>6</trackindex>
											<clipindex>1</clipindex>
										</link>
										<link>
											<linkclipref>clipitem-282</linkclipref>
											<mediatype>audio</mediatype>
											<trackindex>7</trackindex>
											<clipindex>1</clipindex>
										</link>
										<link>
											<linkclipref>clipitem-283</linkclipref>
											<mediatype>audio</mediatype>
											<trackindex>8</trackindex>
											<clipindex>1</clipindex>
										</link>
									</clipitem>
								</track>
								<track>
									<clipitem id="clipitem-281">
										<masterclipid>masterclip-79</masterclipid>
										<name>12-01-1.WAV</name>
										<rate>
											<timebase>30</timebase>
											<ntsc>TRUE</ntsc>
										</rate>
										<file id="file-79"/>
										<sourcetrack>
											<mediatype>audio</mediatype>
											<trackindex>6</trackindex>
										</sourcetrack>
										<link>
											<linkclipref>clipitem-276</linkclipref>
											<mediatype>audio</mediatype>
											<trackindex>1</trackindex>
											<clipindex>1</clipindex>
										</link>
										<link>
											<linkclipref>clipitem-277</linkclipref>
											<mediatype>audio</mediatype>
											<trackindex>2</trackindex>
											<clipindex>1</clipindex>
										</link>
										<link>
											<linkclipref>clipitem-278</linkclipref>
											<mediatype>audio</mediatype>
											<trackindex>3</trackindex>
											<clipindex>1</clipindex>
										</link>
										<link>
											<linkclipref>clipitem-279</linkclipref>
											<mediatype>audio</mediatype>
											<trackindex>4</trackindex>
											<clipindex>1</clipindex>
										</link>
										<link>
											<linkclipref>clipitem-280</linkclipref>
											<mediatype>audio</mediatype>
											<trackindex>5</trackindex>
											<clipindex>1</clipindex>
										</link>
										<link>
											<linkclipref>clipitem-281</linkclipref>
											<mediatype>audio</mediatype>
											<trackindex>6</trackindex>
											<clipindex>1</clipindex>
										</link>
										<link>
											<linkclipref>clipitem-282</linkclipref>
											<mediatype>audio</mediatype>
											<trackindex>7</trackindex>
											<clipindex>1</clipindex>
										</link>
										<link>
											<linkclipref>clipitem-283</linkclipref>
											<mediatype>audio</mediatype>
											<trackindex>8</trackindex>
											<clipindex>1</clipindex>
										</link>
									</clipitem>
								</track>
								<track>
									<clipitem id="clipitem-282">
										<masterclipid>masterclip-79</masterclipid>
										<name>12-01-1.WAV</name>
										<rate>
											<timebase>30</timebase>
											<ntsc>TRUE</ntsc>
										</rate>
										<file id="file-79"/>
										<sourcetrack>
											<mediatype>audio</mediatype>
											<trackindex>7</trackindex>
										</sourcetrack>
										<link>
											<linkclipref>clipitem-276</linkclipref>
											<mediatype>audio</mediatype>
											<trackindex>1</trackindex>
											<clipindex>1</clipindex>
										</link>
										<link>
											<linkclipref>clipitem-277</linkclipref>
											<mediatype>audio</mediatype>
											<trackindex>2</trackindex>
											<clipindex>1</clipindex>
										</link>
										<link>
											<linkclipref>clipitem-278</linkclipref>
											<mediatype>audio</mediatype>
											<trackindex>3</trackindex>
											<clipindex>1</clipindex>
										</link>
										<link>
											<linkclipref>clipitem-279</linkclipref>
											<mediatype>audio</mediatype>
											<trackindex>4</trackindex>
											<clipindex>1</clipindex>
										</link>
										<link>
											<linkclipref>clipitem-280</linkclipref>
											<mediatype>audio</mediatype>
											<trackindex>5</trackindex>
											<clipindex>1</clipindex>
										</link>
										<link>
											<linkclipref>clipitem-281</linkclipref>
											<mediatype>audio</mediatype>
											<trackindex>6</trackindex>
											<clipindex>1</clipindex>
										</link>
										<link>
											<linkclipref>clipitem-282</linkclipref>
											<mediatype>audio</mediatype>
											<trackindex>7</trackindex>
											<clipindex>1</clipindex>
										</link>
										<link>
											<linkclipref>clipitem-283</linkclipref>
											<mediatype>audio</mediatype>
											<trackindex>8</trackindex>
											<clipindex>1</clipindex>
										</link>
									</clipitem>
								</track>
								<track>
									<clipitem id="clipitem-283">
										<masterclipid>masterclip-79</masterclipid>
										<name>12-01-1.WAV</name>
										<rate>
											<timebase>30</timebase>
											<ntsc>TRUE</ntsc>
										</rate>
										<file id="file-79"/>
										<sourcetrack>
											<mediatype>audio</mediatype>
											<trackindex>8</trackindex>
										</sourcetrack>
										<link>
											<linkclipref>clipitem-276</linkclipref>
											<mediatype>audio</mediatype>
											<trackindex>1</trackindex>
											<clipindex>1</clipindex>
										</link>
										<link>
											<linkclipref>clipitem-277</linkclipref>
											<mediatype>audio</mediatype>
											<trackindex>2</trackindex>
											<clipindex>1</clipindex>
										</link>
										<link>
											<linkclipref>clipitem-278</linkclipref>
											<mediatype>audio</mediatype>
											<trackindex>3</trackindex>
											<clipindex>1</clipindex>
										</link>
										<link>
											<linkclipref>clipitem-279</linkclipref>
											<mediatype>audio</mediatype>
											<trackindex>4</trackindex>
											<clipindex>1</clipindex>
										</link>
										<link>
											<linkclipref>clipitem-280</linkclipref>
											<mediatype>audio</mediatype>
											<trackindex>5</trackindex>
											<clipindex>1</clipindex>
										</link>
										<link>
											<linkclipref>clipitem-281</linkclipref>
											<mediatype>audio</mediatype>
											<trackindex>6</trackindex>
											<clipindex>1</clipindex>
										</link>
										<link>
											<linkclipref>clipitem-282</linkclipref>
											<mediatype>audio</mediatype>
											<trackindex>7</trackindex>
											<clipindex>1</clipindex>
										</link>
										<link>
											<linkclipref>clipitem-283</linkclipref>
											<mediatype>audio</mediatype>
											<trackindex>8</trackindex>
											<clipindex>1</clipindex>
										</link>
									</clipitem>
								</track>
							</audio>
						</media>
							<marker>
								<comment></comment>
								<name></name>
								<in>1013</in>
								<out>-1</out>
								<pproColor>4281828977</pproColor>
							</marker>
							<marker>
								<comment></comment>
								<name></name>
								<in>3628</in>
								<out>-1</out>
								<pproColor>4281740498</pproColor>
							</marker>
						<logginginfo>
							<description></description>
							<scene>12-01</scene>
							<shottake></shottake>
							<lognote></lognote>
							<good></good>
							<originalvideofilename></originalvideofilename>
							<originalaudiofilename></originalaudiofilename>
						</logginginfo>
						<colorinfo>
							<lut></lut>
							<lut1></lut1>
							<asc_sop></asc_sop>
							<asc_sat></asc_sat>
							<lut2></lut2>
						</colorinfo>
						<labels>
							<label2>Mango</label2>
						</labels>
					</clip>
					<clip id="masterclip-80" explodedTracks="true">
						<uuid>f556fa07-4d03-4f74-b03f-2fa069b19d94</uuid>
						<masterclipid>masterclip-80</masterclipid>
						<ismasterclip>TRUE</ismasterclip>
						<duration>1798</duration>
						<rate>
							<timebase>30</timebase>
							<ntsc>TRUE</ntsc>
						</rate>
						<name>12-01-2.WAV</name>
						<media>
							<audio>
								<track>
									<clipitem id="clipitem-284">
										<masterclipid>masterclip-80</masterclipid>
										<name>12-01-2.WAV</name>
										<rate>
											<timebase>30</timebase>
											<ntsc>TRUE</ntsc>
										</rate>
										<file id="file-80">
											<name>12-01-2.WAV</name>
											<pathurl>file://localhost/S%3a/Projects/PRODIGAL_SON/AUDIO/190511_D01/12-01-2.WAV</pathurl>
											<rate>
												<timebase>30</timebase>
												<ntsc>TRUE</ntsc>
											</rate>
											<duration>1798</duration>
											<timecode>
												<rate>
													<timebase>30</timebase>
													<ntsc>TRUE</ntsc>
												</rate>
												<string>13;45;16;02</string>
												<frame>1483996</frame>
												<displayformat>DF</displayformat>
												<reel>
													<name>190511</name>
												</reel>
											</timecode>
											<media>
												<audio>
													<samplecharacteristics>
														<depth>16</depth>
														<samplerate>48000</samplerate>
													</samplecharacteristics>
													<channelcount>1</channelcount>
													<audiochannel>
														<sourcechannel>1</sourcechannel>
													</audiochannel>
												</audio>
												<audio>
													<samplecharacteristics>
														<depth>16</depth>
														<samplerate>48000</samplerate>
													</samplecharacteristics>
													<channelcount>1</channelcount>
													<audiochannel>
														<sourcechannel>2</sourcechannel>
													</audiochannel>
												</audio>
												<audio>
													<samplecharacteristics>
														<depth>16</depth>
														<samplerate>48000</samplerate>
													</samplecharacteristics>
													<channelcount>1</channelcount>
													<audiochannel>
														<sourcechannel>3</sourcechannel>
													</audiochannel>
												</audio>
												<audio>
													<samplecharacteristics>
														<depth>16</depth>
														<samplerate>48000</samplerate>
													</samplecharacteristics>
													<channelcount>1</channelcount>
													<audiochannel>
														<sourcechannel>4</sourcechannel>
													</audiochannel>
												</audio>
												<audio>
													<samplecharacteristics>
														<depth>16</depth>
														<samplerate>48000</samplerate>
													</samplecharacteristics>
													<channelcount>1</channelcount>
													<audiochannel>
														<sourcechannel>5</sourcechannel>
													</audiochannel>
												</audio>
												<audio>
													<samplecharacteristics>
														<depth>16</depth>
														<samplerate>48000</samplerate>
													</samplecharacteristics>
													<channelcount>1</channelcount>
													<audiochannel>
														<sourcechannel>6</sourcechannel>
													</audiochannel>
												</audio>
												<audio>
													<samplecharacteristics>
														<depth>16</depth>
														<samplerate>48000</samplerate>
													</samplecharacteristics>
													<channelcount>1</channelcount>
													<audiochannel>
														<sourcechannel>7</sourcechannel>
													</audiochannel>
												</audio>
												<audio>
													<samplecharacteristics>
														<depth>16</depth>
														<samplerate>48000</samplerate>
													</samplecharacteristics>
													<channelcount>1</channelcount>
													<audiochannel>
														<sourcechannel>8</sourcechannel>
													</audiochannel>
												</audio>
											</media>
										</file>
										<sourcetrack>
											<mediatype>audio</mediatype>
											<trackindex>1</trackindex>
										</sourcetrack>
										<link>
											<linkclipref>clipitem-284</linkclipref>
											<mediatype>audio</mediatype>
											<trackindex>1</trackindex>
											<clipindex>1</clipindex>
										</link>
										<link>
											<linkclipref>clipitem-285</linkclipref>
											<mediatype>audio</mediatype>
											<trackindex>2</trackindex>
											<clipindex>1</clipindex>
										</link>
										<link>
											<linkclipref>clipitem-286</linkclipref>
											<mediatype>audio</mediatype>
											<trackindex>3</trackindex>
											<clipindex>1</clipindex>
										</link>
										<link>
											<linkclipref>clipitem-287</linkclipref>
											<mediatype>audio</mediatype>
											<trackindex>4</trackindex>
											<clipindex>1</clipindex>
										</link>
										<link>
											<linkclipref>clipitem-288</linkclipref>
											<mediatype>audio</mediatype>
											<trackindex>5</trackindex>
											<clipindex>1</clipindex>
										</link>
										<link>
											<linkclipref>clipitem-289</linkclipref>
											<mediatype>audio</mediatype>
											<trackindex>6</trackindex>
											<clipindex>1</clipindex>
										</link>
										<link>
											<linkclipref>clipitem-290</linkclipref>
											<mediatype>audio</mediatype>
											<trackindex>7</trackindex>
											<clipindex>1</clipindex>
										</link>
										<link>
											<linkclipref>clipitem-291</linkclipref>
											<mediatype>audio</mediatype>
											<trackindex>8</trackindex>
											<clipindex>1</clipindex>
										</link>
									</clipitem>
								</track>
								<track>
									<clipitem id="clipitem-285">
										<masterclipid>masterclip-80</masterclipid>
										<name>12-01-2.WAV</name>
										<rate>
											<timebase>30</timebase>
											<ntsc>TRUE</ntsc>
										</rate>
										<file id="file-80"/>
										<sourcetrack>
											<mediatype>audio</mediatype>
											<trackindex>2</trackindex>
										</sourcetrack>
										<link>
											<linkclipref>clipitem-284</linkclipref>
											<mediatype>audio</mediatype>
											<trackindex>1</trackindex>
											<clipindex>1</clipindex>
										</link>
										<link>
											<linkclipref>clipitem-285</linkclipref>
											<mediatype>audio</mediatype>
											<trackindex>2</trackindex>
											<clipindex>1</clipindex>
										</link>
										<link>
											<linkclipref>clipitem-286</linkclipref>
											<mediatype>audio</mediatype>
											<trackindex>3</trackindex>
											<clipindex>1</clipindex>
										</link>
										<link>
											<linkclipref>clipitem-287</linkclipref>
											<mediatype>audio</mediatype>
											<trackindex>4</trackindex>
											<clipindex>1</clipindex>
										</link>
										<link>
											<linkclipref>clipitem-288</linkclipref>
											<mediatype>audio</mediatype>
											<trackindex>5</trackindex>
											<clipindex>1</clipindex>
										</link>
										<link>
											<linkclipref>clipitem-289</linkclipref>
											<mediatype>audio</mediatype>
											<trackindex>6</trackindex>
											<clipindex>1</clipindex>
										</link>
										<link>
											<linkclipref>clipitem-290</linkclipref>
											<mediatype>audio</mediatype>
											<trackindex>7</trackindex>
											<clipindex>1</clipindex>
										</link>
										<link>
											<linkclipref>clipitem-291</linkclipref>
											<mediatype>audio</mediatype>
											<trackindex>8</trackindex>
											<clipindex>1</clipindex>
										</link>
									</clipitem>
								</track>
								<track>
									<clipitem id="clipitem-286">
										<masterclipid>masterclip-80</masterclipid>
										<name>12-01-2.WAV</name>
										<rate>
											<timebase>30</timebase>
											<ntsc>TRUE</ntsc>
										</rate>
										<file id="file-80"/>
										<sourcetrack>
											<mediatype>audio</mediatype>
											<trackindex>3</trackindex>
										</sourcetrack>
										<link>
											<linkclipref>clipitem-284</linkclipref>
											<mediatype>audio</mediatype>
											<trackindex>1</trackindex>
											<clipindex>1</clipindex>
										</link>
										<link>
											<linkclipref>clipitem-285</linkclipref>
											<mediatype>audio</mediatype>
											<trackindex>2</trackindex>
											<clipindex>1</clipindex>
										</link>
										<link>
											<linkclipref>clipitem-286</linkclipref>
											<mediatype>audio</mediatype>
											<trackindex>3</trackindex>
											<clipindex>1</clipindex>
										</link>
										<link>
											<linkclipref>clipitem-287</linkclipref>
											<mediatype>audio</mediatype>
											<trackindex>4</trackindex>
											<clipindex>1</clipindex>
										</link>
										<link>
											<linkclipref>clipitem-288</linkclipref>
											<mediatype>audio</mediatype>
											<trackindex>5</trackindex>
											<clipindex>1</clipindex>
										</link>
										<link>
											<linkclipref>clipitem-289</linkclipref>
											<mediatype>audio</mediatype>
											<trackindex>6</trackindex>
											<clipindex>1</clipindex>
										</link>
										<link>
											<linkclipref>clipitem-290</linkclipref>
											<mediatype>audio</mediatype>
											<trackindex>7</trackindex>
											<clipindex>1</clipindex>
										</link>
										<link>
											<linkclipref>clipitem-291</linkclipref>
											<mediatype>audio</mediatype>
											<trackindex>8</trackindex>
											<clipindex>1</clipindex>
										</link>
									</clipitem>
								</track>
								<track>
									<clipitem id="clipitem-287">
										<masterclipid>masterclip-80</masterclipid>
										<name>12-01-2.WAV</name>
										<rate>
											<timebase>30</timebase>
											<ntsc>TRUE</ntsc>
										</rate>
										<file id="file-80"/>
										<sourcetrack>
											<mediatype>audio</mediatype>
											<trackindex>4</trackindex>
										</sourcetrack>
										<link>
											<linkclipref>clipitem-284</linkclipref>
											<mediatype>audio</mediatype>
											<trackindex>1</trackindex>
											<clipindex>1</clipindex>
										</link>
										<link>
											<linkclipref>clipitem-285</linkclipref>
											<mediatype>audio</mediatype>
											<trackindex>2</trackindex>
											<clipindex>1</clipindex>
										</link>
										<link>
											<linkclipref>clipitem-286</linkclipref>
											<mediatype>audio</mediatype>
											<trackindex>3</trackindex>
											<clipindex>1</clipindex>
										</link>
										<link>
											<linkclipref>clipitem-287</linkclipref>
											<mediatype>audio</mediatype>
											<trackindex>4</trackindex>
											<clipindex>1</clipindex>
										</link>
										<link>
											<linkclipref>clipitem-288</linkclipref>
											<mediatype>audio</mediatype>
											<trackindex>5</trackindex>
											<clipindex>1</clipindex>
										</link>
										<link>
											<linkclipref>clipitem-289</linkclipref>
											<mediatype>audio</mediatype>
											<trackindex>6</trackindex>
											<clipindex>1</clipindex>
										</link>
										<link>
											<linkclipref>clipitem-290</linkclipref>
											<mediatype>audio</mediatype>
											<trackindex>7</trackindex>
											<clipindex>1</clipindex>
										</link>
										<link>
											<linkclipref>clipitem-291</linkclipref>
											<mediatype>audio</mediatype>
											<trackindex>8</trackindex>
											<clipindex>1</clipindex>
										</link>
									</clipitem>
								</track>
								<track>
									<clipitem id="clipitem-288">
										<masterclipid>masterclip-80</masterclipid>
										<name>12-01-2.WAV</name>
										<rate>
											<timebase>30</timebase>
											<ntsc>TRUE</ntsc>
										</rate>
										<file id="file-80"/>
										<sourcetrack>
											<mediatype>audio</mediatype>
											<trackindex>5</trackindex>
										</sourcetrack>
										<link>
											<linkclipref>clipitem-284</linkclipref>
											<mediatype>audio</mediatype>
											<trackindex>1</trackindex>
											<clipindex>1</clipindex>
										</link>
										<link>
											<linkclipref>clipitem-285</linkclipref>
											<mediatype>audio</mediatype>
											<trackindex>2</trackindex>
											<clipindex>1</clipindex>
										</link>
										<link>
											<linkclipref>clipitem-286</linkclipref>
											<mediatype>audio</mediatype>
											<trackindex>3</trackindex>
											<clipindex>1</clipindex>
										</link>
										<link>
											<linkclipref>clipitem-287</linkclipref>
											<mediatype>audio</mediatype>
											<trackindex>4</trackindex>
											<clipindex>1</clipindex>
										</link>
										<link>
											<linkclipref>clipitem-288</linkclipref>
											<mediatype>audio</mediatype>
											<trackindex>5</trackindex>
											<clipindex>1</clipindex>
										</link>
										<link>
											<linkclipref>clipitem-289</linkclipref>
											<mediatype>audio</mediatype>
											<trackindex>6</trackindex>
											<clipindex>1</clipindex>
										</link>
										<link>
											<linkclipref>clipitem-290</linkclipref>
											<mediatype>audio</mediatype>
											<trackindex>7</trackindex>
											<clipindex>1</clipindex>
										</link>
										<link>
											<linkclipref>clipitem-291</linkclipref>
											<mediatype>audio</mediatype>
											<trackindex>8</trackindex>
											<clipindex>1</clipindex>
										</link>
									</clipitem>
								</track>
								<track>
									<clipitem id="clipitem-289">
										<masterclipid>masterclip-80</masterclipid>
										<name>12-01-2.WAV</name>
										<rate>
											<timebase>30</timebase>
											<ntsc>TRUE</ntsc>
										</rate>
										<file id="file-80"/>
										<sourcetrack>
											<mediatype>audio</mediatype>
											<trackindex>6</trackindex>
										</sourcetrack>
										<link>
											<linkclipref>clipitem-284</linkclipref>
											<mediatype>audio</mediatype>
											<trackindex>1</trackindex>
											<clipindex>1</clipindex>
										</link>
										<link>
											<linkclipref>clipitem-285</linkclipref>
											<mediatype>audio</mediatype>
											<trackindex>2</trackindex>
											<clipindex>1</clipindex>
										</link>
										<link>
											<linkclipref>clipitem-286</linkclipref>
											<mediatype>audio</mediatype>
											<trackindex>3</trackindex>
											<clipindex>1</clipindex>
										</link>
										<link>
											<linkclipref>clipitem-287</linkclipref>
											<mediatype>audio</mediatype>
											<trackindex>4</trackindex>
											<clipindex>1</clipindex>
										</link>
										<link>
											<linkclipref>clipitem-288</linkclipref>
											<mediatype>audio</mediatype>
											<trackindex>5</trackindex>
											<clipindex>1</clipindex>
										</link>
										<link>
											<linkclipref>clipitem-289</linkclipref>
											<mediatype>audio</mediatype>
											<trackindex>6</trackindex>
											<clipindex>1</clipindex>
										</link>
										<link>
											<linkclipref>clipitem-290</linkclipref>
											<mediatype>audio</mediatype>
											<trackindex>7</trackindex>
											<clipindex>1</clipindex>
										</link>
										<link>
											<linkclipref>clipitem-291</linkclipref>
											<mediatype>audio</mediatype>
											<trackindex>8</trackindex>
											<clipindex>1</clipindex>
										</link>
									</clipitem>
								</track>
								<track>
									<clipitem id="clipitem-290">
										<masterclipid>masterclip-80</masterclipid>
										<name>12-01-2.WAV</name>
										<rate>
											<timebase>30</timebase>
											<ntsc>TRUE</ntsc>
										</rate>
										<file id="file-80"/>
										<sourcetrack>
											<mediatype>audio</mediatype>
											<trackindex>7</trackindex>
										</sourcetrack>
										<link>
											<linkclipref>clipitem-284</linkclipref>
											<mediatype>audio</mediatype>
											<trackindex>1</trackindex>
											<clipindex>1</clipindex>
										</link>
										<link>
											<linkclipref>clipitem-285</linkclipref>
											<mediatype>audio</mediatype>
											<trackindex>2</trackindex>
											<clipindex>1</clipindex>
										</link>
										<link>
											<linkclipref>clipitem-286</linkclipref>
											<mediatype>audio</mediatype>
											<trackindex>3</trackindex>
											<clipindex>1</clipindex>
										</link>
										<link>
											<linkclipref>clipitem-287</linkclipref>
											<mediatype>audio</mediatype>
											<trackindex>4</trackindex>
											<clipindex>1</clipindex>
										</link>
										<link>
											<linkclipref>clipitem-288</linkclipref>
											<mediatype>audio</mediatype>
											<trackindex>5</trackindex>
											<clipindex>1</clipindex>
										</link>
										<link>
											<linkclipref>clipitem-289</linkclipref>
											<mediatype>audio</mediatype>
											<trackindex>6</trackindex>
											<clipindex>1</clipindex>
										</link>
										<link>
											<linkclipref>clipitem-290</linkclipref>
											<mediatype>audio</mediatype>
											<trackindex>7</trackindex>
											<clipindex>1</clipindex>
										</link>
										<link>
											<linkclipref>clipitem-291</linkclipref>
											<mediatype>audio</mediatype>
											<trackindex>8</trackindex>
											<clipindex>1</clipindex>
										</link>
									</clipitem>
								</track>
								<track>
									<clipitem id="clipitem-291">
										<masterclipid>masterclip-80</masterclipid>
										<name>12-01-2.WAV</name>
										<rate>
											<timebase>30</timebase>
											<ntsc>TRUE</ntsc>
										</rate>
										<file id="file-80"/>
										<sourcetrack>
											<mediatype>audio</mediatype>
											<trackindex>8</trackindex>
										</sourcetrack>
										<link>
											<linkclipref>clipitem-284</linkclipref>
											<mediatype>audio</mediatype>
											<trackindex>1</trackindex>
											<clipindex>1</clipindex>
										</link>
										<link>
											<linkclipref>clipitem-285</linkclipref>
											<mediatype>audio</mediatype>
											<trackindex>2</trackindex>
											<clipindex>1</clipindex>
										</link>
										<link>
											<linkclipref>clipitem-286</linkclipref>
											<mediatype>audio</mediatype>
											<trackindex>3</trackindex>
											<clipindex>1</clipindex>
										</link>
										<link>
											<linkclipref>clipitem-287</linkclipref>
											<mediatype>audio</mediatype>
											<trackindex>4</trackindex>
											<clipindex>1</clipindex>
										</link>
										<link>
											<linkclipref>clipitem-288</linkclipref>
											<mediatype>audio</mediatype>
											<trackindex>5</trackindex>
											<clipindex>1</clipindex>
										</link>
										<link>
											<linkclipref>clipitem-289</linkclipref>
											<mediatype>audio</mediatype>
											<trackindex>6</trackindex>
											<clipindex>1</clipindex>
										</link>
										<link>
											<linkclipref>clipitem-290</linkclipref>
											<mediatype>audio</mediatype>
											<trackindex>7</trackindex>
											<clipindex>1</clipindex>
										</link>
										<link>
											<linkclipref>clipitem-291</linkclipref>
											<mediatype>audio</mediatype>
											<trackindex>8</trackindex>
											<clipindex>1</clipindex>
										</link>
									</clipitem>
								</track>
							</audio>
						</media>
							<marker>
								<comment></comment>
								<name></name>
								<in>871</in>
								<out>-1</out>
							</marker>
						<logginginfo>
							<description></description>
							<scene>12-01</scene>
							<shottake></shottake>
							<lognote></lognote>
							<good></good>
							<originalvideofilename></originalvideofilename>
							<originalaudiofilename></originalaudiofilename>
						</logginginfo>
						<colorinfo>
							<lut></lut>
							<lut1></lut1>
							<asc_sop></asc_sop>
							<asc_sat></asc_sat>
							<lut2></lut2>
						</colorinfo>
						<labels>
							<label2>Mango</label2>
						</labels>
					</clip>
					<clip id="masterclip-81" explodedTracks="true">
						<uuid>97aaab72-7ffe-4aac-a677-4633d5680a97</uuid>
						<masterclipid>masterclip-81</masterclipid>
						<ismasterclip>TRUE</ismasterclip>
						<duration>3926</duration>
						<rate>
							<timebase>30</timebase>
							<ntsc>TRUE</ntsc>
						</rate>
						<name>12-01-3.WAV</name>
						<media>
							<audio>
								<track>
									<clipitem id="clipitem-292">
										<masterclipid>masterclip-81</masterclipid>
										<name>12-01-3.WAV</name>
										<rate>
											<timebase>30</timebase>
											<ntsc>TRUE</ntsc>
										</rate>
										<file id="file-81">
											<name>12-01-3.WAV</name>
											<pathurl>file://localhost/S%3a/Projects/PRODIGAL_SON/AUDIO/190511_D01/12-01-3.WAV</pathurl>
											<rate>
												<timebase>30</timebase>
												<ntsc>TRUE</ntsc>
											</rate>
											<duration>3926</duration>
											<timecode>
												<rate>
													<timebase>30</timebase>
													<ntsc>TRUE</ntsc>
												</rate>
												<string>13;47;04;02</string>
												<frame>1487232</frame>
												<displayformat>DF</displayformat>
												<reel>
													<name>190511</name>
												</reel>
											</timecode>
											<media>
												<audio>
													<samplecharacteristics>
														<depth>16</depth>
														<samplerate>48000</samplerate>
													</samplecharacteristics>
													<channelcount>1</channelcount>
													<audiochannel>
														<sourcechannel>1</sourcechannel>
													</audiochannel>
												</audio>
												<audio>
													<samplecharacteristics>
														<depth>16</depth>
														<samplerate>48000</samplerate>
													</samplecharacteristics>
													<channelcount>1</channelcount>
													<audiochannel>
														<sourcechannel>2</sourcechannel>
													</audiochannel>
												</audio>
												<audio>
													<samplecharacteristics>
														<depth>16</depth>
														<samplerate>48000</samplerate>
													</samplecharacteristics>
													<channelcount>1</channelcount>
													<audiochannel>
														<sourcechannel>3</sourcechannel>
													</audiochannel>
												</audio>
												<audio>
													<samplecharacteristics>
														<depth>16</depth>
														<samplerate>48000</samplerate>
													</samplecharacteristics>
													<channelcount>1</channelcount>
													<audiochannel>
														<sourcechannel>4</sourcechannel>
													</audiochannel>
												</audio>
												<audio>
													<samplecharacteristics>
														<depth>16</depth>
														<samplerate>48000</samplerate>
													</samplecharacteristics>
													<channelcount>1</channelcount>
													<audiochannel>
														<sourcechannel>5</sourcechannel>
													</audiochannel>
												</audio>
												<audio>
													<samplecharacteristics>
														<depth>16</depth>
														<samplerate>48000</samplerate>
													</samplecharacteristics>
													<channelcount>1</channelcount>
													<audiochannel>
														<sourcechannel>6</sourcechannel>
													</audiochannel>
												</audio>
												<audio>
													<samplecharacteristics>
														<depth>16</depth>
														<samplerate>48000</samplerate>
													</samplecharacteristics>
													<channelcount>1</channelcount>
													<audiochannel>
														<sourcechannel>7</sourcechannel>
													</audiochannel>
												</audio>
												<audio>
													<samplecharacteristics>
														<depth>16</depth>
														<samplerate>48000</samplerate>
													</samplecharacteristics>
													<channelcount>1</channelcount>
													<audiochannel>
														<sourcechannel>8</sourcechannel>
													</audiochannel>
												</audio>
											</media>
										</file>
										<sourcetrack>
											<mediatype>audio</mediatype>
											<trackindex>1</trackindex>
										</sourcetrack>
										<link>
											<linkclipref>clipitem-292</linkclipref>
											<mediatype>audio</mediatype>
											<trackindex>1</trackindex>
											<clipindex>1</clipindex>
										</link>
										<link>
											<linkclipref>clipitem-293</linkclipref>
											<mediatype>audio</mediatype>
											<trackindex>2</trackindex>
											<clipindex>1</clipindex>
										</link>
										<link>
											<linkclipref>clipitem-294</linkclipref>
											<mediatype>audio</mediatype>
											<trackindex>3</trackindex>
											<clipindex>1</clipindex>
										</link>
										<link>
											<linkclipref>clipitem-295</linkclipref>
											<mediatype>audio</mediatype>
											<trackindex>4</trackindex>
											<clipindex>1</clipindex>
										</link>
										<link>
											<linkclipref>clipitem-296</linkclipref>
											<mediatype>audio</mediatype>
											<trackindex>5</trackindex>
											<clipindex>1</clipindex>
										</link>
										<link>
											<linkclipref>clipitem-297</linkclipref>
											<mediatype>audio</mediatype>
											<trackindex>6</trackindex>
											<clipindex>1</clipindex>
										</link>
										<link>
											<linkclipref>clipitem-298</linkclipref>
											<mediatype>audio</mediatype>
											<trackindex>7</trackindex>
											<clipindex>1</clipindex>
										</link>
										<link>
											<linkclipref>clipitem-299</linkclipref>
											<mediatype>audio</mediatype>
											<trackindex>8</trackindex>
											<clipindex>1</clipindex>
										</link>
									</clipitem>
								</track>
								<track>
									<clipitem id="clipitem-293">
										<masterclipid>masterclip-81</masterclipid>
										<name>12-01-3.WAV</name>
										<rate>
											<timebase>30</timebase>
											<ntsc>TRUE</ntsc>
										</rate>
										<file id="file-81"/>
										<sourcetrack>
											<mediatype>audio</mediatype>
											<trackindex>2</trackindex>
										</sourcetrack>
										<link>
											<linkclipref>clipitem-292</linkclipref>
											<mediatype>audio</mediatype>
											<trackindex>1</trackindex>
											<clipindex>1</clipindex>
										</link>
										<link>
											<linkclipref>clipitem-293</linkclipref>
											<mediatype>audio</mediatype>
											<trackindex>2</trackindex>
											<clipindex>1</clipindex>
										</link>
										<link>
											<linkclipref>clipitem-294</linkclipref>
											<mediatype>audio</mediatype>
											<trackindex>3</trackindex>
											<clipindex>1</clipindex>
										</link>
										<link>
											<linkclipref>clipitem-295</linkclipref>
											<mediatype>audio</mediatype>
											<trackindex>4</trackindex>
											<clipindex>1</clipindex>
										</link>
										<link>
											<linkclipref>clipitem-296</linkclipref>
											<mediatype>audio</mediatype>
											<trackindex>5</trackindex>
											<clipindex>1</clipindex>
										</link>
										<link>
											<linkclipref>clipitem-297</linkclipref>
											<mediatype>audio</mediatype>
											<trackindex>6</trackindex>
											<clipindex>1</clipindex>
										</link>
										<link>
											<linkclipref>clipitem-298</linkclipref>
											<mediatype>audio</mediatype>
											<trackindex>7</trackindex>
											<clipindex>1</clipindex>
										</link>
										<link>
											<linkclipref>clipitem-299</linkclipref>
											<mediatype>audio</mediatype>
											<trackindex>8</trackindex>
											<clipindex>1</clipindex>
										</link>
									</clipitem>
								</track>
								<track>
									<clipitem id="clipitem-294">
										<masterclipid>masterclip-81</masterclipid>
										<name>12-01-3.WAV</name>
										<rate>
											<timebase>30</timebase>
											<ntsc>TRUE</ntsc>
										</rate>
										<file id="file-81"/>
										<sourcetrack>
											<mediatype>audio</mediatype>
											<trackindex>3</trackindex>
										</sourcetrack>
										<link>
											<linkclipref>clipitem-292</linkclipref>
											<mediatype>audio</mediatype>
											<trackindex>1</trackindex>
											<clipindex>1</clipindex>
										</link>
										<link>
											<linkclipref>clipitem-293</linkclipref>
											<mediatype>audio</mediatype>
											<trackindex>2</trackindex>
											<clipindex>1</clipindex>
										</link>
										<link>
											<linkclipref>clipitem-294</linkclipref>
											<mediatype>audio</mediatype>
											<trackindex>3</trackindex>
											<clipindex>1</clipindex>
										</link>
										<link>
											<linkclipref>clipitem-295</linkclipref>
											<mediatype>audio</mediatype>
											<trackindex>4</trackindex>
											<clipindex>1</clipindex>
										</link>
										<link>
											<linkclipref>clipitem-296</linkclipref>
											<mediatype>audio</mediatype>
											<trackindex>5</trackindex>
											<clipindex>1</clipindex>
										</link>
										<link>
											<linkclipref>clipitem-297</linkclipref>
											<mediatype>audio</mediatype>
											<trackindex>6</trackindex>
											<clipindex>1</clipindex>
										</link>
										<link>
											<linkclipref>clipitem-298</linkclipref>
											<mediatype>audio</mediatype>
											<trackindex>7</trackindex>
											<clipindex>1</clipindex>
										</link>
										<link>
											<linkclipref>clipitem-299</linkclipref>
											<mediatype>audio</mediatype>
											<trackindex>8</trackindex>
											<clipindex>1</clipindex>
										</link>
									</clipitem>
								</track>
								<track>
									<clipitem id="clipitem-295">
										<masterclipid>masterclip-81</masterclipid>
										<name>12-01-3.WAV</name>
										<rate>
											<timebase>30</timebase>
											<ntsc>TRUE</ntsc>
										</rate>
										<file id="file-81"/>
										<sourcetrack>
											<mediatype>audio</mediatype>
											<trackindex>4</trackindex>
										</sourcetrack>
										<link>
											<linkclipref>clipitem-292</linkclipref>
											<mediatype>audio</mediatype>
											<trackindex>1</trackindex>
											<clipindex>1</clipindex>
										</link>
										<link>
											<linkclipref>clipitem-293</linkclipref>
											<mediatype>audio</mediatype>
											<trackindex>2</trackindex>
											<clipindex>1</clipindex>
										</link>
										<link>
											<linkclipref>clipitem-294</linkclipref>
											<mediatype>audio</mediatype>
											<trackindex>3</trackindex>
											<clipindex>1</clipindex>
										</link>
										<link>
											<linkclipref>clipitem-295</linkclipref>
											<mediatype>audio</mediatype>
											<trackindex>4</trackindex>
											<clipindex>1</clipindex>
										</link>
										<link>
											<linkclipref>clipitem-296</linkclipref>
											<mediatype>audio</mediatype>
											<trackindex>5</trackindex>
											<clipindex>1</clipindex>
										</link>
										<link>
											<linkclipref>clipitem-297</linkclipref>
											<mediatype>audio</mediatype>
											<trackindex>6</trackindex>
											<clipindex>1</clipindex>
										</link>
										<link>
											<linkclipref>clipitem-298</linkclipref>
											<mediatype>audio</mediatype>
											<trackindex>7</trackindex>
											<clipindex>1</clipindex>
										</link>
										<link>
											<linkclipref>clipitem-299</linkclipref>
											<mediatype>audio</mediatype>
											<trackindex>8</trackindex>
											<clipindex>1</clipindex>
										</link>
									</clipitem>
								</track>
								<track>
									<clipitem id="clipitem-296">
										<masterclipid>masterclip-81</masterclipid>
										<name>12-01-3.WAV</name>
										<rate>
											<timebase>30</timebase>
											<ntsc>TRUE</ntsc>
										</rate>
										<file id="file-81"/>
										<sourcetrack>
											<mediatype>audio</mediatype>
											<trackindex>5</trackindex>
										</sourcetrack>
										<link>
											<linkclipref>clipitem-292</linkclipref>
											<mediatype>audio</mediatype>
											<trackindex>1</trackindex>
											<clipindex>1</clipindex>
										</link>
										<link>
											<linkclipref>clipitem-293</linkclipref>
											<mediatype>audio</mediatype>
											<trackindex>2</trackindex>
											<clipindex>1</clipindex>
										</link>
										<link>
											<linkclipref>clipitem-294</linkclipref>
											<mediatype>audio</mediatype>
											<trackindex>3</trackindex>
											<clipindex>1</clipindex>
										</link>
										<link>
											<linkclipref>clipitem-295</linkclipref>
											<mediatype>audio</mediatype>
											<trackindex>4</trackindex>
											<clipindex>1</clipindex>
										</link>
										<link>
											<linkclipref>clipitem-296</linkclipref>
											<mediatype>audio</mediatype>
											<trackindex>5</trackindex>
											<clipindex>1</clipindex>
										</link>
										<link>
											<linkclipref>clipitem-297</linkclipref>
											<mediatype>audio</mediatype>
											<trackindex>6</trackindex>
											<clipindex>1</clipindex>
										</link>
										<link>
											<linkclipref>clipitem-298</linkclipref>
											<mediatype>audio</mediatype>
											<trackindex>7</trackindex>
											<clipindex>1</clipindex>
										</link>
										<link>
											<linkclipref>clipitem-299</linkclipref>
											<mediatype>audio</mediatype>
											<trackindex>8</trackindex>
											<clipindex>1</clipindex>
										</link>
									</clipitem>
								</track>
								<track>
									<clipitem id="clipitem-297">
										<masterclipid>masterclip-81</masterclipid>
										<name>12-01-3.WAV</name>
										<rate>
											<timebase>30</timebase>
											<ntsc>TRUE</ntsc>
										</rate>
										<file id="file-81"/>
										<sourcetrack>
											<mediatype>audio</mediatype>
											<trackindex>6</trackindex>
										</sourcetrack>
										<link>
											<linkclipref>clipitem-292</linkclipref>
											<mediatype>audio</mediatype>
											<trackindex>1</trackindex>
											<clipindex>1</clipindex>
										</link>
										<link>
											<linkclipref>clipitem-293</linkclipref>
											<mediatype>audio</mediatype>
											<trackindex>2</trackindex>
											<clipindex>1</clipindex>
										</link>
										<link>
											<linkclipref>clipitem-294</linkclipref>
											<mediatype>audio</mediatype>
											<trackindex>3</trackindex>
											<clipindex>1</clipindex>
										</link>
										<link>
											<linkclipref>clipitem-295</linkclipref>
											<mediatype>audio</mediatype>
											<trackindex>4</trackindex>
											<clipindex>1</clipindex>
										</link>
										<link>
											<linkclipref>clipitem-296</linkclipref>
											<mediatype>audio</mediatype>
											<trackindex>5</trackindex>
											<clipindex>1</clipindex>
										</link>
										<link>
											<linkclipref>clipitem-297</linkclipref>
											<mediatype>audio</mediatype>
											<trackindex>6</trackindex>
											<clipindex>1</clipindex>
										</link>
										<link>
											<linkclipref>clipitem-298</linkclipref>
											<mediatype>audio</mediatype>
											<trackindex>7</trackindex>
											<clipindex>1</clipindex>
										</link>
										<link>
											<linkclipref>clipitem-299</linkclipref>
											<mediatype>audio</mediatype>
											<trackindex>8</trackindex>
											<clipindex>1</clipindex>
										</link>
									</clipitem>
								</track>
								<track>
									<clipitem id="clipitem-298">
										<masterclipid>masterclip-81</masterclipid>
										<name>12-01-3.WAV</name>
										<rate>
											<timebase>30</timebase>
											<ntsc>TRUE</ntsc>
										</rate>
										<file id="file-81"/>
										<sourcetrack>
											<mediatype>audio</mediatype>
											<trackindex>7</trackindex>
										</sourcetrack>
										<link>
											<linkclipref>clipitem-292</linkclipref>
											<mediatype>audio</mediatype>
											<trackindex>1</trackindex>
											<clipindex>1</clipindex>
										</link>
										<link>
											<linkclipref>clipitem-293</linkclipref>
											<mediatype>audio</mediatype>
											<trackindex>2</trackindex>
											<clipindex>1</clipindex>
										</link>
										<link>
											<linkclipref>clipitem-294</linkclipref>
											<mediatype>audio</mediatype>
											<trackindex>3</trackindex>
											<clipindex>1</clipindex>
										</link>
										<link>
											<linkclipref>clipitem-295</linkclipref>
											<mediatype>audio</mediatype>
											<trackindex>4</trackindex>
											<clipindex>1</clipindex>
										</link>
										<link>
											<linkclipref>clipitem-296</linkclipref>
											<mediatype>audio</mediatype>
											<trackindex>5</trackindex>
											<clipindex>1</clipindex>
										</link>
										<link>
											<linkclipref>clipitem-297</linkclipref>
											<mediatype>audio</mediatype>
											<trackindex>6</trackindex>
											<clipindex>1</clipindex>
										</link>
										<link>
											<linkclipref>clipitem-298</linkclipref>
											<mediatype>audio</mediatype>
											<trackindex>7</trackindex>
											<clipindex>1</clipindex>
										</link>
										<link>
											<linkclipref>clipitem-299</linkclipref>
											<mediatype>audio</mediatype>
											<trackindex>8</trackindex>
											<clipindex>1</clipindex>
										</link>
									</clipitem>
								</track>
								<track>
									<clipitem id="clipitem-299">
										<masterclipid>masterclip-81</masterclipid>
										<name>12-01-3.WAV</name>
										<rate>
											<timebase>30</timebase>
											<ntsc>TRUE</ntsc>
										</rate>
										<file id="file-81"/>
										<sourcetrack>
											<mediatype>audio</mediatype>
											<trackindex>8</trackindex>
										</sourcetrack>
										<link>
											<linkclipref>clipitem-292</linkclipref>
											<mediatype>audio</mediatype>
											<trackindex>1</trackindex>
											<clipindex>1</clipindex>
										</link>
										<link>
											<linkclipref>clipitem-293</linkclipref>
											<mediatype>audio</mediatype>
											<trackindex>2</trackindex>
											<clipindex>1</clipindex>
										</link>
										<link>
											<linkclipref>clipitem-294</linkclipref>
											<mediatype>audio</mediatype>
											<trackindex>3</trackindex>
											<clipindex>1</clipindex>
										</link>
										<link>
											<linkclipref>clipitem-295</linkclipref>
											<mediatype>audio</mediatype>
											<trackindex>4</trackindex>
											<clipindex>1</clipindex>
										</link>
										<link>
											<linkclipref>clipitem-296</linkclipref>
											<mediatype>audio</mediatype>
											<trackindex>5</trackindex>
											<clipindex>1</clipindex>
										</link>
										<link>
											<linkclipref>clipitem-297</linkclipref>
											<mediatype>audio</mediatype>
											<trackindex>6</trackindex>
											<clipindex>1</clipindex>
										</link>
										<link>
											<linkclipref>clipitem-298</linkclipref>
											<mediatype>audio</mediatype>
											<trackindex>7</trackindex>
											<clipindex>1</clipindex>
										</link>
										<link>
											<linkclipref>clipitem-299</linkclipref>
											<mediatype>audio</mediatype>
											<trackindex>8</trackindex>
											<clipindex>1</clipindex>
										</link>
									</clipitem>
								</track>
							</audio>
						</media>
						<logginginfo>
							<description></description>
							<scene>12-01</scene>
							<shottake></shottake>
							<lognote></lognote>
							<good></good>
							<originalvideofilename></originalvideofilename>
							<originalaudiofilename></originalaudiofilename>
						</logginginfo>
						<colorinfo>
							<lut></lut>
							<lut1></lut1>
							<asc_sop></asc_sop>
							<asc_sat></asc_sat>
							<lut2></lut2>
						</colorinfo>
						<labels>
							<label2>Mango</label2>
						</labels>
					</clip>
					<clip id="masterclip-82" explodedTracks="true">
						<uuid>31d3e1fe-38c6-4a8e-8ce9-a6fa3a2a0ae8</uuid>
						<masterclipid>masterclip-82</masterclipid>
						<ismasterclip>TRUE</ismasterclip>
						<duration>4765</duration>
						<rate>
							<timebase>30</timebase>
							<ntsc>TRUE</ntsc>
						</rate>
						<name>12-01-4.WAV</name>
						<media>
							<audio>
								<track>
									<clipitem id="clipitem-300">
										<masterclipid>masterclip-82</masterclipid>
										<name>12-01-4.WAV</name>
										<rate>
											<timebase>30</timebase>
											<ntsc>TRUE</ntsc>
										</rate>
										<file id="file-82">
											<name>12-01-4.WAV</name>
											<pathurl>file://localhost/S%3a/Projects/PRODIGAL_SON/AUDIO/190511_D01/12-01-4.WAV</pathurl>
											<rate>
												<timebase>30</timebase>
												<ntsc>TRUE</ntsc>
											</rate>
											<duration>4765</duration>
											<timecode>
												<rate>
													<timebase>30</timebase>
													<ntsc>TRUE</ntsc>
												</rate>
												<string>13;50;12;01</string>
												<frame>1492867</frame>
												<displayformat>DF</displayformat>
												<reel>
													<name>190511</name>
												</reel>
											</timecode>
											<media>
												<audio>
													<samplecharacteristics>
														<depth>16</depth>
														<samplerate>48000</samplerate>
													</samplecharacteristics>
													<channelcount>1</channelcount>
													<audiochannel>
														<sourcechannel>1</sourcechannel>
													</audiochannel>
												</audio>
												<audio>
													<samplecharacteristics>
														<depth>16</depth>
														<samplerate>48000</samplerate>
													</samplecharacteristics>
													<channelcount>1</channelcount>
													<audiochannel>
														<sourcechannel>2</sourcechannel>
													</audiochannel>
												</audio>
												<audio>
													<samplecharacteristics>
														<depth>16</depth>
														<samplerate>48000</samplerate>
													</samplecharacteristics>
													<channelcount>1</channelcount>
													<audiochannel>
														<sourcechannel>3</sourcechannel>
													</audiochannel>
												</audio>
												<audio>
													<samplecharacteristics>
														<depth>16</depth>
														<samplerate>48000</samplerate>
													</samplecharacteristics>
													<channelcount>1</channelcount>
													<audiochannel>
														<sourcechannel>4</sourcechannel>
													</audiochannel>
												</audio>
												<audio>
													<samplecharacteristics>
														<depth>16</depth>
														<samplerate>48000</samplerate>
													</samplecharacteristics>
													<channelcount>1</channelcount>
													<audiochannel>
														<sourcechannel>5</sourcechannel>
													</audiochannel>
												</audio>
												<audio>
													<samplecharacteristics>
														<depth>16</depth>
														<samplerate>48000</samplerate>
													</samplecharacteristics>
													<channelcount>1</channelcount>
													<audiochannel>
														<sourcechannel>6</sourcechannel>
													</audiochannel>
												</audio>
												<audio>
													<samplecharacteristics>
														<depth>16</depth>
														<samplerate>48000</samplerate>
													</samplecharacteristics>
													<channelcount>1</channelcount>
													<audiochannel>
														<sourcechannel>7</sourcechannel>
													</audiochannel>
												</audio>
												<audio>
													<samplecharacteristics>
														<depth>16</depth>
														<samplerate>48000</samplerate>
													</samplecharacteristics>
													<channelcount>1</channelcount>
													<audiochannel>
														<sourcechannel>8</sourcechannel>
													</audiochannel>
												</audio>
											</media>
										</file>
										<sourcetrack>
											<mediatype>audio</mediatype>
											<trackindex>1</trackindex>
										</sourcetrack>
										<link>
											<linkclipref>clipitem-300</linkclipref>
											<mediatype>audio</mediatype>
											<trackindex>1</trackindex>
											<clipindex>1</clipindex>
										</link>
										<link>
											<linkclipref>clipitem-301</linkclipref>
											<mediatype>audio</mediatype>
											<trackindex>2</trackindex>
											<clipindex>1</clipindex>
										</link>
										<link>
											<linkclipref>clipitem-302</linkclipref>
											<mediatype>audio</mediatype>
											<trackindex>3</trackindex>
											<clipindex>1</clipindex>
										</link>
										<link>
											<linkclipref>clipitem-303</linkclipref>
											<mediatype>audio</mediatype>
											<trackindex>4</trackindex>
											<clipindex>1</clipindex>
										</link>
										<link>
											<linkclipref>clipitem-304</linkclipref>
											<mediatype>audio</mediatype>
											<trackindex>5</trackindex>
											<clipindex>1</clipindex>
										</link>
										<link>
											<linkclipref>clipitem-305</linkclipref>
											<mediatype>audio</mediatype>
											<trackindex>6</trackindex>
											<clipindex>1</clipindex>
										</link>
										<link>
											<linkclipref>clipitem-306</linkclipref>
											<mediatype>audio</mediatype>
											<trackindex>7</trackindex>
											<clipindex>1</clipindex>
										</link>
										<link>
											<linkclipref>clipitem-307</linkclipref>
											<mediatype>audio</mediatype>
											<trackindex>8</trackindex>
											<clipindex>1</clipindex>
										</link>
									</clipitem>
								</track>
								<track>
									<clipitem id="clipitem-301">
										<masterclipid>masterclip-82</masterclipid>
										<name>12-01-4.WAV</name>
										<rate>
											<timebase>30</timebase>
											<ntsc>TRUE</ntsc>
										</rate>
										<file id="file-82"/>
										<sourcetrack>
											<mediatype>audio</mediatype>
											<trackindex>2</trackindex>
										</sourcetrack>
										<link>
											<linkclipref>clipitem-300</linkclipref>
											<mediatype>audio</mediatype>
											<trackindex>1</trackindex>
											<clipindex>1</clipindex>
										</link>
										<link>
											<linkclipref>clipitem-301</linkclipref>
											<mediatype>audio</mediatype>
											<trackindex>2</trackindex>
											<clipindex>1</clipindex>
										</link>
										<link>
											<linkclipref>clipitem-302</linkclipref>
											<mediatype>audio</mediatype>
											<trackindex>3</trackindex>
											<clipindex>1</clipindex>
										</link>
										<link>
											<linkclipref>clipitem-303</linkclipref>
											<mediatype>audio</mediatype>
											<trackindex>4</trackindex>
											<clipindex>1</clipindex>
										</link>
										<link>
											<linkclipref>clipitem-304</linkclipref>
											<mediatype>audio</mediatype>
											<trackindex>5</trackindex>
											<clipindex>1</clipindex>
										</link>
										<link>
											<linkclipref>clipitem-305</linkclipref>
											<mediatype>audio</mediatype>
											<trackindex>6</trackindex>
											<clipindex>1</clipindex>
										</link>
										<link>
											<linkclipref>clipitem-306</linkclipref>
											<mediatype>audio</mediatype>
											<trackindex>7</trackindex>
											<clipindex>1</clipindex>
										</link>
										<link>
											<linkclipref>clipitem-307</linkclipref>
											<mediatype>audio</mediatype>
											<trackindex>8</trackindex>
											<clipindex>1</clipindex>
										</link>
									</clipitem>
								</track>
								<track>
									<clipitem id="clipitem-302">
										<masterclipid>masterclip-82</masterclipid>
										<name>12-01-4.WAV</name>
										<rate>
											<timebase>30</timebase>
											<ntsc>TRUE</ntsc>
										</rate>
										<file id="file-82"/>
										<sourcetrack>
											<mediatype>audio</mediatype>
											<trackindex>3</trackindex>
										</sourcetrack>
										<link>
											<linkclipref>clipitem-300</linkclipref>
											<mediatype>audio</mediatype>
											<trackindex>1</trackindex>
											<clipindex>1</clipindex>
										</link>
										<link>
											<linkclipref>clipitem-301</linkclipref>
											<mediatype>audio</mediatype>
											<trackindex>2</trackindex>
											<clipindex>1</clipindex>
										</link>
										<link>
											<linkclipref>clipitem-302</linkclipref>
											<mediatype>audio</mediatype>
											<trackindex>3</trackindex>
											<clipindex>1</clipindex>
										</link>
										<link>
											<linkclipref>clipitem-303</linkclipref>
											<mediatype>audio</mediatype>
											<trackindex>4</trackindex>
											<clipindex>1</clipindex>
										</link>
										<link>
											<linkclipref>clipitem-304</linkclipref>
											<mediatype>audio</mediatype>
											<trackindex>5</trackindex>
											<clipindex>1</clipindex>
										</link>
										<link>
											<linkclipref>clipitem-305</linkclipref>
											<mediatype>audio</mediatype>
											<trackindex>6</trackindex>
											<clipindex>1</clipindex>
										</link>
										<link>
											<linkclipref>clipitem-306</linkclipref>
											<mediatype>audio</mediatype>
											<trackindex>7</trackindex>
											<clipindex>1</clipindex>
										</link>
										<link>
											<linkclipref>clipitem-307</linkclipref>
											<mediatype>audio</mediatype>
											<trackindex>8</trackindex>
											<clipindex>1</clipindex>
										</link>
									</clipitem>
								</track>
								<track>
									<clipitem id="clipitem-303">
										<masterclipid>masterclip-82</masterclipid>
										<name>12-01-4.WAV</name>
										<rate>
											<timebase>30</timebase>
											<ntsc>TRUE</ntsc>
										</rate>
										<file id="file-82"/>
										<sourcetrack>
											<mediatype>audio</mediatype>
											<trackindex>4</trackindex>
										</sourcetrack>
										<link>
											<linkclipref>clipitem-300</linkclipref>
											<mediatype>audio</mediatype>
											<trackindex>1</trackindex>
											<clipindex>1</clipindex>
										</link>
										<link>
											<linkclipref>clipitem-301</linkclipref>
											<mediatype>audio</mediatype>
											<trackindex>2</trackindex>
											<clipindex>1</clipindex>
										</link>
										<link>
											<linkclipref>clipitem-302</linkclipref>
											<mediatype>audio</mediatype>
											<trackindex>3</trackindex>
											<clipindex>1</clipindex>
										</link>
										<link>
											<linkclipref>clipitem-303</linkclipref>
											<mediatype>audio</mediatype>
											<trackindex>4</trackindex>
											<clipindex>1</clipindex>
										</link>
										<link>
											<linkclipref>clipitem-304</linkclipref>
											<mediatype>audio</mediatype>
											<trackindex>5</trackindex>
											<clipindex>1</clipindex>
										</link>
										<link>
											<linkclipref>clipitem-305</linkclipref>
											<mediatype>audio</mediatype>
											<trackindex>6</trackindex>
											<clipindex>1</clipindex>
										</link>
										<link>
											<linkclipref>clipitem-306</linkclipref>
											<mediatype>audio</mediatype>
											<trackindex>7</trackindex>
											<clipindex>1</clipindex>
										</link>
										<link>
											<linkclipref>clipitem-307</linkclipref>
											<mediatype>audio</mediatype>
											<trackindex>8</trackindex>
											<clipindex>1</clipindex>
										</link>
									</clipitem>
								</track>
								<track>
									<clipitem id="clipitem-304">
										<masterclipid>masterclip-82</masterclipid>
										<name>12-01-4.WAV</name>
										<rate>
											<timebase>30</timebase>
											<ntsc>TRUE</ntsc>
										</rate>
										<file id="file-82"/>
										<sourcetrack>
											<mediatype>audio</mediatype>
											<trackindex>5</trackindex>
										</sourcetrack>
										<link>
											<linkclipref>clipitem-300</linkclipref>
											<mediatype>audio</mediatype>
											<trackindex>1</trackindex>
											<clipindex>1</clipindex>
										</link>
										<link>
											<linkclipref>clipitem-301</linkclipref>
											<mediatype>audio</mediatype>
											<trackindex>2</trackindex>
											<clipindex>1</clipindex>
										</link>
										<link>
											<linkclipref>clipitem-302</linkclipref>
											<mediatype>audio</mediatype>
											<trackindex>3</trackindex>
											<clipindex>1</clipindex>
										</link>
										<link>
											<linkclipref>clipitem-303</linkclipref>
											<mediatype>audio</mediatype>
											<trackindex>4</trackindex>
											<clipindex>1</clipindex>
										</link>
										<link>
											<linkclipref>clipitem-304</linkclipref>
											<mediatype>audio</mediatype>
											<trackindex>5</trackindex>
											<clipindex>1</clipindex>
										</link>
										<link>
											<linkclipref>clipitem-305</linkclipref>
											<mediatype>audio</mediatype>
											<trackindex>6</trackindex>
											<clipindex>1</clipindex>
										</link>
										<link>
											<linkclipref>clipitem-306</linkclipref>
											<mediatype>audio</mediatype>
											<trackindex>7</trackindex>
											<clipindex>1</clipindex>
										</link>
										<link>
											<linkclipref>clipitem-307</linkclipref>
											<mediatype>audio</mediatype>
											<trackindex>8</trackindex>
											<clipindex>1</clipindex>
										</link>
									</clipitem>
								</track>
								<track>
									<clipitem id="clipitem-305">
										<masterclipid>masterclip-82</masterclipid>
										<name>12-01-4.WAV</name>
										<rate>
											<timebase>30</timebase>
											<ntsc>TRUE</ntsc>
										</rate>
										<file id="file-82"/>
										<sourcetrack>
											<mediatype>audio</mediatype>
											<trackindex>6</trackindex>
										</sourcetrack>
										<link>
											<linkclipref>clipitem-300</linkclipref>
											<mediatype>audio</mediatype>
											<trackindex>1</trackindex>
											<clipindex>1</clipindex>
										</link>
										<link>
											<linkclipref>clipitem-301</linkclipref>
											<mediatype>audio</mediatype>
											<trackindex>2</trackindex>
											<clipindex>1</clipindex>
										</link>
										<link>
											<linkclipref>clipitem-302</linkclipref>
											<mediatype>audio</mediatype>
											<trackindex>3</trackindex>
											<clipindex>1</clipindex>
										</link>
										<link>
											<linkclipref>clipitem-303</linkclipref>
											<mediatype>audio</mediatype>
											<trackindex>4</trackindex>
											<clipindex>1</clipindex>
										</link>
										<link>
											<linkclipref>clipitem-304</linkclipref>
											<mediatype>audio</mediatype>
											<trackindex>5</trackindex>
											<clipindex>1</clipindex>
										</link>
										<link>
											<linkclipref>clipitem-305</linkclipref>
											<mediatype>audio</mediatype>
											<trackindex>6</trackindex>
											<clipindex>1</clipindex>
										</link>
										<link>
											<linkclipref>clipitem-306</linkclipref>
											<mediatype>audio</mediatype>
											<trackindex>7</trackindex>
											<clipindex>1</clipindex>
										</link>
										<link>
											<linkclipref>clipitem-307</linkclipref>
											<mediatype>audio</mediatype>
											<trackindex>8</trackindex>
											<clipindex>1</clipindex>
										</link>
									</clipitem>
								</track>
								<track>
									<clipitem id="clipitem-306">
										<masterclipid>masterclip-82</masterclipid>
										<name>12-01-4.WAV</name>
										<rate>
											<timebase>30</timebase>
											<ntsc>TRUE</ntsc>
										</rate>
										<file id="file-82"/>
										<sourcetrack>
											<mediatype>audio</mediatype>
											<trackindex>7</trackindex>
										</sourcetrack>
										<link>
											<linkclipref>clipitem-300</linkclipref>
											<mediatype>audio</mediatype>
											<trackindex>1</trackindex>
											<clipindex>1</clipindex>
										</link>
										<link>
											<linkclipref>clipitem-301</linkclipref>
											<mediatype>audio</mediatype>
											<trackindex>2</trackindex>
											<clipindex>1</clipindex>
										</link>
										<link>
											<linkclipref>clipitem-302</linkclipref>
											<mediatype>audio</mediatype>
											<trackindex>3</trackindex>
											<clipindex>1</clipindex>
										</link>
										<link>
											<linkclipref>clipitem-303</linkclipref>
											<mediatype>audio</mediatype>
											<trackindex>4</trackindex>
											<clipindex>1</clipindex>
										</link>
										<link>
											<linkclipref>clipitem-304</linkclipref>
											<mediatype>audio</mediatype>
											<trackindex>5</trackindex>
											<clipindex>1</clipindex>
										</link>
										<link>
											<linkclipref>clipitem-305</linkclipref>
											<mediatype>audio</mediatype>
											<trackindex>6</trackindex>
											<clipindex>1</clipindex>
										</link>
										<link>
											<linkclipref>clipitem-306</linkclipref>
											<mediatype>audio</mediatype>
											<trackindex>7</trackindex>
											<clipindex>1</clipindex>
										</link>
										<link>
											<linkclipref>clipitem-307</linkclipref>
											<mediatype>audio</mediatype>
											<trackindex>8</trackindex>
											<clipindex>1</clipindex>
										</link>
									</clipitem>
								</track>
								<track>
									<clipitem id="clipitem-307">
										<masterclipid>masterclip-82</masterclipid>
										<name>12-01-4.WAV</name>
										<rate>
											<timebase>30</timebase>
											<ntsc>TRUE</ntsc>
										</rate>
										<file id="file-82"/>
										<sourcetrack>
											<mediatype>audio</mediatype>
											<trackindex>8</trackindex>
										</sourcetrack>
										<link>
											<linkclipref>clipitem-300</linkclipref>
											<mediatype>audio</mediatype>
											<trackindex>1</trackindex>
											<clipindex>1</clipindex>
										</link>
										<link>
											<linkclipref>clipitem-301</linkclipref>
											<mediatype>audio</mediatype>
											<trackindex>2</trackindex>
											<clipindex>1</clipindex>
										</link>
										<link>
											<linkclipref>clipitem-302</linkclipref>
											<mediatype>audio</mediatype>
											<trackindex>3</trackindex>
											<clipindex>1</clipindex>
										</link>
										<link>
											<linkclipref>clipitem-303</linkclipref>
											<mediatype>audio</mediatype>
											<trackindex>4</trackindex>
											<clipindex>1</clipindex>
										</link>
										<link>
											<linkclipref>clipitem-304</linkclipref>
											<mediatype>audio</mediatype>
											<trackindex>5</trackindex>
											<clipindex>1</clipindex>
										</link>
										<link>
											<linkclipref>clipitem-305</linkclipref>
											<mediatype>audio</mediatype>
											<trackindex>6</trackindex>
											<clipindex>1</clipindex>
										</link>
										<link>
											<linkclipref>clipitem-306</linkclipref>
											<mediatype>audio</mediatype>
											<trackindex>7</trackindex>
											<clipindex>1</clipindex>
										</link>
										<link>
											<linkclipref>clipitem-307</linkclipref>
											<mediatype>audio</mediatype>
											<trackindex>8</trackindex>
											<clipindex>1</clipindex>
										</link>
									</clipitem>
								</track>
							</audio>
						</media>
						<logginginfo>
							<description></description>
							<scene>12-01</scene>
							<shottake></shottake>
							<lognote></lognote>
							<good></good>
							<originalvideofilename></originalvideofilename>
							<originalaudiofilename></originalaudiofilename>
						</logginginfo>
						<colorinfo>
							<lut></lut>
							<lut1></lut1>
							<asc_sop></asc_sop>
							<asc_sat></asc_sat>
							<lut2></lut2>
						</colorinfo>
						<labels>
							<label2>Mango</label2>
						</labels>
					</clip>
					<clip id="masterclip-83" explodedTracks="true">
						<uuid>1e2b881f-4f4d-4ee9-b4a3-b869a25ac70f</uuid>
						<masterclipid>masterclip-83</masterclipid>
						<ismasterclip>TRUE</ismasterclip>
						<duration>4045</duration>
						<rate>
							<timebase>30</timebase>
							<ntsc>TRUE</ntsc>
						</rate>
						<name>12-01-5.WAV</name>
						<media>
							<audio>
								<track>
									<clipitem id="clipitem-308">
										<masterclipid>masterclip-83</masterclipid>
										<name>12-01-5.WAV</name>
										<rate>
											<timebase>30</timebase>
											<ntsc>TRUE</ntsc>
										</rate>
										<file id="file-83">
											<name>12-01-5.WAV</name>
											<pathurl>file://localhost/S%3a/Projects/PRODIGAL_SON/AUDIO/190511_D01/12-01-5.WAV</pathurl>
											<rate>
												<timebase>30</timebase>
												<ntsc>TRUE</ntsc>
											</rate>
											<duration>4045</duration>
											<timecode>
												<rate>
													<timebase>30</timebase>
													<ntsc>TRUE</ntsc>
												</rate>
												<string>13;54;37;01</string>
												<frame>1500809</frame>
												<displayformat>DF</displayformat>
												<reel>
													<name>190511</name>
												</reel>
											</timecode>
											<media>
												<audio>
													<samplecharacteristics>
														<depth>16</depth>
														<samplerate>48000</samplerate>
													</samplecharacteristics>
													<channelcount>1</channelcount>
													<audiochannel>
														<sourcechannel>1</sourcechannel>
													</audiochannel>
												</audio>
												<audio>
													<samplecharacteristics>
														<depth>16</depth>
														<samplerate>48000</samplerate>
													</samplecharacteristics>
													<channelcount>1</channelcount>
													<audiochannel>
														<sourcechannel>2</sourcechannel>
													</audiochannel>
												</audio>
												<audio>
													<samplecharacteristics>
														<depth>16</depth>
														<samplerate>48000</samplerate>
													</samplecharacteristics>
													<channelcount>1</channelcount>
													<audiochannel>
														<sourcechannel>3</sourcechannel>
													</audiochannel>
												</audio>
												<audio>
													<samplecharacteristics>
														<depth>16</depth>
														<samplerate>48000</samplerate>
													</samplecharacteristics>
													<channelcount>1</channelcount>
													<audiochannel>
														<sourcechannel>4</sourcechannel>
													</audiochannel>
												</audio>
												<audio>
													<samplecharacteristics>
														<depth>16</depth>
														<samplerate>48000</samplerate>
													</samplecharacteristics>
													<channelcount>1</channelcount>
													<audiochannel>
														<sourcechannel>5</sourcechannel>
													</audiochannel>
												</audio>
												<audio>
													<samplecharacteristics>
														<depth>16</depth>
														<samplerate>48000</samplerate>
													</samplecharacteristics>
													<channelcount>1</channelcount>
													<audiochannel>
														<sourcechannel>6</sourcechannel>
													</audiochannel>
												</audio>
												<audio>
													<samplecharacteristics>
														<depth>16</depth>
														<samplerate>48000</samplerate>
													</samplecharacteristics>
													<channelcount>1</channelcount>
													<audiochannel>
														<sourcechannel>7</sourcechannel>
													</audiochannel>
												</audio>
												<audio>
													<samplecharacteristics>
														<depth>16</depth>
														<samplerate>48000</samplerate>
													</samplecharacteristics>
													<channelcount>1</channelcount>
													<audiochannel>
														<sourcechannel>8</sourcechannel>
													</audiochannel>
												</audio>
											</media>
										</file>
										<sourcetrack>
											<mediatype>audio</mediatype>
											<trackindex>1</trackindex>
										</sourcetrack>
										<link>
											<linkclipref>clipitem-308</linkclipref>
											<mediatype>audio</mediatype>
											<trackindex>1</trackindex>
											<clipindex>1</clipindex>
										</link>
										<link>
											<linkclipref>clipitem-309</linkclipref>
											<mediatype>audio</mediatype>
											<trackindex>2</trackindex>
											<clipindex>1</clipindex>
										</link>
										<link>
											<linkclipref>clipitem-310</linkclipref>
											<mediatype>audio</mediatype>
											<trackindex>3</trackindex>
											<clipindex>1</clipindex>
										</link>
										<link>
											<linkclipref>clipitem-311</linkclipref>
											<mediatype>audio</mediatype>
											<trackindex>4</trackindex>
											<clipindex>1</clipindex>
										</link>
										<link>
											<linkclipref>clipitem-312</linkclipref>
											<mediatype>audio</mediatype>
											<trackindex>5</trackindex>
											<clipindex>1</clipindex>
										</link>
										<link>
											<linkclipref>clipitem-313</linkclipref>
											<mediatype>audio</mediatype>
											<trackindex>6</trackindex>
											<clipindex>1</clipindex>
										</link>
										<link>
											<linkclipref>clipitem-314</linkclipref>
											<mediatype>audio</mediatype>
											<trackindex>7</trackindex>
											<clipindex>1</clipindex>
										</link>
										<link>
											<linkclipref>clipitem-315</linkclipref>
											<mediatype>audio</mediatype>
											<trackindex>8</trackindex>
											<clipindex>1</clipindex>
										</link>
									</clipitem>
								</track>
								<track>
									<clipitem id="clipitem-309">
										<masterclipid>masterclip-83</masterclipid>
										<name>12-01-5.WAV</name>
										<rate>
											<timebase>30</timebase>
											<ntsc>TRUE</ntsc>
										</rate>
										<file id="file-83"/>
										<sourcetrack>
											<mediatype>audio</mediatype>
											<trackindex>2</trackindex>
										</sourcetrack>
										<link>
											<linkclipref>clipitem-308</linkclipref>
											<mediatype>audio</mediatype>
											<trackindex>1</trackindex>
											<clipindex>1</clipindex>
										</link>
										<link>
											<linkclipref>clipitem-309</linkclipref>
											<mediatype>audio</mediatype>
											<trackindex>2</trackindex>
											<clipindex>1</clipindex>
										</link>
										<link>
											<linkclipref>clipitem-310</linkclipref>
											<mediatype>audio</mediatype>
											<trackindex>3</trackindex>
											<clipindex>1</clipindex>
										</link>
										<link>
											<linkclipref>clipitem-311</linkclipref>
											<mediatype>audio</mediatype>
											<trackindex>4</trackindex>
											<clipindex>1</clipindex>
										</link>
										<link>
											<linkclipref>clipitem-312</linkclipref>
											<mediatype>audio</mediatype>
											<trackindex>5</trackindex>
											<clipindex>1</clipindex>
										</link>
										<link>
											<linkclipref>clipitem-313</linkclipref>
											<mediatype>audio</mediatype>
											<trackindex>6</trackindex>
											<clipindex>1</clipindex>
										</link>
										<link>
											<linkclipref>clipitem-314</linkclipref>
											<mediatype>audio</mediatype>
											<trackindex>7</trackindex>
											<clipindex>1</clipindex>
										</link>
										<link>
											<linkclipref>clipitem-315</linkclipref>
											<mediatype>audio</mediatype>
											<trackindex>8</trackindex>
											<clipindex>1</clipindex>
										</link>
									</clipitem>
								</track>
								<track>
									<clipitem id="clipitem-310">
										<masterclipid>masterclip-83</masterclipid>
										<name>12-01-5.WAV</name>
										<rate>
											<timebase>30</timebase>
											<ntsc>TRUE</ntsc>
										</rate>
										<file id="file-83"/>
										<sourcetrack>
											<mediatype>audio</mediatype>
											<trackindex>3</trackindex>
										</sourcetrack>
										<link>
											<linkclipref>clipitem-308</linkclipref>
											<mediatype>audio</mediatype>
											<trackindex>1</trackindex>
											<clipindex>1</clipindex>
										</link>
										<link>
											<linkclipref>clipitem-309</linkclipref>
											<mediatype>audio</mediatype>
											<trackindex>2</trackindex>
											<clipindex>1</clipindex>
										</link>
										<link>
											<linkclipref>clipitem-310</linkclipref>
											<mediatype>audio</mediatype>
											<trackindex>3</trackindex>
											<clipindex>1</clipindex>
										</link>
										<link>
											<linkclipref>clipitem-311</linkclipref>
											<mediatype>audio</mediatype>
											<trackindex>4</trackindex>
											<clipindex>1</clipindex>
										</link>
										<link>
											<linkclipref>clipitem-312</linkclipref>
											<mediatype>audio</mediatype>
											<trackindex>5</trackindex>
											<clipindex>1</clipindex>
										</link>
										<link>
											<linkclipref>clipitem-313</linkclipref>
											<mediatype>audio</mediatype>
											<trackindex>6</trackindex>
											<clipindex>1</clipindex>
										</link>
										<link>
											<linkclipref>clipitem-314</linkclipref>
											<mediatype>audio</mediatype>
											<trackindex>7</trackindex>
											<clipindex>1</clipindex>
										</link>
										<link>
											<linkclipref>clipitem-315</linkclipref>
											<mediatype>audio</mediatype>
											<trackindex>8</trackindex>
											<clipindex>1</clipindex>
										</link>
									</clipitem>
								</track>
								<track>
									<clipitem id="clipitem-311">
										<masterclipid>masterclip-83</masterclipid>
										<name>12-01-5.WAV</name>
										<rate>
											<timebase>30</timebase>
											<ntsc>TRUE</ntsc>
										</rate>
										<file id="file-83"/>
										<sourcetrack>
											<mediatype>audio</mediatype>
											<trackindex>4</trackindex>
										</sourcetrack>
										<link>
											<linkclipref>clipitem-308</linkclipref>
											<mediatype>audio</mediatype>
											<trackindex>1</trackindex>
											<clipindex>1</clipindex>
										</link>
										<link>
											<linkclipref>clipitem-309</linkclipref>
											<mediatype>audio</mediatype>
											<trackindex>2</trackindex>
											<clipindex>1</clipindex>
										</link>
										<link>
											<linkclipref>clipitem-310</linkclipref>
											<mediatype>audio</mediatype>
											<trackindex>3</trackindex>
											<clipindex>1</clipindex>
										</link>
										<link>
											<linkclipref>clipitem-311</linkclipref>
											<mediatype>audio</mediatype>
											<trackindex>4</trackindex>
											<clipindex>1</clipindex>
										</link>
										<link>
											<linkclipref>clipitem-312</linkclipref>
											<mediatype>audio</mediatype>
											<trackindex>5</trackindex>
											<clipindex>1</clipindex>
										</link>
										<link>
											<linkclipref>clipitem-313</linkclipref>
											<mediatype>audio</mediatype>
											<trackindex>6</trackindex>
											<clipindex>1</clipindex>
										</link>
										<link>
											<linkclipref>clipitem-314</linkclipref>
											<mediatype>audio</mediatype>
											<trackindex>7</trackindex>
											<clipindex>1</clipindex>
										</link>
										<link>
											<linkclipref>clipitem-315</linkclipref>
											<mediatype>audio</mediatype>
											<trackindex>8</trackindex>
											<clipindex>1</clipindex>
										</link>
									</clipitem>
								</track>
								<track>
									<clipitem id="clipitem-312">
										<masterclipid>masterclip-83</masterclipid>
										<name>12-01-5.WAV</name>
										<rate>
											<timebase>30</timebase>
											<ntsc>TRUE</ntsc>
										</rate>
										<file id="file-83"/>
										<sourcetrack>
											<mediatype>audio</mediatype>
											<trackindex>5</trackindex>
										</sourcetrack>
										<link>
											<linkclipref>clipitem-308</linkclipref>
											<mediatype>audio</mediatype>
											<trackindex>1</trackindex>
											<clipindex>1</clipindex>
										</link>
										<link>
											<linkclipref>clipitem-309</linkclipref>
											<mediatype>audio</mediatype>
											<trackindex>2</trackindex>
											<clipindex>1</clipindex>
										</link>
										<link>
											<linkclipref>clipitem-310</linkclipref>
											<mediatype>audio</mediatype>
											<trackindex>3</trackindex>
											<clipindex>1</clipindex>
										</link>
										<link>
											<linkclipref>clipitem-311</linkclipref>
											<mediatype>audio</mediatype>
											<trackindex>4</trackindex>
											<clipindex>1</clipindex>
										</link>
										<link>
											<linkclipref>clipitem-312</linkclipref>
											<mediatype>audio</mediatype>
											<trackindex>5</trackindex>
											<clipindex>1</clipindex>
										</link>
										<link>
											<linkclipref>clipitem-313</linkclipref>
											<mediatype>audio</mediatype>
											<trackindex>6</trackindex>
											<clipindex>1</clipindex>
										</link>
										<link>
											<linkclipref>clipitem-314</linkclipref>
											<mediatype>audio</mediatype>
											<trackindex>7</trackindex>
											<clipindex>1</clipindex>
										</link>
										<link>
											<linkclipref>clipitem-315</linkclipref>
											<mediatype>audio</mediatype>
											<trackindex>8</trackindex>
											<clipindex>1</clipindex>
										</link>
									</clipitem>
								</track>
								<track>
									<clipitem id="clipitem-313">
										<masterclipid>masterclip-83</masterclipid>
										<name>12-01-5.WAV</name>
										<rate>
											<timebase>30</timebase>
											<ntsc>TRUE</ntsc>
										</rate>
										<file id="file-83"/>
										<sourcetrack>
											<mediatype>audio</mediatype>
											<trackindex>6</trackindex>
										</sourcetrack>
										<link>
											<linkclipref>clipitem-308</linkclipref>
											<mediatype>audio</mediatype>
											<trackindex>1</trackindex>
											<clipindex>1</clipindex>
										</link>
										<link>
											<linkclipref>clipitem-309</linkclipref>
											<mediatype>audio</mediatype>
											<trackindex>2</trackindex>
											<clipindex>1</clipindex>
										</link>
										<link>
											<linkclipref>clipitem-310</linkclipref>
											<mediatype>audio</mediatype>
											<trackindex>3</trackindex>
											<clipindex>1</clipindex>
										</link>
										<link>
											<linkclipref>clipitem-311</linkclipref>
											<mediatype>audio</mediatype>
											<trackindex>4</trackindex>
											<clipindex>1</clipindex>
										</link>
										<link>
											<linkclipref>clipitem-312</linkclipref>
											<mediatype>audio</mediatype>
											<trackindex>5</trackindex>
											<clipindex>1</clipindex>
										</link>
										<link>
											<linkclipref>clipitem-313</linkclipref>
											<mediatype>audio</mediatype>
											<trackindex>6</trackindex>
											<clipindex>1</clipindex>
										</link>
										<link>
											<linkclipref>clipitem-314</linkclipref>
											<mediatype>audio</mediatype>
											<trackindex>7</trackindex>
											<clipindex>1</clipindex>
										</link>
										<link>
											<linkclipref>clipitem-315</linkclipref>
											<mediatype>audio</mediatype>
											<trackindex>8</trackindex>
											<clipindex>1</clipindex>
										</link>
									</clipitem>
								</track>
								<track>
									<clipitem id="clipitem-314">
										<masterclipid>masterclip-83</masterclipid>
										<name>12-01-5.WAV</name>
										<rate>
											<timebase>30</timebase>
											<ntsc>TRUE</ntsc>
										</rate>
										<file id="file-83"/>
										<sourcetrack>
											<mediatype>audio</mediatype>
											<trackindex>7</trackindex>
										</sourcetrack>
										<link>
											<linkclipref>clipitem-308</linkclipref>
											<mediatype>audio</mediatype>
											<trackindex>1</trackindex>
											<clipindex>1</clipindex>
										</link>
										<link>
											<linkclipref>clipitem-309</linkclipref>
											<mediatype>audio</mediatype>
											<trackindex>2</trackindex>
											<clipindex>1</clipindex>
										</link>
										<link>
											<linkclipref>clipitem-310</linkclipref>
											<mediatype>audio</mediatype>
											<trackindex>3</trackindex>
											<clipindex>1</clipindex>
										</link>
										<link>
											<linkclipref>clipitem-311</linkclipref>
											<mediatype>audio</mediatype>
											<trackindex>4</trackindex>
											<clipindex>1</clipindex>
										</link>
										<link>
											<linkclipref>clipitem-312</linkclipref>
											<mediatype>audio</mediatype>
											<trackindex>5</trackindex>
											<clipindex>1</clipindex>
										</link>
										<link>
											<linkclipref>clipitem-313</linkclipref>
											<mediatype>audio</mediatype>
											<trackindex>6</trackindex>
											<clipindex>1</clipindex>
										</link>
										<link>
											<linkclipref>clipitem-314</linkclipref>
											<mediatype>audio</mediatype>
											<trackindex>7</trackindex>
											<clipindex>1</clipindex>
										</link>
										<link>
											<linkclipref>clipitem-315</linkclipref>
											<mediatype>audio</mediatype>
											<trackindex>8</trackindex>
											<clipindex>1</clipindex>
										</link>
									</clipitem>
								</track>
								<track>
									<clipitem id="clipitem-315">
										<masterclipid>masterclip-83</masterclipid>
										<name>12-01-5.WAV</name>
										<rate>
											<timebase>30</timebase>
											<ntsc>TRUE</ntsc>
										</rate>
										<file id="file-83"/>
										<sourcetrack>
											<mediatype>audio</mediatype>
											<trackindex>8</trackindex>
										</sourcetrack>
										<link>
											<linkclipref>clipitem-308</linkclipref>
											<mediatype>audio</mediatype>
											<trackindex>1</trackindex>
											<clipindex>1</clipindex>
										</link>
										<link>
											<linkclipref>clipitem-309</linkclipref>
											<mediatype>audio</mediatype>
											<trackindex>2</trackindex>
											<clipindex>1</clipindex>
										</link>
										<link>
											<linkclipref>clipitem-310</linkclipref>
											<mediatype>audio</mediatype>
											<trackindex>3</trackindex>
											<clipindex>1</clipindex>
										</link>
										<link>
											<linkclipref>clipitem-311</linkclipref>
											<mediatype>audio</mediatype>
											<trackindex>4</trackindex>
											<clipindex>1</clipindex>
										</link>
										<link>
											<linkclipref>clipitem-312</linkclipref>
											<mediatype>audio</mediatype>
											<trackindex>5</trackindex>
											<clipindex>1</clipindex>
										</link>
										<link>
											<linkclipref>clipitem-313</linkclipref>
											<mediatype>audio</mediatype>
											<trackindex>6</trackindex>
											<clipindex>1</clipindex>
										</link>
										<link>
											<linkclipref>clipitem-314</linkclipref>
											<mediatype>audio</mediatype>
											<trackindex>7</trackindex>
											<clipindex>1</clipindex>
										</link>
										<link>
											<linkclipref>clipitem-315</linkclipref>
											<mediatype>audio</mediatype>
											<trackindex>8</trackindex>
											<clipindex>1</clipindex>
										</link>
									</clipitem>
								</track>
							</audio>
						</media>
						<logginginfo>
							<description></description>
							<scene>12-01</scene>
							<shottake></shottake>
							<lognote></lognote>
							<good></good>
							<originalvideofilename></originalvideofilename>
							<originalaudiofilename></originalaudiofilename>
						</logginginfo>
						<colorinfo>
							<lut></lut>
							<lut1></lut1>
							<asc_sop></asc_sop>
							<asc_sat></asc_sat>
							<lut2></lut2>
						</colorinfo>
						<labels>
							<label2>Mango</label2>
						</labels>
					</clip>
					<clip id="masterclip-84" explodedTracks="true">
						<uuid>b5922d92-1ae5-4bad-808c-0d17260a33b5</uuid>
						<masterclipid>masterclip-84</masterclipid>
						<ismasterclip>TRUE</ismasterclip>
						<duration>3476</duration>
						<rate>
							<timebase>30</timebase>
							<ntsc>TRUE</ntsc>
						</rate>
						<name>12-02-1.WAV</name>
						<media>
							<audio>
								<track>
									<clipitem id="clipitem-316">
										<masterclipid>masterclip-84</masterclipid>
										<name>12-02-1.WAV</name>
										<rate>
											<timebase>30</timebase>
											<ntsc>TRUE</ntsc>
										</rate>
										<file id="file-84">
											<name>12-02-1.WAV</name>
											<pathurl>file://localhost/S%3a/Projects/PRODIGAL_SON/AUDIO/190511_D01/12-02-1.WAV</pathurl>
											<rate>
												<timebase>30</timebase>
												<ntsc>TRUE</ntsc>
											</rate>
											<duration>3476</duration>
											<timecode>
												<rate>
													<timebase>30</timebase>
													<ntsc>TRUE</ntsc>
												</rate>
												<string>14;13;41;00</string>
												<frame>1535094</frame>
												<displayformat>DF</displayformat>
												<reel>
													<name>190511</name>
												</reel>
											</timecode>
											<media>
												<audio>
													<samplecharacteristics>
														<depth>16</depth>
														<samplerate>48000</samplerate>
													</samplecharacteristics>
													<channelcount>1</channelcount>
													<audiochannel>
														<sourcechannel>1</sourcechannel>
													</audiochannel>
												</audio>
												<audio>
													<samplecharacteristics>
														<depth>16</depth>
														<samplerate>48000</samplerate>
													</samplecharacteristics>
													<channelcount>1</channelcount>
													<audiochannel>
														<sourcechannel>2</sourcechannel>
													</audiochannel>
												</audio>
												<audio>
													<samplecharacteristics>
														<depth>16</depth>
														<samplerate>48000</samplerate>
													</samplecharacteristics>
													<channelcount>1</channelcount>
													<audiochannel>
														<sourcechannel>3</sourcechannel>
													</audiochannel>
												</audio>
												<audio>
													<samplecharacteristics>
														<depth>16</depth>
														<samplerate>48000</samplerate>
													</samplecharacteristics>
													<channelcount>1</channelcount>
													<audiochannel>
														<sourcechannel>4</sourcechannel>
													</audiochannel>
												</audio>
												<audio>
													<samplecharacteristics>
														<depth>16</depth>
														<samplerate>48000</samplerate>
													</samplecharacteristics>
													<channelcount>1</channelcount>
													<audiochannel>
														<sourcechannel>5</sourcechannel>
													</audiochannel>
												</audio>
												<audio>
													<samplecharacteristics>
														<depth>16</depth>
														<samplerate>48000</samplerate>
													</samplecharacteristics>
													<channelcount>1</channelcount>
													<audiochannel>
														<sourcechannel>6</sourcechannel>
													</audiochannel>
												</audio>
											</media>
										</file>
										<sourcetrack>
											<mediatype>audio</mediatype>
											<trackindex>1</trackindex>
										</sourcetrack>
										<link>
											<linkclipref>clipitem-316</linkclipref>
											<mediatype>audio</mediatype>
											<trackindex>1</trackindex>
											<clipindex>1</clipindex>
										</link>
										<link>
											<linkclipref>clipitem-317</linkclipref>
											<mediatype>audio</mediatype>
											<trackindex>2</trackindex>
											<clipindex>1</clipindex>
										</link>
										<link>
											<linkclipref>clipitem-318</linkclipref>
											<mediatype>audio</mediatype>
											<trackindex>3</trackindex>
											<clipindex>1</clipindex>
										</link>
										<link>
											<linkclipref>clipitem-319</linkclipref>
											<mediatype>audio</mediatype>
											<trackindex>4</trackindex>
											<clipindex>1</clipindex>
										</link>
										<link>
											<linkclipref>clipitem-320</linkclipref>
											<mediatype>audio</mediatype>
											<trackindex>5</trackindex>
											<clipindex>1</clipindex>
										</link>
										<link>
											<linkclipref>clipitem-321</linkclipref>
											<mediatype>audio</mediatype>
											<trackindex>6</trackindex>
											<clipindex>1</clipindex>
										</link>
									</clipitem>
								</track>
								<track>
									<clipitem id="clipitem-317">
										<masterclipid>masterclip-84</masterclipid>
										<name>12-02-1.WAV</name>
										<rate>
											<timebase>30</timebase>
											<ntsc>TRUE</ntsc>
										</rate>
										<file id="file-84"/>
										<sourcetrack>
											<mediatype>audio</mediatype>
											<trackindex>2</trackindex>
										</sourcetrack>
										<link>
											<linkclipref>clipitem-316</linkclipref>
											<mediatype>audio</mediatype>
											<trackindex>1</trackindex>
											<clipindex>1</clipindex>
										</link>
										<link>
											<linkclipref>clipitem-317</linkclipref>
											<mediatype>audio</mediatype>
											<trackindex>2</trackindex>
											<clipindex>1</clipindex>
										</link>
										<link>
											<linkclipref>clipitem-318</linkclipref>
											<mediatype>audio</mediatype>
											<trackindex>3</trackindex>
											<clipindex>1</clipindex>
										</link>
										<link>
											<linkclipref>clipitem-319</linkclipref>
											<mediatype>audio</mediatype>
											<trackindex>4</trackindex>
											<clipindex>1</clipindex>
										</link>
										<link>
											<linkclipref>clipitem-320</linkclipref>
											<mediatype>audio</mediatype>
											<trackindex>5</trackindex>
											<clipindex>1</clipindex>
										</link>
										<link>
											<linkclipref>clipitem-321</linkclipref>
											<mediatype>audio</mediatype>
											<trackindex>6</trackindex>
											<clipindex>1</clipindex>
										</link>
									</clipitem>
								</track>
								<track>
									<clipitem id="clipitem-318">
										<masterclipid>masterclip-84</masterclipid>
										<name>12-02-1.WAV</name>
										<rate>
											<timebase>30</timebase>
											<ntsc>TRUE</ntsc>
										</rate>
										<file id="file-84"/>
										<sourcetrack>
											<mediatype>audio</mediatype>
											<trackindex>3</trackindex>
										</sourcetrack>
										<link>
											<linkclipref>clipitem-316</linkclipref>
											<mediatype>audio</mediatype>
											<trackindex>1</trackindex>
											<clipindex>1</clipindex>
										</link>
										<link>
											<linkclipref>clipitem-317</linkclipref>
											<mediatype>audio</mediatype>
											<trackindex>2</trackindex>
											<clipindex>1</clipindex>
										</link>
										<link>
											<linkclipref>clipitem-318</linkclipref>
											<mediatype>audio</mediatype>
											<trackindex>3</trackindex>
											<clipindex>1</clipindex>
										</link>
										<link>
											<linkclipref>clipitem-319</linkclipref>
											<mediatype>audio</mediatype>
											<trackindex>4</trackindex>
											<clipindex>1</clipindex>
										</link>
										<link>
											<linkclipref>clipitem-320</linkclipref>
											<mediatype>audio</mediatype>
											<trackindex>5</trackindex>
											<clipindex>1</clipindex>
										</link>
										<link>
											<linkclipref>clipitem-321</linkclipref>
											<mediatype>audio</mediatype>
											<trackindex>6</trackindex>
											<clipindex>1</clipindex>
										</link>
									</clipitem>
								</track>
								<track>
									<clipitem id="clipitem-319">
										<masterclipid>masterclip-84</masterclipid>
										<name>12-02-1.WAV</name>
										<rate>
											<timebase>30</timebase>
											<ntsc>TRUE</ntsc>
										</rate>
										<file id="file-84"/>
										<sourcetrack>
											<mediatype>audio</mediatype>
											<trackindex>4</trackindex>
										</sourcetrack>
										<link>
											<linkclipref>clipitem-316</linkclipref>
											<mediatype>audio</mediatype>
											<trackindex>1</trackindex>
											<clipindex>1</clipindex>
										</link>
										<link>
											<linkclipref>clipitem-317</linkclipref>
											<mediatype>audio</mediatype>
											<trackindex>2</trackindex>
											<clipindex>1</clipindex>
										</link>
										<link>
											<linkclipref>clipitem-318</linkclipref>
											<mediatype>audio</mediatype>
											<trackindex>3</trackindex>
											<clipindex>1</clipindex>
										</link>
										<link>
											<linkclipref>clipitem-319</linkclipref>
											<mediatype>audio</mediatype>
											<trackindex>4</trackindex>
											<clipindex>1</clipindex>
										</link>
										<link>
											<linkclipref>clipitem-320</linkclipref>
											<mediatype>audio</mediatype>
											<trackindex>5</trackindex>
											<clipindex>1</clipindex>
										</link>
										<link>
											<linkclipref>clipitem-321</linkclipref>
											<mediatype>audio</mediatype>
											<trackindex>6</trackindex>
											<clipindex>1</clipindex>
										</link>
									</clipitem>
								</track>
								<track>
									<clipitem id="clipitem-320">
										<masterclipid>masterclip-84</masterclipid>
										<name>12-02-1.WAV</name>
										<rate>
											<timebase>30</timebase>
											<ntsc>TRUE</ntsc>
										</rate>
										<file id="file-84"/>
										<sourcetrack>
											<mediatype>audio</mediatype>
											<trackindex>5</trackindex>
										</sourcetrack>
										<link>
											<linkclipref>clipitem-316</linkclipref>
											<mediatype>audio</mediatype>
											<trackindex>1</trackindex>
											<clipindex>1</clipindex>
										</link>
										<link>
											<linkclipref>clipitem-317</linkclipref>
											<mediatype>audio</mediatype>
											<trackindex>2</trackindex>
											<clipindex>1</clipindex>
										</link>
										<link>
											<linkclipref>clipitem-318</linkclipref>
											<mediatype>audio</mediatype>
											<trackindex>3</trackindex>
											<clipindex>1</clipindex>
										</link>
										<link>
											<linkclipref>clipitem-319</linkclipref>
											<mediatype>audio</mediatype>
											<trackindex>4</trackindex>
											<clipindex>1</clipindex>
										</link>
										<link>
											<linkclipref>clipitem-320</linkclipref>
											<mediatype>audio</mediatype>
											<trackindex>5</trackindex>
											<clipindex>1</clipindex>
										</link>
										<link>
											<linkclipref>clipitem-321</linkclipref>
											<mediatype>audio</mediatype>
											<trackindex>6</trackindex>
											<clipindex>1</clipindex>
										</link>
									</clipitem>
								</track>
								<track>
									<clipitem id="clipitem-321">
										<masterclipid>masterclip-84</masterclipid>
										<name>12-02-1.WAV</name>
										<rate>
											<timebase>30</timebase>
											<ntsc>TRUE</ntsc>
										</rate>
										<file id="file-84"/>
										<sourcetrack>
											<mediatype>audio</mediatype>
											<trackindex>6</trackindex>
										</sourcetrack>
										<link>
											<linkclipref>clipitem-316</linkclipref>
											<mediatype>audio</mediatype>
											<trackindex>1</trackindex>
											<clipindex>1</clipindex>
										</link>
										<link>
											<linkclipref>clipitem-317</linkclipref>
											<mediatype>audio</mediatype>
											<trackindex>2</trackindex>
											<clipindex>1</clipindex>
										</link>
										<link>
											<linkclipref>clipitem-318</linkclipref>
											<mediatype>audio</mediatype>
											<trackindex>3</trackindex>
											<clipindex>1</clipindex>
										</link>
										<link>
											<linkclipref>clipitem-319</linkclipref>
											<mediatype>audio</mediatype>
											<trackindex>4</trackindex>
											<clipindex>1</clipindex>
										</link>
										<link>
											<linkclipref>clipitem-320</linkclipref>
											<mediatype>audio</mediatype>
											<trackindex>5</trackindex>
											<clipindex>1</clipindex>
										</link>
										<link>
											<linkclipref>clipitem-321</linkclipref>
											<mediatype>audio</mediatype>
											<trackindex>6</trackindex>
											<clipindex>1</clipindex>
										</link>
									</clipitem>
								</track>
							</audio>
						</media>
						<logginginfo>
							<description></description>
							<scene>12-02</scene>
							<shottake></shottake>
							<lognote></lognote>
							<good></good>
							<originalvideofilename></originalvideofilename>
							<originalaudiofilename></originalaudiofilename>
						</logginginfo>
						<colorinfo>
							<lut></lut>
							<lut1></lut1>
							<asc_sop></asc_sop>
							<asc_sat></asc_sat>
							<lut2></lut2>
						</colorinfo>
						<labels>
							<label2>Mango</label2>
						</labels>
					</clip>
					<clip id="masterclip-85" explodedTracks="true">
						<uuid>26628964-3caf-45cd-b932-37c471789478</uuid>
						<masterclipid>masterclip-85</masterclipid>
						<ismasterclip>TRUE</ismasterclip>
						<duration>2517</duration>
						<rate>
							<timebase>30</timebase>
							<ntsc>TRUE</ntsc>
						</rate>
						<name>12-02-2.WAV</name>
						<media>
							<audio>
								<track>
									<clipitem id="clipitem-322">
										<masterclipid>masterclip-85</masterclipid>
										<name>12-02-2.WAV</name>
										<rate>
											<timebase>30</timebase>
											<ntsc>TRUE</ntsc>
										</rate>
										<file id="file-85">
											<name>12-02-2.WAV</name>
											<pathurl>file://localhost/S%3a/Projects/PRODIGAL_SON/AUDIO/190511_D01/12-02-2.WAV</pathurl>
											<rate>
												<timebase>30</timebase>
												<ntsc>TRUE</ntsc>
											</rate>
											<duration>2517</duration>
											<timecode>
												<rate>
													<timebase>30</timebase>
													<ntsc>TRUE</ntsc>
												</rate>
												<string>14;16;09;02</string>
												<frame>1539530</frame>
												<displayformat>DF</displayformat>
												<reel>
													<name>190511</name>
												</reel>
											</timecode>
											<media>
												<audio>
													<samplecharacteristics>
														<depth>16</depth>
														<samplerate>48000</samplerate>
													</samplecharacteristics>
													<channelcount>1</channelcount>
													<audiochannel>
														<sourcechannel>1</sourcechannel>
													</audiochannel>
												</audio>
												<audio>
													<samplecharacteristics>
														<depth>16</depth>
														<samplerate>48000</samplerate>
													</samplecharacteristics>
													<channelcount>1</channelcount>
													<audiochannel>
														<sourcechannel>2</sourcechannel>
													</audiochannel>
												</audio>
												<audio>
													<samplecharacteristics>
														<depth>16</depth>
														<samplerate>48000</samplerate>
													</samplecharacteristics>
													<channelcount>1</channelcount>
													<audiochannel>
														<sourcechannel>3</sourcechannel>
													</audiochannel>
												</audio>
												<audio>
													<samplecharacteristics>
														<depth>16</depth>
														<samplerate>48000</samplerate>
													</samplecharacteristics>
													<channelcount>1</channelcount>
													<audiochannel>
														<sourcechannel>4</sourcechannel>
													</audiochannel>
												</audio>
												<audio>
													<samplecharacteristics>
														<depth>16</depth>
														<samplerate>48000</samplerate>
													</samplecharacteristics>
													<channelcount>1</channelcount>
													<audiochannel>
														<sourcechannel>5</sourcechannel>
													</audiochannel>
												</audio>
												<audio>
													<samplecharacteristics>
														<depth>16</depth>
														<samplerate>48000</samplerate>
													</samplecharacteristics>
													<channelcount>1</channelcount>
													<audiochannel>
														<sourcechannel>6</sourcechannel>
													</audiochannel>
												</audio>
											</media>
										</file>
										<sourcetrack>
											<mediatype>audio</mediatype>
											<trackindex>1</trackindex>
										</sourcetrack>
										<link>
											<linkclipref>clipitem-322</linkclipref>
											<mediatype>audio</mediatype>
											<trackindex>1</trackindex>
											<clipindex>1</clipindex>
										</link>
										<link>
											<linkclipref>clipitem-323</linkclipref>
											<mediatype>audio</mediatype>
											<trackindex>2</trackindex>
											<clipindex>1</clipindex>
										</link>
										<link>
											<linkclipref>clipitem-324</linkclipref>
											<mediatype>audio</mediatype>
											<trackindex>3</trackindex>
											<clipindex>1</clipindex>
										</link>
										<link>
											<linkclipref>clipitem-325</linkclipref>
											<mediatype>audio</mediatype>
											<trackindex>4</trackindex>
											<clipindex>1</clipindex>
										</link>
										<link>
											<linkclipref>clipitem-326</linkclipref>
											<mediatype>audio</mediatype>
											<trackindex>5</trackindex>
											<clipindex>1</clipindex>
										</link>
										<link>
											<linkclipref>clipitem-327</linkclipref>
											<mediatype>audio</mediatype>
											<trackindex>6</trackindex>
											<clipindex>1</clipindex>
										</link>
									</clipitem>
								</track>
								<track>
									<clipitem id="clipitem-323">
										<masterclipid>masterclip-85</masterclipid>
										<name>12-02-2.WAV</name>
										<rate>
											<timebase>30</timebase>
											<ntsc>TRUE</ntsc>
										</rate>
										<file id="file-85"/>
										<sourcetrack>
											<mediatype>audio</mediatype>
											<trackindex>2</trackindex>
										</sourcetrack>
										<link>
											<linkclipref>clipitem-322</linkclipref>
											<mediatype>audio</mediatype>
											<trackindex>1</trackindex>
											<clipindex>1</clipindex>
										</link>
										<link>
											<linkclipref>clipitem-323</linkclipref>
											<mediatype>audio</mediatype>
											<trackindex>2</trackindex>
											<clipindex>1</clipindex>
										</link>
										<link>
											<linkclipref>clipitem-324</linkclipref>
											<mediatype>audio</mediatype>
											<trackindex>3</trackindex>
											<clipindex>1</clipindex>
										</link>
										<link>
											<linkclipref>clipitem-325</linkclipref>
											<mediatype>audio</mediatype>
											<trackindex>4</trackindex>
											<clipindex>1</clipindex>
										</link>
										<link>
											<linkclipref>clipitem-326</linkclipref>
											<mediatype>audio</mediatype>
											<trackindex>5</trackindex>
											<clipindex>1</clipindex>
										</link>
										<link>
											<linkclipref>clipitem-327</linkclipref>
											<mediatype>audio</mediatype>
											<trackindex>6</trackindex>
											<clipindex>1</clipindex>
										</link>
									</clipitem>
								</track>
								<track>
									<clipitem id="clipitem-324">
										<masterclipid>masterclip-85</masterclipid>
										<name>12-02-2.WAV</name>
										<rate>
											<timebase>30</timebase>
											<ntsc>TRUE</ntsc>
										</rate>
										<file id="file-85"/>
										<sourcetrack>
											<mediatype>audio</mediatype>
											<trackindex>3</trackindex>
										</sourcetrack>
										<link>
											<linkclipref>clipitem-322</linkclipref>
											<mediatype>audio</mediatype>
											<trackindex>1</trackindex>
											<clipindex>1</clipindex>
										</link>
										<link>
											<linkclipref>clipitem-323</linkclipref>
											<mediatype>audio</mediatype>
											<trackindex>2</trackindex>
											<clipindex>1</clipindex>
										</link>
										<link>
											<linkclipref>clipitem-324</linkclipref>
											<mediatype>audio</mediatype>
											<trackindex>3</trackindex>
											<clipindex>1</clipindex>
										</link>
										<link>
											<linkclipref>clipitem-325</linkclipref>
											<mediatype>audio</mediatype>
											<trackindex>4</trackindex>
											<clipindex>1</clipindex>
										</link>
										<link>
											<linkclipref>clipitem-326</linkclipref>
											<mediatype>audio</mediatype>
											<trackindex>5</trackindex>
											<clipindex>1</clipindex>
										</link>
										<link>
											<linkclipref>clipitem-327</linkclipref>
											<mediatype>audio</mediatype>
											<trackindex>6</trackindex>
											<clipindex>1</clipindex>
										</link>
									</clipitem>
								</track>
								<track>
									<clipitem id="clipitem-325">
										<masterclipid>masterclip-85</masterclipid>
										<name>12-02-2.WAV</name>
										<rate>
											<timebase>30</timebase>
											<ntsc>TRUE</ntsc>
										</rate>
										<file id="file-85"/>
										<sourcetrack>
											<mediatype>audio</mediatype>
											<trackindex>4</trackindex>
										</sourcetrack>
										<link>
											<linkclipref>clipitem-322</linkclipref>
											<mediatype>audio</mediatype>
											<trackindex>1</trackindex>
											<clipindex>1</clipindex>
										</link>
										<link>
											<linkclipref>clipitem-323</linkclipref>
											<mediatype>audio</mediatype>
											<trackindex>2</trackindex>
											<clipindex>1</clipindex>
										</link>
										<link>
											<linkclipref>clipitem-324</linkclipref>
											<mediatype>audio</mediatype>
											<trackindex>3</trackindex>
											<clipindex>1</clipindex>
										</link>
										<link>
											<linkclipref>clipitem-325</linkclipref>
											<mediatype>audio</mediatype>
											<trackindex>4</trackindex>
											<clipindex>1</clipindex>
										</link>
										<link>
											<linkclipref>clipitem-326</linkclipref>
											<mediatype>audio</mediatype>
											<trackindex>5</trackindex>
											<clipindex>1</clipindex>
										</link>
										<link>
											<linkclipref>clipitem-327</linkclipref>
											<mediatype>audio</mediatype>
											<trackindex>6</trackindex>
											<clipindex>1</clipindex>
										</link>
									</clipitem>
								</track>
								<track>
									<clipitem id="clipitem-326">
										<masterclipid>masterclip-85</masterclipid>
										<name>12-02-2.WAV</name>
										<rate>
											<timebase>30</timebase>
											<ntsc>TRUE</ntsc>
										</rate>
										<file id="file-85"/>
										<sourcetrack>
											<mediatype>audio</mediatype>
											<trackindex>5</trackindex>
										</sourcetrack>
										<link>
											<linkclipref>clipitem-322</linkclipref>
											<mediatype>audio</mediatype>
											<trackindex>1</trackindex>
											<clipindex>1</clipindex>
										</link>
										<link>
											<linkclipref>clipitem-323</linkclipref>
											<mediatype>audio</mediatype>
											<trackindex>2</trackindex>
											<clipindex>1</clipindex>
										</link>
										<link>
											<linkclipref>clipitem-324</linkclipref>
											<mediatype>audio</mediatype>
											<trackindex>3</trackindex>
											<clipindex>1</clipindex>
										</link>
										<link>
											<linkclipref>clipitem-325</linkclipref>
											<mediatype>audio</mediatype>
											<trackindex>4</trackindex>
											<clipindex>1</clipindex>
										</link>
										<link>
											<linkclipref>clipitem-326</linkclipref>
											<mediatype>audio</mediatype>
											<trackindex>5</trackindex>
											<clipindex>1</clipindex>
										</link>
										<link>
											<linkclipref>clipitem-327</linkclipref>
											<mediatype>audio</mediatype>
											<trackindex>6</trackindex>
											<clipindex>1</clipindex>
										</link>
									</clipitem>
								</track>
								<track>
									<clipitem id="clipitem-327">
										<masterclipid>masterclip-85</masterclipid>
										<name>12-02-2.WAV</name>
										<rate>
											<timebase>30</timebase>
											<ntsc>TRUE</ntsc>
										</rate>
										<file id="file-85"/>
										<sourcetrack>
											<mediatype>audio</mediatype>
											<trackindex>6</trackindex>
										</sourcetrack>
										<link>
											<linkclipref>clipitem-322</linkclipref>
											<mediatype>audio</mediatype>
											<trackindex>1</trackindex>
											<clipindex>1</clipindex>
										</link>
										<link>
											<linkclipref>clipitem-323</linkclipref>
											<mediatype>audio</mediatype>
											<trackindex>2</trackindex>
											<clipindex>1</clipindex>
										</link>
										<link>
											<linkclipref>clipitem-324</linkclipref>
											<mediatype>audio</mediatype>
											<trackindex>3</trackindex>
											<clipindex>1</clipindex>
										</link>
										<link>
											<linkclipref>clipitem-325</linkclipref>
											<mediatype>audio</mediatype>
											<trackindex>4</trackindex>
											<clipindex>1</clipindex>
										</link>
										<link>
											<linkclipref>clipitem-326</linkclipref>
											<mediatype>audio</mediatype>
											<trackindex>5</trackindex>
											<clipindex>1</clipindex>
										</link>
										<link>
											<linkclipref>clipitem-327</linkclipref>
											<mediatype>audio</mediatype>
											<trackindex>6</trackindex>
											<clipindex>1</clipindex>
										</link>
									</clipitem>
								</track>
							</audio>
						</media>
						<logginginfo>
							<description></description>
							<scene>12-02</scene>
							<shottake></shottake>
							<lognote></lognote>
							<good></good>
							<originalvideofilename></originalvideofilename>
							<originalaudiofilename></originalaudiofilename>
						</logginginfo>
						<colorinfo>
							<lut></lut>
							<lut1></lut1>
							<asc_sop></asc_sop>
							<asc_sat></asc_sat>
							<lut2></lut2>
						</colorinfo>
						<labels>
							<label2>Mango</label2>
						</labels>
					</clip>
					<clip id="masterclip-86" explodedTracks="true">
						<uuid>b90b5875-aed5-4295-b087-0dc35ece94e1</uuid>
						<masterclipid>masterclip-86</masterclipid>
						<ismasterclip>TRUE</ismasterclip>
						<duration>4285</duration>
						<rate>
							<timebase>30</timebase>
							<ntsc>TRUE</ntsc>
						</rate>
						<name>15-01-1.WAV</name>
						<media>
							<audio>
								<track>
									<clipitem id="clipitem-328">
										<masterclipid>masterclip-86</masterclipid>
										<name>15-01-1.WAV</name>
										<rate>
											<timebase>30</timebase>
											<ntsc>TRUE</ntsc>
										</rate>
										<file id="file-86">
											<name>15-01-1.WAV</name>
											<pathurl>file://localhost/S%3a/Projects/PRODIGAL_SON/AUDIO/190511_D01/15-01-1.WAV</pathurl>
											<rate>
												<timebase>30</timebase>
												<ntsc>TRUE</ntsc>
											</rate>
											<duration>4285</duration>
											<timecode>
												<rate>
													<timebase>30</timebase>
													<ntsc>TRUE</ntsc>
												</rate>
												<string>18;40;28;01</string>
												<frame>2014825</frame>
												<displayformat>DF</displayformat>
												<reel>
													<name>190511</name>
												</reel>
											</timecode>
											<media>
												<audio>
													<samplecharacteristics>
														<depth>16</depth>
														<samplerate>48000</samplerate>
													</samplecharacteristics>
													<channelcount>1</channelcount>
													<audiochannel>
														<sourcechannel>1</sourcechannel>
													</audiochannel>
												</audio>
												<audio>
													<samplecharacteristics>
														<depth>16</depth>
														<samplerate>48000</samplerate>
													</samplecharacteristics>
													<channelcount>1</channelcount>
													<audiochannel>
														<sourcechannel>2</sourcechannel>
													</audiochannel>
												</audio>
												<audio>
													<samplecharacteristics>
														<depth>16</depth>
														<samplerate>48000</samplerate>
													</samplecharacteristics>
													<channelcount>1</channelcount>
													<audiochannel>
														<sourcechannel>3</sourcechannel>
													</audiochannel>
												</audio>
												<audio>
													<samplecharacteristics>
														<depth>16</depth>
														<samplerate>48000</samplerate>
													</samplecharacteristics>
													<channelcount>1</channelcount>
													<audiochannel>
														<sourcechannel>4</sourcechannel>
													</audiochannel>
												</audio>
												<audio>
													<samplecharacteristics>
														<depth>16</depth>
														<samplerate>48000</samplerate>
													</samplecharacteristics>
													<channelcount>1</channelcount>
													<audiochannel>
														<sourcechannel>5</sourcechannel>
													</audiochannel>
												</audio>
												<audio>
													<samplecharacteristics>
														<depth>16</depth>
														<samplerate>48000</samplerate>
													</samplecharacteristics>
													<channelcount>1</channelcount>
													<audiochannel>
														<sourcechannel>6</sourcechannel>
													</audiochannel>
												</audio>
												<audio>
													<samplecharacteristics>
														<depth>16</depth>
														<samplerate>48000</samplerate>
													</samplecharacteristics>
													<channelcount>1</channelcount>
													<audiochannel>
														<sourcechannel>7</sourcechannel>
													</audiochannel>
												</audio>
												<audio>
													<samplecharacteristics>
														<depth>16</depth>
														<samplerate>48000</samplerate>
													</samplecharacteristics>
													<channelcount>1</channelcount>
													<audiochannel>
														<sourcechannel>8</sourcechannel>
													</audiochannel>
												</audio>
											</media>
										</file>
										<sourcetrack>
											<mediatype>audio</mediatype>
											<trackindex>1</trackindex>
										</sourcetrack>
										<link>
											<linkclipref>clipitem-328</linkclipref>
											<mediatype>audio</mediatype>
											<trackindex>1</trackindex>
											<clipindex>1</clipindex>
										</link>
										<link>
											<linkclipref>clipitem-329</linkclipref>
											<mediatype>audio</mediatype>
											<trackindex>2</trackindex>
											<clipindex>1</clipindex>
										</link>
										<link>
											<linkclipref>clipitem-330</linkclipref>
											<mediatype>audio</mediatype>
											<trackindex>3</trackindex>
											<clipindex>1</clipindex>
										</link>
										<link>
											<linkclipref>clipitem-331</linkclipref>
											<mediatype>audio</mediatype>
											<trackindex>4</trackindex>
											<clipindex>1</clipindex>
										</link>
										<link>
											<linkclipref>clipitem-332</linkclipref>
											<mediatype>audio</mediatype>
											<trackindex>5</trackindex>
											<clipindex>1</clipindex>
										</link>
										<link>
											<linkclipref>clipitem-333</linkclipref>
											<mediatype>audio</mediatype>
											<trackindex>6</trackindex>
											<clipindex>1</clipindex>
										</link>
										<link>
											<linkclipref>clipitem-334</linkclipref>
											<mediatype>audio</mediatype>
											<trackindex>7</trackindex>
											<clipindex>1</clipindex>
										</link>
										<link>
											<linkclipref>clipitem-335</linkclipref>
											<mediatype>audio</mediatype>
											<trackindex>8</trackindex>
											<clipindex>1</clipindex>
										</link>
									</clipitem>
								</track>
								<track>
									<clipitem id="clipitem-329">
										<masterclipid>masterclip-86</masterclipid>
										<name>15-01-1.WAV</name>
										<rate>
											<timebase>30</timebase>
											<ntsc>TRUE</ntsc>
										</rate>
										<file id="file-86"/>
										<sourcetrack>
											<mediatype>audio</mediatype>
											<trackindex>2</trackindex>
										</sourcetrack>
										<link>
											<linkclipref>clipitem-328</linkclipref>
											<mediatype>audio</mediatype>
											<trackindex>1</trackindex>
											<clipindex>1</clipindex>
										</link>
										<link>
											<linkclipref>clipitem-329</linkclipref>
											<mediatype>audio</mediatype>
											<trackindex>2</trackindex>
											<clipindex>1</clipindex>
										</link>
										<link>
											<linkclipref>clipitem-330</linkclipref>
											<mediatype>audio</mediatype>
											<trackindex>3</trackindex>
											<clipindex>1</clipindex>
										</link>
										<link>
											<linkclipref>clipitem-331</linkclipref>
											<mediatype>audio</mediatype>
											<trackindex>4</trackindex>
											<clipindex>1</clipindex>
										</link>
										<link>
											<linkclipref>clipitem-332</linkclipref>
											<mediatype>audio</mediatype>
											<trackindex>5</trackindex>
											<clipindex>1</clipindex>
										</link>
										<link>
											<linkclipref>clipitem-333</linkclipref>
											<mediatype>audio</mediatype>
											<trackindex>6</trackindex>
											<clipindex>1</clipindex>
										</link>
										<link>
											<linkclipref>clipitem-334</linkclipref>
											<mediatype>audio</mediatype>
											<trackindex>7</trackindex>
											<clipindex>1</clipindex>
										</link>
										<link>
											<linkclipref>clipitem-335</linkclipref>
											<mediatype>audio</mediatype>
											<trackindex>8</trackindex>
											<clipindex>1</clipindex>
										</link>
									</clipitem>
								</track>
								<track>
									<clipitem id="clipitem-330">
										<masterclipid>masterclip-86</masterclipid>
										<name>15-01-1.WAV</name>
										<rate>
											<timebase>30</timebase>
											<ntsc>TRUE</ntsc>
										</rate>
										<file id="file-86"/>
										<sourcetrack>
											<mediatype>audio</mediatype>
											<trackindex>3</trackindex>
										</sourcetrack>
										<link>
											<linkclipref>clipitem-328</linkclipref>
											<mediatype>audio</mediatype>
											<trackindex>1</trackindex>
											<clipindex>1</clipindex>
										</link>
										<link>
											<linkclipref>clipitem-329</linkclipref>
											<mediatype>audio</mediatype>
											<trackindex>2</trackindex>
											<clipindex>1</clipindex>
										</link>
										<link>
											<linkclipref>clipitem-330</linkclipref>
											<mediatype>audio</mediatype>
											<trackindex>3</trackindex>
											<clipindex>1</clipindex>
										</link>
										<link>
											<linkclipref>clipitem-331</linkclipref>
											<mediatype>audio</mediatype>
											<trackindex>4</trackindex>
											<clipindex>1</clipindex>
										</link>
										<link>
											<linkclipref>clipitem-332</linkclipref>
											<mediatype>audio</mediatype>
											<trackindex>5</trackindex>
											<clipindex>1</clipindex>
										</link>
										<link>
											<linkclipref>clipitem-333</linkclipref>
											<mediatype>audio</mediatype>
											<trackindex>6</trackindex>
											<clipindex>1</clipindex>
										</link>
										<link>
											<linkclipref>clipitem-334</linkclipref>
											<mediatype>audio</mediatype>
											<trackindex>7</trackindex>
											<clipindex>1</clipindex>
										</link>
										<link>
											<linkclipref>clipitem-335</linkclipref>
											<mediatype>audio</mediatype>
											<trackindex>8</trackindex>
											<clipindex>1</clipindex>
										</link>
									</clipitem>
								</track>
								<track>
									<clipitem id="clipitem-331">
										<masterclipid>masterclip-86</masterclipid>
										<name>15-01-1.WAV</name>
										<rate>
											<timebase>30</timebase>
											<ntsc>TRUE</ntsc>
										</rate>
										<file id="file-86"/>
										<sourcetrack>
											<mediatype>audio</mediatype>
											<trackindex>4</trackindex>
										</sourcetrack>
										<link>
											<linkclipref>clipitem-328</linkclipref>
											<mediatype>audio</mediatype>
											<trackindex>1</trackindex>
											<clipindex>1</clipindex>
										</link>
										<link>
											<linkclipref>clipitem-329</linkclipref>
											<mediatype>audio</mediatype>
											<trackindex>2</trackindex>
											<clipindex>1</clipindex>
										</link>
										<link>
											<linkclipref>clipitem-330</linkclipref>
											<mediatype>audio</mediatype>
											<trackindex>3</trackindex>
											<clipindex>1</clipindex>
										</link>
										<link>
											<linkclipref>clipitem-331</linkclipref>
											<mediatype>audio</mediatype>
											<trackindex>4</trackindex>
											<clipindex>1</clipindex>
										</link>
										<link>
											<linkclipref>clipitem-332</linkclipref>
											<mediatype>audio</mediatype>
											<trackindex>5</trackindex>
											<clipindex>1</clipindex>
										</link>
										<link>
											<linkclipref>clipitem-333</linkclipref>
											<mediatype>audio</mediatype>
											<trackindex>6</trackindex>
											<clipindex>1</clipindex>
										</link>
										<link>
											<linkclipref>clipitem-334</linkclipref>
											<mediatype>audio</mediatype>
											<trackindex>7</trackindex>
											<clipindex>1</clipindex>
										</link>
										<link>
											<linkclipref>clipitem-335</linkclipref>
											<mediatype>audio</mediatype>
											<trackindex>8</trackindex>
											<clipindex>1</clipindex>
										</link>
									</clipitem>
								</track>
								<track>
									<clipitem id="clipitem-332">
										<masterclipid>masterclip-86</masterclipid>
										<name>15-01-1.WAV</name>
										<rate>
											<timebase>30</timebase>
											<ntsc>TRUE</ntsc>
										</rate>
										<file id="file-86"/>
										<sourcetrack>
											<mediatype>audio</mediatype>
											<trackindex>5</trackindex>
										</sourcetrack>
										<link>
											<linkclipref>clipitem-328</linkclipref>
											<mediatype>audio</mediatype>
											<trackindex>1</trackindex>
											<clipindex>1</clipindex>
										</link>
										<link>
											<linkclipref>clipitem-329</linkclipref>
											<mediatype>audio</mediatype>
											<trackindex>2</trackindex>
											<clipindex>1</clipindex>
										</link>
										<link>
											<linkclipref>clipitem-330</linkclipref>
											<mediatype>audio</mediatype>
											<trackindex>3</trackindex>
											<clipindex>1</clipindex>
										</link>
										<link>
											<linkclipref>clipitem-331</linkclipref>
											<mediatype>audio</mediatype>
											<trackindex>4</trackindex>
											<clipindex>1</clipindex>
										</link>
										<link>
											<linkclipref>clipitem-332</linkclipref>
											<mediatype>audio</mediatype>
											<trackindex>5</trackindex>
											<clipindex>1</clipindex>
										</link>
										<link>
											<linkclipref>clipitem-333</linkclipref>
											<mediatype>audio</mediatype>
											<trackindex>6</trackindex>
											<clipindex>1</clipindex>
										</link>
										<link>
											<linkclipref>clipitem-334</linkclipref>
											<mediatype>audio</mediatype>
											<trackindex>7</trackindex>
											<clipindex>1</clipindex>
										</link>
										<link>
											<linkclipref>clipitem-335</linkclipref>
											<mediatype>audio</mediatype>
											<trackindex>8</trackindex>
											<clipindex>1</clipindex>
										</link>
									</clipitem>
								</track>
								<track>
									<clipitem id="clipitem-333">
										<masterclipid>masterclip-86</masterclipid>
										<name>15-01-1.WAV</name>
										<rate>
											<timebase>30</timebase>
											<ntsc>TRUE</ntsc>
										</rate>
										<file id="file-86"/>
										<sourcetrack>
											<mediatype>audio</mediatype>
											<trackindex>6</trackindex>
										</sourcetrack>
										<link>
											<linkclipref>clipitem-328</linkclipref>
											<mediatype>audio</mediatype>
											<trackindex>1</trackindex>
											<clipindex>1</clipindex>
										</link>
										<link>
											<linkclipref>clipitem-329</linkclipref>
											<mediatype>audio</mediatype>
											<trackindex>2</trackindex>
											<clipindex>1</clipindex>
										</link>
										<link>
											<linkclipref>clipitem-330</linkclipref>
											<mediatype>audio</mediatype>
											<trackindex>3</trackindex>
											<clipindex>1</clipindex>
										</link>
										<link>
											<linkclipref>clipitem-331</linkclipref>
											<mediatype>audio</mediatype>
											<trackindex>4</trackindex>
											<clipindex>1</clipindex>
										</link>
										<link>
											<linkclipref>clipitem-332</linkclipref>
											<mediatype>audio</mediatype>
											<trackindex>5</trackindex>
											<clipindex>1</clipindex>
										</link>
										<link>
											<linkclipref>clipitem-333</linkclipref>
											<mediatype>audio</mediatype>
											<trackindex>6</trackindex>
											<clipindex>1</clipindex>
										</link>
										<link>
											<linkclipref>clipitem-334</linkclipref>
											<mediatype>audio</mediatype>
											<trackindex>7</trackindex>
											<clipindex>1</clipindex>
										</link>
										<link>
											<linkclipref>clipitem-335</linkclipref>
											<mediatype>audio</mediatype>
											<trackindex>8</trackindex>
											<clipindex>1</clipindex>
										</link>
									</clipitem>
								</track>
								<track>
									<clipitem id="clipitem-334">
										<masterclipid>masterclip-86</masterclipid>
										<name>15-01-1.WAV</name>
										<rate>
											<timebase>30</timebase>
											<ntsc>TRUE</ntsc>
										</rate>
										<file id="file-86"/>
										<sourcetrack>
											<mediatype>audio</mediatype>
											<trackindex>7</trackindex>
										</sourcetrack>
										<link>
											<linkclipref>clipitem-328</linkclipref>
											<mediatype>audio</mediatype>
											<trackindex>1</trackindex>
											<clipindex>1</clipindex>
										</link>
										<link>
											<linkclipref>clipitem-329</linkclipref>
											<mediatype>audio</mediatype>
											<trackindex>2</trackindex>
											<clipindex>1</clipindex>
										</link>
										<link>
											<linkclipref>clipitem-330</linkclipref>
											<mediatype>audio</mediatype>
											<trackindex>3</trackindex>
											<clipindex>1</clipindex>
										</link>
										<link>
											<linkclipref>clipitem-331</linkclipref>
											<mediatype>audio</mediatype>
											<trackindex>4</trackindex>
											<clipindex>1</clipindex>
										</link>
										<link>
											<linkclipref>clipitem-332</linkclipref>
											<mediatype>audio</mediatype>
											<trackindex>5</trackindex>
											<clipindex>1</clipindex>
										</link>
										<link>
											<linkclipref>clipitem-333</linkclipref>
											<mediatype>audio</mediatype>
											<trackindex>6</trackindex>
											<clipindex>1</clipindex>
										</link>
										<link>
											<linkclipref>clipitem-334</linkclipref>
											<mediatype>audio</mediatype>
											<trackindex>7</trackindex>
											<clipindex>1</clipindex>
										</link>
										<link>
											<linkclipref>clipitem-335</linkclipref>
											<mediatype>audio</mediatype>
											<trackindex>8</trackindex>
											<clipindex>1</clipindex>
										</link>
									</clipitem>
								</track>
								<track>
									<clipitem id="clipitem-335">
										<masterclipid>masterclip-86</masterclipid>
										<name>15-01-1.WAV</name>
										<rate>
											<timebase>30</timebase>
											<ntsc>TRUE</ntsc>
										</rate>
										<file id="file-86"/>
										<sourcetrack>
											<mediatype>audio</mediatype>
											<trackindex>8</trackindex>
										</sourcetrack>
										<link>
											<linkclipref>clipitem-328</linkclipref>
											<mediatype>audio</mediatype>
											<trackindex>1</trackindex>
											<clipindex>1</clipindex>
										</link>
										<link>
											<linkclipref>clipitem-329</linkclipref>
											<mediatype>audio</mediatype>
											<trackindex>2</trackindex>
											<clipindex>1</clipindex>
										</link>
										<link>
											<linkclipref>clipitem-330</linkclipref>
											<mediatype>audio</mediatype>
											<trackindex>3</trackindex>
											<clipindex>1</clipindex>
										</link>
										<link>
											<linkclipref>clipitem-331</linkclipref>
											<mediatype>audio</mediatype>
											<trackindex>4</trackindex>
											<clipindex>1</clipindex>
										</link>
										<link>
											<linkclipref>clipitem-332</linkclipref>
											<mediatype>audio</mediatype>
											<trackindex>5</trackindex>
											<clipindex>1</clipindex>
										</link>
										<link>
											<linkclipref>clipitem-333</linkclipref>
											<mediatype>audio</mediatype>
											<trackindex>6</trackindex>
											<clipindex>1</clipindex>
										</link>
										<link>
											<linkclipref>clipitem-334</linkclipref>
											<mediatype>audio</mediatype>
											<trackindex>7</trackindex>
											<clipindex>1</clipindex>
										</link>
										<link>
											<linkclipref>clipitem-335</linkclipref>
											<mediatype>audio</mediatype>
											<trackindex>8</trackindex>
											<clipindex>1</clipindex>
										</link>
									</clipitem>
								</track>
							</audio>
						</media>
						<logginginfo>
							<description></description>
							<scene>15-01</scene>
							<shottake></shottake>
							<lognote></lognote>
							<good></good>
							<originalvideofilename></originalvideofilename>
							<originalaudiofilename></originalaudiofilename>
						</logginginfo>
						<colorinfo>
							<lut></lut>
							<lut1></lut1>
							<asc_sop></asc_sop>
							<asc_sat></asc_sat>
							<lut2></lut2>
						</colorinfo>
						<labels>
							<label2>Mango</label2>
						</labels>
					</clip>
					<clip id="masterclip-87" explodedTracks="true">
						<uuid>b7f8cfba-0553-4dee-b421-c961bed850ef</uuid>
						<masterclipid>masterclip-87</masterclipid>
						<ismasterclip>TRUE</ismasterclip>
						<duration>4915</duration>
						<rate>
							<timebase>30</timebase>
							<ntsc>TRUE</ntsc>
						</rate>
						<name>15-01-2.WAV</name>
						<media>
							<audio>
								<track>
									<clipitem id="clipitem-336">
										<masterclipid>masterclip-87</masterclipid>
										<name>15-01-2.WAV</name>
										<rate>
											<timebase>30</timebase>
											<ntsc>TRUE</ntsc>
										</rate>
										<file id="file-87">
											<name>15-01-2.WAV</name>
											<pathurl>file://localhost/S%3a/Projects/PRODIGAL_SON/AUDIO/190511_D01/15-01-2.WAV</pathurl>
											<rate>
												<timebase>30</timebase>
												<ntsc>TRUE</ntsc>
											</rate>
											<duration>4915</duration>
											<timecode>
												<rate>
													<timebase>30</timebase>
													<ntsc>TRUE</ntsc>
												</rate>
												<string>18;44;58;01</string>
												<frame>2022917</frame>
												<displayformat>DF</displayformat>
												<reel>
													<name>190511</name>
												</reel>
											</timecode>
											<media>
												<audio>
													<samplecharacteristics>
														<depth>16</depth>
														<samplerate>48000</samplerate>
													</samplecharacteristics>
													<channelcount>1</channelcount>
													<audiochannel>
														<sourcechannel>1</sourcechannel>
													</audiochannel>
												</audio>
												<audio>
													<samplecharacteristics>
														<depth>16</depth>
														<samplerate>48000</samplerate>
													</samplecharacteristics>
													<channelcount>1</channelcount>
													<audiochannel>
														<sourcechannel>2</sourcechannel>
													</audiochannel>
												</audio>
												<audio>
													<samplecharacteristics>
														<depth>16</depth>
														<samplerate>48000</samplerate>
													</samplecharacteristics>
													<channelcount>1</channelcount>
													<audiochannel>
														<sourcechannel>3</sourcechannel>
													</audiochannel>
												</audio>
												<audio>
													<samplecharacteristics>
														<depth>16</depth>
														<samplerate>48000</samplerate>
													</samplecharacteristics>
													<channelcount>1</channelcount>
													<audiochannel>
														<sourcechannel>4</sourcechannel>
													</audiochannel>
												</audio>
												<audio>
													<samplecharacteristics>
														<depth>16</depth>
														<samplerate>48000</samplerate>
													</samplecharacteristics>
													<channelcount>1</channelcount>
													<audiochannel>
														<sourcechannel>5</sourcechannel>
													</audiochannel>
												</audio>
												<audio>
													<samplecharacteristics>
														<depth>16</depth>
														<samplerate>48000</samplerate>
													</samplecharacteristics>
													<channelcount>1</channelcount>
													<audiochannel>
														<sourcechannel>6</sourcechannel>
													</audiochannel>
												</audio>
												<audio>
													<samplecharacteristics>
														<depth>16</depth>
														<samplerate>48000</samplerate>
													</samplecharacteristics>
													<channelcount>1</channelcount>
													<audiochannel>
														<sourcechannel>7</sourcechannel>
													</audiochannel>
												</audio>
												<audio>
													<samplecharacteristics>
														<depth>16</depth>
														<samplerate>48000</samplerate>
													</samplecharacteristics>
													<channelcount>1</channelcount>
													<audiochannel>
														<sourcechannel>8</sourcechannel>
													</audiochannel>
												</audio>
											</media>
										</file>
										<sourcetrack>
											<mediatype>audio</mediatype>
											<trackindex>1</trackindex>
										</sourcetrack>
										<link>
											<linkclipref>clipitem-336</linkclipref>
											<mediatype>audio</mediatype>
											<trackindex>1</trackindex>
											<clipindex>1</clipindex>
										</link>
										<link>
											<linkclipref>clipitem-337</linkclipref>
											<mediatype>audio</mediatype>
											<trackindex>2</trackindex>
											<clipindex>1</clipindex>
										</link>
										<link>
											<linkclipref>clipitem-338</linkclipref>
											<mediatype>audio</mediatype>
											<trackindex>3</trackindex>
											<clipindex>1</clipindex>
										</link>
										<link>
											<linkclipref>clipitem-339</linkclipref>
											<mediatype>audio</mediatype>
											<trackindex>4</trackindex>
											<clipindex>1</clipindex>
										</link>
										<link>
											<linkclipref>clipitem-340</linkclipref>
											<mediatype>audio</mediatype>
											<trackindex>5</trackindex>
											<clipindex>1</clipindex>
										</link>
										<link>
											<linkclipref>clipitem-341</linkclipref>
											<mediatype>audio</mediatype>
											<trackindex>6</trackindex>
											<clipindex>1</clipindex>
										</link>
										<link>
											<linkclipref>clipitem-342</linkclipref>
											<mediatype>audio</mediatype>
											<trackindex>7</trackindex>
											<clipindex>1</clipindex>
										</link>
										<link>
											<linkclipref>clipitem-343</linkclipref>
											<mediatype>audio</mediatype>
											<trackindex>8</trackindex>
											<clipindex>1</clipindex>
										</link>
									</clipitem>
								</track>
								<track>
									<clipitem id="clipitem-337">
										<masterclipid>masterclip-87</masterclipid>
										<name>15-01-2.WAV</name>
										<rate>
											<timebase>30</timebase>
											<ntsc>TRUE</ntsc>
										</rate>
										<file id="file-87"/>
										<sourcetrack>
											<mediatype>audio</mediatype>
											<trackindex>2</trackindex>
										</sourcetrack>
										<link>
											<linkclipref>clipitem-336</linkclipref>
											<mediatype>audio</mediatype>
											<trackindex>1</trackindex>
											<clipindex>1</clipindex>
										</link>
										<link>
											<linkclipref>clipitem-337</linkclipref>
											<mediatype>audio</mediatype>
											<trackindex>2</trackindex>
											<clipindex>1</clipindex>
										</link>
										<link>
											<linkclipref>clipitem-338</linkclipref>
											<mediatype>audio</mediatype>
											<trackindex>3</trackindex>
											<clipindex>1</clipindex>
										</link>
										<link>
											<linkclipref>clipitem-339</linkclipref>
											<mediatype>audio</mediatype>
											<trackindex>4</trackindex>
											<clipindex>1</clipindex>
										</link>
										<link>
											<linkclipref>clipitem-340</linkclipref>
											<mediatype>audio</mediatype>
											<trackindex>5</trackindex>
											<clipindex>1</clipindex>
										</link>
										<link>
											<linkclipref>clipitem-341</linkclipref>
											<mediatype>audio</mediatype>
											<trackindex>6</trackindex>
											<clipindex>1</clipindex>
										</link>
										<link>
											<linkclipref>clipitem-342</linkclipref>
											<mediatype>audio</mediatype>
											<trackindex>7</trackindex>
											<clipindex>1</clipindex>
										</link>
										<link>
											<linkclipref>clipitem-343</linkclipref>
											<mediatype>audio</mediatype>
											<trackindex>8</trackindex>
											<clipindex>1</clipindex>
										</link>
									</clipitem>
								</track>
								<track>
									<clipitem id="clipitem-338">
										<masterclipid>masterclip-87</masterclipid>
										<name>15-01-2.WAV</name>
										<rate>
											<timebase>30</timebase>
											<ntsc>TRUE</ntsc>
										</rate>
										<file id="file-87"/>
										<sourcetrack>
											<mediatype>audio</mediatype>
											<trackindex>3</trackindex>
										</sourcetrack>
										<link>
											<linkclipref>clipitem-336</linkclipref>
											<mediatype>audio</mediatype>
											<trackindex>1</trackindex>
											<clipindex>1</clipindex>
										</link>
										<link>
											<linkclipref>clipitem-337</linkclipref>
											<mediatype>audio</mediatype>
											<trackindex>2</trackindex>
											<clipindex>1</clipindex>
										</link>
										<link>
											<linkclipref>clipitem-338</linkclipref>
											<mediatype>audio</mediatype>
											<trackindex>3</trackindex>
											<clipindex>1</clipindex>
										</link>
										<link>
											<linkclipref>clipitem-339</linkclipref>
											<mediatype>audio</mediatype>
											<trackindex>4</trackindex>
											<clipindex>1</clipindex>
										</link>
										<link>
											<linkclipref>clipitem-340</linkclipref>
											<mediatype>audio</mediatype>
											<trackindex>5</trackindex>
											<clipindex>1</clipindex>
										</link>
										<link>
											<linkclipref>clipitem-341</linkclipref>
											<mediatype>audio</mediatype>
											<trackindex>6</trackindex>
											<clipindex>1</clipindex>
										</link>
										<link>
											<linkclipref>clipitem-342</linkclipref>
											<mediatype>audio</mediatype>
											<trackindex>7</trackindex>
											<clipindex>1</clipindex>
										</link>
										<link>
											<linkclipref>clipitem-343</linkclipref>
											<mediatype>audio</mediatype>
											<trackindex>8</trackindex>
											<clipindex>1</clipindex>
										</link>
									</clipitem>
								</track>
								<track>
									<clipitem id="clipitem-339">
										<masterclipid>masterclip-87</masterclipid>
										<name>15-01-2.WAV</name>
										<rate>
											<timebase>30</timebase>
											<ntsc>TRUE</ntsc>
										</rate>
										<file id="file-87"/>
										<sourcetrack>
											<mediatype>audio</mediatype>
											<trackindex>4</trackindex>
										</sourcetrack>
										<link>
											<linkclipref>clipitem-336</linkclipref>
											<mediatype>audio</mediatype>
											<trackindex>1</trackindex>
											<clipindex>1</clipindex>
										</link>
										<link>
											<linkclipref>clipitem-337</linkclipref>
											<mediatype>audio</mediatype>
											<trackindex>2</trackindex>
											<clipindex>1</clipindex>
										</link>
										<link>
											<linkclipref>clipitem-338</linkclipref>
											<mediatype>audio</mediatype>
											<trackindex>3</trackindex>
											<clipindex>1</clipindex>
										</link>
										<link>
											<linkclipref>clipitem-339</linkclipref>
											<mediatype>audio</mediatype>
											<trackindex>4</trackindex>
											<clipindex>1</clipindex>
										</link>
										<link>
											<linkclipref>clipitem-340</linkclipref>
											<mediatype>audio</mediatype>
											<trackindex>5</trackindex>
											<clipindex>1</clipindex>
										</link>
										<link>
											<linkclipref>clipitem-341</linkclipref>
											<mediatype>audio</mediatype>
											<trackindex>6</trackindex>
											<clipindex>1</clipindex>
										</link>
										<link>
											<linkclipref>clipitem-342</linkclipref>
											<mediatype>audio</mediatype>
											<trackindex>7</trackindex>
											<clipindex>1</clipindex>
										</link>
										<link>
											<linkclipref>clipitem-343</linkclipref>
											<mediatype>audio</mediatype>
											<trackindex>8</trackindex>
											<clipindex>1</clipindex>
										</link>
									</clipitem>
								</track>
								<track>
									<clipitem id="clipitem-340">
										<masterclipid>masterclip-87</masterclipid>
										<name>15-01-2.WAV</name>
										<rate>
											<timebase>30</timebase>
											<ntsc>TRUE</ntsc>
										</rate>
										<file id="file-87"/>
										<sourcetrack>
											<mediatype>audio</mediatype>
											<trackindex>5</trackindex>
										</sourcetrack>
										<link>
											<linkclipref>clipitem-336</linkclipref>
											<mediatype>audio</mediatype>
											<trackindex>1</trackindex>
											<clipindex>1</clipindex>
										</link>
										<link>
											<linkclipref>clipitem-337</linkclipref>
											<mediatype>audio</mediatype>
											<trackindex>2</trackindex>
											<clipindex>1</clipindex>
										</link>
										<link>
											<linkclipref>clipitem-338</linkclipref>
											<mediatype>audio</mediatype>
											<trackindex>3</trackindex>
											<clipindex>1</clipindex>
										</link>
										<link>
											<linkclipref>clipitem-339</linkclipref>
											<mediatype>audio</mediatype>
											<trackindex>4</trackindex>
											<clipindex>1</clipindex>
										</link>
										<link>
											<linkclipref>clipitem-340</linkclipref>
											<mediatype>audio</mediatype>
											<trackindex>5</trackindex>
											<clipindex>1</clipindex>
										</link>
										<link>
											<linkclipref>clipitem-341</linkclipref>
											<mediatype>audio</mediatype>
											<trackindex>6</trackindex>
											<clipindex>1</clipindex>
										</link>
										<link>
											<linkclipref>clipitem-342</linkclipref>
											<mediatype>audio</mediatype>
											<trackindex>7</trackindex>
											<clipindex>1</clipindex>
										</link>
										<link>
											<linkclipref>clipitem-343</linkclipref>
											<mediatype>audio</mediatype>
											<trackindex>8</trackindex>
											<clipindex>1</clipindex>
										</link>
									</clipitem>
								</track>
								<track>
									<clipitem id="clipitem-341">
										<masterclipid>masterclip-87</masterclipid>
										<name>15-01-2.WAV</name>
										<rate>
											<timebase>30</timebase>
											<ntsc>TRUE</ntsc>
										</rate>
										<file id="file-87"/>
										<sourcetrack>
											<mediatype>audio</mediatype>
											<trackindex>6</trackindex>
										</sourcetrack>
										<link>
											<linkclipref>clipitem-336</linkclipref>
											<mediatype>audio</mediatype>
											<trackindex>1</trackindex>
											<clipindex>1</clipindex>
										</link>
										<link>
											<linkclipref>clipitem-337</linkclipref>
											<mediatype>audio</mediatype>
											<trackindex>2</trackindex>
											<clipindex>1</clipindex>
										</link>
										<link>
											<linkclipref>clipitem-338</linkclipref>
											<mediatype>audio</mediatype>
											<trackindex>3</trackindex>
											<clipindex>1</clipindex>
										</link>
										<link>
											<linkclipref>clipitem-339</linkclipref>
											<mediatype>audio</mediatype>
											<trackindex>4</trackindex>
											<clipindex>1</clipindex>
										</link>
										<link>
											<linkclipref>clipitem-340</linkclipref>
											<mediatype>audio</mediatype>
											<trackindex>5</trackindex>
											<clipindex>1</clipindex>
										</link>
										<link>
											<linkclipref>clipitem-341</linkclipref>
											<mediatype>audio</mediatype>
											<trackindex>6</trackindex>
											<clipindex>1</clipindex>
										</link>
										<link>
											<linkclipref>clipitem-342</linkclipref>
											<mediatype>audio</mediatype>
											<trackindex>7</trackindex>
											<clipindex>1</clipindex>
										</link>
										<link>
											<linkclipref>clipitem-343</linkclipref>
											<mediatype>audio</mediatype>
											<trackindex>8</trackindex>
											<clipindex>1</clipindex>
										</link>
									</clipitem>
								</track>
								<track>
									<clipitem id="clipitem-342">
										<masterclipid>masterclip-87</masterclipid>
										<name>15-01-2.WAV</name>
										<rate>
											<timebase>30</timebase>
											<ntsc>TRUE</ntsc>
										</rate>
										<file id="file-87"/>
										<sourcetrack>
											<mediatype>audio</mediatype>
											<trackindex>7</trackindex>
										</sourcetrack>
										<link>
											<linkclipref>clipitem-336</linkclipref>
											<mediatype>audio</mediatype>
											<trackindex>1</trackindex>
											<clipindex>1</clipindex>
										</link>
										<link>
											<linkclipref>clipitem-337</linkclipref>
											<mediatype>audio</mediatype>
											<trackindex>2</trackindex>
											<clipindex>1</clipindex>
										</link>
										<link>
											<linkclipref>clipitem-338</linkclipref>
											<mediatype>audio</mediatype>
											<trackindex>3</trackindex>
											<clipindex>1</clipindex>
										</link>
										<link>
											<linkclipref>clipitem-339</linkclipref>
											<mediatype>audio</mediatype>
											<trackindex>4</trackindex>
											<clipindex>1</clipindex>
										</link>
										<link>
											<linkclipref>clipitem-340</linkclipref>
											<mediatype>audio</mediatype>
											<trackindex>5</trackindex>
											<clipindex>1</clipindex>
										</link>
										<link>
											<linkclipref>clipitem-341</linkclipref>
											<mediatype>audio</mediatype>
											<trackindex>6</trackindex>
											<clipindex>1</clipindex>
										</link>
										<link>
											<linkclipref>clipitem-342</linkclipref>
											<mediatype>audio</mediatype>
											<trackindex>7</trackindex>
											<clipindex>1</clipindex>
										</link>
										<link>
											<linkclipref>clipitem-343</linkclipref>
											<mediatype>audio</mediatype>
											<trackindex>8</trackindex>
											<clipindex>1</clipindex>
										</link>
									</clipitem>
								</track>
								<track>
									<clipitem id="clipitem-343">
										<masterclipid>masterclip-87</masterclipid>
										<name>15-01-2.WAV</name>
										<rate>
											<timebase>30</timebase>
											<ntsc>TRUE</ntsc>
										</rate>
										<file id="file-87"/>
										<sourcetrack>
											<mediatype>audio</mediatype>
											<trackindex>8</trackindex>
										</sourcetrack>
										<link>
											<linkclipref>clipitem-336</linkclipref>
											<mediatype>audio</mediatype>
											<trackindex>1</trackindex>
											<clipindex>1</clipindex>
										</link>
										<link>
											<linkclipref>clipitem-337</linkclipref>
											<mediatype>audio</mediatype>
											<trackindex>2</trackindex>
											<clipindex>1</clipindex>
										</link>
										<link>
											<linkclipref>clipitem-338</linkclipref>
											<mediatype>audio</mediatype>
											<trackindex>3</trackindex>
											<clipindex>1</clipindex>
										</link>
										<link>
											<linkclipref>clipitem-339</linkclipref>
											<mediatype>audio</mediatype>
											<trackindex>4</trackindex>
											<clipindex>1</clipindex>
										</link>
										<link>
											<linkclipref>clipitem-340</linkclipref>
											<mediatype>audio</mediatype>
											<trackindex>5</trackindex>
											<clipindex>1</clipindex>
										</link>
										<link>
											<linkclipref>clipitem-341</linkclipref>
											<mediatype>audio</mediatype>
											<trackindex>6</trackindex>
											<clipindex>1</clipindex>
										</link>
										<link>
											<linkclipref>clipitem-342</linkclipref>
											<mediatype>audio</mediatype>
											<trackindex>7</trackindex>
											<clipindex>1</clipindex>
										</link>
										<link>
											<linkclipref>clipitem-343</linkclipref>
											<mediatype>audio</mediatype>
											<trackindex>8</trackindex>
											<clipindex>1</clipindex>
										</link>
									</clipitem>
								</track>
							</audio>
						</media>
						<logginginfo>
							<description></description>
							<scene>15-01</scene>
							<shottake></shottake>
							<lognote></lognote>
							<good></good>
							<originalvideofilename></originalvideofilename>
							<originalaudiofilename></originalaudiofilename>
						</logginginfo>
						<colorinfo>
							<lut></lut>
							<lut1></lut1>
							<asc_sop></asc_sop>
							<asc_sat></asc_sat>
							<lut2></lut2>
						</colorinfo>
						<labels>
							<label2>Mango</label2>
						</labels>
					</clip>
					<clip id="masterclip-88" explodedTracks="true">
						<uuid>a498b185-881a-4300-b3f8-ad9943f8bf8e</uuid>
						<masterclipid>masterclip-88</masterclipid>
						<ismasterclip>TRUE</ismasterclip>
						<duration>3566</duration>
						<rate>
							<timebase>30</timebase>
							<ntsc>TRUE</ntsc>
						</rate>
						<name>ATMOS_CHURCH-1.WAV</name>
						<media>
							<audio>
								<track>
									<clipitem id="clipitem-344">
										<masterclipid>masterclip-88</masterclipid>
										<name>ATMOS_CHURCH-1.WAV</name>
										<rate>
											<timebase>30</timebase>
											<ntsc>TRUE</ntsc>
										</rate>
										<file id="file-88">
											<name>ATMOS_CHURCH-1.WAV</name>
											<pathurl>file://localhost/S%3a/Projects/PRODIGAL_SON/AUDIO/190511_D01/ATMOS_CHURCH-1.WAV</pathurl>
											<rate>
												<timebase>30</timebase>
												<ntsc>TRUE</ntsc>
											</rate>
											<duration>3566</duration>
											<timecode>
												<rate>
													<timebase>30</timebase>
													<ntsc>TRUE</ntsc>
												</rate>
												<string>11;22;38;00</string>
												<frame>1227512</frame>
												<displayformat>DF</displayformat>
												<reel>
													<name>190511</name>
												</reel>
											</timecode>
											<media>
												<audio>
													<samplecharacteristics>
														<depth>16</depth>
														<samplerate>48000</samplerate>
													</samplecharacteristics>
													<channelcount>1</channelcount>
													<audiochannel>
														<sourcechannel>1</sourcechannel>
													</audiochannel>
												</audio>
												<audio>
													<samplecharacteristics>
														<depth>16</depth>
														<samplerate>48000</samplerate>
													</samplecharacteristics>
													<channelcount>1</channelcount>
													<audiochannel>
														<sourcechannel>2</sourcechannel>
													</audiochannel>
												</audio>
												<audio>
													<samplecharacteristics>
														<depth>16</depth>
														<samplerate>48000</samplerate>
													</samplecharacteristics>
													<channelcount>1</channelcount>
													<audiochannel>
														<sourcechannel>3</sourcechannel>
													</audiochannel>
												</audio>
												<audio>
													<samplecharacteristics>
														<depth>16</depth>
														<samplerate>48000</samplerate>
													</samplecharacteristics>
													<channelcount>1</channelcount>
													<audiochannel>
														<sourcechannel>4</sourcechannel>
													</audiochannel>
												</audio>
												<audio>
													<samplecharacteristics>
														<depth>16</depth>
														<samplerate>48000</samplerate>
													</samplecharacteristics>
													<channelcount>1</channelcount>
													<audiochannel>
														<sourcechannel>5</sourcechannel>
													</audiochannel>
												</audio>
												<audio>
													<samplecharacteristics>
														<depth>16</depth>
														<samplerate>48000</samplerate>
													</samplecharacteristics>
													<channelcount>1</channelcount>
													<audiochannel>
														<sourcechannel>6</sourcechannel>
													</audiochannel>
												</audio>
											</media>
										</file>
										<sourcetrack>
											<mediatype>audio</mediatype>
											<trackindex>1</trackindex>
										</sourcetrack>
										<link>
											<linkclipref>clipitem-344</linkclipref>
											<mediatype>audio</mediatype>
											<trackindex>1</trackindex>
											<clipindex>1</clipindex>
										</link>
										<link>
											<linkclipref>clipitem-345</linkclipref>
											<mediatype>audio</mediatype>
											<trackindex>2</trackindex>
											<clipindex>1</clipindex>
										</link>
										<link>
											<linkclipref>clipitem-346</linkclipref>
											<mediatype>audio</mediatype>
											<trackindex>3</trackindex>
											<clipindex>1</clipindex>
										</link>
										<link>
											<linkclipref>clipitem-347</linkclipref>
											<mediatype>audio</mediatype>
											<trackindex>4</trackindex>
											<clipindex>1</clipindex>
										</link>
										<link>
											<linkclipref>clipitem-348</linkclipref>
											<mediatype>audio</mediatype>
											<trackindex>5</trackindex>
											<clipindex>1</clipindex>
										</link>
										<link>
											<linkclipref>clipitem-349</linkclipref>
											<mediatype>audio</mediatype>
											<trackindex>6</trackindex>
											<clipindex>1</clipindex>
										</link>
									</clipitem>
								</track>
								<track>
									<clipitem id="clipitem-345">
										<masterclipid>masterclip-88</masterclipid>
										<name>ATMOS_CHURCH-1.WAV</name>
										<rate>
											<timebase>30</timebase>
											<ntsc>TRUE</ntsc>
										</rate>
										<file id="file-88"/>
										<sourcetrack>
											<mediatype>audio</mediatype>
											<trackindex>2</trackindex>
										</sourcetrack>
										<link>
											<linkclipref>clipitem-344</linkclipref>
											<mediatype>audio</mediatype>
											<trackindex>1</trackindex>
											<clipindex>1</clipindex>
										</link>
										<link>
											<linkclipref>clipitem-345</linkclipref>
											<mediatype>audio</mediatype>
											<trackindex>2</trackindex>
											<clipindex>1</clipindex>
										</link>
										<link>
											<linkclipref>clipitem-346</linkclipref>
											<mediatype>audio</mediatype>
											<trackindex>3</trackindex>
											<clipindex>1</clipindex>
										</link>
										<link>
											<linkclipref>clipitem-347</linkclipref>
											<mediatype>audio</mediatype>
											<trackindex>4</trackindex>
											<clipindex>1</clipindex>
										</link>
										<link>
											<linkclipref>clipitem-348</linkclipref>
											<mediatype>audio</mediatype>
											<trackindex>5</trackindex>
											<clipindex>1</clipindex>
										</link>
										<link>
											<linkclipref>clipitem-349</linkclipref>
											<mediatype>audio</mediatype>
											<trackindex>6</trackindex>
											<clipindex>1</clipindex>
										</link>
									</clipitem>
								</track>
								<track>
									<clipitem id="clipitem-346">
										<masterclipid>masterclip-88</masterclipid>
										<name>ATMOS_CHURCH-1.WAV</name>
										<rate>
											<timebase>30</timebase>
											<ntsc>TRUE</ntsc>
										</rate>
										<file id="file-88"/>
										<sourcetrack>
											<mediatype>audio</mediatype>
											<trackindex>3</trackindex>
										</sourcetrack>
										<link>
											<linkclipref>clipitem-344</linkclipref>
											<mediatype>audio</mediatype>
											<trackindex>1</trackindex>
											<clipindex>1</clipindex>
										</link>
										<link>
											<linkclipref>clipitem-345</linkclipref>
											<mediatype>audio</mediatype>
											<trackindex>2</trackindex>
											<clipindex>1</clipindex>
										</link>
										<link>
											<linkclipref>clipitem-346</linkclipref>
											<mediatype>audio</mediatype>
											<trackindex>3</trackindex>
											<clipindex>1</clipindex>
										</link>
										<link>
											<linkclipref>clipitem-347</linkclipref>
											<mediatype>audio</mediatype>
											<trackindex>4</trackindex>
											<clipindex>1</clipindex>
										</link>
										<link>
											<linkclipref>clipitem-348</linkclipref>
											<mediatype>audio</mediatype>
											<trackindex>5</trackindex>
											<clipindex>1</clipindex>
										</link>
										<link>
											<linkclipref>clipitem-349</linkclipref>
											<mediatype>audio</mediatype>
											<trackindex>6</trackindex>
											<clipindex>1</clipindex>
										</link>
									</clipitem>
								</track>
								<track>
									<clipitem id="clipitem-347">
										<masterclipid>masterclip-88</masterclipid>
										<name>ATMOS_CHURCH-1.WAV</name>
										<rate>
											<timebase>30</timebase>
											<ntsc>TRUE</ntsc>
										</rate>
										<file id="file-88"/>
										<sourcetrack>
											<mediatype>audio</mediatype>
											<trackindex>4</trackindex>
										</sourcetrack>
										<link>
											<linkclipref>clipitem-344</linkclipref>
											<mediatype>audio</mediatype>
											<trackindex>1</trackindex>
											<clipindex>1</clipindex>
										</link>
										<link>
											<linkclipref>clipitem-345</linkclipref>
											<mediatype>audio</mediatype>
											<trackindex>2</trackindex>
											<clipindex>1</clipindex>
										</link>
										<link>
											<linkclipref>clipitem-346</linkclipref>
											<mediatype>audio</mediatype>
											<trackindex>3</trackindex>
											<clipindex>1</clipindex>
										</link>
										<link>
											<linkclipref>clipitem-347</linkclipref>
											<mediatype>audio</mediatype>
											<trackindex>4</trackindex>
											<clipindex>1</clipindex>
										</link>
										<link>
											<linkclipref>clipitem-348</linkclipref>
											<mediatype>audio</mediatype>
											<trackindex>5</trackindex>
											<clipindex>1</clipindex>
										</link>
										<link>
											<linkclipref>clipitem-349</linkclipref>
											<mediatype>audio</mediatype>
											<trackindex>6</trackindex>
											<clipindex>1</clipindex>
										</link>
									</clipitem>
								</track>
								<track>
									<clipitem id="clipitem-348">
										<masterclipid>masterclip-88</masterclipid>
										<name>ATMOS_CHURCH-1.WAV</name>
										<rate>
											<timebase>30</timebase>
											<ntsc>TRUE</ntsc>
										</rate>
										<file id="file-88"/>
										<sourcetrack>
											<mediatype>audio</mediatype>
											<trackindex>5</trackindex>
										</sourcetrack>
										<link>
											<linkclipref>clipitem-344</linkclipref>
											<mediatype>audio</mediatype>
											<trackindex>1</trackindex>
											<clipindex>1</clipindex>
										</link>
										<link>
											<linkclipref>clipitem-345</linkclipref>
											<mediatype>audio</mediatype>
											<trackindex>2</trackindex>
											<clipindex>1</clipindex>
										</link>
										<link>
											<linkclipref>clipitem-346</linkclipref>
											<mediatype>audio</mediatype>
											<trackindex>3</trackindex>
											<clipindex>1</clipindex>
										</link>
										<link>
											<linkclipref>clipitem-347</linkclipref>
											<mediatype>audio</mediatype>
											<trackindex>4</trackindex>
											<clipindex>1</clipindex>
										</link>
										<link>
											<linkclipref>clipitem-348</linkclipref>
											<mediatype>audio</mediatype>
											<trackindex>5</trackindex>
											<clipindex>1</clipindex>
										</link>
										<link>
											<linkclipref>clipitem-349</linkclipref>
											<mediatype>audio</mediatype>
											<trackindex>6</trackindex>
											<clipindex>1</clipindex>
										</link>
									</clipitem>
								</track>
								<track>
									<clipitem id="clipitem-349">
										<masterclipid>masterclip-88</masterclipid>
										<name>ATMOS_CHURCH-1.WAV</name>
										<rate>
											<timebase>30</timebase>
											<ntsc>TRUE</ntsc>
										</rate>
										<file id="file-88"/>
										<sourcetrack>
											<mediatype>audio</mediatype>
											<trackindex>6</trackindex>
										</sourcetrack>
										<link>
											<linkclipref>clipitem-344</linkclipref>
											<mediatype>audio</mediatype>
											<trackindex>1</trackindex>
											<clipindex>1</clipindex>
										</link>
										<link>
											<linkclipref>clipitem-345</linkclipref>
											<mediatype>audio</mediatype>
											<trackindex>2</trackindex>
											<clipindex>1</clipindex>
										</link>
										<link>
											<linkclipref>clipitem-346</linkclipref>
											<mediatype>audio</mediatype>
											<trackindex>3</trackindex>
											<clipindex>1</clipindex>
										</link>
										<link>
											<linkclipref>clipitem-347</linkclipref>
											<mediatype>audio</mediatype>
											<trackindex>4</trackindex>
											<clipindex>1</clipindex>
										</link>
										<link>
											<linkclipref>clipitem-348</linkclipref>
											<mediatype>audio</mediatype>
											<trackindex>5</trackindex>
											<clipindex>1</clipindex>
										</link>
										<link>
											<linkclipref>clipitem-349</linkclipref>
											<mediatype>audio</mediatype>
											<trackindex>6</trackindex>
											<clipindex>1</clipindex>
										</link>
									</clipitem>
								</track>
							</audio>
						</media>
						<logginginfo>
							<description></description>
							<scene>ATMOS_CHURCH</scene>
							<shottake></shottake>
							<lognote></lognote>
							<good></good>
							<originalvideofilename></originalvideofilename>
							<originalaudiofilename></originalaudiofilename>
						</logginginfo>
						<colorinfo>
							<lut></lut>
							<lut1></lut1>
							<asc_sop></asc_sop>
							<asc_sat></asc_sat>
							<lut2></lut2>
						</colorinfo>
						<labels>
							<label2>Mango</label2>
						</labels>
					</clip>
				</children>
			</bin>
			<bin>
				<name>BIN_SEQUENCES</name>
				<labels>
					<label2>Mango</label2>
				</labels>
				<children>
					<sequence id="sequence-2" TL.SQAudioVisibleBase="0" TL.SQVideoVisibleBase="0" TL.SQVisibleBaseTime="0" TL.SQAVDividerPosition="0.5" TL.SQHideShyTracks="0" TL.SQHeaderWidth="236" Monitor.ProgramZoomOut="10973491200000000" Monitor.ProgramZoomIn="0" TL.SQTimePerPixel="41.830050754128571" MZ.EditLine="9351385666560000" MZ.Sequence.PreviewFrameSizeHeight="1080" MZ.Sequence.PreviewFrameSizeWidth="1678" MZ.Sequence.AudioTimeDisplayFormat="200" MZ.Sequence.PreviewRenderingClassID="1297106761" MZ.Sequence.PreviewRenderingPresetCodec="1297107278" MZ.Sequence.PreviewRenderingPresetPath="EncoderPresets\SequencePreview\9678af98-a7b7-4bdb-b477-7ac9c8df4a4e\I-Frame Only MPEG.epr" MZ.Sequence.PreviewUseMaxRenderQuality="false" MZ.Sequence.PreviewUseMaxBitDepth="false" MZ.Sequence.EditingModeGUID="9678af98-a7b7-4bdb-b477-7ac9c8df4a4e" MZ.Sequence.VideoTimeDisplayFormat="101" MZ.WorkOutPoint="21459271680000" MZ.WorkInPoint="0" MZ.ZeroPoint="7834574845440000" explodedTracks="true">
						<uuid>dfb94890-153b-4a14-9f93-8fc514e211dd</uuid>
						<duration>920354</duration>
						<rate>
							<timebase>25</timebase>
							<ntsc>FALSE</ntsc>
						</rate>
						<name>SYNC_1_VIDEO</name>
						<media>
							<video>
								<format>
									<samplecharacteristics>
										<rate>
											<timebase>25</timebase>
											<ntsc>FALSE</ntsc>
										</rate>
										<codec>
											<name>Apple ProRes 422</name>
											<appspecificdata>
												<appname>Final Cut Pro</appname>
												<appmanufacturer>Apple Inc.</appmanufacturer>
												<appversion>7.0</appversion>
												<data>
													<qtcodec>
														<codecname>Apple ProRes 422</codecname>
														<codectypename>Apple ProRes 422</codectypename>
														<codectypecode>apcn</codectypecode>
														<codecvendorcode>appl</codecvendorcode>
														<spatialquality>1024</spatialquality>
														<temporalquality>0</temporalquality>
														<keyframerate>0</keyframerate>
														<datarate>0</datarate>
													</qtcodec>
												</data>
											</appspecificdata>
										</codec>
										<width>1678</width>
										<height>1080</height>
										<anamorphic>FALSE</anamorphic>
										<pixelaspectratio>square</pixelaspectratio>
										<fielddominance>none</fielddominance>
										<colordepth>24</colordepth>
									</samplecharacteristics>
								</format>
								<track TL.SQTrackShy="0" TL.SQTrackExpandedHeight="25" TL.SQTrackExpanded="0" MZ.TrackTargeted="1">
									<clipitem id="clipitem-350">
										<masterclipid>masterclip-56</masterclipid>
										<name>T001C001_190510_R6XC.[0771071-0773182].mov</name>
										<enabled>TRUE</enabled>
										<duration>2112</duration>
										<rate>
											<timebase>25</timebase>
											<ntsc>FALSE</ntsc>
										</rate>
										<start>0</start>
										<end>2112</end>
										<in>0</in>
										<out>2112</out>
										<pproTicksIn>0</pproTicksIn>
										<pproTicksOut>21459271680000</pproTicksOut>
										<alphatype>none</alphatype>
										<file id="file-56"/>
											<marker>
												<comment></comment>
												<name></name>
												<in>171</in>
												<out>-1</out>
												<pproColor>4281828977</pproColor>
											</marker>
											<marker>
												<comment></comment>
												<name></name>
												<in>2000</in>
												<out>-1</out>
												<pproColor>4281740498</pproColor>
											</marker>
										<logginginfo>
											<description></description>
											<scene></scene>
											<shottake></shottake>
											<lognote></lognote>
											<good></good>
											<originalvideofilename></originalvideofilename>
											<originalaudiofilename></originalaudiofilename>
										</logginginfo>
										<colorinfo>
											<lut></lut>
											<lut1></lut1>
											<asc_sop></asc_sop>
											<asc_sat></asc_sat>
											<lut2></lut2>
										</colorinfo>
										<labels>
											<label2>Violet</label2>
										</labels>
									</clipitem>
									<clipitem id="clipitem-351">
										<masterclipid>masterclip-57</masterclipid>
										<name>T001C002_190510_R6XC.[0775552-0777995].mov</name>
										<enabled>TRUE</enabled>
										<duration>2444</duration>
										<rate>
											<timebase>25</timebase>
											<ntsc>FALSE</ntsc>
										</rate>
										<start>4481</start>
										<end>6925</end>
										<in>0</in>
										<out>2444</out>
										<pproTicksIn>0</pproTicksIn>
										<pproTicksOut>24832604160000</pproTicksOut>
										<alphatype>none</alphatype>
										<file id="file-57"/>
											<marker>
												<comment></comment>
												<name></name>
												<in>110</in>
												<out>-1</out>
												<pproColor>4281828977</pproColor>
											</marker>
											<marker>
												<comment></comment>
												<name></name>
												<in>2241</in>
												<out>-1</out>
												<pproColor>4281740498</pproColor>
											</marker>
										<logginginfo>
											<description></description>
											<scene></scene>
											<shottake></shottake>
											<lognote></lognote>
											<good></good>
											<originalvideofilename></originalvideofilename>
											<originalaudiofilename></originalaudiofilename>
										</logginginfo>
										<colorinfo>
											<lut></lut>
											<lut1></lut1>
											<asc_sop></asc_sop>
											<asc_sat></asc_sat>
											<lut2></lut2>
										</colorinfo>
										<labels>
											<label2>Violet</label2>
										</labels>
									</clipitem>
									<clipitem id="clipitem-352">
										<masterclipid>masterclip-58</masterclipid>
										<name>T001C004_190510_R6XC.[0812500-0814970].mov</name>
										<enabled>TRUE</enabled>
										<duration>2471</duration>
										<rate>
											<timebase>25</timebase>
											<ntsc>FALSE</ntsc>
										</rate>
										<start>41429</start>
										<end>43900</end>
										<in>0</in>
										<out>2471</out>
										<pproTicksIn>0</pproTicksIn>
										<pproTicksOut>25106941440000</pproTicksOut>
										<alphatype>none</alphatype>
										<file id="file-58"/>
											<marker>
												<comment></comment>
												<name></name>
												<in>306</in>
												<out>-1</out>
												<pproColor>4281828977</pproColor>
											</marker>
											<marker>
												<comment></comment>
												<name></name>
												<in>2308</in>
												<out>-1</out>
												<pproColor>4281740498</pproColor>
											</marker>
										<logginginfo>
											<description></description>
											<scene></scene>
											<shottake></shottake>
											<lognote></lognote>
											<good></good>
											<originalvideofilename></originalvideofilename>
											<originalaudiofilename></originalaudiofilename>
										</logginginfo>
										<colorinfo>
											<lut></lut>
											<lut1></lut1>
											<asc_sop></asc_sop>
											<asc_sat></asc_sat>
											<lut2></lut2>
										</colorinfo>
										<labels>
											<label2>Violet</label2>
										</labels>
									</clipitem>
									<clipitem id="clipitem-353">
										<masterclipid>masterclip-59</masterclipid>
										<name>T001C005_190510_R6XC.[0844782-0846615].mov</name>
										<enabled>TRUE</enabled>
										<duration>1834</duration>
										<rate>
											<timebase>25</timebase>
											<ntsc>FALSE</ntsc>
										</rate>
										<start>73711</start>
										<end>75545</end>
										<in>0</in>
										<out>1834</out>
										<pproTicksIn>0</pproTicksIn>
										<pproTicksOut>18634613760000</pproTicksOut>
										<alphatype>none</alphatype>
										<file id="file-59"/>
											<marker>
												<comment></comment>
												<name></name>
												<in>269</in>
												<out>-1</out>
												<pproColor>4281828977</pproColor>
											</marker>
											<marker>
												<comment></comment>
												<name></name>
												<in>1641</in>
												<out>-1</out>
												<pproColor>4281740498</pproColor>
											</marker>
										<logginginfo>
											<description></description>
											<scene></scene>
											<shottake></shottake>
											<lognote></lognote>
											<good></good>
											<originalvideofilename></originalvideofilename>
											<originalaudiofilename></originalaudiofilename>
										</logginginfo>
										<colorinfo>
											<lut></lut>
											<lut1></lut1>
											<asc_sop></asc_sop>
											<asc_sat></asc_sat>
											<lut2></lut2>
										</colorinfo>
										<labels>
											<label2>Violet</label2>
										</labels>
									</clipitem>
									<clipitem id="clipitem-354">
										<masterclipid>masterclip-60</masterclipid>
										<name>T001C006_190510_R6XC.[0945567-0954891].mov</name>
										<enabled>TRUE</enabled>
										<duration>9325</duration>
										<rate>
											<timebase>25</timebase>
											<ntsc>FALSE</ntsc>
										</rate>
										<start>174496</start>
										<end>183821</end>
										<in>0</in>
										<out>9325</out>
										<pproTicksIn>0</pproTicksIn>
										<pproTicksOut>94747968000000</pproTicksOut>
										<alphatype>none</alphatype>
										<file id="file-60"/>
										<logginginfo>
											<description></description>
											<scene></scene>
											<shottake></shottake>
											<lognote></lognote>
											<good></good>
											<originalvideofilename></originalvideofilename>
											<originalaudiofilename></originalaudiofilename>
										</logginginfo>
										<colorinfo>
											<lut></lut>
											<lut1></lut1>
											<asc_sop></asc_sop>
											<asc_sat></asc_sat>
											<lut2></lut2>
										</colorinfo>
										<labels>
											<label2>Violet</label2>
										</labels>
									</clipitem>
									<clipitem id="clipitem-355">
										<masterclipid>masterclip-61</masterclipid>
										<name>T001C007_190511_R6XC.[0975322-0977760].mov</name>
										<enabled>TRUE</enabled>
										<duration>2439</duration>
										<rate>
											<timebase>25</timebase>
											<ntsc>FALSE</ntsc>
										</rate>
										<start>204251</start>
										<end>206690</end>
										<in>0</in>
										<out>2439</out>
										<pproTicksIn>0</pproTicksIn>
										<pproTicksOut>24781800960000</pproTicksOut>
										<alphatype>none</alphatype>
										<file id="file-61"/>
										<logginginfo>
											<description></description>
											<scene></scene>
											<shottake></shottake>
											<lognote></lognote>
											<good></good>
											<originalvideofilename></originalvideofilename>
											<originalaudiofilename></originalaudiofilename>
										</logginginfo>
										<colorinfo>
											<lut></lut>
											<lut1></lut1>
											<asc_sop></asc_sop>
											<asc_sat></asc_sat>
											<lut2></lut2>
										</colorinfo>
										<labels>
											<label2>Violet</label2>
										</labels>
									</clipitem>
									<clipitem id="clipitem-356">
										<masterclipid>masterclip-62</masterclipid>
										<name>T001C008_190511_R6XC.[0998481-0999978].mov</name>
										<enabled>TRUE</enabled>
										<duration>1498</duration>
										<rate>
											<timebase>25</timebase>
											<ntsc>FALSE</ntsc>
										</rate>
										<start>227410</start>
										<end>228908</end>
										<in>0</in>
										<out>1498</out>
										<pproTicksIn>0</pproTicksIn>
										<pproTicksOut>15220638720000</pproTicksOut>
										<alphatype>none</alphatype>
										<file id="file-62"/>
										<logginginfo>
											<description></description>
											<scene></scene>
											<shottake></shottake>
											<lognote></lognote>
											<good></good>
											<originalvideofilename></originalvideofilename>
											<originalaudiofilename></originalaudiofilename>
										</logginginfo>
										<colorinfo>
											<lut></lut>
											<lut1></lut1>
											<asc_sop></asc_sop>
											<asc_sat></asc_sat>
											<lut2></lut2>
										</colorinfo>
										<labels>
											<label2>Violet</label2>
										</labels>
									</clipitem>
									<clipitem id="clipitem-357">
										<masterclipid>masterclip-63</masterclipid>
										<name>T001C009_190511_R6XC.[1020697-1022390].mov</name>
										<enabled>TRUE</enabled>
										<duration>1694</duration>
										<rate>
											<timebase>25</timebase>
											<ntsc>FALSE</ntsc>
										</rate>
										<start>249626</start>
										<end>251320</end>
										<in>0</in>
										<out>1694</out>
										<pproTicksIn>0</pproTicksIn>
										<pproTicksOut>17212124160000</pproTicksOut>
										<alphatype>none</alphatype>
										<file id="file-63"/>
										<logginginfo>
											<description></description>
											<scene></scene>
											<shottake></shottake>
											<lognote></lognote>
											<good></good>
											<originalvideofilename></originalvideofilename>
											<originalaudiofilename></originalaudiofilename>
										</logginginfo>
										<colorinfo>
											<lut></lut>
											<lut1></lut1>
											<asc_sop></asc_sop>
											<asc_sat></asc_sat>
											<lut2></lut2>
										</colorinfo>
										<labels>
											<label2>Violet</label2>
										</labels>
									</clipitem>
									<clipitem id="clipitem-358">
										<masterclipid>masterclip-64</masterclipid>
										<name>T001C010_190511_R6XC.[1043405-1045094].mov</name>
										<enabled>TRUE</enabled>
										<duration>1690</duration>
										<rate>
											<timebase>25</timebase>
											<ntsc>FALSE</ntsc>
										</rate>
										<start>272334</start>
										<end>274024</end>
										<in>0</in>
										<out>1690</out>
										<pproTicksIn>0</pproTicksIn>
										<pproTicksOut>17171481600000</pproTicksOut>
										<alphatype>none</alphatype>
										<file id="file-64"/>
										<logginginfo>
											<description></description>
											<scene></scene>
											<shottake></shottake>
											<lognote></lognote>
											<good></good>
											<originalvideofilename></originalvideofilename>
											<originalaudiofilename></originalaudiofilename>
										</logginginfo>
										<colorinfo>
											<lut></lut>
											<lut1></lut1>
											<asc_sop></asc_sop>
											<asc_sat></asc_sat>
											<lut2></lut2>
										</colorinfo>
										<labels>
											<label2>Violet</label2>
										</labels>
									</clipitem>
									<clipitem id="clipitem-359">
										<masterclipid>masterclip-43</masterclipid>
										<name>A002C001_190511_R6XC.[1230177-1232759].mov</name>
										<enabled>TRUE</enabled>
										<duration>2583</duration>
										<rate>
											<timebase>25</timebase>
											<ntsc>FALSE</ntsc>
										</rate>
										<start>459106</start>
										<end>461689</end>
										<in>0</in>
										<out>2583</out>
										<pproTicksIn>0</pproTicksIn>
										<pproTicksOut>26244933120000</pproTicksOut>
										<alphatype>none</alphatype>
										<file id="file-43"/>
											<marker>
												<comment></comment>
												<name></name>
												<in>318</in>
												<out>-1</out>
												<pproColor>4281828977</pproColor>
											</marker>
											<marker>
												<comment></comment>
												<name></name>
												<in>2499</in>
												<out>-1</out>
												<pproColor>4281740498</pproColor>
											</marker>
										<logginginfo>
											<description></description>
											<scene></scene>
											<shottake></shottake>
											<lognote></lognote>
											<good></good>
											<originalvideofilename></originalvideofilename>
											<originalaudiofilename></originalaudiofilename>
										</logginginfo>
										<colorinfo>
											<lut></lut>
											<lut1></lut1>
											<asc_sop></asc_sop>
											<asc_sat></asc_sat>
											<lut2></lut2>
										</colorinfo>
										<labels>
											<label2>Violet</label2>
										</labels>
									</clipitem>
									<clipitem id="clipitem-360">
										<masterclipid>masterclip-44</masterclipid>
										<name>A002C002_190511_R6XC.[1238357-1239433].mov</name>
										<enabled>TRUE</enabled>
										<duration>1077</duration>
										<rate>
											<timebase>25</timebase>
											<ntsc>FALSE</ntsc>
										</rate>
										<start>467286</start>
										<end>468363</end>
										<in>0</in>
										<out>1077</out>
										<pproTicksIn>0</pproTicksIn>
										<pproTicksOut>10943009280000</pproTicksOut>
										<alphatype>none</alphatype>
										<file id="file-44"/>
											<marker>
												<comment></comment>
												<name></name>
												<in>269</in>
												<out>-1</out>
											</marker>
										<logginginfo>
											<description></description>
											<scene></scene>
											<shottake></shottake>
											<lognote></lognote>
											<good></good>
											<originalvideofilename></originalvideofilename>
											<originalaudiofilename></originalaudiofilename>
										</logginginfo>
										<colorinfo>
											<lut></lut>
											<lut1></lut1>
											<asc_sop></asc_sop>
											<asc_sat></asc_sat>
											<lut2></lut2>
										</colorinfo>
										<labels>
											<label2>Violet</label2>
										</labels>
									</clipitem>
									<clipitem id="clipitem-361">
										<masterclipid>masterclip-45</masterclipid>
										<name>A002C003_190511_R6XC.[1240863-1243708].mov</name>
										<enabled>TRUE</enabled>
										<duration>2846</duration>
										<rate>
											<timebase>25</timebase>
											<ntsc>FALSE</ntsc>
										</rate>
										<start>469792</start>
										<end>472638</end>
										<in>0</in>
										<out>2846</out>
										<pproTicksIn>0</pproTicksIn>
										<pproTicksOut>28917181440000</pproTicksOut>
										<alphatype>none</alphatype>
										<file id="file-45"/>
										<logginginfo>
											<description></description>
											<scene></scene>
											<shottake></shottake>
											<lognote></lognote>
											<good></good>
											<originalvideofilename></originalvideofilename>
											<originalaudiofilename></originalaudiofilename>
										</logginginfo>
										<colorinfo>
											<lut></lut>
											<lut1></lut1>
											<asc_sop></asc_sop>
											<asc_sat></asc_sat>
											<lut2></lut2>
										</colorinfo>
										<labels>
											<label2>Violet</label2>
										</labels>
									</clipitem>
									<clipitem id="clipitem-362">
										<masterclipid>masterclip-46</masterclipid>
										<name>A002C004_190511_R6XC.[1245536-1249161].mov</name>
										<enabled>TRUE</enabled>
										<duration>3626</duration>
										<rate>
											<timebase>25</timebase>
											<ntsc>FALSE</ntsc>
										</rate>
										<start>474465</start>
										<end>478091</end>
										<in>0</in>
										<out>3626</out>
										<pproTicksIn>0</pproTicksIn>
										<pproTicksOut>36842480640000</pproTicksOut>
										<alphatype>none</alphatype>
										<file id="file-46"/>
										<logginginfo>
											<description></description>
											<scene></scene>
											<shottake></shottake>
											<lognote></lognote>
											<good></good>
											<originalvideofilename></originalvideofilename>
											<originalaudiofilename></originalaudiofilename>
										</logginginfo>
										<colorinfo>
											<lut></lut>
											<lut1></lut1>
											<asc_sop></asc_sop>
											<asc_sat></asc_sat>
											<lut2></lut2>
										</colorinfo>
										<labels>
											<label2>Violet</label2>
										</labels>
									</clipitem>
									<clipitem id="clipitem-363">
										<masterclipid>masterclip-47</masterclipid>
										<name>A002C005_190511_R6XC.[1252221-1255242].mov</name>
										<enabled>TRUE</enabled>
										<duration>3022</duration>
										<rate>
											<timebase>25</timebase>
											<ntsc>FALSE</ntsc>
										</rate>
										<start>481150</start>
										<end>484172</end>
										<in>0</in>
										<out>3022</out>
										<pproTicksIn>0</pproTicksIn>
										<pproTicksOut>30705454080000</pproTicksOut>
										<alphatype>none</alphatype>
										<file id="file-47"/>
										<logginginfo>
											<description></description>
											<scene></scene>
											<shottake></shottake>
											<lognote></lognote>
											<good></good>
											<originalvideofilename></originalvideofilename>
											<originalaudiofilename></originalaudiofilename>
										</logginginfo>
										<colorinfo>
											<lut></lut>
											<lut1></lut1>
											<asc_sop></asc_sop>
											<asc_sat></asc_sat>
											<lut2></lut2>
										</colorinfo>
										<labels>
											<label2>Violet</label2>
										</labels>
									</clipitem>
									<clipitem id="clipitem-364">
										<masterclipid>masterclip-48</masterclipid>
										<name>A002C006_190511_R6XC.[1280886-1283330].mov</name>
										<enabled>TRUE</enabled>
										<duration>2445</duration>
										<rate>
											<timebase>25</timebase>
											<ntsc>FALSE</ntsc>
										</rate>
										<start>509815</start>
										<end>512260</end>
										<in>0</in>
										<out>2445</out>
										<pproTicksIn>0</pproTicksIn>
										<pproTicksOut>24842764800000</pproTicksOut>
										<alphatype>none</alphatype>
										<file id="file-48"/>
										<logginginfo>
											<description></description>
											<scene></scene>
											<shottake></shottake>
											<lognote></lognote>
											<good></good>
											<originalvideofilename></originalvideofilename>
											<originalaudiofilename></originalaudiofilename>
										</logginginfo>
										<colorinfo>
											<lut></lut>
											<lut1></lut1>
											<asc_sop></asc_sop>
											<asc_sat></asc_sat>
											<lut2></lut2>
										</colorinfo>
										<labels>
											<label2>Violet</label2>
										</labels>
									</clipitem>
									<clipitem id="clipitem-365">
										<masterclipid>masterclip-49</masterclipid>
										<name>A002C007_190511_R6XC.[1284452-1286174].mov</name>
										<enabled>TRUE</enabled>
										<duration>1723</duration>
										<rate>
											<timebase>25</timebase>
											<ntsc>FALSE</ntsc>
										</rate>
										<start>513381</start>
										<end>515104</end>
										<in>0</in>
										<out>1723</out>
										<pproTicksIn>0</pproTicksIn>
										<pproTicksOut>17506782720000</pproTicksOut>
										<alphatype>none</alphatype>
										<file id="file-49"/>
										<logginginfo>
											<description></description>
											<scene></scene>
											<shottake></shottake>
											<lognote></lognote>
											<good></good>
											<originalvideofilename></originalvideofilename>
											<originalaudiofilename></originalaudiofilename>
										</logginginfo>
										<colorinfo>
											<lut></lut>
											<lut1></lut1>
											<asc_sop></asc_sop>
											<asc_sat></asc_sat>
											<lut2></lut2>
										</colorinfo>
										<labels>
											<label2>Violet</label2>
										</labels>
									</clipitem>
									<clipitem id="clipitem-366">
										<masterclipid>masterclip-50</masterclipid>
										<name>A003C001_190511_R6XC.[1540211-1544727].mov</name>
										<enabled>TRUE</enabled>
										<duration>4517</duration>
										<rate>
											<timebase>25</timebase>
											<ntsc>FALSE</ntsc>
										</rate>
										<start>769140</start>
										<end>773657</end>
										<in>0</in>
										<out>4517</out>
										<pproTicksIn>0</pproTicksIn>
										<pproTicksOut>45895610880000</pproTicksOut>
										<alphatype>none</alphatype>
										<file id="file-50"/>
										<logginginfo>
											<description></description>
											<scene></scene>
											<shottake></shottake>
											<lognote></lognote>
											<good></good>
											<originalvideofilename></originalvideofilename>
											<originalaudiofilename></originalaudiofilename>
										</logginginfo>
										<colorinfo>
											<lut></lut>
											<lut1></lut1>
											<asc_sop></asc_sop>
											<asc_sat></asc_sat>
											<lut2></lut2>
										</colorinfo>
										<labels>
											<label2>Violet</label2>
										</labels>
									</clipitem>
									<clipitem id="clipitem-367">
										<masterclipid>masterclip-51</masterclipid>
										<name>A003C002_190511_R6XC.[1562614-1566466].mov</name>
										<enabled>TRUE</enabled>
										<duration>3853</duration>
										<rate>
											<timebase>25</timebase>
											<ntsc>FALSE</ntsc>
										</rate>
										<start>791543</start>
										<end>795396</end>
										<in>0</in>
										<out>3853</out>
										<pproTicksIn>0</pproTicksIn>
										<pproTicksOut>39148945920000</pproTicksOut>
										<alphatype>none</alphatype>
										<file id="file-51"/>
										<logginginfo>
											<description></description>
											<scene></scene>
											<shottake></shottake>
											<lognote></lognote>
											<good></good>
											<originalvideofilename></originalvideofilename>
											<originalaudiofilename></originalaudiofilename>
										</logginginfo>
										<colorinfo>
											<lut></lut>
											<lut1></lut1>
											<asc_sop></asc_sop>
											<asc_sat></asc_sat>
											<lut2></lut2>
										</colorinfo>
										<labels>
											<label2>Violet</label2>
										</labels>
									</clipitem>
									<clipitem id="clipitem-368">
										<masterclipid>masterclip-52</masterclipid>
										<name>A003C003_190511_R6XC.[1572393-1580542].mov</name>
										<enabled>TRUE</enabled>
										<duration>8150</duration>
										<rate>
											<timebase>25</timebase>
											<ntsc>FALSE</ntsc>
										</rate>
										<start>801322</start>
										<end>809472</end>
										<in>0</in>
										<out>8150</out>
										<pproTicksIn>0</pproTicksIn>
										<pproTicksOut>82809216000000</pproTicksOut>
										<alphatype>none</alphatype>
										<file id="file-52"/>
										<logginginfo>
											<description></description>
											<scene></scene>
											<shottake></shottake>
											<lognote></lognote>
											<good></good>
											<originalvideofilename></originalvideofilename>
											<originalaudiofilename></originalaudiofilename>
										</logginginfo>
										<colorinfo>
											<lut></lut>
											<lut1></lut1>
											<asc_sop></asc_sop>
											<asc_sat></asc_sat>
											<lut2></lut2>
										</colorinfo>
										<labels>
											<label2>Violet</label2>
										</labels>
									</clipitem>
									<clipitem id="clipitem-369">
										<masterclipid>masterclip-53</masterclipid>
										<name>A003C004_190511_R6XC.[1582384-1587340].mov</name>
										<enabled>TRUE</enabled>
										<duration>4957</duration>
										<rate>
											<timebase>25</timebase>
											<ntsc>FALSE</ntsc>
										</rate>
										<start>811313</start>
										<end>816270</end>
										<in>0</in>
										<out>4957</out>
										<pproTicksIn>0</pproTicksIn>
										<pproTicksOut>50366292480000</pproTicksOut>
										<alphatype>none</alphatype>
										<file id="file-53"/>
										<logginginfo>
											<description></description>
											<scene></scene>
											<shottake></shottake>
											<lognote></lognote>
											<good></good>
											<originalvideofilename></originalvideofilename>
											<originalaudiofilename></originalaudiofilename>
										</logginginfo>
										<colorinfo>
											<lut></lut>
											<lut1></lut1>
											<asc_sop></asc_sop>
											<asc_sat></asc_sat>
											<lut2></lut2>
										</colorinfo>
										<labels>
											<label2>Violet</label2>
										</labels>
									</clipitem>
									<clipitem id="clipitem-370">
										<masterclipid>masterclip-54</masterclipid>
										<name>A003C005_190511_R6XC.[1680865-1684154].mov</name>
										<enabled>TRUE</enabled>
										<duration>3290</duration>
										<rate>
											<timebase>25</timebase>
											<ntsc>FALSE</ntsc>
										</rate>
										<start>909794</start>
										<end>913084</end>
										<in>0</in>
										<out>3290</out>
										<pproTicksIn>0</pproTicksIn>
										<pproTicksOut>33428505600000</pproTicksOut>
										<alphatype>none</alphatype>
										<file id="file-54"/>
										<logginginfo>
											<description></description>
											<scene></scene>
											<shottake></shottake>
											<lognote></lognote>
											<good></good>
											<originalvideofilename></originalvideofilename>
											<originalaudiofilename></originalaudiofilename>
										</logginginfo>
										<colorinfo>
											<lut></lut>
											<lut1></lut1>
											<asc_sop></asc_sop>
											<asc_sat></asc_sat>
											<lut2></lut2>
										</colorinfo>
										<labels>
											<label2>Violet</label2>
										</labels>
									</clipitem>
									<clipitem id="clipitem-371">
										<masterclipid>masterclip-55</masterclipid>
										<name>A003C006_190511_R6XC.[1687928-1691424].mov</name>
										<enabled>TRUE</enabled>
										<duration>3497</duration>
										<rate>
											<timebase>25</timebase>
											<ntsc>FALSE</ntsc>
										</rate>
										<start>916857</start>
										<end>920354</end>
										<in>0</in>
										<out>3497</out>
										<pproTicksIn>0</pproTicksIn>
										<pproTicksOut>35531758080000</pproTicksOut>
										<alphatype>none</alphatype>
										<file id="file-55"/>
										<logginginfo>
											<description></description>
											<scene></scene>
											<shottake></shottake>
											<lognote></lognote>
											<good></good>
											<originalvideofilename></originalvideofilename>
											<originalaudiofilename></originalaudiofilename>
										</logginginfo>
										<colorinfo>
											<lut></lut>
											<lut1></lut1>
											<asc_sop></asc_sop>
											<asc_sat></asc_sat>
											<lut2></lut2>
										</colorinfo>
										<labels>
											<label2>Violet</label2>
										</labels>
									</clipitem>
									<enabled>TRUE</enabled>
									<locked>FALSE</locked>
								</track>
								<track TL.SQTrackShy="0" TL.SQTrackExpandedHeight="25" TL.SQTrackExpanded="0" MZ.TrackTargeted="0">
									<enabled>TRUE</enabled>
									<locked>FALSE</locked>
								</track>
								<track TL.SQTrackShy="0" TL.SQTrackExpandedHeight="25" TL.SQTrackExpanded="0" MZ.TrackTargeted="0">
									<clipitem id="clipitem-372">
										<masterclipid>masterclip-89</masterclipid>
										<name>Transparent Video</name>
										<enabled>TRUE</enabled>
										<duration>1080000</duration>
										<rate>
											<timebase>25</timebase>
											<ntsc>FALSE</ntsc>
										</rate>
										<start>0</start>
										<end>1080000</end>
										<in>90000</in>
										<out>1170000</out>
										<pproTicksIn>914457600000000</pproTicksIn>
										<pproTicksOut>11887948800000000</pproTicksOut>
										<alphatype>straight</alphatype>
										<pixelaspectratio>square</pixelaspectratio>
										<anamorphic>FALSE</anamorphic>
										<file id="file-89">
											<name>Transparent Video</name>
											<mediaSource>Slug</mediaSource>
											<rate>
												<timebase>30</timebase>
												<ntsc>TRUE</ntsc>
											</rate>
											<timecode>
												<rate>
													<timebase>30</timebase>
													<ntsc>TRUE</ntsc>
												</rate>
												<string>00;00;00;00</string>
												<frame>0</frame>
												<displayformat>DF</displayformat>
											</timecode>
											<media>
												<video>
													<samplecharacteristics>
														<rate>
															<timebase>30</timebase>
															<ntsc>TRUE</ntsc>
														</rate>
														<width>1678</width>
														<height>1080</height>
														<anamorphic>FALSE</anamorphic>
														<pixelaspectratio>square</pixelaspectratio>
														<fielddominance>none</fielddominance>
													</samplecharacteristics>
												</video>
											</media>
										</file>
										<logginginfo>
											<description></description>
											<scene></scene>
											<shottake></shottake>
											<lognote></lognote>
											<good></good>
											<originalvideofilename></originalvideofilename>
											<originalaudiofilename></originalaudiofilename>
										</logginginfo>
										<colorinfo>
											<lut></lut>
											<lut1></lut1>
											<asc_sop></asc_sop>
											<asc_sat></asc_sat>
											<lut2></lut2>
										</colorinfo>
										<labels>
											<label2>Lavender</label2>
										</labels>
									</clipitem>
									<enabled>FALSE</enabled>
									<locked>TRUE</locked>
								</track>
							</video>
							<audio>
								<numOutputChannels>2</numOutputChannels>
								<format>
									<samplecharacteristics>
										<depth>16</depth>
										<samplerate>48000</samplerate>
									</samplecharacteristics>
								</format>
								<outputs>
									<group>
										<index>1</index>
										<numchannels>1</numchannels>
										<downmix>0</downmix>
										<channel>
											<index>1</index>
										</channel>
									</group>
									<group>
										<index>2</index>
										<numchannels>1</numchannels>
										<downmix>0</downmix>
										<channel>
											<index>2</index>
										</channel>
									</group>
								</outputs>
								<track TL.SQTrackAudioKeyframeStyle="0" TL.SQTrackShy="0" TL.SQTrackExpandedHeight="25" TL.SQTrackExpanded="0" MZ.TrackTargeted="1" PannerCurrentValue="0.5" PannerIsInverted="true" PannerStartKeyframe="-91445760000000000,0.5,0,0,0,0,0,0" PannerName="Balance" currentExplodedTrackIndex="0" totalExplodedTrackCount="2" premiereTrackType="Stereo">
									<enabled>TRUE</enabled>
									<locked>FALSE</locked>
									<outputchannelindex>1</outputchannelindex>
								</track>
								<track TL.SQTrackAudioKeyframeStyle="0" TL.SQTrackShy="0" TL.SQTrackExpandedHeight="25" TL.SQTrackExpanded="0" MZ.TrackTargeted="1" PannerCurrentValue="0.5" PannerIsInverted="true" PannerStartKeyframe="-91445760000000000,0.5,0,0,0,0,0,0" PannerName="Balance" currentExplodedTrackIndex="1" totalExplodedTrackCount="2" premiereTrackType="Stereo">
									<enabled>TRUE</enabled>
									<locked>FALSE</locked>
									<outputchannelindex>2</outputchannelindex>
								</track>
								<track TL.SQTrackAudioKeyframeStyle="0" TL.SQTrackShy="0" TL.SQTrackExpandedHeight="25" TL.SQTrackExpanded="0" MZ.TrackTargeted="1" PannerCurrentValue="0.5" PannerIsInverted="true" PannerStartKeyframe="-91445760000000000,0.5,0,0,0,0,0,0" PannerName="Balance" currentExplodedTrackIndex="0" totalExplodedTrackCount="2" premiereTrackType="Stereo">
									<enabled>TRUE</enabled>
									<locked>FALSE</locked>
									<outputchannelindex>1</outputchannelindex>
								</track>
								<track TL.SQTrackAudioKeyframeStyle="0" TL.SQTrackShy="0" TL.SQTrackExpandedHeight="25" TL.SQTrackExpanded="0" MZ.TrackTargeted="1" PannerCurrentValue="0.5" PannerIsInverted="true" PannerStartKeyframe="-91445760000000000,0.5,0,0,0,0,0,0" PannerName="Balance" currentExplodedTrackIndex="1" totalExplodedTrackCount="2" premiereTrackType="Stereo">
									<enabled>TRUE</enabled>
									<locked>FALSE</locked>
									<outputchannelindex>2</outputchannelindex>
								</track>
								<track TL.SQTrackAudioKeyframeStyle="0" TL.SQTrackShy="0" TL.SQTrackExpandedHeight="25" TL.SQTrackExpanded="0" MZ.TrackTargeted="1" PannerCurrentValue="0.5" PannerIsInverted="true" PannerStartKeyframe="-91445760000000000,0.5,0,0,0,0,0,0" PannerName="Balance" currentExplodedTrackIndex="0" totalExplodedTrackCount="2" premiereTrackType="Stereo">
									<enabled>TRUE</enabled>
									<locked>FALSE</locked>
									<outputchannelindex>1</outputchannelindex>
								</track>
								<track TL.SQTrackAudioKeyframeStyle="0" TL.SQTrackShy="0" TL.SQTrackExpandedHeight="25" TL.SQTrackExpanded="0" MZ.TrackTargeted="1" PannerCurrentValue="0.5" PannerIsInverted="true" PannerStartKeyframe="-91445760000000000,0.5,0,0,0,0,0,0" PannerName="Balance" currentExplodedTrackIndex="1" totalExplodedTrackCount="2" premiereTrackType="Stereo">
									<enabled>TRUE</enabled>
									<locked>FALSE</locked>
									<outputchannelindex>2</outputchannelindex>
								</track>
							</audio>
						</media>
						<timecode>
							<rate>
								<timebase>25</timebase>
								<ntsc>FALSE</ntsc>
							</rate>
							<string>08:34:02:21</string>
							<frame>771071</frame>
							<displayformat>NDF</displayformat>
						</timecode>
						<labels>
							<label2>Forest</label2>
						</labels>
						<logginginfo>
							<description></description>
							<scene></scene>
							<shottake></shottake>
							<lognote></lognote>
							<good></good>
							<originalvideofilename></originalvideofilename>
							<originalaudiofilename></originalaudiofilename>
						</logginginfo>
					</sequence>
					<sequence id="sequence-3" TL.SQAudioVisibleBase="0" TL.SQVideoVisibleBase="0" TL.SQVisibleBaseTime="0" TL.SQAVDividerPosition="0.5" TL.SQHideShyTracks="0" TL.SQHeaderWidth="236" Monitor.ProgramZoomOut="10973491200000000" Monitor.ProgramZoomIn="0" TL.SQTimePerPixel="12.270153060431515" MZ.EditLine="9500452416000000" MZ.Sequence.PreviewFrameSizeHeight="1080" MZ.Sequence.PreviewFrameSizeWidth="1678" MZ.Sequence.AudioTimeDisplayFormat="200" MZ.Sequence.PreviewRenderingClassID="1297106761" MZ.Sequence.PreviewRenderingPresetCodec="1297107278" MZ.Sequence.PreviewRenderingPresetPath="EncoderPresets\SequencePreview\cc7991f5-c236-4db1-957e-2c71f924e81c\I-Frame Only MPEG.epr" MZ.Sequence.PreviewUseMaxRenderQuality="false" MZ.Sequence.PreviewUseMaxBitDepth="false" MZ.Sequence.EditingModeGUID="cc7991f5-c236-4db1-957e-2c71f924e81c" MZ.Sequence.VideoTimeDisplayFormat="101" MZ.WorkOutPoint="26417664000000" MZ.WorkInPoint="0" MZ.ZeroPoint="7830551232000000" explodedTracks="true">
						<uuid>c0efe5ea-e5b0-49dd-a083-4b480589b0dc</uuid>
						<duration>935025</duration>
						<rate>
							<timebase>25</timebase>
							<ntsc>FALSE</ntsc>
						</rate>
						<name>SYNC_1_AUDIO</name>
						<media>
							<video>
								<format>
									<samplecharacteristics>
										<rate>
											<timebase>25</timebase>
											<ntsc>FALSE</ntsc>
										</rate>
										<codec>
											<name>Apple ProRes 422</name>
											<appspecificdata>
												<appname>Final Cut Pro</appname>
												<appmanufacturer>Apple Inc.</appmanufacturer>
												<appversion>7.0</appversion>
												<data>
													<qtcodec>
														<codecname>Apple ProRes 422</codecname>
														<codectypename>Apple ProRes 422</codectypename>
														<codectypecode>apcn</codectypecode>
														<codecvendorcode>appl</codecvendorcode>
														<spatialquality>1024</spatialquality>
														<temporalquality>0</temporalquality>
														<keyframerate>0</keyframerate>
														<datarate>0</datarate>
													</qtcodec>
												</data>
											</appspecificdata>
										</codec>
										<width>1678</width>
										<height>1080</height>
										<anamorphic>FALSE</anamorphic>
										<pixelaspectratio>square</pixelaspectratio>
										<fielddominance>none</fielddominance>
										<colordepth>24</colordepth>
									</samplecharacteristics>
								</format>
								<track TL.SQTrackShy="0" TL.SQTrackExpandedHeight="25" TL.SQTrackExpanded="0" MZ.TrackTargeted="1">
									<enabled>TRUE</enabled>
									<locked>FALSE</locked>
								</track>
								<track TL.SQTrackShy="0" TL.SQTrackExpandedHeight="25" TL.SQTrackExpanded="0" MZ.TrackTargeted="0">
									<enabled>TRUE</enabled>
									<locked>FALSE</locked>
								</track>
								<track TL.SQTrackShy="0" TL.SQTrackExpandedHeight="25" TL.SQTrackExpanded="0" MZ.TrackTargeted="0">
									<clipitem id="clipitem-373">
										<masterclipid>masterclip-89</masterclipid>
										<name>Transparent Video</name>
										<enabled>TRUE</enabled>
										<duration>1080000</duration>
										<rate>
											<timebase>25</timebase>
											<ntsc>FALSE</ntsc>
										</rate>
										<start>0</start>
										<end>1080000</end>
										<in>90000</in>
										<out>1170000</out>
										<pproTicksIn>914457600000000</pproTicksIn>
										<pproTicksOut>11887948800000000</pproTicksOut>
										<alphatype>straight</alphatype>
										<file id="file-89"/>
										<logginginfo>
											<description></description>
											<scene></scene>
											<shottake></shottake>
											<lognote></lognote>
											<good></good>
											<originalvideofilename></originalvideofilename>
											<originalaudiofilename></originalaudiofilename>
										</logginginfo>
										<colorinfo>
											<lut></lut>
											<lut1></lut1>
											<asc_sop></asc_sop>
											<asc_sat></asc_sat>
											<lut2></lut2>
										</colorinfo>
										<labels>
											<label2>Lavender</label2>
										</labels>
									</clipitem>
									<enabled>FALSE</enabled>
									<locked>TRUE</locked>
								</track>
							</video>
							<audio>
								<numOutputChannels>2</numOutputChannels>
								<format>
									<samplecharacteristics>
										<depth>16</depth>
										<samplerate>48000</samplerate>
									</samplecharacteristics>
								</format>
								<outputs>
									<group>
										<index>1</index>
										<numchannels>1</numchannels>
										<downmix>0</downmix>
										<channel>
											<index>1</index>
										</channel>
									</group>
									<group>
										<index>2</index>
										<numchannels>1</numchannels>
										<downmix>0</downmix>
										<channel>
											<index>2</index>
										</channel>
									</group>
								</outputs>
								<track TL.SQTrackAudioKeyframeStyle="0" TL.SQTrackShy="0" TL.SQTrackExpandedHeight="25" TL.SQTrackExpanded="0" MZ.TrackTargeted="1" PannerCurrentValue="0.5" PannerIsInverted="true" PannerStartKeyframe="-91445760000000000,0.5,0,0,0,0,0,0" PannerName="Balance" currentExplodedTrackIndex="0" totalExplodedTrackCount="1" premiereTrackType="Stereo">
									<clipitem id="clipitem-374" premiereChannelType="mono">
										<masterclipid>masterclip-65</masterclipid>
										<name>3-01-1.WAV</name>
										<enabled>TRUE</enabled>
										<duration>2600</duration>
										<rate>
											<timebase>25</timebase>
											<ntsc>FALSE</ntsc>
										</rate>
										<start>0</start>
										<end>2600</end>
										<in>0</in>
										<out>2600</out>
										<pproTicksIn>0</pproTicksIn>
										<pproTicksOut>26417664000000</pproTicksOut>
										<file id="file-65"/>
										<sourcetrack>
											<mediatype>audio</mediatype>
											<trackindex>1</trackindex>
										</sourcetrack>
											<marker>
												<comment></comment>
												<name></name>
												<in>567</in>
												<out>-1</out>
												<pproColor>4281828977</pproColor>
											</marker>
											<marker>
												<comment></comment>
												<name></name>
												<in>2396</in>
												<out>-1</out>
												<pproColor>4281740498</pproColor>
											</marker>
										<link>
											<linkclipref>clipitem-374</linkclipref>
											<mediatype>audio</mediatype>
											<trackindex>1</trackindex>
											<clipindex>1</clipindex>
											<groupindex>1</groupindex>
										</link>
										<link>
											<linkclipref>clipitem-398</linkclipref>
											<mediatype>audio</mediatype>
											<trackindex>2</trackindex>
											<clipindex>1</clipindex>
											<groupindex>1</groupindex>
										</link>
										<link>
											<linkclipref>clipitem-422</linkclipref>
											<mediatype>audio</mediatype>
											<trackindex>3</trackindex>
											<clipindex>1</clipindex>
											<groupindex>1</groupindex>
										</link>
										<link>
											<linkclipref>clipitem-446</linkclipref>
											<mediatype>audio</mediatype>
											<trackindex>4</trackindex>
											<clipindex>1</clipindex>
											<groupindex>1</groupindex>
										</link>
										<link>
											<linkclipref>clipitem-470</linkclipref>
											<mediatype>audio</mediatype>
											<trackindex>5</trackindex>
											<clipindex>1</clipindex>
											<groupindex>1</groupindex>
										</link>
										<link>
											<linkclipref>clipitem-491</linkclipref>
											<mediatype>audio</mediatype>
											<trackindex>6</trackindex>
											<clipindex>1</clipindex>
											<groupindex>1</groupindex>
										</link>
										<logginginfo>
											<description></description>
											<scene>3-01</scene>
											<shottake></shottake>
											<lognote></lognote>
											<good></good>
											<originalvideofilename></originalvideofilename>
											<originalaudiofilename></originalaudiofilename>
										</logginginfo>
										<colorinfo>
											<lut></lut>
											<lut1></lut1>
											<asc_sop></asc_sop>
											<asc_sat></asc_sat>
											<lut2></lut2>
										</colorinfo>
										<labels>
											<label2>Mango</label2>
										</labels>
									</clipitem>
									<clipitem id="clipitem-375" premiereChannelType="mono">
										<masterclipid>masterclip-66</masterclipid>
										<name>3-01-2.WAV</name>
										<enabled>TRUE</enabled>
										<duration>2650</duration>
										<rate>
											<timebase>25</timebase>
											<ntsc>FALSE</ntsc>
										</rate>
										<start>4675</start>
										<end>7325</end>
										<in>0</in>
										<out>2650</out>
										<pproTicksIn>0</pproTicksIn>
										<pproTicksOut>26925696000000</pproTicksOut>
										<file id="file-66"/>
										<sourcetrack>
											<mediatype>audio</mediatype>
											<trackindex>1</trackindex>
										</sourcetrack>
											<marker>
												<comment></comment>
												<name></name>
												<in>312</in>
												<out>-1</out>
												<pproColor>4281828977</pproColor>
											</marker>
											<marker>
												<comment></comment>
												<name></name>
												<in>2443</in>
												<out>-1</out>
												<pproColor>4281740498</pproColor>
											</marker>
										<link>
											<linkclipref>clipitem-375</linkclipref>
											<mediatype>audio</mediatype>
											<trackindex>1</trackindex>
											<clipindex>2</clipindex>
											<groupindex>1</groupindex>
										</link>
										<link>
											<linkclipref>clipitem-399</linkclipref>
											<mediatype>audio</mediatype>
											<trackindex>2</trackindex>
											<clipindex>2</clipindex>
											<groupindex>1</groupindex>
										</link>
										<link>
											<linkclipref>clipitem-423</linkclipref>
											<mediatype>audio</mediatype>
											<trackindex>3</trackindex>
											<clipindex>2</clipindex>
											<groupindex>1</groupindex>
										</link>
										<link>
											<linkclipref>clipitem-447</linkclipref>
											<mediatype>audio</mediatype>
											<trackindex>4</trackindex>
											<clipindex>2</clipindex>
											<groupindex>1</groupindex>
										</link>
										<link>
											<linkclipref>clipitem-471</linkclipref>
											<mediatype>audio</mediatype>
											<trackindex>5</trackindex>
											<clipindex>2</clipindex>
											<groupindex>1</groupindex>
										</link>
										<link>
											<linkclipref>clipitem-492</linkclipref>
											<mediatype>audio</mediatype>
											<trackindex>6</trackindex>
											<clipindex>2</clipindex>
											<groupindex>1</groupindex>
										</link>
										<logginginfo>
											<description></description>
											<scene>3-01</scene>
											<shottake></shottake>
											<lognote></lognote>
											<good></good>
											<originalvideofilename></originalvideofilename>
											<originalaudiofilename></originalaudiofilename>
										</logginginfo>
										<colorinfo>
											<lut></lut>
											<lut1></lut1>
											<asc_sop></asc_sop>
											<asc_sat></asc_sat>
											<lut2></lut2>
										</colorinfo>
										<labels>
											<label2>Mango</label2>
										</labels>
									</clipitem>
									<clipitem id="clipitem-376" premiereChannelType="mono">
										<masterclipid>masterclip-67</masterclipid>
										<name>3-02-1.WAV</name>
										<enabled>TRUE</enabled>
										<duration>2725</duration>
										<rate>
											<timebase>25</timebase>
											<ntsc>FALSE</ntsc>
										</rate>
										<start>41575</start>
										<end>44300</end>
										<in>0</in>
										<out>2725</out>
										<pproTicksIn>0</pproTicksIn>
										<pproTicksOut>27687744000000</pproTicksOut>
										<file id="file-67"/>
										<sourcetrack>
											<mediatype>audio</mediatype>
											<trackindex>1</trackindex>
										</sourcetrack>
											<marker>
												<comment></comment>
												<name></name>
												<in>556</in>
												<out>-1</out>
												<pproColor>4281828977</pproColor>
											</marker>
											<marker>
												<comment></comment>
												<name></name>
												<in>2558</in>
												<out>-1</out>
												<pproColor>4281740498</pproColor>
											</marker>
										<link>
											<linkclipref>clipitem-376</linkclipref>
											<mediatype>audio</mediatype>
											<trackindex>1</trackindex>
											<clipindex>3</clipindex>
											<groupindex>1</groupindex>
										</link>
										<link>
											<linkclipref>clipitem-400</linkclipref>
											<mediatype>audio</mediatype>
											<trackindex>2</trackindex>
											<clipindex>3</clipindex>
											<groupindex>1</groupindex>
										</link>
										<link>
											<linkclipref>clipitem-424</linkclipref>
											<mediatype>audio</mediatype>
											<trackindex>3</trackindex>
											<clipindex>3</clipindex>
											<groupindex>1</groupindex>
										</link>
										<link>
											<linkclipref>clipitem-448</linkclipref>
											<mediatype>audio</mediatype>
											<trackindex>4</trackindex>
											<clipindex>3</clipindex>
											<groupindex>1</groupindex>
										</link>
										<link>
											<linkclipref>clipitem-472</linkclipref>
											<mediatype>audio</mediatype>
											<trackindex>5</trackindex>
											<clipindex>3</clipindex>
											<groupindex>1</groupindex>
										</link>
										<link>
											<linkclipref>clipitem-493</linkclipref>
											<mediatype>audio</mediatype>
											<trackindex>6</trackindex>
											<clipindex>3</clipindex>
											<groupindex>1</groupindex>
										</link>
										<logginginfo>
											<description></description>
											<scene>3-02</scene>
											<shottake></shottake>
											<lognote></lognote>
											<good></good>
											<originalvideofilename></originalvideofilename>
											<originalaudiofilename></originalaudiofilename>
										</logginginfo>
										<colorinfo>
											<lut></lut>
											<lut1></lut1>
											<asc_sop></asc_sop>
											<asc_sat></asc_sat>
											<lut2></lut2>
										</colorinfo>
										<labels>
											<label2>Mango</label2>
										</labels>
									</clipitem>
									<clipitem id="clipitem-377" premiereChannelType="mono">
										<masterclipid>masterclip-68</masterclipid>
										<name>3-03-1.WAV</name>
										<enabled>TRUE</enabled>
										<duration>2200</duration>
										<rate>
											<timebase>25</timebase>
											<ntsc>FALSE</ntsc>
										</rate>
										<start>73850</start>
										<end>76050</end>
										<in>0</in>
										<out>2200</out>
										<pproTicksIn>0</pproTicksIn>
										<pproTicksOut>22353408000000</pproTicksOut>
										<file id="file-68"/>
										<sourcetrack>
											<mediatype>audio</mediatype>
											<trackindex>1</trackindex>
										</sourcetrack>
											<marker>
												<comment></comment>
												<name></name>
												<in>526</in>
												<out>-1</out>
												<pproColor>4281828977</pproColor>
											</marker>
											<marker>
												<comment></comment>
												<name></name>
												<in>1898</in>
												<out>-1</out>
												<pproColor>4281740498</pproColor>
											</marker>
										<link>
											<linkclipref>clipitem-377</linkclipref>
											<mediatype>audio</mediatype>
											<trackindex>1</trackindex>
											<clipindex>4</clipindex>
											<groupindex>1</groupindex>
										</link>
										<link>
											<linkclipref>clipitem-401</linkclipref>
											<mediatype>audio</mediatype>
											<trackindex>2</trackindex>
											<clipindex>4</clipindex>
											<groupindex>1</groupindex>
										</link>
										<link>
											<linkclipref>clipitem-425</linkclipref>
											<mediatype>audio</mediatype>
											<trackindex>3</trackindex>
											<clipindex>4</clipindex>
											<groupindex>1</groupindex>
										</link>
										<link>
											<linkclipref>clipitem-449</linkclipref>
											<mediatype>audio</mediatype>
											<trackindex>4</trackindex>
											<clipindex>4</clipindex>
											<groupindex>1</groupindex>
										</link>
										<link>
											<linkclipref>clipitem-473</linkclipref>
											<mediatype>audio</mediatype>
											<trackindex>5</trackindex>
											<clipindex>4</clipindex>
											<groupindex>1</groupindex>
										</link>
										<link>
											<linkclipref>clipitem-494</linkclipref>
											<mediatype>audio</mediatype>
											<trackindex>6</trackindex>
											<clipindex>4</clipindex>
											<groupindex>1</groupindex>
										</link>
										<logginginfo>
											<description></description>
											<scene>3-03</scene>
											<shottake></shottake>
											<lognote></lognote>
											<good></good>
											<originalvideofilename></originalvideofilename>
											<originalaudiofilename></originalaudiofilename>
										</logginginfo>
										<colorinfo>
											<lut></lut>
											<lut1></lut1>
											<asc_sop></asc_sop>
											<asc_sat></asc_sat>
											<lut2></lut2>
										</colorinfo>
										<labels>
											<label2>Mango</label2>
										</labels>
									</clipitem>
									<clipitem id="clipitem-378" premiereChannelType="mono">
										<masterclipid>masterclip-69</masterclipid>
										<name>3-ATMOS-1.WAV</name>
										<enabled>TRUE</enabled>
										<duration>2950</duration>
										<rate>
											<timebase>25</timebase>
											<ntsc>FALSE</ntsc>
										</rate>
										<start>112025</start>
										<end>114975</end>
										<in>0</in>
										<out>2950</out>
										<pproTicksIn>0</pproTicksIn>
										<pproTicksOut>29973888000000</pproTicksOut>
										<file id="file-69"/>
										<sourcetrack>
											<mediatype>audio</mediatype>
											<trackindex>1</trackindex>
										</sourcetrack>
										<link>
											<linkclipref>clipitem-378</linkclipref>
											<mediatype>audio</mediatype>
											<trackindex>1</trackindex>
											<clipindex>5</clipindex>
											<groupindex>1</groupindex>
										</link>
										<link>
											<linkclipref>clipitem-402</linkclipref>
											<mediatype>audio</mediatype>
											<trackindex>2</trackindex>
											<clipindex>5</clipindex>
											<groupindex>1</groupindex>
										</link>
										<link>
											<linkclipref>clipitem-426</linkclipref>
											<mediatype>audio</mediatype>
											<trackindex>3</trackindex>
											<clipindex>5</clipindex>
											<groupindex>1</groupindex>
										</link>
										<link>
											<linkclipref>clipitem-450</linkclipref>
											<mediatype>audio</mediatype>
											<trackindex>4</trackindex>
											<clipindex>5</clipindex>
											<groupindex>1</groupindex>
										</link>
										<link>
											<linkclipref>clipitem-474</linkclipref>
											<mediatype>audio</mediatype>
											<trackindex>5</trackindex>
											<clipindex>5</clipindex>
											<groupindex>1</groupindex>
										</link>
										<link>
											<linkclipref>clipitem-495</linkclipref>
											<mediatype>audio</mediatype>
											<trackindex>6</trackindex>
											<clipindex>5</clipindex>
											<groupindex>1</groupindex>
										</link>
										<logginginfo>
											<description></description>
											<scene>3-ATMOS</scene>
											<shottake></shottake>
											<lognote></lognote>
											<good></good>
											<originalvideofilename></originalvideofilename>
											<originalaudiofilename></originalaudiofilename>
										</logginginfo>
										<colorinfo>
											<lut></lut>
											<lut1></lut1>
											<asc_sop></asc_sop>
											<asc_sat></asc_sat>
											<lut2></lut2>
										</colorinfo>
										<labels>
											<label2>Mango</label2>
										</labels>
									</clipitem>
									<clipitem id="clipitem-379" premiereChannelType="mono">
										<masterclipid>masterclip-88</masterclipid>
										<name>ATMOS_CHURCH-1.WAV</name>
										<enabled>TRUE</enabled>
										<duration>2975</duration>
										<rate>
											<timebase>25</timebase>
											<ntsc>FALSE</ntsc>
										</rate>
										<start>253275</start>
										<end>256250</end>
										<in>0</in>
										<out>2975</out>
										<pproTicksIn>0</pproTicksIn>
										<pproTicksOut>30227904000000</pproTicksOut>
										<file id="file-88"/>
										<sourcetrack>
											<mediatype>audio</mediatype>
											<trackindex>1</trackindex>
										</sourcetrack>
										<link>
											<linkclipref>clipitem-379</linkclipref>
											<mediatype>audio</mediatype>
											<trackindex>1</trackindex>
											<clipindex>6</clipindex>
											<groupindex>1</groupindex>
										</link>
										<link>
											<linkclipref>clipitem-403</linkclipref>
											<mediatype>audio</mediatype>
											<trackindex>2</trackindex>
											<clipindex>6</clipindex>
											<groupindex>1</groupindex>
										</link>
										<link>
											<linkclipref>clipitem-427</linkclipref>
											<mediatype>audio</mediatype>
											<trackindex>3</trackindex>
											<clipindex>6</clipindex>
											<groupindex>1</groupindex>
										</link>
										<link>
											<linkclipref>clipitem-451</linkclipref>
											<mediatype>audio</mediatype>
											<trackindex>4</trackindex>
											<clipindex>6</clipindex>
											<groupindex>1</groupindex>
										</link>
										<link>
											<linkclipref>clipitem-475</linkclipref>
											<mediatype>audio</mediatype>
											<trackindex>5</trackindex>
											<clipindex>6</clipindex>
											<groupindex>1</groupindex>
										</link>
										<link>
											<linkclipref>clipitem-496</linkclipref>
											<mediatype>audio</mediatype>
											<trackindex>6</trackindex>
											<clipindex>6</clipindex>
											<groupindex>1</groupindex>
										</link>
										<logginginfo>
											<description></description>
											<scene>ATMOS_CHURCH</scene>
											<shottake></shottake>
											<lognote></lognote>
											<good></good>
											<originalvideofilename></originalvideofilename>
											<originalaudiofilename></originalaudiofilename>
										</logginginfo>
										<colorinfo>
											<lut></lut>
											<lut1></lut1>
											<asc_sop></asc_sop>
											<asc_sat></asc_sat>
											<lut2></lut2>
										</colorinfo>
										<labels>
											<label2>Mango</label2>
										</labels>
									</clipitem>
									<clipitem id="clipitem-380" premiereChannelType="mono">
										<masterclipid>masterclip-79</masterclipid>
										<name>12-01-1.WAV</name>
										<enabled>TRUE</enabled>
										<duration>3200</duration>
										<rate>
											<timebase>25</timebase>
											<ntsc>FALSE</ntsc>
										</rate>
										<start>458975</start>
										<end>462175</end>
										<in>0</in>
										<out>3200</out>
										<pproTicksIn>0</pproTicksIn>
										<pproTicksOut>32514048000000</pproTicksOut>
										<file id="file-79"/>
										<sourcetrack>
											<mediatype>audio</mediatype>
											<trackindex>1</trackindex>
										</sourcetrack>
											<marker>
												<comment></comment>
												<name></name>
												<in>845</in>
												<out>-1</out>
												<pproColor>4281828977</pproColor>
											</marker>
											<marker>
												<comment></comment>
												<name></name>
												<in>3026</in>
												<out>-1</out>
												<pproColor>4281740498</pproColor>
											</marker>
										<link>
											<linkclipref>clipitem-380</linkclipref>
											<mediatype>audio</mediatype>
											<trackindex>1</trackindex>
											<clipindex>7</clipindex>
											<groupindex>1</groupindex>
										</link>
										<link>
											<linkclipref>clipitem-404</linkclipref>
											<mediatype>audio</mediatype>
											<trackindex>2</trackindex>
											<clipindex>7</clipindex>
											<groupindex>1</groupindex>
										</link>
										<link>
											<linkclipref>clipitem-428</linkclipref>
											<mediatype>audio</mediatype>
											<trackindex>3</trackindex>
											<clipindex>7</clipindex>
											<groupindex>1</groupindex>
										</link>
										<link>
											<linkclipref>clipitem-452</linkclipref>
											<mediatype>audio</mediatype>
											<trackindex>4</trackindex>
											<clipindex>7</clipindex>
											<groupindex>1</groupindex>
										</link>
										<link>
											<linkclipref>clipitem-476</linkclipref>
											<mediatype>audio</mediatype>
											<trackindex>5</trackindex>
											<clipindex>7</clipindex>
											<groupindex>1</groupindex>
										</link>
										<link>
											<linkclipref>clipitem-497</linkclipref>
											<mediatype>audio</mediatype>
											<trackindex>6</trackindex>
											<clipindex>7</clipindex>
											<groupindex>1</groupindex>
										</link>
										<link>
											<linkclipref>clipitem-512</linkclipref>
											<mediatype>audio</mediatype>
											<trackindex>7</trackindex>
											<clipindex>1</clipindex>
											<groupindex>1</groupindex>
										</link>
										<link>
											<linkclipref>clipitem-524</linkclipref>
											<mediatype>audio</mediatype>
											<trackindex>8</trackindex>
											<clipindex>1</clipindex>
											<groupindex>1</groupindex>
										</link>
										<logginginfo>
											<description></description>
											<scene>12-01</scene>
											<shottake></shottake>
											<lognote></lognote>
											<good></good>
											<originalvideofilename></originalvideofilename>
											<originalaudiofilename></originalaudiofilename>
										</logginginfo>
										<colorinfo>
											<lut></lut>
											<lut1></lut1>
											<asc_sop></asc_sop>
											<asc_sat></asc_sat>
											<lut2></lut2>
										</colorinfo>
										<labels>
											<label2>Mango</label2>
										</labels>
									</clipitem>
									<clipitem id="clipitem-381" premiereChannelType="mono">
										<masterclipid>masterclip-80</masterclipid>
										<name>12-01-2.WAV</name>
										<enabled>TRUE</enabled>
										<duration>1500</duration>
										<rate>
											<timebase>25</timebase>
											<ntsc>FALSE</ntsc>
										</rate>
										<start>467225</start>
										<end>468725</end>
										<in>0</in>
										<out>1500</out>
										<pproTicksIn>0</pproTicksIn>
										<pproTicksOut>15240960000000</pproTicksOut>
										<file id="file-80"/>
										<sourcetrack>
											<mediatype>audio</mediatype>
											<trackindex>1</trackindex>
										</sourcetrack>
											<marker>
												<comment></comment>
												<name></name>
												<in>726</in>
												<out>-1</out>
											</marker>
										<link>
											<linkclipref>clipitem-381</linkclipref>
											<mediatype>audio</mediatype>
											<trackindex>1</trackindex>
											<clipindex>8</clipindex>
											<groupindex>1</groupindex>
										</link>
										<link>
											<linkclipref>clipitem-405</linkclipref>
											<mediatype>audio</mediatype>
											<trackindex>2</trackindex>
											<clipindex>8</clipindex>
											<groupindex>1</groupindex>
										</link>
										<link>
											<linkclipref>clipitem-429</linkclipref>
											<mediatype>audio</mediatype>
											<trackindex>3</trackindex>
											<clipindex>8</clipindex>
											<groupindex>1</groupindex>
										</link>
										<link>
											<linkclipref>clipitem-453</linkclipref>
											<mediatype>audio</mediatype>
											<trackindex>4</trackindex>
											<clipindex>8</clipindex>
											<groupindex>1</groupindex>
										</link>
										<link>
											<linkclipref>clipitem-477</linkclipref>
											<mediatype>audio</mediatype>
											<trackindex>5</trackindex>
											<clipindex>8</clipindex>
											<groupindex>1</groupindex>
										</link>
										<link>
											<linkclipref>clipitem-498</linkclipref>
											<mediatype>audio</mediatype>
											<trackindex>6</trackindex>
											<clipindex>8</clipindex>
											<groupindex>1</groupindex>
										</link>
										<link>
											<linkclipref>clipitem-513</linkclipref>
											<mediatype>audio</mediatype>
											<trackindex>7</trackindex>
											<clipindex>2</clipindex>
											<groupindex>1</groupindex>
										</link>
										<link>
											<linkclipref>clipitem-525</linkclipref>
											<mediatype>audio</mediatype>
											<trackindex>8</trackindex>
											<clipindex>2</clipindex>
											<groupindex>1</groupindex>
										</link>
										<logginginfo>
											<description></description>
											<scene>12-01</scene>
											<shottake></shottake>
											<lognote></lognote>
											<good></good>
											<originalvideofilename></originalvideofilename>
											<originalaudiofilename></originalaudiofilename>
										</logginginfo>
										<colorinfo>
											<lut></lut>
											<lut1></lut1>
											<asc_sop></asc_sop>
											<asc_sat></asc_sat>
											<lut2></lut2>
										</colorinfo>
										<labels>
											<label2>Mango</label2>
										</labels>
									</clipitem>
									<clipitem id="clipitem-382" premiereChannelType="mono">
										<masterclipid>masterclip-81</masterclipid>
										<name>12-01-3.WAV</name>
										<enabled>TRUE</enabled>
										<duration>3275</duration>
										<rate>
											<timebase>25</timebase>
											<ntsc>FALSE</ntsc>
										</rate>
										<start>469925</start>
										<end>473200</end>
										<in>0</in>
										<out>3275</out>
										<pproTicksIn>0</pproTicksIn>
										<pproTicksOut>33276096000000</pproTicksOut>
										<file id="file-81"/>
										<sourcetrack>
											<mediatype>audio</mediatype>
											<trackindex>1</trackindex>
										</sourcetrack>
										<link>
											<linkclipref>clipitem-382</linkclipref>
											<mediatype>audio</mediatype>
											<trackindex>1</trackindex>
											<clipindex>9</clipindex>
											<groupindex>1</groupindex>
										</link>
										<link>
											<linkclipref>clipitem-406</linkclipref>
											<mediatype>audio</mediatype>
											<trackindex>2</trackindex>
											<clipindex>9</clipindex>
											<groupindex>1</groupindex>
										</link>
										<link>
											<linkclipref>clipitem-430</linkclipref>
											<mediatype>audio</mediatype>
											<trackindex>3</trackindex>
											<clipindex>9</clipindex>
											<groupindex>1</groupindex>
										</link>
										<link>
											<linkclipref>clipitem-454</linkclipref>
											<mediatype>audio</mediatype>
											<trackindex>4</trackindex>
											<clipindex>9</clipindex>
											<groupindex>1</groupindex>
										</link>
										<link>
											<linkclipref>clipitem-478</linkclipref>
											<mediatype>audio</mediatype>
											<trackindex>5</trackindex>
											<clipindex>9</clipindex>
											<groupindex>1</groupindex>
										</link>
										<link>
											<linkclipref>clipitem-499</linkclipref>
											<mediatype>audio</mediatype>
											<trackindex>6</trackindex>
											<clipindex>9</clipindex>
											<groupindex>1</groupindex>
										</link>
										<link>
											<linkclipref>clipitem-514</linkclipref>
											<mediatype>audio</mediatype>
											<trackindex>7</trackindex>
											<clipindex>3</clipindex>
											<groupindex>1</groupindex>
										</link>
										<link>
											<linkclipref>clipitem-526</linkclipref>
											<mediatype>audio</mediatype>
											<trackindex>8</trackindex>
											<clipindex>3</clipindex>
											<groupindex>1</groupindex>
										</link>
										<logginginfo>
											<description></description>
											<scene>12-01</scene>
											<shottake></shottake>
											<lognote></lognote>
											<good></good>
											<originalvideofilename></originalvideofilename>
											<originalaudiofilename></originalaudiofilename>
										</logginginfo>
										<colorinfo>
											<lut></lut>
											<lut1></lut1>
											<asc_sop></asc_sop>
											<asc_sat></asc_sat>
											<lut2></lut2>
										</colorinfo>
										<labels>
											<label2>Mango</label2>
										</labels>
									</clipitem>
									<clipitem id="clipitem-383" premiereChannelType="mono">
										<masterclipid>masterclip-82</masterclipid>
										<name>12-01-4.WAV</name>
										<enabled>TRUE</enabled>
										<duration>3975</duration>
										<rate>
											<timebase>25</timebase>
											<ntsc>FALSE</ntsc>
										</rate>
										<start>474625</start>
										<end>478600</end>
										<in>0</in>
										<out>3975</out>
										<pproTicksIn>0</pproTicksIn>
										<pproTicksOut>40388544000000</pproTicksOut>
										<file id="file-82"/>
										<sourcetrack>
											<mediatype>audio</mediatype>
											<trackindex>1</trackindex>
										</sourcetrack>
										<link>
											<linkclipref>clipitem-383</linkclipref>
											<mediatype>audio</mediatype>
											<trackindex>1</trackindex>
											<clipindex>10</clipindex>
											<groupindex>1</groupindex>
										</link>
										<link>
											<linkclipref>clipitem-407</linkclipref>
											<mediatype>audio</mediatype>
											<trackindex>2</trackindex>
											<clipindex>10</clipindex>
											<groupindex>1</groupindex>
										</link>
										<link>
											<linkclipref>clipitem-431</linkclipref>
											<mediatype>audio</mediatype>
											<trackindex>3</trackindex>
											<clipindex>10</clipindex>
											<groupindex>1</groupindex>
										</link>
										<link>
											<linkclipref>clipitem-455</linkclipref>
											<mediatype>audio</mediatype>
											<trackindex>4</trackindex>
											<clipindex>10</clipindex>
											<groupindex>1</groupindex>
										</link>
										<link>
											<linkclipref>clipitem-479</linkclipref>
											<mediatype>audio</mediatype>
											<trackindex>5</trackindex>
											<clipindex>10</clipindex>
											<groupindex>1</groupindex>
										</link>
										<link>
											<linkclipref>clipitem-500</linkclipref>
											<mediatype>audio</mediatype>
											<trackindex>6</trackindex>
											<clipindex>10</clipindex>
											<groupindex>1</groupindex>
										</link>
										<link>
											<linkclipref>clipitem-515</linkclipref>
											<mediatype>audio</mediatype>
											<trackindex>7</trackindex>
											<clipindex>4</clipindex>
											<groupindex>1</groupindex>
										</link>
										<link>
											<linkclipref>clipitem-527</linkclipref>
											<mediatype>audio</mediatype>
											<trackindex>8</trackindex>
											<clipindex>4</clipindex>
											<groupindex>1</groupindex>
										</link>
										<logginginfo>
											<description></description>
											<scene>12-01</scene>
											<shottake></shottake>
											<lognote></lognote>
											<good></good>
											<originalvideofilename></originalvideofilename>
											<originalaudiofilename></originalaudiofilename>
										</logginginfo>
										<colorinfo>
											<lut></lut>
											<lut1></lut1>
											<asc_sop></asc_sop>
											<asc_sat></asc_sat>
											<lut2></lut2>
										</colorinfo>
										<labels>
											<label2>Mango</label2>
										</labels>
									</clipitem>
									<clipitem id="clipitem-384" premiereChannelType="mono">
										<masterclipid>masterclip-83</masterclipid>
										<name>12-01-5.WAV</name>
										<enabled>TRUE</enabled>
										<duration>3375</duration>
										<rate>
											<timebase>25</timebase>
											<ntsc>FALSE</ntsc>
										</rate>
										<start>481250</start>
										<end>484625</end>
										<in>0</in>
										<out>3375</out>
										<pproTicksIn>0</pproTicksIn>
										<pproTicksOut>34292160000000</pproTicksOut>
										<file id="file-83"/>
										<sourcetrack>
											<mediatype>audio</mediatype>
											<trackindex>1</trackindex>
										</sourcetrack>
										<link>
											<linkclipref>clipitem-384</linkclipref>
											<mediatype>audio</mediatype>
											<trackindex>1</trackindex>
											<clipindex>11</clipindex>
											<groupindex>1</groupindex>
										</link>
										<link>
											<linkclipref>clipitem-408</linkclipref>
											<mediatype>audio</mediatype>
											<trackindex>2</trackindex>
											<clipindex>11</clipindex>
											<groupindex>1</groupindex>
										</link>
										<link>
											<linkclipref>clipitem-432</linkclipref>
											<mediatype>audio</mediatype>
											<trackindex>3</trackindex>
											<clipindex>11</clipindex>
											<groupindex>1</groupindex>
										</link>
										<link>
											<linkclipref>clipitem-456</linkclipref>
											<mediatype>audio</mediatype>
											<trackindex>4</trackindex>
											<clipindex>11</clipindex>
											<groupindex>1</groupindex>
										</link>
										<link>
											<linkclipref>clipitem-480</linkclipref>
											<mediatype>audio</mediatype>
											<trackindex>5</trackindex>
											<clipindex>11</clipindex>
											<groupindex>1</groupindex>
										</link>
										<link>
											<linkclipref>clipitem-501</linkclipref>
											<mediatype>audio</mediatype>
											<trackindex>6</trackindex>
											<clipindex>11</clipindex>
											<groupindex>1</groupindex>
										</link>
										<link>
											<linkclipref>clipitem-516</linkclipref>
											<mediatype>audio</mediatype>
											<trackindex>7</trackindex>
											<clipindex>5</clipindex>
											<groupindex>1</groupindex>
										</link>
										<link>
											<linkclipref>clipitem-528</linkclipref>
											<mediatype>audio</mediatype>
											<trackindex>8</trackindex>
											<clipindex>5</clipindex>
											<groupindex>1</groupindex>
										</link>
										<logginginfo>
											<description></description>
											<scene>12-01</scene>
											<shottake></shottake>
											<lognote></lognote>
											<good></good>
											<originalvideofilename></originalvideofilename>
											<originalaudiofilename></originalaudiofilename>
										</logginginfo>
										<colorinfo>
											<lut></lut>
											<lut1></lut1>
											<asc_sop></asc_sop>
											<asc_sat></asc_sat>
											<lut2></lut2>
										</colorinfo>
										<labels>
											<label2>Mango</label2>
										</labels>
									</clipitem>
									<clipitem id="clipitem-385" premiereChannelType="mono">
										<masterclipid>masterclip-84</masterclipid>
										<name>12-02-1.WAV</name>
										<enabled>TRUE</enabled>
										<duration>2900</duration>
										<rate>
											<timebase>25</timebase>
											<ntsc>FALSE</ntsc>
										</rate>
										<start>509850</start>
										<end>512750</end>
										<in>0</in>
										<out>2900</out>
										<pproTicksIn>0</pproTicksIn>
										<pproTicksOut>29465856000000</pproTicksOut>
										<file id="file-84"/>
										<sourcetrack>
											<mediatype>audio</mediatype>
											<trackindex>1</trackindex>
										</sourcetrack>
										<link>
											<linkclipref>clipitem-385</linkclipref>
											<mediatype>audio</mediatype>
											<trackindex>1</trackindex>
											<clipindex>12</clipindex>
											<groupindex>1</groupindex>
										</link>
										<link>
											<linkclipref>clipitem-409</linkclipref>
											<mediatype>audio</mediatype>
											<trackindex>2</trackindex>
											<clipindex>12</clipindex>
											<groupindex>1</groupindex>
										</link>
										<link>
											<linkclipref>clipitem-433</linkclipref>
											<mediatype>audio</mediatype>
											<trackindex>3</trackindex>
											<clipindex>12</clipindex>
											<groupindex>1</groupindex>
										</link>
										<link>
											<linkclipref>clipitem-457</linkclipref>
											<mediatype>audio</mediatype>
											<trackindex>4</trackindex>
											<clipindex>12</clipindex>
											<groupindex>1</groupindex>
										</link>
										<link>
											<linkclipref>clipitem-481</linkclipref>
											<mediatype>audio</mediatype>
											<trackindex>5</trackindex>
											<clipindex>12</clipindex>
											<groupindex>1</groupindex>
										</link>
										<link>
											<linkclipref>clipitem-502</linkclipref>
											<mediatype>audio</mediatype>
											<trackindex>6</trackindex>
											<clipindex>12</clipindex>
											<groupindex>1</groupindex>
										</link>
										<logginginfo>
											<description></description>
											<scene>12-02</scene>
											<shottake></shottake>
											<lognote></lognote>
											<good></good>
											<originalvideofilename></originalvideofilename>
											<originalaudiofilename></originalaudiofilename>
										</logginginfo>
										<colorinfo>
											<lut></lut>
											<lut1></lut1>
											<asc_sop></asc_sop>
											<asc_sat></asc_sat>
											<lut2></lut2>
										</colorinfo>
										<labels>
											<label2>Mango</label2>
										</labels>
									</clipitem>
									<clipitem id="clipitem-386" premiereChannelType="mono">
										<masterclipid>masterclip-85</masterclipid>
										<name>12-02-2.WAV</name>
										<enabled>TRUE</enabled>
										<duration>2100</duration>
										<rate>
											<timebase>25</timebase>
											<ntsc>FALSE</ntsc>
										</rate>
										<start>513550</start>
										<end>515650</end>
										<in>0</in>
										<out>2100</out>
										<pproTicksIn>0</pproTicksIn>
										<pproTicksOut>21337344000000</pproTicksOut>
										<file id="file-85"/>
										<sourcetrack>
											<mediatype>audio</mediatype>
											<trackindex>1</trackindex>
										</sourcetrack>
										<link>
											<linkclipref>clipitem-386</linkclipref>
											<mediatype>audio</mediatype>
											<trackindex>1</trackindex>
											<clipindex>13</clipindex>
											<groupindex>1</groupindex>
										</link>
										<link>
											<linkclipref>clipitem-410</linkclipref>
											<mediatype>audio</mediatype>
											<trackindex>2</trackindex>
											<clipindex>13</clipindex>
											<groupindex>1</groupindex>
										</link>
										<link>
											<linkclipref>clipitem-434</linkclipref>
											<mediatype>audio</mediatype>
											<trackindex>3</trackindex>
											<clipindex>13</clipindex>
											<groupindex>1</groupindex>
										</link>
										<link>
											<linkclipref>clipitem-458</linkclipref>
											<mediatype>audio</mediatype>
											<trackindex>4</trackindex>
											<clipindex>13</clipindex>
											<groupindex>1</groupindex>
										</link>
										<link>
											<linkclipref>clipitem-482</linkclipref>
											<mediatype>audio</mediatype>
											<trackindex>5</trackindex>
											<clipindex>13</clipindex>
											<groupindex>1</groupindex>
										</link>
										<link>
											<linkclipref>clipitem-503</linkclipref>
											<mediatype>audio</mediatype>
											<trackindex>6</trackindex>
											<clipindex>13</clipindex>
											<groupindex>1</groupindex>
										</link>
										<logginginfo>
											<description></description>
											<scene>12-02</scene>
											<shottake></shottake>
											<lognote></lognote>
											<good></good>
											<originalvideofilename></originalvideofilename>
											<originalaudiofilename></originalaudiofilename>
										</logginginfo>
										<colorinfo>
											<lut></lut>
											<lut1></lut1>
											<asc_sop></asc_sop>
											<asc_sat></asc_sat>
											<lut2></lut2>
										</colorinfo>
										<labels>
											<label2>Mango</label2>
										</labels>
									</clipitem>
									<clipitem id="clipitem-387" premiereChannelType="mono">
										<masterclipid>masterclip-75</masterclipid>
										<name>6-01-1.WAV</name>
										<enabled>TRUE</enabled>
										<duration>4775</duration>
										<rate>
											<timebase>25</timebase>
											<ntsc>FALSE</ntsc>
										</rate>
										<start>769325</start>
										<end>774100</end>
										<in>0</in>
										<out>4775</out>
										<pproTicksIn>0</pproTicksIn>
										<pproTicksOut>48517056000000</pproTicksOut>
										<file id="file-75"/>
										<sourcetrack>
											<mediatype>audio</mediatype>
											<trackindex>1</trackindex>
										</sourcetrack>
										<link>
											<linkclipref>clipitem-387</linkclipref>
											<mediatype>audio</mediatype>
											<trackindex>1</trackindex>
											<clipindex>14</clipindex>
											<groupindex>1</groupindex>
										</link>
										<link>
											<linkclipref>clipitem-411</linkclipref>
											<mediatype>audio</mediatype>
											<trackindex>2</trackindex>
											<clipindex>14</clipindex>
											<groupindex>1</groupindex>
										</link>
										<link>
											<linkclipref>clipitem-435</linkclipref>
											<mediatype>audio</mediatype>
											<trackindex>3</trackindex>
											<clipindex>14</clipindex>
											<groupindex>1</groupindex>
										</link>
										<link>
											<linkclipref>clipitem-459</linkclipref>
											<mediatype>audio</mediatype>
											<trackindex>4</trackindex>
											<clipindex>14</clipindex>
											<groupindex>1</groupindex>
										</link>
										<link>
											<linkclipref>clipitem-483</linkclipref>
											<mediatype>audio</mediatype>
											<trackindex>5</trackindex>
											<clipindex>14</clipindex>
											<groupindex>1</groupindex>
										</link>
										<link>
											<linkclipref>clipitem-504</linkclipref>
											<mediatype>audio</mediatype>
											<trackindex>6</trackindex>
											<clipindex>14</clipindex>
											<groupindex>1</groupindex>
										</link>
										<link>
											<linkclipref>clipitem-517</linkclipref>
											<mediatype>audio</mediatype>
											<trackindex>7</trackindex>
											<clipindex>6</clipindex>
											<groupindex>1</groupindex>
										</link>
										<link>
											<linkclipref>clipitem-529</linkclipref>
											<mediatype>audio</mediatype>
											<trackindex>8</trackindex>
											<clipindex>6</clipindex>
											<groupindex>1</groupindex>
										</link>
										<logginginfo>
											<description></description>
											<scene>6-01</scene>
											<shottake></shottake>
											<lognote></lognote>
											<good></good>
											<originalvideofilename></originalvideofilename>
											<originalaudiofilename></originalaudiofilename>
										</logginginfo>
										<colorinfo>
											<lut></lut>
											<lut1></lut1>
											<asc_sop></asc_sop>
											<asc_sat></asc_sat>
											<lut2></lut2>
										</colorinfo>
										<labels>
											<label2>Mango</label2>
										</labels>
									</clipitem>
									<clipitem id="clipitem-388" premiereChannelType="mono">
										<masterclipid>masterclip-76</masterclipid>
										<name>6-01-2.WAV</name>
										<enabled>TRUE</enabled>
										<duration>4175</duration>
										<rate>
											<timebase>25</timebase>
											<ntsc>FALSE</ntsc>
										</rate>
										<start>791700</start>
										<end>795875</end>
										<in>0</in>
										<out>4175</out>
										<pproTicksIn>0</pproTicksIn>
										<pproTicksOut>42420672000000</pproTicksOut>
										<file id="file-76"/>
										<sourcetrack>
											<mediatype>audio</mediatype>
											<trackindex>1</trackindex>
										</sourcetrack>
										<link>
											<linkclipref>clipitem-388</linkclipref>
											<mediatype>audio</mediatype>
											<trackindex>1</trackindex>
											<clipindex>15</clipindex>
											<groupindex>1</groupindex>
										</link>
										<link>
											<linkclipref>clipitem-412</linkclipref>
											<mediatype>audio</mediatype>
											<trackindex>2</trackindex>
											<clipindex>15</clipindex>
											<groupindex>1</groupindex>
										</link>
										<link>
											<linkclipref>clipitem-436</linkclipref>
											<mediatype>audio</mediatype>
											<trackindex>3</trackindex>
											<clipindex>15</clipindex>
											<groupindex>1</groupindex>
										</link>
										<link>
											<linkclipref>clipitem-460</linkclipref>
											<mediatype>audio</mediatype>
											<trackindex>4</trackindex>
											<clipindex>15</clipindex>
											<groupindex>1</groupindex>
										</link>
										<link>
											<linkclipref>clipitem-484</linkclipref>
											<mediatype>audio</mediatype>
											<trackindex>5</trackindex>
											<clipindex>15</clipindex>
											<groupindex>1</groupindex>
										</link>
										<link>
											<linkclipref>clipitem-505</linkclipref>
											<mediatype>audio</mediatype>
											<trackindex>6</trackindex>
											<clipindex>15</clipindex>
											<groupindex>1</groupindex>
										</link>
										<link>
											<linkclipref>clipitem-518</linkclipref>
											<mediatype>audio</mediatype>
											<trackindex>7</trackindex>
											<clipindex>7</clipindex>
											<groupindex>1</groupindex>
										</link>
										<link>
											<linkclipref>clipitem-530</linkclipref>
											<mediatype>audio</mediatype>
											<trackindex>8</trackindex>
											<clipindex>7</clipindex>
											<groupindex>1</groupindex>
										</link>
										<logginginfo>
											<description></description>
											<scene>6-01</scene>
											<shottake></shottake>
											<lognote></lognote>
											<good></good>
											<originalvideofilename></originalvideofilename>
											<originalaudiofilename></originalaudiofilename>
										</logginginfo>
										<colorinfo>
											<lut></lut>
											<lut1></lut1>
											<asc_sop></asc_sop>
											<asc_sat></asc_sat>
											<lut2></lut2>
										</colorinfo>
										<labels>
											<label2>Mango</label2>
										</labels>
									</clipitem>
									<clipitem id="clipitem-389" premiereChannelType="mono">
										<masterclipid>masterclip-77</masterclipid>
										<name>6-01-3.WAV</name>
										<enabled>TRUE</enabled>
										<duration>4400</duration>
										<rate>
											<timebase>25</timebase>
											<ntsc>FALSE</ntsc>
										</rate>
										<start>801425</start>
										<end>805825</end>
										<in>0</in>
										<out>4400</out>
										<pproTicksIn>0</pproTicksIn>
										<pproTicksOut>44706816000000</pproTicksOut>
										<file id="file-77"/>
										<sourcetrack>
											<mediatype>audio</mediatype>
											<trackindex>1</trackindex>
										</sourcetrack>
										<link>
											<linkclipref>clipitem-389</linkclipref>
											<mediatype>audio</mediatype>
											<trackindex>1</trackindex>
											<clipindex>16</clipindex>
											<groupindex>1</groupindex>
										</link>
										<link>
											<linkclipref>clipitem-413</linkclipref>
											<mediatype>audio</mediatype>
											<trackindex>2</trackindex>
											<clipindex>16</clipindex>
											<groupindex>1</groupindex>
										</link>
										<link>
											<linkclipref>clipitem-437</linkclipref>
											<mediatype>audio</mediatype>
											<trackindex>3</trackindex>
											<clipindex>16</clipindex>
											<groupindex>1</groupindex>
										</link>
										<link>
											<linkclipref>clipitem-461</linkclipref>
											<mediatype>audio</mediatype>
											<trackindex>4</trackindex>
											<clipindex>16</clipindex>
											<groupindex>1</groupindex>
										</link>
										<link>
											<linkclipref>clipitem-485</linkclipref>
											<mediatype>audio</mediatype>
											<trackindex>5</trackindex>
											<clipindex>16</clipindex>
											<groupindex>1</groupindex>
										</link>
										<link>
											<linkclipref>clipitem-506</linkclipref>
											<mediatype>audio</mediatype>
											<trackindex>6</trackindex>
											<clipindex>16</clipindex>
											<groupindex>1</groupindex>
										</link>
										<link>
											<linkclipref>clipitem-519</linkclipref>
											<mediatype>audio</mediatype>
											<trackindex>7</trackindex>
											<clipindex>8</clipindex>
											<groupindex>1</groupindex>
										</link>
										<link>
											<linkclipref>clipitem-531</linkclipref>
											<mediatype>audio</mediatype>
											<trackindex>8</trackindex>
											<clipindex>8</clipindex>
											<groupindex>1</groupindex>
										</link>
										<logginginfo>
											<description></description>
											<scene>6-01</scene>
											<shottake></shottake>
											<lognote></lognote>
											<good></good>
											<originalvideofilename></originalvideofilename>
											<originalaudiofilename></originalaudiofilename>
										</logginginfo>
										<colorinfo>
											<lut></lut>
											<lut1></lut1>
											<asc_sop></asc_sop>
											<asc_sat></asc_sat>
											<lut2></lut2>
										</colorinfo>
										<labels>
											<label2>Mango</label2>
										</labels>
									</clipitem>
									<clipitem id="clipitem-390" premiereChannelType="mono">
										<masterclipid>masterclip-78</masterclipid>
										<name>6-01-4.WAV</name>
										<enabled>TRUE</enabled>
										<duration>5275</duration>
										<rate>
											<timebase>25</timebase>
											<ntsc>FALSE</ntsc>
										</rate>
										<start>811475</start>
										<end>816750</end>
										<in>0</in>
										<out>5275</out>
										<pproTicksIn>0</pproTicksIn>
										<pproTicksOut>53597376000000</pproTicksOut>
										<file id="file-78"/>
										<sourcetrack>
											<mediatype>audio</mediatype>
											<trackindex>1</trackindex>
										</sourcetrack>
										<link>
											<linkclipref>clipitem-390</linkclipref>
											<mediatype>audio</mediatype>
											<trackindex>1</trackindex>
											<clipindex>17</clipindex>
											<groupindex>1</groupindex>
										</link>
										<link>
											<linkclipref>clipitem-414</linkclipref>
											<mediatype>audio</mediatype>
											<trackindex>2</trackindex>
											<clipindex>17</clipindex>
											<groupindex>1</groupindex>
										</link>
										<link>
											<linkclipref>clipitem-438</linkclipref>
											<mediatype>audio</mediatype>
											<trackindex>3</trackindex>
											<clipindex>17</clipindex>
											<groupindex>1</groupindex>
										</link>
										<link>
											<linkclipref>clipitem-462</linkclipref>
											<mediatype>audio</mediatype>
											<trackindex>4</trackindex>
											<clipindex>17</clipindex>
											<groupindex>1</groupindex>
										</link>
										<link>
											<linkclipref>clipitem-486</linkclipref>
											<mediatype>audio</mediatype>
											<trackindex>5</trackindex>
											<clipindex>17</clipindex>
											<groupindex>1</groupindex>
										</link>
										<link>
											<linkclipref>clipitem-507</linkclipref>
											<mediatype>audio</mediatype>
											<trackindex>6</trackindex>
											<clipindex>17</clipindex>
											<groupindex>1</groupindex>
										</link>
										<link>
											<linkclipref>clipitem-520</linkclipref>
											<mediatype>audio</mediatype>
											<trackindex>7</trackindex>
											<clipindex>9</clipindex>
											<groupindex>1</groupindex>
										</link>
										<link>
											<linkclipref>clipitem-532</linkclipref>
											<mediatype>audio</mediatype>
											<trackindex>8</trackindex>
											<clipindex>9</clipindex>
											<groupindex>1</groupindex>
										</link>
										<logginginfo>
											<description></description>
											<scene>6-01</scene>
											<shottake></shottake>
											<lognote></lognote>
											<good></good>
											<originalvideofilename></originalvideofilename>
											<originalaudiofilename></originalaudiofilename>
										</logginginfo>
										<colorinfo>
											<lut></lut>
											<lut1></lut1>
											<asc_sop></asc_sop>
											<asc_sat></asc_sat>
											<lut2></lut2>
										</colorinfo>
										<labels>
											<label2>Mango</label2>
										</labels>
									</clipitem>
									<clipitem id="clipitem-391" premiereChannelType="mono">
										<masterclipid>masterclip-86</masterclipid>
										<name>15-01-1.WAV</name>
										<enabled>TRUE</enabled>
										<duration>3575</duration>
										<rate>
											<timebase>25</timebase>
											<ntsc>FALSE</ntsc>
										</rate>
										<start>910025</start>
										<end>913600</end>
										<in>0</in>
										<out>3575</out>
										<pproTicksIn>0</pproTicksIn>
										<pproTicksOut>36324288000000</pproTicksOut>
										<file id="file-86"/>
										<sourcetrack>
											<mediatype>audio</mediatype>
											<trackindex>1</trackindex>
										</sourcetrack>
										<link>
											<linkclipref>clipitem-391</linkclipref>
											<mediatype>audio</mediatype>
											<trackindex>1</trackindex>
											<clipindex>18</clipindex>
											<groupindex>1</groupindex>
										</link>
										<link>
											<linkclipref>clipitem-415</linkclipref>
											<mediatype>audio</mediatype>
											<trackindex>2</trackindex>
											<clipindex>18</clipindex>
											<groupindex>1</groupindex>
										</link>
										<link>
											<linkclipref>clipitem-439</linkclipref>
											<mediatype>audio</mediatype>
											<trackindex>3</trackindex>
											<clipindex>18</clipindex>
											<groupindex>1</groupindex>
										</link>
										<link>
											<linkclipref>clipitem-463</linkclipref>
											<mediatype>audio</mediatype>
											<trackindex>4</trackindex>
											<clipindex>18</clipindex>
											<groupindex>1</groupindex>
										</link>
										<link>
											<linkclipref>clipitem-487</linkclipref>
											<mediatype>audio</mediatype>
											<trackindex>5</trackindex>
											<clipindex>18</clipindex>
											<groupindex>1</groupindex>
										</link>
										<link>
											<linkclipref>clipitem-508</linkclipref>
											<mediatype>audio</mediatype>
											<trackindex>6</trackindex>
											<clipindex>18</clipindex>
											<groupindex>1</groupindex>
										</link>
										<link>
											<linkclipref>clipitem-521</linkclipref>
											<mediatype>audio</mediatype>
											<trackindex>7</trackindex>
											<clipindex>10</clipindex>
											<groupindex>1</groupindex>
										</link>
										<link>
											<linkclipref>clipitem-533</linkclipref>
											<mediatype>audio</mediatype>
											<trackindex>8</trackindex>
											<clipindex>10</clipindex>
											<groupindex>1</groupindex>
										</link>
										<logginginfo>
											<description></description>
											<scene>15-01</scene>
											<shottake></shottake>
											<lognote></lognote>
											<good></good>
											<originalvideofilename></originalvideofilename>
											<originalaudiofilename></originalaudiofilename>
										</logginginfo>
										<colorinfo>
											<lut></lut>
											<lut1></lut1>
											<asc_sop></asc_sop>
											<asc_sat></asc_sat>
											<lut2></lut2>
										</colorinfo>
										<labels>
											<label2>Mango</label2>
										</labels>
									</clipitem>
									<clipitem id="clipitem-392" premiereChannelType="mono">
										<masterclipid>masterclip-87</masterclipid>
										<name>15-01-2.WAV</name>
										<enabled>TRUE</enabled>
										<duration>4100</duration>
										<rate>
											<timebase>25</timebase>
											<ntsc>FALSE</ntsc>
										</rate>
										<start>916775</start>
										<end>920875</end>
										<in>0</in>
										<out>4100</out>
										<pproTicksIn>0</pproTicksIn>
										<pproTicksOut>41658624000000</pproTicksOut>
										<file id="file-87"/>
										<sourcetrack>
											<mediatype>audio</mediatype>
											<trackindex>1</trackindex>
										</sourcetrack>
										<link>
											<linkclipref>clipitem-392</linkclipref>
											<mediatype>audio</mediatype>
											<trackindex>1</trackindex>
											<clipindex>19</clipindex>
											<groupindex>1</groupindex>
										</link>
										<link>
											<linkclipref>clipitem-416</linkclipref>
											<mediatype>audio</mediatype>
											<trackindex>2</trackindex>
											<clipindex>19</clipindex>
											<groupindex>1</groupindex>
										</link>
										<link>
											<linkclipref>clipitem-440</linkclipref>
											<mediatype>audio</mediatype>
											<trackindex>3</trackindex>
											<clipindex>19</clipindex>
											<groupindex>1</groupindex>
										</link>
										<link>
											<linkclipref>clipitem-464</linkclipref>
											<mediatype>audio</mediatype>
											<trackindex>4</trackindex>
											<clipindex>19</clipindex>
											<groupindex>1</groupindex>
										</link>
										<link>
											<linkclipref>clipitem-488</linkclipref>
											<mediatype>audio</mediatype>
											<trackindex>5</trackindex>
											<clipindex>19</clipindex>
											<groupindex>1</groupindex>
										</link>
										<link>
											<linkclipref>clipitem-509</linkclipref>
											<mediatype>audio</mediatype>
											<trackindex>6</trackindex>
											<clipindex>19</clipindex>
											<groupindex>1</groupindex>
										</link>
										<link>
											<linkclipref>clipitem-522</linkclipref>
											<mediatype>audio</mediatype>
											<trackindex>7</trackindex>
											<clipindex>11</clipindex>
											<groupindex>1</groupindex>
										</link>
										<link>
											<linkclipref>clipitem-534</linkclipref>
											<mediatype>audio</mediatype>
											<trackindex>8</trackindex>
											<clipindex>11</clipindex>
											<groupindex>1</groupindex>
										</link>
										<logginginfo>
											<description></description>
											<scene>15-01</scene>
											<shottake></shottake>
											<lognote></lognote>
											<good></good>
											<originalvideofilename></originalvideofilename>
											<originalaudiofilename></originalaudiofilename>
										</logginginfo>
										<colorinfo>
											<lut></lut>
											<lut1></lut1>
											<asc_sop></asc_sop>
											<asc_sat></asc_sat>
											<lut2></lut2>
										</colorinfo>
										<labels>
											<label2>Mango</label2>
										</labels>
									</clipitem>
									<clipitem id="clipitem-393" premiereChannelType="mono">
										<masterclipid>masterclip-71</masterclipid>
										<name>3-WILD-MOTHER-1.WAV</name>
										<enabled>TRUE</enabled>
										<duration>2375</duration>
										<rate>
											<timebase>25</timebase>
											<ntsc>FALSE</ntsc>
										</rate>
										<start>923950</start>
										<end>926325</end>
										<in>0</in>
										<out>2375</out>
										<pproTicksIn>0</pproTicksIn>
										<pproTicksOut>24131520000000</pproTicksOut>
										<file id="file-71"/>
										<sourcetrack>
											<mediatype>audio</mediatype>
											<trackindex>1</trackindex>
										</sourcetrack>
										<link>
											<linkclipref>clipitem-393</linkclipref>
											<mediatype>audio</mediatype>
											<trackindex>1</trackindex>
											<clipindex>20</clipindex>
											<groupindex>1</groupindex>
										</link>
										<link>
											<linkclipref>clipitem-417</linkclipref>
											<mediatype>audio</mediatype>
											<trackindex>2</trackindex>
											<clipindex>20</clipindex>
											<groupindex>1</groupindex>
										</link>
										<link>
											<linkclipref>clipitem-441</linkclipref>
											<mediatype>audio</mediatype>
											<trackindex>3</trackindex>
											<clipindex>20</clipindex>
											<groupindex>1</groupindex>
										</link>
										<link>
											<linkclipref>clipitem-465</linkclipref>
											<mediatype>audio</mediatype>
											<trackindex>4</trackindex>
											<clipindex>20</clipindex>
											<groupindex>1</groupindex>
										</link>
										<link>
											<linkclipref>clipitem-489</linkclipref>
											<mediatype>audio</mediatype>
											<trackindex>5</trackindex>
											<clipindex>20</clipindex>
											<groupindex>1</groupindex>
										</link>
										<link>
											<linkclipref>clipitem-510</linkclipref>
											<mediatype>audio</mediatype>
											<trackindex>6</trackindex>
											<clipindex>20</clipindex>
											<groupindex>1</groupindex>
										</link>
										<link>
											<linkclipref>clipitem-523</linkclipref>
											<mediatype>audio</mediatype>
											<trackindex>7</trackindex>
											<clipindex>12</clipindex>
											<groupindex>1</groupindex>
										</link>
										<link>
											<linkclipref>clipitem-535</linkclipref>
											<mediatype>audio</mediatype>
											<trackindex>8</trackindex>
											<clipindex>12</clipindex>
											<groupindex>1</groupindex>
										</link>
										<logginginfo>
											<description></description>
											<scene>3-WILD-MOTHER</scene>
											<shottake></shottake>
											<lognote></lognote>
											<good></good>
											<originalvideofilename></originalvideofilename>
											<originalaudiofilename></originalaudiofilename>
										</logginginfo>
										<colorinfo>
											<lut></lut>
											<lut1></lut1>
											<asc_sop></asc_sop>
											<asc_sat></asc_sat>
											<lut2></lut2>
										</colorinfo>
										<labels>
											<label2>Mango</label2>
										</labels>
									</clipitem>
									<clipitem id="clipitem-394" premiereChannelType="mono">
										<masterclipid>masterclip-70</masterclipid>
										<name>3-RT-1.WAV</name>
										<enabled>TRUE</enabled>
										<duration>1700</duration>
										<rate>
											<timebase>25</timebase>
											<ntsc>FALSE</ntsc>
										</rate>
										<start>927000</start>
										<end>928700</end>
										<in>0</in>
										<out>1700</out>
										<pproTicksIn>0</pproTicksIn>
										<pproTicksOut>17273088000000</pproTicksOut>
										<file id="file-70"/>
										<sourcetrack>
											<mediatype>audio</mediatype>
											<trackindex>4</trackindex>
										</sourcetrack>
										<link>
											<linkclipref>clipitem-394</linkclipref>
											<mediatype>audio</mediatype>
											<trackindex>1</trackindex>
											<clipindex>21</clipindex>
											<groupindex>1</groupindex>
										</link>
										<link>
											<linkclipref>clipitem-418</linkclipref>
											<mediatype>audio</mediatype>
											<trackindex>2</trackindex>
											<clipindex>21</clipindex>
											<groupindex>1</groupindex>
										</link>
										<link>
											<linkclipref>clipitem-442</linkclipref>
											<mediatype>audio</mediatype>
											<trackindex>3</trackindex>
											<clipindex>21</clipindex>
											<groupindex>1</groupindex>
										</link>
										<link>
											<linkclipref>clipitem-466</linkclipref>
											<mediatype>audio</mediatype>
											<trackindex>4</trackindex>
											<clipindex>21</clipindex>
											<groupindex>1</groupindex>
										</link>
										<logginginfo>
											<description></description>
											<scene>3-RT</scene>
											<shottake></shottake>
											<lognote></lognote>
											<good></good>
											<originalvideofilename></originalvideofilename>
											<originalaudiofilename></originalaudiofilename>
										</logginginfo>
										<colorinfo>
											<lut></lut>
											<lut1></lut1>
											<asc_sop></asc_sop>
											<asc_sat></asc_sat>
											<lut2></lut2>
										</colorinfo>
										<labels>
											<label2>Mango</label2>
										</labels>
									</clipitem>
									<clipitem id="clipitem-395" premiereChannelType="mono">
										<masterclipid>masterclip-72</masterclipid>
										<name>3-WILD-MOTHER-2.WAV</name>
										<enabled>TRUE</enabled>
										<duration>500</duration>
										<rate>
											<timebase>25</timebase>
											<ntsc>FALSE</ntsc>
										</rate>
										<start>929500</start>
										<end>930000</end>
										<in>0</in>
										<out>500</out>
										<pproTicksIn>0</pproTicksIn>
										<pproTicksOut>5080320000000</pproTicksOut>
										<file id="file-72"/>
										<sourcetrack>
											<mediatype>audio</mediatype>
											<trackindex>4</trackindex>
										</sourcetrack>
										<link>
											<linkclipref>clipitem-395</linkclipref>
											<mediatype>audio</mediatype>
											<trackindex>1</trackindex>
											<clipindex>22</clipindex>
											<groupindex>1</groupindex>
										</link>
										<link>
											<linkclipref>clipitem-419</linkclipref>
											<mediatype>audio</mediatype>
											<trackindex>2</trackindex>
											<clipindex>22</clipindex>
											<groupindex>1</groupindex>
										</link>
										<link>
											<linkclipref>clipitem-443</linkclipref>
											<mediatype>audio</mediatype>
											<trackindex>3</trackindex>
											<clipindex>22</clipindex>
											<groupindex>1</groupindex>
										</link>
										<link>
											<linkclipref>clipitem-467</linkclipref>
											<mediatype>audio</mediatype>
											<trackindex>4</trackindex>
											<clipindex>22</clipindex>
											<groupindex>1</groupindex>
										</link>
										<logginginfo>
											<description></description>
											<scene>3-WILD-MOTHER</scene>
											<shottake></shottake>
											<lognote></lognote>
											<good></good>
											<originalvideofilename></originalvideofilename>
											<originalaudiofilename></originalaudiofilename>
										</logginginfo>
										<colorinfo>
											<lut></lut>
											<lut1></lut1>
											<asc_sop></asc_sop>
											<asc_sat></asc_sat>
											<lut2></lut2>
										</colorinfo>
										<labels>
											<label2>Mango</label2>
										</labels>
									</clipitem>
									<clipitem id="clipitem-396" premiereChannelType="mono">
										<masterclipid>masterclip-73</masterclipid>
										<name>3-WILD-MOTHER-4.WAV</name>
										<enabled>TRUE</enabled>
										<duration>975</duration>
										<rate>
											<timebase>25</timebase>
											<ntsc>FALSE</ntsc>
										</rate>
										<start>930100</start>
										<end>931075</end>
										<in>0</in>
										<out>975</out>
										<pproTicksIn>0</pproTicksIn>
										<pproTicksOut>9906624000000</pproTicksOut>
										<file id="file-73"/>
										<sourcetrack>
											<mediatype>audio</mediatype>
											<trackindex>1</trackindex>
										</sourcetrack>
										<link>
											<linkclipref>clipitem-396</linkclipref>
											<mediatype>audio</mediatype>
											<trackindex>1</trackindex>
											<clipindex>23</clipindex>
											<groupindex>1</groupindex>
										</link>
										<link>
											<linkclipref>clipitem-420</linkclipref>
											<mediatype>audio</mediatype>
											<trackindex>2</trackindex>
											<clipindex>23</clipindex>
											<groupindex>1</groupindex>
										</link>
										<link>
											<linkclipref>clipitem-444</linkclipref>
											<mediatype>audio</mediatype>
											<trackindex>3</trackindex>
											<clipindex>23</clipindex>
											<groupindex>1</groupindex>
										</link>
										<link>
											<linkclipref>clipitem-468</linkclipref>
											<mediatype>audio</mediatype>
											<trackindex>4</trackindex>
											<clipindex>23</clipindex>
											<groupindex>1</groupindex>
										</link>
										<link>
											<linkclipref>clipitem-490</linkclipref>
											<mediatype>audio</mediatype>
											<trackindex>5</trackindex>
											<clipindex>21</clipindex>
											<groupindex>1</groupindex>
										</link>
										<link>
											<linkclipref>clipitem-511</linkclipref>
											<mediatype>audio</mediatype>
											<trackindex>6</trackindex>
											<clipindex>21</clipindex>
											<groupindex>1</groupindex>
										</link>
										<logginginfo>
											<description></description>
											<scene>3-WILD-MOTHER</scene>
											<shottake></shottake>
											<lognote></lognote>
											<good></good>
											<originalvideofilename></originalvideofilename>
											<originalaudiofilename></originalaudiofilename>
										</logginginfo>
										<colorinfo>
											<lut></lut>
											<lut1></lut1>
											<asc_sop></asc_sop>
											<asc_sat></asc_sat>
											<lut2></lut2>
										</colorinfo>
										<labels>
											<label2>Mango</label2>
										</labels>
									</clipitem>
									<clipitem id="clipitem-397" premiereChannelType="mono">
										<masterclipid>masterclip-74</masterclipid>
										<name>3-WILD-MOTHER-5.WAV</name>
										<enabled>TRUE</enabled>
										<duration>2875</duration>
										<rate>
											<timebase>25</timebase>
											<ntsc>FALSE</ntsc>
										</rate>
										<start>932150</start>
										<end>935025</end>
										<in>0</in>
										<out>2875</out>
										<pproTicksIn>0</pproTicksIn>
										<pproTicksOut>29211840000000</pproTicksOut>
										<file id="file-74"/>
										<sourcetrack>
											<mediatype>audio</mediatype>
											<trackindex>4</trackindex>
										</sourcetrack>
										<link>
											<linkclipref>clipitem-397</linkclipref>
											<mediatype>audio</mediatype>
											<trackindex>1</trackindex>
											<clipindex>24</clipindex>
											<groupindex>1</groupindex>
										</link>
										<link>
											<linkclipref>clipitem-421</linkclipref>
											<mediatype>audio</mediatype>
											<trackindex>2</trackindex>
											<clipindex>24</clipindex>
											<groupindex>1</groupindex>
										</link>
										<link>
											<linkclipref>clipitem-445</linkclipref>
											<mediatype>audio</mediatype>
											<trackindex>3</trackindex>
											<clipindex>24</clipindex>
											<groupindex>1</groupindex>
										</link>
										<link>
											<linkclipref>clipitem-469</linkclipref>
											<mediatype>audio</mediatype>
											<trackindex>4</trackindex>
											<clipindex>24</clipindex>
											<groupindex>1</groupindex>
										</link>
										<logginginfo>
											<description></description>
											<scene>3-WILD-MOTHER</scene>
											<shottake></shottake>
											<lognote></lognote>
											<good></good>
											<originalvideofilename></originalvideofilename>
											<originalaudiofilename></originalaudiofilename>
										</logginginfo>
										<colorinfo>
											<lut></lut>
											<lut1></lut1>
											<asc_sop></asc_sop>
											<asc_sat></asc_sat>
											<lut2></lut2>
										</colorinfo>
										<labels>
											<label2>Mango</label2>
										</labels>
									</clipitem>
									<enabled>TRUE</enabled>
									<locked>FALSE</locked>
									<outputchannelindex>1</outputchannelindex>
								</track>
								<track TL.SQTrackAudioKeyframeStyle="0" TL.SQTrackShy="0" TL.SQTrackExpandedHeight="25" TL.SQTrackExpanded="0" MZ.TrackTargeted="1" PannerCurrentValue="0.5" PannerIsInverted="true" PannerStartKeyframe="-91445760000000000,0.5,0,0,0,0,0,0" PannerName="Balance" currentExplodedTrackIndex="0" totalExplodedTrackCount="1" premiereTrackType="Stereo">
									<clipitem id="clipitem-398" premiereChannelType="mono">
										<masterclipid>masterclip-65</masterclipid>
										<name>3-01-1.WAV</name>
										<enabled>TRUE</enabled>
										<duration>2600</duration>
										<rate>
											<timebase>25</timebase>
											<ntsc>FALSE</ntsc>
										</rate>
										<start>0</start>
										<end>2600</end>
										<in>0</in>
										<out>2600</out>
										<pproTicksIn>0</pproTicksIn>
										<pproTicksOut>26417664000000</pproTicksOut>
										<file id="file-65"/>
										<sourcetrack>
											<mediatype>audio</mediatype>
											<trackindex>2</trackindex>
										</sourcetrack>
											<marker>
												<comment></comment>
												<name></name>
												<in>567</in>
												<out>-1</out>
												<pproColor>4281828977</pproColor>
											</marker>
											<marker>
												<comment></comment>
												<name></name>
												<in>2396</in>
												<out>-1</out>
												<pproColor>4281740498</pproColor>
											</marker>
										<link>
											<linkclipref>clipitem-374</linkclipref>
											<mediatype>audio</mediatype>
											<trackindex>1</trackindex>
											<clipindex>1</clipindex>
											<groupindex>1</groupindex>
										</link>
										<link>
											<linkclipref>clipitem-398</linkclipref>
											<mediatype>audio</mediatype>
											<trackindex>2</trackindex>
											<clipindex>1</clipindex>
											<groupindex>1</groupindex>
										</link>
										<link>
											<linkclipref>clipitem-422</linkclipref>
											<mediatype>audio</mediatype>
											<trackindex>3</trackindex>
											<clipindex>1</clipindex>
											<groupindex>1</groupindex>
										</link>
										<link>
											<linkclipref>clipitem-446</linkclipref>
											<mediatype>audio</mediatype>
											<trackindex>4</trackindex>
											<clipindex>1</clipindex>
											<groupindex>1</groupindex>
										</link>
										<link>
											<linkclipref>clipitem-470</linkclipref>
											<mediatype>audio</mediatype>
											<trackindex>5</trackindex>
											<clipindex>1</clipindex>
											<groupindex>1</groupindex>
										</link>
										<link>
											<linkclipref>clipitem-491</linkclipref>
											<mediatype>audio</mediatype>
											<trackindex>6</trackindex>
											<clipindex>1</clipindex>
											<groupindex>1</groupindex>
										</link>
										<logginginfo>
											<description></description>
											<scene>3-01</scene>
											<shottake></shottake>
											<lognote></lognote>
											<good></good>
											<originalvideofilename></originalvideofilename>
											<originalaudiofilename></originalaudiofilename>
										</logginginfo>
										<colorinfo>
											<lut></lut>
											<lut1></lut1>
											<asc_sop></asc_sop>
											<asc_sat></asc_sat>
											<lut2></lut2>
										</colorinfo>
										<labels>
											<label2>Mango</label2>
										</labels>
									</clipitem>
									<clipitem id="clipitem-399" premiereChannelType="mono">
										<masterclipid>masterclip-66</masterclipid>
										<name>3-01-2.WAV</name>
										<enabled>TRUE</enabled>
										<duration>2650</duration>
										<rate>
											<timebase>25</timebase>
											<ntsc>FALSE</ntsc>
										</rate>
										<start>4675</start>
										<end>7325</end>
										<in>0</in>
										<out>2650</out>
										<pproTicksIn>0</pproTicksIn>
										<pproTicksOut>26925696000000</pproTicksOut>
										<file id="file-66"/>
										<sourcetrack>
											<mediatype>audio</mediatype>
											<trackindex>2</trackindex>
										</sourcetrack>
											<marker>
												<comment></comment>
												<name></name>
												<in>312</in>
												<out>-1</out>
												<pproColor>4281828977</pproColor>
											</marker>
											<marker>
												<comment></comment>
												<name></name>
												<in>2443</in>
												<out>-1</out>
												<pproColor>4281740498</pproColor>
											</marker>
										<link>
											<linkclipref>clipitem-375</linkclipref>
											<mediatype>audio</mediatype>
											<trackindex>1</trackindex>
											<clipindex>2</clipindex>
											<groupindex>1</groupindex>
										</link>
										<link>
											<linkclipref>clipitem-399</linkclipref>
											<mediatype>audio</mediatype>
											<trackindex>2</trackindex>
											<clipindex>2</clipindex>
											<groupindex>1</groupindex>
										</link>
										<link>
											<linkclipref>clipitem-423</linkclipref>
											<mediatype>audio</mediatype>
											<trackindex>3</trackindex>
											<clipindex>2</clipindex>
											<groupindex>1</groupindex>
										</link>
										<link>
											<linkclipref>clipitem-447</linkclipref>
											<mediatype>audio</mediatype>
											<trackindex>4</trackindex>
											<clipindex>2</clipindex>
											<groupindex>1</groupindex>
										</link>
										<link>
											<linkclipref>clipitem-471</linkclipref>
											<mediatype>audio</mediatype>
											<trackindex>5</trackindex>
											<clipindex>2</clipindex>
											<groupindex>1</groupindex>
										</link>
										<link>
											<linkclipref>clipitem-492</linkclipref>
											<mediatype>audio</mediatype>
											<trackindex>6</trackindex>
											<clipindex>2</clipindex>
											<groupindex>1</groupindex>
										</link>
										<logginginfo>
											<description></description>
											<scene>3-01</scene>
											<shottake></shottake>
											<lognote></lognote>
											<good></good>
											<originalvideofilename></originalvideofilename>
											<originalaudiofilename></originalaudiofilename>
										</logginginfo>
										<colorinfo>
											<lut></lut>
											<lut1></lut1>
											<asc_sop></asc_sop>
											<asc_sat></asc_sat>
											<lut2></lut2>
										</colorinfo>
										<labels>
											<label2>Mango</label2>
										</labels>
									</clipitem>
									<clipitem id="clipitem-400" premiereChannelType="mono">
										<masterclipid>masterclip-67</masterclipid>
										<name>3-02-1.WAV</name>
										<enabled>TRUE</enabled>
										<duration>2725</duration>
										<rate>
											<timebase>25</timebase>
											<ntsc>FALSE</ntsc>
										</rate>
										<start>41575</start>
										<end>44300</end>
										<in>0</in>
										<out>2725</out>
										<pproTicksIn>0</pproTicksIn>
										<pproTicksOut>27687744000000</pproTicksOut>
										<file id="file-67"/>
										<sourcetrack>
											<mediatype>audio</mediatype>
											<trackindex>2</trackindex>
										</sourcetrack>
											<marker>
												<comment></comment>
												<name></name>
												<in>556</in>
												<out>-1</out>
												<pproColor>4281828977</pproColor>
											</marker>
											<marker>
												<comment></comment>
												<name></name>
												<in>2558</in>
												<out>-1</out>
												<pproColor>4281740498</pproColor>
											</marker>
										<link>
											<linkclipref>clipitem-376</linkclipref>
											<mediatype>audio</mediatype>
											<trackindex>1</trackindex>
											<clipindex>3</clipindex>
											<groupindex>1</groupindex>
										</link>
										<link>
											<linkclipref>clipitem-400</linkclipref>
											<mediatype>audio</mediatype>
											<trackindex>2</trackindex>
											<clipindex>3</clipindex>
											<groupindex>1</groupindex>
										</link>
										<link>
											<linkclipref>clipitem-424</linkclipref>
											<mediatype>audio</mediatype>
											<trackindex>3</trackindex>
											<clipindex>3</clipindex>
											<groupindex>1</groupindex>
										</link>
										<link>
											<linkclipref>clipitem-448</linkclipref>
											<mediatype>audio</mediatype>
											<trackindex>4</trackindex>
											<clipindex>3</clipindex>
											<groupindex>1</groupindex>
										</link>
										<link>
											<linkclipref>clipitem-472</linkclipref>
											<mediatype>audio</mediatype>
											<trackindex>5</trackindex>
											<clipindex>3</clipindex>
											<groupindex>1</groupindex>
										</link>
										<link>
											<linkclipref>clipitem-493</linkclipref>
											<mediatype>audio</mediatype>
											<trackindex>6</trackindex>
											<clipindex>3</clipindex>
											<groupindex>1</groupindex>
										</link>
										<logginginfo>
											<description></description>
											<scene>3-02</scene>
											<shottake></shottake>
											<lognote></lognote>
											<good></good>
											<originalvideofilename></originalvideofilename>
											<originalaudiofilename></originalaudiofilename>
										</logginginfo>
										<colorinfo>
											<lut></lut>
											<lut1></lut1>
											<asc_sop></asc_sop>
											<asc_sat></asc_sat>
											<lut2></lut2>
										</colorinfo>
										<labels>
											<label2>Mango</label2>
										</labels>
									</clipitem>
									<clipitem id="clipitem-401" premiereChannelType="mono">
										<masterclipid>masterclip-68</masterclipid>
										<name>3-03-1.WAV</name>
										<enabled>TRUE</enabled>
										<duration>2200</duration>
										<rate>
											<timebase>25</timebase>
											<ntsc>FALSE</ntsc>
										</rate>
										<start>73850</start>
										<end>76050</end>
										<in>0</in>
										<out>2200</out>
										<pproTicksIn>0</pproTicksIn>
										<pproTicksOut>22353408000000</pproTicksOut>
										<file id="file-68"/>
										<sourcetrack>
											<mediatype>audio</mediatype>
											<trackindex>2</trackindex>
										</sourcetrack>
											<marker>
												<comment></comment>
												<name></name>
												<in>526</in>
												<out>-1</out>
												<pproColor>4281828977</pproColor>
											</marker>
											<marker>
												<comment></comment>
												<name></name>
												<in>1898</in>
												<out>-1</out>
												<pproColor>4281740498</pproColor>
											</marker>
										<link>
											<linkclipref>clipitem-377</linkclipref>
											<mediatype>audio</mediatype>
											<trackindex>1</trackindex>
											<clipindex>4</clipindex>
											<groupindex>1</groupindex>
										</link>
										<link>
											<linkclipref>clipitem-401</linkclipref>
											<mediatype>audio</mediatype>
											<trackindex>2</trackindex>
											<clipindex>4</clipindex>
											<groupindex>1</groupindex>
										</link>
										<link>
											<linkclipref>clipitem-425</linkclipref>
											<mediatype>audio</mediatype>
											<trackindex>3</trackindex>
											<clipindex>4</clipindex>
											<groupindex>1</groupindex>
										</link>
										<link>
											<linkclipref>clipitem-449</linkclipref>
											<mediatype>audio</mediatype>
											<trackindex>4</trackindex>
											<clipindex>4</clipindex>
											<groupindex>1</groupindex>
										</link>
										<link>
											<linkclipref>clipitem-473</linkclipref>
											<mediatype>audio</mediatype>
											<trackindex>5</trackindex>
											<clipindex>4</clipindex>
											<groupindex>1</groupindex>
										</link>
										<link>
											<linkclipref>clipitem-494</linkclipref>
											<mediatype>audio</mediatype>
											<trackindex>6</trackindex>
											<clipindex>4</clipindex>
											<groupindex>1</groupindex>
										</link>
										<logginginfo>
											<description></description>
											<scene>3-03</scene>
											<shottake></shottake>
											<lognote></lognote>
											<good></good>
											<originalvideofilename></originalvideofilename>
											<originalaudiofilename></originalaudiofilename>
										</logginginfo>
										<colorinfo>
											<lut></lut>
											<lut1></lut1>
											<asc_sop></asc_sop>
											<asc_sat></asc_sat>
											<lut2></lut2>
										</colorinfo>
										<labels>
											<label2>Mango</label2>
										</labels>
									</clipitem>
									<clipitem id="clipitem-402" premiereChannelType="mono">
										<masterclipid>masterclip-69</masterclipid>
										<name>3-ATMOS-1.WAV</name>
										<enabled>TRUE</enabled>
										<duration>2950</duration>
										<rate>
											<timebase>25</timebase>
											<ntsc>FALSE</ntsc>
										</rate>
										<start>112025</start>
										<end>114975</end>
										<in>0</in>
										<out>2950</out>
										<pproTicksIn>0</pproTicksIn>
										<pproTicksOut>29973888000000</pproTicksOut>
										<file id="file-69"/>
										<sourcetrack>
											<mediatype>audio</mediatype>
											<trackindex>2</trackindex>
										</sourcetrack>
										<link>
											<linkclipref>clipitem-378</linkclipref>
											<mediatype>audio</mediatype>
											<trackindex>1</trackindex>
											<clipindex>5</clipindex>
											<groupindex>1</groupindex>
										</link>
										<link>
											<linkclipref>clipitem-402</linkclipref>
											<mediatype>audio</mediatype>
											<trackindex>2</trackindex>
											<clipindex>5</clipindex>
											<groupindex>1</groupindex>
										</link>
										<link>
											<linkclipref>clipitem-426</linkclipref>
											<mediatype>audio</mediatype>
											<trackindex>3</trackindex>
											<clipindex>5</clipindex>
											<groupindex>1</groupindex>
										</link>
										<link>
											<linkclipref>clipitem-450</linkclipref>
											<mediatype>audio</mediatype>
											<trackindex>4</trackindex>
											<clipindex>5</clipindex>
											<groupindex>1</groupindex>
										</link>
										<link>
											<linkclipref>clipitem-474</linkclipref>
											<mediatype>audio</mediatype>
											<trackindex>5</trackindex>
											<clipindex>5</clipindex>
											<groupindex>1</groupindex>
										</link>
										<link>
											<linkclipref>clipitem-495</linkclipref>
											<mediatype>audio</mediatype>
											<trackindex>6</trackindex>
											<clipindex>5</clipindex>
											<groupindex>1</groupindex>
										</link>
										<logginginfo>
											<description></description>
											<scene>3-ATMOS</scene>
											<shottake></shottake>
											<lognote></lognote>
											<good></good>
											<originalvideofilename></originalvideofilename>
											<originalaudiofilename></originalaudiofilename>
										</logginginfo>
										<colorinfo>
											<lut></lut>
											<lut1></lut1>
											<asc_sop></asc_sop>
											<asc_sat></asc_sat>
											<lut2></lut2>
										</colorinfo>
										<labels>
											<label2>Mango</label2>
										</labels>
									</clipitem>
									<clipitem id="clipitem-403" premiereChannelType="mono">
										<masterclipid>masterclip-88</masterclipid>
										<name>ATMOS_CHURCH-1.WAV</name>
										<enabled>TRUE</enabled>
										<duration>2975</duration>
										<rate>
											<timebase>25</timebase>
											<ntsc>FALSE</ntsc>
										</rate>
										<start>253275</start>
										<end>256250</end>
										<in>0</in>
										<out>2975</out>
										<pproTicksIn>0</pproTicksIn>
										<pproTicksOut>30227904000000</pproTicksOut>
										<file id="file-88"/>
										<sourcetrack>
											<mediatype>audio</mediatype>
											<trackindex>2</trackindex>
										</sourcetrack>
										<link>
											<linkclipref>clipitem-379</linkclipref>
											<mediatype>audio</mediatype>
											<trackindex>1</trackindex>
											<clipindex>6</clipindex>
											<groupindex>1</groupindex>
										</link>
										<link>
											<linkclipref>clipitem-403</linkclipref>
											<mediatype>audio</mediatype>
											<trackindex>2</trackindex>
											<clipindex>6</clipindex>
											<groupindex>1</groupindex>
										</link>
										<link>
											<linkclipref>clipitem-427</linkclipref>
											<mediatype>audio</mediatype>
											<trackindex>3</trackindex>
											<clipindex>6</clipindex>
											<groupindex>1</groupindex>
										</link>
										<link>
											<linkclipref>clipitem-451</linkclipref>
											<mediatype>audio</mediatype>
											<trackindex>4</trackindex>
											<clipindex>6</clipindex>
											<groupindex>1</groupindex>
										</link>
										<link>
											<linkclipref>clipitem-475</linkclipref>
											<mediatype>audio</mediatype>
											<trackindex>5</trackindex>
											<clipindex>6</clipindex>
											<groupindex>1</groupindex>
										</link>
										<link>
											<linkclipref>clipitem-496</linkclipref>
											<mediatype>audio</mediatype>
											<trackindex>6</trackindex>
											<clipindex>6</clipindex>
											<groupindex>1</groupindex>
										</link>
										<logginginfo>
											<description></description>
											<scene>ATMOS_CHURCH</scene>
											<shottake></shottake>
											<lognote></lognote>
											<good></good>
											<originalvideofilename></originalvideofilename>
											<originalaudiofilename></originalaudiofilename>
										</logginginfo>
										<colorinfo>
											<lut></lut>
											<lut1></lut1>
											<asc_sop></asc_sop>
											<asc_sat></asc_sat>
											<lut2></lut2>
										</colorinfo>
										<labels>
											<label2>Mango</label2>
										</labels>
									</clipitem>
									<clipitem id="clipitem-404" premiereChannelType="mono">
										<masterclipid>masterclip-79</masterclipid>
										<name>12-01-1.WAV</name>
										<enabled>TRUE</enabled>
										<duration>3200</duration>
										<rate>
											<timebase>25</timebase>
											<ntsc>FALSE</ntsc>
										</rate>
										<start>458975</start>
										<end>462175</end>
										<in>0</in>
										<out>3200</out>
										<pproTicksIn>0</pproTicksIn>
										<pproTicksOut>32514048000000</pproTicksOut>
										<file id="file-79"/>
										<sourcetrack>
											<mediatype>audio</mediatype>
											<trackindex>2</trackindex>
										</sourcetrack>
											<marker>
												<comment></comment>
												<name></name>
												<in>845</in>
												<out>-1</out>
												<pproColor>4281828977</pproColor>
											</marker>
											<marker>
												<comment></comment>
												<name></name>
												<in>3026</in>
												<out>-1</out>
												<pproColor>4281740498</pproColor>
											</marker>
										<link>
											<linkclipref>clipitem-380</linkclipref>
											<mediatype>audio</mediatype>
											<trackindex>1</trackindex>
											<clipindex>7</clipindex>
											<groupindex>1</groupindex>
										</link>
										<link>
											<linkclipref>clipitem-404</linkclipref>
											<mediatype>audio</mediatype>
											<trackindex>2</trackindex>
											<clipindex>7</clipindex>
											<groupindex>1</groupindex>
										</link>
										<link>
											<linkclipref>clipitem-428</linkclipref>
											<mediatype>audio</mediatype>
											<trackindex>3</trackindex>
											<clipindex>7</clipindex>
											<groupindex>1</groupindex>
										</link>
										<link>
											<linkclipref>clipitem-452</linkclipref>
											<mediatype>audio</mediatype>
											<trackindex>4</trackindex>
											<clipindex>7</clipindex>
											<groupindex>1</groupindex>
										</link>
										<link>
											<linkclipref>clipitem-476</linkclipref>
											<mediatype>audio</mediatype>
											<trackindex>5</trackindex>
											<clipindex>7</clipindex>
											<groupindex>1</groupindex>
										</link>
										<link>
											<linkclipref>clipitem-497</linkclipref>
											<mediatype>audio</mediatype>
											<trackindex>6</trackindex>
											<clipindex>7</clipindex>
											<groupindex>1</groupindex>
										</link>
										<link>
											<linkclipref>clipitem-512</linkclipref>
											<mediatype>audio</mediatype>
											<trackindex>7</trackindex>
											<clipindex>1</clipindex>
											<groupindex>1</groupindex>
										</link>
										<link>
											<linkclipref>clipitem-524</linkclipref>
											<mediatype>audio</mediatype>
											<trackindex>8</trackindex>
											<clipindex>1</clipindex>
											<groupindex>1</groupindex>
										</link>
										<logginginfo>
											<description></description>
											<scene>12-01</scene>
											<shottake></shottake>
											<lognote></lognote>
											<good></good>
											<originalvideofilename></originalvideofilename>
											<originalaudiofilename></originalaudiofilename>
										</logginginfo>
										<colorinfo>
											<lut></lut>
											<lut1></lut1>
											<asc_sop></asc_sop>
											<asc_sat></asc_sat>
											<lut2></lut2>
										</colorinfo>
										<labels>
											<label2>Mango</label2>
										</labels>
									</clipitem>
									<clipitem id="clipitem-405" premiereChannelType="mono">
										<masterclipid>masterclip-80</masterclipid>
										<name>12-01-2.WAV</name>
										<enabled>TRUE</enabled>
										<duration>1500</duration>
										<rate>
											<timebase>25</timebase>
											<ntsc>FALSE</ntsc>
										</rate>
										<start>467225</start>
										<end>468725</end>
										<in>0</in>
										<out>1500</out>
										<pproTicksIn>0</pproTicksIn>
										<pproTicksOut>15240960000000</pproTicksOut>
										<file id="file-80"/>
										<sourcetrack>
											<mediatype>audio</mediatype>
											<trackindex>2</trackindex>
										</sourcetrack>
											<marker>
												<comment></comment>
												<name></name>
												<in>726</in>
												<out>-1</out>
											</marker>
										<link>
											<linkclipref>clipitem-381</linkclipref>
											<mediatype>audio</mediatype>
											<trackindex>1</trackindex>
											<clipindex>8</clipindex>
											<groupindex>1</groupindex>
										</link>
										<link>
											<linkclipref>clipitem-405</linkclipref>
											<mediatype>audio</mediatype>
											<trackindex>2</trackindex>
											<clipindex>8</clipindex>
											<groupindex>1</groupindex>
										</link>
										<link>
											<linkclipref>clipitem-429</linkclipref>
											<mediatype>audio</mediatype>
											<trackindex>3</trackindex>
											<clipindex>8</clipindex>
											<groupindex>1</groupindex>
										</link>
										<link>
											<linkclipref>clipitem-453</linkclipref>
											<mediatype>audio</mediatype>
											<trackindex>4</trackindex>
											<clipindex>8</clipindex>
											<groupindex>1</groupindex>
										</link>
										<link>
											<linkclipref>clipitem-477</linkclipref>
											<mediatype>audio</mediatype>
											<trackindex>5</trackindex>
											<clipindex>8</clipindex>
											<groupindex>1</groupindex>
										</link>
										<link>
											<linkclipref>clipitem-498</linkclipref>
											<mediatype>audio</mediatype>
											<trackindex>6</trackindex>
											<clipindex>8</clipindex>
											<groupindex>1</groupindex>
										</link>
										<link>
											<linkclipref>clipitem-513</linkclipref>
											<mediatype>audio</mediatype>
											<trackindex>7</trackindex>
											<clipindex>2</clipindex>
											<groupindex>1</groupindex>
										</link>
										<link>
											<linkclipref>clipitem-525</linkclipref>
											<mediatype>audio</mediatype>
											<trackindex>8</trackindex>
											<clipindex>2</clipindex>
											<groupindex>1</groupindex>
										</link>
										<logginginfo>
											<description></description>
											<scene>12-01</scene>
											<shottake></shottake>
											<lognote></lognote>
											<good></good>
											<originalvideofilename></originalvideofilename>
											<originalaudiofilename></originalaudiofilename>
										</logginginfo>
										<colorinfo>
											<lut></lut>
											<lut1></lut1>
											<asc_sop></asc_sop>
											<asc_sat></asc_sat>
											<lut2></lut2>
										</colorinfo>
										<labels>
											<label2>Mango</label2>
										</labels>
									</clipitem>
									<clipitem id="clipitem-406" premiereChannelType="mono">
										<masterclipid>masterclip-81</masterclipid>
										<name>12-01-3.WAV</name>
										<enabled>TRUE</enabled>
										<duration>3275</duration>
										<rate>
											<timebase>25</timebase>
											<ntsc>FALSE</ntsc>
										</rate>
										<start>469925</start>
										<end>473200</end>
										<in>0</in>
										<out>3275</out>
										<pproTicksIn>0</pproTicksIn>
										<pproTicksOut>33276096000000</pproTicksOut>
										<file id="file-81"/>
										<sourcetrack>
											<mediatype>audio</mediatype>
											<trackindex>2</trackindex>
										</sourcetrack>
										<link>
											<linkclipref>clipitem-382</linkclipref>
											<mediatype>audio</mediatype>
											<trackindex>1</trackindex>
											<clipindex>9</clipindex>
											<groupindex>1</groupindex>
										</link>
										<link>
											<linkclipref>clipitem-406</linkclipref>
											<mediatype>audio</mediatype>
											<trackindex>2</trackindex>
											<clipindex>9</clipindex>
											<groupindex>1</groupindex>
										</link>
										<link>
											<linkclipref>clipitem-430</linkclipref>
											<mediatype>audio</mediatype>
											<trackindex>3</trackindex>
											<clipindex>9</clipindex>
											<groupindex>1</groupindex>
										</link>
										<link>
											<linkclipref>clipitem-454</linkclipref>
											<mediatype>audio</mediatype>
											<trackindex>4</trackindex>
											<clipindex>9</clipindex>
											<groupindex>1</groupindex>
										</link>
										<link>
											<linkclipref>clipitem-478</linkclipref>
											<mediatype>audio</mediatype>
											<trackindex>5</trackindex>
											<clipindex>9</clipindex>
											<groupindex>1</groupindex>
										</link>
										<link>
											<linkclipref>clipitem-499</linkclipref>
											<mediatype>audio</mediatype>
											<trackindex>6</trackindex>
											<clipindex>9</clipindex>
											<groupindex>1</groupindex>
										</link>
										<link>
											<linkclipref>clipitem-514</linkclipref>
											<mediatype>audio</mediatype>
											<trackindex>7</trackindex>
											<clipindex>3</clipindex>
											<groupindex>1</groupindex>
										</link>
										<link>
											<linkclipref>clipitem-526</linkclipref>
											<mediatype>audio</mediatype>
											<trackindex>8</trackindex>
											<clipindex>3</clipindex>
											<groupindex>1</groupindex>
										</link>
										<logginginfo>
											<description></description>
											<scene>12-01</scene>
											<shottake></shottake>
											<lognote></lognote>
											<good></good>
											<originalvideofilename></originalvideofilename>
											<originalaudiofilename></originalaudiofilename>
										</logginginfo>
										<colorinfo>
											<lut></lut>
											<lut1></lut1>
											<asc_sop></asc_sop>
											<asc_sat></asc_sat>
											<lut2></lut2>
										</colorinfo>
										<labels>
											<label2>Mango</label2>
										</labels>
									</clipitem>
									<clipitem id="clipitem-407" premiereChannelType="mono">
										<masterclipid>masterclip-82</masterclipid>
										<name>12-01-4.WAV</name>
										<enabled>TRUE</enabled>
										<duration>3975</duration>
										<rate>
											<timebase>25</timebase>
											<ntsc>FALSE</ntsc>
										</rate>
										<start>474625</start>
										<end>478600</end>
										<in>0</in>
										<out>3975</out>
										<pproTicksIn>0</pproTicksIn>
										<pproTicksOut>40388544000000</pproTicksOut>
										<file id="file-82"/>
										<sourcetrack>
											<mediatype>audio</mediatype>
											<trackindex>2</trackindex>
										</sourcetrack>
										<link>
											<linkclipref>clipitem-383</linkclipref>
											<mediatype>audio</mediatype>
											<trackindex>1</trackindex>
											<clipindex>10</clipindex>
											<groupindex>1</groupindex>
										</link>
										<link>
											<linkclipref>clipitem-407</linkclipref>
											<mediatype>audio</mediatype>
											<trackindex>2</trackindex>
											<clipindex>10</clipindex>
											<groupindex>1</groupindex>
										</link>
										<link>
											<linkclipref>clipitem-431</linkclipref>
											<mediatype>audio</mediatype>
											<trackindex>3</trackindex>
											<clipindex>10</clipindex>
											<groupindex>1</groupindex>
										</link>
										<link>
											<linkclipref>clipitem-455</linkclipref>
											<mediatype>audio</mediatype>
											<trackindex>4</trackindex>
											<clipindex>10</clipindex>
											<groupindex>1</groupindex>
										</link>
										<link>
											<linkclipref>clipitem-479</linkclipref>
											<mediatype>audio</mediatype>
											<trackindex>5</trackindex>
											<clipindex>10</clipindex>
											<groupindex>1</groupindex>
										</link>
										<link>
											<linkclipref>clipitem-500</linkclipref>
											<mediatype>audio</mediatype>
											<trackindex>6</trackindex>
											<clipindex>10</clipindex>
											<groupindex>1</groupindex>
										</link>
										<link>
											<linkclipref>clipitem-515</linkclipref>
											<mediatype>audio</mediatype>
											<trackindex>7</trackindex>
											<clipindex>4</clipindex>
											<groupindex>1</groupindex>
										</link>
										<link>
											<linkclipref>clipitem-527</linkclipref>
											<mediatype>audio</mediatype>
											<trackindex>8</trackindex>
											<clipindex>4</clipindex>
											<groupindex>1</groupindex>
										</link>
										<logginginfo>
											<description></description>
											<scene>12-01</scene>
											<shottake></shottake>
											<lognote></lognote>
											<good></good>
											<originalvideofilename></originalvideofilename>
											<originalaudiofilename></originalaudiofilename>
										</logginginfo>
										<colorinfo>
											<lut></lut>
											<lut1></lut1>
											<asc_sop></asc_sop>
											<asc_sat></asc_sat>
											<lut2></lut2>
										</colorinfo>
										<labels>
											<label2>Mango</label2>
										</labels>
									</clipitem>
									<clipitem id="clipitem-408" premiereChannelType="mono">
										<masterclipid>masterclip-83</masterclipid>
										<name>12-01-5.WAV</name>
										<enabled>TRUE</enabled>
										<duration>3375</duration>
										<rate>
											<timebase>25</timebase>
											<ntsc>FALSE</ntsc>
										</rate>
										<start>481250</start>
										<end>484625</end>
										<in>0</in>
										<out>3375</out>
										<pproTicksIn>0</pproTicksIn>
										<pproTicksOut>34292160000000</pproTicksOut>
										<file id="file-83"/>
										<sourcetrack>
											<mediatype>audio</mediatype>
											<trackindex>2</trackindex>
										</sourcetrack>
										<link>
											<linkclipref>clipitem-384</linkclipref>
											<mediatype>audio</mediatype>
											<trackindex>1</trackindex>
											<clipindex>11</clipindex>
											<groupindex>1</groupindex>
										</link>
										<link>
											<linkclipref>clipitem-408</linkclipref>
											<mediatype>audio</mediatype>
											<trackindex>2</trackindex>
											<clipindex>11</clipindex>
											<groupindex>1</groupindex>
										</link>
										<link>
											<linkclipref>clipitem-432</linkclipref>
											<mediatype>audio</mediatype>
											<trackindex>3</trackindex>
											<clipindex>11</clipindex>
											<groupindex>1</groupindex>
										</link>
										<link>
											<linkclipref>clipitem-456</linkclipref>
											<mediatype>audio</mediatype>
											<trackindex>4</trackindex>
											<clipindex>11</clipindex>
											<groupindex>1</groupindex>
										</link>
										<link>
											<linkclipref>clipitem-480</linkclipref>
											<mediatype>audio</mediatype>
											<trackindex>5</trackindex>
											<clipindex>11</clipindex>
											<groupindex>1</groupindex>
										</link>
										<link>
											<linkclipref>clipitem-501</linkclipref>
											<mediatype>audio</mediatype>
											<trackindex>6</trackindex>
											<clipindex>11</clipindex>
											<groupindex>1</groupindex>
										</link>
										<link>
											<linkclipref>clipitem-516</linkclipref>
											<mediatype>audio</mediatype>
											<trackindex>7</trackindex>
											<clipindex>5</clipindex>
											<groupindex>1</groupindex>
										</link>
										<link>
											<linkclipref>clipitem-528</linkclipref>
											<mediatype>audio</mediatype>
											<trackindex>8</trackindex>
											<clipindex>5</clipindex>
											<groupindex>1</groupindex>
										</link>
										<logginginfo>
											<description></description>
											<scene>12-01</scene>
											<shottake></shottake>
											<lognote></lognote>
											<good></good>
											<originalvideofilename></originalvideofilename>
											<originalaudiofilename></originalaudiofilename>
										</logginginfo>
										<colorinfo>
											<lut></lut>
											<lut1></lut1>
											<asc_sop></asc_sop>
											<asc_sat></asc_sat>
											<lut2></lut2>
										</colorinfo>
										<labels>
											<label2>Mango</label2>
										</labels>
									</clipitem>
									<clipitem id="clipitem-409" premiereChannelType="mono">
										<masterclipid>masterclip-84</masterclipid>
										<name>12-02-1.WAV</name>
										<enabled>TRUE</enabled>
										<duration>2900</duration>
										<rate>
											<timebase>25</timebase>
											<ntsc>FALSE</ntsc>
										</rate>
										<start>509850</start>
										<end>512750</end>
										<in>0</in>
										<out>2900</out>
										<pproTicksIn>0</pproTicksIn>
										<pproTicksOut>29465856000000</pproTicksOut>
										<file id="file-84"/>
										<sourcetrack>
											<mediatype>audio</mediatype>
											<trackindex>2</trackindex>
										</sourcetrack>
										<link>
											<linkclipref>clipitem-385</linkclipref>
											<mediatype>audio</mediatype>
											<trackindex>1</trackindex>
											<clipindex>12</clipindex>
											<groupindex>1</groupindex>
										</link>
										<link>
											<linkclipref>clipitem-409</linkclipref>
											<mediatype>audio</mediatype>
											<trackindex>2</trackindex>
											<clipindex>12</clipindex>
											<groupindex>1</groupindex>
										</link>
										<link>
											<linkclipref>clipitem-433</linkclipref>
											<mediatype>audio</mediatype>
											<trackindex>3</trackindex>
											<clipindex>12</clipindex>
											<groupindex>1</groupindex>
										</link>
										<link>
											<linkclipref>clipitem-457</linkclipref>
											<mediatype>audio</mediatype>
											<trackindex>4</trackindex>
											<clipindex>12</clipindex>
											<groupindex>1</groupindex>
										</link>
										<link>
											<linkclipref>clipitem-481</linkclipref>
											<mediatype>audio</mediatype>
											<trackindex>5</trackindex>
											<clipindex>12</clipindex>
											<groupindex>1</groupindex>
										</link>
										<link>
											<linkclipref>clipitem-502</linkclipref>
											<mediatype>audio</mediatype>
											<trackindex>6</trackindex>
											<clipindex>12</clipindex>
											<groupindex>1</groupindex>
										</link>
										<logginginfo>
											<description></description>
											<scene>12-02</scene>
											<shottake></shottake>
											<lognote></lognote>
											<good></good>
											<originalvideofilename></originalvideofilename>
											<originalaudiofilename></originalaudiofilename>
										</logginginfo>
										<colorinfo>
											<lut></lut>
											<lut1></lut1>
											<asc_sop></asc_sop>
											<asc_sat></asc_sat>
											<lut2></lut2>
										</colorinfo>
										<labels>
											<label2>Mango</label2>
										</labels>
									</clipitem>
									<clipitem id="clipitem-410" premiereChannelType="mono">
										<masterclipid>masterclip-85</masterclipid>
										<name>12-02-2.WAV</name>
										<enabled>TRUE</enabled>
										<duration>2100</duration>
										<rate>
											<timebase>25</timebase>
											<ntsc>FALSE</ntsc>
										</rate>
										<start>513550</start>
										<end>515650</end>
										<in>0</in>
										<out>2100</out>
										<pproTicksIn>0</pproTicksIn>
										<pproTicksOut>21337344000000</pproTicksOut>
										<file id="file-85"/>
										<sourcetrack>
											<mediatype>audio</mediatype>
											<trackindex>2</trackindex>
										</sourcetrack>
										<link>
											<linkclipref>clipitem-386</linkclipref>
											<mediatype>audio</mediatype>
											<trackindex>1</trackindex>
											<clipindex>13</clipindex>
											<groupindex>1</groupindex>
										</link>
										<link>
											<linkclipref>clipitem-410</linkclipref>
											<mediatype>audio</mediatype>
											<trackindex>2</trackindex>
											<clipindex>13</clipindex>
											<groupindex>1</groupindex>
										</link>
										<link>
											<linkclipref>clipitem-434</linkclipref>
											<mediatype>audio</mediatype>
											<trackindex>3</trackindex>
											<clipindex>13</clipindex>
											<groupindex>1</groupindex>
										</link>
										<link>
											<linkclipref>clipitem-458</linkclipref>
											<mediatype>audio</mediatype>
											<trackindex>4</trackindex>
											<clipindex>13</clipindex>
											<groupindex>1</groupindex>
										</link>
										<link>
											<linkclipref>clipitem-482</linkclipref>
											<mediatype>audio</mediatype>
											<trackindex>5</trackindex>
											<clipindex>13</clipindex>
											<groupindex>1</groupindex>
										</link>
										<link>
											<linkclipref>clipitem-503</linkclipref>
											<mediatype>audio</mediatype>
											<trackindex>6</trackindex>
											<clipindex>13</clipindex>
											<groupindex>1</groupindex>
										</link>
										<logginginfo>
											<description></description>
											<scene>12-02</scene>
											<shottake></shottake>
											<lognote></lognote>
											<good></good>
											<originalvideofilename></originalvideofilename>
											<originalaudiofilename></originalaudiofilename>
										</logginginfo>
										<colorinfo>
											<lut></lut>
											<lut1></lut1>
											<asc_sop></asc_sop>
											<asc_sat></asc_sat>
											<lut2></lut2>
										</colorinfo>
										<labels>
											<label2>Mango</label2>
										</labels>
									</clipitem>
									<clipitem id="clipitem-411" premiereChannelType="mono">
										<masterclipid>masterclip-75</masterclipid>
										<name>6-01-1.WAV</name>
										<enabled>TRUE</enabled>
										<duration>4775</duration>
										<rate>
											<timebase>25</timebase>
											<ntsc>FALSE</ntsc>
										</rate>
										<start>769325</start>
										<end>774100</end>
										<in>0</in>
										<out>4775</out>
										<pproTicksIn>0</pproTicksIn>
										<pproTicksOut>48517056000000</pproTicksOut>
										<file id="file-75"/>
										<sourcetrack>
											<mediatype>audio</mediatype>
											<trackindex>2</trackindex>
										</sourcetrack>
										<link>
											<linkclipref>clipitem-387</linkclipref>
											<mediatype>audio</mediatype>
											<trackindex>1</trackindex>
											<clipindex>14</clipindex>
											<groupindex>1</groupindex>
										</link>
										<link>
											<linkclipref>clipitem-411</linkclipref>
											<mediatype>audio</mediatype>
											<trackindex>2</trackindex>
											<clipindex>14</clipindex>
											<groupindex>1</groupindex>
										</link>
										<link>
											<linkclipref>clipitem-435</linkclipref>
											<mediatype>audio</mediatype>
											<trackindex>3</trackindex>
											<clipindex>14</clipindex>
											<groupindex>1</groupindex>
										</link>
										<link>
											<linkclipref>clipitem-459</linkclipref>
											<mediatype>audio</mediatype>
											<trackindex>4</trackindex>
											<clipindex>14</clipindex>
											<groupindex>1</groupindex>
										</link>
										<link>
											<linkclipref>clipitem-483</linkclipref>
											<mediatype>audio</mediatype>
											<trackindex>5</trackindex>
											<clipindex>14</clipindex>
											<groupindex>1</groupindex>
										</link>
										<link>
											<linkclipref>clipitem-504</linkclipref>
											<mediatype>audio</mediatype>
											<trackindex>6</trackindex>
											<clipindex>14</clipindex>
											<groupindex>1</groupindex>
										</link>
										<link>
											<linkclipref>clipitem-517</linkclipref>
											<mediatype>audio</mediatype>
											<trackindex>7</trackindex>
											<clipindex>6</clipindex>
											<groupindex>1</groupindex>
										</link>
										<link>
											<linkclipref>clipitem-529</linkclipref>
											<mediatype>audio</mediatype>
											<trackindex>8</trackindex>
											<clipindex>6</clipindex>
											<groupindex>1</groupindex>
										</link>
										<logginginfo>
											<description></description>
											<scene>6-01</scene>
											<shottake></shottake>
											<lognote></lognote>
											<good></good>
											<originalvideofilename></originalvideofilename>
											<originalaudiofilename></originalaudiofilename>
										</logginginfo>
										<colorinfo>
											<lut></lut>
											<lut1></lut1>
											<asc_sop></asc_sop>
											<asc_sat></asc_sat>
											<lut2></lut2>
										</colorinfo>
										<labels>
											<label2>Mango</label2>
										</labels>
									</clipitem>
									<clipitem id="clipitem-412" premiereChannelType="mono">
										<masterclipid>masterclip-76</masterclipid>
										<name>6-01-2.WAV</name>
										<enabled>TRUE</enabled>
										<duration>4175</duration>
										<rate>
											<timebase>25</timebase>
											<ntsc>FALSE</ntsc>
										</rate>
										<start>791700</start>
										<end>795875</end>
										<in>0</in>
										<out>4175</out>
										<pproTicksIn>0</pproTicksIn>
										<pproTicksOut>42420672000000</pproTicksOut>
										<file id="file-76"/>
										<sourcetrack>
											<mediatype>audio</mediatype>
											<trackindex>2</trackindex>
										</sourcetrack>
										<link>
											<linkclipref>clipitem-388</linkclipref>
											<mediatype>audio</mediatype>
											<trackindex>1</trackindex>
											<clipindex>15</clipindex>
											<groupindex>1</groupindex>
										</link>
										<link>
											<linkclipref>clipitem-412</linkclipref>
											<mediatype>audio</mediatype>
											<trackindex>2</trackindex>
											<clipindex>15</clipindex>
											<groupindex>1</groupindex>
										</link>
										<link>
											<linkclipref>clipitem-436</linkclipref>
											<mediatype>audio</mediatype>
											<trackindex>3</trackindex>
											<clipindex>15</clipindex>
											<groupindex>1</groupindex>
										</link>
										<link>
											<linkclipref>clipitem-460</linkclipref>
											<mediatype>audio</mediatype>
											<trackindex>4</trackindex>
											<clipindex>15</clipindex>
											<groupindex>1</groupindex>
										</link>
										<link>
											<linkclipref>clipitem-484</linkclipref>
											<mediatype>audio</mediatype>
											<trackindex>5</trackindex>
											<clipindex>15</clipindex>
											<groupindex>1</groupindex>
										</link>
										<link>
											<linkclipref>clipitem-505</linkclipref>
											<mediatype>audio</mediatype>
											<trackindex>6</trackindex>
											<clipindex>15</clipindex>
											<groupindex>1</groupindex>
										</link>
										<link>
											<linkclipref>clipitem-518</linkclipref>
											<mediatype>audio</mediatype>
											<trackindex>7</trackindex>
											<clipindex>7</clipindex>
											<groupindex>1</groupindex>
										</link>
										<link>
											<linkclipref>clipitem-530</linkclipref>
											<mediatype>audio</mediatype>
											<trackindex>8</trackindex>
											<clipindex>7</clipindex>
											<groupindex>1</groupindex>
										</link>
										<logginginfo>
											<description></description>
											<scene>6-01</scene>
											<shottake></shottake>
											<lognote></lognote>
											<good></good>
											<originalvideofilename></originalvideofilename>
											<originalaudiofilename></originalaudiofilename>
										</logginginfo>
										<colorinfo>
											<lut></lut>
											<lut1></lut1>
											<asc_sop></asc_sop>
											<asc_sat></asc_sat>
											<lut2></lut2>
										</colorinfo>
										<labels>
											<label2>Mango</label2>
										</labels>
									</clipitem>
									<clipitem id="clipitem-413" premiereChannelType="mono">
										<masterclipid>masterclip-77</masterclipid>
										<name>6-01-3.WAV</name>
										<enabled>TRUE</enabled>
										<duration>4400</duration>
										<rate>
											<timebase>25</timebase>
											<ntsc>FALSE</ntsc>
										</rate>
										<start>801425</start>
										<end>805825</end>
										<in>0</in>
										<out>4400</out>
										<pproTicksIn>0</pproTicksIn>
										<pproTicksOut>44706816000000</pproTicksOut>
										<file id="file-77"/>
										<sourcetrack>
											<mediatype>audio</mediatype>
											<trackindex>2</trackindex>
										</sourcetrack>
										<link>
											<linkclipref>clipitem-389</linkclipref>
											<mediatype>audio</mediatype>
											<trackindex>1</trackindex>
											<clipindex>16</clipindex>
											<groupindex>1</groupindex>
										</link>
										<link>
											<linkclipref>clipitem-413</linkclipref>
											<mediatype>audio</mediatype>
											<trackindex>2</trackindex>
											<clipindex>16</clipindex>
											<groupindex>1</groupindex>
										</link>
										<link>
											<linkclipref>clipitem-437</linkclipref>
											<mediatype>audio</mediatype>
											<trackindex>3</trackindex>
											<clipindex>16</clipindex>
											<groupindex>1</groupindex>
										</link>
										<link>
											<linkclipref>clipitem-461</linkclipref>
											<mediatype>audio</mediatype>
											<trackindex>4</trackindex>
											<clipindex>16</clipindex>
											<groupindex>1</groupindex>
										</link>
										<link>
											<linkclipref>clipitem-485</linkclipref>
											<mediatype>audio</mediatype>
											<trackindex>5</trackindex>
											<clipindex>16</clipindex>
											<groupindex>1</groupindex>
										</link>
										<link>
											<linkclipref>clipitem-506</linkclipref>
											<mediatype>audio</mediatype>
											<trackindex>6</trackindex>
											<clipindex>16</clipindex>
											<groupindex>1</groupindex>
										</link>
										<link>
											<linkclipref>clipitem-519</linkclipref>
											<mediatype>audio</mediatype>
											<trackindex>7</trackindex>
											<clipindex>8</clipindex>
											<groupindex>1</groupindex>
										</link>
										<link>
											<linkclipref>clipitem-531</linkclipref>
											<mediatype>audio</mediatype>
											<trackindex>8</trackindex>
											<clipindex>8</clipindex>
											<groupindex>1</groupindex>
										</link>
										<logginginfo>
											<description></description>
											<scene>6-01</scene>
											<shottake></shottake>
											<lognote></lognote>
											<good></good>
											<originalvideofilename></originalvideofilename>
											<originalaudiofilename></originalaudiofilename>
										</logginginfo>
										<colorinfo>
											<lut></lut>
											<lut1></lut1>
											<asc_sop></asc_sop>
											<asc_sat></asc_sat>
											<lut2></lut2>
										</colorinfo>
										<labels>
											<label2>Mango</label2>
										</labels>
									</clipitem>
									<clipitem id="clipitem-414" premiereChannelType="mono">
										<masterclipid>masterclip-78</masterclipid>
										<name>6-01-4.WAV</name>
										<enabled>TRUE</enabled>
										<duration>5275</duration>
										<rate>
											<timebase>25</timebase>
											<ntsc>FALSE</ntsc>
										</rate>
										<start>811475</start>
										<end>816750</end>
										<in>0</in>
										<out>5275</out>
										<pproTicksIn>0</pproTicksIn>
										<pproTicksOut>53597376000000</pproTicksOut>
										<file id="file-78"/>
										<sourcetrack>
											<mediatype>audio</mediatype>
											<trackindex>2</trackindex>
										</sourcetrack>
										<link>
											<linkclipref>clipitem-390</linkclipref>
											<mediatype>audio</mediatype>
											<trackindex>1</trackindex>
											<clipindex>17</clipindex>
											<groupindex>1</groupindex>
										</link>
										<link>
											<linkclipref>clipitem-414</linkclipref>
											<mediatype>audio</mediatype>
											<trackindex>2</trackindex>
											<clipindex>17</clipindex>
											<groupindex>1</groupindex>
										</link>
										<link>
											<linkclipref>clipitem-438</linkclipref>
											<mediatype>audio</mediatype>
											<trackindex>3</trackindex>
											<clipindex>17</clipindex>
											<groupindex>1</groupindex>
										</link>
										<link>
											<linkclipref>clipitem-462</linkclipref>
											<mediatype>audio</mediatype>
											<trackindex>4</trackindex>
											<clipindex>17</clipindex>
											<groupindex>1</groupindex>
										</link>
										<link>
											<linkclipref>clipitem-486</linkclipref>
											<mediatype>audio</mediatype>
											<trackindex>5</trackindex>
											<clipindex>17</clipindex>
											<groupindex>1</groupindex>
										</link>
										<link>
											<linkclipref>clipitem-507</linkclipref>
											<mediatype>audio</mediatype>
											<trackindex>6</trackindex>
											<clipindex>17</clipindex>
											<groupindex>1</groupindex>
										</link>
										<link>
											<linkclipref>clipitem-520</linkclipref>
											<mediatype>audio</mediatype>
											<trackindex>7</trackindex>
											<clipindex>9</clipindex>
											<groupindex>1</groupindex>
										</link>
										<link>
											<linkclipref>clipitem-532</linkclipref>
											<mediatype>audio</mediatype>
											<trackindex>8</trackindex>
											<clipindex>9</clipindex>
											<groupindex>1</groupindex>
										</link>
										<logginginfo>
											<description></description>
											<scene>6-01</scene>
											<shottake></shottake>
											<lognote></lognote>
											<good></good>
											<originalvideofilename></originalvideofilename>
											<originalaudiofilename></originalaudiofilename>
										</logginginfo>
										<colorinfo>
											<lut></lut>
											<lut1></lut1>
											<asc_sop></asc_sop>
											<asc_sat></asc_sat>
											<lut2></lut2>
										</colorinfo>
										<labels>
											<label2>Mango</label2>
										</labels>
									</clipitem>
									<clipitem id="clipitem-415" premiereChannelType="mono">
										<masterclipid>masterclip-86</masterclipid>
										<name>15-01-1.WAV</name>
										<enabled>TRUE</enabled>
										<duration>3575</duration>
										<rate>
											<timebase>25</timebase>
											<ntsc>FALSE</ntsc>
										</rate>
										<start>910025</start>
										<end>913600</end>
										<in>0</in>
										<out>3575</out>
										<pproTicksIn>0</pproTicksIn>
										<pproTicksOut>36324288000000</pproTicksOut>
										<file id="file-86"/>
										<sourcetrack>
											<mediatype>audio</mediatype>
											<trackindex>2</trackindex>
										</sourcetrack>
										<link>
											<linkclipref>clipitem-391</linkclipref>
											<mediatype>audio</mediatype>
											<trackindex>1</trackindex>
											<clipindex>18</clipindex>
											<groupindex>1</groupindex>
										</link>
										<link>
											<linkclipref>clipitem-415</linkclipref>
											<mediatype>audio</mediatype>
											<trackindex>2</trackindex>
											<clipindex>18</clipindex>
											<groupindex>1</groupindex>
										</link>
										<link>
											<linkclipref>clipitem-439</linkclipref>
											<mediatype>audio</mediatype>
											<trackindex>3</trackindex>
											<clipindex>18</clipindex>
											<groupindex>1</groupindex>
										</link>
										<link>
											<linkclipref>clipitem-463</linkclipref>
											<mediatype>audio</mediatype>
											<trackindex>4</trackindex>
											<clipindex>18</clipindex>
											<groupindex>1</groupindex>
										</link>
										<link>
											<linkclipref>clipitem-487</linkclipref>
											<mediatype>audio</mediatype>
											<trackindex>5</trackindex>
											<clipindex>18</clipindex>
											<groupindex>1</groupindex>
										</link>
										<link>
											<linkclipref>clipitem-508</linkclipref>
											<mediatype>audio</mediatype>
											<trackindex>6</trackindex>
											<clipindex>18</clipindex>
											<groupindex>1</groupindex>
										</link>
										<link>
											<linkclipref>clipitem-521</linkclipref>
											<mediatype>audio</mediatype>
											<trackindex>7</trackindex>
											<clipindex>10</clipindex>
											<groupindex>1</groupindex>
										</link>
										<link>
											<linkclipref>clipitem-533</linkclipref>
											<mediatype>audio</mediatype>
											<trackindex>8</trackindex>
											<clipindex>10</clipindex>
											<groupindex>1</groupindex>
										</link>
										<logginginfo>
											<description></description>
											<scene>15-01</scene>
											<shottake></shottake>
											<lognote></lognote>
											<good></good>
											<originalvideofilename></originalvideofilename>
											<originalaudiofilename></originalaudiofilename>
										</logginginfo>
										<colorinfo>
											<lut></lut>
											<lut1></lut1>
											<asc_sop></asc_sop>
											<asc_sat></asc_sat>
											<lut2></lut2>
										</colorinfo>
										<labels>
											<label2>Mango</label2>
										</labels>
									</clipitem>
									<clipitem id="clipitem-416" premiereChannelType="mono">
										<masterclipid>masterclip-87</masterclipid>
										<name>15-01-2.WAV</name>
										<enabled>TRUE</enabled>
										<duration>4100</duration>
										<rate>
											<timebase>25</timebase>
											<ntsc>FALSE</ntsc>
										</rate>
										<start>916775</start>
										<end>920875</end>
										<in>0</in>
										<out>4100</out>
										<pproTicksIn>0</pproTicksIn>
										<pproTicksOut>41658624000000</pproTicksOut>
										<file id="file-87"/>
										<sourcetrack>
											<mediatype>audio</mediatype>
											<trackindex>2</trackindex>
										</sourcetrack>
										<link>
											<linkclipref>clipitem-392</linkclipref>
											<mediatype>audio</mediatype>
											<trackindex>1</trackindex>
											<clipindex>19</clipindex>
											<groupindex>1</groupindex>
										</link>
										<link>
											<linkclipref>clipitem-416</linkclipref>
											<mediatype>audio</mediatype>
											<trackindex>2</trackindex>
											<clipindex>19</clipindex>
											<groupindex>1</groupindex>
										</link>
										<link>
											<linkclipref>clipitem-440</linkclipref>
											<mediatype>audio</mediatype>
											<trackindex>3</trackindex>
											<clipindex>19</clipindex>
											<groupindex>1</groupindex>
										</link>
										<link>
											<linkclipref>clipitem-464</linkclipref>
											<mediatype>audio</mediatype>
											<trackindex>4</trackindex>
											<clipindex>19</clipindex>
											<groupindex>1</groupindex>
										</link>
										<link>
											<linkclipref>clipitem-488</linkclipref>
											<mediatype>audio</mediatype>
											<trackindex>5</trackindex>
											<clipindex>19</clipindex>
											<groupindex>1</groupindex>
										</link>
										<link>
											<linkclipref>clipitem-509</linkclipref>
											<mediatype>audio</mediatype>
											<trackindex>6</trackindex>
											<clipindex>19</clipindex>
											<groupindex>1</groupindex>
										</link>
										<link>
											<linkclipref>clipitem-522</linkclipref>
											<mediatype>audio</mediatype>
											<trackindex>7</trackindex>
											<clipindex>11</clipindex>
											<groupindex>1</groupindex>
										</link>
										<link>
											<linkclipref>clipitem-534</linkclipref>
											<mediatype>audio</mediatype>
											<trackindex>8</trackindex>
											<clipindex>11</clipindex>
											<groupindex>1</groupindex>
										</link>
										<logginginfo>
											<description></description>
											<scene>15-01</scene>
											<shottake></shottake>
											<lognote></lognote>
											<good></good>
											<originalvideofilename></originalvideofilename>
											<originalaudiofilename></originalaudiofilename>
										</logginginfo>
										<colorinfo>
											<lut></lut>
											<lut1></lut1>
											<asc_sop></asc_sop>
											<asc_sat></asc_sat>
											<lut2></lut2>
										</colorinfo>
										<labels>
											<label2>Mango</label2>
										</labels>
									</clipitem>
									<clipitem id="clipitem-417" premiereChannelType="mono">
										<masterclipid>masterclip-71</masterclipid>
										<name>3-WILD-MOTHER-1.WAV</name>
										<enabled>TRUE</enabled>
										<duration>2375</duration>
										<rate>
											<timebase>25</timebase>
											<ntsc>FALSE</ntsc>
										</rate>
										<start>923950</start>
										<end>926325</end>
										<in>0</in>
										<out>2375</out>
										<pproTicksIn>0</pproTicksIn>
										<pproTicksOut>24131520000000</pproTicksOut>
										<file id="file-71"/>
										<sourcetrack>
											<mediatype>audio</mediatype>
											<trackindex>2</trackindex>
										</sourcetrack>
										<link>
											<linkclipref>clipitem-393</linkclipref>
											<mediatype>audio</mediatype>
											<trackindex>1</trackindex>
											<clipindex>20</clipindex>
											<groupindex>1</groupindex>
										</link>
										<link>
											<linkclipref>clipitem-417</linkclipref>
											<mediatype>audio</mediatype>
											<trackindex>2</trackindex>
											<clipindex>20</clipindex>
											<groupindex>1</groupindex>
										</link>
										<link>
											<linkclipref>clipitem-441</linkclipref>
											<mediatype>audio</mediatype>
											<trackindex>3</trackindex>
											<clipindex>20</clipindex>
											<groupindex>1</groupindex>
										</link>
										<link>
											<linkclipref>clipitem-465</linkclipref>
											<mediatype>audio</mediatype>
											<trackindex>4</trackindex>
											<clipindex>20</clipindex>
											<groupindex>1</groupindex>
										</link>
										<link>
											<linkclipref>clipitem-489</linkclipref>
											<mediatype>audio</mediatype>
											<trackindex>5</trackindex>
											<clipindex>20</clipindex>
											<groupindex>1</groupindex>
										</link>
										<link>
											<linkclipref>clipitem-510</linkclipref>
											<mediatype>audio</mediatype>
											<trackindex>6</trackindex>
											<clipindex>20</clipindex>
											<groupindex>1</groupindex>
										</link>
										<link>
											<linkclipref>clipitem-523</linkclipref>
											<mediatype>audio</mediatype>
											<trackindex>7</trackindex>
											<clipindex>12</clipindex>
											<groupindex>1</groupindex>
										</link>
										<link>
											<linkclipref>clipitem-535</linkclipref>
											<mediatype>audio</mediatype>
											<trackindex>8</trackindex>
											<clipindex>12</clipindex>
											<groupindex>1</groupindex>
										</link>
										<logginginfo>
											<description></description>
											<scene>3-WILD-MOTHER</scene>
											<shottake></shottake>
											<lognote></lognote>
											<good></good>
											<originalvideofilename></originalvideofilename>
											<originalaudiofilename></originalaudiofilename>
										</logginginfo>
										<colorinfo>
											<lut></lut>
											<lut1></lut1>
											<asc_sop></asc_sop>
											<asc_sat></asc_sat>
											<lut2></lut2>
										</colorinfo>
										<labels>
											<label2>Mango</label2>
										</labels>
									</clipitem>
									<clipitem id="clipitem-418" premiereChannelType="mono">
										<masterclipid>masterclip-70</masterclipid>
										<name>3-RT-1.WAV</name>
										<enabled>TRUE</enabled>
										<duration>1700</duration>
										<rate>
											<timebase>25</timebase>
											<ntsc>FALSE</ntsc>
										</rate>
										<start>927000</start>
										<end>928700</end>
										<in>0</in>
										<out>1700</out>
										<pproTicksIn>0</pproTicksIn>
										<pproTicksOut>17273088000000</pproTicksOut>
										<file id="file-70"/>
										<sourcetrack>
											<mediatype>audio</mediatype>
											<trackindex>1</trackindex>
										</sourcetrack>
										<link>
											<linkclipref>clipitem-394</linkclipref>
											<mediatype>audio</mediatype>
											<trackindex>1</trackindex>
											<clipindex>21</clipindex>
											<groupindex>1</groupindex>
										</link>
										<link>
											<linkclipref>clipitem-418</linkclipref>
											<mediatype>audio</mediatype>
											<trackindex>2</trackindex>
											<clipindex>21</clipindex>
											<groupindex>1</groupindex>
										</link>
										<link>
											<linkclipref>clipitem-442</linkclipref>
											<mediatype>audio</mediatype>
											<trackindex>3</trackindex>
											<clipindex>21</clipindex>
											<groupindex>1</groupindex>
										</link>
										<link>
											<linkclipref>clipitem-466</linkclipref>
											<mediatype>audio</mediatype>
											<trackindex>4</trackindex>
											<clipindex>21</clipindex>
											<groupindex>1</groupindex>
										</link>
										<logginginfo>
											<description></description>
											<scene>3-RT</scene>
											<shottake></shottake>
											<lognote></lognote>
											<good></good>
											<originalvideofilename></originalvideofilename>
											<originalaudiofilename></originalaudiofilename>
										</logginginfo>
										<colorinfo>
											<lut></lut>
											<lut1></lut1>
											<asc_sop></asc_sop>
											<asc_sat></asc_sat>
											<lut2></lut2>
										</colorinfo>
										<labels>
											<label2>Mango</label2>
										</labels>
									</clipitem>
									<clipitem id="clipitem-419" premiereChannelType="mono">
										<masterclipid>masterclip-72</masterclipid>
										<name>3-WILD-MOTHER-2.WAV</name>
										<enabled>TRUE</enabled>
										<duration>500</duration>
										<rate>
											<timebase>25</timebase>
											<ntsc>FALSE</ntsc>
										</rate>
										<start>929500</start>
										<end>930000</end>
										<in>0</in>
										<out>500</out>
										<pproTicksIn>0</pproTicksIn>
										<pproTicksOut>5080320000000</pproTicksOut>
										<file id="file-72"/>
										<sourcetrack>
											<mediatype>audio</mediatype>
											<trackindex>1</trackindex>
										</sourcetrack>
										<link>
											<linkclipref>clipitem-395</linkclipref>
											<mediatype>audio</mediatype>
											<trackindex>1</trackindex>
											<clipindex>22</clipindex>
											<groupindex>1</groupindex>
										</link>
										<link>
											<linkclipref>clipitem-419</linkclipref>
											<mediatype>audio</mediatype>
											<trackindex>2</trackindex>
											<clipindex>22</clipindex>
											<groupindex>1</groupindex>
										</link>
										<link>
											<linkclipref>clipitem-443</linkclipref>
											<mediatype>audio</mediatype>
											<trackindex>3</trackindex>
											<clipindex>22</clipindex>
											<groupindex>1</groupindex>
										</link>
										<link>
											<linkclipref>clipitem-467</linkclipref>
											<mediatype>audio</mediatype>
											<trackindex>4</trackindex>
											<clipindex>22</clipindex>
											<groupindex>1</groupindex>
										</link>
										<logginginfo>
											<description></description>
											<scene>3-WILD-MOTHER</scene>
											<shottake></shottake>
											<lognote></lognote>
											<good></good>
											<originalvideofilename></originalvideofilename>
											<originalaudiofilename></originalaudiofilename>
										</logginginfo>
										<colorinfo>
											<lut></lut>
											<lut1></lut1>
											<asc_sop></asc_sop>
											<asc_sat></asc_sat>
											<lut2></lut2>
										</colorinfo>
										<labels>
											<label2>Mango</label2>
										</labels>
									</clipitem>
									<clipitem id="clipitem-420" premiereChannelType="mono">
										<masterclipid>masterclip-73</masterclipid>
										<name>3-WILD-MOTHER-4.WAV</name>
										<enabled>TRUE</enabled>
										<duration>975</duration>
										<rate>
											<timebase>25</timebase>
											<ntsc>FALSE</ntsc>
										</rate>
										<start>930100</start>
										<end>931075</end>
										<in>0</in>
										<out>975</out>
										<pproTicksIn>0</pproTicksIn>
										<pproTicksOut>9906624000000</pproTicksOut>
										<file id="file-73"/>
										<sourcetrack>
											<mediatype>audio</mediatype>
											<trackindex>2</trackindex>
										</sourcetrack>
										<link>
											<linkclipref>clipitem-396</linkclipref>
											<mediatype>audio</mediatype>
											<trackindex>1</trackindex>
											<clipindex>23</clipindex>
											<groupindex>1</groupindex>
										</link>
										<link>
											<linkclipref>clipitem-420</linkclipref>
											<mediatype>audio</mediatype>
											<trackindex>2</trackindex>
											<clipindex>23</clipindex>
											<groupindex>1</groupindex>
										</link>
										<link>
											<linkclipref>clipitem-444</linkclipref>
											<mediatype>audio</mediatype>
											<trackindex>3</trackindex>
											<clipindex>23</clipindex>
											<groupindex>1</groupindex>
										</link>
										<link>
											<linkclipref>clipitem-468</linkclipref>
											<mediatype>audio</mediatype>
											<trackindex>4</trackindex>
											<clipindex>23</clipindex>
											<groupindex>1</groupindex>
										</link>
										<link>
											<linkclipref>clipitem-490</linkclipref>
											<mediatype>audio</mediatype>
											<trackindex>5</trackindex>
											<clipindex>21</clipindex>
											<groupindex>1</groupindex>
										</link>
										<link>
											<linkclipref>clipitem-511</linkclipref>
											<mediatype>audio</mediatype>
											<trackindex>6</trackindex>
											<clipindex>21</clipindex>
											<groupindex>1</groupindex>
										</link>
										<logginginfo>
											<description></description>
											<scene>3-WILD-MOTHER</scene>
											<shottake></shottake>
											<lognote></lognote>
											<good></good>
											<originalvideofilename></originalvideofilename>
											<originalaudiofilename></originalaudiofilename>
										</logginginfo>
										<colorinfo>
											<lut></lut>
											<lut1></lut1>
											<asc_sop></asc_sop>
											<asc_sat></asc_sat>
											<lut2></lut2>
										</colorinfo>
										<labels>
											<label2>Mango</label2>
										</labels>
									</clipitem>
									<clipitem id="clipitem-421" premiereChannelType="mono">
										<masterclipid>masterclip-74</masterclipid>
										<name>3-WILD-MOTHER-5.WAV</name>
										<enabled>TRUE</enabled>
										<duration>2875</duration>
										<rate>
											<timebase>25</timebase>
											<ntsc>FALSE</ntsc>
										</rate>
										<start>932150</start>
										<end>935025</end>
										<in>0</in>
										<out>2875</out>
										<pproTicksIn>0</pproTicksIn>
										<pproTicksOut>29211840000000</pproTicksOut>
										<file id="file-74"/>
										<sourcetrack>
											<mediatype>audio</mediatype>
											<trackindex>1</trackindex>
										</sourcetrack>
										<link>
											<linkclipref>clipitem-397</linkclipref>
											<mediatype>audio</mediatype>
											<trackindex>1</trackindex>
											<clipindex>24</clipindex>
											<groupindex>1</groupindex>
										</link>
										<link>
											<linkclipref>clipitem-421</linkclipref>
											<mediatype>audio</mediatype>
											<trackindex>2</trackindex>
											<clipindex>24</clipindex>
											<groupindex>1</groupindex>
										</link>
										<link>
											<linkclipref>clipitem-445</linkclipref>
											<mediatype>audio</mediatype>
											<trackindex>3</trackindex>
											<clipindex>24</clipindex>
											<groupindex>1</groupindex>
										</link>
										<link>
											<linkclipref>clipitem-469</linkclipref>
											<mediatype>audio</mediatype>
											<trackindex>4</trackindex>
											<clipindex>24</clipindex>
											<groupindex>1</groupindex>
										</link>
										<logginginfo>
											<description></description>
											<scene>3-WILD-MOTHER</scene>
											<shottake></shottake>
											<lognote></lognote>
											<good></good>
											<originalvideofilename></originalvideofilename>
											<originalaudiofilename></originalaudiofilename>
										</logginginfo>
										<colorinfo>
											<lut></lut>
											<lut1></lut1>
											<asc_sop></asc_sop>
											<asc_sat></asc_sat>
											<lut2></lut2>
										</colorinfo>
										<labels>
											<label2>Mango</label2>
										</labels>
									</clipitem>
									<enabled>TRUE</enabled>
									<locked>FALSE</locked>
									<outputchannelindex>2</outputchannelindex>
								</track>
								<track TL.SQTrackAudioKeyframeStyle="0" TL.SQTrackShy="0" TL.SQTrackExpandedHeight="25" TL.SQTrackExpanded="0" MZ.TrackTargeted="1" PannerCurrentValue="0.5" PannerIsInverted="true" PannerStartKeyframe="-91445760000000000,0.5,0,0,0,0,0,0" PannerName="Balance" currentExplodedTrackIndex="0" totalExplodedTrackCount="1" premiereTrackType="Stereo">
									<clipitem id="clipitem-422" premiereChannelType="mono">
										<masterclipid>masterclip-65</masterclipid>
										<name>3-01-1.WAV</name>
										<enabled>TRUE</enabled>
										<duration>2600</duration>
										<rate>
											<timebase>25</timebase>
											<ntsc>FALSE</ntsc>
										</rate>
										<start>0</start>
										<end>2600</end>
										<in>0</in>
										<out>2600</out>
										<pproTicksIn>0</pproTicksIn>
										<pproTicksOut>26417664000000</pproTicksOut>
										<file id="file-65"/>
										<sourcetrack>
											<mediatype>audio</mediatype>
											<trackindex>3</trackindex>
										</sourcetrack>
											<marker>
												<comment></comment>
												<name></name>
												<in>567</in>
												<out>-1</out>
												<pproColor>4281828977</pproColor>
											</marker>
											<marker>
												<comment></comment>
												<name></name>
												<in>2396</in>
												<out>-1</out>
												<pproColor>4281740498</pproColor>
											</marker>
										<link>
											<linkclipref>clipitem-374</linkclipref>
											<mediatype>audio</mediatype>
											<trackindex>1</trackindex>
											<clipindex>1</clipindex>
											<groupindex>1</groupindex>
										</link>
										<link>
											<linkclipref>clipitem-398</linkclipref>
											<mediatype>audio</mediatype>
											<trackindex>2</trackindex>
											<clipindex>1</clipindex>
											<groupindex>1</groupindex>
										</link>
										<link>
											<linkclipref>clipitem-422</linkclipref>
											<mediatype>audio</mediatype>
											<trackindex>3</trackindex>
											<clipindex>1</clipindex>
											<groupindex>1</groupindex>
										</link>
										<link>
											<linkclipref>clipitem-446</linkclipref>
											<mediatype>audio</mediatype>
											<trackindex>4</trackindex>
											<clipindex>1</clipindex>
											<groupindex>1</groupindex>
										</link>
										<link>
											<linkclipref>clipitem-470</linkclipref>
											<mediatype>audio</mediatype>
											<trackindex>5</trackindex>
											<clipindex>1</clipindex>
											<groupindex>1</groupindex>
										</link>
										<link>
											<linkclipref>clipitem-491</linkclipref>
											<mediatype>audio</mediatype>
											<trackindex>6</trackindex>
											<clipindex>1</clipindex>
											<groupindex>1</groupindex>
										</link>
										<logginginfo>
											<description></description>
											<scene>3-01</scene>
											<shottake></shottake>
											<lognote></lognote>
											<good></good>
											<originalvideofilename></originalvideofilename>
											<originalaudiofilename></originalaudiofilename>
										</logginginfo>
										<colorinfo>
											<lut></lut>
											<lut1></lut1>
											<asc_sop></asc_sop>
											<asc_sat></asc_sat>
											<lut2></lut2>
										</colorinfo>
										<labels>
											<label2>Mango</label2>
										</labels>
									</clipitem>
									<clipitem id="clipitem-423" premiereChannelType="mono">
										<masterclipid>masterclip-66</masterclipid>
										<name>3-01-2.WAV</name>
										<enabled>TRUE</enabled>
										<duration>2650</duration>
										<rate>
											<timebase>25</timebase>
											<ntsc>FALSE</ntsc>
										</rate>
										<start>4675</start>
										<end>7325</end>
										<in>0</in>
										<out>2650</out>
										<pproTicksIn>0</pproTicksIn>
										<pproTicksOut>26925696000000</pproTicksOut>
										<file id="file-66"/>
										<sourcetrack>
											<mediatype>audio</mediatype>
											<trackindex>3</trackindex>
										</sourcetrack>
											<marker>
												<comment></comment>
												<name></name>
												<in>312</in>
												<out>-1</out>
												<pproColor>4281828977</pproColor>
											</marker>
											<marker>
												<comment></comment>
												<name></name>
												<in>2443</in>
												<out>-1</out>
												<pproColor>4281740498</pproColor>
											</marker>
										<link>
											<linkclipref>clipitem-375</linkclipref>
											<mediatype>audio</mediatype>
											<trackindex>1</trackindex>
											<clipindex>2</clipindex>
											<groupindex>1</groupindex>
										</link>
										<link>
											<linkclipref>clipitem-399</linkclipref>
											<mediatype>audio</mediatype>
											<trackindex>2</trackindex>
											<clipindex>2</clipindex>
											<groupindex>1</groupindex>
										</link>
										<link>
											<linkclipref>clipitem-423</linkclipref>
											<mediatype>audio</mediatype>
											<trackindex>3</trackindex>
											<clipindex>2</clipindex>
											<groupindex>1</groupindex>
										</link>
										<link>
											<linkclipref>clipitem-447</linkclipref>
											<mediatype>audio</mediatype>
											<trackindex>4</trackindex>
											<clipindex>2</clipindex>
											<groupindex>1</groupindex>
										</link>
										<link>
											<linkclipref>clipitem-471</linkclipref>
											<mediatype>audio</mediatype>
											<trackindex>5</trackindex>
											<clipindex>2</clipindex>
											<groupindex>1</groupindex>
										</link>
										<link>
											<linkclipref>clipitem-492</linkclipref>
											<mediatype>audio</mediatype>
											<trackindex>6</trackindex>
											<clipindex>2</clipindex>
											<groupindex>1</groupindex>
										</link>
										<logginginfo>
											<description></description>
											<scene>3-01</scene>
											<shottake></shottake>
											<lognote></lognote>
											<good></good>
											<originalvideofilename></originalvideofilename>
											<originalaudiofilename></originalaudiofilename>
										</logginginfo>
										<colorinfo>
											<lut></lut>
											<lut1></lut1>
											<asc_sop></asc_sop>
											<asc_sat></asc_sat>
											<lut2></lut2>
										</colorinfo>
										<labels>
											<label2>Mango</label2>
										</labels>
									</clipitem>
									<clipitem id="clipitem-424" premiereChannelType="mono">
										<masterclipid>masterclip-67</masterclipid>
										<name>3-02-1.WAV</name>
										<enabled>TRUE</enabled>
										<duration>2725</duration>
										<rate>
											<timebase>25</timebase>
											<ntsc>FALSE</ntsc>
										</rate>
										<start>41575</start>
										<end>44300</end>
										<in>0</in>
										<out>2725</out>
										<pproTicksIn>0</pproTicksIn>
										<pproTicksOut>27687744000000</pproTicksOut>
										<file id="file-67"/>
										<sourcetrack>
											<mediatype>audio</mediatype>
											<trackindex>3</trackindex>
										</sourcetrack>
											<marker>
												<comment></comment>
												<name></name>
												<in>556</in>
												<out>-1</out>
												<pproColor>4281828977</pproColor>
											</marker>
											<marker>
												<comment></comment>
												<name></name>
												<in>2558</in>
												<out>-1</out>
												<pproColor>4281740498</pproColor>
											</marker>
										<link>
											<linkclipref>clipitem-376</linkclipref>
											<mediatype>audio</mediatype>
											<trackindex>1</trackindex>
											<clipindex>3</clipindex>
											<groupindex>1</groupindex>
										</link>
										<link>
											<linkclipref>clipitem-400</linkclipref>
											<mediatype>audio</mediatype>
											<trackindex>2</trackindex>
											<clipindex>3</clipindex>
											<groupindex>1</groupindex>
										</link>
										<link>
											<linkclipref>clipitem-424</linkclipref>
											<mediatype>audio</mediatype>
											<trackindex>3</trackindex>
											<clipindex>3</clipindex>
											<groupindex>1</groupindex>
										</link>
										<link>
											<linkclipref>clipitem-448</linkclipref>
											<mediatype>audio</mediatype>
											<trackindex>4</trackindex>
											<clipindex>3</clipindex>
											<groupindex>1</groupindex>
										</link>
										<link>
											<linkclipref>clipitem-472</linkclipref>
											<mediatype>audio</mediatype>
											<trackindex>5</trackindex>
											<clipindex>3</clipindex>
											<groupindex>1</groupindex>
										</link>
										<link>
											<linkclipref>clipitem-493</linkclipref>
											<mediatype>audio</mediatype>
											<trackindex>6</trackindex>
											<clipindex>3</clipindex>
											<groupindex>1</groupindex>
										</link>
										<logginginfo>
											<description></description>
											<scene>3-02</scene>
											<shottake></shottake>
											<lognote></lognote>
											<good></good>
											<originalvideofilename></originalvideofilename>
											<originalaudiofilename></originalaudiofilename>
										</logginginfo>
										<colorinfo>
											<lut></lut>
											<lut1></lut1>
											<asc_sop></asc_sop>
											<asc_sat></asc_sat>
											<lut2></lut2>
										</colorinfo>
										<labels>
											<label2>Mango</label2>
										</labels>
									</clipitem>
									<clipitem id="clipitem-425" premiereChannelType="mono">
										<masterclipid>masterclip-68</masterclipid>
										<name>3-03-1.WAV</name>
										<enabled>TRUE</enabled>
										<duration>2200</duration>
										<rate>
											<timebase>25</timebase>
											<ntsc>FALSE</ntsc>
										</rate>
										<start>73850</start>
										<end>76050</end>
										<in>0</in>
										<out>2200</out>
										<pproTicksIn>0</pproTicksIn>
										<pproTicksOut>22353408000000</pproTicksOut>
										<file id="file-68"/>
										<sourcetrack>
											<mediatype>audio</mediatype>
											<trackindex>3</trackindex>
										</sourcetrack>
											<marker>
												<comment></comment>
												<name></name>
												<in>526</in>
												<out>-1</out>
												<pproColor>4281828977</pproColor>
											</marker>
											<marker>
												<comment></comment>
												<name></name>
												<in>1898</in>
												<out>-1</out>
												<pproColor>4281740498</pproColor>
											</marker>
										<link>
											<linkclipref>clipitem-377</linkclipref>
											<mediatype>audio</mediatype>
											<trackindex>1</trackindex>
											<clipindex>4</clipindex>
											<groupindex>1</groupindex>
										</link>
										<link>
											<linkclipref>clipitem-401</linkclipref>
											<mediatype>audio</mediatype>
											<trackindex>2</trackindex>
											<clipindex>4</clipindex>
											<groupindex>1</groupindex>
										</link>
										<link>
											<linkclipref>clipitem-425</linkclipref>
											<mediatype>audio</mediatype>
											<trackindex>3</trackindex>
											<clipindex>4</clipindex>
											<groupindex>1</groupindex>
										</link>
										<link>
											<linkclipref>clipitem-449</linkclipref>
											<mediatype>audio</mediatype>
											<trackindex>4</trackindex>
											<clipindex>4</clipindex>
											<groupindex>1</groupindex>
										</link>
										<link>
											<linkclipref>clipitem-473</linkclipref>
											<mediatype>audio</mediatype>
											<trackindex>5</trackindex>
											<clipindex>4</clipindex>
											<groupindex>1</groupindex>
										</link>
										<link>
											<linkclipref>clipitem-494</linkclipref>
											<mediatype>audio</mediatype>
											<trackindex>6</trackindex>
											<clipindex>4</clipindex>
											<groupindex>1</groupindex>
										</link>
										<logginginfo>
											<description></description>
											<scene>3-03</scene>
											<shottake></shottake>
											<lognote></lognote>
											<good></good>
											<originalvideofilename></originalvideofilename>
											<originalaudiofilename></originalaudiofilename>
										</logginginfo>
										<colorinfo>
											<lut></lut>
											<lut1></lut1>
											<asc_sop></asc_sop>
											<asc_sat></asc_sat>
											<lut2></lut2>
										</colorinfo>
										<labels>
											<label2>Mango</label2>
										</labels>
									</clipitem>
									<clipitem id="clipitem-426" premiereChannelType="mono">
										<masterclipid>masterclip-69</masterclipid>
										<name>3-ATMOS-1.WAV</name>
										<enabled>TRUE</enabled>
										<duration>2950</duration>
										<rate>
											<timebase>25</timebase>
											<ntsc>FALSE</ntsc>
										</rate>
										<start>112025</start>
										<end>114975</end>
										<in>0</in>
										<out>2950</out>
										<pproTicksIn>0</pproTicksIn>
										<pproTicksOut>29973888000000</pproTicksOut>
										<file id="file-69"/>
										<sourcetrack>
											<mediatype>audio</mediatype>
											<trackindex>3</trackindex>
										</sourcetrack>
										<link>
											<linkclipref>clipitem-378</linkclipref>
											<mediatype>audio</mediatype>
											<trackindex>1</trackindex>
											<clipindex>5</clipindex>
											<groupindex>1</groupindex>
										</link>
										<link>
											<linkclipref>clipitem-402</linkclipref>
											<mediatype>audio</mediatype>
											<trackindex>2</trackindex>
											<clipindex>5</clipindex>
											<groupindex>1</groupindex>
										</link>
										<link>
											<linkclipref>clipitem-426</linkclipref>
											<mediatype>audio</mediatype>
											<trackindex>3</trackindex>
											<clipindex>5</clipindex>
											<groupindex>1</groupindex>
										</link>
										<link>
											<linkclipref>clipitem-450</linkclipref>
											<mediatype>audio</mediatype>
											<trackindex>4</trackindex>
											<clipindex>5</clipindex>
											<groupindex>1</groupindex>
										</link>
										<link>
											<linkclipref>clipitem-474</linkclipref>
											<mediatype>audio</mediatype>
											<trackindex>5</trackindex>
											<clipindex>5</clipindex>
											<groupindex>1</groupindex>
										</link>
										<link>
											<linkclipref>clipitem-495</linkclipref>
											<mediatype>audio</mediatype>
											<trackindex>6</trackindex>
											<clipindex>5</clipindex>
											<groupindex>1</groupindex>
										</link>
										<logginginfo>
											<description></description>
											<scene>3-ATMOS</scene>
											<shottake></shottake>
											<lognote></lognote>
											<good></good>
											<originalvideofilename></originalvideofilename>
											<originalaudiofilename></originalaudiofilename>
										</logginginfo>
										<colorinfo>
											<lut></lut>
											<lut1></lut1>
											<asc_sop></asc_sop>
											<asc_sat></asc_sat>
											<lut2></lut2>
										</colorinfo>
										<labels>
											<label2>Mango</label2>
										</labels>
									</clipitem>
									<clipitem id="clipitem-427" premiereChannelType="mono">
										<masterclipid>masterclip-88</masterclipid>
										<name>ATMOS_CHURCH-1.WAV</name>
										<enabled>TRUE</enabled>
										<duration>2975</duration>
										<rate>
											<timebase>25</timebase>
											<ntsc>FALSE</ntsc>
										</rate>
										<start>253275</start>
										<end>256250</end>
										<in>0</in>
										<out>2975</out>
										<pproTicksIn>0</pproTicksIn>
										<pproTicksOut>30227904000000</pproTicksOut>
										<file id="file-88"/>
										<sourcetrack>
											<mediatype>audio</mediatype>
											<trackindex>3</trackindex>
										</sourcetrack>
										<link>
											<linkclipref>clipitem-379</linkclipref>
											<mediatype>audio</mediatype>
											<trackindex>1</trackindex>
											<clipindex>6</clipindex>
											<groupindex>1</groupindex>
										</link>
										<link>
											<linkclipref>clipitem-403</linkclipref>
											<mediatype>audio</mediatype>
											<trackindex>2</trackindex>
											<clipindex>6</clipindex>
											<groupindex>1</groupindex>
										</link>
										<link>
											<linkclipref>clipitem-427</linkclipref>
											<mediatype>audio</mediatype>
											<trackindex>3</trackindex>
											<clipindex>6</clipindex>
											<groupindex>1</groupindex>
										</link>
										<link>
											<linkclipref>clipitem-451</linkclipref>
											<mediatype>audio</mediatype>
											<trackindex>4</trackindex>
											<clipindex>6</clipindex>
											<groupindex>1</groupindex>
										</link>
										<link>
											<linkclipref>clipitem-475</linkclipref>
											<mediatype>audio</mediatype>
											<trackindex>5</trackindex>
											<clipindex>6</clipindex>
											<groupindex>1</groupindex>
										</link>
										<link>
											<linkclipref>clipitem-496</linkclipref>
											<mediatype>audio</mediatype>
											<trackindex>6</trackindex>
											<clipindex>6</clipindex>
											<groupindex>1</groupindex>
										</link>
										<logginginfo>
											<description></description>
											<scene>ATMOS_CHURCH</scene>
											<shottake></shottake>
											<lognote></lognote>
											<good></good>
											<originalvideofilename></originalvideofilename>
											<originalaudiofilename></originalaudiofilename>
										</logginginfo>
										<colorinfo>
											<lut></lut>
											<lut1></lut1>
											<asc_sop></asc_sop>
											<asc_sat></asc_sat>
											<lut2></lut2>
										</colorinfo>
										<labels>
											<label2>Mango</label2>
										</labels>
									</clipitem>
									<clipitem id="clipitem-428" premiereChannelType="mono">
										<masterclipid>masterclip-79</masterclipid>
										<name>12-01-1.WAV</name>
										<enabled>TRUE</enabled>
										<duration>3200</duration>
										<rate>
											<timebase>25</timebase>
											<ntsc>FALSE</ntsc>
										</rate>
										<start>458975</start>
										<end>462175</end>
										<in>0</in>
										<out>3200</out>
										<pproTicksIn>0</pproTicksIn>
										<pproTicksOut>32514048000000</pproTicksOut>
										<file id="file-79"/>
										<sourcetrack>
											<mediatype>audio</mediatype>
											<trackindex>3</trackindex>
										</sourcetrack>
											<marker>
												<comment></comment>
												<name></name>
												<in>845</in>
												<out>-1</out>
												<pproColor>4281828977</pproColor>
											</marker>
											<marker>
												<comment></comment>
												<name></name>
												<in>3026</in>
												<out>-1</out>
												<pproColor>4281740498</pproColor>
											</marker>
										<link>
											<linkclipref>clipitem-380</linkclipref>
											<mediatype>audio</mediatype>
											<trackindex>1</trackindex>
											<clipindex>7</clipindex>
											<groupindex>1</groupindex>
										</link>
										<link>
											<linkclipref>clipitem-404</linkclipref>
											<mediatype>audio</mediatype>
											<trackindex>2</trackindex>
											<clipindex>7</clipindex>
											<groupindex>1</groupindex>
										</link>
										<link>
											<linkclipref>clipitem-428</linkclipref>
											<mediatype>audio</mediatype>
											<trackindex>3</trackindex>
											<clipindex>7</clipindex>
											<groupindex>1</groupindex>
										</link>
										<link>
											<linkclipref>clipitem-452</linkclipref>
											<mediatype>audio</mediatype>
											<trackindex>4</trackindex>
											<clipindex>7</clipindex>
											<groupindex>1</groupindex>
										</link>
										<link>
											<linkclipref>clipitem-476</linkclipref>
											<mediatype>audio</mediatype>
											<trackindex>5</trackindex>
											<clipindex>7</clipindex>
											<groupindex>1</groupindex>
										</link>
										<link>
											<linkclipref>clipitem-497</linkclipref>
											<mediatype>audio</mediatype>
											<trackindex>6</trackindex>
											<clipindex>7</clipindex>
											<groupindex>1</groupindex>
										</link>
										<link>
											<linkclipref>clipitem-512</linkclipref>
											<mediatype>audio</mediatype>
											<trackindex>7</trackindex>
											<clipindex>1</clipindex>
											<groupindex>1</groupindex>
										</link>
										<link>
											<linkclipref>clipitem-524</linkclipref>
											<mediatype>audio</mediatype>
											<trackindex>8</trackindex>
											<clipindex>1</clipindex>
											<groupindex>1</groupindex>
										</link>
										<logginginfo>
											<description></description>
											<scene>12-01</scene>
											<shottake></shottake>
											<lognote></lognote>
											<good></good>
											<originalvideofilename></originalvideofilename>
											<originalaudiofilename></originalaudiofilename>
										</logginginfo>
										<colorinfo>
											<lut></lut>
											<lut1></lut1>
											<asc_sop></asc_sop>
											<asc_sat></asc_sat>
											<lut2></lut2>
										</colorinfo>
										<labels>
											<label2>Mango</label2>
										</labels>
									</clipitem>
									<clipitem id="clipitem-429" premiereChannelType="mono">
										<masterclipid>masterclip-80</masterclipid>
										<name>12-01-2.WAV</name>
										<enabled>TRUE</enabled>
										<duration>1500</duration>
										<rate>
											<timebase>25</timebase>
											<ntsc>FALSE</ntsc>
										</rate>
										<start>467225</start>
										<end>468725</end>
										<in>0</in>
										<out>1500</out>
										<pproTicksIn>0</pproTicksIn>
										<pproTicksOut>15240960000000</pproTicksOut>
										<file id="file-80"/>
										<sourcetrack>
											<mediatype>audio</mediatype>
											<trackindex>3</trackindex>
										</sourcetrack>
											<marker>
												<comment></comment>
												<name></name>
												<in>726</in>
												<out>-1</out>
											</marker>
										<link>
											<linkclipref>clipitem-381</linkclipref>
											<mediatype>audio</mediatype>
											<trackindex>1</trackindex>
											<clipindex>8</clipindex>
											<groupindex>1</groupindex>
										</link>
										<link>
											<linkclipref>clipitem-405</linkclipref>
											<mediatype>audio</mediatype>
											<trackindex>2</trackindex>
											<clipindex>8</clipindex>
											<groupindex>1</groupindex>
										</link>
										<link>
											<linkclipref>clipitem-429</linkclipref>
											<mediatype>audio</mediatype>
											<trackindex>3</trackindex>
											<clipindex>8</clipindex>
											<groupindex>1</groupindex>
										</link>
										<link>
											<linkclipref>clipitem-453</linkclipref>
											<mediatype>audio</mediatype>
											<trackindex>4</trackindex>
											<clipindex>8</clipindex>
											<groupindex>1</groupindex>
										</link>
										<link>
											<linkclipref>clipitem-477</linkclipref>
											<mediatype>audio</mediatype>
											<trackindex>5</trackindex>
											<clipindex>8</clipindex>
											<groupindex>1</groupindex>
										</link>
										<link>
											<linkclipref>clipitem-498</linkclipref>
											<mediatype>audio</mediatype>
											<trackindex>6</trackindex>
											<clipindex>8</clipindex>
											<groupindex>1</groupindex>
										</link>
										<link>
											<linkclipref>clipitem-513</linkclipref>
											<mediatype>audio</mediatype>
											<trackindex>7</trackindex>
											<clipindex>2</clipindex>
											<groupindex>1</groupindex>
										</link>
										<link>
											<linkclipref>clipitem-525</linkclipref>
											<mediatype>audio</mediatype>
											<trackindex>8</trackindex>
											<clipindex>2</clipindex>
											<groupindex>1</groupindex>
										</link>
										<logginginfo>
											<description></description>
											<scene>12-01</scene>
											<shottake></shottake>
											<lognote></lognote>
											<good></good>
											<originalvideofilename></originalvideofilename>
											<originalaudiofilename></originalaudiofilename>
										</logginginfo>
										<colorinfo>
											<lut></lut>
											<lut1></lut1>
											<asc_sop></asc_sop>
											<asc_sat></asc_sat>
											<lut2></lut2>
										</colorinfo>
										<labels>
											<label2>Mango</label2>
										</labels>
									</clipitem>
									<clipitem id="clipitem-430" premiereChannelType="mono">
										<masterclipid>masterclip-81</masterclipid>
										<name>12-01-3.WAV</name>
										<enabled>TRUE</enabled>
										<duration>3275</duration>
										<rate>
											<timebase>25</timebase>
											<ntsc>FALSE</ntsc>
										</rate>
										<start>469925</start>
										<end>473200</end>
										<in>0</in>
										<out>3275</out>
										<pproTicksIn>0</pproTicksIn>
										<pproTicksOut>33276096000000</pproTicksOut>
										<file id="file-81"/>
										<sourcetrack>
											<mediatype>audio</mediatype>
											<trackindex>3</trackindex>
										</sourcetrack>
										<link>
											<linkclipref>clipitem-382</linkclipref>
											<mediatype>audio</mediatype>
											<trackindex>1</trackindex>
											<clipindex>9</clipindex>
											<groupindex>1</groupindex>
										</link>
										<link>
											<linkclipref>clipitem-406</linkclipref>
											<mediatype>audio</mediatype>
											<trackindex>2</trackindex>
											<clipindex>9</clipindex>
											<groupindex>1</groupindex>
										</link>
										<link>
											<linkclipref>clipitem-430</linkclipref>
											<mediatype>audio</mediatype>
											<trackindex>3</trackindex>
											<clipindex>9</clipindex>
											<groupindex>1</groupindex>
										</link>
										<link>
											<linkclipref>clipitem-454</linkclipref>
											<mediatype>audio</mediatype>
											<trackindex>4</trackindex>
											<clipindex>9</clipindex>
											<groupindex>1</groupindex>
										</link>
										<link>
											<linkclipref>clipitem-478</linkclipref>
											<mediatype>audio</mediatype>
											<trackindex>5</trackindex>
											<clipindex>9</clipindex>
											<groupindex>1</groupindex>
										</link>
										<link>
											<linkclipref>clipitem-499</linkclipref>
											<mediatype>audio</mediatype>
											<trackindex>6</trackindex>
											<clipindex>9</clipindex>
											<groupindex>1</groupindex>
										</link>
										<link>
											<linkclipref>clipitem-514</linkclipref>
											<mediatype>audio</mediatype>
											<trackindex>7</trackindex>
											<clipindex>3</clipindex>
											<groupindex>1</groupindex>
										</link>
										<link>
											<linkclipref>clipitem-526</linkclipref>
											<mediatype>audio</mediatype>
											<trackindex>8</trackindex>
											<clipindex>3</clipindex>
											<groupindex>1</groupindex>
										</link>
										<logginginfo>
											<description></description>
											<scene>12-01</scene>
											<shottake></shottake>
											<lognote></lognote>
											<good></good>
											<originalvideofilename></originalvideofilename>
											<originalaudiofilename></originalaudiofilename>
										</logginginfo>
										<colorinfo>
											<lut></lut>
											<lut1></lut1>
											<asc_sop></asc_sop>
											<asc_sat></asc_sat>
											<lut2></lut2>
										</colorinfo>
										<labels>
											<label2>Mango</label2>
										</labels>
									</clipitem>
									<clipitem id="clipitem-431" premiereChannelType="mono">
										<masterclipid>masterclip-82</masterclipid>
										<name>12-01-4.WAV</name>
										<enabled>TRUE</enabled>
										<duration>3975</duration>
										<rate>
											<timebase>25</timebase>
											<ntsc>FALSE</ntsc>
										</rate>
										<start>474625</start>
										<end>478600</end>
										<in>0</in>
										<out>3975</out>
										<pproTicksIn>0</pproTicksIn>
										<pproTicksOut>40388544000000</pproTicksOut>
										<file id="file-82"/>
										<sourcetrack>
											<mediatype>audio</mediatype>
											<trackindex>3</trackindex>
										</sourcetrack>
										<link>
											<linkclipref>clipitem-383</linkclipref>
											<mediatype>audio</mediatype>
											<trackindex>1</trackindex>
											<clipindex>10</clipindex>
											<groupindex>1</groupindex>
										</link>
										<link>
											<linkclipref>clipitem-407</linkclipref>
											<mediatype>audio</mediatype>
											<trackindex>2</trackindex>
											<clipindex>10</clipindex>
											<groupindex>1</groupindex>
										</link>
										<link>
											<linkclipref>clipitem-431</linkclipref>
											<mediatype>audio</mediatype>
											<trackindex>3</trackindex>
											<clipindex>10</clipindex>
											<groupindex>1</groupindex>
										</link>
										<link>
											<linkclipref>clipitem-455</linkclipref>
											<mediatype>audio</mediatype>
											<trackindex>4</trackindex>
											<clipindex>10</clipindex>
											<groupindex>1</groupindex>
										</link>
										<link>
											<linkclipref>clipitem-479</linkclipref>
											<mediatype>audio</mediatype>
											<trackindex>5</trackindex>
											<clipindex>10</clipindex>
											<groupindex>1</groupindex>
										</link>
										<link>
											<linkclipref>clipitem-500</linkclipref>
											<mediatype>audio</mediatype>
											<trackindex>6</trackindex>
											<clipindex>10</clipindex>
											<groupindex>1</groupindex>
										</link>
										<link>
											<linkclipref>clipitem-515</linkclipref>
											<mediatype>audio</mediatype>
											<trackindex>7</trackindex>
											<clipindex>4</clipindex>
											<groupindex>1</groupindex>
										</link>
										<link>
											<linkclipref>clipitem-527</linkclipref>
											<mediatype>audio</mediatype>
											<trackindex>8</trackindex>
											<clipindex>4</clipindex>
											<groupindex>1</groupindex>
										</link>
										<logginginfo>
											<description></description>
											<scene>12-01</scene>
											<shottake></shottake>
											<lognote></lognote>
											<good></good>
											<originalvideofilename></originalvideofilename>
											<originalaudiofilename></originalaudiofilename>
										</logginginfo>
										<colorinfo>
											<lut></lut>
											<lut1></lut1>
											<asc_sop></asc_sop>
											<asc_sat></asc_sat>
											<lut2></lut2>
										</colorinfo>
										<labels>
											<label2>Mango</label2>
										</labels>
									</clipitem>
									<clipitem id="clipitem-432" premiereChannelType="mono">
										<masterclipid>masterclip-83</masterclipid>
										<name>12-01-5.WAV</name>
										<enabled>TRUE</enabled>
										<duration>3375</duration>
										<rate>
											<timebase>25</timebase>
											<ntsc>FALSE</ntsc>
										</rate>
										<start>481250</start>
										<end>484625</end>
										<in>0</in>
										<out>3375</out>
										<pproTicksIn>0</pproTicksIn>
										<pproTicksOut>34292160000000</pproTicksOut>
										<file id="file-83"/>
										<sourcetrack>
											<mediatype>audio</mediatype>
											<trackindex>3</trackindex>
										</sourcetrack>
										<link>
											<linkclipref>clipitem-384</linkclipref>
											<mediatype>audio</mediatype>
											<trackindex>1</trackindex>
											<clipindex>11</clipindex>
											<groupindex>1</groupindex>
										</link>
										<link>
											<linkclipref>clipitem-408</linkclipref>
											<mediatype>audio</mediatype>
											<trackindex>2</trackindex>
											<clipindex>11</clipindex>
											<groupindex>1</groupindex>
										</link>
										<link>
											<linkclipref>clipitem-432</linkclipref>
											<mediatype>audio</mediatype>
											<trackindex>3</trackindex>
											<clipindex>11</clipindex>
											<groupindex>1</groupindex>
										</link>
										<link>
											<linkclipref>clipitem-456</linkclipref>
											<mediatype>audio</mediatype>
											<trackindex>4</trackindex>
											<clipindex>11</clipindex>
											<groupindex>1</groupindex>
										</link>
										<link>
											<linkclipref>clipitem-480</linkclipref>
											<mediatype>audio</mediatype>
											<trackindex>5</trackindex>
											<clipindex>11</clipindex>
											<groupindex>1</groupindex>
										</link>
										<link>
											<linkclipref>clipitem-501</linkclipref>
											<mediatype>audio</mediatype>
											<trackindex>6</trackindex>
											<clipindex>11</clipindex>
											<groupindex>1</groupindex>
										</link>
										<link>
											<linkclipref>clipitem-516</linkclipref>
											<mediatype>audio</mediatype>
											<trackindex>7</trackindex>
											<clipindex>5</clipindex>
											<groupindex>1</groupindex>
										</link>
										<link>
											<linkclipref>clipitem-528</linkclipref>
											<mediatype>audio</mediatype>
											<trackindex>8</trackindex>
											<clipindex>5</clipindex>
											<groupindex>1</groupindex>
										</link>
										<logginginfo>
											<description></description>
											<scene>12-01</scene>
											<shottake></shottake>
											<lognote></lognote>
											<good></good>
											<originalvideofilename></originalvideofilename>
											<originalaudiofilename></originalaudiofilename>
										</logginginfo>
										<colorinfo>
											<lut></lut>
											<lut1></lut1>
											<asc_sop></asc_sop>
											<asc_sat></asc_sat>
											<lut2></lut2>
										</colorinfo>
										<labels>
											<label2>Mango</label2>
										</labels>
									</clipitem>
									<clipitem id="clipitem-433" premiereChannelType="mono">
										<masterclipid>masterclip-84</masterclipid>
										<name>12-02-1.WAV</name>
										<enabled>TRUE</enabled>
										<duration>2900</duration>
										<rate>
											<timebase>25</timebase>
											<ntsc>FALSE</ntsc>
										</rate>
										<start>509850</start>
										<end>512750</end>
										<in>0</in>
										<out>2900</out>
										<pproTicksIn>0</pproTicksIn>
										<pproTicksOut>29465856000000</pproTicksOut>
										<file id="file-84"/>
										<sourcetrack>
											<mediatype>audio</mediatype>
											<trackindex>3</trackindex>
										</sourcetrack>
										<link>
											<linkclipref>clipitem-385</linkclipref>
											<mediatype>audio</mediatype>
											<trackindex>1</trackindex>
											<clipindex>12</clipindex>
											<groupindex>1</groupindex>
										</link>
										<link>
											<linkclipref>clipitem-409</linkclipref>
											<mediatype>audio</mediatype>
											<trackindex>2</trackindex>
											<clipindex>12</clipindex>
											<groupindex>1</groupindex>
										</link>
										<link>
											<linkclipref>clipitem-433</linkclipref>
											<mediatype>audio</mediatype>
											<trackindex>3</trackindex>
											<clipindex>12</clipindex>
											<groupindex>1</groupindex>
										</link>
										<link>
											<linkclipref>clipitem-457</linkclipref>
											<mediatype>audio</mediatype>
											<trackindex>4</trackindex>
											<clipindex>12</clipindex>
											<groupindex>1</groupindex>
										</link>
										<link>
											<linkclipref>clipitem-481</linkclipref>
											<mediatype>audio</mediatype>
											<trackindex>5</trackindex>
											<clipindex>12</clipindex>
											<groupindex>1</groupindex>
										</link>
										<link>
											<linkclipref>clipitem-502</linkclipref>
											<mediatype>audio</mediatype>
											<trackindex>6</trackindex>
											<clipindex>12</clipindex>
											<groupindex>1</groupindex>
										</link>
										<logginginfo>
											<description></description>
											<scene>12-02</scene>
											<shottake></shottake>
											<lognote></lognote>
											<good></good>
											<originalvideofilename></originalvideofilename>
											<originalaudiofilename></originalaudiofilename>
										</logginginfo>
										<colorinfo>
											<lut></lut>
											<lut1></lut1>
											<asc_sop></asc_sop>
											<asc_sat></asc_sat>
											<lut2></lut2>
										</colorinfo>
										<labels>
											<label2>Mango</label2>
										</labels>
									</clipitem>
									<clipitem id="clipitem-434" premiereChannelType="mono">
										<masterclipid>masterclip-85</masterclipid>
										<name>12-02-2.WAV</name>
										<enabled>TRUE</enabled>
										<duration>2100</duration>
										<rate>
											<timebase>25</timebase>
											<ntsc>FALSE</ntsc>
										</rate>
										<start>513550</start>
										<end>515650</end>
										<in>0</in>
										<out>2100</out>
										<pproTicksIn>0</pproTicksIn>
										<pproTicksOut>21337344000000</pproTicksOut>
										<file id="file-85"/>
										<sourcetrack>
											<mediatype>audio</mediatype>
											<trackindex>3</trackindex>
										</sourcetrack>
										<link>
											<linkclipref>clipitem-386</linkclipref>
											<mediatype>audio</mediatype>
											<trackindex>1</trackindex>
											<clipindex>13</clipindex>
											<groupindex>1</groupindex>
										</link>
										<link>
											<linkclipref>clipitem-410</linkclipref>
											<mediatype>audio</mediatype>
											<trackindex>2</trackindex>
											<clipindex>13</clipindex>
											<groupindex>1</groupindex>
										</link>
										<link>
											<linkclipref>clipitem-434</linkclipref>
											<mediatype>audio</mediatype>
											<trackindex>3</trackindex>
											<clipindex>13</clipindex>
											<groupindex>1</groupindex>
										</link>
										<link>
											<linkclipref>clipitem-458</linkclipref>
											<mediatype>audio</mediatype>
											<trackindex>4</trackindex>
											<clipindex>13</clipindex>
											<groupindex>1</groupindex>
										</link>
										<link>
											<linkclipref>clipitem-482</linkclipref>
											<mediatype>audio</mediatype>
											<trackindex>5</trackindex>
											<clipindex>13</clipindex>
											<groupindex>1</groupindex>
										</link>
										<link>
											<linkclipref>clipitem-503</linkclipref>
											<mediatype>audio</mediatype>
											<trackindex>6</trackindex>
											<clipindex>13</clipindex>
											<groupindex>1</groupindex>
										</link>
										<logginginfo>
											<description></description>
											<scene>12-02</scene>
											<shottake></shottake>
											<lognote></lognote>
											<good></good>
											<originalvideofilename></originalvideofilename>
											<originalaudiofilename></originalaudiofilename>
										</logginginfo>
										<colorinfo>
											<lut></lut>
											<lut1></lut1>
											<asc_sop></asc_sop>
											<asc_sat></asc_sat>
											<lut2></lut2>
										</colorinfo>
										<labels>
											<label2>Mango</label2>
										</labels>
									</clipitem>
									<clipitem id="clipitem-435" premiereChannelType="mono">
										<masterclipid>masterclip-75</masterclipid>
										<name>6-01-1.WAV</name>
										<enabled>TRUE</enabled>
										<duration>4775</duration>
										<rate>
											<timebase>25</timebase>
											<ntsc>FALSE</ntsc>
										</rate>
										<start>769325</start>
										<end>774100</end>
										<in>0</in>
										<out>4775</out>
										<pproTicksIn>0</pproTicksIn>
										<pproTicksOut>48517056000000</pproTicksOut>
										<file id="file-75"/>
										<sourcetrack>
											<mediatype>audio</mediatype>
											<trackindex>3</trackindex>
										</sourcetrack>
										<link>
											<linkclipref>clipitem-387</linkclipref>
											<mediatype>audio</mediatype>
											<trackindex>1</trackindex>
											<clipindex>14</clipindex>
											<groupindex>1</groupindex>
										</link>
										<link>
											<linkclipref>clipitem-411</linkclipref>
											<mediatype>audio</mediatype>
											<trackindex>2</trackindex>
											<clipindex>14</clipindex>
											<groupindex>1</groupindex>
										</link>
										<link>
											<linkclipref>clipitem-435</linkclipref>
											<mediatype>audio</mediatype>
											<trackindex>3</trackindex>
											<clipindex>14</clipindex>
											<groupindex>1</groupindex>
										</link>
										<link>
											<linkclipref>clipitem-459</linkclipref>
											<mediatype>audio</mediatype>
											<trackindex>4</trackindex>
											<clipindex>14</clipindex>
											<groupindex>1</groupindex>
										</link>
										<link>
											<linkclipref>clipitem-483</linkclipref>
											<mediatype>audio</mediatype>
											<trackindex>5</trackindex>
											<clipindex>14</clipindex>
											<groupindex>1</groupindex>
										</link>
										<link>
											<linkclipref>clipitem-504</linkclipref>
											<mediatype>audio</mediatype>
											<trackindex>6</trackindex>
											<clipindex>14</clipindex>
											<groupindex>1</groupindex>
										</link>
										<link>
											<linkclipref>clipitem-517</linkclipref>
											<mediatype>audio</mediatype>
											<trackindex>7</trackindex>
											<clipindex>6</clipindex>
											<groupindex>1</groupindex>
										</link>
										<link>
											<linkclipref>clipitem-529</linkclipref>
											<mediatype>audio</mediatype>
											<trackindex>8</trackindex>
											<clipindex>6</clipindex>
											<groupindex>1</groupindex>
										</link>
										<logginginfo>
											<description></description>
											<scene>6-01</scene>
											<shottake></shottake>
											<lognote></lognote>
											<good></good>
											<originalvideofilename></originalvideofilename>
											<originalaudiofilename></originalaudiofilename>
										</logginginfo>
										<colorinfo>
											<lut></lut>
											<lut1></lut1>
											<asc_sop></asc_sop>
											<asc_sat></asc_sat>
											<lut2></lut2>
										</colorinfo>
										<labels>
											<label2>Mango</label2>
										</labels>
									</clipitem>
									<clipitem id="clipitem-436" premiereChannelType="mono">
										<masterclipid>masterclip-76</masterclipid>
										<name>6-01-2.WAV</name>
										<enabled>TRUE</enabled>
										<duration>4175</duration>
										<rate>
											<timebase>25</timebase>
											<ntsc>FALSE</ntsc>
										</rate>
										<start>791700</start>
										<end>795875</end>
										<in>0</in>
										<out>4175</out>
										<pproTicksIn>0</pproTicksIn>
										<pproTicksOut>42420672000000</pproTicksOut>
										<file id="file-76"/>
										<sourcetrack>
											<mediatype>audio</mediatype>
											<trackindex>3</trackindex>
										</sourcetrack>
										<link>
											<linkclipref>clipitem-388</linkclipref>
											<mediatype>audio</mediatype>
											<trackindex>1</trackindex>
											<clipindex>15</clipindex>
											<groupindex>1</groupindex>
										</link>
										<link>
											<linkclipref>clipitem-412</linkclipref>
											<mediatype>audio</mediatype>
											<trackindex>2</trackindex>
											<clipindex>15</clipindex>
											<groupindex>1</groupindex>
										</link>
										<link>
											<linkclipref>clipitem-436</linkclipref>
											<mediatype>audio</mediatype>
											<trackindex>3</trackindex>
											<clipindex>15</clipindex>
											<groupindex>1</groupindex>
										</link>
										<link>
											<linkclipref>clipitem-460</linkclipref>
											<mediatype>audio</mediatype>
											<trackindex>4</trackindex>
											<clipindex>15</clipindex>
											<groupindex>1</groupindex>
										</link>
										<link>
											<linkclipref>clipitem-484</linkclipref>
											<mediatype>audio</mediatype>
											<trackindex>5</trackindex>
											<clipindex>15</clipindex>
											<groupindex>1</groupindex>
										</link>
										<link>
											<linkclipref>clipitem-505</linkclipref>
											<mediatype>audio</mediatype>
											<trackindex>6</trackindex>
											<clipindex>15</clipindex>
											<groupindex>1</groupindex>
										</link>
										<link>
											<linkclipref>clipitem-518</linkclipref>
											<mediatype>audio</mediatype>
											<trackindex>7</trackindex>
											<clipindex>7</clipindex>
											<groupindex>1</groupindex>
										</link>
										<link>
											<linkclipref>clipitem-530</linkclipref>
											<mediatype>audio</mediatype>
											<trackindex>8</trackindex>
											<clipindex>7</clipindex>
											<groupindex>1</groupindex>
										</link>
										<logginginfo>
											<description></description>
											<scene>6-01</scene>
											<shottake></shottake>
											<lognote></lognote>
											<good></good>
											<originalvideofilename></originalvideofilename>
											<originalaudiofilename></originalaudiofilename>
										</logginginfo>
										<colorinfo>
											<lut></lut>
											<lut1></lut1>
											<asc_sop></asc_sop>
											<asc_sat></asc_sat>
											<lut2></lut2>
										</colorinfo>
										<labels>
											<label2>Mango</label2>
										</labels>
									</clipitem>
									<clipitem id="clipitem-437" premiereChannelType="mono">
										<masterclipid>masterclip-77</masterclipid>
										<name>6-01-3.WAV</name>
										<enabled>TRUE</enabled>
										<duration>4400</duration>
										<rate>
											<timebase>25</timebase>
											<ntsc>FALSE</ntsc>
										</rate>
										<start>801425</start>
										<end>805825</end>
										<in>0</in>
										<out>4400</out>
										<pproTicksIn>0</pproTicksIn>
										<pproTicksOut>44706816000000</pproTicksOut>
										<file id="file-77"/>
										<sourcetrack>
											<mediatype>audio</mediatype>
											<trackindex>3</trackindex>
										</sourcetrack>
										<link>
											<linkclipref>clipitem-389</linkclipref>
											<mediatype>audio</mediatype>
											<trackindex>1</trackindex>
											<clipindex>16</clipindex>
											<groupindex>1</groupindex>
										</link>
										<link>
											<linkclipref>clipitem-413</linkclipref>
											<mediatype>audio</mediatype>
											<trackindex>2</trackindex>
											<clipindex>16</clipindex>
											<groupindex>1</groupindex>
										</link>
										<link>
											<linkclipref>clipitem-437</linkclipref>
											<mediatype>audio</mediatype>
											<trackindex>3</trackindex>
											<clipindex>16</clipindex>
											<groupindex>1</groupindex>
										</link>
										<link>
											<linkclipref>clipitem-461</linkclipref>
											<mediatype>audio</mediatype>
											<trackindex>4</trackindex>
											<clipindex>16</clipindex>
											<groupindex>1</groupindex>
										</link>
										<link>
											<linkclipref>clipitem-485</linkclipref>
											<mediatype>audio</mediatype>
											<trackindex>5</trackindex>
											<clipindex>16</clipindex>
											<groupindex>1</groupindex>
										</link>
										<link>
											<linkclipref>clipitem-506</linkclipref>
											<mediatype>audio</mediatype>
											<trackindex>6</trackindex>
											<clipindex>16</clipindex>
											<groupindex>1</groupindex>
										</link>
										<link>
											<linkclipref>clipitem-519</linkclipref>
											<mediatype>audio</mediatype>
											<trackindex>7</trackindex>
											<clipindex>8</clipindex>
											<groupindex>1</groupindex>
										</link>
										<link>
											<linkclipref>clipitem-531</linkclipref>
											<mediatype>audio</mediatype>
											<trackindex>8</trackindex>
											<clipindex>8</clipindex>
											<groupindex>1</groupindex>
										</link>
										<logginginfo>
											<description></description>
											<scene>6-01</scene>
											<shottake></shottake>
											<lognote></lognote>
											<good></good>
											<originalvideofilename></originalvideofilename>
											<originalaudiofilename></originalaudiofilename>
										</logginginfo>
										<colorinfo>
											<lut></lut>
											<lut1></lut1>
											<asc_sop></asc_sop>
											<asc_sat></asc_sat>
											<lut2></lut2>
										</colorinfo>
										<labels>
											<label2>Mango</label2>
										</labels>
									</clipitem>
									<clipitem id="clipitem-438" premiereChannelType="mono">
										<masterclipid>masterclip-78</masterclipid>
										<name>6-01-4.WAV</name>
										<enabled>TRUE</enabled>
										<duration>5275</duration>
										<rate>
											<timebase>25</timebase>
											<ntsc>FALSE</ntsc>
										</rate>
										<start>811475</start>
										<end>816750</end>
										<in>0</in>
										<out>5275</out>
										<pproTicksIn>0</pproTicksIn>
										<pproTicksOut>53597376000000</pproTicksOut>
										<file id="file-78"/>
										<sourcetrack>
											<mediatype>audio</mediatype>
											<trackindex>3</trackindex>
										</sourcetrack>
										<link>
											<linkclipref>clipitem-390</linkclipref>
											<mediatype>audio</mediatype>
											<trackindex>1</trackindex>
											<clipindex>17</clipindex>
											<groupindex>1</groupindex>
										</link>
										<link>
											<linkclipref>clipitem-414</linkclipref>
											<mediatype>audio</mediatype>
											<trackindex>2</trackindex>
											<clipindex>17</clipindex>
											<groupindex>1</groupindex>
										</link>
										<link>
											<linkclipref>clipitem-438</linkclipref>
											<mediatype>audio</mediatype>
											<trackindex>3</trackindex>
											<clipindex>17</clipindex>
											<groupindex>1</groupindex>
										</link>
										<link>
											<linkclipref>clipitem-462</linkclipref>
											<mediatype>audio</mediatype>
											<trackindex>4</trackindex>
											<clipindex>17</clipindex>
											<groupindex>1</groupindex>
										</link>
										<link>
											<linkclipref>clipitem-486</linkclipref>
											<mediatype>audio</mediatype>
											<trackindex>5</trackindex>
											<clipindex>17</clipindex>
											<groupindex>1</groupindex>
										</link>
										<link>
											<linkclipref>clipitem-507</linkclipref>
											<mediatype>audio</mediatype>
											<trackindex>6</trackindex>
											<clipindex>17</clipindex>
											<groupindex>1</groupindex>
										</link>
										<link>
											<linkclipref>clipitem-520</linkclipref>
											<mediatype>audio</mediatype>
											<trackindex>7</trackindex>
											<clipindex>9</clipindex>
											<groupindex>1</groupindex>
										</link>
										<link>
											<linkclipref>clipitem-532</linkclipref>
											<mediatype>audio</mediatype>
											<trackindex>8</trackindex>
											<clipindex>9</clipindex>
											<groupindex>1</groupindex>
										</link>
										<logginginfo>
											<description></description>
											<scene>6-01</scene>
											<shottake></shottake>
											<lognote></lognote>
											<good></good>
											<originalvideofilename></originalvideofilename>
											<originalaudiofilename></originalaudiofilename>
										</logginginfo>
										<colorinfo>
											<lut></lut>
											<lut1></lut1>
											<asc_sop></asc_sop>
											<asc_sat></asc_sat>
											<lut2></lut2>
										</colorinfo>
										<labels>
											<label2>Mango</label2>
										</labels>
									</clipitem>
									<clipitem id="clipitem-439" premiereChannelType="mono">
										<masterclipid>masterclip-86</masterclipid>
										<name>15-01-1.WAV</name>
										<enabled>TRUE</enabled>
										<duration>3575</duration>
										<rate>
											<timebase>25</timebase>
											<ntsc>FALSE</ntsc>
										</rate>
										<start>910025</start>
										<end>913600</end>
										<in>0</in>
										<out>3575</out>
										<pproTicksIn>0</pproTicksIn>
										<pproTicksOut>36324288000000</pproTicksOut>
										<file id="file-86"/>
										<sourcetrack>
											<mediatype>audio</mediatype>
											<trackindex>3</trackindex>
										</sourcetrack>
										<link>
											<linkclipref>clipitem-391</linkclipref>
											<mediatype>audio</mediatype>
											<trackindex>1</trackindex>
											<clipindex>18</clipindex>
											<groupindex>1</groupindex>
										</link>
										<link>
											<linkclipref>clipitem-415</linkclipref>
											<mediatype>audio</mediatype>
											<trackindex>2</trackindex>
											<clipindex>18</clipindex>
											<groupindex>1</groupindex>
										</link>
										<link>
											<linkclipref>clipitem-439</linkclipref>
											<mediatype>audio</mediatype>
											<trackindex>3</trackindex>
											<clipindex>18</clipindex>
											<groupindex>1</groupindex>
										</link>
										<link>
											<linkclipref>clipitem-463</linkclipref>
											<mediatype>audio</mediatype>
											<trackindex>4</trackindex>
											<clipindex>18</clipindex>
											<groupindex>1</groupindex>
										</link>
										<link>
											<linkclipref>clipitem-487</linkclipref>
											<mediatype>audio</mediatype>
											<trackindex>5</trackindex>
											<clipindex>18</clipindex>
											<groupindex>1</groupindex>
										</link>
										<link>
											<linkclipref>clipitem-508</linkclipref>
											<mediatype>audio</mediatype>
											<trackindex>6</trackindex>
											<clipindex>18</clipindex>
											<groupindex>1</groupindex>
										</link>
										<link>
											<linkclipref>clipitem-521</linkclipref>
											<mediatype>audio</mediatype>
											<trackindex>7</trackindex>
											<clipindex>10</clipindex>
											<groupindex>1</groupindex>
										</link>
										<link>
											<linkclipref>clipitem-533</linkclipref>
											<mediatype>audio</mediatype>
											<trackindex>8</trackindex>
											<clipindex>10</clipindex>
											<groupindex>1</groupindex>
										</link>
										<logginginfo>
											<description></description>
											<scene>15-01</scene>
											<shottake></shottake>
											<lognote></lognote>
											<good></good>
											<originalvideofilename></originalvideofilename>
											<originalaudiofilename></originalaudiofilename>
										</logginginfo>
										<colorinfo>
											<lut></lut>
											<lut1></lut1>
											<asc_sop></asc_sop>
											<asc_sat></asc_sat>
											<lut2></lut2>
										</colorinfo>
										<labels>
											<label2>Mango</label2>
										</labels>
									</clipitem>
									<clipitem id="clipitem-440" premiereChannelType="mono">
										<masterclipid>masterclip-87</masterclipid>
										<name>15-01-2.WAV</name>
										<enabled>TRUE</enabled>
										<duration>4100</duration>
										<rate>
											<timebase>25</timebase>
											<ntsc>FALSE</ntsc>
										</rate>
										<start>916775</start>
										<end>920875</end>
										<in>0</in>
										<out>4100</out>
										<pproTicksIn>0</pproTicksIn>
										<pproTicksOut>41658624000000</pproTicksOut>
										<file id="file-87"/>
										<sourcetrack>
											<mediatype>audio</mediatype>
											<trackindex>3</trackindex>
										</sourcetrack>
										<link>
											<linkclipref>clipitem-392</linkclipref>
											<mediatype>audio</mediatype>
											<trackindex>1</trackindex>
											<clipindex>19</clipindex>
											<groupindex>1</groupindex>
										</link>
										<link>
											<linkclipref>clipitem-416</linkclipref>
											<mediatype>audio</mediatype>
											<trackindex>2</trackindex>
											<clipindex>19</clipindex>
											<groupindex>1</groupindex>
										</link>
										<link>
											<linkclipref>clipitem-440</linkclipref>
											<mediatype>audio</mediatype>
											<trackindex>3</trackindex>
											<clipindex>19</clipindex>
											<groupindex>1</groupindex>
										</link>
										<link>
											<linkclipref>clipitem-464</linkclipref>
											<mediatype>audio</mediatype>
											<trackindex>4</trackindex>
											<clipindex>19</clipindex>
											<groupindex>1</groupindex>
										</link>
										<link>
											<linkclipref>clipitem-488</linkclipref>
											<mediatype>audio</mediatype>
											<trackindex>5</trackindex>
											<clipindex>19</clipindex>
											<groupindex>1</groupindex>
										</link>
										<link>
											<linkclipref>clipitem-509</linkclipref>
											<mediatype>audio</mediatype>
											<trackindex>6</trackindex>
											<clipindex>19</clipindex>
											<groupindex>1</groupindex>
										</link>
										<link>
											<linkclipref>clipitem-522</linkclipref>
											<mediatype>audio</mediatype>
											<trackindex>7</trackindex>
											<clipindex>11</clipindex>
											<groupindex>1</groupindex>
										</link>
										<link>
											<linkclipref>clipitem-534</linkclipref>
											<mediatype>audio</mediatype>
											<trackindex>8</trackindex>
											<clipindex>11</clipindex>
											<groupindex>1</groupindex>
										</link>
										<logginginfo>
											<description></description>
											<scene>15-01</scene>
											<shottake></shottake>
											<lognote></lognote>
											<good></good>
											<originalvideofilename></originalvideofilename>
											<originalaudiofilename></originalaudiofilename>
										</logginginfo>
										<colorinfo>
											<lut></lut>
											<lut1></lut1>
											<asc_sop></asc_sop>
											<asc_sat></asc_sat>
											<lut2></lut2>
										</colorinfo>
										<labels>
											<label2>Mango</label2>
										</labels>
									</clipitem>
									<clipitem id="clipitem-441" premiereChannelType="mono">
										<masterclipid>masterclip-71</masterclipid>
										<name>3-WILD-MOTHER-1.WAV</name>
										<enabled>TRUE</enabled>
										<duration>2375</duration>
										<rate>
											<timebase>25</timebase>
											<ntsc>FALSE</ntsc>
										</rate>
										<start>923950</start>
										<end>926325</end>
										<in>0</in>
										<out>2375</out>
										<pproTicksIn>0</pproTicksIn>
										<pproTicksOut>24131520000000</pproTicksOut>
										<file id="file-71"/>
										<sourcetrack>
											<mediatype>audio</mediatype>
											<trackindex>3</trackindex>
										</sourcetrack>
										<link>
											<linkclipref>clipitem-393</linkclipref>
											<mediatype>audio</mediatype>
											<trackindex>1</trackindex>
											<clipindex>20</clipindex>
											<groupindex>1</groupindex>
										</link>
										<link>
											<linkclipref>clipitem-417</linkclipref>
											<mediatype>audio</mediatype>
											<trackindex>2</trackindex>
											<clipindex>20</clipindex>
											<groupindex>1</groupindex>
										</link>
										<link>
											<linkclipref>clipitem-441</linkclipref>
											<mediatype>audio</mediatype>
											<trackindex>3</trackindex>
											<clipindex>20</clipindex>
											<groupindex>1</groupindex>
										</link>
										<link>
											<linkclipref>clipitem-465</linkclipref>
											<mediatype>audio</mediatype>
											<trackindex>4</trackindex>
											<clipindex>20</clipindex>
											<groupindex>1</groupindex>
										</link>
										<link>
											<linkclipref>clipitem-489</linkclipref>
											<mediatype>audio</mediatype>
											<trackindex>5</trackindex>
											<clipindex>20</clipindex>
											<groupindex>1</groupindex>
										</link>
										<link>
											<linkclipref>clipitem-510</linkclipref>
											<mediatype>audio</mediatype>
											<trackindex>6</trackindex>
											<clipindex>20</clipindex>
											<groupindex>1</groupindex>
										</link>
										<link>
											<linkclipref>clipitem-523</linkclipref>
											<mediatype>audio</mediatype>
											<trackindex>7</trackindex>
											<clipindex>12</clipindex>
											<groupindex>1</groupindex>
										</link>
										<link>
											<linkclipref>clipitem-535</linkclipref>
											<mediatype>audio</mediatype>
											<trackindex>8</trackindex>
											<clipindex>12</clipindex>
											<groupindex>1</groupindex>
										</link>
										<logginginfo>
											<description></description>
											<scene>3-WILD-MOTHER</scene>
											<shottake></shottake>
											<lognote></lognote>
											<good></good>
											<originalvideofilename></originalvideofilename>
											<originalaudiofilename></originalaudiofilename>
										</logginginfo>
										<colorinfo>
											<lut></lut>
											<lut1></lut1>
											<asc_sop></asc_sop>
											<asc_sat></asc_sat>
											<lut2></lut2>
										</colorinfo>
										<labels>
											<label2>Mango</label2>
										</labels>
									</clipitem>
									<clipitem id="clipitem-442" premiereChannelType="mono">
										<masterclipid>masterclip-70</masterclipid>
										<name>3-RT-1.WAV</name>
										<enabled>TRUE</enabled>
										<duration>1700</duration>
										<rate>
											<timebase>25</timebase>
											<ntsc>FALSE</ntsc>
										</rate>
										<start>927000</start>
										<end>928700</end>
										<in>0</in>
										<out>1700</out>
										<pproTicksIn>0</pproTicksIn>
										<pproTicksOut>17273088000000</pproTicksOut>
										<file id="file-70"/>
										<sourcetrack>
											<mediatype>audio</mediatype>
											<trackindex>2</trackindex>
										</sourcetrack>
										<link>
											<linkclipref>clipitem-394</linkclipref>
											<mediatype>audio</mediatype>
											<trackindex>1</trackindex>
											<clipindex>21</clipindex>
											<groupindex>1</groupindex>
										</link>
										<link>
											<linkclipref>clipitem-418</linkclipref>
											<mediatype>audio</mediatype>
											<trackindex>2</trackindex>
											<clipindex>21</clipindex>
											<groupindex>1</groupindex>
										</link>
										<link>
											<linkclipref>clipitem-442</linkclipref>
											<mediatype>audio</mediatype>
											<trackindex>3</trackindex>
											<clipindex>21</clipindex>
											<groupindex>1</groupindex>
										</link>
										<link>
											<linkclipref>clipitem-466</linkclipref>
											<mediatype>audio</mediatype>
											<trackindex>4</trackindex>
											<clipindex>21</clipindex>
											<groupindex>1</groupindex>
										</link>
										<logginginfo>
											<description></description>
											<scene>3-RT</scene>
											<shottake></shottake>
											<lognote></lognote>
											<good></good>
											<originalvideofilename></originalvideofilename>
											<originalaudiofilename></originalaudiofilename>
										</logginginfo>
										<colorinfo>
											<lut></lut>
											<lut1></lut1>
											<asc_sop></asc_sop>
											<asc_sat></asc_sat>
											<lut2></lut2>
										</colorinfo>
										<labels>
											<label2>Mango</label2>
										</labels>
									</clipitem>
									<clipitem id="clipitem-443" premiereChannelType="mono">
										<masterclipid>masterclip-72</masterclipid>
										<name>3-WILD-MOTHER-2.WAV</name>
										<enabled>TRUE</enabled>
										<duration>500</duration>
										<rate>
											<timebase>25</timebase>
											<ntsc>FALSE</ntsc>
										</rate>
										<start>929500</start>
										<end>930000</end>
										<in>0</in>
										<out>500</out>
										<pproTicksIn>0</pproTicksIn>
										<pproTicksOut>5080320000000</pproTicksOut>
										<file id="file-72"/>
										<sourcetrack>
											<mediatype>audio</mediatype>
											<trackindex>2</trackindex>
										</sourcetrack>
										<link>
											<linkclipref>clipitem-395</linkclipref>
											<mediatype>audio</mediatype>
											<trackindex>1</trackindex>
											<clipindex>22</clipindex>
											<groupindex>1</groupindex>
										</link>
										<link>
											<linkclipref>clipitem-419</linkclipref>
											<mediatype>audio</mediatype>
											<trackindex>2</trackindex>
											<clipindex>22</clipindex>
											<groupindex>1</groupindex>
										</link>
										<link>
											<linkclipref>clipitem-443</linkclipref>
											<mediatype>audio</mediatype>
											<trackindex>3</trackindex>
											<clipindex>22</clipindex>
											<groupindex>1</groupindex>
										</link>
										<link>
											<linkclipref>clipitem-467</linkclipref>
											<mediatype>audio</mediatype>
											<trackindex>4</trackindex>
											<clipindex>22</clipindex>
											<groupindex>1</groupindex>
										</link>
										<logginginfo>
											<description></description>
											<scene>3-WILD-MOTHER</scene>
											<shottake></shottake>
											<lognote></lognote>
											<good></good>
											<originalvideofilename></originalvideofilename>
											<originalaudiofilename></originalaudiofilename>
										</logginginfo>
										<colorinfo>
											<lut></lut>
											<lut1></lut1>
											<asc_sop></asc_sop>
											<asc_sat></asc_sat>
											<lut2></lut2>
										</colorinfo>
										<labels>
											<label2>Mango</label2>
										</labels>
									</clipitem>
									<clipitem id="clipitem-444" premiereChannelType="mono">
										<masterclipid>masterclip-73</masterclipid>
										<name>3-WILD-MOTHER-4.WAV</name>
										<enabled>TRUE</enabled>
										<duration>975</duration>
										<rate>
											<timebase>25</timebase>
											<ntsc>FALSE</ntsc>
										</rate>
										<start>930100</start>
										<end>931075</end>
										<in>0</in>
										<out>975</out>
										<pproTicksIn>0</pproTicksIn>
										<pproTicksOut>9906624000000</pproTicksOut>
										<file id="file-73"/>
										<sourcetrack>
											<mediatype>audio</mediatype>
											<trackindex>3</trackindex>
										</sourcetrack>
										<link>
											<linkclipref>clipitem-396</linkclipref>
											<mediatype>audio</mediatype>
											<trackindex>1</trackindex>
											<clipindex>23</clipindex>
											<groupindex>1</groupindex>
										</link>
										<link>
											<linkclipref>clipitem-420</linkclipref>
											<mediatype>audio</mediatype>
											<trackindex>2</trackindex>
											<clipindex>23</clipindex>
											<groupindex>1</groupindex>
										</link>
										<link>
											<linkclipref>clipitem-444</linkclipref>
											<mediatype>audio</mediatype>
											<trackindex>3</trackindex>
											<clipindex>23</clipindex>
											<groupindex>1</groupindex>
										</link>
										<link>
											<linkclipref>clipitem-468</linkclipref>
											<mediatype>audio</mediatype>
											<trackindex>4</trackindex>
											<clipindex>23</clipindex>
											<groupindex>1</groupindex>
										</link>
										<link>
											<linkclipref>clipitem-490</linkclipref>
											<mediatype>audio</mediatype>
											<trackindex>5</trackindex>
											<clipindex>21</clipindex>
											<groupindex>1</groupindex>
										</link>
										<link>
											<linkclipref>clipitem-511</linkclipref>
											<mediatype>audio</mediatype>
											<trackindex>6</trackindex>
											<clipindex>21</clipindex>
											<groupindex>1</groupindex>
										</link>
										<logginginfo>
											<description></description>
											<scene>3-WILD-MOTHER</scene>
											<shottake></shottake>
											<lognote></lognote>
											<good></good>
											<originalvideofilename></originalvideofilename>
											<originalaudiofilename></originalaudiofilename>
										</logginginfo>
										<colorinfo>
											<lut></lut>
											<lut1></lut1>
											<asc_sop></asc_sop>
											<asc_sat></asc_sat>
											<lut2></lut2>
										</colorinfo>
										<labels>
											<label2>Mango</label2>
										</labels>
									</clipitem>
									<clipitem id="clipitem-445" premiereChannelType="mono">
										<masterclipid>masterclip-74</masterclipid>
										<name>3-WILD-MOTHER-5.WAV</name>
										<enabled>TRUE</enabled>
										<duration>2875</duration>
										<rate>
											<timebase>25</timebase>
											<ntsc>FALSE</ntsc>
										</rate>
										<start>932150</start>
										<end>935025</end>
										<in>0</in>
										<out>2875</out>
										<pproTicksIn>0</pproTicksIn>
										<pproTicksOut>29211840000000</pproTicksOut>
										<file id="file-74"/>
										<sourcetrack>
											<mediatype>audio</mediatype>
											<trackindex>2</trackindex>
										</sourcetrack>
										<link>
											<linkclipref>clipitem-397</linkclipref>
											<mediatype>audio</mediatype>
											<trackindex>1</trackindex>
											<clipindex>24</clipindex>
											<groupindex>1</groupindex>
										</link>
										<link>
											<linkclipref>clipitem-421</linkclipref>
											<mediatype>audio</mediatype>
											<trackindex>2</trackindex>
											<clipindex>24</clipindex>
											<groupindex>1</groupindex>
										</link>
										<link>
											<linkclipref>clipitem-445</linkclipref>
											<mediatype>audio</mediatype>
											<trackindex>3</trackindex>
											<clipindex>24</clipindex>
											<groupindex>1</groupindex>
										</link>
										<link>
											<linkclipref>clipitem-469</linkclipref>
											<mediatype>audio</mediatype>
											<trackindex>4</trackindex>
											<clipindex>24</clipindex>
											<groupindex>1</groupindex>
										</link>
										<logginginfo>
											<description></description>
											<scene>3-WILD-MOTHER</scene>
											<shottake></shottake>
											<lognote></lognote>
											<good></good>
											<originalvideofilename></originalvideofilename>
											<originalaudiofilename></originalaudiofilename>
										</logginginfo>
										<colorinfo>
											<lut></lut>
											<lut1></lut1>
											<asc_sop></asc_sop>
											<asc_sat></asc_sat>
											<lut2></lut2>
										</colorinfo>
										<labels>
											<label2>Mango</label2>
										</labels>
									</clipitem>
									<enabled>TRUE</enabled>
									<locked>FALSE</locked>
									<outputchannelindex>1</outputchannelindex>
								</track>
								<track TL.SQTrackAudioKeyframeStyle="0" TL.SQTrackShy="0" TL.SQTrackExpandedHeight="25" TL.SQTrackExpanded="0" MZ.TrackTargeted="1" PannerCurrentValue="0.5" PannerIsInverted="true" PannerStartKeyframe="-91445760000000000,0.5,0,0,0,0,0,0" PannerName="Balance" currentExplodedTrackIndex="0" totalExplodedTrackCount="1" premiereTrackType="Stereo">
									<clipitem id="clipitem-446" premiereChannelType="mono">
										<masterclipid>masterclip-65</masterclipid>
										<name>3-01-1.WAV</name>
										<enabled>TRUE</enabled>
										<duration>2600</duration>
										<rate>
											<timebase>25</timebase>
											<ntsc>FALSE</ntsc>
										</rate>
										<start>0</start>
										<end>2600</end>
										<in>0</in>
										<out>2600</out>
										<pproTicksIn>0</pproTicksIn>
										<pproTicksOut>26417664000000</pproTicksOut>
										<file id="file-65"/>
										<sourcetrack>
											<mediatype>audio</mediatype>
											<trackindex>4</trackindex>
										</sourcetrack>
											<marker>
												<comment></comment>
												<name></name>
												<in>567</in>
												<out>-1</out>
												<pproColor>4281828977</pproColor>
											</marker>
											<marker>
												<comment></comment>
												<name></name>
												<in>2396</in>
												<out>-1</out>
												<pproColor>4281740498</pproColor>
											</marker>
										<link>
											<linkclipref>clipitem-374</linkclipref>
											<mediatype>audio</mediatype>
											<trackindex>1</trackindex>
											<clipindex>1</clipindex>
											<groupindex>1</groupindex>
										</link>
										<link>
											<linkclipref>clipitem-398</linkclipref>
											<mediatype>audio</mediatype>
											<trackindex>2</trackindex>
											<clipindex>1</clipindex>
											<groupindex>1</groupindex>
										</link>
										<link>
											<linkclipref>clipitem-422</linkclipref>
											<mediatype>audio</mediatype>
											<trackindex>3</trackindex>
											<clipindex>1</clipindex>
											<groupindex>1</groupindex>
										</link>
										<link>
											<linkclipref>clipitem-446</linkclipref>
											<mediatype>audio</mediatype>
											<trackindex>4</trackindex>
											<clipindex>1</clipindex>
											<groupindex>1</groupindex>
										</link>
										<link>
											<linkclipref>clipitem-470</linkclipref>
											<mediatype>audio</mediatype>
											<trackindex>5</trackindex>
											<clipindex>1</clipindex>
											<groupindex>1</groupindex>
										</link>
										<link>
											<linkclipref>clipitem-491</linkclipref>
											<mediatype>audio</mediatype>
											<trackindex>6</trackindex>
											<clipindex>1</clipindex>
											<groupindex>1</groupindex>
										</link>
										<logginginfo>
											<description></description>
											<scene>3-01</scene>
											<shottake></shottake>
											<lognote></lognote>
											<good></good>
											<originalvideofilename></originalvideofilename>
											<originalaudiofilename></originalaudiofilename>
										</logginginfo>
										<colorinfo>
											<lut></lut>
											<lut1></lut1>
											<asc_sop></asc_sop>
											<asc_sat></asc_sat>
											<lut2></lut2>
										</colorinfo>
										<labels>
											<label2>Mango</label2>
										</labels>
									</clipitem>
									<clipitem id="clipitem-447" premiereChannelType="mono">
										<masterclipid>masterclip-66</masterclipid>
										<name>3-01-2.WAV</name>
										<enabled>TRUE</enabled>
										<duration>2650</duration>
										<rate>
											<timebase>25</timebase>
											<ntsc>FALSE</ntsc>
										</rate>
										<start>4675</start>
										<end>7325</end>
										<in>0</in>
										<out>2650</out>
										<pproTicksIn>0</pproTicksIn>
										<pproTicksOut>26925696000000</pproTicksOut>
										<file id="file-66"/>
										<sourcetrack>
											<mediatype>audio</mediatype>
											<trackindex>4</trackindex>
										</sourcetrack>
											<marker>
												<comment></comment>
												<name></name>
												<in>312</in>
												<out>-1</out>
												<pproColor>4281828977</pproColor>
											</marker>
											<marker>
												<comment></comment>
												<name></name>
												<in>2443</in>
												<out>-1</out>
												<pproColor>4281740498</pproColor>
											</marker>
										<link>
											<linkclipref>clipitem-375</linkclipref>
											<mediatype>audio</mediatype>
											<trackindex>1</trackindex>
											<clipindex>2</clipindex>
											<groupindex>1</groupindex>
										</link>
										<link>
											<linkclipref>clipitem-399</linkclipref>
											<mediatype>audio</mediatype>
											<trackindex>2</trackindex>
											<clipindex>2</clipindex>
											<groupindex>1</groupindex>
										</link>
										<link>
											<linkclipref>clipitem-423</linkclipref>
											<mediatype>audio</mediatype>
											<trackindex>3</trackindex>
											<clipindex>2</clipindex>
											<groupindex>1</groupindex>
										</link>
										<link>
											<linkclipref>clipitem-447</linkclipref>
											<mediatype>audio</mediatype>
											<trackindex>4</trackindex>
											<clipindex>2</clipindex>
											<groupindex>1</groupindex>
										</link>
										<link>
											<linkclipref>clipitem-471</linkclipref>
											<mediatype>audio</mediatype>
											<trackindex>5</trackindex>
											<clipindex>2</clipindex>
											<groupindex>1</groupindex>
										</link>
										<link>
											<linkclipref>clipitem-492</linkclipref>
											<mediatype>audio</mediatype>
											<trackindex>6</trackindex>
											<clipindex>2</clipindex>
											<groupindex>1</groupindex>
										</link>
										<logginginfo>
											<description></description>
											<scene>3-01</scene>
											<shottake></shottake>
											<lognote></lognote>
											<good></good>
											<originalvideofilename></originalvideofilename>
											<originalaudiofilename></originalaudiofilename>
										</logginginfo>
										<colorinfo>
											<lut></lut>
											<lut1></lut1>
											<asc_sop></asc_sop>
											<asc_sat></asc_sat>
											<lut2></lut2>
										</colorinfo>
										<labels>
											<label2>Mango</label2>
										</labels>
									</clipitem>
									<clipitem id="clipitem-448" premiereChannelType="mono">
										<masterclipid>masterclip-67</masterclipid>
										<name>3-02-1.WAV</name>
										<enabled>TRUE</enabled>
										<duration>2725</duration>
										<rate>
											<timebase>25</timebase>
											<ntsc>FALSE</ntsc>
										</rate>
										<start>41575</start>
										<end>44300</end>
										<in>0</in>
										<out>2725</out>
										<pproTicksIn>0</pproTicksIn>
										<pproTicksOut>27687744000000</pproTicksOut>
										<file id="file-67"/>
										<sourcetrack>
											<mediatype>audio</mediatype>
											<trackindex>4</trackindex>
										</sourcetrack>
											<marker>
												<comment></comment>
												<name></name>
												<in>556</in>
												<out>-1</out>
												<pproColor>4281828977</pproColor>
											</marker>
											<marker>
												<comment></comment>
												<name></name>
												<in>2558</in>
												<out>-1</out>
												<pproColor>4281740498</pproColor>
											</marker>
										<link>
											<linkclipref>clipitem-376</linkclipref>
											<mediatype>audio</mediatype>
											<trackindex>1</trackindex>
											<clipindex>3</clipindex>
											<groupindex>1</groupindex>
										</link>
										<link>
											<linkclipref>clipitem-400</linkclipref>
											<mediatype>audio</mediatype>
											<trackindex>2</trackindex>
											<clipindex>3</clipindex>
											<groupindex>1</groupindex>
										</link>
										<link>
											<linkclipref>clipitem-424</linkclipref>
											<mediatype>audio</mediatype>
											<trackindex>3</trackindex>
											<clipindex>3</clipindex>
											<groupindex>1</groupindex>
										</link>
										<link>
											<linkclipref>clipitem-448</linkclipref>
											<mediatype>audio</mediatype>
											<trackindex>4</trackindex>
											<clipindex>3</clipindex>
											<groupindex>1</groupindex>
										</link>
										<link>
											<linkclipref>clipitem-472</linkclipref>
											<mediatype>audio</mediatype>
											<trackindex>5</trackindex>
											<clipindex>3</clipindex>
											<groupindex>1</groupindex>
										</link>
										<link>
											<linkclipref>clipitem-493</linkclipref>
											<mediatype>audio</mediatype>
											<trackindex>6</trackindex>
											<clipindex>3</clipindex>
											<groupindex>1</groupindex>
										</link>
										<logginginfo>
											<description></description>
											<scene>3-02</scene>
											<shottake></shottake>
											<lognote></lognote>
											<good></good>
											<originalvideofilename></originalvideofilename>
											<originalaudiofilename></originalaudiofilename>
										</logginginfo>
										<colorinfo>
											<lut></lut>
											<lut1></lut1>
											<asc_sop></asc_sop>
											<asc_sat></asc_sat>
											<lut2></lut2>
										</colorinfo>
										<labels>
											<label2>Mango</label2>
										</labels>
									</clipitem>
									<clipitem id="clipitem-449" premiereChannelType="mono">
										<masterclipid>masterclip-68</masterclipid>
										<name>3-03-1.WAV</name>
										<enabled>TRUE</enabled>
										<duration>2200</duration>
										<rate>
											<timebase>25</timebase>
											<ntsc>FALSE</ntsc>
										</rate>
										<start>73850</start>
										<end>76050</end>
										<in>0</in>
										<out>2200</out>
										<pproTicksIn>0</pproTicksIn>
										<pproTicksOut>22353408000000</pproTicksOut>
										<file id="file-68"/>
										<sourcetrack>
											<mediatype>audio</mediatype>
											<trackindex>4</trackindex>
										</sourcetrack>
											<marker>
												<comment></comment>
												<name></name>
												<in>526</in>
												<out>-1</out>
												<pproColor>4281828977</pproColor>
											</marker>
											<marker>
												<comment></comment>
												<name></name>
												<in>1898</in>
												<out>-1</out>
												<pproColor>4281740498</pproColor>
											</marker>
										<link>
											<linkclipref>clipitem-377</linkclipref>
											<mediatype>audio</mediatype>
											<trackindex>1</trackindex>
											<clipindex>4</clipindex>
											<groupindex>1</groupindex>
										</link>
										<link>
											<linkclipref>clipitem-401</linkclipref>
											<mediatype>audio</mediatype>
											<trackindex>2</trackindex>
											<clipindex>4</clipindex>
											<groupindex>1</groupindex>
										</link>
										<link>
											<linkclipref>clipitem-425</linkclipref>
											<mediatype>audio</mediatype>
											<trackindex>3</trackindex>
											<clipindex>4</clipindex>
											<groupindex>1</groupindex>
										</link>
										<link>
											<linkclipref>clipitem-449</linkclipref>
											<mediatype>audio</mediatype>
											<trackindex>4</trackindex>
											<clipindex>4</clipindex>
											<groupindex>1</groupindex>
										</link>
										<link>
											<linkclipref>clipitem-473</linkclipref>
											<mediatype>audio</mediatype>
											<trackindex>5</trackindex>
											<clipindex>4</clipindex>
											<groupindex>1</groupindex>
										</link>
										<link>
											<linkclipref>clipitem-494</linkclipref>
											<mediatype>audio</mediatype>
											<trackindex>6</trackindex>
											<clipindex>4</clipindex>
											<groupindex>1</groupindex>
										</link>
										<logginginfo>
											<description></description>
											<scene>3-03</scene>
											<shottake></shottake>
											<lognote></lognote>
											<good></good>
											<originalvideofilename></originalvideofilename>
											<originalaudiofilename></originalaudiofilename>
										</logginginfo>
										<colorinfo>
											<lut></lut>
											<lut1></lut1>
											<asc_sop></asc_sop>
											<asc_sat></asc_sat>
											<lut2></lut2>
										</colorinfo>
										<labels>
											<label2>Mango</label2>
										</labels>
									</clipitem>
									<clipitem id="clipitem-450" premiereChannelType="mono">
										<masterclipid>masterclip-69</masterclipid>
										<name>3-ATMOS-1.WAV</name>
										<enabled>TRUE</enabled>
										<duration>2950</duration>
										<rate>
											<timebase>25</timebase>
											<ntsc>FALSE</ntsc>
										</rate>
										<start>112025</start>
										<end>114975</end>
										<in>0</in>
										<out>2950</out>
										<pproTicksIn>0</pproTicksIn>
										<pproTicksOut>29973888000000</pproTicksOut>
										<file id="file-69"/>
										<sourcetrack>
											<mediatype>audio</mediatype>
											<trackindex>4</trackindex>
										</sourcetrack>
										<link>
											<linkclipref>clipitem-378</linkclipref>
											<mediatype>audio</mediatype>
											<trackindex>1</trackindex>
											<clipindex>5</clipindex>
											<groupindex>1</groupindex>
										</link>
										<link>
											<linkclipref>clipitem-402</linkclipref>
											<mediatype>audio</mediatype>
											<trackindex>2</trackindex>
											<clipindex>5</clipindex>
											<groupindex>1</groupindex>
										</link>
										<link>
											<linkclipref>clipitem-426</linkclipref>
											<mediatype>audio</mediatype>
											<trackindex>3</trackindex>
											<clipindex>5</clipindex>
											<groupindex>1</groupindex>
										</link>
										<link>
											<linkclipref>clipitem-450</linkclipref>
											<mediatype>audio</mediatype>
											<trackindex>4</trackindex>
											<clipindex>5</clipindex>
											<groupindex>1</groupindex>
										</link>
										<link>
											<linkclipref>clipitem-474</linkclipref>
											<mediatype>audio</mediatype>
											<trackindex>5</trackindex>
											<clipindex>5</clipindex>
											<groupindex>1</groupindex>
										</link>
										<link>
											<linkclipref>clipitem-495</linkclipref>
											<mediatype>audio</mediatype>
											<trackindex>6</trackindex>
											<clipindex>5</clipindex>
											<groupindex>1</groupindex>
										</link>
										<logginginfo>
											<description></description>
											<scene>3-ATMOS</scene>
											<shottake></shottake>
											<lognote></lognote>
											<good></good>
											<originalvideofilename></originalvideofilename>
											<originalaudiofilename></originalaudiofilename>
										</logginginfo>
										<colorinfo>
											<lut></lut>
											<lut1></lut1>
											<asc_sop></asc_sop>
											<asc_sat></asc_sat>
											<lut2></lut2>
										</colorinfo>
										<labels>
											<label2>Mango</label2>
										</labels>
									</clipitem>
									<clipitem id="clipitem-451" premiereChannelType="mono">
										<masterclipid>masterclip-88</masterclipid>
										<name>ATMOS_CHURCH-1.WAV</name>
										<enabled>TRUE</enabled>
										<duration>2975</duration>
										<rate>
											<timebase>25</timebase>
											<ntsc>FALSE</ntsc>
										</rate>
										<start>253275</start>
										<end>256250</end>
										<in>0</in>
										<out>2975</out>
										<pproTicksIn>0</pproTicksIn>
										<pproTicksOut>30227904000000</pproTicksOut>
										<file id="file-88"/>
										<sourcetrack>
											<mediatype>audio</mediatype>
											<trackindex>4</trackindex>
										</sourcetrack>
										<link>
											<linkclipref>clipitem-379</linkclipref>
											<mediatype>audio</mediatype>
											<trackindex>1</trackindex>
											<clipindex>6</clipindex>
											<groupindex>1</groupindex>
										</link>
										<link>
											<linkclipref>clipitem-403</linkclipref>
											<mediatype>audio</mediatype>
											<trackindex>2</trackindex>
											<clipindex>6</clipindex>
											<groupindex>1</groupindex>
										</link>
										<link>
											<linkclipref>clipitem-427</linkclipref>
											<mediatype>audio</mediatype>
											<trackindex>3</trackindex>
											<clipindex>6</clipindex>
											<groupindex>1</groupindex>
										</link>
										<link>
											<linkclipref>clipitem-451</linkclipref>
											<mediatype>audio</mediatype>
											<trackindex>4</trackindex>
											<clipindex>6</clipindex>
											<groupindex>1</groupindex>
										</link>
										<link>
											<linkclipref>clipitem-475</linkclipref>
											<mediatype>audio</mediatype>
											<trackindex>5</trackindex>
											<clipindex>6</clipindex>
											<groupindex>1</groupindex>
										</link>
										<link>
											<linkclipref>clipitem-496</linkclipref>
											<mediatype>audio</mediatype>
											<trackindex>6</trackindex>
											<clipindex>6</clipindex>
											<groupindex>1</groupindex>
										</link>
										<logginginfo>
											<description></description>
											<scene>ATMOS_CHURCH</scene>
											<shottake></shottake>
											<lognote></lognote>
											<good></good>
											<originalvideofilename></originalvideofilename>
											<originalaudiofilename></originalaudiofilename>
										</logginginfo>
										<colorinfo>
											<lut></lut>
											<lut1></lut1>
											<asc_sop></asc_sop>
											<asc_sat></asc_sat>
											<lut2></lut2>
										</colorinfo>
										<labels>
											<label2>Mango</label2>
										</labels>
									</clipitem>
									<clipitem id="clipitem-452" premiereChannelType="mono">
										<masterclipid>masterclip-79</masterclipid>
										<name>12-01-1.WAV</name>
										<enabled>TRUE</enabled>
										<duration>3200</duration>
										<rate>
											<timebase>25</timebase>
											<ntsc>FALSE</ntsc>
										</rate>
										<start>458975</start>
										<end>462175</end>
										<in>0</in>
										<out>3200</out>
										<pproTicksIn>0</pproTicksIn>
										<pproTicksOut>32514048000000</pproTicksOut>
										<file id="file-79"/>
										<sourcetrack>
											<mediatype>audio</mediatype>
											<trackindex>4</trackindex>
										</sourcetrack>
											<marker>
												<comment></comment>
												<name></name>
												<in>845</in>
												<out>-1</out>
												<pproColor>4281828977</pproColor>
											</marker>
											<marker>
												<comment></comment>
												<name></name>
												<in>3026</in>
												<out>-1</out>
												<pproColor>4281740498</pproColor>
											</marker>
										<link>
											<linkclipref>clipitem-380</linkclipref>
											<mediatype>audio</mediatype>
											<trackindex>1</trackindex>
											<clipindex>7</clipindex>
											<groupindex>1</groupindex>
										</link>
										<link>
											<linkclipref>clipitem-404</linkclipref>
											<mediatype>audio</mediatype>
											<trackindex>2</trackindex>
											<clipindex>7</clipindex>
											<groupindex>1</groupindex>
										</link>
										<link>
											<linkclipref>clipitem-428</linkclipref>
											<mediatype>audio</mediatype>
											<trackindex>3</trackindex>
											<clipindex>7</clipindex>
											<groupindex>1</groupindex>
										</link>
										<link>
											<linkclipref>clipitem-452</linkclipref>
											<mediatype>audio</mediatype>
											<trackindex>4</trackindex>
											<clipindex>7</clipindex>
											<groupindex>1</groupindex>
										</link>
										<link>
											<linkclipref>clipitem-476</linkclipref>
											<mediatype>audio</mediatype>
											<trackindex>5</trackindex>
											<clipindex>7</clipindex>
											<groupindex>1</groupindex>
										</link>
										<link>
											<linkclipref>clipitem-497</linkclipref>
											<mediatype>audio</mediatype>
											<trackindex>6</trackindex>
											<clipindex>7</clipindex>
											<groupindex>1</groupindex>
										</link>
										<link>
											<linkclipref>clipitem-512</linkclipref>
											<mediatype>audio</mediatype>
											<trackindex>7</trackindex>
											<clipindex>1</clipindex>
											<groupindex>1</groupindex>
										</link>
										<link>
											<linkclipref>clipitem-524</linkclipref>
											<mediatype>audio</mediatype>
											<trackindex>8</trackindex>
											<clipindex>1</clipindex>
											<groupindex>1</groupindex>
										</link>
										<logginginfo>
											<description></description>
											<scene>12-01</scene>
											<shottake></shottake>
											<lognote></lognote>
											<good></good>
											<originalvideofilename></originalvideofilename>
											<originalaudiofilename></originalaudiofilename>
										</logginginfo>
										<colorinfo>
											<lut></lut>
											<lut1></lut1>
											<asc_sop></asc_sop>
											<asc_sat></asc_sat>
											<lut2></lut2>
										</colorinfo>
										<labels>
											<label2>Mango</label2>
										</labels>
									</clipitem>
									<clipitem id="clipitem-453" premiereChannelType="mono">
										<masterclipid>masterclip-80</masterclipid>
										<name>12-01-2.WAV</name>
										<enabled>TRUE</enabled>
										<duration>1500</duration>
										<rate>
											<timebase>25</timebase>
											<ntsc>FALSE</ntsc>
										</rate>
										<start>467225</start>
										<end>468725</end>
										<in>0</in>
										<out>1500</out>
										<pproTicksIn>0</pproTicksIn>
										<pproTicksOut>15240960000000</pproTicksOut>
										<file id="file-80"/>
										<sourcetrack>
											<mediatype>audio</mediatype>
											<trackindex>4</trackindex>
										</sourcetrack>
											<marker>
												<comment></comment>
												<name></name>
												<in>726</in>
												<out>-1</out>
											</marker>
										<link>
											<linkclipref>clipitem-381</linkclipref>
											<mediatype>audio</mediatype>
											<trackindex>1</trackindex>
											<clipindex>8</clipindex>
											<groupindex>1</groupindex>
										</link>
										<link>
											<linkclipref>clipitem-405</linkclipref>
											<mediatype>audio</mediatype>
											<trackindex>2</trackindex>
											<clipindex>8</clipindex>
											<groupindex>1</groupindex>
										</link>
										<link>
											<linkclipref>clipitem-429</linkclipref>
											<mediatype>audio</mediatype>
											<trackindex>3</trackindex>
											<clipindex>8</clipindex>
											<groupindex>1</groupindex>
										</link>
										<link>
											<linkclipref>clipitem-453</linkclipref>
											<mediatype>audio</mediatype>
											<trackindex>4</trackindex>
											<clipindex>8</clipindex>
											<groupindex>1</groupindex>
										</link>
										<link>
											<linkclipref>clipitem-477</linkclipref>
											<mediatype>audio</mediatype>
											<trackindex>5</trackindex>
											<clipindex>8</clipindex>
											<groupindex>1</groupindex>
										</link>
										<link>
											<linkclipref>clipitem-498</linkclipref>
											<mediatype>audio</mediatype>
											<trackindex>6</trackindex>
											<clipindex>8</clipindex>
											<groupindex>1</groupindex>
										</link>
										<link>
											<linkclipref>clipitem-513</linkclipref>
											<mediatype>audio</mediatype>
											<trackindex>7</trackindex>
											<clipindex>2</clipindex>
											<groupindex>1</groupindex>
										</link>
										<link>
											<linkclipref>clipitem-525</linkclipref>
											<mediatype>audio</mediatype>
											<trackindex>8</trackindex>
											<clipindex>2</clipindex>
											<groupindex>1</groupindex>
										</link>
										<logginginfo>
											<description></description>
											<scene>12-01</scene>
											<shottake></shottake>
											<lognote></lognote>
											<good></good>
											<originalvideofilename></originalvideofilename>
											<originalaudiofilename></originalaudiofilename>
										</logginginfo>
										<colorinfo>
											<lut></lut>
											<lut1></lut1>
											<asc_sop></asc_sop>
											<asc_sat></asc_sat>
											<lut2></lut2>
										</colorinfo>
										<labels>
											<label2>Mango</label2>
										</labels>
									</clipitem>
									<clipitem id="clipitem-454" premiereChannelType="mono">
										<masterclipid>masterclip-81</masterclipid>
										<name>12-01-3.WAV</name>
										<enabled>TRUE</enabled>
										<duration>3275</duration>
										<rate>
											<timebase>25</timebase>
											<ntsc>FALSE</ntsc>
										</rate>
										<start>469925</start>
										<end>473200</end>
										<in>0</in>
										<out>3275</out>
										<pproTicksIn>0</pproTicksIn>
										<pproTicksOut>33276096000000</pproTicksOut>
										<file id="file-81"/>
										<sourcetrack>
											<mediatype>audio</mediatype>
											<trackindex>4</trackindex>
										</sourcetrack>
										<link>
											<linkclipref>clipitem-382</linkclipref>
											<mediatype>audio</mediatype>
											<trackindex>1</trackindex>
											<clipindex>9</clipindex>
											<groupindex>1</groupindex>
										</link>
										<link>
											<linkclipref>clipitem-406</linkclipref>
											<mediatype>audio</mediatype>
											<trackindex>2</trackindex>
											<clipindex>9</clipindex>
											<groupindex>1</groupindex>
										</link>
										<link>
											<linkclipref>clipitem-430</linkclipref>
											<mediatype>audio</mediatype>
											<trackindex>3</trackindex>
											<clipindex>9</clipindex>
											<groupindex>1</groupindex>
										</link>
										<link>
											<linkclipref>clipitem-454</linkclipref>
											<mediatype>audio</mediatype>
											<trackindex>4</trackindex>
											<clipindex>9</clipindex>
											<groupindex>1</groupindex>
										</link>
										<link>
											<linkclipref>clipitem-478</linkclipref>
											<mediatype>audio</mediatype>
											<trackindex>5</trackindex>
											<clipindex>9</clipindex>
											<groupindex>1</groupindex>
										</link>
										<link>
											<linkclipref>clipitem-499</linkclipref>
											<mediatype>audio</mediatype>
											<trackindex>6</trackindex>
											<clipindex>9</clipindex>
											<groupindex>1</groupindex>
										</link>
										<link>
											<linkclipref>clipitem-514</linkclipref>
											<mediatype>audio</mediatype>
											<trackindex>7</trackindex>
											<clipindex>3</clipindex>
											<groupindex>1</groupindex>
										</link>
										<link>
											<linkclipref>clipitem-526</linkclipref>
											<mediatype>audio</mediatype>
											<trackindex>8</trackindex>
											<clipindex>3</clipindex>
											<groupindex>1</groupindex>
										</link>
										<logginginfo>
											<description></description>
											<scene>12-01</scene>
											<shottake></shottake>
											<lognote></lognote>
											<good></good>
											<originalvideofilename></originalvideofilename>
											<originalaudiofilename></originalaudiofilename>
										</logginginfo>
										<colorinfo>
											<lut></lut>
											<lut1></lut1>
											<asc_sop></asc_sop>
											<asc_sat></asc_sat>
											<lut2></lut2>
										</colorinfo>
										<labels>
											<label2>Mango</label2>
										</labels>
									</clipitem>
									<clipitem id="clipitem-455" premiereChannelType="mono">
										<masterclipid>masterclip-82</masterclipid>
										<name>12-01-4.WAV</name>
										<enabled>TRUE</enabled>
										<duration>3975</duration>
										<rate>
											<timebase>25</timebase>
											<ntsc>FALSE</ntsc>
										</rate>
										<start>474625</start>
										<end>478600</end>
										<in>0</in>
										<out>3975</out>
										<pproTicksIn>0</pproTicksIn>
										<pproTicksOut>40388544000000</pproTicksOut>
										<file id="file-82"/>
										<sourcetrack>
											<mediatype>audio</mediatype>
											<trackindex>4</trackindex>
										</sourcetrack>
										<link>
											<linkclipref>clipitem-383</linkclipref>
											<mediatype>audio</mediatype>
											<trackindex>1</trackindex>
											<clipindex>10</clipindex>
											<groupindex>1</groupindex>
										</link>
										<link>
											<linkclipref>clipitem-407</linkclipref>
											<mediatype>audio</mediatype>
											<trackindex>2</trackindex>
											<clipindex>10</clipindex>
											<groupindex>1</groupindex>
										</link>
										<link>
											<linkclipref>clipitem-431</linkclipref>
											<mediatype>audio</mediatype>
											<trackindex>3</trackindex>
											<clipindex>10</clipindex>
											<groupindex>1</groupindex>
										</link>
										<link>
											<linkclipref>clipitem-455</linkclipref>
											<mediatype>audio</mediatype>
											<trackindex>4</trackindex>
											<clipindex>10</clipindex>
											<groupindex>1</groupindex>
										</link>
										<link>
											<linkclipref>clipitem-479</linkclipref>
											<mediatype>audio</mediatype>
											<trackindex>5</trackindex>
											<clipindex>10</clipindex>
											<groupindex>1</groupindex>
										</link>
										<link>
											<linkclipref>clipitem-500</linkclipref>
											<mediatype>audio</mediatype>
											<trackindex>6</trackindex>
											<clipindex>10</clipindex>
											<groupindex>1</groupindex>
										</link>
										<link>
											<linkclipref>clipitem-515</linkclipref>
											<mediatype>audio</mediatype>
											<trackindex>7</trackindex>
											<clipindex>4</clipindex>
											<groupindex>1</groupindex>
										</link>
										<link>
											<linkclipref>clipitem-527</linkclipref>
											<mediatype>audio</mediatype>
											<trackindex>8</trackindex>
											<clipindex>4</clipindex>
											<groupindex>1</groupindex>
										</link>
										<logginginfo>
											<description></description>
											<scene>12-01</scene>
											<shottake></shottake>
											<lognote></lognote>
											<good></good>
											<originalvideofilename></originalvideofilename>
											<originalaudiofilename></originalaudiofilename>
										</logginginfo>
										<colorinfo>
											<lut></lut>
											<lut1></lut1>
											<asc_sop></asc_sop>
											<asc_sat></asc_sat>
											<lut2></lut2>
										</colorinfo>
										<labels>
											<label2>Mango</label2>
										</labels>
									</clipitem>
									<clipitem id="clipitem-456" premiereChannelType="mono">
										<masterclipid>masterclip-83</masterclipid>
										<name>12-01-5.WAV</name>
										<enabled>TRUE</enabled>
										<duration>3375</duration>
										<rate>
											<timebase>25</timebase>
											<ntsc>FALSE</ntsc>
										</rate>
										<start>481250</start>
										<end>484625</end>
										<in>0</in>
										<out>3375</out>
										<pproTicksIn>0</pproTicksIn>
										<pproTicksOut>34292160000000</pproTicksOut>
										<file id="file-83"/>
										<sourcetrack>
											<mediatype>audio</mediatype>
											<trackindex>4</trackindex>
										</sourcetrack>
										<link>
											<linkclipref>clipitem-384</linkclipref>
											<mediatype>audio</mediatype>
											<trackindex>1</trackindex>
											<clipindex>11</clipindex>
											<groupindex>1</groupindex>
										</link>
										<link>
											<linkclipref>clipitem-408</linkclipref>
											<mediatype>audio</mediatype>
											<trackindex>2</trackindex>
											<clipindex>11</clipindex>
											<groupindex>1</groupindex>
										</link>
										<link>
											<linkclipref>clipitem-432</linkclipref>
											<mediatype>audio</mediatype>
											<trackindex>3</trackindex>
											<clipindex>11</clipindex>
											<groupindex>1</groupindex>
										</link>
										<link>
											<linkclipref>clipitem-456</linkclipref>
											<mediatype>audio</mediatype>
											<trackindex>4</trackindex>
											<clipindex>11</clipindex>
											<groupindex>1</groupindex>
										</link>
										<link>
											<linkclipref>clipitem-480</linkclipref>
											<mediatype>audio</mediatype>
											<trackindex>5</trackindex>
											<clipindex>11</clipindex>
											<groupindex>1</groupindex>
										</link>
										<link>
											<linkclipref>clipitem-501</linkclipref>
											<mediatype>audio</mediatype>
											<trackindex>6</trackindex>
											<clipindex>11</clipindex>
											<groupindex>1</groupindex>
										</link>
										<link>
											<linkclipref>clipitem-516</linkclipref>
											<mediatype>audio</mediatype>
											<trackindex>7</trackindex>
											<clipindex>5</clipindex>
											<groupindex>1</groupindex>
										</link>
										<link>
											<linkclipref>clipitem-528</linkclipref>
											<mediatype>audio</mediatype>
											<trackindex>8</trackindex>
											<clipindex>5</clipindex>
											<groupindex>1</groupindex>
										</link>
										<logginginfo>
											<description></description>
											<scene>12-01</scene>
											<shottake></shottake>
											<lognote></lognote>
											<good></good>
											<originalvideofilename></originalvideofilename>
											<originalaudiofilename></originalaudiofilename>
										</logginginfo>
										<colorinfo>
											<lut></lut>
											<lut1></lut1>
											<asc_sop></asc_sop>
											<asc_sat></asc_sat>
											<lut2></lut2>
										</colorinfo>
										<labels>
											<label2>Mango</label2>
										</labels>
									</clipitem>
									<clipitem id="clipitem-457" premiereChannelType="mono">
										<masterclipid>masterclip-84</masterclipid>
										<name>12-02-1.WAV</name>
										<enabled>TRUE</enabled>
										<duration>2900</duration>
										<rate>
											<timebase>25</timebase>
											<ntsc>FALSE</ntsc>
										</rate>
										<start>509850</start>
										<end>512750</end>
										<in>0</in>
										<out>2900</out>
										<pproTicksIn>0</pproTicksIn>
										<pproTicksOut>29465856000000</pproTicksOut>
										<file id="file-84"/>
										<sourcetrack>
											<mediatype>audio</mediatype>
											<trackindex>4</trackindex>
										</sourcetrack>
										<link>
											<linkclipref>clipitem-385</linkclipref>
											<mediatype>audio</mediatype>
											<trackindex>1</trackindex>
											<clipindex>12</clipindex>
											<groupindex>1</groupindex>
										</link>
										<link>
											<linkclipref>clipitem-409</linkclipref>
											<mediatype>audio</mediatype>
											<trackindex>2</trackindex>
											<clipindex>12</clipindex>
											<groupindex>1</groupindex>
										</link>
										<link>
											<linkclipref>clipitem-433</linkclipref>
											<mediatype>audio</mediatype>
											<trackindex>3</trackindex>
											<clipindex>12</clipindex>
											<groupindex>1</groupindex>
										</link>
										<link>
											<linkclipref>clipitem-457</linkclipref>
											<mediatype>audio</mediatype>
											<trackindex>4</trackindex>
											<clipindex>12</clipindex>
											<groupindex>1</groupindex>
										</link>
										<link>
											<linkclipref>clipitem-481</linkclipref>
											<mediatype>audio</mediatype>
											<trackindex>5</trackindex>
											<clipindex>12</clipindex>
											<groupindex>1</groupindex>
										</link>
										<link>
											<linkclipref>clipitem-502</linkclipref>
											<mediatype>audio</mediatype>
											<trackindex>6</trackindex>
											<clipindex>12</clipindex>
											<groupindex>1</groupindex>
										</link>
										<logginginfo>
											<description></description>
											<scene>12-02</scene>
											<shottake></shottake>
											<lognote></lognote>
											<good></good>
											<originalvideofilename></originalvideofilename>
											<originalaudiofilename></originalaudiofilename>
										</logginginfo>
										<colorinfo>
											<lut></lut>
											<lut1></lut1>
											<asc_sop></asc_sop>
											<asc_sat></asc_sat>
											<lut2></lut2>
										</colorinfo>
										<labels>
											<label2>Mango</label2>
										</labels>
									</clipitem>
									<clipitem id="clipitem-458" premiereChannelType="mono">
										<masterclipid>masterclip-85</masterclipid>
										<name>12-02-2.WAV</name>
										<enabled>TRUE</enabled>
										<duration>2100</duration>
										<rate>
											<timebase>25</timebase>
											<ntsc>FALSE</ntsc>
										</rate>
										<start>513550</start>
										<end>515650</end>
										<in>0</in>
										<out>2100</out>
										<pproTicksIn>0</pproTicksIn>
										<pproTicksOut>21337344000000</pproTicksOut>
										<file id="file-85"/>
										<sourcetrack>
											<mediatype>audio</mediatype>
											<trackindex>4</trackindex>
										</sourcetrack>
										<link>
											<linkclipref>clipitem-386</linkclipref>
											<mediatype>audio</mediatype>
											<trackindex>1</trackindex>
											<clipindex>13</clipindex>
											<groupindex>1</groupindex>
										</link>
										<link>
											<linkclipref>clipitem-410</linkclipref>
											<mediatype>audio</mediatype>
											<trackindex>2</trackindex>
											<clipindex>13</clipindex>
											<groupindex>1</groupindex>
										</link>
										<link>
											<linkclipref>clipitem-434</linkclipref>
											<mediatype>audio</mediatype>
											<trackindex>3</trackindex>
											<clipindex>13</clipindex>
											<groupindex>1</groupindex>
										</link>
										<link>
											<linkclipref>clipitem-458</linkclipref>
											<mediatype>audio</mediatype>
											<trackindex>4</trackindex>
											<clipindex>13</clipindex>
											<groupindex>1</groupindex>
										</link>
										<link>
											<linkclipref>clipitem-482</linkclipref>
											<mediatype>audio</mediatype>
											<trackindex>5</trackindex>
											<clipindex>13</clipindex>
											<groupindex>1</groupindex>
										</link>
										<link>
											<linkclipref>clipitem-503</linkclipref>
											<mediatype>audio</mediatype>
											<trackindex>6</trackindex>
											<clipindex>13</clipindex>
											<groupindex>1</groupindex>
										</link>
										<logginginfo>
											<description></description>
											<scene>12-02</scene>
											<shottake></shottake>
											<lognote></lognote>
											<good></good>
											<originalvideofilename></originalvideofilename>
											<originalaudiofilename></originalaudiofilename>
										</logginginfo>
										<colorinfo>
											<lut></lut>
											<lut1></lut1>
											<asc_sop></asc_sop>
											<asc_sat></asc_sat>
											<lut2></lut2>
										</colorinfo>
										<labels>
											<label2>Mango</label2>
										</labels>
									</clipitem>
									<clipitem id="clipitem-459" premiereChannelType="mono">
										<masterclipid>masterclip-75</masterclipid>
										<name>6-01-1.WAV</name>
										<enabled>TRUE</enabled>
										<duration>4775</duration>
										<rate>
											<timebase>25</timebase>
											<ntsc>FALSE</ntsc>
										</rate>
										<start>769325</start>
										<end>774100</end>
										<in>0</in>
										<out>4775</out>
										<pproTicksIn>0</pproTicksIn>
										<pproTicksOut>48517056000000</pproTicksOut>
										<file id="file-75"/>
										<sourcetrack>
											<mediatype>audio</mediatype>
											<trackindex>4</trackindex>
										</sourcetrack>
										<link>
											<linkclipref>clipitem-387</linkclipref>
											<mediatype>audio</mediatype>
											<trackindex>1</trackindex>
											<clipindex>14</clipindex>
											<groupindex>1</groupindex>
										</link>
										<link>
											<linkclipref>clipitem-411</linkclipref>
											<mediatype>audio</mediatype>
											<trackindex>2</trackindex>
											<clipindex>14</clipindex>
											<groupindex>1</groupindex>
										</link>
										<link>
											<linkclipref>clipitem-435</linkclipref>
											<mediatype>audio</mediatype>
											<trackindex>3</trackindex>
											<clipindex>14</clipindex>
											<groupindex>1</groupindex>
										</link>
										<link>
											<linkclipref>clipitem-459</linkclipref>
											<mediatype>audio</mediatype>
											<trackindex>4</trackindex>
											<clipindex>14</clipindex>
											<groupindex>1</groupindex>
										</link>
										<link>
											<linkclipref>clipitem-483</linkclipref>
											<mediatype>audio</mediatype>
											<trackindex>5</trackindex>
											<clipindex>14</clipindex>
											<groupindex>1</groupindex>
										</link>
										<link>
											<linkclipref>clipitem-504</linkclipref>
											<mediatype>audio</mediatype>
											<trackindex>6</trackindex>
											<clipindex>14</clipindex>
											<groupindex>1</groupindex>
										</link>
										<link>
											<linkclipref>clipitem-517</linkclipref>
											<mediatype>audio</mediatype>
											<trackindex>7</trackindex>
											<clipindex>6</clipindex>
											<groupindex>1</groupindex>
										</link>
										<link>
											<linkclipref>clipitem-529</linkclipref>
											<mediatype>audio</mediatype>
											<trackindex>8</trackindex>
											<clipindex>6</clipindex>
											<groupindex>1</groupindex>
										</link>
										<logginginfo>
											<description></description>
											<scene>6-01</scene>
											<shottake></shottake>
											<lognote></lognote>
											<good></good>
											<originalvideofilename></originalvideofilename>
											<originalaudiofilename></originalaudiofilename>
										</logginginfo>
										<colorinfo>
											<lut></lut>
											<lut1></lut1>
											<asc_sop></asc_sop>
											<asc_sat></asc_sat>
											<lut2></lut2>
										</colorinfo>
										<labels>
											<label2>Mango</label2>
										</labels>
									</clipitem>
									<clipitem id="clipitem-460" premiereChannelType="mono">
										<masterclipid>masterclip-76</masterclipid>
										<name>6-01-2.WAV</name>
										<enabled>TRUE</enabled>
										<duration>4175</duration>
										<rate>
											<timebase>25</timebase>
											<ntsc>FALSE</ntsc>
										</rate>
										<start>791700</start>
										<end>795875</end>
										<in>0</in>
										<out>4175</out>
										<pproTicksIn>0</pproTicksIn>
										<pproTicksOut>42420672000000</pproTicksOut>
										<file id="file-76"/>
										<sourcetrack>
											<mediatype>audio</mediatype>
											<trackindex>4</trackindex>
										</sourcetrack>
										<link>
											<linkclipref>clipitem-388</linkclipref>
											<mediatype>audio</mediatype>
											<trackindex>1</trackindex>
											<clipindex>15</clipindex>
											<groupindex>1</groupindex>
										</link>
										<link>
											<linkclipref>clipitem-412</linkclipref>
											<mediatype>audio</mediatype>
											<trackindex>2</trackindex>
											<clipindex>15</clipindex>
											<groupindex>1</groupindex>
										</link>
										<link>
											<linkclipref>clipitem-436</linkclipref>
											<mediatype>audio</mediatype>
											<trackindex>3</trackindex>
											<clipindex>15</clipindex>
											<groupindex>1</groupindex>
										</link>
										<link>
											<linkclipref>clipitem-460</linkclipref>
											<mediatype>audio</mediatype>
											<trackindex>4</trackindex>
											<clipindex>15</clipindex>
											<groupindex>1</groupindex>
										</link>
										<link>
											<linkclipref>clipitem-484</linkclipref>
											<mediatype>audio</mediatype>
											<trackindex>5</trackindex>
											<clipindex>15</clipindex>
											<groupindex>1</groupindex>
										</link>
										<link>
											<linkclipref>clipitem-505</linkclipref>
											<mediatype>audio</mediatype>
											<trackindex>6</trackindex>
											<clipindex>15</clipindex>
											<groupindex>1</groupindex>
										</link>
										<link>
											<linkclipref>clipitem-518</linkclipref>
											<mediatype>audio</mediatype>
											<trackindex>7</trackindex>
											<clipindex>7</clipindex>
											<groupindex>1</groupindex>
										</link>
										<link>
											<linkclipref>clipitem-530</linkclipref>
											<mediatype>audio</mediatype>
											<trackindex>8</trackindex>
											<clipindex>7</clipindex>
											<groupindex>1</groupindex>
										</link>
										<logginginfo>
											<description></description>
											<scene>6-01</scene>
											<shottake></shottake>
											<lognote></lognote>
											<good></good>
											<originalvideofilename></originalvideofilename>
											<originalaudiofilename></originalaudiofilename>
										</logginginfo>
										<colorinfo>
											<lut></lut>
											<lut1></lut1>
											<asc_sop></asc_sop>
											<asc_sat></asc_sat>
											<lut2></lut2>
										</colorinfo>
										<labels>
											<label2>Mango</label2>
										</labels>
									</clipitem>
									<clipitem id="clipitem-461" premiereChannelType="mono">
										<masterclipid>masterclip-77</masterclipid>
										<name>6-01-3.WAV</name>
										<enabled>TRUE</enabled>
										<duration>4400</duration>
										<rate>
											<timebase>25</timebase>
											<ntsc>FALSE</ntsc>
										</rate>
										<start>801425</start>
										<end>805825</end>
										<in>0</in>
										<out>4400</out>
										<pproTicksIn>0</pproTicksIn>
										<pproTicksOut>44706816000000</pproTicksOut>
										<file id="file-77"/>
										<sourcetrack>
											<mediatype>audio</mediatype>
											<trackindex>4</trackindex>
										</sourcetrack>
										<link>
											<linkclipref>clipitem-389</linkclipref>
											<mediatype>audio</mediatype>
											<trackindex>1</trackindex>
											<clipindex>16</clipindex>
											<groupindex>1</groupindex>
										</link>
										<link>
											<linkclipref>clipitem-413</linkclipref>
											<mediatype>audio</mediatype>
											<trackindex>2</trackindex>
											<clipindex>16</clipindex>
											<groupindex>1</groupindex>
										</link>
										<link>
											<linkclipref>clipitem-437</linkclipref>
											<mediatype>audio</mediatype>
											<trackindex>3</trackindex>
											<clipindex>16</clipindex>
											<groupindex>1</groupindex>
										</link>
										<link>
											<linkclipref>clipitem-461</linkclipref>
											<mediatype>audio</mediatype>
											<trackindex>4</trackindex>
											<clipindex>16</clipindex>
											<groupindex>1</groupindex>
										</link>
										<link>
											<linkclipref>clipitem-485</linkclipref>
											<mediatype>audio</mediatype>
											<trackindex>5</trackindex>
											<clipindex>16</clipindex>
											<groupindex>1</groupindex>
										</link>
										<link>
											<linkclipref>clipitem-506</linkclipref>
											<mediatype>audio</mediatype>
											<trackindex>6</trackindex>
											<clipindex>16</clipindex>
											<groupindex>1</groupindex>
										</link>
										<link>
											<linkclipref>clipitem-519</linkclipref>
											<mediatype>audio</mediatype>
											<trackindex>7</trackindex>
											<clipindex>8</clipindex>
											<groupindex>1</groupindex>
										</link>
										<link>
											<linkclipref>clipitem-531</linkclipref>
											<mediatype>audio</mediatype>
											<trackindex>8</trackindex>
											<clipindex>8</clipindex>
											<groupindex>1</groupindex>
										</link>
										<logginginfo>
											<description></description>
											<scene>6-01</scene>
											<shottake></shottake>
											<lognote></lognote>
											<good></good>
											<originalvideofilename></originalvideofilename>
											<originalaudiofilename></originalaudiofilename>
										</logginginfo>
										<colorinfo>
											<lut></lut>
											<lut1></lut1>
											<asc_sop></asc_sop>
											<asc_sat></asc_sat>
											<lut2></lut2>
										</colorinfo>
										<labels>
											<label2>Mango</label2>
										</labels>
									</clipitem>
									<clipitem id="clipitem-462" premiereChannelType="mono">
										<masterclipid>masterclip-78</masterclipid>
										<name>6-01-4.WAV</name>
										<enabled>TRUE</enabled>
										<duration>5275</duration>
										<rate>
											<timebase>25</timebase>
											<ntsc>FALSE</ntsc>
										</rate>
										<start>811475</start>
										<end>816750</end>
										<in>0</in>
										<out>5275</out>
										<pproTicksIn>0</pproTicksIn>
										<pproTicksOut>53597376000000</pproTicksOut>
										<file id="file-78"/>
										<sourcetrack>
											<mediatype>audio</mediatype>
											<trackindex>4</trackindex>
										</sourcetrack>
										<link>
											<linkclipref>clipitem-390</linkclipref>
											<mediatype>audio</mediatype>
											<trackindex>1</trackindex>
											<clipindex>17</clipindex>
											<groupindex>1</groupindex>
										</link>
										<link>
											<linkclipref>clipitem-414</linkclipref>
											<mediatype>audio</mediatype>
											<trackindex>2</trackindex>
											<clipindex>17</clipindex>
											<groupindex>1</groupindex>
										</link>
										<link>
											<linkclipref>clipitem-438</linkclipref>
											<mediatype>audio</mediatype>
											<trackindex>3</trackindex>
											<clipindex>17</clipindex>
											<groupindex>1</groupindex>
										</link>
										<link>
											<linkclipref>clipitem-462</linkclipref>
											<mediatype>audio</mediatype>
											<trackindex>4</trackindex>
											<clipindex>17</clipindex>
											<groupindex>1</groupindex>
										</link>
										<link>
											<linkclipref>clipitem-486</linkclipref>
											<mediatype>audio</mediatype>
											<trackindex>5</trackindex>
											<clipindex>17</clipindex>
											<groupindex>1</groupindex>
										</link>
										<link>
											<linkclipref>clipitem-507</linkclipref>
											<mediatype>audio</mediatype>
											<trackindex>6</trackindex>
											<clipindex>17</clipindex>
											<groupindex>1</groupindex>
										</link>
										<link>
											<linkclipref>clipitem-520</linkclipref>
											<mediatype>audio</mediatype>
											<trackindex>7</trackindex>
											<clipindex>9</clipindex>
											<groupindex>1</groupindex>
										</link>
										<link>
											<linkclipref>clipitem-532</linkclipref>
											<mediatype>audio</mediatype>
											<trackindex>8</trackindex>
											<clipindex>9</clipindex>
											<groupindex>1</groupindex>
										</link>
										<logginginfo>
											<description></description>
											<scene>6-01</scene>
											<shottake></shottake>
											<lognote></lognote>
											<good></good>
											<originalvideofilename></originalvideofilename>
											<originalaudiofilename></originalaudiofilename>
										</logginginfo>
										<colorinfo>
											<lut></lut>
											<lut1></lut1>
											<asc_sop></asc_sop>
											<asc_sat></asc_sat>
											<lut2></lut2>
										</colorinfo>
										<labels>
											<label2>Mango</label2>
										</labels>
									</clipitem>
									<clipitem id="clipitem-463" premiereChannelType="mono">
										<masterclipid>masterclip-86</masterclipid>
										<name>15-01-1.WAV</name>
										<enabled>TRUE</enabled>
										<duration>3575</duration>
										<rate>
											<timebase>25</timebase>
											<ntsc>FALSE</ntsc>
										</rate>
										<start>910025</start>
										<end>913600</end>
										<in>0</in>
										<out>3575</out>
										<pproTicksIn>0</pproTicksIn>
										<pproTicksOut>36324288000000</pproTicksOut>
										<file id="file-86"/>
										<sourcetrack>
											<mediatype>audio</mediatype>
											<trackindex>4</trackindex>
										</sourcetrack>
										<link>
											<linkclipref>clipitem-391</linkclipref>
											<mediatype>audio</mediatype>
											<trackindex>1</trackindex>
											<clipindex>18</clipindex>
											<groupindex>1</groupindex>
										</link>
										<link>
											<linkclipref>clipitem-415</linkclipref>
											<mediatype>audio</mediatype>
											<trackindex>2</trackindex>
											<clipindex>18</clipindex>
											<groupindex>1</groupindex>
										</link>
										<link>
											<linkclipref>clipitem-439</linkclipref>
											<mediatype>audio</mediatype>
											<trackindex>3</trackindex>
											<clipindex>18</clipindex>
											<groupindex>1</groupindex>
										</link>
										<link>
											<linkclipref>clipitem-463</linkclipref>
											<mediatype>audio</mediatype>
											<trackindex>4</trackindex>
											<clipindex>18</clipindex>
											<groupindex>1</groupindex>
										</link>
										<link>
											<linkclipref>clipitem-487</linkclipref>
											<mediatype>audio</mediatype>
											<trackindex>5</trackindex>
											<clipindex>18</clipindex>
											<groupindex>1</groupindex>
										</link>
										<link>
											<linkclipref>clipitem-508</linkclipref>
											<mediatype>audio</mediatype>
											<trackindex>6</trackindex>
											<clipindex>18</clipindex>
											<groupindex>1</groupindex>
										</link>
										<link>
											<linkclipref>clipitem-521</linkclipref>
											<mediatype>audio</mediatype>
											<trackindex>7</trackindex>
											<clipindex>10</clipindex>
											<groupindex>1</groupindex>
										</link>
										<link>
											<linkclipref>clipitem-533</linkclipref>
											<mediatype>audio</mediatype>
											<trackindex>8</trackindex>
											<clipindex>10</clipindex>
											<groupindex>1</groupindex>
										</link>
										<logginginfo>
											<description></description>
											<scene>15-01</scene>
											<shottake></shottake>
											<lognote></lognote>
											<good></good>
											<originalvideofilename></originalvideofilename>
											<originalaudiofilename></originalaudiofilename>
										</logginginfo>
										<colorinfo>
											<lut></lut>
											<lut1></lut1>
											<asc_sop></asc_sop>
											<asc_sat></asc_sat>
											<lut2></lut2>
										</colorinfo>
										<labels>
											<label2>Mango</label2>
										</labels>
									</clipitem>
									<clipitem id="clipitem-464" premiereChannelType="mono">
										<masterclipid>masterclip-87</masterclipid>
										<name>15-01-2.WAV</name>
										<enabled>TRUE</enabled>
										<duration>4100</duration>
										<rate>
											<timebase>25</timebase>
											<ntsc>FALSE</ntsc>
										</rate>
										<start>916775</start>
										<end>920875</end>
										<in>0</in>
										<out>4100</out>
										<pproTicksIn>0</pproTicksIn>
										<pproTicksOut>41658624000000</pproTicksOut>
										<file id="file-87"/>
										<sourcetrack>
											<mediatype>audio</mediatype>
											<trackindex>4</trackindex>
										</sourcetrack>
										<link>
											<linkclipref>clipitem-392</linkclipref>
											<mediatype>audio</mediatype>
											<trackindex>1</trackindex>
											<clipindex>19</clipindex>
											<groupindex>1</groupindex>
										</link>
										<link>
											<linkclipref>clipitem-416</linkclipref>
											<mediatype>audio</mediatype>
											<trackindex>2</trackindex>
											<clipindex>19</clipindex>
											<groupindex>1</groupindex>
										</link>
										<link>
											<linkclipref>clipitem-440</linkclipref>
											<mediatype>audio</mediatype>
											<trackindex>3</trackindex>
											<clipindex>19</clipindex>
											<groupindex>1</groupindex>
										</link>
										<link>
											<linkclipref>clipitem-464</linkclipref>
											<mediatype>audio</mediatype>
											<trackindex>4</trackindex>
											<clipindex>19</clipindex>
											<groupindex>1</groupindex>
										</link>
										<link>
											<linkclipref>clipitem-488</linkclipref>
											<mediatype>audio</mediatype>
											<trackindex>5</trackindex>
											<clipindex>19</clipindex>
											<groupindex>1</groupindex>
										</link>
										<link>
											<linkclipref>clipitem-509</linkclipref>
											<mediatype>audio</mediatype>
											<trackindex>6</trackindex>
											<clipindex>19</clipindex>
											<groupindex>1</groupindex>
										</link>
										<link>
											<linkclipref>clipitem-522</linkclipref>
											<mediatype>audio</mediatype>
											<trackindex>7</trackindex>
											<clipindex>11</clipindex>
											<groupindex>1</groupindex>
										</link>
										<link>
											<linkclipref>clipitem-534</linkclipref>
											<mediatype>audio</mediatype>
											<trackindex>8</trackindex>
											<clipindex>11</clipindex>
											<groupindex>1</groupindex>
										</link>
										<logginginfo>
											<description></description>
											<scene>15-01</scene>
											<shottake></shottake>
											<lognote></lognote>
											<good></good>
											<originalvideofilename></originalvideofilename>
											<originalaudiofilename></originalaudiofilename>
										</logginginfo>
										<colorinfo>
											<lut></lut>
											<lut1></lut1>
											<asc_sop></asc_sop>
											<asc_sat></asc_sat>
											<lut2></lut2>
										</colorinfo>
										<labels>
											<label2>Mango</label2>
										</labels>
									</clipitem>
									<clipitem id="clipitem-465" premiereChannelType="mono">
										<masterclipid>masterclip-71</masterclipid>
										<name>3-WILD-MOTHER-1.WAV</name>
										<enabled>TRUE</enabled>
										<duration>2375</duration>
										<rate>
											<timebase>25</timebase>
											<ntsc>FALSE</ntsc>
										</rate>
										<start>923950</start>
										<end>926325</end>
										<in>0</in>
										<out>2375</out>
										<pproTicksIn>0</pproTicksIn>
										<pproTicksOut>24131520000000</pproTicksOut>
										<file id="file-71"/>
										<sourcetrack>
											<mediatype>audio</mediatype>
											<trackindex>4</trackindex>
										</sourcetrack>
										<link>
											<linkclipref>clipitem-393</linkclipref>
											<mediatype>audio</mediatype>
											<trackindex>1</trackindex>
											<clipindex>20</clipindex>
											<groupindex>1</groupindex>
										</link>
										<link>
											<linkclipref>clipitem-417</linkclipref>
											<mediatype>audio</mediatype>
											<trackindex>2</trackindex>
											<clipindex>20</clipindex>
											<groupindex>1</groupindex>
										</link>
										<link>
											<linkclipref>clipitem-441</linkclipref>
											<mediatype>audio</mediatype>
											<trackindex>3</trackindex>
											<clipindex>20</clipindex>
											<groupindex>1</groupindex>
										</link>
										<link>
											<linkclipref>clipitem-465</linkclipref>
											<mediatype>audio</mediatype>
											<trackindex>4</trackindex>
											<clipindex>20</clipindex>
											<groupindex>1</groupindex>
										</link>
										<link>
											<linkclipref>clipitem-489</linkclipref>
											<mediatype>audio</mediatype>
											<trackindex>5</trackindex>
											<clipindex>20</clipindex>
											<groupindex>1</groupindex>
										</link>
										<link>
											<linkclipref>clipitem-510</linkclipref>
											<mediatype>audio</mediatype>
											<trackindex>6</trackindex>
											<clipindex>20</clipindex>
											<groupindex>1</groupindex>
										</link>
										<link>
											<linkclipref>clipitem-523</linkclipref>
											<mediatype>audio</mediatype>
											<trackindex>7</trackindex>
											<clipindex>12</clipindex>
											<groupindex>1</groupindex>
										</link>
										<link>
											<linkclipref>clipitem-535</linkclipref>
											<mediatype>audio</mediatype>
											<trackindex>8</trackindex>
											<clipindex>12</clipindex>
											<groupindex>1</groupindex>
										</link>
										<logginginfo>
											<description></description>
											<scene>3-WILD-MOTHER</scene>
											<shottake></shottake>
											<lognote></lognote>
											<good></good>
											<originalvideofilename></originalvideofilename>
											<originalaudiofilename></originalaudiofilename>
										</logginginfo>
										<colorinfo>
											<lut></lut>
											<lut1></lut1>
											<asc_sop></asc_sop>
											<asc_sat></asc_sat>
											<lut2></lut2>
										</colorinfo>
										<labels>
											<label2>Mango</label2>
										</labels>
									</clipitem>
									<clipitem id="clipitem-466" premiereChannelType="mono">
										<masterclipid>masterclip-70</masterclipid>
										<name>3-RT-1.WAV</name>
										<enabled>TRUE</enabled>
										<duration>1700</duration>
										<rate>
											<timebase>25</timebase>
											<ntsc>FALSE</ntsc>
										</rate>
										<start>927000</start>
										<end>928700</end>
										<in>0</in>
										<out>1700</out>
										<pproTicksIn>0</pproTicksIn>
										<pproTicksOut>17273088000000</pproTicksOut>
										<file id="file-70"/>
										<sourcetrack>
											<mediatype>audio</mediatype>
											<trackindex>3</trackindex>
										</sourcetrack>
										<link>
											<linkclipref>clipitem-394</linkclipref>
											<mediatype>audio</mediatype>
											<trackindex>1</trackindex>
											<clipindex>21</clipindex>
											<groupindex>1</groupindex>
										</link>
										<link>
											<linkclipref>clipitem-418</linkclipref>
											<mediatype>audio</mediatype>
											<trackindex>2</trackindex>
											<clipindex>21</clipindex>
											<groupindex>1</groupindex>
										</link>
										<link>
											<linkclipref>clipitem-442</linkclipref>
											<mediatype>audio</mediatype>
											<trackindex>3</trackindex>
											<clipindex>21</clipindex>
											<groupindex>1</groupindex>
										</link>
										<link>
											<linkclipref>clipitem-466</linkclipref>
											<mediatype>audio</mediatype>
											<trackindex>4</trackindex>
											<clipindex>21</clipindex>
											<groupindex>1</groupindex>
										</link>
										<logginginfo>
											<description></description>
											<scene>3-RT</scene>
											<shottake></shottake>
											<lognote></lognote>
											<good></good>
											<originalvideofilename></originalvideofilename>
											<originalaudiofilename></originalaudiofilename>
										</logginginfo>
										<colorinfo>
											<lut></lut>
											<lut1></lut1>
											<asc_sop></asc_sop>
											<asc_sat></asc_sat>
											<lut2></lut2>
										</colorinfo>
										<labels>
											<label2>Mango</label2>
										</labels>
									</clipitem>
									<clipitem id="clipitem-467" premiereChannelType="mono">
										<masterclipid>masterclip-72</masterclipid>
										<name>3-WILD-MOTHER-2.WAV</name>
										<enabled>TRUE</enabled>
										<duration>500</duration>
										<rate>
											<timebase>25</timebase>
											<ntsc>FALSE</ntsc>
										</rate>
										<start>929500</start>
										<end>930000</end>
										<in>0</in>
										<out>500</out>
										<pproTicksIn>0</pproTicksIn>
										<pproTicksOut>5080320000000</pproTicksOut>
										<file id="file-72"/>
										<sourcetrack>
											<mediatype>audio</mediatype>
											<trackindex>3</trackindex>
										</sourcetrack>
										<link>
											<linkclipref>clipitem-395</linkclipref>
											<mediatype>audio</mediatype>
											<trackindex>1</trackindex>
											<clipindex>22</clipindex>
											<groupindex>1</groupindex>
										</link>
										<link>
											<linkclipref>clipitem-419</linkclipref>
											<mediatype>audio</mediatype>
											<trackindex>2</trackindex>
											<clipindex>22</clipindex>
											<groupindex>1</groupindex>
										</link>
										<link>
											<linkclipref>clipitem-443</linkclipref>
											<mediatype>audio</mediatype>
											<trackindex>3</trackindex>
											<clipindex>22</clipindex>
											<groupindex>1</groupindex>
										</link>
										<link>
											<linkclipref>clipitem-467</linkclipref>
											<mediatype>audio</mediatype>
											<trackindex>4</trackindex>
											<clipindex>22</clipindex>
											<groupindex>1</groupindex>
										</link>
										<logginginfo>
											<description></description>
											<scene>3-WILD-MOTHER</scene>
											<shottake></shottake>
											<lognote></lognote>
											<good></good>
											<originalvideofilename></originalvideofilename>
											<originalaudiofilename></originalaudiofilename>
										</logginginfo>
										<colorinfo>
											<lut></lut>
											<lut1></lut1>
											<asc_sop></asc_sop>
											<asc_sat></asc_sat>
											<lut2></lut2>
										</colorinfo>
										<labels>
											<label2>Mango</label2>
										</labels>
									</clipitem>
									<clipitem id="clipitem-468" premiereChannelType="mono">
										<masterclipid>masterclip-73</masterclipid>
										<name>3-WILD-MOTHER-4.WAV</name>
										<enabled>TRUE</enabled>
										<duration>975</duration>
										<rate>
											<timebase>25</timebase>
											<ntsc>FALSE</ntsc>
										</rate>
										<start>930100</start>
										<end>931075</end>
										<in>0</in>
										<out>975</out>
										<pproTicksIn>0</pproTicksIn>
										<pproTicksOut>9906624000000</pproTicksOut>
										<file id="file-73"/>
										<sourcetrack>
											<mediatype>audio</mediatype>
											<trackindex>4</trackindex>
										</sourcetrack>
										<link>
											<linkclipref>clipitem-396</linkclipref>
											<mediatype>audio</mediatype>
											<trackindex>1</trackindex>
											<clipindex>23</clipindex>
											<groupindex>1</groupindex>
										</link>
										<link>
											<linkclipref>clipitem-420</linkclipref>
											<mediatype>audio</mediatype>
											<trackindex>2</trackindex>
											<clipindex>23</clipindex>
											<groupindex>1</groupindex>
										</link>
										<link>
											<linkclipref>clipitem-444</linkclipref>
											<mediatype>audio</mediatype>
											<trackindex>3</trackindex>
											<clipindex>23</clipindex>
											<groupindex>1</groupindex>
										</link>
										<link>
											<linkclipref>clipitem-468</linkclipref>
											<mediatype>audio</mediatype>
											<trackindex>4</trackindex>
											<clipindex>23</clipindex>
											<groupindex>1</groupindex>
										</link>
										<link>
											<linkclipref>clipitem-490</linkclipref>
											<mediatype>audio</mediatype>
											<trackindex>5</trackindex>
											<clipindex>21</clipindex>
											<groupindex>1</groupindex>
										</link>
										<link>
											<linkclipref>clipitem-511</linkclipref>
											<mediatype>audio</mediatype>
											<trackindex>6</trackindex>
											<clipindex>21</clipindex>
											<groupindex>1</groupindex>
										</link>
										<logginginfo>
											<description></description>
											<scene>3-WILD-MOTHER</scene>
											<shottake></shottake>
											<lognote></lognote>
											<good></good>
											<originalvideofilename></originalvideofilename>
											<originalaudiofilename></originalaudiofilename>
										</logginginfo>
										<colorinfo>
											<lut></lut>
											<lut1></lut1>
											<asc_sop></asc_sop>
											<asc_sat></asc_sat>
											<lut2></lut2>
										</colorinfo>
										<labels>
											<label2>Mango</label2>
										</labels>
									</clipitem>
									<clipitem id="clipitem-469" premiereChannelType="mono">
										<masterclipid>masterclip-74</masterclipid>
										<name>3-WILD-MOTHER-5.WAV</name>
										<enabled>TRUE</enabled>
										<duration>2875</duration>
										<rate>
											<timebase>25</timebase>
											<ntsc>FALSE</ntsc>
										</rate>
										<start>932150</start>
										<end>935025</end>
										<in>0</in>
										<out>2875</out>
										<pproTicksIn>0</pproTicksIn>
										<pproTicksOut>29211840000000</pproTicksOut>
										<file id="file-74"/>
										<sourcetrack>
											<mediatype>audio</mediatype>
											<trackindex>3</trackindex>
										</sourcetrack>
										<link>
											<linkclipref>clipitem-397</linkclipref>
											<mediatype>audio</mediatype>
											<trackindex>1</trackindex>
											<clipindex>24</clipindex>
											<groupindex>1</groupindex>
										</link>
										<link>
											<linkclipref>clipitem-421</linkclipref>
											<mediatype>audio</mediatype>
											<trackindex>2</trackindex>
											<clipindex>24</clipindex>
											<groupindex>1</groupindex>
										</link>
										<link>
											<linkclipref>clipitem-445</linkclipref>
											<mediatype>audio</mediatype>
											<trackindex>3</trackindex>
											<clipindex>24</clipindex>
											<groupindex>1</groupindex>
										</link>
										<link>
											<linkclipref>clipitem-469</linkclipref>
											<mediatype>audio</mediatype>
											<trackindex>4</trackindex>
											<clipindex>24</clipindex>
											<groupindex>1</groupindex>
										</link>
										<logginginfo>
											<description></description>
											<scene>3-WILD-MOTHER</scene>
											<shottake></shottake>
											<lognote></lognote>
											<good></good>
											<originalvideofilename></originalvideofilename>
											<originalaudiofilename></originalaudiofilename>
										</logginginfo>
										<colorinfo>
											<lut></lut>
											<lut1></lut1>
											<asc_sop></asc_sop>
											<asc_sat></asc_sat>
											<lut2></lut2>
										</colorinfo>
										<labels>
											<label2>Mango</label2>
										</labels>
									</clipitem>
									<enabled>TRUE</enabled>
									<locked>FALSE</locked>
									<outputchannelindex>2</outputchannelindex>
								</track>
								<track TL.SQTrackAudioKeyframeStyle="0" TL.SQTrackShy="0" TL.SQTrackExpandedHeight="25" TL.SQTrackExpanded="0" MZ.TrackTargeted="1" PannerCurrentValue="0.5" PannerIsInverted="true" PannerStartKeyframe="-91445760000000000,0.5,0,0,0,0,0,0" PannerName="Balance" currentExplodedTrackIndex="0" totalExplodedTrackCount="1" premiereTrackType="Stereo">
									<clipitem id="clipitem-470" premiereChannelType="mono">
										<masterclipid>masterclip-65</masterclipid>
										<name>3-01-1.WAV</name>
										<enabled>TRUE</enabled>
										<duration>2600</duration>
										<rate>
											<timebase>25</timebase>
											<ntsc>FALSE</ntsc>
										</rate>
										<start>0</start>
										<end>2600</end>
										<in>0</in>
										<out>2600</out>
										<pproTicksIn>0</pproTicksIn>
										<pproTicksOut>26417664000000</pproTicksOut>
										<file id="file-65"/>
										<sourcetrack>
											<mediatype>audio</mediatype>
											<trackindex>5</trackindex>
										</sourcetrack>
											<marker>
												<comment></comment>
												<name></name>
												<in>567</in>
												<out>-1</out>
												<pproColor>4281828977</pproColor>
											</marker>
											<marker>
												<comment></comment>
												<name></name>
												<in>2396</in>
												<out>-1</out>
												<pproColor>4281740498</pproColor>
											</marker>
										<link>
											<linkclipref>clipitem-374</linkclipref>
											<mediatype>audio</mediatype>
											<trackindex>1</trackindex>
											<clipindex>1</clipindex>
											<groupindex>1</groupindex>
										</link>
										<link>
											<linkclipref>clipitem-398</linkclipref>
											<mediatype>audio</mediatype>
											<trackindex>2</trackindex>
											<clipindex>1</clipindex>
											<groupindex>1</groupindex>
										</link>
										<link>
											<linkclipref>clipitem-422</linkclipref>
											<mediatype>audio</mediatype>
											<trackindex>3</trackindex>
											<clipindex>1</clipindex>
											<groupindex>1</groupindex>
										</link>
										<link>
											<linkclipref>clipitem-446</linkclipref>
											<mediatype>audio</mediatype>
											<trackindex>4</trackindex>
											<clipindex>1</clipindex>
											<groupindex>1</groupindex>
										</link>
										<link>
											<linkclipref>clipitem-470</linkclipref>
											<mediatype>audio</mediatype>
											<trackindex>5</trackindex>
											<clipindex>1</clipindex>
											<groupindex>1</groupindex>
										</link>
										<link>
											<linkclipref>clipitem-491</linkclipref>
											<mediatype>audio</mediatype>
											<trackindex>6</trackindex>
											<clipindex>1</clipindex>
											<groupindex>1</groupindex>
										</link>
										<logginginfo>
											<description></description>
											<scene>3-01</scene>
											<shottake></shottake>
											<lognote></lognote>
											<good></good>
											<originalvideofilename></originalvideofilename>
											<originalaudiofilename></originalaudiofilename>
										</logginginfo>
										<colorinfo>
											<lut></lut>
											<lut1></lut1>
											<asc_sop></asc_sop>
											<asc_sat></asc_sat>
											<lut2></lut2>
										</colorinfo>
										<labels>
											<label2>Mango</label2>
										</labels>
									</clipitem>
									<clipitem id="clipitem-471" premiereChannelType="mono">
										<masterclipid>masterclip-66</masterclipid>
										<name>3-01-2.WAV</name>
										<enabled>TRUE</enabled>
										<duration>2650</duration>
										<rate>
											<timebase>25</timebase>
											<ntsc>FALSE</ntsc>
										</rate>
										<start>4675</start>
										<end>7325</end>
										<in>0</in>
										<out>2650</out>
										<pproTicksIn>0</pproTicksIn>
										<pproTicksOut>26925696000000</pproTicksOut>
										<file id="file-66"/>
										<sourcetrack>
											<mediatype>audio</mediatype>
											<trackindex>5</trackindex>
										</sourcetrack>
											<marker>
												<comment></comment>
												<name></name>
												<in>312</in>
												<out>-1</out>
												<pproColor>4281828977</pproColor>
											</marker>
											<marker>
												<comment></comment>
												<name></name>
												<in>2443</in>
												<out>-1</out>
												<pproColor>4281740498</pproColor>
											</marker>
										<link>
											<linkclipref>clipitem-375</linkclipref>
											<mediatype>audio</mediatype>
											<trackindex>1</trackindex>
											<clipindex>2</clipindex>
											<groupindex>1</groupindex>
										</link>
										<link>
											<linkclipref>clipitem-399</linkclipref>
											<mediatype>audio</mediatype>
											<trackindex>2</trackindex>
											<clipindex>2</clipindex>
											<groupindex>1</groupindex>
										</link>
										<link>
											<linkclipref>clipitem-423</linkclipref>
											<mediatype>audio</mediatype>
											<trackindex>3</trackindex>
											<clipindex>2</clipindex>
											<groupindex>1</groupindex>
										</link>
										<link>
											<linkclipref>clipitem-447</linkclipref>
											<mediatype>audio</mediatype>
											<trackindex>4</trackindex>
											<clipindex>2</clipindex>
											<groupindex>1</groupindex>
										</link>
										<link>
											<linkclipref>clipitem-471</linkclipref>
											<mediatype>audio</mediatype>
											<trackindex>5</trackindex>
											<clipindex>2</clipindex>
											<groupindex>1</groupindex>
										</link>
										<link>
											<linkclipref>clipitem-492</linkclipref>
											<mediatype>audio</mediatype>
											<trackindex>6</trackindex>
											<clipindex>2</clipindex>
											<groupindex>1</groupindex>
										</link>
										<logginginfo>
											<description></description>
											<scene>3-01</scene>
											<shottake></shottake>
											<lognote></lognote>
											<good></good>
											<originalvideofilename></originalvideofilename>
											<originalaudiofilename></originalaudiofilename>
										</logginginfo>
										<colorinfo>
											<lut></lut>
											<lut1></lut1>
											<asc_sop></asc_sop>
											<asc_sat></asc_sat>
											<lut2></lut2>
										</colorinfo>
										<labels>
											<label2>Mango</label2>
										</labels>
									</clipitem>
									<clipitem id="clipitem-472" premiereChannelType="mono">
										<masterclipid>masterclip-67</masterclipid>
										<name>3-02-1.WAV</name>
										<enabled>TRUE</enabled>
										<duration>2725</duration>
										<rate>
											<timebase>25</timebase>
											<ntsc>FALSE</ntsc>
										</rate>
										<start>41575</start>
										<end>44300</end>
										<in>0</in>
										<out>2725</out>
										<pproTicksIn>0</pproTicksIn>
										<pproTicksOut>27687744000000</pproTicksOut>
										<file id="file-67"/>
										<sourcetrack>
											<mediatype>audio</mediatype>
											<trackindex>5</trackindex>
										</sourcetrack>
											<marker>
												<comment></comment>
												<name></name>
												<in>556</in>
												<out>-1</out>
												<pproColor>4281828977</pproColor>
											</marker>
											<marker>
												<comment></comment>
												<name></name>
												<in>2558</in>
												<out>-1</out>
												<pproColor>4281740498</pproColor>
											</marker>
										<link>
											<linkclipref>clipitem-376</linkclipref>
											<mediatype>audio</mediatype>
											<trackindex>1</trackindex>
											<clipindex>3</clipindex>
											<groupindex>1</groupindex>
										</link>
										<link>
											<linkclipref>clipitem-400</linkclipref>
											<mediatype>audio</mediatype>
											<trackindex>2</trackindex>
											<clipindex>3</clipindex>
											<groupindex>1</groupindex>
										</link>
										<link>
											<linkclipref>clipitem-424</linkclipref>
											<mediatype>audio</mediatype>
											<trackindex>3</trackindex>
											<clipindex>3</clipindex>
											<groupindex>1</groupindex>
										</link>
										<link>
											<linkclipref>clipitem-448</linkclipref>
											<mediatype>audio</mediatype>
											<trackindex>4</trackindex>
											<clipindex>3</clipindex>
											<groupindex>1</groupindex>
										</link>
										<link>
											<linkclipref>clipitem-472</linkclipref>
											<mediatype>audio</mediatype>
											<trackindex>5</trackindex>
											<clipindex>3</clipindex>
											<groupindex>1</groupindex>
										</link>
										<link>
											<linkclipref>clipitem-493</linkclipref>
											<mediatype>audio</mediatype>
											<trackindex>6</trackindex>
											<clipindex>3</clipindex>
											<groupindex>1</groupindex>
										</link>
										<logginginfo>
											<description></description>
											<scene>3-02</scene>
											<shottake></shottake>
											<lognote></lognote>
											<good></good>
											<originalvideofilename></originalvideofilename>
											<originalaudiofilename></originalaudiofilename>
										</logginginfo>
										<colorinfo>
											<lut></lut>
											<lut1></lut1>
											<asc_sop></asc_sop>
											<asc_sat></asc_sat>
											<lut2></lut2>
										</colorinfo>
										<labels>
											<label2>Mango</label2>
										</labels>
									</clipitem>
									<clipitem id="clipitem-473" premiereChannelType="mono">
										<masterclipid>masterclip-68</masterclipid>
										<name>3-03-1.WAV</name>
										<enabled>TRUE</enabled>
										<duration>2200</duration>
										<rate>
											<timebase>25</timebase>
											<ntsc>FALSE</ntsc>
										</rate>
										<start>73850</start>
										<end>76050</end>
										<in>0</in>
										<out>2200</out>
										<pproTicksIn>0</pproTicksIn>
										<pproTicksOut>22353408000000</pproTicksOut>
										<file id="file-68"/>
										<sourcetrack>
											<mediatype>audio</mediatype>
											<trackindex>5</trackindex>
										</sourcetrack>
											<marker>
												<comment></comment>
												<name></name>
												<in>526</in>
												<out>-1</out>
												<pproColor>4281828977</pproColor>
											</marker>
											<marker>
												<comment></comment>
												<name></name>
												<in>1898</in>
												<out>-1</out>
												<pproColor>4281740498</pproColor>
											</marker>
										<link>
											<linkclipref>clipitem-377</linkclipref>
											<mediatype>audio</mediatype>
											<trackindex>1</trackindex>
											<clipindex>4</clipindex>
											<groupindex>1</groupindex>
										</link>
										<link>
											<linkclipref>clipitem-401</linkclipref>
											<mediatype>audio</mediatype>
											<trackindex>2</trackindex>
											<clipindex>4</clipindex>
											<groupindex>1</groupindex>
										</link>
										<link>
											<linkclipref>clipitem-425</linkclipref>
											<mediatype>audio</mediatype>
											<trackindex>3</trackindex>
											<clipindex>4</clipindex>
											<groupindex>1</groupindex>
										</link>
										<link>
											<linkclipref>clipitem-449</linkclipref>
											<mediatype>audio</mediatype>
											<trackindex>4</trackindex>
											<clipindex>4</clipindex>
											<groupindex>1</groupindex>
										</link>
										<link>
											<linkclipref>clipitem-473</linkclipref>
											<mediatype>audio</mediatype>
											<trackindex>5</trackindex>
											<clipindex>4</clipindex>
											<groupindex>1</groupindex>
										</link>
										<link>
											<linkclipref>clipitem-494</linkclipref>
											<mediatype>audio</mediatype>
											<trackindex>6</trackindex>
											<clipindex>4</clipindex>
											<groupindex>1</groupindex>
										</link>
										<logginginfo>
											<description></description>
											<scene>3-03</scene>
											<shottake></shottake>
											<lognote></lognote>
											<good></good>
											<originalvideofilename></originalvideofilename>
											<originalaudiofilename></originalaudiofilename>
										</logginginfo>
										<colorinfo>
											<lut></lut>
											<lut1></lut1>
											<asc_sop></asc_sop>
											<asc_sat></asc_sat>
											<lut2></lut2>
										</colorinfo>
										<labels>
											<label2>Mango</label2>
										</labels>
									</clipitem>
									<clipitem id="clipitem-474" premiereChannelType="mono">
										<masterclipid>masterclip-69</masterclipid>
										<name>3-ATMOS-1.WAV</name>
										<enabled>TRUE</enabled>
										<duration>2950</duration>
										<rate>
											<timebase>25</timebase>
											<ntsc>FALSE</ntsc>
										</rate>
										<start>112025</start>
										<end>114975</end>
										<in>0</in>
										<out>2950</out>
										<pproTicksIn>0</pproTicksIn>
										<pproTicksOut>29973888000000</pproTicksOut>
										<file id="file-69"/>
										<sourcetrack>
											<mediatype>audio</mediatype>
											<trackindex>5</trackindex>
										</sourcetrack>
										<link>
											<linkclipref>clipitem-378</linkclipref>
											<mediatype>audio</mediatype>
											<trackindex>1</trackindex>
											<clipindex>5</clipindex>
											<groupindex>1</groupindex>
										</link>
										<link>
											<linkclipref>clipitem-402</linkclipref>
											<mediatype>audio</mediatype>
											<trackindex>2</trackindex>
											<clipindex>5</clipindex>
											<groupindex>1</groupindex>
										</link>
										<link>
											<linkclipref>clipitem-426</linkclipref>
											<mediatype>audio</mediatype>
											<trackindex>3</trackindex>
											<clipindex>5</clipindex>
											<groupindex>1</groupindex>
										</link>
										<link>
											<linkclipref>clipitem-450</linkclipref>
											<mediatype>audio</mediatype>
											<trackindex>4</trackindex>
											<clipindex>5</clipindex>
											<groupindex>1</groupindex>
										</link>
										<link>
											<linkclipref>clipitem-474</linkclipref>
											<mediatype>audio</mediatype>
											<trackindex>5</trackindex>
											<clipindex>5</clipindex>
											<groupindex>1</groupindex>
										</link>
										<link>
											<linkclipref>clipitem-495</linkclipref>
											<mediatype>audio</mediatype>
											<trackindex>6</trackindex>
											<clipindex>5</clipindex>
											<groupindex>1</groupindex>
										</link>
										<logginginfo>
											<description></description>
											<scene>3-ATMOS</scene>
											<shottake></shottake>
											<lognote></lognote>
											<good></good>
											<originalvideofilename></originalvideofilename>
											<originalaudiofilename></originalaudiofilename>
										</logginginfo>
										<colorinfo>
											<lut></lut>
											<lut1></lut1>
											<asc_sop></asc_sop>
											<asc_sat></asc_sat>
											<lut2></lut2>
										</colorinfo>
										<labels>
											<label2>Mango</label2>
										</labels>
									</clipitem>
									<clipitem id="clipitem-475" premiereChannelType="mono">
										<masterclipid>masterclip-88</masterclipid>
										<name>ATMOS_CHURCH-1.WAV</name>
										<enabled>TRUE</enabled>
										<duration>2975</duration>
										<rate>
											<timebase>25</timebase>
											<ntsc>FALSE</ntsc>
										</rate>
										<start>253275</start>
										<end>256250</end>
										<in>0</in>
										<out>2975</out>
										<pproTicksIn>0</pproTicksIn>
										<pproTicksOut>30227904000000</pproTicksOut>
										<file id="file-88"/>
										<sourcetrack>
											<mediatype>audio</mediatype>
											<trackindex>5</trackindex>
										</sourcetrack>
										<link>
											<linkclipref>clipitem-379</linkclipref>
											<mediatype>audio</mediatype>
											<trackindex>1</trackindex>
											<clipindex>6</clipindex>
											<groupindex>1</groupindex>
										</link>
										<link>
											<linkclipref>clipitem-403</linkclipref>
											<mediatype>audio</mediatype>
											<trackindex>2</trackindex>
											<clipindex>6</clipindex>
											<groupindex>1</groupindex>
										</link>
										<link>
											<linkclipref>clipitem-427</linkclipref>
											<mediatype>audio</mediatype>
											<trackindex>3</trackindex>
											<clipindex>6</clipindex>
											<groupindex>1</groupindex>
										</link>
										<link>
											<linkclipref>clipitem-451</linkclipref>
											<mediatype>audio</mediatype>
											<trackindex>4</trackindex>
											<clipindex>6</clipindex>
											<groupindex>1</groupindex>
										</link>
										<link>
											<linkclipref>clipitem-475</linkclipref>
											<mediatype>audio</mediatype>
											<trackindex>5</trackindex>
											<clipindex>6</clipindex>
											<groupindex>1</groupindex>
										</link>
										<link>
											<linkclipref>clipitem-496</linkclipref>
											<mediatype>audio</mediatype>
											<trackindex>6</trackindex>
											<clipindex>6</clipindex>
											<groupindex>1</groupindex>
										</link>
										<logginginfo>
											<description></description>
											<scene>ATMOS_CHURCH</scene>
											<shottake></shottake>
											<lognote></lognote>
											<good></good>
											<originalvideofilename></originalvideofilename>
											<originalaudiofilename></originalaudiofilename>
										</logginginfo>
										<colorinfo>
											<lut></lut>
											<lut1></lut1>
											<asc_sop></asc_sop>
											<asc_sat></asc_sat>
											<lut2></lut2>
										</colorinfo>
										<labels>
											<label2>Mango</label2>
										</labels>
									</clipitem>
									<clipitem id="clipitem-476" premiereChannelType="mono">
										<masterclipid>masterclip-79</masterclipid>
										<name>12-01-1.WAV</name>
										<enabled>TRUE</enabled>
										<duration>3200</duration>
										<rate>
											<timebase>25</timebase>
											<ntsc>FALSE</ntsc>
										</rate>
										<start>458975</start>
										<end>462175</end>
										<in>0</in>
										<out>3200</out>
										<pproTicksIn>0</pproTicksIn>
										<pproTicksOut>32514048000000</pproTicksOut>
										<file id="file-79"/>
										<sourcetrack>
											<mediatype>audio</mediatype>
											<trackindex>5</trackindex>
										</sourcetrack>
											<marker>
												<comment></comment>
												<name></name>
												<in>845</in>
												<out>-1</out>
												<pproColor>4281828977</pproColor>
											</marker>
											<marker>
												<comment></comment>
												<name></name>
												<in>3026</in>
												<out>-1</out>
												<pproColor>4281740498</pproColor>
											</marker>
										<link>
											<linkclipref>clipitem-380</linkclipref>
											<mediatype>audio</mediatype>
											<trackindex>1</trackindex>
											<clipindex>7</clipindex>
											<groupindex>1</groupindex>
										</link>
										<link>
											<linkclipref>clipitem-404</linkclipref>
											<mediatype>audio</mediatype>
											<trackindex>2</trackindex>
											<clipindex>7</clipindex>
											<groupindex>1</groupindex>
										</link>
										<link>
											<linkclipref>clipitem-428</linkclipref>
											<mediatype>audio</mediatype>
											<trackindex>3</trackindex>
											<clipindex>7</clipindex>
											<groupindex>1</groupindex>
										</link>
										<link>
											<linkclipref>clipitem-452</linkclipref>
											<mediatype>audio</mediatype>
											<trackindex>4</trackindex>
											<clipindex>7</clipindex>
											<groupindex>1</groupindex>
										</link>
										<link>
											<linkclipref>clipitem-476</linkclipref>
											<mediatype>audio</mediatype>
											<trackindex>5</trackindex>
											<clipindex>7</clipindex>
											<groupindex>1</groupindex>
										</link>
										<link>
											<linkclipref>clipitem-497</linkclipref>
											<mediatype>audio</mediatype>
											<trackindex>6</trackindex>
											<clipindex>7</clipindex>
											<groupindex>1</groupindex>
										</link>
										<link>
											<linkclipref>clipitem-512</linkclipref>
											<mediatype>audio</mediatype>
											<trackindex>7</trackindex>
											<clipindex>1</clipindex>
											<groupindex>1</groupindex>
										</link>
										<link>
											<linkclipref>clipitem-524</linkclipref>
											<mediatype>audio</mediatype>
											<trackindex>8</trackindex>
											<clipindex>1</clipindex>
											<groupindex>1</groupindex>
										</link>
										<logginginfo>
											<description></description>
											<scene>12-01</scene>
											<shottake></shottake>
											<lognote></lognote>
											<good></good>
											<originalvideofilename></originalvideofilename>
											<originalaudiofilename></originalaudiofilename>
										</logginginfo>
										<colorinfo>
											<lut></lut>
											<lut1></lut1>
											<asc_sop></asc_sop>
											<asc_sat></asc_sat>
											<lut2></lut2>
										</colorinfo>
										<labels>
											<label2>Mango</label2>
										</labels>
									</clipitem>
									<clipitem id="clipitem-477" premiereChannelType="mono">
										<masterclipid>masterclip-80</masterclipid>
										<name>12-01-2.WAV</name>
										<enabled>TRUE</enabled>
										<duration>1500</duration>
										<rate>
											<timebase>25</timebase>
											<ntsc>FALSE</ntsc>
										</rate>
										<start>467225</start>
										<end>468725</end>
										<in>0</in>
										<out>1500</out>
										<pproTicksIn>0</pproTicksIn>
										<pproTicksOut>15240960000000</pproTicksOut>
										<file id="file-80"/>
										<sourcetrack>
											<mediatype>audio</mediatype>
											<trackindex>5</trackindex>
										</sourcetrack>
											<marker>
												<comment></comment>
												<name></name>
												<in>726</in>
												<out>-1</out>
											</marker>
										<link>
											<linkclipref>clipitem-381</linkclipref>
											<mediatype>audio</mediatype>
											<trackindex>1</trackindex>
											<clipindex>8</clipindex>
											<groupindex>1</groupindex>
										</link>
										<link>
											<linkclipref>clipitem-405</linkclipref>
											<mediatype>audio</mediatype>
											<trackindex>2</trackindex>
											<clipindex>8</clipindex>
											<groupindex>1</groupindex>
										</link>
										<link>
											<linkclipref>clipitem-429</linkclipref>
											<mediatype>audio</mediatype>
											<trackindex>3</trackindex>
											<clipindex>8</clipindex>
											<groupindex>1</groupindex>
										</link>
										<link>
											<linkclipref>clipitem-453</linkclipref>
											<mediatype>audio</mediatype>
											<trackindex>4</trackindex>
											<clipindex>8</clipindex>
											<groupindex>1</groupindex>
										</link>
										<link>
											<linkclipref>clipitem-477</linkclipref>
											<mediatype>audio</mediatype>
											<trackindex>5</trackindex>
											<clipindex>8</clipindex>
											<groupindex>1</groupindex>
										</link>
										<link>
											<linkclipref>clipitem-498</linkclipref>
											<mediatype>audio</mediatype>
											<trackindex>6</trackindex>
											<clipindex>8</clipindex>
											<groupindex>1</groupindex>
										</link>
										<link>
											<linkclipref>clipitem-513</linkclipref>
											<mediatype>audio</mediatype>
											<trackindex>7</trackindex>
											<clipindex>2</clipindex>
											<groupindex>1</groupindex>
										</link>
										<link>
											<linkclipref>clipitem-525</linkclipref>
											<mediatype>audio</mediatype>
											<trackindex>8</trackindex>
											<clipindex>2</clipindex>
											<groupindex>1</groupindex>
										</link>
										<logginginfo>
											<description></description>
											<scene>12-01</scene>
											<shottake></shottake>
											<lognote></lognote>
											<good></good>
											<originalvideofilename></originalvideofilename>
											<originalaudiofilename></originalaudiofilename>
										</logginginfo>
										<colorinfo>
											<lut></lut>
											<lut1></lut1>
											<asc_sop></asc_sop>
											<asc_sat></asc_sat>
											<lut2></lut2>
										</colorinfo>
										<labels>
											<label2>Mango</label2>
										</labels>
									</clipitem>
									<clipitem id="clipitem-478" premiereChannelType="mono">
										<masterclipid>masterclip-81</masterclipid>
										<name>12-01-3.WAV</name>
										<enabled>TRUE</enabled>
										<duration>3275</duration>
										<rate>
											<timebase>25</timebase>
											<ntsc>FALSE</ntsc>
										</rate>
										<start>469925</start>
										<end>473200</end>
										<in>0</in>
										<out>3275</out>
										<pproTicksIn>0</pproTicksIn>
										<pproTicksOut>33276096000000</pproTicksOut>
										<file id="file-81"/>
										<sourcetrack>
											<mediatype>audio</mediatype>
											<trackindex>5</trackindex>
										</sourcetrack>
										<link>
											<linkclipref>clipitem-382</linkclipref>
											<mediatype>audio</mediatype>
											<trackindex>1</trackindex>
											<clipindex>9</clipindex>
											<groupindex>1</groupindex>
										</link>
										<link>
											<linkclipref>clipitem-406</linkclipref>
											<mediatype>audio</mediatype>
											<trackindex>2</trackindex>
											<clipindex>9</clipindex>
											<groupindex>1</groupindex>
										</link>
										<link>
											<linkclipref>clipitem-430</linkclipref>
											<mediatype>audio</mediatype>
											<trackindex>3</trackindex>
											<clipindex>9</clipindex>
											<groupindex>1</groupindex>
										</link>
										<link>
											<linkclipref>clipitem-454</linkclipref>
											<mediatype>audio</mediatype>
											<trackindex>4</trackindex>
											<clipindex>9</clipindex>
											<groupindex>1</groupindex>
										</link>
										<link>
											<linkclipref>clipitem-478</linkclipref>
											<mediatype>audio</mediatype>
											<trackindex>5</trackindex>
											<clipindex>9</clipindex>
											<groupindex>1</groupindex>
										</link>
										<link>
											<linkclipref>clipitem-499</linkclipref>
											<mediatype>audio</mediatype>
											<trackindex>6</trackindex>
											<clipindex>9</clipindex>
											<groupindex>1</groupindex>
										</link>
										<link>
											<linkclipref>clipitem-514</linkclipref>
											<mediatype>audio</mediatype>
											<trackindex>7</trackindex>
											<clipindex>3</clipindex>
											<groupindex>1</groupindex>
										</link>
										<link>
											<linkclipref>clipitem-526</linkclipref>
											<mediatype>audio</mediatype>
											<trackindex>8</trackindex>
											<clipindex>3</clipindex>
											<groupindex>1</groupindex>
										</link>
										<logginginfo>
											<description></description>
											<scene>12-01</scene>
											<shottake></shottake>
											<lognote></lognote>
											<good></good>
											<originalvideofilename></originalvideofilename>
											<originalaudiofilename></originalaudiofilename>
										</logginginfo>
										<colorinfo>
											<lut></lut>
											<lut1></lut1>
											<asc_sop></asc_sop>
											<asc_sat></asc_sat>
											<lut2></lut2>
										</colorinfo>
										<labels>
											<label2>Mango</label2>
										</labels>
									</clipitem>
									<clipitem id="clipitem-479" premiereChannelType="mono">
										<masterclipid>masterclip-82</masterclipid>
										<name>12-01-4.WAV</name>
										<enabled>TRUE</enabled>
										<duration>3975</duration>
										<rate>
											<timebase>25</timebase>
											<ntsc>FALSE</ntsc>
										</rate>
										<start>474625</start>
										<end>478600</end>
										<in>0</in>
										<out>3975</out>
										<pproTicksIn>0</pproTicksIn>
										<pproTicksOut>40388544000000</pproTicksOut>
										<file id="file-82"/>
										<sourcetrack>
											<mediatype>audio</mediatype>
											<trackindex>5</trackindex>
										</sourcetrack>
										<link>
											<linkclipref>clipitem-383</linkclipref>
											<mediatype>audio</mediatype>
											<trackindex>1</trackindex>
											<clipindex>10</clipindex>
											<groupindex>1</groupindex>
										</link>
										<link>
											<linkclipref>clipitem-407</linkclipref>
											<mediatype>audio</mediatype>
											<trackindex>2</trackindex>
											<clipindex>10</clipindex>
											<groupindex>1</groupindex>
										</link>
										<link>
											<linkclipref>clipitem-431</linkclipref>
											<mediatype>audio</mediatype>
											<trackindex>3</trackindex>
											<clipindex>10</clipindex>
											<groupindex>1</groupindex>
										</link>
										<link>
											<linkclipref>clipitem-455</linkclipref>
											<mediatype>audio</mediatype>
											<trackindex>4</trackindex>
											<clipindex>10</clipindex>
											<groupindex>1</groupindex>
										</link>
										<link>
											<linkclipref>clipitem-479</linkclipref>
											<mediatype>audio</mediatype>
											<trackindex>5</trackindex>
											<clipindex>10</clipindex>
											<groupindex>1</groupindex>
										</link>
										<link>
											<linkclipref>clipitem-500</linkclipref>
											<mediatype>audio</mediatype>
											<trackindex>6</trackindex>
											<clipindex>10</clipindex>
											<groupindex>1</groupindex>
										</link>
										<link>
											<linkclipref>clipitem-515</linkclipref>
											<mediatype>audio</mediatype>
											<trackindex>7</trackindex>
											<clipindex>4</clipindex>
											<groupindex>1</groupindex>
										</link>
										<link>
											<linkclipref>clipitem-527</linkclipref>
											<mediatype>audio</mediatype>
											<trackindex>8</trackindex>
											<clipindex>4</clipindex>
											<groupindex>1</groupindex>
										</link>
										<logginginfo>
											<description></description>
											<scene>12-01</scene>
											<shottake></shottake>
											<lognote></lognote>
											<good></good>
											<originalvideofilename></originalvideofilename>
											<originalaudiofilename></originalaudiofilename>
										</logginginfo>
										<colorinfo>
											<lut></lut>
											<lut1></lut1>
											<asc_sop></asc_sop>
											<asc_sat></asc_sat>
											<lut2></lut2>
										</colorinfo>
										<labels>
											<label2>Mango</label2>
										</labels>
									</clipitem>
									<clipitem id="clipitem-480" premiereChannelType="mono">
										<masterclipid>masterclip-83</masterclipid>
										<name>12-01-5.WAV</name>
										<enabled>TRUE</enabled>
										<duration>3375</duration>
										<rate>
											<timebase>25</timebase>
											<ntsc>FALSE</ntsc>
										</rate>
										<start>481250</start>
										<end>484625</end>
										<in>0</in>
										<out>3375</out>
										<pproTicksIn>0</pproTicksIn>
										<pproTicksOut>34292160000000</pproTicksOut>
										<file id="file-83"/>
										<sourcetrack>
											<mediatype>audio</mediatype>
											<trackindex>5</trackindex>
										</sourcetrack>
										<link>
											<linkclipref>clipitem-384</linkclipref>
											<mediatype>audio</mediatype>
											<trackindex>1</trackindex>
											<clipindex>11</clipindex>
											<groupindex>1</groupindex>
										</link>
										<link>
											<linkclipref>clipitem-408</linkclipref>
											<mediatype>audio</mediatype>
											<trackindex>2</trackindex>
											<clipindex>11</clipindex>
											<groupindex>1</groupindex>
										</link>
										<link>
											<linkclipref>clipitem-432</linkclipref>
											<mediatype>audio</mediatype>
											<trackindex>3</trackindex>
											<clipindex>11</clipindex>
											<groupindex>1</groupindex>
										</link>
										<link>
											<linkclipref>clipitem-456</linkclipref>
											<mediatype>audio</mediatype>
											<trackindex>4</trackindex>
											<clipindex>11</clipindex>
											<groupindex>1</groupindex>
										</link>
										<link>
											<linkclipref>clipitem-480</linkclipref>
											<mediatype>audio</mediatype>
											<trackindex>5</trackindex>
											<clipindex>11</clipindex>
											<groupindex>1</groupindex>
										</link>
										<link>
											<linkclipref>clipitem-501</linkclipref>
											<mediatype>audio</mediatype>
											<trackindex>6</trackindex>
											<clipindex>11</clipindex>
											<groupindex>1</groupindex>
										</link>
										<link>
											<linkclipref>clipitem-516</linkclipref>
											<mediatype>audio</mediatype>
											<trackindex>7</trackindex>
											<clipindex>5</clipindex>
											<groupindex>1</groupindex>
										</link>
										<link>
											<linkclipref>clipitem-528</linkclipref>
											<mediatype>audio</mediatype>
											<trackindex>8</trackindex>
											<clipindex>5</clipindex>
											<groupindex>1</groupindex>
										</link>
										<logginginfo>
											<description></description>
											<scene>12-01</scene>
											<shottake></shottake>
											<lognote></lognote>
											<good></good>
											<originalvideofilename></originalvideofilename>
											<originalaudiofilename></originalaudiofilename>
										</logginginfo>
										<colorinfo>
											<lut></lut>
											<lut1></lut1>
											<asc_sop></asc_sop>
											<asc_sat></asc_sat>
											<lut2></lut2>
										</colorinfo>
										<labels>
											<label2>Mango</label2>
										</labels>
									</clipitem>
									<clipitem id="clipitem-481" premiereChannelType="mono">
										<masterclipid>masterclip-84</masterclipid>
										<name>12-02-1.WAV</name>
										<enabled>TRUE</enabled>
										<duration>2900</duration>
										<rate>
											<timebase>25</timebase>
											<ntsc>FALSE</ntsc>
										</rate>
										<start>509850</start>
										<end>512750</end>
										<in>0</in>
										<out>2900</out>
										<pproTicksIn>0</pproTicksIn>
										<pproTicksOut>29465856000000</pproTicksOut>
										<file id="file-84"/>
										<sourcetrack>
											<mediatype>audio</mediatype>
											<trackindex>5</trackindex>
										</sourcetrack>
										<link>
											<linkclipref>clipitem-385</linkclipref>
											<mediatype>audio</mediatype>
											<trackindex>1</trackindex>
											<clipindex>12</clipindex>
											<groupindex>1</groupindex>
										</link>
										<link>
											<linkclipref>clipitem-409</linkclipref>
											<mediatype>audio</mediatype>
											<trackindex>2</trackindex>
											<clipindex>12</clipindex>
											<groupindex>1</groupindex>
										</link>
										<link>
											<linkclipref>clipitem-433</linkclipref>
											<mediatype>audio</mediatype>
											<trackindex>3</trackindex>
											<clipindex>12</clipindex>
											<groupindex>1</groupindex>
										</link>
										<link>
											<linkclipref>clipitem-457</linkclipref>
											<mediatype>audio</mediatype>
											<trackindex>4</trackindex>
											<clipindex>12</clipindex>
											<groupindex>1</groupindex>
										</link>
										<link>
											<linkclipref>clipitem-481</linkclipref>
											<mediatype>audio</mediatype>
											<trackindex>5</trackindex>
											<clipindex>12</clipindex>
											<groupindex>1</groupindex>
										</link>
										<link>
											<linkclipref>clipitem-502</linkclipref>
											<mediatype>audio</mediatype>
											<trackindex>6</trackindex>
											<clipindex>12</clipindex>
											<groupindex>1</groupindex>
										</link>
										<logginginfo>
											<description></description>
											<scene>12-02</scene>
											<shottake></shottake>
											<lognote></lognote>
											<good></good>
											<originalvideofilename></originalvideofilename>
											<originalaudiofilename></originalaudiofilename>
										</logginginfo>
										<colorinfo>
											<lut></lut>
											<lut1></lut1>
											<asc_sop></asc_sop>
											<asc_sat></asc_sat>
											<lut2></lut2>
										</colorinfo>
										<labels>
											<label2>Mango</label2>
										</labels>
									</clipitem>
									<clipitem id="clipitem-482" premiereChannelType="mono">
										<masterclipid>masterclip-85</masterclipid>
										<name>12-02-2.WAV</name>
										<enabled>TRUE</enabled>
										<duration>2100</duration>
										<rate>
											<timebase>25</timebase>
											<ntsc>FALSE</ntsc>
										</rate>
										<start>513550</start>
										<end>515650</end>
										<in>0</in>
										<out>2100</out>
										<pproTicksIn>0</pproTicksIn>
										<pproTicksOut>21337344000000</pproTicksOut>
										<file id="file-85"/>
										<sourcetrack>
											<mediatype>audio</mediatype>
											<trackindex>5</trackindex>
										</sourcetrack>
										<link>
											<linkclipref>clipitem-386</linkclipref>
											<mediatype>audio</mediatype>
											<trackindex>1</trackindex>
											<clipindex>13</clipindex>
											<groupindex>1</groupindex>
										</link>
										<link>
											<linkclipref>clipitem-410</linkclipref>
											<mediatype>audio</mediatype>
											<trackindex>2</trackindex>
											<clipindex>13</clipindex>
											<groupindex>1</groupindex>
										</link>
										<link>
											<linkclipref>clipitem-434</linkclipref>
											<mediatype>audio</mediatype>
											<trackindex>3</trackindex>
											<clipindex>13</clipindex>
											<groupindex>1</groupindex>
										</link>
										<link>
											<linkclipref>clipitem-458</linkclipref>
											<mediatype>audio</mediatype>
											<trackindex>4</trackindex>
											<clipindex>13</clipindex>
											<groupindex>1</groupindex>
										</link>
										<link>
											<linkclipref>clipitem-482</linkclipref>
											<mediatype>audio</mediatype>
											<trackindex>5</trackindex>
											<clipindex>13</clipindex>
											<groupindex>1</groupindex>
										</link>
										<link>
											<linkclipref>clipitem-503</linkclipref>
											<mediatype>audio</mediatype>
											<trackindex>6</trackindex>
											<clipindex>13</clipindex>
											<groupindex>1</groupindex>
										</link>
										<logginginfo>
											<description></description>
											<scene>12-02</scene>
											<shottake></shottake>
											<lognote></lognote>
											<good></good>
											<originalvideofilename></originalvideofilename>
											<originalaudiofilename></originalaudiofilename>
										</logginginfo>
										<colorinfo>
											<lut></lut>
											<lut1></lut1>
											<asc_sop></asc_sop>
											<asc_sat></asc_sat>
											<lut2></lut2>
										</colorinfo>
										<labels>
											<label2>Mango</label2>
										</labels>
									</clipitem>
									<clipitem id="clipitem-483" premiereChannelType="mono">
										<masterclipid>masterclip-75</masterclipid>
										<name>6-01-1.WAV</name>
										<enabled>TRUE</enabled>
										<duration>4775</duration>
										<rate>
											<timebase>25</timebase>
											<ntsc>FALSE</ntsc>
										</rate>
										<start>769325</start>
										<end>774100</end>
										<in>0</in>
										<out>4775</out>
										<pproTicksIn>0</pproTicksIn>
										<pproTicksOut>48517056000000</pproTicksOut>
										<file id="file-75"/>
										<sourcetrack>
											<mediatype>audio</mediatype>
											<trackindex>5</trackindex>
										</sourcetrack>
										<link>
											<linkclipref>clipitem-387</linkclipref>
											<mediatype>audio</mediatype>
											<trackindex>1</trackindex>
											<clipindex>14</clipindex>
											<groupindex>1</groupindex>
										</link>
										<link>
											<linkclipref>clipitem-411</linkclipref>
											<mediatype>audio</mediatype>
											<trackindex>2</trackindex>
											<clipindex>14</clipindex>
											<groupindex>1</groupindex>
										</link>
										<link>
											<linkclipref>clipitem-435</linkclipref>
											<mediatype>audio</mediatype>
											<trackindex>3</trackindex>
											<clipindex>14</clipindex>
											<groupindex>1</groupindex>
										</link>
										<link>
											<linkclipref>clipitem-459</linkclipref>
											<mediatype>audio</mediatype>
											<trackindex>4</trackindex>
											<clipindex>14</clipindex>
											<groupindex>1</groupindex>
										</link>
										<link>
											<linkclipref>clipitem-483</linkclipref>
											<mediatype>audio</mediatype>
											<trackindex>5</trackindex>
											<clipindex>14</clipindex>
											<groupindex>1</groupindex>
										</link>
										<link>
											<linkclipref>clipitem-504</linkclipref>
											<mediatype>audio</mediatype>
											<trackindex>6</trackindex>
											<clipindex>14</clipindex>
											<groupindex>1</groupindex>
										</link>
										<link>
											<linkclipref>clipitem-517</linkclipref>
											<mediatype>audio</mediatype>
											<trackindex>7</trackindex>
											<clipindex>6</clipindex>
											<groupindex>1</groupindex>
										</link>
										<link>
											<linkclipref>clipitem-529</linkclipref>
											<mediatype>audio</mediatype>
											<trackindex>8</trackindex>
											<clipindex>6</clipindex>
											<groupindex>1</groupindex>
										</link>
										<logginginfo>
											<description></description>
											<scene>6-01</scene>
											<shottake></shottake>
											<lognote></lognote>
											<good></good>
											<originalvideofilename></originalvideofilename>
											<originalaudiofilename></originalaudiofilename>
										</logginginfo>
										<colorinfo>
											<lut></lut>
											<lut1></lut1>
											<asc_sop></asc_sop>
											<asc_sat></asc_sat>
											<lut2></lut2>
										</colorinfo>
										<labels>
											<label2>Mango</label2>
										</labels>
									</clipitem>
									<clipitem id="clipitem-484" premiereChannelType="mono">
										<masterclipid>masterclip-76</masterclipid>
										<name>6-01-2.WAV</name>
										<enabled>TRUE</enabled>
										<duration>4175</duration>
										<rate>
											<timebase>25</timebase>
											<ntsc>FALSE</ntsc>
										</rate>
										<start>791700</start>
										<end>795875</end>
										<in>0</in>
										<out>4175</out>
										<pproTicksIn>0</pproTicksIn>
										<pproTicksOut>42420672000000</pproTicksOut>
										<file id="file-76"/>
										<sourcetrack>
											<mediatype>audio</mediatype>
											<trackindex>5</trackindex>
										</sourcetrack>
										<link>
											<linkclipref>clipitem-388</linkclipref>
											<mediatype>audio</mediatype>
											<trackindex>1</trackindex>
											<clipindex>15</clipindex>
											<groupindex>1</groupindex>
										</link>
										<link>
											<linkclipref>clipitem-412</linkclipref>
											<mediatype>audio</mediatype>
											<trackindex>2</trackindex>
											<clipindex>15</clipindex>
											<groupindex>1</groupindex>
										</link>
										<link>
											<linkclipref>clipitem-436</linkclipref>
											<mediatype>audio</mediatype>
											<trackindex>3</trackindex>
											<clipindex>15</clipindex>
											<groupindex>1</groupindex>
										</link>
										<link>
											<linkclipref>clipitem-460</linkclipref>
											<mediatype>audio</mediatype>
											<trackindex>4</trackindex>
											<clipindex>15</clipindex>
											<groupindex>1</groupindex>
										</link>
										<link>
											<linkclipref>clipitem-484</linkclipref>
											<mediatype>audio</mediatype>
											<trackindex>5</trackindex>
											<clipindex>15</clipindex>
											<groupindex>1</groupindex>
										</link>
										<link>
											<linkclipref>clipitem-505</linkclipref>
											<mediatype>audio</mediatype>
											<trackindex>6</trackindex>
											<clipindex>15</clipindex>
											<groupindex>1</groupindex>
										</link>
										<link>
											<linkclipref>clipitem-518</linkclipref>
											<mediatype>audio</mediatype>
											<trackindex>7</trackindex>
											<clipindex>7</clipindex>
											<groupindex>1</groupindex>
										</link>
										<link>
											<linkclipref>clipitem-530</linkclipref>
											<mediatype>audio</mediatype>
											<trackindex>8</trackindex>
											<clipindex>7</clipindex>
											<groupindex>1</groupindex>
										</link>
										<logginginfo>
											<description></description>
											<scene>6-01</scene>
											<shottake></shottake>
											<lognote></lognote>
											<good></good>
											<originalvideofilename></originalvideofilename>
											<originalaudiofilename></originalaudiofilename>
										</logginginfo>
										<colorinfo>
											<lut></lut>
											<lut1></lut1>
											<asc_sop></asc_sop>
											<asc_sat></asc_sat>
											<lut2></lut2>
										</colorinfo>
										<labels>
											<label2>Mango</label2>
										</labels>
									</clipitem>
									<clipitem id="clipitem-485" premiereChannelType="mono">
										<masterclipid>masterclip-77</masterclipid>
										<name>6-01-3.WAV</name>
										<enabled>TRUE</enabled>
										<duration>4400</duration>
										<rate>
											<timebase>25</timebase>
											<ntsc>FALSE</ntsc>
										</rate>
										<start>801425</start>
										<end>805825</end>
										<in>0</in>
										<out>4400</out>
										<pproTicksIn>0</pproTicksIn>
										<pproTicksOut>44706816000000</pproTicksOut>
										<file id="file-77"/>
										<sourcetrack>
											<mediatype>audio</mediatype>
											<trackindex>5</trackindex>
										</sourcetrack>
										<link>
											<linkclipref>clipitem-389</linkclipref>
											<mediatype>audio</mediatype>
											<trackindex>1</trackindex>
											<clipindex>16</clipindex>
											<groupindex>1</groupindex>
										</link>
										<link>
											<linkclipref>clipitem-413</linkclipref>
											<mediatype>audio</mediatype>
											<trackindex>2</trackindex>
											<clipindex>16</clipindex>
											<groupindex>1</groupindex>
										</link>
										<link>
											<linkclipref>clipitem-437</linkclipref>
											<mediatype>audio</mediatype>
											<trackindex>3</trackindex>
											<clipindex>16</clipindex>
											<groupindex>1</groupindex>
										</link>
										<link>
											<linkclipref>clipitem-461</linkclipref>
											<mediatype>audio</mediatype>
											<trackindex>4</trackindex>
											<clipindex>16</clipindex>
											<groupindex>1</groupindex>
										</link>
										<link>
											<linkclipref>clipitem-485</linkclipref>
											<mediatype>audio</mediatype>
											<trackindex>5</trackindex>
											<clipindex>16</clipindex>
											<groupindex>1</groupindex>
										</link>
										<link>
											<linkclipref>clipitem-506</linkclipref>
											<mediatype>audio</mediatype>
											<trackindex>6</trackindex>
											<clipindex>16</clipindex>
											<groupindex>1</groupindex>
										</link>
										<link>
											<linkclipref>clipitem-519</linkclipref>
											<mediatype>audio</mediatype>
											<trackindex>7</trackindex>
											<clipindex>8</clipindex>
											<groupindex>1</groupindex>
										</link>
										<link>
											<linkclipref>clipitem-531</linkclipref>
											<mediatype>audio</mediatype>
											<trackindex>8</trackindex>
											<clipindex>8</clipindex>
											<groupindex>1</groupindex>
										</link>
										<logginginfo>
											<description></description>
											<scene>6-01</scene>
											<shottake></shottake>
											<lognote></lognote>
											<good></good>
											<originalvideofilename></originalvideofilename>
											<originalaudiofilename></originalaudiofilename>
										</logginginfo>
										<colorinfo>
											<lut></lut>
											<lut1></lut1>
											<asc_sop></asc_sop>
											<asc_sat></asc_sat>
											<lut2></lut2>
										</colorinfo>
										<labels>
											<label2>Mango</label2>
										</labels>
									</clipitem>
									<clipitem id="clipitem-486" premiereChannelType="mono">
										<masterclipid>masterclip-78</masterclipid>
										<name>6-01-4.WAV</name>
										<enabled>TRUE</enabled>
										<duration>5275</duration>
										<rate>
											<timebase>25</timebase>
											<ntsc>FALSE</ntsc>
										</rate>
										<start>811475</start>
										<end>816750</end>
										<in>0</in>
										<out>5275</out>
										<pproTicksIn>0</pproTicksIn>
										<pproTicksOut>53597376000000</pproTicksOut>
										<file id="file-78"/>
										<sourcetrack>
											<mediatype>audio</mediatype>
											<trackindex>5</trackindex>
										</sourcetrack>
										<link>
											<linkclipref>clipitem-390</linkclipref>
											<mediatype>audio</mediatype>
											<trackindex>1</trackindex>
											<clipindex>17</clipindex>
											<groupindex>1</groupindex>
										</link>
										<link>
											<linkclipref>clipitem-414</linkclipref>
											<mediatype>audio</mediatype>
											<trackindex>2</trackindex>
											<clipindex>17</clipindex>
											<groupindex>1</groupindex>
										</link>
										<link>
											<linkclipref>clipitem-438</linkclipref>
											<mediatype>audio</mediatype>
											<trackindex>3</trackindex>
											<clipindex>17</clipindex>
											<groupindex>1</groupindex>
										</link>
										<link>
											<linkclipref>clipitem-462</linkclipref>
											<mediatype>audio</mediatype>
											<trackindex>4</trackindex>
											<clipindex>17</clipindex>
											<groupindex>1</groupindex>
										</link>
										<link>
											<linkclipref>clipitem-486</linkclipref>
											<mediatype>audio</mediatype>
											<trackindex>5</trackindex>
											<clipindex>17</clipindex>
											<groupindex>1</groupindex>
										</link>
										<link>
											<linkclipref>clipitem-507</linkclipref>
											<mediatype>audio</mediatype>
											<trackindex>6</trackindex>
											<clipindex>17</clipindex>
											<groupindex>1</groupindex>
										</link>
										<link>
											<linkclipref>clipitem-520</linkclipref>
											<mediatype>audio</mediatype>
											<trackindex>7</trackindex>
											<clipindex>9</clipindex>
											<groupindex>1</groupindex>
										</link>
										<link>
											<linkclipref>clipitem-532</linkclipref>
											<mediatype>audio</mediatype>
											<trackindex>8</trackindex>
											<clipindex>9</clipindex>
											<groupindex>1</groupindex>
										</link>
										<logginginfo>
											<description></description>
											<scene>6-01</scene>
											<shottake></shottake>
											<lognote></lognote>
											<good></good>
											<originalvideofilename></originalvideofilename>
											<originalaudiofilename></originalaudiofilename>
										</logginginfo>
										<colorinfo>
											<lut></lut>
											<lut1></lut1>
											<asc_sop></asc_sop>
											<asc_sat></asc_sat>
											<lut2></lut2>
										</colorinfo>
										<labels>
											<label2>Mango</label2>
										</labels>
									</clipitem>
									<clipitem id="clipitem-487" premiereChannelType="mono">
										<masterclipid>masterclip-86</masterclipid>
										<name>15-01-1.WAV</name>
										<enabled>TRUE</enabled>
										<duration>3575</duration>
										<rate>
											<timebase>25</timebase>
											<ntsc>FALSE</ntsc>
										</rate>
										<start>910025</start>
										<end>913600</end>
										<in>0</in>
										<out>3575</out>
										<pproTicksIn>0</pproTicksIn>
										<pproTicksOut>36324288000000</pproTicksOut>
										<file id="file-86"/>
										<sourcetrack>
											<mediatype>audio</mediatype>
											<trackindex>5</trackindex>
										</sourcetrack>
										<link>
											<linkclipref>clipitem-391</linkclipref>
											<mediatype>audio</mediatype>
											<trackindex>1</trackindex>
											<clipindex>18</clipindex>
											<groupindex>1</groupindex>
										</link>
										<link>
											<linkclipref>clipitem-415</linkclipref>
											<mediatype>audio</mediatype>
											<trackindex>2</trackindex>
											<clipindex>18</clipindex>
											<groupindex>1</groupindex>
										</link>
										<link>
											<linkclipref>clipitem-439</linkclipref>
											<mediatype>audio</mediatype>
											<trackindex>3</trackindex>
											<clipindex>18</clipindex>
											<groupindex>1</groupindex>
										</link>
										<link>
											<linkclipref>clipitem-463</linkclipref>
											<mediatype>audio</mediatype>
											<trackindex>4</trackindex>
											<clipindex>18</clipindex>
											<groupindex>1</groupindex>
										</link>
										<link>
											<linkclipref>clipitem-487</linkclipref>
											<mediatype>audio</mediatype>
											<trackindex>5</trackindex>
											<clipindex>18</clipindex>
											<groupindex>1</groupindex>
										</link>
										<link>
											<linkclipref>clipitem-508</linkclipref>
											<mediatype>audio</mediatype>
											<trackindex>6</trackindex>
											<clipindex>18</clipindex>
											<groupindex>1</groupindex>
										</link>
										<link>
											<linkclipref>clipitem-521</linkclipref>
											<mediatype>audio</mediatype>
											<trackindex>7</trackindex>
											<clipindex>10</clipindex>
											<groupindex>1</groupindex>
										</link>
										<link>
											<linkclipref>clipitem-533</linkclipref>
											<mediatype>audio</mediatype>
											<trackindex>8</trackindex>
											<clipindex>10</clipindex>
											<groupindex>1</groupindex>
										</link>
										<logginginfo>
											<description></description>
											<scene>15-01</scene>
											<shottake></shottake>
											<lognote></lognote>
											<good></good>
											<originalvideofilename></originalvideofilename>
											<originalaudiofilename></originalaudiofilename>
										</logginginfo>
										<colorinfo>
											<lut></lut>
											<lut1></lut1>
											<asc_sop></asc_sop>
											<asc_sat></asc_sat>
											<lut2></lut2>
										</colorinfo>
										<labels>
											<label2>Mango</label2>
										</labels>
									</clipitem>
									<clipitem id="clipitem-488" premiereChannelType="mono">
										<masterclipid>masterclip-87</masterclipid>
										<name>15-01-2.WAV</name>
										<enabled>TRUE</enabled>
										<duration>4100</duration>
										<rate>
											<timebase>25</timebase>
											<ntsc>FALSE</ntsc>
										</rate>
										<start>916775</start>
										<end>920875</end>
										<in>0</in>
										<out>4100</out>
										<pproTicksIn>0</pproTicksIn>
										<pproTicksOut>41658624000000</pproTicksOut>
										<file id="file-87"/>
										<sourcetrack>
											<mediatype>audio</mediatype>
											<trackindex>5</trackindex>
										</sourcetrack>
										<link>
											<linkclipref>clipitem-392</linkclipref>
											<mediatype>audio</mediatype>
											<trackindex>1</trackindex>
											<clipindex>19</clipindex>
											<groupindex>1</groupindex>
										</link>
										<link>
											<linkclipref>clipitem-416</linkclipref>
											<mediatype>audio</mediatype>
											<trackindex>2</trackindex>
											<clipindex>19</clipindex>
											<groupindex>1</groupindex>
										</link>
										<link>
											<linkclipref>clipitem-440</linkclipref>
											<mediatype>audio</mediatype>
											<trackindex>3</trackindex>
											<clipindex>19</clipindex>
											<groupindex>1</groupindex>
										</link>
										<link>
											<linkclipref>clipitem-464</linkclipref>
											<mediatype>audio</mediatype>
											<trackindex>4</trackindex>
											<clipindex>19</clipindex>
											<groupindex>1</groupindex>
										</link>
										<link>
											<linkclipref>clipitem-488</linkclipref>
											<mediatype>audio</mediatype>
											<trackindex>5</trackindex>
											<clipindex>19</clipindex>
											<groupindex>1</groupindex>
										</link>
										<link>
											<linkclipref>clipitem-509</linkclipref>
											<mediatype>audio</mediatype>
											<trackindex>6</trackindex>
											<clipindex>19</clipindex>
											<groupindex>1</groupindex>
										</link>
										<link>
											<linkclipref>clipitem-522</linkclipref>
											<mediatype>audio</mediatype>
											<trackindex>7</trackindex>
											<clipindex>11</clipindex>
											<groupindex>1</groupindex>
										</link>
										<link>
											<linkclipref>clipitem-534</linkclipref>
											<mediatype>audio</mediatype>
											<trackindex>8</trackindex>
											<clipindex>11</clipindex>
											<groupindex>1</groupindex>
										</link>
										<logginginfo>
											<description></description>
											<scene>15-01</scene>
											<shottake></shottake>
											<lognote></lognote>
											<good></good>
											<originalvideofilename></originalvideofilename>
											<originalaudiofilename></originalaudiofilename>
										</logginginfo>
										<colorinfo>
											<lut></lut>
											<lut1></lut1>
											<asc_sop></asc_sop>
											<asc_sat></asc_sat>
											<lut2></lut2>
										</colorinfo>
										<labels>
											<label2>Mango</label2>
										</labels>
									</clipitem>
									<clipitem id="clipitem-489" premiereChannelType="mono">
										<masterclipid>masterclip-71</masterclipid>
										<name>3-WILD-MOTHER-1.WAV</name>
										<enabled>TRUE</enabled>
										<duration>2375</duration>
										<rate>
											<timebase>25</timebase>
											<ntsc>FALSE</ntsc>
										</rate>
										<start>923950</start>
										<end>926325</end>
										<in>0</in>
										<out>2375</out>
										<pproTicksIn>0</pproTicksIn>
										<pproTicksOut>24131520000000</pproTicksOut>
										<file id="file-71"/>
										<sourcetrack>
											<mediatype>audio</mediatype>
											<trackindex>5</trackindex>
										</sourcetrack>
										<link>
											<linkclipref>clipitem-393</linkclipref>
											<mediatype>audio</mediatype>
											<trackindex>1</trackindex>
											<clipindex>20</clipindex>
											<groupindex>1</groupindex>
										</link>
										<link>
											<linkclipref>clipitem-417</linkclipref>
											<mediatype>audio</mediatype>
											<trackindex>2</trackindex>
											<clipindex>20</clipindex>
											<groupindex>1</groupindex>
										</link>
										<link>
											<linkclipref>clipitem-441</linkclipref>
											<mediatype>audio</mediatype>
											<trackindex>3</trackindex>
											<clipindex>20</clipindex>
											<groupindex>1</groupindex>
										</link>
										<link>
											<linkclipref>clipitem-465</linkclipref>
											<mediatype>audio</mediatype>
											<trackindex>4</trackindex>
											<clipindex>20</clipindex>
											<groupindex>1</groupindex>
										</link>
										<link>
											<linkclipref>clipitem-489</linkclipref>
											<mediatype>audio</mediatype>
											<trackindex>5</trackindex>
											<clipindex>20</clipindex>
											<groupindex>1</groupindex>
										</link>
										<link>
											<linkclipref>clipitem-510</linkclipref>
											<mediatype>audio</mediatype>
											<trackindex>6</trackindex>
											<clipindex>20</clipindex>
											<groupindex>1</groupindex>
										</link>
										<link>
											<linkclipref>clipitem-523</linkclipref>
											<mediatype>audio</mediatype>
											<trackindex>7</trackindex>
											<clipindex>12</clipindex>
											<groupindex>1</groupindex>
										</link>
										<link>
											<linkclipref>clipitem-535</linkclipref>
											<mediatype>audio</mediatype>
											<trackindex>8</trackindex>
											<clipindex>12</clipindex>
											<groupindex>1</groupindex>
										</link>
										<logginginfo>
											<description></description>
											<scene>3-WILD-MOTHER</scene>
											<shottake></shottake>
											<lognote></lognote>
											<good></good>
											<originalvideofilename></originalvideofilename>
											<originalaudiofilename></originalaudiofilename>
										</logginginfo>
										<colorinfo>
											<lut></lut>
											<lut1></lut1>
											<asc_sop></asc_sop>
											<asc_sat></asc_sat>
											<lut2></lut2>
										</colorinfo>
										<labels>
											<label2>Mango</label2>
										</labels>
									</clipitem>
									<clipitem id="clipitem-490" premiereChannelType="mono">
										<masterclipid>masterclip-73</masterclipid>
										<name>3-WILD-MOTHER-4.WAV</name>
										<enabled>TRUE</enabled>
										<duration>975</duration>
										<rate>
											<timebase>25</timebase>
											<ntsc>FALSE</ntsc>
										</rate>
										<start>930100</start>
										<end>931075</end>
										<in>0</in>
										<out>975</out>
										<pproTicksIn>0</pproTicksIn>
										<pproTicksOut>9906624000000</pproTicksOut>
										<file id="file-73"/>
										<sourcetrack>
											<mediatype>audio</mediatype>
											<trackindex>5</trackindex>
										</sourcetrack>
										<link>
											<linkclipref>clipitem-396</linkclipref>
											<mediatype>audio</mediatype>
											<trackindex>1</trackindex>
											<clipindex>23</clipindex>
											<groupindex>1</groupindex>
										</link>
										<link>
											<linkclipref>clipitem-420</linkclipref>
											<mediatype>audio</mediatype>
											<trackindex>2</trackindex>
											<clipindex>23</clipindex>
											<groupindex>1</groupindex>
										</link>
										<link>
											<linkclipref>clipitem-444</linkclipref>
											<mediatype>audio</mediatype>
											<trackindex>3</trackindex>
											<clipindex>23</clipindex>
											<groupindex>1</groupindex>
										</link>
										<link>
											<linkclipref>clipitem-468</linkclipref>
											<mediatype>audio</mediatype>
											<trackindex>4</trackindex>
											<clipindex>23</clipindex>
											<groupindex>1</groupindex>
										</link>
										<link>
											<linkclipref>clipitem-490</linkclipref>
											<mediatype>audio</mediatype>
											<trackindex>5</trackindex>
											<clipindex>21</clipindex>
											<groupindex>1</groupindex>
										</link>
										<link>
											<linkclipref>clipitem-511</linkclipref>
											<mediatype>audio</mediatype>
											<trackindex>6</trackindex>
											<clipindex>21</clipindex>
											<groupindex>1</groupindex>
										</link>
										<logginginfo>
											<description></description>
											<scene>3-WILD-MOTHER</scene>
											<shottake></shottake>
											<lognote></lognote>
											<good></good>
											<originalvideofilename></originalvideofilename>
											<originalaudiofilename></originalaudiofilename>
										</logginginfo>
										<colorinfo>
											<lut></lut>
											<lut1></lut1>
											<asc_sop></asc_sop>
											<asc_sat></asc_sat>
											<lut2></lut2>
										</colorinfo>
										<labels>
											<label2>Mango</label2>
										</labels>
									</clipitem>
									<enabled>TRUE</enabled>
									<locked>FALSE</locked>
									<outputchannelindex>1</outputchannelindex>
								</track>
								<track TL.SQTrackAudioKeyframeStyle="0" TL.SQTrackShy="0" TL.SQTrackExpandedHeight="25" TL.SQTrackExpanded="0" MZ.TrackTargeted="1" PannerCurrentValue="0.5" PannerIsInverted="true" PannerStartKeyframe="-91445760000000000,0.5,0,0,0,0,0,0" PannerName="Balance" currentExplodedTrackIndex="0" totalExplodedTrackCount="1" premiereTrackType="Stereo">
									<clipitem id="clipitem-491" premiereChannelType="mono">
										<masterclipid>masterclip-65</masterclipid>
										<name>3-01-1.WAV</name>
										<enabled>TRUE</enabled>
										<duration>2600</duration>
										<rate>
											<timebase>25</timebase>
											<ntsc>FALSE</ntsc>
										</rate>
										<start>0</start>
										<end>2600</end>
										<in>0</in>
										<out>2600</out>
										<pproTicksIn>0</pproTicksIn>
										<pproTicksOut>26417664000000</pproTicksOut>
										<file id="file-65"/>
										<sourcetrack>
											<mediatype>audio</mediatype>
											<trackindex>6</trackindex>
										</sourcetrack>
											<marker>
												<comment></comment>
												<name></name>
												<in>567</in>
												<out>-1</out>
												<pproColor>4281828977</pproColor>
											</marker>
											<marker>
												<comment></comment>
												<name></name>
												<in>2396</in>
												<out>-1</out>
												<pproColor>4281740498</pproColor>
											</marker>
										<link>
											<linkclipref>clipitem-374</linkclipref>
											<mediatype>audio</mediatype>
											<trackindex>1</trackindex>
											<clipindex>1</clipindex>
											<groupindex>1</groupindex>
										</link>
										<link>
											<linkclipref>clipitem-398</linkclipref>
											<mediatype>audio</mediatype>
											<trackindex>2</trackindex>
											<clipindex>1</clipindex>
											<groupindex>1</groupindex>
										</link>
										<link>
											<linkclipref>clipitem-422</linkclipref>
											<mediatype>audio</mediatype>
											<trackindex>3</trackindex>
											<clipindex>1</clipindex>
											<groupindex>1</groupindex>
										</link>
										<link>
											<linkclipref>clipitem-446</linkclipref>
											<mediatype>audio</mediatype>
											<trackindex>4</trackindex>
											<clipindex>1</clipindex>
											<groupindex>1</groupindex>
										</link>
										<link>
											<linkclipref>clipitem-470</linkclipref>
											<mediatype>audio</mediatype>
											<trackindex>5</trackindex>
											<clipindex>1</clipindex>
											<groupindex>1</groupindex>
										</link>
										<link>
											<linkclipref>clipitem-491</linkclipref>
											<mediatype>audio</mediatype>
											<trackindex>6</trackindex>
											<clipindex>1</clipindex>
											<groupindex>1</groupindex>
										</link>
										<logginginfo>
											<description></description>
											<scene>3-01</scene>
											<shottake></shottake>
											<lognote></lognote>
											<good></good>
											<originalvideofilename></originalvideofilename>
											<originalaudiofilename></originalaudiofilename>
										</logginginfo>
										<colorinfo>
											<lut></lut>
											<lut1></lut1>
											<asc_sop></asc_sop>
											<asc_sat></asc_sat>
											<lut2></lut2>
										</colorinfo>
										<labels>
											<label2>Mango</label2>
										</labels>
									</clipitem>
									<clipitem id="clipitem-492" premiereChannelType="mono">
										<masterclipid>masterclip-66</masterclipid>
										<name>3-01-2.WAV</name>
										<enabled>TRUE</enabled>
										<duration>2650</duration>
										<rate>
											<timebase>25</timebase>
											<ntsc>FALSE</ntsc>
										</rate>
										<start>4675</start>
										<end>7325</end>
										<in>0</in>
										<out>2650</out>
										<pproTicksIn>0</pproTicksIn>
										<pproTicksOut>26925696000000</pproTicksOut>
										<file id="file-66"/>
										<sourcetrack>
											<mediatype>audio</mediatype>
											<trackindex>6</trackindex>
										</sourcetrack>
											<marker>
												<comment></comment>
												<name></name>
												<in>312</in>
												<out>-1</out>
												<pproColor>4281828977</pproColor>
											</marker>
											<marker>
												<comment></comment>
												<name></name>
												<in>2443</in>
												<out>-1</out>
												<pproColor>4281740498</pproColor>
											</marker>
										<link>
											<linkclipref>clipitem-375</linkclipref>
											<mediatype>audio</mediatype>
											<trackindex>1</trackindex>
											<clipindex>2</clipindex>
											<groupindex>1</groupindex>
										</link>
										<link>
											<linkclipref>clipitem-399</linkclipref>
											<mediatype>audio</mediatype>
											<trackindex>2</trackindex>
											<clipindex>2</clipindex>
											<groupindex>1</groupindex>
										</link>
										<link>
											<linkclipref>clipitem-423</linkclipref>
											<mediatype>audio</mediatype>
											<trackindex>3</trackindex>
											<clipindex>2</clipindex>
											<groupindex>1</groupindex>
										</link>
										<link>
											<linkclipref>clipitem-447</linkclipref>
											<mediatype>audio</mediatype>
											<trackindex>4</trackindex>
											<clipindex>2</clipindex>
											<groupindex>1</groupindex>
										</link>
										<link>
											<linkclipref>clipitem-471</linkclipref>
											<mediatype>audio</mediatype>
											<trackindex>5</trackindex>
											<clipindex>2</clipindex>
											<groupindex>1</groupindex>
										</link>
										<link>
											<linkclipref>clipitem-492</linkclipref>
											<mediatype>audio</mediatype>
											<trackindex>6</trackindex>
											<clipindex>2</clipindex>
											<groupindex>1</groupindex>
										</link>
										<logginginfo>
											<description></description>
											<scene>3-01</scene>
											<shottake></shottake>
											<lognote></lognote>
											<good></good>
											<originalvideofilename></originalvideofilename>
											<originalaudiofilename></originalaudiofilename>
										</logginginfo>
										<colorinfo>
											<lut></lut>
											<lut1></lut1>
											<asc_sop></asc_sop>
											<asc_sat></asc_sat>
											<lut2></lut2>
										</colorinfo>
										<labels>
											<label2>Mango</label2>
										</labels>
									</clipitem>
									<clipitem id="clipitem-493" premiereChannelType="mono">
										<masterclipid>masterclip-67</masterclipid>
										<name>3-02-1.WAV</name>
										<enabled>TRUE</enabled>
										<duration>2725</duration>
										<rate>
											<timebase>25</timebase>
											<ntsc>FALSE</ntsc>
										</rate>
										<start>41575</start>
										<end>44300</end>
										<in>0</in>
										<out>2725</out>
										<pproTicksIn>0</pproTicksIn>
										<pproTicksOut>27687744000000</pproTicksOut>
										<file id="file-67"/>
										<sourcetrack>
											<mediatype>audio</mediatype>
											<trackindex>6</trackindex>
										</sourcetrack>
											<marker>
												<comment></comment>
												<name></name>
												<in>556</in>
												<out>-1</out>
												<pproColor>4281828977</pproColor>
											</marker>
											<marker>
												<comment></comment>
												<name></name>
												<in>2558</in>
												<out>-1</out>
												<pproColor>4281740498</pproColor>
											</marker>
										<link>
											<linkclipref>clipitem-376</linkclipref>
											<mediatype>audio</mediatype>
											<trackindex>1</trackindex>
											<clipindex>3</clipindex>
											<groupindex>1</groupindex>
										</link>
										<link>
											<linkclipref>clipitem-400</linkclipref>
											<mediatype>audio</mediatype>
											<trackindex>2</trackindex>
											<clipindex>3</clipindex>
											<groupindex>1</groupindex>
										</link>
										<link>
											<linkclipref>clipitem-424</linkclipref>
											<mediatype>audio</mediatype>
											<trackindex>3</trackindex>
											<clipindex>3</clipindex>
											<groupindex>1</groupindex>
										</link>
										<link>
											<linkclipref>clipitem-448</linkclipref>
											<mediatype>audio</mediatype>
											<trackindex>4</trackindex>
											<clipindex>3</clipindex>
											<groupindex>1</groupindex>
										</link>
										<link>
											<linkclipref>clipitem-472</linkclipref>
											<mediatype>audio</mediatype>
											<trackindex>5</trackindex>
											<clipindex>3</clipindex>
											<groupindex>1</groupindex>
										</link>
										<link>
											<linkclipref>clipitem-493</linkclipref>
											<mediatype>audio</mediatype>
											<trackindex>6</trackindex>
											<clipindex>3</clipindex>
											<groupindex>1</groupindex>
										</link>
										<logginginfo>
											<description></description>
											<scene>3-02</scene>
											<shottake></shottake>
											<lognote></lognote>
											<good></good>
											<originalvideofilename></originalvideofilename>
											<originalaudiofilename></originalaudiofilename>
										</logginginfo>
										<colorinfo>
											<lut></lut>
											<lut1></lut1>
											<asc_sop></asc_sop>
											<asc_sat></asc_sat>
											<lut2></lut2>
										</colorinfo>
										<labels>
											<label2>Mango</label2>
										</labels>
									</clipitem>
									<clipitem id="clipitem-494" premiereChannelType="mono">
										<masterclipid>masterclip-68</masterclipid>
										<name>3-03-1.WAV</name>
										<enabled>TRUE</enabled>
										<duration>2200</duration>
										<rate>
											<timebase>25</timebase>
											<ntsc>FALSE</ntsc>
										</rate>
										<start>73850</start>
										<end>76050</end>
										<in>0</in>
										<out>2200</out>
										<pproTicksIn>0</pproTicksIn>
										<pproTicksOut>22353408000000</pproTicksOut>
										<file id="file-68"/>
										<sourcetrack>
											<mediatype>audio</mediatype>
											<trackindex>6</trackindex>
										</sourcetrack>
											<marker>
												<comment></comment>
												<name></name>
												<in>526</in>
												<out>-1</out>
												<pproColor>4281828977</pproColor>
											</marker>
											<marker>
												<comment></comment>
												<name></name>
												<in>1898</in>
												<out>-1</out>
												<pproColor>4281740498</pproColor>
											</marker>
										<link>
											<linkclipref>clipitem-377</linkclipref>
											<mediatype>audio</mediatype>
											<trackindex>1</trackindex>
											<clipindex>4</clipindex>
											<groupindex>1</groupindex>
										</link>
										<link>
											<linkclipref>clipitem-401</linkclipref>
											<mediatype>audio</mediatype>
											<trackindex>2</trackindex>
											<clipindex>4</clipindex>
											<groupindex>1</groupindex>
										</link>
										<link>
											<linkclipref>clipitem-425</linkclipref>
											<mediatype>audio</mediatype>
											<trackindex>3</trackindex>
											<clipindex>4</clipindex>
											<groupindex>1</groupindex>
										</link>
										<link>
											<linkclipref>clipitem-449</linkclipref>
											<mediatype>audio</mediatype>
											<trackindex>4</trackindex>
											<clipindex>4</clipindex>
											<groupindex>1</groupindex>
										</link>
										<link>
											<linkclipref>clipitem-473</linkclipref>
											<mediatype>audio</mediatype>
											<trackindex>5</trackindex>
											<clipindex>4</clipindex>
											<groupindex>1</groupindex>
										</link>
										<link>
											<linkclipref>clipitem-494</linkclipref>
											<mediatype>audio</mediatype>
											<trackindex>6</trackindex>
											<clipindex>4</clipindex>
											<groupindex>1</groupindex>
										</link>
										<logginginfo>
											<description></description>
											<scene>3-03</scene>
											<shottake></shottake>
											<lognote></lognote>
											<good></good>
											<originalvideofilename></originalvideofilename>
											<originalaudiofilename></originalaudiofilename>
										</logginginfo>
										<colorinfo>
											<lut></lut>
											<lut1></lut1>
											<asc_sop></asc_sop>
											<asc_sat></asc_sat>
											<lut2></lut2>
										</colorinfo>
										<labels>
											<label2>Mango</label2>
										</labels>
									</clipitem>
									<clipitem id="clipitem-495" premiereChannelType="mono">
										<masterclipid>masterclip-69</masterclipid>
										<name>3-ATMOS-1.WAV</name>
										<enabled>TRUE</enabled>
										<duration>2950</duration>
										<rate>
											<timebase>25</timebase>
											<ntsc>FALSE</ntsc>
										</rate>
										<start>112025</start>
										<end>114975</end>
										<in>0</in>
										<out>2950</out>
										<pproTicksIn>0</pproTicksIn>
										<pproTicksOut>29973888000000</pproTicksOut>
										<file id="file-69"/>
										<sourcetrack>
											<mediatype>audio</mediatype>
											<trackindex>6</trackindex>
										</sourcetrack>
										<link>
											<linkclipref>clipitem-378</linkclipref>
											<mediatype>audio</mediatype>
											<trackindex>1</trackindex>
											<clipindex>5</clipindex>
											<groupindex>1</groupindex>
										</link>
										<link>
											<linkclipref>clipitem-402</linkclipref>
											<mediatype>audio</mediatype>
											<trackindex>2</trackindex>
											<clipindex>5</clipindex>
											<groupindex>1</groupindex>
										</link>
										<link>
											<linkclipref>clipitem-426</linkclipref>
											<mediatype>audio</mediatype>
											<trackindex>3</trackindex>
											<clipindex>5</clipindex>
											<groupindex>1</groupindex>
										</link>
										<link>
											<linkclipref>clipitem-450</linkclipref>
											<mediatype>audio</mediatype>
											<trackindex>4</trackindex>
											<clipindex>5</clipindex>
											<groupindex>1</groupindex>
										</link>
										<link>
											<linkclipref>clipitem-474</linkclipref>
											<mediatype>audio</mediatype>
											<trackindex>5</trackindex>
											<clipindex>5</clipindex>
											<groupindex>1</groupindex>
										</link>
										<link>
											<linkclipref>clipitem-495</linkclipref>
											<mediatype>audio</mediatype>
											<trackindex>6</trackindex>
											<clipindex>5</clipindex>
											<groupindex>1</groupindex>
										</link>
										<logginginfo>
											<description></description>
											<scene>3-ATMOS</scene>
											<shottake></shottake>
											<lognote></lognote>
											<good></good>
											<originalvideofilename></originalvideofilename>
											<originalaudiofilename></originalaudiofilename>
										</logginginfo>
										<colorinfo>
											<lut></lut>
											<lut1></lut1>
											<asc_sop></asc_sop>
											<asc_sat></asc_sat>
											<lut2></lut2>
										</colorinfo>
										<labels>
											<label2>Mango</label2>
										</labels>
									</clipitem>
									<clipitem id="clipitem-496" premiereChannelType="mono">
										<masterclipid>masterclip-88</masterclipid>
										<name>ATMOS_CHURCH-1.WAV</name>
										<enabled>TRUE</enabled>
										<duration>2975</duration>
										<rate>
											<timebase>25</timebase>
											<ntsc>FALSE</ntsc>
										</rate>
										<start>253275</start>
										<end>256250</end>
										<in>0</in>
										<out>2975</out>
										<pproTicksIn>0</pproTicksIn>
										<pproTicksOut>30227904000000</pproTicksOut>
										<file id="file-88"/>
										<sourcetrack>
											<mediatype>audio</mediatype>
											<trackindex>6</trackindex>
										</sourcetrack>
										<link>
											<linkclipref>clipitem-379</linkclipref>
											<mediatype>audio</mediatype>
											<trackindex>1</trackindex>
											<clipindex>6</clipindex>
											<groupindex>1</groupindex>
										</link>
										<link>
											<linkclipref>clipitem-403</linkclipref>
											<mediatype>audio</mediatype>
											<trackindex>2</trackindex>
											<clipindex>6</clipindex>
											<groupindex>1</groupindex>
										</link>
										<link>
											<linkclipref>clipitem-427</linkclipref>
											<mediatype>audio</mediatype>
											<trackindex>3</trackindex>
											<clipindex>6</clipindex>
											<groupindex>1</groupindex>
										</link>
										<link>
											<linkclipref>clipitem-451</linkclipref>
											<mediatype>audio</mediatype>
											<trackindex>4</trackindex>
											<clipindex>6</clipindex>
											<groupindex>1</groupindex>
										</link>
										<link>
											<linkclipref>clipitem-475</linkclipref>
											<mediatype>audio</mediatype>
											<trackindex>5</trackindex>
											<clipindex>6</clipindex>
											<groupindex>1</groupindex>
										</link>
										<link>
											<linkclipref>clipitem-496</linkclipref>
											<mediatype>audio</mediatype>
											<trackindex>6</trackindex>
											<clipindex>6</clipindex>
											<groupindex>1</groupindex>
										</link>
										<logginginfo>
											<description></description>
											<scene>ATMOS_CHURCH</scene>
											<shottake></shottake>
											<lognote></lognote>
											<good></good>
											<originalvideofilename></originalvideofilename>
											<originalaudiofilename></originalaudiofilename>
										</logginginfo>
										<colorinfo>
											<lut></lut>
											<lut1></lut1>
											<asc_sop></asc_sop>
											<asc_sat></asc_sat>
											<lut2></lut2>
										</colorinfo>
										<labels>
											<label2>Mango</label2>
										</labels>
									</clipitem>
									<clipitem id="clipitem-497" premiereChannelType="mono">
										<masterclipid>masterclip-79</masterclipid>
										<name>12-01-1.WAV</name>
										<enabled>TRUE</enabled>
										<duration>3200</duration>
										<rate>
											<timebase>25</timebase>
											<ntsc>FALSE</ntsc>
										</rate>
										<start>458975</start>
										<end>462175</end>
										<in>0</in>
										<out>3200</out>
										<pproTicksIn>0</pproTicksIn>
										<pproTicksOut>32514048000000</pproTicksOut>
										<file id="file-79"/>
										<sourcetrack>
											<mediatype>audio</mediatype>
											<trackindex>6</trackindex>
										</sourcetrack>
											<marker>
												<comment></comment>
												<name></name>
												<in>845</in>
												<out>-1</out>
												<pproColor>4281828977</pproColor>
											</marker>
											<marker>
												<comment></comment>
												<name></name>
												<in>3026</in>
												<out>-1</out>
												<pproColor>4281740498</pproColor>
											</marker>
										<link>
											<linkclipref>clipitem-380</linkclipref>
											<mediatype>audio</mediatype>
											<trackindex>1</trackindex>
											<clipindex>7</clipindex>
											<groupindex>1</groupindex>
										</link>
										<link>
											<linkclipref>clipitem-404</linkclipref>
											<mediatype>audio</mediatype>
											<trackindex>2</trackindex>
											<clipindex>7</clipindex>
											<groupindex>1</groupindex>
										</link>
										<link>
											<linkclipref>clipitem-428</linkclipref>
											<mediatype>audio</mediatype>
											<trackindex>3</trackindex>
											<clipindex>7</clipindex>
											<groupindex>1</groupindex>
										</link>
										<link>
											<linkclipref>clipitem-452</linkclipref>
											<mediatype>audio</mediatype>
											<trackindex>4</trackindex>
											<clipindex>7</clipindex>
											<groupindex>1</groupindex>
										</link>
										<link>
											<linkclipref>clipitem-476</linkclipref>
											<mediatype>audio</mediatype>
											<trackindex>5</trackindex>
											<clipindex>7</clipindex>
											<groupindex>1</groupindex>
										</link>
										<link>
											<linkclipref>clipitem-497</linkclipref>
											<mediatype>audio</mediatype>
											<trackindex>6</trackindex>
											<clipindex>7</clipindex>
											<groupindex>1</groupindex>
										</link>
										<link>
											<linkclipref>clipitem-512</linkclipref>
											<mediatype>audio</mediatype>
											<trackindex>7</trackindex>
											<clipindex>1</clipindex>
											<groupindex>1</groupindex>
										</link>
										<link>
											<linkclipref>clipitem-524</linkclipref>
											<mediatype>audio</mediatype>
											<trackindex>8</trackindex>
											<clipindex>1</clipindex>
											<groupindex>1</groupindex>
										</link>
										<logginginfo>
											<description></description>
											<scene>12-01</scene>
											<shottake></shottake>
											<lognote></lognote>
											<good></good>
											<originalvideofilename></originalvideofilename>
											<originalaudiofilename></originalaudiofilename>
										</logginginfo>
										<colorinfo>
											<lut></lut>
											<lut1></lut1>
											<asc_sop></asc_sop>
											<asc_sat></asc_sat>
											<lut2></lut2>
										</colorinfo>
										<labels>
											<label2>Mango</label2>
										</labels>
									</clipitem>
									<clipitem id="clipitem-498" premiereChannelType="mono">
										<masterclipid>masterclip-80</masterclipid>
										<name>12-01-2.WAV</name>
										<enabled>TRUE</enabled>
										<duration>1500</duration>
										<rate>
											<timebase>25</timebase>
											<ntsc>FALSE</ntsc>
										</rate>
										<start>467225</start>
										<end>468725</end>
										<in>0</in>
										<out>1500</out>
										<pproTicksIn>0</pproTicksIn>
										<pproTicksOut>15240960000000</pproTicksOut>
										<file id="file-80"/>
										<sourcetrack>
											<mediatype>audio</mediatype>
											<trackindex>6</trackindex>
										</sourcetrack>
											<marker>
												<comment></comment>
												<name></name>
												<in>726</in>
												<out>-1</out>
											</marker>
										<link>
											<linkclipref>clipitem-381</linkclipref>
											<mediatype>audio</mediatype>
											<trackindex>1</trackindex>
											<clipindex>8</clipindex>
											<groupindex>1</groupindex>
										</link>
										<link>
											<linkclipref>clipitem-405</linkclipref>
											<mediatype>audio</mediatype>
											<trackindex>2</trackindex>
											<clipindex>8</clipindex>
											<groupindex>1</groupindex>
										</link>
										<link>
											<linkclipref>clipitem-429</linkclipref>
											<mediatype>audio</mediatype>
											<trackindex>3</trackindex>
											<clipindex>8</clipindex>
											<groupindex>1</groupindex>
										</link>
										<link>
											<linkclipref>clipitem-453</linkclipref>
											<mediatype>audio</mediatype>
											<trackindex>4</trackindex>
											<clipindex>8</clipindex>
											<groupindex>1</groupindex>
										</link>
										<link>
											<linkclipref>clipitem-477</linkclipref>
											<mediatype>audio</mediatype>
											<trackindex>5</trackindex>
											<clipindex>8</clipindex>
											<groupindex>1</groupindex>
										</link>
										<link>
											<linkclipref>clipitem-498</linkclipref>
											<mediatype>audio</mediatype>
											<trackindex>6</trackindex>
											<clipindex>8</clipindex>
											<groupindex>1</groupindex>
										</link>
										<link>
											<linkclipref>clipitem-513</linkclipref>
											<mediatype>audio</mediatype>
											<trackindex>7</trackindex>
											<clipindex>2</clipindex>
											<groupindex>1</groupindex>
										</link>
										<link>
											<linkclipref>clipitem-525</linkclipref>
											<mediatype>audio</mediatype>
											<trackindex>8</trackindex>
											<clipindex>2</clipindex>
											<groupindex>1</groupindex>
										</link>
										<logginginfo>
											<description></description>
											<scene>12-01</scene>
											<shottake></shottake>
											<lognote></lognote>
											<good></good>
											<originalvideofilename></originalvideofilename>
											<originalaudiofilename></originalaudiofilename>
										</logginginfo>
										<colorinfo>
											<lut></lut>
											<lut1></lut1>
											<asc_sop></asc_sop>
											<asc_sat></asc_sat>
											<lut2></lut2>
										</colorinfo>
										<labels>
											<label2>Mango</label2>
										</labels>
									</clipitem>
									<clipitem id="clipitem-499" premiereChannelType="mono">
										<masterclipid>masterclip-81</masterclipid>
										<name>12-01-3.WAV</name>
										<enabled>TRUE</enabled>
										<duration>3275</duration>
										<rate>
											<timebase>25</timebase>
											<ntsc>FALSE</ntsc>
										</rate>
										<start>469925</start>
										<end>473200</end>
										<in>0</in>
										<out>3275</out>
										<pproTicksIn>0</pproTicksIn>
										<pproTicksOut>33276096000000</pproTicksOut>
										<file id="file-81"/>
										<sourcetrack>
											<mediatype>audio</mediatype>
											<trackindex>6</trackindex>
										</sourcetrack>
										<link>
											<linkclipref>clipitem-382</linkclipref>
											<mediatype>audio</mediatype>
											<trackindex>1</trackindex>
											<clipindex>9</clipindex>
											<groupindex>1</groupindex>
										</link>
										<link>
											<linkclipref>clipitem-406</linkclipref>
											<mediatype>audio</mediatype>
											<trackindex>2</trackindex>
											<clipindex>9</clipindex>
											<groupindex>1</groupindex>
										</link>
										<link>
											<linkclipref>clipitem-430</linkclipref>
											<mediatype>audio</mediatype>
											<trackindex>3</trackindex>
											<clipindex>9</clipindex>
											<groupindex>1</groupindex>
										</link>
										<link>
											<linkclipref>clipitem-454</linkclipref>
											<mediatype>audio</mediatype>
											<trackindex>4</trackindex>
											<clipindex>9</clipindex>
											<groupindex>1</groupindex>
										</link>
										<link>
											<linkclipref>clipitem-478</linkclipref>
											<mediatype>audio</mediatype>
											<trackindex>5</trackindex>
											<clipindex>9</clipindex>
											<groupindex>1</groupindex>
										</link>
										<link>
											<linkclipref>clipitem-499</linkclipref>
											<mediatype>audio</mediatype>
											<trackindex>6</trackindex>
											<clipindex>9</clipindex>
											<groupindex>1</groupindex>
										</link>
										<link>
											<linkclipref>clipitem-514</linkclipref>
											<mediatype>audio</mediatype>
											<trackindex>7</trackindex>
											<clipindex>3</clipindex>
											<groupindex>1</groupindex>
										</link>
										<link>
											<linkclipref>clipitem-526</linkclipref>
											<mediatype>audio</mediatype>
											<trackindex>8</trackindex>
											<clipindex>3</clipindex>
											<groupindex>1</groupindex>
										</link>
										<logginginfo>
											<description></description>
											<scene>12-01</scene>
											<shottake></shottake>
											<lognote></lognote>
											<good></good>
											<originalvideofilename></originalvideofilename>
											<originalaudiofilename></originalaudiofilename>
										</logginginfo>
										<colorinfo>
											<lut></lut>
											<lut1></lut1>
											<asc_sop></asc_sop>
											<asc_sat></asc_sat>
											<lut2></lut2>
										</colorinfo>
										<labels>
											<label2>Mango</label2>
										</labels>
									</clipitem>
									<clipitem id="clipitem-500" premiereChannelType="mono">
										<masterclipid>masterclip-82</masterclipid>
										<name>12-01-4.WAV</name>
										<enabled>TRUE</enabled>
										<duration>3975</duration>
										<rate>
											<timebase>25</timebase>
											<ntsc>FALSE</ntsc>
										</rate>
										<start>474625</start>
										<end>478600</end>
										<in>0</in>
										<out>3975</out>
										<pproTicksIn>0</pproTicksIn>
										<pproTicksOut>40388544000000</pproTicksOut>
										<file id="file-82"/>
										<sourcetrack>
											<mediatype>audio</mediatype>
											<trackindex>6</trackindex>
										</sourcetrack>
										<link>
											<linkclipref>clipitem-383</linkclipref>
											<mediatype>audio</mediatype>
											<trackindex>1</trackindex>
											<clipindex>10</clipindex>
											<groupindex>1</groupindex>
										</link>
										<link>
											<linkclipref>clipitem-407</linkclipref>
											<mediatype>audio</mediatype>
											<trackindex>2</trackindex>
											<clipindex>10</clipindex>
											<groupindex>1</groupindex>
										</link>
										<link>
											<linkclipref>clipitem-431</linkclipref>
											<mediatype>audio</mediatype>
											<trackindex>3</trackindex>
											<clipindex>10</clipindex>
											<groupindex>1</groupindex>
										</link>
										<link>
											<linkclipref>clipitem-455</linkclipref>
											<mediatype>audio</mediatype>
											<trackindex>4</trackindex>
											<clipindex>10</clipindex>
											<groupindex>1</groupindex>
										</link>
										<link>
											<linkclipref>clipitem-479</linkclipref>
											<mediatype>audio</mediatype>
											<trackindex>5</trackindex>
											<clipindex>10</clipindex>
											<groupindex>1</groupindex>
										</link>
										<link>
											<linkclipref>clipitem-500</linkclipref>
											<mediatype>audio</mediatype>
											<trackindex>6</trackindex>
											<clipindex>10</clipindex>
											<groupindex>1</groupindex>
										</link>
										<link>
											<linkclipref>clipitem-515</linkclipref>
											<mediatype>audio</mediatype>
											<trackindex>7</trackindex>
											<clipindex>4</clipindex>
											<groupindex>1</groupindex>
										</link>
										<link>
											<linkclipref>clipitem-527</linkclipref>
											<mediatype>audio</mediatype>
											<trackindex>8</trackindex>
											<clipindex>4</clipindex>
											<groupindex>1</groupindex>
										</link>
										<logginginfo>
											<description></description>
											<scene>12-01</scene>
											<shottake></shottake>
											<lognote></lognote>
											<good></good>
											<originalvideofilename></originalvideofilename>
											<originalaudiofilename></originalaudiofilename>
										</logginginfo>
										<colorinfo>
											<lut></lut>
											<lut1></lut1>
											<asc_sop></asc_sop>
											<asc_sat></asc_sat>
											<lut2></lut2>
										</colorinfo>
										<labels>
											<label2>Mango</label2>
										</labels>
									</clipitem>
									<clipitem id="clipitem-501" premiereChannelType="mono">
										<masterclipid>masterclip-83</masterclipid>
										<name>12-01-5.WAV</name>
										<enabled>TRUE</enabled>
										<duration>3375</duration>
										<rate>
											<timebase>25</timebase>
											<ntsc>FALSE</ntsc>
										</rate>
										<start>481250</start>
										<end>484625</end>
										<in>0</in>
										<out>3375</out>
										<pproTicksIn>0</pproTicksIn>
										<pproTicksOut>34292160000000</pproTicksOut>
										<file id="file-83"/>
										<sourcetrack>
											<mediatype>audio</mediatype>
											<trackindex>6</trackindex>
										</sourcetrack>
										<link>
											<linkclipref>clipitem-384</linkclipref>
											<mediatype>audio</mediatype>
											<trackindex>1</trackindex>
											<clipindex>11</clipindex>
											<groupindex>1</groupindex>
										</link>
										<link>
											<linkclipref>clipitem-408</linkclipref>
											<mediatype>audio</mediatype>
											<trackindex>2</trackindex>
											<clipindex>11</clipindex>
											<groupindex>1</groupindex>
										</link>
										<link>
											<linkclipref>clipitem-432</linkclipref>
											<mediatype>audio</mediatype>
											<trackindex>3</trackindex>
											<clipindex>11</clipindex>
											<groupindex>1</groupindex>
										</link>
										<link>
											<linkclipref>clipitem-456</linkclipref>
											<mediatype>audio</mediatype>
											<trackindex>4</trackindex>
											<clipindex>11</clipindex>
											<groupindex>1</groupindex>
										</link>
										<link>
											<linkclipref>clipitem-480</linkclipref>
											<mediatype>audio</mediatype>
											<trackindex>5</trackindex>
											<clipindex>11</clipindex>
											<groupindex>1</groupindex>
										</link>
										<link>
											<linkclipref>clipitem-501</linkclipref>
											<mediatype>audio</mediatype>
											<trackindex>6</trackindex>
											<clipindex>11</clipindex>
											<groupindex>1</groupindex>
										</link>
										<link>
											<linkclipref>clipitem-516</linkclipref>
											<mediatype>audio</mediatype>
											<trackindex>7</trackindex>
											<clipindex>5</clipindex>
											<groupindex>1</groupindex>
										</link>
										<link>
											<linkclipref>clipitem-528</linkclipref>
											<mediatype>audio</mediatype>
											<trackindex>8</trackindex>
											<clipindex>5</clipindex>
											<groupindex>1</groupindex>
										</link>
										<logginginfo>
											<description></description>
											<scene>12-01</scene>
											<shottake></shottake>
											<lognote></lognote>
											<good></good>
											<originalvideofilename></originalvideofilename>
											<originalaudiofilename></originalaudiofilename>
										</logginginfo>
										<colorinfo>
											<lut></lut>
											<lut1></lut1>
											<asc_sop></asc_sop>
											<asc_sat></asc_sat>
											<lut2></lut2>
										</colorinfo>
										<labels>
											<label2>Mango</label2>
										</labels>
									</clipitem>
									<clipitem id="clipitem-502" premiereChannelType="mono">
										<masterclipid>masterclip-84</masterclipid>
										<name>12-02-1.WAV</name>
										<enabled>TRUE</enabled>
										<duration>2900</duration>
										<rate>
											<timebase>25</timebase>
											<ntsc>FALSE</ntsc>
										</rate>
										<start>509850</start>
										<end>512750</end>
										<in>0</in>
										<out>2900</out>
										<pproTicksIn>0</pproTicksIn>
										<pproTicksOut>29465856000000</pproTicksOut>
										<file id="file-84"/>
										<sourcetrack>
											<mediatype>audio</mediatype>
											<trackindex>6</trackindex>
										</sourcetrack>
										<link>
											<linkclipref>clipitem-385</linkclipref>
											<mediatype>audio</mediatype>
											<trackindex>1</trackindex>
											<clipindex>12</clipindex>
											<groupindex>1</groupindex>
										</link>
										<link>
											<linkclipref>clipitem-409</linkclipref>
											<mediatype>audio</mediatype>
											<trackindex>2</trackindex>
											<clipindex>12</clipindex>
											<groupindex>1</groupindex>
										</link>
										<link>
											<linkclipref>clipitem-433</linkclipref>
											<mediatype>audio</mediatype>
											<trackindex>3</trackindex>
											<clipindex>12</clipindex>
											<groupindex>1</groupindex>
										</link>
										<link>
											<linkclipref>clipitem-457</linkclipref>
											<mediatype>audio</mediatype>
											<trackindex>4</trackindex>
											<clipindex>12</clipindex>
											<groupindex>1</groupindex>
										</link>
										<link>
											<linkclipref>clipitem-481</linkclipref>
											<mediatype>audio</mediatype>
											<trackindex>5</trackindex>
											<clipindex>12</clipindex>
											<groupindex>1</groupindex>
										</link>
										<link>
											<linkclipref>clipitem-502</linkclipref>
											<mediatype>audio</mediatype>
											<trackindex>6</trackindex>
											<clipindex>12</clipindex>
											<groupindex>1</groupindex>
										</link>
										<logginginfo>
											<description></description>
											<scene>12-02</scene>
											<shottake></shottake>
											<lognote></lognote>
											<good></good>
											<originalvideofilename></originalvideofilename>
											<originalaudiofilename></originalaudiofilename>
										</logginginfo>
										<colorinfo>
											<lut></lut>
											<lut1></lut1>
											<asc_sop></asc_sop>
											<asc_sat></asc_sat>
											<lut2></lut2>
										</colorinfo>
										<labels>
											<label2>Mango</label2>
										</labels>
									</clipitem>
									<clipitem id="clipitem-503" premiereChannelType="mono">
										<masterclipid>masterclip-85</masterclipid>
										<name>12-02-2.WAV</name>
										<enabled>TRUE</enabled>
										<duration>2100</duration>
										<rate>
											<timebase>25</timebase>
											<ntsc>FALSE</ntsc>
										</rate>
										<start>513550</start>
										<end>515650</end>
										<in>0</in>
										<out>2100</out>
										<pproTicksIn>0</pproTicksIn>
										<pproTicksOut>21337344000000</pproTicksOut>
										<file id="file-85"/>
										<sourcetrack>
											<mediatype>audio</mediatype>
											<trackindex>6</trackindex>
										</sourcetrack>
										<link>
											<linkclipref>clipitem-386</linkclipref>
											<mediatype>audio</mediatype>
											<trackindex>1</trackindex>
											<clipindex>13</clipindex>
											<groupindex>1</groupindex>
										</link>
										<link>
											<linkclipref>clipitem-410</linkclipref>
											<mediatype>audio</mediatype>
											<trackindex>2</trackindex>
											<clipindex>13</clipindex>
											<groupindex>1</groupindex>
										</link>
										<link>
											<linkclipref>clipitem-434</linkclipref>
											<mediatype>audio</mediatype>
											<trackindex>3</trackindex>
											<clipindex>13</clipindex>
											<groupindex>1</groupindex>
										</link>
										<link>
											<linkclipref>clipitem-458</linkclipref>
											<mediatype>audio</mediatype>
											<trackindex>4</trackindex>
											<clipindex>13</clipindex>
											<groupindex>1</groupindex>
										</link>
										<link>
											<linkclipref>clipitem-482</linkclipref>
											<mediatype>audio</mediatype>
											<trackindex>5</trackindex>
											<clipindex>13</clipindex>
											<groupindex>1</groupindex>
										</link>
										<link>
											<linkclipref>clipitem-503</linkclipref>
											<mediatype>audio</mediatype>
											<trackindex>6</trackindex>
											<clipindex>13</clipindex>
											<groupindex>1</groupindex>
										</link>
										<logginginfo>
											<description></description>
											<scene>12-02</scene>
											<shottake></shottake>
											<lognote></lognote>
											<good></good>
											<originalvideofilename></originalvideofilename>
											<originalaudiofilename></originalaudiofilename>
										</logginginfo>
										<colorinfo>
											<lut></lut>
											<lut1></lut1>
											<asc_sop></asc_sop>
											<asc_sat></asc_sat>
											<lut2></lut2>
										</colorinfo>
										<labels>
											<label2>Mango</label2>
										</labels>
									</clipitem>
									<clipitem id="clipitem-504" premiereChannelType="mono">
										<masterclipid>masterclip-75</masterclipid>
										<name>6-01-1.WAV</name>
										<enabled>TRUE</enabled>
										<duration>4775</duration>
										<rate>
											<timebase>25</timebase>
											<ntsc>FALSE</ntsc>
										</rate>
										<start>769325</start>
										<end>774100</end>
										<in>0</in>
										<out>4775</out>
										<pproTicksIn>0</pproTicksIn>
										<pproTicksOut>48517056000000</pproTicksOut>
										<file id="file-75"/>
										<sourcetrack>
											<mediatype>audio</mediatype>
											<trackindex>6</trackindex>
										</sourcetrack>
										<link>
											<linkclipref>clipitem-387</linkclipref>
											<mediatype>audio</mediatype>
											<trackindex>1</trackindex>
											<clipindex>14</clipindex>
											<groupindex>1</groupindex>
										</link>
										<link>
											<linkclipref>clipitem-411</linkclipref>
											<mediatype>audio</mediatype>
											<trackindex>2</trackindex>
											<clipindex>14</clipindex>
											<groupindex>1</groupindex>
										</link>
										<link>
											<linkclipref>clipitem-435</linkclipref>
											<mediatype>audio</mediatype>
											<trackindex>3</trackindex>
											<clipindex>14</clipindex>
											<groupindex>1</groupindex>
										</link>
										<link>
											<linkclipref>clipitem-459</linkclipref>
											<mediatype>audio</mediatype>
											<trackindex>4</trackindex>
											<clipindex>14</clipindex>
											<groupindex>1</groupindex>
										</link>
										<link>
											<linkclipref>clipitem-483</linkclipref>
											<mediatype>audio</mediatype>
											<trackindex>5</trackindex>
											<clipindex>14</clipindex>
											<groupindex>1</groupindex>
										</link>
										<link>
											<linkclipref>clipitem-504</linkclipref>
											<mediatype>audio</mediatype>
											<trackindex>6</trackindex>
											<clipindex>14</clipindex>
											<groupindex>1</groupindex>
										</link>
										<link>
											<linkclipref>clipitem-517</linkclipref>
											<mediatype>audio</mediatype>
											<trackindex>7</trackindex>
											<clipindex>6</clipindex>
											<groupindex>1</groupindex>
										</link>
										<link>
											<linkclipref>clipitem-529</linkclipref>
											<mediatype>audio</mediatype>
											<trackindex>8</trackindex>
											<clipindex>6</clipindex>
											<groupindex>1</groupindex>
										</link>
										<logginginfo>
											<description></description>
											<scene>6-01</scene>
											<shottake></shottake>
											<lognote></lognote>
											<good></good>
											<originalvideofilename></originalvideofilename>
											<originalaudiofilename></originalaudiofilename>
										</logginginfo>
										<colorinfo>
											<lut></lut>
											<lut1></lut1>
											<asc_sop></asc_sop>
											<asc_sat></asc_sat>
											<lut2></lut2>
										</colorinfo>
										<labels>
											<label2>Mango</label2>
										</labels>
									</clipitem>
									<clipitem id="clipitem-505" premiereChannelType="mono">
										<masterclipid>masterclip-76</masterclipid>
										<name>6-01-2.WAV</name>
										<enabled>TRUE</enabled>
										<duration>4175</duration>
										<rate>
											<timebase>25</timebase>
											<ntsc>FALSE</ntsc>
										</rate>
										<start>791700</start>
										<end>795875</end>
										<in>0</in>
										<out>4175</out>
										<pproTicksIn>0</pproTicksIn>
										<pproTicksOut>42420672000000</pproTicksOut>
										<file id="file-76"/>
										<sourcetrack>
											<mediatype>audio</mediatype>
											<trackindex>6</trackindex>
										</sourcetrack>
										<link>
											<linkclipref>clipitem-388</linkclipref>
											<mediatype>audio</mediatype>
											<trackindex>1</trackindex>
											<clipindex>15</clipindex>
											<groupindex>1</groupindex>
										</link>
										<link>
											<linkclipref>clipitem-412</linkclipref>
											<mediatype>audio</mediatype>
											<trackindex>2</trackindex>
											<clipindex>15</clipindex>
											<groupindex>1</groupindex>
										</link>
										<link>
											<linkclipref>clipitem-436</linkclipref>
											<mediatype>audio</mediatype>
											<trackindex>3</trackindex>
											<clipindex>15</clipindex>
											<groupindex>1</groupindex>
										</link>
										<link>
											<linkclipref>clipitem-460</linkclipref>
											<mediatype>audio</mediatype>
											<trackindex>4</trackindex>
											<clipindex>15</clipindex>
											<groupindex>1</groupindex>
										</link>
										<link>
											<linkclipref>clipitem-484</linkclipref>
											<mediatype>audio</mediatype>
											<trackindex>5</trackindex>
											<clipindex>15</clipindex>
											<groupindex>1</groupindex>
										</link>
										<link>
											<linkclipref>clipitem-505</linkclipref>
											<mediatype>audio</mediatype>
											<trackindex>6</trackindex>
											<clipindex>15</clipindex>
											<groupindex>1</groupindex>
										</link>
										<link>
											<linkclipref>clipitem-518</linkclipref>
											<mediatype>audio</mediatype>
											<trackindex>7</trackindex>
											<clipindex>7</clipindex>
											<groupindex>1</groupindex>
										</link>
										<link>
											<linkclipref>clipitem-530</linkclipref>
											<mediatype>audio</mediatype>
											<trackindex>8</trackindex>
											<clipindex>7</clipindex>
											<groupindex>1</groupindex>
										</link>
										<logginginfo>
											<description></description>
											<scene>6-01</scene>
											<shottake></shottake>
											<lognote></lognote>
											<good></good>
											<originalvideofilename></originalvideofilename>
											<originalaudiofilename></originalaudiofilename>
										</logginginfo>
										<colorinfo>
											<lut></lut>
											<lut1></lut1>
											<asc_sop></asc_sop>
											<asc_sat></asc_sat>
											<lut2></lut2>
										</colorinfo>
										<labels>
											<label2>Mango</label2>
										</labels>
									</clipitem>
									<clipitem id="clipitem-506" premiereChannelType="mono">
										<masterclipid>masterclip-77</masterclipid>
										<name>6-01-3.WAV</name>
										<enabled>TRUE</enabled>
										<duration>4400</duration>
										<rate>
											<timebase>25</timebase>
											<ntsc>FALSE</ntsc>
										</rate>
										<start>801425</start>
										<end>805825</end>
										<in>0</in>
										<out>4400</out>
										<pproTicksIn>0</pproTicksIn>
										<pproTicksOut>44706816000000</pproTicksOut>
										<file id="file-77"/>
										<sourcetrack>
											<mediatype>audio</mediatype>
											<trackindex>6</trackindex>
										</sourcetrack>
										<link>
											<linkclipref>clipitem-389</linkclipref>
											<mediatype>audio</mediatype>
											<trackindex>1</trackindex>
											<clipindex>16</clipindex>
											<groupindex>1</groupindex>
										</link>
										<link>
											<linkclipref>clipitem-413</linkclipref>
											<mediatype>audio</mediatype>
											<trackindex>2</trackindex>
											<clipindex>16</clipindex>
											<groupindex>1</groupindex>
										</link>
										<link>
											<linkclipref>clipitem-437</linkclipref>
											<mediatype>audio</mediatype>
											<trackindex>3</trackindex>
											<clipindex>16</clipindex>
											<groupindex>1</groupindex>
										</link>
										<link>
											<linkclipref>clipitem-461</linkclipref>
											<mediatype>audio</mediatype>
											<trackindex>4</trackindex>
											<clipindex>16</clipindex>
											<groupindex>1</groupindex>
										</link>
										<link>
											<linkclipref>clipitem-485</linkclipref>
											<mediatype>audio</mediatype>
											<trackindex>5</trackindex>
											<clipindex>16</clipindex>
											<groupindex>1</groupindex>
										</link>
										<link>
											<linkclipref>clipitem-506</linkclipref>
											<mediatype>audio</mediatype>
											<trackindex>6</trackindex>
											<clipindex>16</clipindex>
											<groupindex>1</groupindex>
										</link>
										<link>
											<linkclipref>clipitem-519</linkclipref>
											<mediatype>audio</mediatype>
											<trackindex>7</trackindex>
											<clipindex>8</clipindex>
											<groupindex>1</groupindex>
										</link>
										<link>
											<linkclipref>clipitem-531</linkclipref>
											<mediatype>audio</mediatype>
											<trackindex>8</trackindex>
											<clipindex>8</clipindex>
											<groupindex>1</groupindex>
										</link>
										<logginginfo>
											<description></description>
											<scene>6-01</scene>
											<shottake></shottake>
											<lognote></lognote>
											<good></good>
											<originalvideofilename></originalvideofilename>
											<originalaudiofilename></originalaudiofilename>
										</logginginfo>
										<colorinfo>
											<lut></lut>
											<lut1></lut1>
											<asc_sop></asc_sop>
											<asc_sat></asc_sat>
											<lut2></lut2>
										</colorinfo>
										<labels>
											<label2>Mango</label2>
										</labels>
									</clipitem>
									<clipitem id="clipitem-507" premiereChannelType="mono">
										<masterclipid>masterclip-78</masterclipid>
										<name>6-01-4.WAV</name>
										<enabled>TRUE</enabled>
										<duration>5275</duration>
										<rate>
											<timebase>25</timebase>
											<ntsc>FALSE</ntsc>
										</rate>
										<start>811475</start>
										<end>816750</end>
										<in>0</in>
										<out>5275</out>
										<pproTicksIn>0</pproTicksIn>
										<pproTicksOut>53597376000000</pproTicksOut>
										<file id="file-78"/>
										<sourcetrack>
											<mediatype>audio</mediatype>
											<trackindex>6</trackindex>
										</sourcetrack>
										<link>
											<linkclipref>clipitem-390</linkclipref>
											<mediatype>audio</mediatype>
											<trackindex>1</trackindex>
											<clipindex>17</clipindex>
											<groupindex>1</groupindex>
										</link>
										<link>
											<linkclipref>clipitem-414</linkclipref>
											<mediatype>audio</mediatype>
											<trackindex>2</trackindex>
											<clipindex>17</clipindex>
											<groupindex>1</groupindex>
										</link>
										<link>
											<linkclipref>clipitem-438</linkclipref>
											<mediatype>audio</mediatype>
											<trackindex>3</trackindex>
											<clipindex>17</clipindex>
											<groupindex>1</groupindex>
										</link>
										<link>
											<linkclipref>clipitem-462</linkclipref>
											<mediatype>audio</mediatype>
											<trackindex>4</trackindex>
											<clipindex>17</clipindex>
											<groupindex>1</groupindex>
										</link>
										<link>
											<linkclipref>clipitem-486</linkclipref>
											<mediatype>audio</mediatype>
											<trackindex>5</trackindex>
											<clipindex>17</clipindex>
											<groupindex>1</groupindex>
										</link>
										<link>
											<linkclipref>clipitem-507</linkclipref>
											<mediatype>audio</mediatype>
											<trackindex>6</trackindex>
											<clipindex>17</clipindex>
											<groupindex>1</groupindex>
										</link>
										<link>
											<linkclipref>clipitem-520</linkclipref>
											<mediatype>audio</mediatype>
											<trackindex>7</trackindex>
											<clipindex>9</clipindex>
											<groupindex>1</groupindex>
										</link>
										<link>
											<linkclipref>clipitem-532</linkclipref>
											<mediatype>audio</mediatype>
											<trackindex>8</trackindex>
											<clipindex>9</clipindex>
											<groupindex>1</groupindex>
										</link>
										<logginginfo>
											<description></description>
											<scene>6-01</scene>
											<shottake></shottake>
											<lognote></lognote>
											<good></good>
											<originalvideofilename></originalvideofilename>
											<originalaudiofilename></originalaudiofilename>
										</logginginfo>
										<colorinfo>
											<lut></lut>
											<lut1></lut1>
											<asc_sop></asc_sop>
											<asc_sat></asc_sat>
											<lut2></lut2>
										</colorinfo>
										<labels>
											<label2>Mango</label2>
										</labels>
									</clipitem>
									<clipitem id="clipitem-508" premiereChannelType="mono">
										<masterclipid>masterclip-86</masterclipid>
										<name>15-01-1.WAV</name>
										<enabled>TRUE</enabled>
										<duration>3575</duration>
										<rate>
											<timebase>25</timebase>
											<ntsc>FALSE</ntsc>
										</rate>
										<start>910025</start>
										<end>913600</end>
										<in>0</in>
										<out>3575</out>
										<pproTicksIn>0</pproTicksIn>
										<pproTicksOut>36324288000000</pproTicksOut>
										<file id="file-86"/>
										<sourcetrack>
											<mediatype>audio</mediatype>
											<trackindex>6</trackindex>
										</sourcetrack>
										<link>
											<linkclipref>clipitem-391</linkclipref>
											<mediatype>audio</mediatype>
											<trackindex>1</trackindex>
											<clipindex>18</clipindex>
											<groupindex>1</groupindex>
										</link>
										<link>
											<linkclipref>clipitem-415</linkclipref>
											<mediatype>audio</mediatype>
											<trackindex>2</trackindex>
											<clipindex>18</clipindex>
											<groupindex>1</groupindex>
										</link>
										<link>
											<linkclipref>clipitem-439</linkclipref>
											<mediatype>audio</mediatype>
											<trackindex>3</trackindex>
											<clipindex>18</clipindex>
											<groupindex>1</groupindex>
										</link>
										<link>
											<linkclipref>clipitem-463</linkclipref>
											<mediatype>audio</mediatype>
											<trackindex>4</trackindex>
											<clipindex>18</clipindex>
											<groupindex>1</groupindex>
										</link>
										<link>
											<linkclipref>clipitem-487</linkclipref>
											<mediatype>audio</mediatype>
											<trackindex>5</trackindex>
											<clipindex>18</clipindex>
											<groupindex>1</groupindex>
										</link>
										<link>
											<linkclipref>clipitem-508</linkclipref>
											<mediatype>audio</mediatype>
											<trackindex>6</trackindex>
											<clipindex>18</clipindex>
											<groupindex>1</groupindex>
										</link>
										<link>
											<linkclipref>clipitem-521</linkclipref>
											<mediatype>audio</mediatype>
											<trackindex>7</trackindex>
											<clipindex>10</clipindex>
											<groupindex>1</groupindex>
										</link>
										<link>
											<linkclipref>clipitem-533</linkclipref>
											<mediatype>audio</mediatype>
											<trackindex>8</trackindex>
											<clipindex>10</clipindex>
											<groupindex>1</groupindex>
										</link>
										<logginginfo>
											<description></description>
											<scene>15-01</scene>
											<shottake></shottake>
											<lognote></lognote>
											<good></good>
											<originalvideofilename></originalvideofilename>
											<originalaudiofilename></originalaudiofilename>
										</logginginfo>
										<colorinfo>
											<lut></lut>
											<lut1></lut1>
											<asc_sop></asc_sop>
											<asc_sat></asc_sat>
											<lut2></lut2>
										</colorinfo>
										<labels>
											<label2>Mango</label2>
										</labels>
									</clipitem>
									<clipitem id="clipitem-509" premiereChannelType="mono">
										<masterclipid>masterclip-87</masterclipid>
										<name>15-01-2.WAV</name>
										<enabled>TRUE</enabled>
										<duration>4100</duration>
										<rate>
											<timebase>25</timebase>
											<ntsc>FALSE</ntsc>
										</rate>
										<start>916775</start>
										<end>920875</end>
										<in>0</in>
										<out>4100</out>
										<pproTicksIn>0</pproTicksIn>
										<pproTicksOut>41658624000000</pproTicksOut>
										<file id="file-87"/>
										<sourcetrack>
											<mediatype>audio</mediatype>
											<trackindex>6</trackindex>
										</sourcetrack>
										<link>
											<linkclipref>clipitem-392</linkclipref>
											<mediatype>audio</mediatype>
											<trackindex>1</trackindex>
											<clipindex>19</clipindex>
											<groupindex>1</groupindex>
										</link>
										<link>
											<linkclipref>clipitem-416</linkclipref>
											<mediatype>audio</mediatype>
											<trackindex>2</trackindex>
											<clipindex>19</clipindex>
											<groupindex>1</groupindex>
										</link>
										<link>
											<linkclipref>clipitem-440</linkclipref>
											<mediatype>audio</mediatype>
											<trackindex>3</trackindex>
											<clipindex>19</clipindex>
											<groupindex>1</groupindex>
										</link>
										<link>
											<linkclipref>clipitem-464</linkclipref>
											<mediatype>audio</mediatype>
											<trackindex>4</trackindex>
											<clipindex>19</clipindex>
											<groupindex>1</groupindex>
										</link>
										<link>
											<linkclipref>clipitem-488</linkclipref>
											<mediatype>audio</mediatype>
											<trackindex>5</trackindex>
											<clipindex>19</clipindex>
											<groupindex>1</groupindex>
										</link>
										<link>
											<linkclipref>clipitem-509</linkclipref>
											<mediatype>audio</mediatype>
											<trackindex>6</trackindex>
											<clipindex>19</clipindex>
											<groupindex>1</groupindex>
										</link>
										<link>
											<linkclipref>clipitem-522</linkclipref>
											<mediatype>audio</mediatype>
											<trackindex>7</trackindex>
											<clipindex>11</clipindex>
											<groupindex>1</groupindex>
										</link>
										<link>
											<linkclipref>clipitem-534</linkclipref>
											<mediatype>audio</mediatype>
											<trackindex>8</trackindex>
											<clipindex>11</clipindex>
											<groupindex>1</groupindex>
										</link>
										<logginginfo>
											<description></description>
											<scene>15-01</scene>
											<shottake></shottake>
											<lognote></lognote>
											<good></good>
											<originalvideofilename></originalvideofilename>
											<originalaudiofilename></originalaudiofilename>
										</logginginfo>
										<colorinfo>
											<lut></lut>
											<lut1></lut1>
											<asc_sop></asc_sop>
											<asc_sat></asc_sat>
											<lut2></lut2>
										</colorinfo>
										<labels>
											<label2>Mango</label2>
										</labels>
									</clipitem>
									<clipitem id="clipitem-510" premiereChannelType="mono">
										<masterclipid>masterclip-71</masterclipid>
										<name>3-WILD-MOTHER-1.WAV</name>
										<enabled>TRUE</enabled>
										<duration>2375</duration>
										<rate>
											<timebase>25</timebase>
											<ntsc>FALSE</ntsc>
										</rate>
										<start>923950</start>
										<end>926325</end>
										<in>0</in>
										<out>2375</out>
										<pproTicksIn>0</pproTicksIn>
										<pproTicksOut>24131520000000</pproTicksOut>
										<file id="file-71"/>
										<sourcetrack>
											<mediatype>audio</mediatype>
											<trackindex>6</trackindex>
										</sourcetrack>
										<link>
											<linkclipref>clipitem-393</linkclipref>
											<mediatype>audio</mediatype>
											<trackindex>1</trackindex>
											<clipindex>20</clipindex>
											<groupindex>1</groupindex>
										</link>
										<link>
											<linkclipref>clipitem-417</linkclipref>
											<mediatype>audio</mediatype>
											<trackindex>2</trackindex>
											<clipindex>20</clipindex>
											<groupindex>1</groupindex>
										</link>
										<link>
											<linkclipref>clipitem-441</linkclipref>
											<mediatype>audio</mediatype>
											<trackindex>3</trackindex>
											<clipindex>20</clipindex>
											<groupindex>1</groupindex>
										</link>
										<link>
											<linkclipref>clipitem-465</linkclipref>
											<mediatype>audio</mediatype>
											<trackindex>4</trackindex>
											<clipindex>20</clipindex>
											<groupindex>1</groupindex>
										</link>
										<link>
											<linkclipref>clipitem-489</linkclipref>
											<mediatype>audio</mediatype>
											<trackindex>5</trackindex>
											<clipindex>20</clipindex>
											<groupindex>1</groupindex>
										</link>
										<link>
											<linkclipref>clipitem-510</linkclipref>
											<mediatype>audio</mediatype>
											<trackindex>6</trackindex>
											<clipindex>20</clipindex>
											<groupindex>1</groupindex>
										</link>
										<link>
											<linkclipref>clipitem-523</linkclipref>
											<mediatype>audio</mediatype>
											<trackindex>7</trackindex>
											<clipindex>12</clipindex>
											<groupindex>1</groupindex>
										</link>
										<link>
											<linkclipref>clipitem-535</linkclipref>
											<mediatype>audio</mediatype>
											<trackindex>8</trackindex>
											<clipindex>12</clipindex>
											<groupindex>1</groupindex>
										</link>
										<logginginfo>
											<description></description>
											<scene>3-WILD-MOTHER</scene>
											<shottake></shottake>
											<lognote></lognote>
											<good></good>
											<originalvideofilename></originalvideofilename>
											<originalaudiofilename></originalaudiofilename>
										</logginginfo>
										<colorinfo>
											<lut></lut>
											<lut1></lut1>
											<asc_sop></asc_sop>
											<asc_sat></asc_sat>
											<lut2></lut2>
										</colorinfo>
										<labels>
											<label2>Mango</label2>
										</labels>
									</clipitem>
									<clipitem id="clipitem-511" premiereChannelType="mono">
										<masterclipid>masterclip-73</masterclipid>
										<name>3-WILD-MOTHER-4.WAV</name>
										<enabled>TRUE</enabled>
										<duration>975</duration>
										<rate>
											<timebase>25</timebase>
											<ntsc>FALSE</ntsc>
										</rate>
										<start>930100</start>
										<end>931075</end>
										<in>0</in>
										<out>975</out>
										<pproTicksIn>0</pproTicksIn>
										<pproTicksOut>9906624000000</pproTicksOut>
										<file id="file-73"/>
										<sourcetrack>
											<mediatype>audio</mediatype>
											<trackindex>6</trackindex>
										</sourcetrack>
										<link>
											<linkclipref>clipitem-396</linkclipref>
											<mediatype>audio</mediatype>
											<trackindex>1</trackindex>
											<clipindex>23</clipindex>
											<groupindex>1</groupindex>
										</link>
										<link>
											<linkclipref>clipitem-420</linkclipref>
											<mediatype>audio</mediatype>
											<trackindex>2</trackindex>
											<clipindex>23</clipindex>
											<groupindex>1</groupindex>
										</link>
										<link>
											<linkclipref>clipitem-444</linkclipref>
											<mediatype>audio</mediatype>
											<trackindex>3</trackindex>
											<clipindex>23</clipindex>
											<groupindex>1</groupindex>
										</link>
										<link>
											<linkclipref>clipitem-468</linkclipref>
											<mediatype>audio</mediatype>
											<trackindex>4</trackindex>
											<clipindex>23</clipindex>
											<groupindex>1</groupindex>
										</link>
										<link>
											<linkclipref>clipitem-490</linkclipref>
											<mediatype>audio</mediatype>
											<trackindex>5</trackindex>
											<clipindex>21</clipindex>
											<groupindex>1</groupindex>
										</link>
										<link>
											<linkclipref>clipitem-511</linkclipref>
											<mediatype>audio</mediatype>
											<trackindex>6</trackindex>
											<clipindex>21</clipindex>
											<groupindex>1</groupindex>
										</link>
										<logginginfo>
											<description></description>
											<scene>3-WILD-MOTHER</scene>
											<shottake></shottake>
											<lognote></lognote>
											<good></good>
											<originalvideofilename></originalvideofilename>
											<originalaudiofilename></originalaudiofilename>
										</logginginfo>
										<colorinfo>
											<lut></lut>
											<lut1></lut1>
											<asc_sop></asc_sop>
											<asc_sat></asc_sat>
											<lut2></lut2>
										</colorinfo>
										<labels>
											<label2>Mango</label2>
										</labels>
									</clipitem>
									<enabled>TRUE</enabled>
									<locked>FALSE</locked>
									<outputchannelindex>2</outputchannelindex>
								</track>
								<track TL.SQTrackAudioKeyframeStyle="0" TL.SQTrackShy="0" TL.SQTrackExpandedHeight="25" TL.SQTrackExpanded="0" MZ.TrackTargeted="0" PannerCurrentValue="0.5" PannerIsInverted="true" PannerStartKeyframe="-91445760000000000,0.5,0,0,0,0,0,0" PannerName="Balance" currentExplodedTrackIndex="0" totalExplodedTrackCount="1" premiereTrackType="Stereo">
									<clipitem id="clipitem-512" premiereChannelType="mono">
										<masterclipid>masterclip-79</masterclipid>
										<name>12-01-1.WAV</name>
										<enabled>TRUE</enabled>
										<duration>3200</duration>
										<rate>
											<timebase>25</timebase>
											<ntsc>FALSE</ntsc>
										</rate>
										<start>458975</start>
										<end>462175</end>
										<in>0</in>
										<out>3200</out>
										<pproTicksIn>0</pproTicksIn>
										<pproTicksOut>32514048000000</pproTicksOut>
										<file id="file-79"/>
										<sourcetrack>
											<mediatype>audio</mediatype>
											<trackindex>7</trackindex>
										</sourcetrack>
											<marker>
												<comment></comment>
												<name></name>
												<in>845</in>
												<out>-1</out>
												<pproColor>4281828977</pproColor>
											</marker>
											<marker>
												<comment></comment>
												<name></name>
												<in>3026</in>
												<out>-1</out>
												<pproColor>4281740498</pproColor>
											</marker>
										<link>
											<linkclipref>clipitem-380</linkclipref>
											<mediatype>audio</mediatype>
											<trackindex>1</trackindex>
											<clipindex>7</clipindex>
											<groupindex>1</groupindex>
										</link>
										<link>
											<linkclipref>clipitem-404</linkclipref>
											<mediatype>audio</mediatype>
											<trackindex>2</trackindex>
											<clipindex>7</clipindex>
											<groupindex>1</groupindex>
										</link>
										<link>
											<linkclipref>clipitem-428</linkclipref>
											<mediatype>audio</mediatype>
											<trackindex>3</trackindex>
											<clipindex>7</clipindex>
											<groupindex>1</groupindex>
										</link>
										<link>
											<linkclipref>clipitem-452</linkclipref>
											<mediatype>audio</mediatype>
											<trackindex>4</trackindex>
											<clipindex>7</clipindex>
											<groupindex>1</groupindex>
										</link>
										<link>
											<linkclipref>clipitem-476</linkclipref>
											<mediatype>audio</mediatype>
											<trackindex>5</trackindex>
											<clipindex>7</clipindex>
											<groupindex>1</groupindex>
										</link>
										<link>
											<linkclipref>clipitem-497</linkclipref>
											<mediatype>audio</mediatype>
											<trackindex>6</trackindex>
											<clipindex>7</clipindex>
											<groupindex>1</groupindex>
										</link>
										<link>
											<linkclipref>clipitem-512</linkclipref>
											<mediatype>audio</mediatype>
											<trackindex>7</trackindex>
											<clipindex>1</clipindex>
											<groupindex>1</groupindex>
										</link>
										<link>
											<linkclipref>clipitem-524</linkclipref>
											<mediatype>audio</mediatype>
											<trackindex>8</trackindex>
											<clipindex>1</clipindex>
											<groupindex>1</groupindex>
										</link>
										<logginginfo>
											<description></description>
											<scene>12-01</scene>
											<shottake></shottake>
											<lognote></lognote>
											<good></good>
											<originalvideofilename></originalvideofilename>
											<originalaudiofilename></originalaudiofilename>
										</logginginfo>
										<colorinfo>
											<lut></lut>
											<lut1></lut1>
											<asc_sop></asc_sop>
											<asc_sat></asc_sat>
											<lut2></lut2>
										</colorinfo>
										<labels>
											<label2>Mango</label2>
										</labels>
									</clipitem>
									<clipitem id="clipitem-513" premiereChannelType="mono">
										<masterclipid>masterclip-80</masterclipid>
										<name>12-01-2.WAV</name>
										<enabled>TRUE</enabled>
										<duration>1500</duration>
										<rate>
											<timebase>25</timebase>
											<ntsc>FALSE</ntsc>
										</rate>
										<start>467225</start>
										<end>468725</end>
										<in>0</in>
										<out>1500</out>
										<pproTicksIn>0</pproTicksIn>
										<pproTicksOut>15240960000000</pproTicksOut>
										<file id="file-80"/>
										<sourcetrack>
											<mediatype>audio</mediatype>
											<trackindex>7</trackindex>
										</sourcetrack>
											<marker>
												<comment></comment>
												<name></name>
												<in>726</in>
												<out>-1</out>
											</marker>
										<link>
											<linkclipref>clipitem-381</linkclipref>
											<mediatype>audio</mediatype>
											<trackindex>1</trackindex>
											<clipindex>8</clipindex>
											<groupindex>1</groupindex>
										</link>
										<link>
											<linkclipref>clipitem-405</linkclipref>
											<mediatype>audio</mediatype>
											<trackindex>2</trackindex>
											<clipindex>8</clipindex>
											<groupindex>1</groupindex>
										</link>
										<link>
											<linkclipref>clipitem-429</linkclipref>
											<mediatype>audio</mediatype>
											<trackindex>3</trackindex>
											<clipindex>8</clipindex>
											<groupindex>1</groupindex>
										</link>
										<link>
											<linkclipref>clipitem-453</linkclipref>
											<mediatype>audio</mediatype>
											<trackindex>4</trackindex>
											<clipindex>8</clipindex>
											<groupindex>1</groupindex>
										</link>
										<link>
											<linkclipref>clipitem-477</linkclipref>
											<mediatype>audio</mediatype>
											<trackindex>5</trackindex>
											<clipindex>8</clipindex>
											<groupindex>1</groupindex>
										</link>
										<link>
											<linkclipref>clipitem-498</linkclipref>
											<mediatype>audio</mediatype>
											<trackindex>6</trackindex>
											<clipindex>8</clipindex>
											<groupindex>1</groupindex>
										</link>
										<link>
											<linkclipref>clipitem-513</linkclipref>
											<mediatype>audio</mediatype>
											<trackindex>7</trackindex>
											<clipindex>2</clipindex>
											<groupindex>1</groupindex>
										</link>
										<link>
											<linkclipref>clipitem-525</linkclipref>
											<mediatype>audio</mediatype>
											<trackindex>8</trackindex>
											<clipindex>2</clipindex>
											<groupindex>1</groupindex>
										</link>
										<logginginfo>
											<description></description>
											<scene>12-01</scene>
											<shottake></shottake>
											<lognote></lognote>
											<good></good>
											<originalvideofilename></originalvideofilename>
											<originalaudiofilename></originalaudiofilename>
										</logginginfo>
										<colorinfo>
											<lut></lut>
											<lut1></lut1>
											<asc_sop></asc_sop>
											<asc_sat></asc_sat>
											<lut2></lut2>
										</colorinfo>
										<labels>
											<label2>Mango</label2>
										</labels>
									</clipitem>
									<clipitem id="clipitem-514" premiereChannelType="mono">
										<masterclipid>masterclip-81</masterclipid>
										<name>12-01-3.WAV</name>
										<enabled>TRUE</enabled>
										<duration>3275</duration>
										<rate>
											<timebase>25</timebase>
											<ntsc>FALSE</ntsc>
										</rate>
										<start>469925</start>
										<end>473200</end>
										<in>0</in>
										<out>3275</out>
										<pproTicksIn>0</pproTicksIn>
										<pproTicksOut>33276096000000</pproTicksOut>
										<file id="file-81"/>
										<sourcetrack>
											<mediatype>audio</mediatype>
											<trackindex>7</trackindex>
										</sourcetrack>
										<link>
											<linkclipref>clipitem-382</linkclipref>
											<mediatype>audio</mediatype>
											<trackindex>1</trackindex>
											<clipindex>9</clipindex>
											<groupindex>1</groupindex>
										</link>
										<link>
											<linkclipref>clipitem-406</linkclipref>
											<mediatype>audio</mediatype>
											<trackindex>2</trackindex>
											<clipindex>9</clipindex>
											<groupindex>1</groupindex>
										</link>
										<link>
											<linkclipref>clipitem-430</linkclipref>
											<mediatype>audio</mediatype>
											<trackindex>3</trackindex>
											<clipindex>9</clipindex>
											<groupindex>1</groupindex>
										</link>
										<link>
											<linkclipref>clipitem-454</linkclipref>
											<mediatype>audio</mediatype>
											<trackindex>4</trackindex>
											<clipindex>9</clipindex>
											<groupindex>1</groupindex>
										</link>
										<link>
											<linkclipref>clipitem-478</linkclipref>
											<mediatype>audio</mediatype>
											<trackindex>5</trackindex>
											<clipindex>9</clipindex>
											<groupindex>1</groupindex>
										</link>
										<link>
											<linkclipref>clipitem-499</linkclipref>
											<mediatype>audio</mediatype>
											<trackindex>6</trackindex>
											<clipindex>9</clipindex>
											<groupindex>1</groupindex>
										</link>
										<link>
											<linkclipref>clipitem-514</linkclipref>
											<mediatype>audio</mediatype>
											<trackindex>7</trackindex>
											<clipindex>3</clipindex>
											<groupindex>1</groupindex>
										</link>
										<link>
											<linkclipref>clipitem-526</linkclipref>
											<mediatype>audio</mediatype>
											<trackindex>8</trackindex>
											<clipindex>3</clipindex>
											<groupindex>1</groupindex>
										</link>
										<logginginfo>
											<description></description>
											<scene>12-01</scene>
											<shottake></shottake>
											<lognote></lognote>
											<good></good>
											<originalvideofilename></originalvideofilename>
											<originalaudiofilename></originalaudiofilename>
										</logginginfo>
										<colorinfo>
											<lut></lut>
											<lut1></lut1>
											<asc_sop></asc_sop>
											<asc_sat></asc_sat>
											<lut2></lut2>
										</colorinfo>
										<labels>
											<label2>Mango</label2>
										</labels>
									</clipitem>
									<clipitem id="clipitem-515" premiereChannelType="mono">
										<masterclipid>masterclip-82</masterclipid>
										<name>12-01-4.WAV</name>
										<enabled>TRUE</enabled>
										<duration>3975</duration>
										<rate>
											<timebase>25</timebase>
											<ntsc>FALSE</ntsc>
										</rate>
										<start>474625</start>
										<end>478600</end>
										<in>0</in>
										<out>3975</out>
										<pproTicksIn>0</pproTicksIn>
										<pproTicksOut>40388544000000</pproTicksOut>
										<file id="file-82"/>
										<sourcetrack>
											<mediatype>audio</mediatype>
											<trackindex>7</trackindex>
										</sourcetrack>
										<link>
											<linkclipref>clipitem-383</linkclipref>
											<mediatype>audio</mediatype>
											<trackindex>1</trackindex>
											<clipindex>10</clipindex>
											<groupindex>1</groupindex>
										</link>
										<link>
											<linkclipref>clipitem-407</linkclipref>
											<mediatype>audio</mediatype>
											<trackindex>2</trackindex>
											<clipindex>10</clipindex>
											<groupindex>1</groupindex>
										</link>
										<link>
											<linkclipref>clipitem-431</linkclipref>
											<mediatype>audio</mediatype>
											<trackindex>3</trackindex>
											<clipindex>10</clipindex>
											<groupindex>1</groupindex>
										</link>
										<link>
											<linkclipref>clipitem-455</linkclipref>
											<mediatype>audio</mediatype>
											<trackindex>4</trackindex>
											<clipindex>10</clipindex>
											<groupindex>1</groupindex>
										</link>
										<link>
											<linkclipref>clipitem-479</linkclipref>
											<mediatype>audio</mediatype>
											<trackindex>5</trackindex>
											<clipindex>10</clipindex>
											<groupindex>1</groupindex>
										</link>
										<link>
											<linkclipref>clipitem-500</linkclipref>
											<mediatype>audio</mediatype>
											<trackindex>6</trackindex>
											<clipindex>10</clipindex>
											<groupindex>1</groupindex>
										</link>
										<link>
											<linkclipref>clipitem-515</linkclipref>
											<mediatype>audio</mediatype>
											<trackindex>7</trackindex>
											<clipindex>4</clipindex>
											<groupindex>1</groupindex>
										</link>
										<link>
											<linkclipref>clipitem-527</linkclipref>
											<mediatype>audio</mediatype>
											<trackindex>8</trackindex>
											<clipindex>4</clipindex>
											<groupindex>1</groupindex>
										</link>
										<logginginfo>
											<description></description>
											<scene>12-01</scene>
											<shottake></shottake>
											<lognote></lognote>
											<good></good>
											<originalvideofilename></originalvideofilename>
											<originalaudiofilename></originalaudiofilename>
										</logginginfo>
										<colorinfo>
											<lut></lut>
											<lut1></lut1>
											<asc_sop></asc_sop>
											<asc_sat></asc_sat>
											<lut2></lut2>
										</colorinfo>
										<labels>
											<label2>Mango</label2>
										</labels>
									</clipitem>
									<clipitem id="clipitem-516" premiereChannelType="mono">
										<masterclipid>masterclip-83</masterclipid>
										<name>12-01-5.WAV</name>
										<enabled>TRUE</enabled>
										<duration>3375</duration>
										<rate>
											<timebase>25</timebase>
											<ntsc>FALSE</ntsc>
										</rate>
										<start>481250</start>
										<end>484625</end>
										<in>0</in>
										<out>3375</out>
										<pproTicksIn>0</pproTicksIn>
										<pproTicksOut>34292160000000</pproTicksOut>
										<file id="file-83"/>
										<sourcetrack>
											<mediatype>audio</mediatype>
											<trackindex>7</trackindex>
										</sourcetrack>
										<link>
											<linkclipref>clipitem-384</linkclipref>
											<mediatype>audio</mediatype>
											<trackindex>1</trackindex>
											<clipindex>11</clipindex>
											<groupindex>1</groupindex>
										</link>
										<link>
											<linkclipref>clipitem-408</linkclipref>
											<mediatype>audio</mediatype>
											<trackindex>2</trackindex>
											<clipindex>11</clipindex>
											<groupindex>1</groupindex>
										</link>
										<link>
											<linkclipref>clipitem-432</linkclipref>
											<mediatype>audio</mediatype>
											<trackindex>3</trackindex>
											<clipindex>11</clipindex>
											<groupindex>1</groupindex>
										</link>
										<link>
											<linkclipref>clipitem-456</linkclipref>
											<mediatype>audio</mediatype>
											<trackindex>4</trackindex>
											<clipindex>11</clipindex>
											<groupindex>1</groupindex>
										</link>
										<link>
											<linkclipref>clipitem-480</linkclipref>
											<mediatype>audio</mediatype>
											<trackindex>5</trackindex>
											<clipindex>11</clipindex>
											<groupindex>1</groupindex>
										</link>
										<link>
											<linkclipref>clipitem-501</linkclipref>
											<mediatype>audio</mediatype>
											<trackindex>6</trackindex>
											<clipindex>11</clipindex>
											<groupindex>1</groupindex>
										</link>
										<link>
											<linkclipref>clipitem-516</linkclipref>
											<mediatype>audio</mediatype>
											<trackindex>7</trackindex>
											<clipindex>5</clipindex>
											<groupindex>1</groupindex>
										</link>
										<link>
											<linkclipref>clipitem-528</linkclipref>
											<mediatype>audio</mediatype>
											<trackindex>8</trackindex>
											<clipindex>5</clipindex>
											<groupindex>1</groupindex>
										</link>
										<logginginfo>
											<description></description>
											<scene>12-01</scene>
											<shottake></shottake>
											<lognote></lognote>
											<good></good>
											<originalvideofilename></originalvideofilename>
											<originalaudiofilename></originalaudiofilename>
										</logginginfo>
										<colorinfo>
											<lut></lut>
											<lut1></lut1>
											<asc_sop></asc_sop>
											<asc_sat></asc_sat>
											<lut2></lut2>
										</colorinfo>
										<labels>
											<label2>Mango</label2>
										</labels>
									</clipitem>
									<clipitem id="clipitem-517" premiereChannelType="mono">
										<masterclipid>masterclip-75</masterclipid>
										<name>6-01-1.WAV</name>
										<enabled>TRUE</enabled>
										<duration>4775</duration>
										<rate>
											<timebase>25</timebase>
											<ntsc>FALSE</ntsc>
										</rate>
										<start>769325</start>
										<end>774100</end>
										<in>0</in>
										<out>4775</out>
										<pproTicksIn>0</pproTicksIn>
										<pproTicksOut>48517056000000</pproTicksOut>
										<file id="file-75"/>
										<sourcetrack>
											<mediatype>audio</mediatype>
											<trackindex>7</trackindex>
										</sourcetrack>
										<link>
											<linkclipref>clipitem-387</linkclipref>
											<mediatype>audio</mediatype>
											<trackindex>1</trackindex>
											<clipindex>14</clipindex>
											<groupindex>1</groupindex>
										</link>
										<link>
											<linkclipref>clipitem-411</linkclipref>
											<mediatype>audio</mediatype>
											<trackindex>2</trackindex>
											<clipindex>14</clipindex>
											<groupindex>1</groupindex>
										</link>
										<link>
											<linkclipref>clipitem-435</linkclipref>
											<mediatype>audio</mediatype>
											<trackindex>3</trackindex>
											<clipindex>14</clipindex>
											<groupindex>1</groupindex>
										</link>
										<link>
											<linkclipref>clipitem-459</linkclipref>
											<mediatype>audio</mediatype>
											<trackindex>4</trackindex>
											<clipindex>14</clipindex>
											<groupindex>1</groupindex>
										</link>
										<link>
											<linkclipref>clipitem-483</linkclipref>
											<mediatype>audio</mediatype>
											<trackindex>5</trackindex>
											<clipindex>14</clipindex>
											<groupindex>1</groupindex>
										</link>
										<link>
											<linkclipref>clipitem-504</linkclipref>
											<mediatype>audio</mediatype>
											<trackindex>6</trackindex>
											<clipindex>14</clipindex>
											<groupindex>1</groupindex>
										</link>
										<link>
											<linkclipref>clipitem-517</linkclipref>
											<mediatype>audio</mediatype>
											<trackindex>7</trackindex>
											<clipindex>6</clipindex>
											<groupindex>1</groupindex>
										</link>
										<link>
											<linkclipref>clipitem-529</linkclipref>
											<mediatype>audio</mediatype>
											<trackindex>8</trackindex>
											<clipindex>6</clipindex>
											<groupindex>1</groupindex>
										</link>
										<logginginfo>
											<description></description>
											<scene>6-01</scene>
											<shottake></shottake>
											<lognote></lognote>
											<good></good>
											<originalvideofilename></originalvideofilename>
											<originalaudiofilename></originalaudiofilename>
										</logginginfo>
										<colorinfo>
											<lut></lut>
											<lut1></lut1>
											<asc_sop></asc_sop>
											<asc_sat></asc_sat>
											<lut2></lut2>
										</colorinfo>
										<labels>
											<label2>Mango</label2>
										</labels>
									</clipitem>
									<clipitem id="clipitem-518" premiereChannelType="mono">
										<masterclipid>masterclip-76</masterclipid>
										<name>6-01-2.WAV</name>
										<enabled>TRUE</enabled>
										<duration>4175</duration>
										<rate>
											<timebase>25</timebase>
											<ntsc>FALSE</ntsc>
										</rate>
										<start>791700</start>
										<end>795875</end>
										<in>0</in>
										<out>4175</out>
										<pproTicksIn>0</pproTicksIn>
										<pproTicksOut>42420672000000</pproTicksOut>
										<file id="file-76"/>
										<sourcetrack>
											<mediatype>audio</mediatype>
											<trackindex>7</trackindex>
										</sourcetrack>
										<link>
											<linkclipref>clipitem-388</linkclipref>
											<mediatype>audio</mediatype>
											<trackindex>1</trackindex>
											<clipindex>15</clipindex>
											<groupindex>1</groupindex>
										</link>
										<link>
											<linkclipref>clipitem-412</linkclipref>
											<mediatype>audio</mediatype>
											<trackindex>2</trackindex>
											<clipindex>15</clipindex>
											<groupindex>1</groupindex>
										</link>
										<link>
											<linkclipref>clipitem-436</linkclipref>
											<mediatype>audio</mediatype>
											<trackindex>3</trackindex>
											<clipindex>15</clipindex>
											<groupindex>1</groupindex>
										</link>
										<link>
											<linkclipref>clipitem-460</linkclipref>
											<mediatype>audio</mediatype>
											<trackindex>4</trackindex>
											<clipindex>15</clipindex>
											<groupindex>1</groupindex>
										</link>
										<link>
											<linkclipref>clipitem-484</linkclipref>
											<mediatype>audio</mediatype>
											<trackindex>5</trackindex>
											<clipindex>15</clipindex>
											<groupindex>1</groupindex>
										</link>
										<link>
											<linkclipref>clipitem-505</linkclipref>
											<mediatype>audio</mediatype>
											<trackindex>6</trackindex>
											<clipindex>15</clipindex>
											<groupindex>1</groupindex>
										</link>
										<link>
											<linkclipref>clipitem-518</linkclipref>
											<mediatype>audio</mediatype>
											<trackindex>7</trackindex>
											<clipindex>7</clipindex>
											<groupindex>1</groupindex>
										</link>
										<link>
											<linkclipref>clipitem-530</linkclipref>
											<mediatype>audio</mediatype>
											<trackindex>8</trackindex>
											<clipindex>7</clipindex>
											<groupindex>1</groupindex>
										</link>
										<logginginfo>
											<description></description>
											<scene>6-01</scene>
											<shottake></shottake>
											<lognote></lognote>
											<good></good>
											<originalvideofilename></originalvideofilename>
											<originalaudiofilename></originalaudiofilename>
										</logginginfo>
										<colorinfo>
											<lut></lut>
											<lut1></lut1>
											<asc_sop></asc_sop>
											<asc_sat></asc_sat>
											<lut2></lut2>
										</colorinfo>
										<labels>
											<label2>Mango</label2>
										</labels>
									</clipitem>
									<clipitem id="clipitem-519" premiereChannelType="mono">
										<masterclipid>masterclip-77</masterclipid>
										<name>6-01-3.WAV</name>
										<enabled>TRUE</enabled>
										<duration>4400</duration>
										<rate>
											<timebase>25</timebase>
											<ntsc>FALSE</ntsc>
										</rate>
										<start>801425</start>
										<end>805825</end>
										<in>0</in>
										<out>4400</out>
										<pproTicksIn>0</pproTicksIn>
										<pproTicksOut>44706816000000</pproTicksOut>
										<file id="file-77"/>
										<sourcetrack>
											<mediatype>audio</mediatype>
											<trackindex>7</trackindex>
										</sourcetrack>
										<link>
											<linkclipref>clipitem-389</linkclipref>
											<mediatype>audio</mediatype>
											<trackindex>1</trackindex>
											<clipindex>16</clipindex>
											<groupindex>1</groupindex>
										</link>
										<link>
											<linkclipref>clipitem-413</linkclipref>
											<mediatype>audio</mediatype>
											<trackindex>2</trackindex>
											<clipindex>16</clipindex>
											<groupindex>1</groupindex>
										</link>
										<link>
											<linkclipref>clipitem-437</linkclipref>
											<mediatype>audio</mediatype>
											<trackindex>3</trackindex>
											<clipindex>16</clipindex>
											<groupindex>1</groupindex>
										</link>
										<link>
											<linkclipref>clipitem-461</linkclipref>
											<mediatype>audio</mediatype>
											<trackindex>4</trackindex>
											<clipindex>16</clipindex>
											<groupindex>1</groupindex>
										</link>
										<link>
											<linkclipref>clipitem-485</linkclipref>
											<mediatype>audio</mediatype>
											<trackindex>5</trackindex>
											<clipindex>16</clipindex>
											<groupindex>1</groupindex>
										</link>
										<link>
											<linkclipref>clipitem-506</linkclipref>
											<mediatype>audio</mediatype>
											<trackindex>6</trackindex>
											<clipindex>16</clipindex>
											<groupindex>1</groupindex>
										</link>
										<link>
											<linkclipref>clipitem-519</linkclipref>
											<mediatype>audio</mediatype>
											<trackindex>7</trackindex>
											<clipindex>8</clipindex>
											<groupindex>1</groupindex>
										</link>
										<link>
											<linkclipref>clipitem-531</linkclipref>
											<mediatype>audio</mediatype>
											<trackindex>8</trackindex>
											<clipindex>8</clipindex>
											<groupindex>1</groupindex>
										</link>
										<logginginfo>
											<description></description>
											<scene>6-01</scene>
											<shottake></shottake>
											<lognote></lognote>
											<good></good>
											<originalvideofilename></originalvideofilename>
											<originalaudiofilename></originalaudiofilename>
										</logginginfo>
										<colorinfo>
											<lut></lut>
											<lut1></lut1>
											<asc_sop></asc_sop>
											<asc_sat></asc_sat>
											<lut2></lut2>
										</colorinfo>
										<labels>
											<label2>Mango</label2>
										</labels>
									</clipitem>
									<clipitem id="clipitem-520" premiereChannelType="mono">
										<masterclipid>masterclip-78</masterclipid>
										<name>6-01-4.WAV</name>
										<enabled>TRUE</enabled>
										<duration>5275</duration>
										<rate>
											<timebase>25</timebase>
											<ntsc>FALSE</ntsc>
										</rate>
										<start>811475</start>
										<end>816750</end>
										<in>0</in>
										<out>5275</out>
										<pproTicksIn>0</pproTicksIn>
										<pproTicksOut>53597376000000</pproTicksOut>
										<file id="file-78"/>
										<sourcetrack>
											<mediatype>audio</mediatype>
											<trackindex>7</trackindex>
										</sourcetrack>
										<link>
											<linkclipref>clipitem-390</linkclipref>
											<mediatype>audio</mediatype>
											<trackindex>1</trackindex>
											<clipindex>17</clipindex>
											<groupindex>1</groupindex>
										</link>
										<link>
											<linkclipref>clipitem-414</linkclipref>
											<mediatype>audio</mediatype>
											<trackindex>2</trackindex>
											<clipindex>17</clipindex>
											<groupindex>1</groupindex>
										</link>
										<link>
											<linkclipref>clipitem-438</linkclipref>
											<mediatype>audio</mediatype>
											<trackindex>3</trackindex>
											<clipindex>17</clipindex>
											<groupindex>1</groupindex>
										</link>
										<link>
											<linkclipref>clipitem-462</linkclipref>
											<mediatype>audio</mediatype>
											<trackindex>4</trackindex>
											<clipindex>17</clipindex>
											<groupindex>1</groupindex>
										</link>
										<link>
											<linkclipref>clipitem-486</linkclipref>
											<mediatype>audio</mediatype>
											<trackindex>5</trackindex>
											<clipindex>17</clipindex>
											<groupindex>1</groupindex>
										</link>
										<link>
											<linkclipref>clipitem-507</linkclipref>
											<mediatype>audio</mediatype>
											<trackindex>6</trackindex>
											<clipindex>17</clipindex>
											<groupindex>1</groupindex>
										</link>
										<link>
											<linkclipref>clipitem-520</linkclipref>
											<mediatype>audio</mediatype>
											<trackindex>7</trackindex>
											<clipindex>9</clipindex>
											<groupindex>1</groupindex>
										</link>
										<link>
											<linkclipref>clipitem-532</linkclipref>
											<mediatype>audio</mediatype>
											<trackindex>8</trackindex>
											<clipindex>9</clipindex>
											<groupindex>1</groupindex>
										</link>
										<logginginfo>
											<description></description>
											<scene>6-01</scene>
											<shottake></shottake>
											<lognote></lognote>
											<good></good>
											<originalvideofilename></originalvideofilename>
											<originalaudiofilename></originalaudiofilename>
										</logginginfo>
										<colorinfo>
											<lut></lut>
											<lut1></lut1>
											<asc_sop></asc_sop>
											<asc_sat></asc_sat>
											<lut2></lut2>
										</colorinfo>
										<labels>
											<label2>Mango</label2>
										</labels>
									</clipitem>
									<clipitem id="clipitem-521" premiereChannelType="mono">
										<masterclipid>masterclip-86</masterclipid>
										<name>15-01-1.WAV</name>
										<enabled>TRUE</enabled>
										<duration>3575</duration>
										<rate>
											<timebase>25</timebase>
											<ntsc>FALSE</ntsc>
										</rate>
										<start>910025</start>
										<end>913600</end>
										<in>0</in>
										<out>3575</out>
										<pproTicksIn>0</pproTicksIn>
										<pproTicksOut>36324288000000</pproTicksOut>
										<file id="file-86"/>
										<sourcetrack>
											<mediatype>audio</mediatype>
											<trackindex>7</trackindex>
										</sourcetrack>
										<link>
											<linkclipref>clipitem-391</linkclipref>
											<mediatype>audio</mediatype>
											<trackindex>1</trackindex>
											<clipindex>18</clipindex>
											<groupindex>1</groupindex>
										</link>
										<link>
											<linkclipref>clipitem-415</linkclipref>
											<mediatype>audio</mediatype>
											<trackindex>2</trackindex>
											<clipindex>18</clipindex>
											<groupindex>1</groupindex>
										</link>
										<link>
											<linkclipref>clipitem-439</linkclipref>
											<mediatype>audio</mediatype>
											<trackindex>3</trackindex>
											<clipindex>18</clipindex>
											<groupindex>1</groupindex>
										</link>
										<link>
											<linkclipref>clipitem-463</linkclipref>
											<mediatype>audio</mediatype>
											<trackindex>4</trackindex>
											<clipindex>18</clipindex>
											<groupindex>1</groupindex>
										</link>
										<link>
											<linkclipref>clipitem-487</linkclipref>
											<mediatype>audio</mediatype>
											<trackindex>5</trackindex>
											<clipindex>18</clipindex>
											<groupindex>1</groupindex>
										</link>
										<link>
											<linkclipref>clipitem-508</linkclipref>
											<mediatype>audio</mediatype>
											<trackindex>6</trackindex>
											<clipindex>18</clipindex>
											<groupindex>1</groupindex>
										</link>
										<link>
											<linkclipref>clipitem-521</linkclipref>
											<mediatype>audio</mediatype>
											<trackindex>7</trackindex>
											<clipindex>10</clipindex>
											<groupindex>1</groupindex>
										</link>
										<link>
											<linkclipref>clipitem-533</linkclipref>
											<mediatype>audio</mediatype>
											<trackindex>8</trackindex>
											<clipindex>10</clipindex>
											<groupindex>1</groupindex>
										</link>
										<logginginfo>
											<description></description>
											<scene>15-01</scene>
											<shottake></shottake>
											<lognote></lognote>
											<good></good>
											<originalvideofilename></originalvideofilename>
											<originalaudiofilename></originalaudiofilename>
										</logginginfo>
										<colorinfo>
											<lut></lut>
											<lut1></lut1>
											<asc_sop></asc_sop>
											<asc_sat></asc_sat>
											<lut2></lut2>
										</colorinfo>
										<labels>
											<label2>Mango</label2>
										</labels>
									</clipitem>
									<clipitem id="clipitem-522" premiereChannelType="mono">
										<masterclipid>masterclip-87</masterclipid>
										<name>15-01-2.WAV</name>
										<enabled>TRUE</enabled>
										<duration>4100</duration>
										<rate>
											<timebase>25</timebase>
											<ntsc>FALSE</ntsc>
										</rate>
										<start>916775</start>
										<end>920875</end>
										<in>0</in>
										<out>4100</out>
										<pproTicksIn>0</pproTicksIn>
										<pproTicksOut>41658624000000</pproTicksOut>
										<file id="file-87"/>
										<sourcetrack>
											<mediatype>audio</mediatype>
											<trackindex>7</trackindex>
										</sourcetrack>
										<link>
											<linkclipref>clipitem-392</linkclipref>
											<mediatype>audio</mediatype>
											<trackindex>1</trackindex>
											<clipindex>19</clipindex>
											<groupindex>1</groupindex>
										</link>
										<link>
											<linkclipref>clipitem-416</linkclipref>
											<mediatype>audio</mediatype>
											<trackindex>2</trackindex>
											<clipindex>19</clipindex>
											<groupindex>1</groupindex>
										</link>
										<link>
											<linkclipref>clipitem-440</linkclipref>
											<mediatype>audio</mediatype>
											<trackindex>3</trackindex>
											<clipindex>19</clipindex>
											<groupindex>1</groupindex>
										</link>
										<link>
											<linkclipref>clipitem-464</linkclipref>
											<mediatype>audio</mediatype>
											<trackindex>4</trackindex>
											<clipindex>19</clipindex>
											<groupindex>1</groupindex>
										</link>
										<link>
											<linkclipref>clipitem-488</linkclipref>
											<mediatype>audio</mediatype>
											<trackindex>5</trackindex>
											<clipindex>19</clipindex>
											<groupindex>1</groupindex>
										</link>
										<link>
											<linkclipref>clipitem-509</linkclipref>
											<mediatype>audio</mediatype>
											<trackindex>6</trackindex>
											<clipindex>19</clipindex>
											<groupindex>1</groupindex>
										</link>
										<link>
											<linkclipref>clipitem-522</linkclipref>
											<mediatype>audio</mediatype>
											<trackindex>7</trackindex>
											<clipindex>11</clipindex>
											<groupindex>1</groupindex>
										</link>
										<link>
											<linkclipref>clipitem-534</linkclipref>
											<mediatype>audio</mediatype>
											<trackindex>8</trackindex>
											<clipindex>11</clipindex>
											<groupindex>1</groupindex>
										</link>
										<logginginfo>
											<description></description>
											<scene>15-01</scene>
											<shottake></shottake>
											<lognote></lognote>
											<good></good>
											<originalvideofilename></originalvideofilename>
											<originalaudiofilename></originalaudiofilename>
										</logginginfo>
										<colorinfo>
											<lut></lut>
											<lut1></lut1>
											<asc_sop></asc_sop>
											<asc_sat></asc_sat>
											<lut2></lut2>
										</colorinfo>
										<labels>
											<label2>Mango</label2>
										</labels>
									</clipitem>
									<clipitem id="clipitem-523" premiereChannelType="mono">
										<masterclipid>masterclip-71</masterclipid>
										<name>3-WILD-MOTHER-1.WAV</name>
										<enabled>TRUE</enabled>
										<duration>2375</duration>
										<rate>
											<timebase>25</timebase>
											<ntsc>FALSE</ntsc>
										</rate>
										<start>923950</start>
										<end>926325</end>
										<in>0</in>
										<out>2375</out>
										<pproTicksIn>0</pproTicksIn>
										<pproTicksOut>24131520000000</pproTicksOut>
										<file id="file-71"/>
										<sourcetrack>
											<mediatype>audio</mediatype>
											<trackindex>7</trackindex>
										</sourcetrack>
										<link>
											<linkclipref>clipitem-393</linkclipref>
											<mediatype>audio</mediatype>
											<trackindex>1</trackindex>
											<clipindex>20</clipindex>
											<groupindex>1</groupindex>
										</link>
										<link>
											<linkclipref>clipitem-417</linkclipref>
											<mediatype>audio</mediatype>
											<trackindex>2</trackindex>
											<clipindex>20</clipindex>
											<groupindex>1</groupindex>
										</link>
										<link>
											<linkclipref>clipitem-441</linkclipref>
											<mediatype>audio</mediatype>
											<trackindex>3</trackindex>
											<clipindex>20</clipindex>
											<groupindex>1</groupindex>
										</link>
										<link>
											<linkclipref>clipitem-465</linkclipref>
											<mediatype>audio</mediatype>
											<trackindex>4</trackindex>
											<clipindex>20</clipindex>
											<groupindex>1</groupindex>
										</link>
										<link>
											<linkclipref>clipitem-489</linkclipref>
											<mediatype>audio</mediatype>
											<trackindex>5</trackindex>
											<clipindex>20</clipindex>
											<groupindex>1</groupindex>
										</link>
										<link>
											<linkclipref>clipitem-510</linkclipref>
											<mediatype>audio</mediatype>
											<trackindex>6</trackindex>
											<clipindex>20</clipindex>
											<groupindex>1</groupindex>
										</link>
										<link>
											<linkclipref>clipitem-523</linkclipref>
											<mediatype>audio</mediatype>
											<trackindex>7</trackindex>
											<clipindex>12</clipindex>
											<groupindex>1</groupindex>
										</link>
										<link>
											<linkclipref>clipitem-535</linkclipref>
											<mediatype>audio</mediatype>
											<trackindex>8</trackindex>
											<clipindex>12</clipindex>
											<groupindex>1</groupindex>
										</link>
										<logginginfo>
											<description></description>
											<scene>3-WILD-MOTHER</scene>
											<shottake></shottake>
											<lognote></lognote>
											<good></good>
											<originalvideofilename></originalvideofilename>
											<originalaudiofilename></originalaudiofilename>
										</logginginfo>
										<colorinfo>
											<lut></lut>
											<lut1></lut1>
											<asc_sop></asc_sop>
											<asc_sat></asc_sat>
											<lut2></lut2>
										</colorinfo>
										<labels>
											<label2>Mango</label2>
										</labels>
									</clipitem>
									<enabled>TRUE</enabled>
									<locked>FALSE</locked>
									<outputchannelindex>1</outputchannelindex>
								</track>
								<track TL.SQTrackExpandedHeight="25" TL.SQTrackExpanded="0" MZ.TrackTargeted="0" PannerCurrentValue="0.5" PannerIsInverted="true" PannerStartKeyframe="-91445760000000000,0.5,0,0,0,0,0,0" PannerName="Balance" currentExplodedTrackIndex="0" totalExplodedTrackCount="1" premiereTrackType="Stereo">
									<clipitem id="clipitem-524" premiereChannelType="mono">
										<masterclipid>masterclip-79</masterclipid>
										<name>12-01-1.WAV</name>
										<enabled>TRUE</enabled>
										<duration>3200</duration>
										<rate>
											<timebase>25</timebase>
											<ntsc>FALSE</ntsc>
										</rate>
										<start>458975</start>
										<end>462175</end>
										<in>0</in>
										<out>3200</out>
										<pproTicksIn>0</pproTicksIn>
										<pproTicksOut>32514048000000</pproTicksOut>
										<file id="file-79"/>
										<sourcetrack>
											<mediatype>audio</mediatype>
											<trackindex>8</trackindex>
										</sourcetrack>
											<marker>
												<comment></comment>
												<name></name>
												<in>845</in>
												<out>-1</out>
												<pproColor>4281828977</pproColor>
											</marker>
											<marker>
												<comment></comment>
												<name></name>
												<in>3026</in>
												<out>-1</out>
												<pproColor>4281740498</pproColor>
											</marker>
										<link>
											<linkclipref>clipitem-380</linkclipref>
											<mediatype>audio</mediatype>
											<trackindex>1</trackindex>
											<clipindex>7</clipindex>
											<groupindex>1</groupindex>
										</link>
										<link>
											<linkclipref>clipitem-404</linkclipref>
											<mediatype>audio</mediatype>
											<trackindex>2</trackindex>
											<clipindex>7</clipindex>
											<groupindex>1</groupindex>
										</link>
										<link>
											<linkclipref>clipitem-428</linkclipref>
											<mediatype>audio</mediatype>
											<trackindex>3</trackindex>
											<clipindex>7</clipindex>
											<groupindex>1</groupindex>
										</link>
										<link>
											<linkclipref>clipitem-452</linkclipref>
											<mediatype>audio</mediatype>
											<trackindex>4</trackindex>
											<clipindex>7</clipindex>
											<groupindex>1</groupindex>
										</link>
										<link>
											<linkclipref>clipitem-476</linkclipref>
											<mediatype>audio</mediatype>
											<trackindex>5</trackindex>
											<clipindex>7</clipindex>
											<groupindex>1</groupindex>
										</link>
										<link>
											<linkclipref>clipitem-497</linkclipref>
											<mediatype>audio</mediatype>
											<trackindex>6</trackindex>
											<clipindex>7</clipindex>
											<groupindex>1</groupindex>
										</link>
										<link>
											<linkclipref>clipitem-512</linkclipref>
											<mediatype>audio</mediatype>
											<trackindex>7</trackindex>
											<clipindex>1</clipindex>
											<groupindex>1</groupindex>
										</link>
										<link>
											<linkclipref>clipitem-524</linkclipref>
											<mediatype>audio</mediatype>
											<trackindex>8</trackindex>
											<clipindex>1</clipindex>
											<groupindex>1</groupindex>
										</link>
										<logginginfo>
											<description></description>
											<scene>12-01</scene>
											<shottake></shottake>
											<lognote></lognote>
											<good></good>
											<originalvideofilename></originalvideofilename>
											<originalaudiofilename></originalaudiofilename>
										</logginginfo>
										<colorinfo>
											<lut></lut>
											<lut1></lut1>
											<asc_sop></asc_sop>
											<asc_sat></asc_sat>
											<lut2></lut2>
										</colorinfo>
										<labels>
											<label2>Mango</label2>
										</labels>
									</clipitem>
									<clipitem id="clipitem-525" premiereChannelType="mono">
										<masterclipid>masterclip-80</masterclipid>
										<name>12-01-2.WAV</name>
										<enabled>TRUE</enabled>
										<duration>1500</duration>
										<rate>
											<timebase>25</timebase>
											<ntsc>FALSE</ntsc>
										</rate>
										<start>467225</start>
										<end>468725</end>
										<in>0</in>
										<out>1500</out>
										<pproTicksIn>0</pproTicksIn>
										<pproTicksOut>15240960000000</pproTicksOut>
										<file id="file-80"/>
										<sourcetrack>
											<mediatype>audio</mediatype>
											<trackindex>8</trackindex>
										</sourcetrack>
											<marker>
												<comment></comment>
												<name></name>
												<in>726</in>
												<out>-1</out>
											</marker>
										<link>
											<linkclipref>clipitem-381</linkclipref>
											<mediatype>audio</mediatype>
											<trackindex>1</trackindex>
											<clipindex>8</clipindex>
											<groupindex>1</groupindex>
										</link>
										<link>
											<linkclipref>clipitem-405</linkclipref>
											<mediatype>audio</mediatype>
											<trackindex>2</trackindex>
											<clipindex>8</clipindex>
											<groupindex>1</groupindex>
										</link>
										<link>
											<linkclipref>clipitem-429</linkclipref>
											<mediatype>audio</mediatype>
											<trackindex>3</trackindex>
											<clipindex>8</clipindex>
											<groupindex>1</groupindex>
										</link>
										<link>
											<linkclipref>clipitem-453</linkclipref>
											<mediatype>audio</mediatype>
											<trackindex>4</trackindex>
											<clipindex>8</clipindex>
											<groupindex>1</groupindex>
										</link>
										<link>
											<linkclipref>clipitem-477</linkclipref>
											<mediatype>audio</mediatype>
											<trackindex>5</trackindex>
											<clipindex>8</clipindex>
											<groupindex>1</groupindex>
										</link>
										<link>
											<linkclipref>clipitem-498</linkclipref>
											<mediatype>audio</mediatype>
											<trackindex>6</trackindex>
											<clipindex>8</clipindex>
											<groupindex>1</groupindex>
										</link>
										<link>
											<linkclipref>clipitem-513</linkclipref>
											<mediatype>audio</mediatype>
											<trackindex>7</trackindex>
											<clipindex>2</clipindex>
											<groupindex>1</groupindex>
										</link>
										<link>
											<linkclipref>clipitem-525</linkclipref>
											<mediatype>audio</mediatype>
											<trackindex>8</trackindex>
											<clipindex>2</clipindex>
											<groupindex>1</groupindex>
										</link>
										<logginginfo>
											<description></description>
											<scene>12-01</scene>
											<shottake></shottake>
											<lognote></lognote>
											<good></good>
											<originalvideofilename></originalvideofilename>
											<originalaudiofilename></originalaudiofilename>
										</logginginfo>
										<colorinfo>
											<lut></lut>
											<lut1></lut1>
											<asc_sop></asc_sop>
											<asc_sat></asc_sat>
											<lut2></lut2>
										</colorinfo>
										<labels>
											<label2>Mango</label2>
										</labels>
									</clipitem>
									<clipitem id="clipitem-526" premiereChannelType="mono">
										<masterclipid>masterclip-81</masterclipid>
										<name>12-01-3.WAV</name>
										<enabled>TRUE</enabled>
										<duration>3275</duration>
										<rate>
											<timebase>25</timebase>
											<ntsc>FALSE</ntsc>
										</rate>
										<start>469925</start>
										<end>473200</end>
										<in>0</in>
										<out>3275</out>
										<pproTicksIn>0</pproTicksIn>
										<pproTicksOut>33276096000000</pproTicksOut>
										<file id="file-81"/>
										<sourcetrack>
											<mediatype>audio</mediatype>
											<trackindex>8</trackindex>
										</sourcetrack>
										<link>
											<linkclipref>clipitem-382</linkclipref>
											<mediatype>audio</mediatype>
											<trackindex>1</trackindex>
											<clipindex>9</clipindex>
											<groupindex>1</groupindex>
										</link>
										<link>
											<linkclipref>clipitem-406</linkclipref>
											<mediatype>audio</mediatype>
											<trackindex>2</trackindex>
											<clipindex>9</clipindex>
											<groupindex>1</groupindex>
										</link>
										<link>
											<linkclipref>clipitem-430</linkclipref>
											<mediatype>audio</mediatype>
											<trackindex>3</trackindex>
											<clipindex>9</clipindex>
											<groupindex>1</groupindex>
										</link>
										<link>
											<linkclipref>clipitem-454</linkclipref>
											<mediatype>audio</mediatype>
											<trackindex>4</trackindex>
											<clipindex>9</clipindex>
											<groupindex>1</groupindex>
										</link>
										<link>
											<linkclipref>clipitem-478</linkclipref>
											<mediatype>audio</mediatype>
											<trackindex>5</trackindex>
											<clipindex>9</clipindex>
											<groupindex>1</groupindex>
										</link>
										<link>
											<linkclipref>clipitem-499</linkclipref>
											<mediatype>audio</mediatype>
											<trackindex>6</trackindex>
											<clipindex>9</clipindex>
											<groupindex>1</groupindex>
										</link>
										<link>
											<linkclipref>clipitem-514</linkclipref>
											<mediatype>audio</mediatype>
											<trackindex>7</trackindex>
											<clipindex>3</clipindex>
											<groupindex>1</groupindex>
										</link>
										<link>
											<linkclipref>clipitem-526</linkclipref>
											<mediatype>audio</mediatype>
											<trackindex>8</trackindex>
											<clipindex>3</clipindex>
											<groupindex>1</groupindex>
										</link>
										<logginginfo>
											<description></description>
											<scene>12-01</scene>
											<shottake></shottake>
											<lognote></lognote>
											<good></good>
											<originalvideofilename></originalvideofilename>
											<originalaudiofilename></originalaudiofilename>
										</logginginfo>
										<colorinfo>
											<lut></lut>
											<lut1></lut1>
											<asc_sop></asc_sop>
											<asc_sat></asc_sat>
											<lut2></lut2>
										</colorinfo>
										<labels>
											<label2>Mango</label2>
										</labels>
									</clipitem>
									<clipitem id="clipitem-527" premiereChannelType="mono">
										<masterclipid>masterclip-82</masterclipid>
										<name>12-01-4.WAV</name>
										<enabled>TRUE</enabled>
										<duration>3975</duration>
										<rate>
											<timebase>25</timebase>
											<ntsc>FALSE</ntsc>
										</rate>
										<start>474625</start>
										<end>478600</end>
										<in>0</in>
										<out>3975</out>
										<pproTicksIn>0</pproTicksIn>
										<pproTicksOut>40388544000000</pproTicksOut>
										<file id="file-82"/>
										<sourcetrack>
											<mediatype>audio</mediatype>
											<trackindex>8</trackindex>
										</sourcetrack>
										<link>
											<linkclipref>clipitem-383</linkclipref>
											<mediatype>audio</mediatype>
											<trackindex>1</trackindex>
											<clipindex>10</clipindex>
											<groupindex>1</groupindex>
										</link>
										<link>
											<linkclipref>clipitem-407</linkclipref>
											<mediatype>audio</mediatype>
											<trackindex>2</trackindex>
											<clipindex>10</clipindex>
											<groupindex>1</groupindex>
										</link>
										<link>
											<linkclipref>clipitem-431</linkclipref>
											<mediatype>audio</mediatype>
											<trackindex>3</trackindex>
											<clipindex>10</clipindex>
											<groupindex>1</groupindex>
										</link>
										<link>
											<linkclipref>clipitem-455</linkclipref>
											<mediatype>audio</mediatype>
											<trackindex>4</trackindex>
											<clipindex>10</clipindex>
											<groupindex>1</groupindex>
										</link>
										<link>
											<linkclipref>clipitem-479</linkclipref>
											<mediatype>audio</mediatype>
											<trackindex>5</trackindex>
											<clipindex>10</clipindex>
											<groupindex>1</groupindex>
										</link>
										<link>
											<linkclipref>clipitem-500</linkclipref>
											<mediatype>audio</mediatype>
											<trackindex>6</trackindex>
											<clipindex>10</clipindex>
											<groupindex>1</groupindex>
										</link>
										<link>
											<linkclipref>clipitem-515</linkclipref>
											<mediatype>audio</mediatype>
											<trackindex>7</trackindex>
											<clipindex>4</clipindex>
											<groupindex>1</groupindex>
										</link>
										<link>
											<linkclipref>clipitem-527</linkclipref>
											<mediatype>audio</mediatype>
											<trackindex>8</trackindex>
											<clipindex>4</clipindex>
											<groupindex>1</groupindex>
										</link>
										<logginginfo>
											<description></description>
											<scene>12-01</scene>
											<shottake></shottake>
											<lognote></lognote>
											<good></good>
											<originalvideofilename></originalvideofilename>
											<originalaudiofilename></originalaudiofilename>
										</logginginfo>
										<colorinfo>
											<lut></lut>
											<lut1></lut1>
											<asc_sop></asc_sop>
											<asc_sat></asc_sat>
											<lut2></lut2>
										</colorinfo>
										<labels>
											<label2>Mango</label2>
										</labels>
									</clipitem>
									<clipitem id="clipitem-528" premiereChannelType="mono">
										<masterclipid>masterclip-83</masterclipid>
										<name>12-01-5.WAV</name>
										<enabled>TRUE</enabled>
										<duration>3375</duration>
										<rate>
											<timebase>25</timebase>
											<ntsc>FALSE</ntsc>
										</rate>
										<start>481250</start>
										<end>484625</end>
										<in>0</in>
										<out>3375</out>
										<pproTicksIn>0</pproTicksIn>
										<pproTicksOut>34292160000000</pproTicksOut>
										<file id="file-83"/>
										<sourcetrack>
											<mediatype>audio</mediatype>
											<trackindex>8</trackindex>
										</sourcetrack>
										<link>
											<linkclipref>clipitem-384</linkclipref>
											<mediatype>audio</mediatype>
											<trackindex>1</trackindex>
											<clipindex>11</clipindex>
											<groupindex>1</groupindex>
										</link>
										<link>
											<linkclipref>clipitem-408</linkclipref>
											<mediatype>audio</mediatype>
											<trackindex>2</trackindex>
											<clipindex>11</clipindex>
											<groupindex>1</groupindex>
										</link>
										<link>
											<linkclipref>clipitem-432</linkclipref>
											<mediatype>audio</mediatype>
											<trackindex>3</trackindex>
											<clipindex>11</clipindex>
											<groupindex>1</groupindex>
										</link>
										<link>
											<linkclipref>clipitem-456</linkclipref>
											<mediatype>audio</mediatype>
											<trackindex>4</trackindex>
											<clipindex>11</clipindex>
											<groupindex>1</groupindex>
										</link>
										<link>
											<linkclipref>clipitem-480</linkclipref>
											<mediatype>audio</mediatype>
											<trackindex>5</trackindex>
											<clipindex>11</clipindex>
											<groupindex>1</groupindex>
										</link>
										<link>
											<linkclipref>clipitem-501</linkclipref>
											<mediatype>audio</mediatype>
											<trackindex>6</trackindex>
											<clipindex>11</clipindex>
											<groupindex>1</groupindex>
										</link>
										<link>
											<linkclipref>clipitem-516</linkclipref>
											<mediatype>audio</mediatype>
											<trackindex>7</trackindex>
											<clipindex>5</clipindex>
											<groupindex>1</groupindex>
										</link>
										<link>
											<linkclipref>clipitem-528</linkclipref>
											<mediatype>audio</mediatype>
											<trackindex>8</trackindex>
											<clipindex>5</clipindex>
											<groupindex>1</groupindex>
										</link>
										<logginginfo>
											<description></description>
											<scene>12-01</scene>
											<shottake></shottake>
											<lognote></lognote>
											<good></good>
											<originalvideofilename></originalvideofilename>
											<originalaudiofilename></originalaudiofilename>
										</logginginfo>
										<colorinfo>
											<lut></lut>
											<lut1></lut1>
											<asc_sop></asc_sop>
											<asc_sat></asc_sat>
											<lut2></lut2>
										</colorinfo>
										<labels>
											<label2>Mango</label2>
										</labels>
									</clipitem>
									<clipitem id="clipitem-529" premiereChannelType="mono">
										<masterclipid>masterclip-75</masterclipid>
										<name>6-01-1.WAV</name>
										<enabled>TRUE</enabled>
										<duration>4775</duration>
										<rate>
											<timebase>25</timebase>
											<ntsc>FALSE</ntsc>
										</rate>
										<start>769325</start>
										<end>774100</end>
										<in>0</in>
										<out>4775</out>
										<pproTicksIn>0</pproTicksIn>
										<pproTicksOut>48517056000000</pproTicksOut>
										<file id="file-75"/>
										<sourcetrack>
											<mediatype>audio</mediatype>
											<trackindex>8</trackindex>
										</sourcetrack>
										<link>
											<linkclipref>clipitem-387</linkclipref>
											<mediatype>audio</mediatype>
											<trackindex>1</trackindex>
											<clipindex>14</clipindex>
											<groupindex>1</groupindex>
										</link>
										<link>
											<linkclipref>clipitem-411</linkclipref>
											<mediatype>audio</mediatype>
											<trackindex>2</trackindex>
											<clipindex>14</clipindex>
											<groupindex>1</groupindex>
										</link>
										<link>
											<linkclipref>clipitem-435</linkclipref>
											<mediatype>audio</mediatype>
											<trackindex>3</trackindex>
											<clipindex>14</clipindex>
											<groupindex>1</groupindex>
										</link>
										<link>
											<linkclipref>clipitem-459</linkclipref>
											<mediatype>audio</mediatype>
											<trackindex>4</trackindex>
											<clipindex>14</clipindex>
											<groupindex>1</groupindex>
										</link>
										<link>
											<linkclipref>clipitem-483</linkclipref>
											<mediatype>audio</mediatype>
											<trackindex>5</trackindex>
											<clipindex>14</clipindex>
											<groupindex>1</groupindex>
										</link>
										<link>
											<linkclipref>clipitem-504</linkclipref>
											<mediatype>audio</mediatype>
											<trackindex>6</trackindex>
											<clipindex>14</clipindex>
											<groupindex>1</groupindex>
										</link>
										<link>
											<linkclipref>clipitem-517</linkclipref>
											<mediatype>audio</mediatype>
											<trackindex>7</trackindex>
											<clipindex>6</clipindex>
											<groupindex>1</groupindex>
										</link>
										<link>
											<linkclipref>clipitem-529</linkclipref>
											<mediatype>audio</mediatype>
											<trackindex>8</trackindex>
											<clipindex>6</clipindex>
											<groupindex>1</groupindex>
										</link>
										<logginginfo>
											<description></description>
											<scene>6-01</scene>
											<shottake></shottake>
											<lognote></lognote>
											<good></good>
											<originalvideofilename></originalvideofilename>
											<originalaudiofilename></originalaudiofilename>
										</logginginfo>
										<colorinfo>
											<lut></lut>
											<lut1></lut1>
											<asc_sop></asc_sop>
											<asc_sat></asc_sat>
											<lut2></lut2>
										</colorinfo>
										<labels>
											<label2>Mango</label2>
										</labels>
									</clipitem>
									<clipitem id="clipitem-530" premiereChannelType="mono">
										<masterclipid>masterclip-76</masterclipid>
										<name>6-01-2.WAV</name>
										<enabled>TRUE</enabled>
										<duration>4175</duration>
										<rate>
											<timebase>25</timebase>
											<ntsc>FALSE</ntsc>
										</rate>
										<start>791700</start>
										<end>795875</end>
										<in>0</in>
										<out>4175</out>
										<pproTicksIn>0</pproTicksIn>
										<pproTicksOut>42420672000000</pproTicksOut>
										<file id="file-76"/>
										<sourcetrack>
											<mediatype>audio</mediatype>
											<trackindex>8</trackindex>
										</sourcetrack>
										<link>
											<linkclipref>clipitem-388</linkclipref>
											<mediatype>audio</mediatype>
											<trackindex>1</trackindex>
											<clipindex>15</clipindex>
											<groupindex>1</groupindex>
										</link>
										<link>
											<linkclipref>clipitem-412</linkclipref>
											<mediatype>audio</mediatype>
											<trackindex>2</trackindex>
											<clipindex>15</clipindex>
											<groupindex>1</groupindex>
										</link>
										<link>
											<linkclipref>clipitem-436</linkclipref>
											<mediatype>audio</mediatype>
											<trackindex>3</trackindex>
											<clipindex>15</clipindex>
											<groupindex>1</groupindex>
										</link>
										<link>
											<linkclipref>clipitem-460</linkclipref>
											<mediatype>audio</mediatype>
											<trackindex>4</trackindex>
											<clipindex>15</clipindex>
											<groupindex>1</groupindex>
										</link>
										<link>
											<linkclipref>clipitem-484</linkclipref>
											<mediatype>audio</mediatype>
											<trackindex>5</trackindex>
											<clipindex>15</clipindex>
											<groupindex>1</groupindex>
										</link>
										<link>
											<linkclipref>clipitem-505</linkclipref>
											<mediatype>audio</mediatype>
											<trackindex>6</trackindex>
											<clipindex>15</clipindex>
											<groupindex>1</groupindex>
										</link>
										<link>
											<linkclipref>clipitem-518</linkclipref>
											<mediatype>audio</mediatype>
											<trackindex>7</trackindex>
											<clipindex>7</clipindex>
											<groupindex>1</groupindex>
										</link>
										<link>
											<linkclipref>clipitem-530</linkclipref>
											<mediatype>audio</mediatype>
											<trackindex>8</trackindex>
											<clipindex>7</clipindex>
											<groupindex>1</groupindex>
										</link>
										<logginginfo>
											<description></description>
											<scene>6-01</scene>
											<shottake></shottake>
											<lognote></lognote>
											<good></good>
											<originalvideofilename></originalvideofilename>
											<originalaudiofilename></originalaudiofilename>
										</logginginfo>
										<colorinfo>
											<lut></lut>
											<lut1></lut1>
											<asc_sop></asc_sop>
											<asc_sat></asc_sat>
											<lut2></lut2>
										</colorinfo>
										<labels>
											<label2>Mango</label2>
										</labels>
									</clipitem>
									<clipitem id="clipitem-531" premiereChannelType="mono">
										<masterclipid>masterclip-77</masterclipid>
										<name>6-01-3.WAV</name>
										<enabled>TRUE</enabled>
										<duration>4400</duration>
										<rate>
											<timebase>25</timebase>
											<ntsc>FALSE</ntsc>
										</rate>
										<start>801425</start>
										<end>805825</end>
										<in>0</in>
										<out>4400</out>
										<pproTicksIn>0</pproTicksIn>
										<pproTicksOut>44706816000000</pproTicksOut>
										<file id="file-77"/>
										<sourcetrack>
											<mediatype>audio</mediatype>
											<trackindex>8</trackindex>
										</sourcetrack>
										<link>
											<linkclipref>clipitem-389</linkclipref>
											<mediatype>audio</mediatype>
											<trackindex>1</trackindex>
											<clipindex>16</clipindex>
											<groupindex>1</groupindex>
										</link>
										<link>
											<linkclipref>clipitem-413</linkclipref>
											<mediatype>audio</mediatype>
											<trackindex>2</trackindex>
											<clipindex>16</clipindex>
											<groupindex>1</groupindex>
										</link>
										<link>
											<linkclipref>clipitem-437</linkclipref>
											<mediatype>audio</mediatype>
											<trackindex>3</trackindex>
											<clipindex>16</clipindex>
											<groupindex>1</groupindex>
										</link>
										<link>
											<linkclipref>clipitem-461</linkclipref>
											<mediatype>audio</mediatype>
											<trackindex>4</trackindex>
											<clipindex>16</clipindex>
											<groupindex>1</groupindex>
										</link>
										<link>
											<linkclipref>clipitem-485</linkclipref>
											<mediatype>audio</mediatype>
											<trackindex>5</trackindex>
											<clipindex>16</clipindex>
											<groupindex>1</groupindex>
										</link>
										<link>
											<linkclipref>clipitem-506</linkclipref>
											<mediatype>audio</mediatype>
											<trackindex>6</trackindex>
											<clipindex>16</clipindex>
											<groupindex>1</groupindex>
										</link>
										<link>
											<linkclipref>clipitem-519</linkclipref>
											<mediatype>audio</mediatype>
											<trackindex>7</trackindex>
											<clipindex>8</clipindex>
											<groupindex>1</groupindex>
										</link>
										<link>
											<linkclipref>clipitem-531</linkclipref>
											<mediatype>audio</mediatype>
											<trackindex>8</trackindex>
											<clipindex>8</clipindex>
											<groupindex>1</groupindex>
										</link>
										<logginginfo>
											<description></description>
											<scene>6-01</scene>
											<shottake></shottake>
											<lognote></lognote>
											<good></good>
											<originalvideofilename></originalvideofilename>
											<originalaudiofilename></originalaudiofilename>
										</logginginfo>
										<colorinfo>
											<lut></lut>
											<lut1></lut1>
											<asc_sop></asc_sop>
											<asc_sat></asc_sat>
											<lut2></lut2>
										</colorinfo>
										<labels>
											<label2>Mango</label2>
										</labels>
									</clipitem>
									<clipitem id="clipitem-532" premiereChannelType="mono">
										<masterclipid>masterclip-78</masterclipid>
										<name>6-01-4.WAV</name>
										<enabled>TRUE</enabled>
										<duration>5275</duration>
										<rate>
											<timebase>25</timebase>
											<ntsc>FALSE</ntsc>
										</rate>
										<start>811475</start>
										<end>816750</end>
										<in>0</in>
										<out>5275</out>
										<pproTicksIn>0</pproTicksIn>
										<pproTicksOut>53597376000000</pproTicksOut>
										<file id="file-78"/>
										<sourcetrack>
											<mediatype>audio</mediatype>
											<trackindex>8</trackindex>
										</sourcetrack>
										<link>
											<linkclipref>clipitem-390</linkclipref>
											<mediatype>audio</mediatype>
											<trackindex>1</trackindex>
											<clipindex>17</clipindex>
											<groupindex>1</groupindex>
										</link>
										<link>
											<linkclipref>clipitem-414</linkclipref>
											<mediatype>audio</mediatype>
											<trackindex>2</trackindex>
											<clipindex>17</clipindex>
											<groupindex>1</groupindex>
										</link>
										<link>
											<linkclipref>clipitem-438</linkclipref>
											<mediatype>audio</mediatype>
											<trackindex>3</trackindex>
											<clipindex>17</clipindex>
											<groupindex>1</groupindex>
										</link>
										<link>
											<linkclipref>clipitem-462</linkclipref>
											<mediatype>audio</mediatype>
											<trackindex>4</trackindex>
											<clipindex>17</clipindex>
											<groupindex>1</groupindex>
										</link>
										<link>
											<linkclipref>clipitem-486</linkclipref>
											<mediatype>audio</mediatype>
											<trackindex>5</trackindex>
											<clipindex>17</clipindex>
											<groupindex>1</groupindex>
										</link>
										<link>
											<linkclipref>clipitem-507</linkclipref>
											<mediatype>audio</mediatype>
											<trackindex>6</trackindex>
											<clipindex>17</clipindex>
											<groupindex>1</groupindex>
										</link>
										<link>
											<linkclipref>clipitem-520</linkclipref>
											<mediatype>audio</mediatype>
											<trackindex>7</trackindex>
											<clipindex>9</clipindex>
											<groupindex>1</groupindex>
										</link>
										<link>
											<linkclipref>clipitem-532</linkclipref>
											<mediatype>audio</mediatype>
											<trackindex>8</trackindex>
											<clipindex>9</clipindex>
											<groupindex>1</groupindex>
										</link>
										<logginginfo>
											<description></description>
											<scene>6-01</scene>
											<shottake></shottake>
											<lognote></lognote>
											<good></good>
											<originalvideofilename></originalvideofilename>
											<originalaudiofilename></originalaudiofilename>
										</logginginfo>
										<colorinfo>
											<lut></lut>
											<lut1></lut1>
											<asc_sop></asc_sop>
											<asc_sat></asc_sat>
											<lut2></lut2>
										</colorinfo>
										<labels>
											<label2>Mango</label2>
										</labels>
									</clipitem>
									<clipitem id="clipitem-533" premiereChannelType="mono">
										<masterclipid>masterclip-86</masterclipid>
										<name>15-01-1.WAV</name>
										<enabled>TRUE</enabled>
										<duration>3575</duration>
										<rate>
											<timebase>25</timebase>
											<ntsc>FALSE</ntsc>
										</rate>
										<start>910025</start>
										<end>913600</end>
										<in>0</in>
										<out>3575</out>
										<pproTicksIn>0</pproTicksIn>
										<pproTicksOut>36324288000000</pproTicksOut>
										<file id="file-86"/>
										<sourcetrack>
											<mediatype>audio</mediatype>
											<trackindex>8</trackindex>
										</sourcetrack>
										<link>
											<linkclipref>clipitem-391</linkclipref>
											<mediatype>audio</mediatype>
											<trackindex>1</trackindex>
											<clipindex>18</clipindex>
											<groupindex>1</groupindex>
										</link>
										<link>
											<linkclipref>clipitem-415</linkclipref>
											<mediatype>audio</mediatype>
											<trackindex>2</trackindex>
											<clipindex>18</clipindex>
											<groupindex>1</groupindex>
										</link>
										<link>
											<linkclipref>clipitem-439</linkclipref>
											<mediatype>audio</mediatype>
											<trackindex>3</trackindex>
											<clipindex>18</clipindex>
											<groupindex>1</groupindex>
										</link>
										<link>
											<linkclipref>clipitem-463</linkclipref>
											<mediatype>audio</mediatype>
											<trackindex>4</trackindex>
											<clipindex>18</clipindex>
											<groupindex>1</groupindex>
										</link>
										<link>
											<linkclipref>clipitem-487</linkclipref>
											<mediatype>audio</mediatype>
											<trackindex>5</trackindex>
											<clipindex>18</clipindex>
											<groupindex>1</groupindex>
										</link>
										<link>
											<linkclipref>clipitem-508</linkclipref>
											<mediatype>audio</mediatype>
											<trackindex>6</trackindex>
											<clipindex>18</clipindex>
											<groupindex>1</groupindex>
										</link>
										<link>
											<linkclipref>clipitem-521</linkclipref>
											<mediatype>audio</mediatype>
											<trackindex>7</trackindex>
											<clipindex>10</clipindex>
											<groupindex>1</groupindex>
										</link>
										<link>
											<linkclipref>clipitem-533</linkclipref>
											<mediatype>audio</mediatype>
											<trackindex>8</trackindex>
											<clipindex>10</clipindex>
											<groupindex>1</groupindex>
										</link>
										<logginginfo>
											<description></description>
											<scene>15-01</scene>
											<shottake></shottake>
											<lognote></lognote>
											<good></good>
											<originalvideofilename></originalvideofilename>
											<originalaudiofilename></originalaudiofilename>
										</logginginfo>
										<colorinfo>
											<lut></lut>
											<lut1></lut1>
											<asc_sop></asc_sop>
											<asc_sat></asc_sat>
											<lut2></lut2>
										</colorinfo>
										<labels>
											<label2>Mango</label2>
										</labels>
									</clipitem>
									<clipitem id="clipitem-534" premiereChannelType="mono">
										<masterclipid>masterclip-87</masterclipid>
										<name>15-01-2.WAV</name>
										<enabled>TRUE</enabled>
										<duration>4100</duration>
										<rate>
											<timebase>25</timebase>
											<ntsc>FALSE</ntsc>
										</rate>
										<start>916775</start>
										<end>920875</end>
										<in>0</in>
										<out>4100</out>
										<pproTicksIn>0</pproTicksIn>
										<pproTicksOut>41658624000000</pproTicksOut>
										<file id="file-87"/>
										<sourcetrack>
											<mediatype>audio</mediatype>
											<trackindex>8</trackindex>
										</sourcetrack>
										<link>
											<linkclipref>clipitem-392</linkclipref>
											<mediatype>audio</mediatype>
											<trackindex>1</trackindex>
											<clipindex>19</clipindex>
											<groupindex>1</groupindex>
										</link>
										<link>
											<linkclipref>clipitem-416</linkclipref>
											<mediatype>audio</mediatype>
											<trackindex>2</trackindex>
											<clipindex>19</clipindex>
											<groupindex>1</groupindex>
										</link>
										<link>
											<linkclipref>clipitem-440</linkclipref>
											<mediatype>audio</mediatype>
											<trackindex>3</trackindex>
											<clipindex>19</clipindex>
											<groupindex>1</groupindex>
										</link>
										<link>
											<linkclipref>clipitem-464</linkclipref>
											<mediatype>audio</mediatype>
											<trackindex>4</trackindex>
											<clipindex>19</clipindex>
											<groupindex>1</groupindex>
										</link>
										<link>
											<linkclipref>clipitem-488</linkclipref>
											<mediatype>audio</mediatype>
											<trackindex>5</trackindex>
											<clipindex>19</clipindex>
											<groupindex>1</groupindex>
										</link>
										<link>
											<linkclipref>clipitem-509</linkclipref>
											<mediatype>audio</mediatype>
											<trackindex>6</trackindex>
											<clipindex>19</clipindex>
											<groupindex>1</groupindex>
										</link>
										<link>
											<linkclipref>clipitem-522</linkclipref>
											<mediatype>audio</mediatype>
											<trackindex>7</trackindex>
											<clipindex>11</clipindex>
											<groupindex>1</groupindex>
										</link>
										<link>
											<linkclipref>clipitem-534</linkclipref>
											<mediatype>audio</mediatype>
											<trackindex>8</trackindex>
											<clipindex>11</clipindex>
											<groupindex>1</groupindex>
										</link>
										<logginginfo>
											<description></description>
											<scene>15-01</scene>
											<shottake></shottake>
											<lognote></lognote>
											<good></good>
											<originalvideofilename></originalvideofilename>
											<originalaudiofilename></originalaudiofilename>
										</logginginfo>
										<colorinfo>
											<lut></lut>
											<lut1></lut1>
											<asc_sop></asc_sop>
											<asc_sat></asc_sat>
											<lut2></lut2>
										</colorinfo>
										<labels>
											<label2>Mango</label2>
										</labels>
									</clipitem>
									<clipitem id="clipitem-535" premiereChannelType="mono">
										<masterclipid>masterclip-71</masterclipid>
										<name>3-WILD-MOTHER-1.WAV</name>
										<enabled>TRUE</enabled>
										<duration>2375</duration>
										<rate>
											<timebase>25</timebase>
											<ntsc>FALSE</ntsc>
										</rate>
										<start>923950</start>
										<end>926325</end>
										<in>0</in>
										<out>2375</out>
										<pproTicksIn>0</pproTicksIn>
										<pproTicksOut>24131520000000</pproTicksOut>
										<file id="file-71"/>
										<sourcetrack>
											<mediatype>audio</mediatype>
											<trackindex>8</trackindex>
										</sourcetrack>
										<link>
											<linkclipref>clipitem-393</linkclipref>
											<mediatype>audio</mediatype>
											<trackindex>1</trackindex>
											<clipindex>20</clipindex>
											<groupindex>1</groupindex>
										</link>
										<link>
											<linkclipref>clipitem-417</linkclipref>
											<mediatype>audio</mediatype>
											<trackindex>2</trackindex>
											<clipindex>20</clipindex>
											<groupindex>1</groupindex>
										</link>
										<link>
											<linkclipref>clipitem-441</linkclipref>
											<mediatype>audio</mediatype>
											<trackindex>3</trackindex>
											<clipindex>20</clipindex>
											<groupindex>1</groupindex>
										</link>
										<link>
											<linkclipref>clipitem-465</linkclipref>
											<mediatype>audio</mediatype>
											<trackindex>4</trackindex>
											<clipindex>20</clipindex>
											<groupindex>1</groupindex>
										</link>
										<link>
											<linkclipref>clipitem-489</linkclipref>
											<mediatype>audio</mediatype>
											<trackindex>5</trackindex>
											<clipindex>20</clipindex>
											<groupindex>1</groupindex>
										</link>
										<link>
											<linkclipref>clipitem-510</linkclipref>
											<mediatype>audio</mediatype>
											<trackindex>6</trackindex>
											<clipindex>20</clipindex>
											<groupindex>1</groupindex>
										</link>
										<link>
											<linkclipref>clipitem-523</linkclipref>
											<mediatype>audio</mediatype>
											<trackindex>7</trackindex>
											<clipindex>12</clipindex>
											<groupindex>1</groupindex>
										</link>
										<link>
											<linkclipref>clipitem-535</linkclipref>
											<mediatype>audio</mediatype>
											<trackindex>8</trackindex>
											<clipindex>12</clipindex>
											<groupindex>1</groupindex>
										</link>
										<logginginfo>
											<description></description>
											<scene>3-WILD-MOTHER</scene>
											<shottake></shottake>
											<lognote></lognote>
											<good></good>
											<originalvideofilename></originalvideofilename>
											<originalaudiofilename></originalaudiofilename>
										</logginginfo>
										<colorinfo>
											<lut></lut>
											<lut1></lut1>
											<asc_sop></asc_sop>
											<asc_sat></asc_sat>
											<lut2></lut2>
										</colorinfo>
										<labels>
											<label2>Mango</label2>
										</labels>
									</clipitem>
									<enabled>TRUE</enabled>
									<locked>FALSE</locked>
									<outputchannelindex>2</outputchannelindex>
								</track>
							</audio>
						</media>
						<timecode>
							<rate>
								<timebase>25</timebase>
								<ntsc>FALSE</ntsc>
							</rate>
							<string>08:33:47:00</string>
							<frame>770675</frame>
							<displayformat>NDF</displayformat>
						</timecode>
						<labels>
							<label2>Forest</label2>
						</labels>
						<logginginfo>
							<description></description>
							<scene></scene>
							<shottake></shottake>
							<lognote></lognote>
							<good></good>
							<originalvideofilename></originalvideofilename>
							<originalaudiofilename></originalaudiofilename>
						</logginginfo>
					</sequence>
				</children>
			</bin>
			<bin>
				<name>BIN_LAYERS</name>
				<labels>
					<label2>Mango</label2>
				</labels>
				<children>
					<clip id="masterclip-89" explodedTracks="true">
						<uuid>edd7718b-1ea6-40d9-84c9-ab8b90d4d739</uuid>
						<masterclipid>masterclip-89</masterclipid>
						<ismasterclip>TRUE</ismasterclip>
						<duration>150</duration>
						<rate>
							<timebase>30</timebase>
							<ntsc>TRUE</ntsc>
						</rate>
						<in>0</in>
						<out>1080000</out>
						<name>Transparent Video</name>
						<media>
							<video>
								<track>
									<clipitem id="clipitem-536">
										<masterclipid>masterclip-89</masterclipid>
										<name>Transparent Video</name>
										<rate>
											<timebase>30</timebase>
											<ntsc>TRUE</ntsc>
										</rate>
										<alphatype>straight</alphatype>
										<file id="file-89"/>
									</clipitem>
								</track>
							</video>
						</media>
						<logginginfo>
							<description></description>
							<scene></scene>
							<shottake></shottake>
							<lognote></lognote>
							<good></good>
							<originalvideofilename></originalvideofilename>
							<originalaudiofilename></originalaudiofilename>
						</logginginfo>
						<colorinfo>
							<lut></lut>
							<lut1></lut1>
							<asc_sop></asc_sop>
							<asc_sat></asc_sat>
							<lut2></lut2>
						</colorinfo>
						<labels>
							<label2>Lavender</label2>
						</labels>
					</clip>
				</children>
			</bin>
		</children>
	</project>
</xmeml>
