<?xml version="1.0" encoding="UTF-8"?><!DOCTYPE xmeml><xmeml version="4">	<bin>		<name>TimecodeTools_autoseq_5</name>		<labels>			<label2>Mango</label2>		</labels>		<children>			<bin>				<name>Bin1</name>				<labels>					<label2>Mango</label2>				</labels>				<children>					<clip id="masterclip-1" explodedTracks="true">					<masterclipid>masterclip-1</masterclipid>					<ismasterclip>TRUE</ismasterclip>					<duration>1575</duration>					<rate>						<timebase>25</timebase>						<ntsc>FALSE</ntsc>					</rate>						<in>0</in>						<out>1575</out>					<name>130619_005</name>					<media>						<audio>							<track>									<clipitem id="clipitem-1">									<masterclipid>masterclip-1</masterclipid>									<name>130619_005</name>									<rate>										<timebase>25</timebase>										<ntsc>FALSE</ntsc>									</rate>										<file id="file-1">										<name>130619_005</name>											<pathurl>file://localhost/S%3a/Projects/HAZEN_ALPHA/AUDIO/F8_SD2/130619/130619_005.WAV</pathurl>										<rate>											<timebase>25</timebase>											<ntsc>FALSE</ntsc>										</rate>										<media>											<audio>												<channelcount>1</channelcount>												<audiochannel>													<sourcechannel>1</sourcechannel>												</audiochannel>											</audio>											<audio>												<channelcount>1</channelcount>												<audiochannel>													<sourcechannel>2</sourcechannel>												</audiochannel>											</audio>											<audio>												<channelcount>1</channelcount>												<audiochannel>													<sourcechannel>3</sourcechannel>												</audiochannel>											</audio>											<audio>												<channelcount>1</channelcount>												<audiochannel>													<sourcechannel>4</sourcechannel>												</audiochannel>											</audio>										</media>									</file>								</clipitem>							</track>						</audio>					</media>					<logginginfo>						<description></description>						<scene></scene>						<shottake></shottake>						<lognote></lognote>					</logginginfo>					<labels>						<label2>Caribbean</label2>					</labels>				</clip>					<clip id="masterclip-2" explodedTracks="true">					<masterclipid>masterclip-2</masterclipid>					<ismasterclip>TRUE</ismasterclip>					<duration>1200</duration>					<rate>						<timebase>25</timebase>						<ntsc>FALSE</ntsc>					</rate>						<in>0</in>						<out>1200</out>					<name>130619_001</name>					<media>						<audio>							<track>									<clipitem id="clipitem-2">									<masterclipid>masterclip-2</masterclipid>									<name>130619_001</name>									<rate>										<timebase>25</timebase>										<ntsc>FALSE</ntsc>									</rate>										<file id="file-2">										<name>130619_001</name>											<pathurl>file://localhost/S%3a/Projects/HAZEN_ALPHA/AUDIO/F8_SD2/130619/130619_001.WAV</pathurl>										<rate>											<timebase>25</timebase>											<ntsc>FALSE</ntsc>										</rate>										<media>											<audio>												<channelcount>1</channelcount>												<audiochannel>													<sourcechannel>1</sourcechannel>												</audiochannel>											</audio>											<audio>												<channelcount>1</channelcount>												<audiochannel>													<sourcechannel>2</sourcechannel>												</audiochannel>											</audio>											<audio>												<channelcount>1</channelcount>												<audiochannel>													<sourcechannel>3</sourcechannel>												</audiochannel>											</audio>											<audio>												<channelcount>1</channelcount>												<audiochannel>													<sourcechannel>4</sourcechannel>												</audiochannel>											</audio>										</media>									</file>								</clipitem>							</track>						</audio>					</media>					<logginginfo>						<description></description>						<scene></scene>						<shottake></shottake>						<lognote></lognote>					</logginginfo>					<labels>						<label2>Caribbean</label2>					</labels>				</clip>					<clip id="masterclip-3" explodedTracks="true">					<masterclipid>masterclip-3</masterclipid>					<ismasterclip>TRUE</ismasterclip>					<duration>1200</duration>					<rate>						<timebase>25</timebase>						<ntsc>FALSE</ntsc>					</rate>						<in>0</in>						<out>1200</out>					<name>130619_002</name>					<media>						<audio>							<track>									<clipitem id="clipitem-3">									<masterclipid>masterclip-3</masterclipid>									<name>130619_002</name>									<rate>										<timebase>25</timebase>										<ntsc>FALSE</ntsc>									</rate>										<file id="file-3">										<name>130619_002</name>											<pathurl>file://localhost/S%3a/Projects/HAZEN_ALPHA/AUDIO/F8_SD2/130619/130619_002.WAV</pathurl>										<rate>											<timebase>25</timebase>											<ntsc>FALSE</ntsc>										</rate>										<media>											<audio>												<channelcount>1</channelcount>												<audiochannel>													<sourcechannel>1</sourcechannel>												</audiochannel>											</audio>											<audio>												<channelcount>1</channelcount>												<audiochannel>													<sourcechannel>2</sourcechannel>												</audiochannel>											</audio>											<audio>												<channelcount>1</channelcount>												<audiochannel>													<sourcechannel>3</sourcechannel>												</audiochannel>											</audio>											<audio>												<channelcount>1</channelcount>												<audiochannel>													<sourcechannel>4</sourcechannel>												</audiochannel>											</audio>										</media>									</file>								</clipitem>							</track>						</audio>					</media>					<logginginfo>						<description></description>						<scene></scene>						<shottake></shottake>						<lognote></lognote>					</logginginfo>					<labels>						<label2>Caribbean</label2>					</labels>				</clip>					<clip id="masterclip-4" explodedTracks="true">					<masterclipid>masterclip-4</masterclipid>					<ismasterclip>TRUE</ismasterclip>					<duration>1975</duration>					<rate>						<timebase>25</timebase>						<ntsc>FALSE</ntsc>					</rate>						<in>0</in>						<out>1975</out>					<name>130619_003</name>					<media>						<audio>							<track>									<clipitem id="clipitem-4">									<masterclipid>masterclip-4</masterclipid>									<name>130619_003</name>									<rate>										<timebase>25</timebase>										<ntsc>FALSE</ntsc>									</rate>										<file id="file-4">										<name>130619_003</name>											<pathurl>file://localhost/S%3a/Projects/HAZEN_ALPHA/AUDIO/F8_SD2/130619/130619_003.WAV</pathurl>										<rate>											<timebase>25</timebase>											<ntsc>FALSE</ntsc>										</rate>										<media>											<audio>												<channelcount>1</channelcount>												<audiochannel>													<sourcechannel>1</sourcechannel>												</audiochannel>											</audio>											<audio>												<channelcount>1</channelcount>												<audiochannel>													<sourcechannel>2</sourcechannel>												</audiochannel>											</audio>											<audio>												<channelcount>1</channelcount>												<audiochannel>													<sourcechannel>3</sourcechannel>												</audiochannel>											</audio>											<audio>												<channelcount>1</channelcount>												<audiochannel>													<sourcechannel>4</sourcechannel>												</audiochannel>											</audio>										</media>									</file>								</clipitem>							</track>						</audio>					</media>					<logginginfo>						<description></description>						<scene></scene>						<shottake></shottake>						<lognote></lognote>					</logginginfo>					<labels>						<label2>Caribbean</label2>					</labels>				</clip>					<clip id="masterclip-5" explodedTracks="true">					<masterclipid>masterclip-5</masterclipid>					<ismasterclip>TRUE</ismasterclip>					<duration>3325</duration>					<rate>						<timebase>25</timebase>						<ntsc>FALSE</ntsc>					</rate>						<in>0</in>						<out>3325</out>					<name>130619_004</name>					<media>						<audio>							<track>									<clipitem id="clipitem-5">									<masterclipid>masterclip-5</masterclipid>									<name>130619_004</name>									<rate>										<timebase>25</timebase>										<ntsc>FALSE</ntsc>									</rate>										<file id="file-5">										<name>130619_004</name>											<pathurl>file://localhost/S%3a/Projects/HAZEN_ALPHA/AUDIO/F8_SD2/130619/130619_004.WAV</pathurl>										<rate>											<timebase>25</timebase>											<ntsc>FALSE</ntsc>										</rate>										<media>											<audio>												<channelcount>1</channelcount>												<audiochannel>													<sourcechannel>1</sourcechannel>												</audiochannel>											</audio>											<audio>												<channelcount>1</channelcount>												<audiochannel>													<sourcechannel>2</sourcechannel>												</audiochannel>											</audio>											<audio>												<channelcount>1</channelcount>												<audiochannel>													<sourcechannel>3</sourcechannel>												</audiochannel>											</audio>											<audio>												<channelcount>1</channelcount>												<audiochannel>													<sourcechannel>4</sourcechannel>												</audiochannel>											</audio>										</media>									</file>								</clipitem>							</track>						</audio>					</media>					<logginginfo>						<description></description>						<scene></scene>						<shottake></shottake>						<lognote></lognote>					</logginginfo>					<labels>						<label2>Caribbean</label2>					</labels>				</clip>				</children>			</bin>			<bin>				<name>Bin2</name>				<labels>					<label2>Mango</label2>				</labels>				<children>					<clip id="masterclip-6" explodedTracks="true">						<masterclipid>masterclip-6</masterclipid>						<ismasterclip>TRUE</ismasterclip>						<duration>601</duration>						<rate>							<timebase>25</timebase>							<ntsc>FALSE</ntsc>						</rate>						<in>0</in>						<out>601</out>						<name>A001_06071243_C005</name>						<media>							<video>								<track>									<clipitem id="clipitem-6">										<masterclipid>masterclip-6</masterclipid>										<name>A001_06071243_C005</name>										<rate>											<timebase>25</timebase>											<ntsc>FALSE</ntsc>										</rate>										<alphatype>none</alphatype>										<pixelaspectratio>square</pixelaspectratio>										<anamorphic>FALSE</anamorphic>										<file id="file-6">											<name>A001_06071243_C005</name>											<pathurl>file://localhost/Q%3a/Projects/HAZEN_ALPHA/MEDIA_OCM/DAY%201/A001_06071243_C005.mov</pathurl>											<rate>												<timebase>25</timebase>												<ntsc>FALSE</ntsc>											</rate>											<media>												<video>												</video>												<audio>												</audio>											</media>										</file>									</clipitem>								</track>							</video>   						</media>						<logginginfo>							<description></description>							<scene></scene>							<shottake></shottake>							<lognote></lognote>						</logginginfo>						<labels>							<label2>Iris</label2>						</labels>					</clip>					<clip id="masterclip-7" explodedTracks="true">						<masterclipid>masterclip-7</masterclipid>						<ismasterclip>TRUE</ismasterclip>						<duration>923</duration>						<rate>							<timebase>25</timebase>							<ntsc>FALSE</ntsc>						</rate>						<in>0</in>						<out>923</out>						<name>A001_06071220_C001</name>						<media>							<video>								<track>									<clipitem id="clipitem-7">										<masterclipid>masterclip-7</masterclipid>										<name>A001_06071220_C001</name>										<rate>											<timebase>25</timebase>											<ntsc>FALSE</ntsc>										</rate>										<alphatype>none</alphatype>										<pixelaspectratio>square</pixelaspectratio>										<anamorphic>FALSE</anamorphic>										<file id="file-7">											<name>A001_06071220_C001</name>											<pathurl>file://localhost/Q%3a/Projects/HAZEN_ALPHA/MEDIA_OCM/DAY%201/A001_06071220_C001.mov</pathurl>											<rate>												<timebase>25</timebase>												<ntsc>FALSE</ntsc>											</rate>											<media>												<video>												</video>												<audio>												</audio>											</media>										</file>									</clipitem>								</track>							</video>   						</media>						<logginginfo>							<description></description>							<scene></scene>							<shottake></shottake>							<lognote></lognote>						</logginginfo>						<labels>							<label2>Iris</label2>						</labels>					</clip>					<clip id="masterclip-8" explodedTracks="true">						<masterclipid>masterclip-8</masterclipid>						<ismasterclip>TRUE</ismasterclip>						<duration>918</duration>						<rate>							<timebase>25</timebase>							<ntsc>FALSE</ntsc>						</rate>						<in>0</in>						<out>918</out>						<name>A001_06071221_C002</name>						<media>							<video>								<track>									<clipitem id="clipitem-8">										<masterclipid>masterclip-8</masterclipid>										<name>A001_06071221_C002</name>										<rate>											<timebase>25</timebase>											<ntsc>FALSE</ntsc>										</rate>										<alphatype>none</alphatype>										<pixelaspectratio>square</pixelaspectratio>										<anamorphic>FALSE</anamorphic>										<file id="file-8">											<name>A001_06071221_C002</name>											<pathurl>file://localhost/Q%3a/Projects/HAZEN_ALPHA/MEDIA_OCM/DAY%201/A001_06071221_C002.mov</pathurl>											<rate>												<timebase>25</timebase>												<ntsc>FALSE</ntsc>											</rate>											<media>												<video>												</video>												<audio>												</audio>											</media>										</file>									</clipitem>								</track>							</video>   						</media>						<logginginfo>							<description></description>							<scene></scene>							<shottake></shottake>							<lognote></lognote>						</logginginfo>						<labels>							<label2>Iris</label2>						</labels>					</clip>					<clip id="masterclip-9" explodedTracks="true">						<masterclipid>masterclip-9</masterclipid>						<ismasterclip>TRUE</ismasterclip>						<duration>1798</duration>						<rate>							<timebase>25</timebase>							<ntsc>FALSE</ntsc>						</rate>						<in>0</in>						<out>1798</out>						<name>A001_06071223_C003</name>						<media>							<video>								<track>									<clipitem id="clipitem-9">										<masterclipid>masterclip-9</masterclipid>										<name>A001_06071223_C003</name>										<rate>											<timebase>25</timebase>											<ntsc>FALSE</ntsc>										</rate>										<alphatype>none</alphatype>										<pixelaspectratio>square</pixelaspectratio>										<anamorphic>FALSE</anamorphic>										<file id="file-9">											<name>A001_06071223_C003</name>											<pathurl>file://localhost/Q%3a/Projects/HAZEN_ALPHA/MEDIA_OCM/DAY%201/A001_06071223_C003.mov</pathurl>											<rate>												<timebase>25</timebase>												<ntsc>FALSE</ntsc>											</rate>											<media>												<video>												</video>												<audio>												</audio>											</media>										</file>									</clipitem>								</track>							</video>   						</media>						<logginginfo>							<description></description>							<scene></scene>							<shottake></shottake>							<lognote></lognote>						</logginginfo>						<labels>							<label2>Iris</label2>						</labels>					</clip>					<clip id="masterclip-10" explodedTracks="true">						<masterclipid>masterclip-10</masterclipid>						<ismasterclip>TRUE</ismasterclip>						<duration>2873</duration>						<rate>							<timebase>25</timebase>							<ntsc>FALSE</ntsc>						</rate>						<in>0</in>						<out>2873</out>						<name>A001_06071229_C004</name>						<media>							<video>								<track>									<clipitem id="clipitem-10">										<masterclipid>masterclip-10</masterclipid>										<name>A001_06071229_C004</name>										<rate>											<timebase>25</timebase>											<ntsc>FALSE</ntsc>										</rate>										<alphatype>none</alphatype>										<pixelaspectratio>square</pixelaspectratio>										<anamorphic>FALSE</anamorphic>										<file id="file-10">											<name>A001_06071229_C004</name>											<pathurl>file://localhost/Q%3a/Projects/HAZEN_ALPHA/MEDIA_OCM/DAY%201/A001_06071229_C004.mov</pathurl>											<rate>												<timebase>25</timebase>												<ntsc>FALSE</ntsc>											</rate>											<media>												<video>												</video>												<audio>												</audio>											</media>										</file>									</clipitem>								</track>							</video>   						</media>						<logginginfo>							<description></description>							<scene></scene>							<shottake></shottake>							<lognote></lognote>						</logginginfo>						<labels>							<label2>Iris</label2>						</labels>					</clip>				</children>			</bin>			<sequence id="sequence-999" TL.SQAudioVisibleBase="0" TL.SQVideoVisibleBase="0" TL.SQVisibleBaseTime="0" TL.SQAVDividerPosition="0.5" TL.SQHideShyTracks="0" TL.SQHeaderWidth="236" Monitor.ProgramZoomOut="1270080000000" Monitor.ProgramZoomIn="0" TL.SQTimePerPixel="0.81967213114754101" MZ.EditLine="32483566080000" MZ.Sequence.PreviewFrameSizeHeight="1080" MZ.Sequence.PreviewFrameSizeWidth="1920" MZ.Sequence.AudioTimeDisplayFormat="200" MZ.Sequence.PreviewRenderingClassID="1297630752" MZ.Sequence.PreviewRenderingPresetCodec="1096180846" MZ.Sequence.PreviewRenderingPresetPath="EncoderPresets\SequencePreview\b39d0224-c728-4ee7-9886-ccf837b5247f\DNX LB 1080p 25.epr" MZ.Sequence.PreviewUseMaxRenderQuality="false" MZ.Sequence.PreviewUseMaxBitDepth="false" MZ.Sequence.EditingModeGUID="b39d0224-c728-4ee7-9886-ccf837b5247f" MZ.Sequence.VideoTimeDisplayFormat="101" MZ.WorkOutPoint="1270080000000" MZ.WorkInPoint="0" explodedTracks="true">				<duration>277611</duration>				<rate>					<timebase>25</timebase>					<ntsc>FALSE</ntsc>				</rate>				<name>TimecodeTools_autoseq_5</name>				<timecode>					<rate>						<timebase>25</timebase>						<ntsc>FALSE</ntsc>					</rate>					<frame>868675</frame>					<displayformat>NDF</displayformat>				</timecode>				<media>					<video>						<format>							<samplecharacteristics>								<rate>									<timebase>25</timebase>									<ntsc>FALSE</ntsc>								</rate>								<codec>									<name>Apple ProRes 422</name>									<appspecificdata>										<appname>Final Cut Pro</appname>										<appmanufacturer>Apple Inc.</appmanufacturer>										<appversion>7.0</appversion>										<data>											<qtcodec>												<codecname>Apple ProRes 422</codecname>												<codectypename>Apple ProRes 422</codectypename>												<codectypecode>apcn</codectypecode>												<codecvendorcode>appl</codecvendorcode>												<spatialquality>1024</spatialquality>												<temporalquality>0</temporalquality>												<keyframerate>0</keyframerate>												<datarate>0</datarate>											</qtcodec>										</data>									</appspecificdata>								</codec>								<width>1920</width>								<height>1080</height>								<anamorphic>FALSE</anamorphic>								<pixelaspectratio>square</pixelaspectratio>								<fielddominance>none</fielddominance>								<colordepth>24</colordepth>							</samplecharacteristics>						</format>                        <track TL.SQTrackShy="0" TL.SQTrackExpandedHeight="25" TL.SQTrackExpanded="0" MZ.TrackTargeted="1">				</track>                        <track TL.SQTrackShy="0" TL.SQTrackExpandedHeight="25" TL.SQTrackExpanded="0" MZ.TrackTargeted="1">							<clipitem id="clipitem-31">								<masterclipid>masterclip-6</masterclipid>								<name>A001_06071243_C005.mov</name>								<enabled>TRUE</enabled>								<duration>601</duration>								<rate>									<timebase>25</timebase>									<ntsc>FALSE</ntsc>								</rate>								<start>277010</start>								<end>277611</end>								<in>0</in>								<out>601</out>								<alphatype>none</alphatype>								<file id="file-6" />								<logginginfo>									<description></description>									<scene></scene>									<shottake></shottake>									<lognote></lognote>								</logginginfo>								<labels>									<label2>Iris</label2>								</labels>							</clipitem>							<clipitem id="clipitem-32">								<masterclipid>masterclip-7</masterclipid>								<name>A001_06071220_C001.mov</name>								<enabled>TRUE</enabled>								<duration>923</duration>								<rate>									<timebase>25</timebase>									<ntsc>FALSE</ntsc>								</rate>								<start>241650</start>								<end>242573</end>								<in>0</in>								<out>923</out>								<alphatype>none</alphatype>								<file id="file-7" />								<logginginfo>									<description></description>									<scene></scene>									<shottake></shottake>									<lognote></lognote>								</logginginfo>								<labels>									<label2>Iris</label2>								</labels>							</clipitem>							<clipitem id="clipitem-33">								<masterclipid>masterclip-8</masterclipid>								<name>A001_06071221_C002.mov</name>								<enabled>TRUE</enabled>								<duration>918</duration>								<rate>									<timebase>25</timebase>									<ntsc>FALSE</ntsc>								</rate>								<start>243576</start>								<end>244494</end>								<in>0</in>								<out>918</out>								<alphatype>none</alphatype>								<file id="file-8" />								<logginginfo>									<description></description>									<scene></scene>									<shottake></shottake>									<lognote></lognote>								</logginginfo>								<labels>									<label2>Iris</label2>								</labels>							</clipitem>							<clipitem id="clipitem-34">								<masterclipid>masterclip-9</masterclipid>								<name>A001_06071223_C003.mov</name>								<enabled>TRUE</enabled>								<duration>1798</duration>								<rate>									<timebase>25</timebase>									<ntsc>FALSE</ntsc>								</rate>								<start>246470</start>								<end>248268</end>								<in>0</in>								<out>1798</out>								<alphatype>none</alphatype>								<file id="file-9" />								<logginginfo>									<description></description>									<scene></scene>									<shottake></shottake>									<lognote></lognote>								</logginginfo>								<labels>									<label2>Iris</label2>								</labels>							</clipitem>							<clipitem id="clipitem-35">								<masterclipid>masterclip-10</masterclipid>								<name>A001_06071229_C004.mov</name>								<enabled>TRUE</enabled>								<duration>2873</duration>								<rate>									<timebase>25</timebase>									<ntsc>FALSE</ntsc>								</rate>								<start>255413</start>								<end>258286</end>								<in>0</in>								<out>2873</out>								<alphatype>none</alphatype>								<file id="file-10" />								<logginginfo>									<description></description>									<scene></scene>									<shottake></shottake>									<lognote></lognote>								</logginginfo>								<labels>									<label2>Iris</label2>								</labels>							</clipitem>				</track>							</video>							<audio>				<track TL.SQTrackAudioKeyframeStyle="0" TL.SQTrackShy="0" TL.SQTrackExpandedHeight="25" TL.SQTrackExpanded="0" MZ.TrackTargeted="1" PannerCurrentValue="0.5" PannerIsInverted="true" PannerStartKeyframe="-91445760000000000,0.5,0,0,0,0,0,0" PannerName="Balance" currentExplodedTrackIndex="0" totalExplodedTrackCount="1" premiereTrackType="Stereo">							<clipitem id="clipitem-11" premiereChannelType="mono">								<masterclipid>masterclip-1</masterclipid>								<name>130619_005.WAV</name>								<enabled>TRUE</enabled>								<duration>1575</duration>								<rate>									<timebase>25</timebase>									<ntsc>FALSE</ntsc>								</rate>								<start>34800</start>								<end>36375</end>								<in>0</in>								<out>1575</out>								<file id="file-1" />								<sourcetrack>									<mediatype>audio</mediatype>									<trackindex>1</trackindex>								</sourcetrack>								<labels>									<label2>Iris</label2>								</labels>							</clipitem>							<clipitem id="clipitem-15" premiereChannelType="mono">								<masterclipid>masterclip-2</masterclipid>								<name>130619_001.WAV</name>								<enabled>TRUE</enabled>								<duration>1200</duration>								<rate>									<timebase>25</timebase>									<ntsc>FALSE</ntsc>								</rate>								<start>0</start>								<end>1200</end>								<in>0</in>								<out>1200</out>								<file id="file-2" />								<sourcetrack>									<mediatype>audio</mediatype>									<trackindex>1</trackindex>								</sourcetrack>								<labels>									<label2>Iris</label2>								</labels>							</clipitem>							<clipitem id="clipitem-19" premiereChannelType="mono">								<masterclipid>masterclip-3</masterclipid>								<name>130619_002.WAV</name>								<enabled>TRUE</enabled>								<duration>1200</duration>								<rate>									<timebase>25</timebase>									<ntsc>FALSE</ntsc>								</rate>								<start>1900</start>								<end>3100</end>								<in>0</in>								<out>1200</out>								<file id="file-3" />								<sourcetrack>									<mediatype>audio</mediatype>									<trackindex>1</trackindex>								</sourcetrack>								<labels>									<label2>Iris</label2>								</labels>							</clipitem>							<clipitem id="clipitem-23" premiereChannelType="mono">								<masterclipid>masterclip-4</masterclipid>								<name>130619_003.WAV</name>								<enabled>TRUE</enabled>								<duration>1975</duration>								<rate>									<timebase>25</timebase>									<ntsc>FALSE</ntsc>								</rate>								<start>4875</start>								<end>6850</end>								<in>0</in>								<out>1975</out>								<file id="file-4" />								<sourcetrack>									<mediatype>audio</mediatype>									<trackindex>1</trackindex>								</sourcetrack>								<labels>									<label2>Iris</label2>								</labels>							</clipitem>							<clipitem id="clipitem-27" premiereChannelType="mono">								<masterclipid>masterclip-5</masterclipid>								<name>130619_004.WAV</name>								<enabled>TRUE</enabled>								<duration>3325</duration>								<rate>									<timebase>25</timebase>									<ntsc>FALSE</ntsc>								</rate>								<start>13800</start>								<end>17125</end>								<in>0</in>								<out>3325</out>								<file id="file-5" />								<sourcetrack>									<mediatype>audio</mediatype>									<trackindex>1</trackindex>								</sourcetrack>								<labels>									<label2>Iris</label2>								</labels>							</clipitem>				</track>				<track TL.SQTrackAudioKeyframeStyle="0" TL.SQTrackShy="0" TL.SQTrackExpandedHeight="25" TL.SQTrackExpanded="0" MZ.TrackTargeted="1" PannerCurrentValue="0.5" PannerIsInverted="true" PannerStartKeyframe="-91445760000000000,0.5,0,0,0,0,0,0" PannerName="Balance" currentExplodedTrackIndex="0" totalExplodedTrackCount="1" premiereTrackType="Stereo">							<clipitem id="clipitem-12" premiereChannelType="mono">								<masterclipid>masterclip-1</masterclipid>								<name>130619_005.WAV</name>								<enabled>TRUE</enabled>								<duration>1575</duration>								<rate>									<timebase>25</timebase>									<ntsc>FALSE</ntsc>								</rate>								<start>34800</start>								<end>36375</end>								<in>0</in>								<out>1575</out>								<file id="file-1" />								<sourcetrack>									<mediatype>audio</mediatype>									<trackindex>2</trackindex>								</sourcetrack>								<labels>									<label2>Iris</label2>								</labels>							</clipitem>							<clipitem id="clipitem-16" premiereChannelType="mono">								<masterclipid>masterclip-2</masterclipid>								<name>130619_001.WAV</name>								<enabled>TRUE</enabled>								<duration>1200</duration>								<rate>									<timebase>25</timebase>									<ntsc>FALSE</ntsc>								</rate>								<start>0</start>								<end>1200</end>								<in>0</in>								<out>1200</out>								<file id="file-2" />								<sourcetrack>									<mediatype>audio</mediatype>									<trackindex>2</trackindex>								</sourcetrack>								<labels>									<label2>Iris</label2>								</labels>							</clipitem>							<clipitem id="clipitem-20" premiereChannelType="mono">								<masterclipid>masterclip-3</masterclipid>								<name>130619_002.WAV</name>								<enabled>TRUE</enabled>								<duration>1200</duration>								<rate>									<timebase>25</timebase>									<ntsc>FALSE</ntsc>								</rate>								<start>1900</start>								<end>3100</end>								<in>0</in>								<out>1200</out>								<file id="file-3" />								<sourcetrack>									<mediatype>audio</mediatype>									<trackindex>2</trackindex>								</sourcetrack>								<labels>									<label2>Iris</label2>								</labels>							</clipitem>							<clipitem id="clipitem-24" premiereChannelType="mono">								<masterclipid>masterclip-4</masterclipid>								<name>130619_003.WAV</name>								<enabled>TRUE</enabled>								<duration>1975</duration>								<rate>									<timebase>25</timebase>									<ntsc>FALSE</ntsc>								</rate>								<start>4875</start>								<end>6850</end>								<in>0</in>								<out>1975</out>								<file id="file-4" />								<sourcetrack>									<mediatype>audio</mediatype>									<trackindex>2</trackindex>								</sourcetrack>								<labels>									<label2>Iris</label2>								</labels>							</clipitem>							<clipitem id="clipitem-28" premiereChannelType="mono">								<masterclipid>masterclip-5</masterclipid>								<name>130619_004.WAV</name>								<enabled>TRUE</enabled>								<duration>3325</duration>								<rate>									<timebase>25</timebase>									<ntsc>FALSE</ntsc>								</rate>								<start>13800</start>								<end>17125</end>								<in>0</in>								<out>3325</out>								<file id="file-5" />								<sourcetrack>									<mediatype>audio</mediatype>									<trackindex>2</trackindex>								</sourcetrack>								<labels>									<label2>Iris</label2>								</labels>							</clipitem>				</track>				<track TL.SQTrackAudioKeyframeStyle="0" TL.SQTrackShy="0" TL.SQTrackExpandedHeight="25" TL.SQTrackExpanded="0" MZ.TrackTargeted="1" PannerCurrentValue="0.5" PannerIsInverted="true" PannerStartKeyframe="-91445760000000000,0.5,0,0,0,0,0,0" PannerName="Balance" currentExplodedTrackIndex="0" totalExplodedTrackCount="1" premiereTrackType="Stereo">							<clipitem id="clipitem-13" premiereChannelType="mono">								<masterclipid>masterclip-1</masterclipid>								<name>130619_005.WAV</name>								<enabled>TRUE</enabled>								<duration>1575</duration>								<rate>									<timebase>25</timebase>									<ntsc>FALSE</ntsc>								</rate>								<start>34800</start>								<end>36375</end>								<in>0</in>								<out>1575</out>								<file id="file-1" />								<sourcetrack>									<mediatype>audio</mediatype>									<trackindex>3</trackindex>								</sourcetrack>								<labels>									<label2>Iris</label2>								</labels>							</clipitem>							<clipitem id="clipitem-17" premiereChannelType="mono">								<masterclipid>masterclip-2</masterclipid>								<name>130619_001.WAV</name>								<enabled>TRUE</enabled>								<duration>1200</duration>								<rate>									<timebase>25</timebase>									<ntsc>FALSE</ntsc>								</rate>								<start>0</start>								<end>1200</end>								<in>0</in>								<out>1200</out>								<file id="file-2" />								<sourcetrack>									<mediatype>audio</mediatype>									<trackindex>3</trackindex>								</sourcetrack>								<labels>									<label2>Iris</label2>								</labels>							</clipitem>							<clipitem id="clipitem-21" premiereChannelType="mono">								<masterclipid>masterclip-3</masterclipid>								<name>130619_002.WAV</name>								<enabled>TRUE</enabled>								<duration>1200</duration>								<rate>									<timebase>25</timebase>									<ntsc>FALSE</ntsc>								</rate>								<start>1900</start>								<end>3100</end>								<in>0</in>								<out>1200</out>								<file id="file-3" />								<sourcetrack>									<mediatype>audio</mediatype>									<trackindex>3</trackindex>								</sourcetrack>								<labels>									<label2>Iris</label2>								</labels>							</clipitem>							<clipitem id="clipitem-25" premiereChannelType="mono">								<masterclipid>masterclip-4</masterclipid>								<name>130619_003.WAV</name>								<enabled>TRUE</enabled>								<duration>1975</duration>								<rate>									<timebase>25</timebase>									<ntsc>FALSE</ntsc>								</rate>								<start>4875</start>								<end>6850</end>								<in>0</in>								<out>1975</out>								<file id="file-4" />								<sourcetrack>									<mediatype>audio</mediatype>									<trackindex>3</trackindex>								</sourcetrack>								<labels>									<label2>Iris</label2>								</labels>							</clipitem>							<clipitem id="clipitem-29" premiereChannelType="mono">								<masterclipid>masterclip-5</masterclipid>								<name>130619_004.WAV</name>								<enabled>TRUE</enabled>								<duration>3325</duration>								<rate>									<timebase>25</timebase>									<ntsc>FALSE</ntsc>								</rate>								<start>13800</start>								<end>17125</end>								<in>0</in>								<out>3325</out>								<file id="file-5" />								<sourcetrack>									<mediatype>audio</mediatype>									<trackindex>3</trackindex>								</sourcetrack>								<labels>									<label2>Iris</label2>								</labels>							</clipitem>				</track>				<track TL.SQTrackAudioKeyframeStyle="0" TL.SQTrackShy="0" TL.SQTrackExpandedHeight="25" TL.SQTrackExpanded="0" MZ.TrackTargeted="1" PannerCurrentValue="0.5" PannerIsInverted="true" PannerStartKeyframe="-91445760000000000,0.5,0,0,0,0,0,0" PannerName="Balance" currentExplodedTrackIndex="0" totalExplodedTrackCount="1" premiereTrackType="Stereo">							<clipitem id="clipitem-14" premiereChannelType="mono">								<masterclipid>masterclip-1</masterclipid>								<name>130619_005.WAV</name>								<enabled>TRUE</enabled>								<duration>1575</duration>								<rate>									<timebase>25</timebase>									<ntsc>FALSE</ntsc>								</rate>								<start>34800</start>								<end>36375</end>								<in>0</in>								<out>1575</out>								<file id="file-1" />								<sourcetrack>									<mediatype>audio</mediatype>									<trackindex>4</trackindex>								</sourcetrack>								<labels>									<label2>Iris</label2>								</labels>							</clipitem>							<clipitem id="clipitem-18" premiereChannelType="mono">								<masterclipid>masterclip-2</masterclipid>								<name>130619_001.WAV</name>								<enabled>TRUE</enabled>								<duration>1200</duration>								<rate>									<timebase>25</timebase>									<ntsc>FALSE</ntsc>								</rate>								<start>0</start>								<end>1200</end>								<in>0</in>								<out>1200</out>								<file id="file-2" />								<sourcetrack>									<mediatype>audio</mediatype>									<trackindex>4</trackindex>								</sourcetrack>								<labels>									<label2>Iris</label2>								</labels>							</clipitem>							<clipitem id="clipitem-22" premiereChannelType="mono">								<masterclipid>masterclip-3</masterclipid>								<name>130619_002.WAV</name>								<enabled>TRUE</enabled>								<duration>1200</duration>								<rate>									<timebase>25</timebase>									<ntsc>FALSE</ntsc>								</rate>								<start>1900</start>								<end>3100</end>								<in>0</in>								<out>1200</out>								<file id="file-3" />								<sourcetrack>									<mediatype>audio</mediatype>									<trackindex>4</trackindex>								</sourcetrack>								<labels>									<label2>Iris</label2>								</labels>							</clipitem>							<clipitem id="clipitem-26" premiereChannelType="mono">								<masterclipid>masterclip-4</masterclipid>								<name>130619_003.WAV</name>								<enabled>TRUE</enabled>								<duration>1975</duration>								<rate>									<timebase>25</timebase>									<ntsc>FALSE</ntsc>								</rate>								<start>4875</start>								<end>6850</end>								<in>0</in>								<out>1975</out>								<file id="file-4" />								<sourcetrack>									<mediatype>audio</mediatype>									<trackindex>4</trackindex>								</sourcetrack>								<labels>									<label2>Iris</label2>								</labels>							</clipitem>							<clipitem id="clipitem-30" premiereChannelType="mono">								<masterclipid>masterclip-5</masterclipid>								<name>130619_004.WAV</name>								<enabled>TRUE</enabled>								<duration>3325</duration>								<rate>									<timebase>25</timebase>									<ntsc>FALSE</ntsc>								</rate>								<start>13800</start>								<end>17125</end>								<in>0</in>								<out>3325</out>								<file id="file-5" />								<sourcetrack>									<mediatype>audio</mediatype>									<trackindex>4</trackindex>								</sourcetrack>								<labels>									<label2>Iris</label2>								</labels>							</clipitem>				</track>							</audio>							</media>			</sequence>		</children>	</bin></xmeml>