<?xml version="1.0" encoding="UTF-8"?><!DOCTYPE xmeml><xmeml version="4">	<bin>		<name>TimecodeTools_autoseq_6</name>		<labels>			<label2>Mango</label2>		</labels>		<children>			<bin>				<name>Bin1</name>				<labels>					<label2>Mango</label2>				</labels>				<children>					<clip id="masterclip-1" explodedTracks="true">						<masterclipid>masterclip-1</masterclipid>						<ismasterclip>TRUE</ismasterclip>						<duration>601</duration>						<rate>							<timebase>25</timebase>							<ntsc>FALSE</ntsc>						</rate>						<in>0</in>						<out>601</out>						<name>A001_06071243_C005</name>						<media>							<video>								<track>									<clipitem id="clipitem-1">										<masterclipid>masterclip-1</masterclipid>										<name>A001_06071243_C005</name>										<rate>											<timebase>25</timebase>											<ntsc>FALSE</ntsc>										</rate>										<alphatype>none</alphatype>										<pixelaspectratio>square</pixelaspectratio>										<anamorphic>FALSE</anamorphic>										<file id="file-1">											<name>A001_06071243_C005</name>											<pathurl>file://localhost/Q%3a/Projects/HAZEN_ALPHA/MEDIA_OCM/DAY%201/A001_06071243_C005.mov</pathurl>											<rate>												<timebase>25</timebase>												<ntsc>FALSE</ntsc>											</rate>											<media>												<video>												</video>												<audio>												</audio>											</media>										</file>									</clipitem>								</track>							</video>   						</media>						<logginginfo>							<description></description>							<scene></scene>							<shottake></shottake>							<lognote></lognote>						</logginginfo>						<labels>							<label2>Iris</label2>						</labels>					</clip>					<clip id="masterclip-2" explodedTracks="true">						<masterclipid>masterclip-2</masterclipid>						<ismasterclip>TRUE</ismasterclip>						<duration>923</duration>						<rate>							<timebase>25</timebase>							<ntsc>FALSE</ntsc>						</rate>						<in>0</in>						<out>923</out>						<name>A001_06071220_C001</name>						<media>							<video>								<track>									<clipitem id="clipitem-2">										<masterclipid>masterclip-2</masterclipid>										<name>A001_06071220_C001</name>										<rate>											<timebase>25</timebase>											<ntsc>FALSE</ntsc>										</rate>										<alphatype>none</alphatype>										<pixelaspectratio>square</pixelaspectratio>										<anamorphic>FALSE</anamorphic>										<file id="file-2">											<name>A001_06071220_C001</name>											<pathurl>file://localhost/Q%3a/Projects/HAZEN_ALPHA/MEDIA_OCM/DAY%201/A001_06071220_C001.mov</pathurl>											<rate>												<timebase>25</timebase>												<ntsc>FALSE</ntsc>											</rate>											<media>												<video>												</video>												<audio>												</audio>											</media>										</file>									</clipitem>								</track>							</video>   						</media>						<logginginfo>							<description></description>							<scene></scene>							<shottake></shottake>							<lognote></lognote>						</logginginfo>						<labels>							<label2>Iris</label2>						</labels>					</clip>					<clip id="masterclip-3" explodedTracks="true">						<masterclipid>masterclip-3</masterclipid>						<ismasterclip>TRUE</ismasterclip>						<duration>918</duration>						<rate>							<timebase>25</timebase>							<ntsc>FALSE</ntsc>						</rate>						<in>0</in>						<out>918</out>						<name>A001_06071221_C002</name>						<media>							<video>								<track>									<clipitem id="clipitem-3">										<masterclipid>masterclip-3</masterclipid>										<name>A001_06071221_C002</name>										<rate>											<timebase>25</timebase>											<ntsc>FALSE</ntsc>										</rate>										<alphatype>none</alphatype>										<pixelaspectratio>square</pixelaspectratio>										<anamorphic>FALSE</anamorphic>										<file id="file-3">											<name>A001_06071221_C002</name>											<pathurl>file://localhost/Q%3a/Projects/HAZEN_ALPHA/MEDIA_OCM/DAY%201/A001_06071221_C002.mov</pathurl>											<rate>												<timebase>25</timebase>												<ntsc>FALSE</ntsc>											</rate>											<media>												<video>												</video>												<audio>												</audio>											</media>										</file>									</clipitem>								</track>							</video>   						</media>						<logginginfo>							<description></description>							<scene></scene>							<shottake></shottake>							<lognote></lognote>						</logginginfo>						<labels>							<label2>Iris</label2>						</labels>					</clip>					<clip id="masterclip-4" explodedTracks="true">						<masterclipid>masterclip-4</masterclipid>						<ismasterclip>TRUE</ismasterclip>						<duration>1798</duration>						<rate>							<timebase>25</timebase>							<ntsc>FALSE</ntsc>						</rate>						<in>0</in>						<out>1798</out>						<name>A001_06071223_C003</name>						<media>							<video>								<track>									<clipitem id="clipitem-4">										<masterclipid>masterclip-4</masterclipid>										<name>A001_06071223_C003</name>										<rate>											<timebase>25</timebase>											<ntsc>FALSE</ntsc>										</rate>										<alphatype>none</alphatype>										<pixelaspectratio>square</pixelaspectratio>										<anamorphic>FALSE</anamorphic>										<file id="file-4">											<name>A001_06071223_C003</name>											<pathurl>file://localhost/Q%3a/Projects/HAZEN_ALPHA/MEDIA_OCM/DAY%201/A001_06071223_C003.mov</pathurl>											<rate>												<timebase>25</timebase>												<ntsc>FALSE</ntsc>											</rate>											<media>												<video>												</video>												<audio>												</audio>											</media>										</file>									</clipitem>								</track>							</video>   						</media>						<logginginfo>							<description></description>							<scene></scene>							<shottake></shottake>							<lognote></lognote>						</logginginfo>						<labels>							<label2>Iris</label2>						</labels>					</clip>					<clip id="masterclip-5" explodedTracks="true">						<masterclipid>masterclip-5</masterclipid>						<ismasterclip>TRUE</ismasterclip>						<duration>2873</duration>						<rate>							<timebase>25</timebase>							<ntsc>FALSE</ntsc>						</rate>						<in>0</in>						<out>2873</out>						<name>A001_06071229_C004</name>						<media>							<video>								<track>									<clipitem id="clipitem-5">										<masterclipid>masterclip-5</masterclipid>										<name>A001_06071229_C004</name>										<rate>											<timebase>25</timebase>											<ntsc>FALSE</ntsc>										</rate>										<alphatype>none</alphatype>										<pixelaspectratio>square</pixelaspectratio>										<anamorphic>FALSE</anamorphic>										<file id="file-5">											<name>A001_06071229_C004</name>											<pathurl>file://localhost/Q%3a/Projects/HAZEN_ALPHA/MEDIA_OCM/DAY%201/A001_06071229_C004.mov</pathurl>											<rate>												<timebase>25</timebase>												<ntsc>FALSE</ntsc>											</rate>											<media>												<video>												</video>												<audio>												</audio>											</media>										</file>									</clipitem>								</track>							</video>   						</media>						<logginginfo>							<description></description>							<scene></scene>							<shottake></shottake>							<lognote></lognote>						</logginginfo>						<labels>							<label2>Iris</label2>						</labels>					</clip>				</children>			</bin>			<sequence id="sequence-999" TL.SQAudioVisibleBase="0" TL.SQVideoVisibleBase="0" TL.SQVisibleBaseTime="0" TL.SQAVDividerPosition="0.5" TL.SQHideShyTracks="0" TL.SQHeaderWidth="236" Monitor.ProgramZoomOut="1270080000000" Monitor.ProgramZoomIn="0" TL.SQTimePerPixel="0.81967213114754101" MZ.EditLine="32483566080000" MZ.Sequence.PreviewFrameSizeHeight="1080" MZ.Sequence.PreviewFrameSizeWidth="1920" MZ.Sequence.AudioTimeDisplayFormat="200" MZ.Sequence.PreviewRenderingClassID="1297630752" MZ.Sequence.PreviewRenderingPresetCodec="1096180846" MZ.Sequence.PreviewRenderingPresetPath="EncoderPresets\SequencePreview\b39d0224-c728-4ee7-9886-ccf837b5247f\DNX LB 1080p 25.epr" MZ.Sequence.PreviewUseMaxRenderQuality="false" MZ.Sequence.PreviewUseMaxBitDepth="false" MZ.Sequence.EditingModeGUID="b39d0224-c728-4ee7-9886-ccf837b5247f" MZ.Sequence.VideoTimeDisplayFormat="101" MZ.WorkOutPoint="1270080000000" MZ.WorkInPoint="0" explodedTracks="true">				<duration>35961</duration>				<rate>					<timebase>25</timebase>					<ntsc>FALSE</ntsc>				</rate>				<name>TimecodeTools_autoseq_6</name>				<timecode>					<rate>						<timebase>25</timebase>						<ntsc>FALSE</ntsc>					</rate>					<frame>1110325</frame>					<displayformat>NDF</displayformat>				</timecode>				<media>					<video>						<format>							<samplecharacteristics>								<rate>									<timebase>25</timebase>									<ntsc>FALSE</ntsc>								</rate>								<codec>									<name>Apple ProRes 422</name>									<appspecificdata>										<appname>Final Cut Pro</appname>										<appmanufacturer>Apple Inc.</appmanufacturer>										<appversion>7.0</appversion>										<data>											<qtcodec>												<codecname>Apple ProRes 422</codecname>												<codectypename>Apple ProRes 422</codectypename>												<codectypecode>apcn</codectypecode>												<codecvendorcode>appl</codecvendorcode>												<spatialquality>1024</spatialquality>												<temporalquality>0</temporalquality>												<keyframerate>0</keyframerate>												<datarate>0</datarate>											</qtcodec>										</data>									</appspecificdata>								</codec>								<width>1920</width>								<height>1080</height>								<anamorphic>FALSE</anamorphic>								<pixelaspectratio>square</pixelaspectratio>								<fielddominance>none</fielddominance>								<colordepth>24</colordepth>							</samplecharacteristics>						</format>                        <track TL.SQTrackShy="0" TL.SQTrackExpandedHeight="25" TL.SQTrackExpanded="0" MZ.TrackTargeted="1">							<clipitem id="clipitem-6">								<masterclipid>masterclip-1</masterclipid>								<name>A001_06071243_C005.mov</name>								<enabled>TRUE</enabled>								<duration>601</duration>								<rate>									<timebase>25</timebase>									<ntsc>FALSE</ntsc>								</rate>								<start>35360</start>								<end>35961</end>								<in>0</in>								<out>601</out>								<alphatype>none</alphatype>								<file id="file-1" />								<logginginfo>									<description></description>									<scene></scene>									<shottake></shottake>									<lognote></lognote>								</logginginfo>								<labels>									<label2>Iris</label2>								</labels>							</clipitem>							<clipitem id="clipitem-9">								<masterclipid>masterclip-2</masterclipid>								<name>A001_06071220_C001.mov</name>								<enabled>TRUE</enabled>								<duration>923</duration>								<rate>									<timebase>25</timebase>									<ntsc>FALSE</ntsc>								</rate>								<start>0</start>								<end>923</end>								<in>0</in>								<out>923</out>								<alphatype>none</alphatype>								<file id="file-2" />								<logginginfo>									<description></description>									<scene></scene>									<shottake></shottake>									<lognote></lognote>								</logginginfo>								<labels>									<label2>Iris</label2>								</labels>							</clipitem>							<clipitem id="clipitem-12">								<masterclipid>masterclip-3</masterclipid>								<name>A001_06071221_C002.mov</name>								<enabled>TRUE</enabled>								<duration>918</duration>								<rate>									<timebase>25</timebase>									<ntsc>FALSE</ntsc>								</rate>								<start>1926</start>								<end>2844</end>								<in>0</in>								<out>918</out>								<alphatype>none</alphatype>								<file id="file-3" />								<logginginfo>									<description></description>									<scene></scene>									<shottake></shottake>									<lognote></lognote>								</logginginfo>								<labels>									<label2>Iris</label2>								</labels>							</clipitem>							<clipitem id="clipitem-15">								<masterclipid>masterclip-4</masterclipid>								<name>A001_06071223_C003.mov</name>								<enabled>TRUE</enabled>								<duration>1798</duration>								<rate>									<timebase>25</timebase>									<ntsc>FALSE</ntsc>								</rate>								<start>4820</start>								<end>6618</end>								<in>0</in>								<out>1798</out>								<alphatype>none</alphatype>								<file id="file-4" />								<logginginfo>									<description></description>									<scene></scene>									<shottake></shottake>									<lognote></lognote>								</logginginfo>								<labels>									<label2>Iris</label2>								</labels>							</clipitem>							<clipitem id="clipitem-18">								<masterclipid>masterclip-5</masterclipid>								<name>A001_06071229_C004.mov</name>								<enabled>TRUE</enabled>								<duration>2873</duration>								<rate>									<timebase>25</timebase>									<ntsc>FALSE</ntsc>								</rate>								<start>13763</start>								<end>16636</end>								<in>0</in>								<out>2873</out>								<alphatype>none</alphatype>								<file id="file-5" />								<logginginfo>									<description></description>									<scene></scene>									<shottake></shottake>									<lognote></lognote>								</logginginfo>								<labels>									<label2>Iris</label2>								</labels>							</clipitem>				</track>							</video>							<audio>				<track TL.SQTrackAudioKeyframeStyle="0" TL.SQTrackShy="0" TL.SQTrackExpandedHeight="25" TL.SQTrackExpanded="0" MZ.TrackTargeted="1" PannerCurrentValue="0.5" PannerIsInverted="true" PannerStartKeyframe="-91445760000000000,0.5,0,0,0,0,0,0" PannerName="Balance" currentExplodedTrackIndex="0" totalExplodedTrackCount="1" premiereTrackType="Stereo">							<clipitem id="clipitem-7" premiereChannelType="mono">								<masterclipid>masterclip-1</masterclipid>								<name>A001_06071243_C005.mov</name>								<enabled>TRUE</enabled>								<duration>601</duration>								<rate>									<timebase>25</timebase>									<ntsc>FALSE</ntsc>								</rate>								<start>35360</start>								<end>35961</end>								<in>0</in>								<out>601</out>								<file id="file-1" />								<sourcetrack>									<mediatype>audio</mediatype>									<trackindex>1</trackindex>								</sourcetrack>								<labels>									<label2>Iris</label2>								</labels>							</clipitem>							<clipitem id="clipitem-10" premiereChannelType="mono">								<masterclipid>masterclip-2</masterclipid>								<name>A001_06071220_C001.mov</name>								<enabled>TRUE</enabled>								<duration>923</duration>								<rate>									<timebase>25</timebase>									<ntsc>FALSE</ntsc>								</rate>								<start>0</start>								<end>923</end>								<in>0</in>								<out>923</out>								<file id="file-2" />								<sourcetrack>									<mediatype>audio</mediatype>									<trackindex>1</trackindex>								</sourcetrack>								<labels>									<label2>Iris</label2>								</labels>							</clipitem>							<clipitem id="clipitem-13" premiereChannelType="mono">								<masterclipid>masterclip-3</masterclipid>								<name>A001_06071221_C002.mov</name>								<enabled>TRUE</enabled>								<duration>918</duration>								<rate>									<timebase>25</timebase>									<ntsc>FALSE</ntsc>								</rate>								<start>1926</start>								<end>2844</end>								<in>0</in>								<out>918</out>								<file id="file-3" />								<sourcetrack>									<mediatype>audio</mediatype>									<trackindex>1</trackindex>								</sourcetrack>								<labels>									<label2>Iris</label2>								</labels>							</clipitem>							<clipitem id="clipitem-16" premiereChannelType="mono">								<masterclipid>masterclip-4</masterclipid>								<name>A001_06071223_C003.mov</name>								<enabled>TRUE</enabled>								<duration>1798</duration>								<rate>									<timebase>25</timebase>									<ntsc>FALSE</ntsc>								</rate>								<start>4820</start>								<end>6618</end>								<in>0</in>								<out>1798</out>								<file id="file-4" />								<sourcetrack>									<mediatype>audio</mediatype>									<trackindex>1</trackindex>								</sourcetrack>								<labels>									<label2>Iris</label2>								</labels>							</clipitem>							<clipitem id="clipitem-19" premiereChannelType="mono">								<masterclipid>masterclip-5</masterclipid>								<name>A001_06071229_C004.mov</name>								<enabled>TRUE</enabled>								<duration>2873</duration>								<rate>									<timebase>25</timebase>									<ntsc>FALSE</ntsc>								</rate>								<start>13763</start>								<end>16636</end>								<in>0</in>								<out>2873</out>								<file id="file-5" />								<sourcetrack>									<mediatype>audio</mediatype>									<trackindex>1</trackindex>								</sourcetrack>								<labels>									<label2>Iris</label2>								</labels>							</clipitem>				</track>				<track TL.SQTrackAudioKeyframeStyle="0" TL.SQTrackShy="0" TL.SQTrackExpandedHeight="25" TL.SQTrackExpanded="0" MZ.TrackTargeted="1" PannerCurrentValue="0.5" PannerIsInverted="true" PannerStartKeyframe="-91445760000000000,0.5,0,0,0,0,0,0" PannerName="Balance" currentExplodedTrackIndex="0" totalExplodedTrackCount="1" premiereTrackType="Stereo">							<clipitem id="clipitem-8" premiereChannelType="mono">								<masterclipid>masterclip-1</masterclipid>								<name>A001_06071243_C005.mov</name>								<enabled>TRUE</enabled>								<duration>601</duration>								<rate>									<timebase>25</timebase>									<ntsc>FALSE</ntsc>								</rate>								<start>35360</start>								<end>35961</end>								<in>0</in>								<out>601</out>								<file id="file-1" />								<sourcetrack>									<mediatype>audio</mediatype>									<trackindex>2</trackindex>								</sourcetrack>								<labels>									<label2>Iris</label2>								</labels>							</clipitem>							<clipitem id="clipitem-11" premiereChannelType="mono">								<masterclipid>masterclip-2</masterclipid>								<name>A001_06071220_C001.mov</name>								<enabled>TRUE</enabled>								<duration>923</duration>								<rate>									<timebase>25</timebase>									<ntsc>FALSE</ntsc>								</rate>								<start>0</start>								<end>923</end>								<in>0</in>								<out>923</out>								<file id="file-2" />								<sourcetrack>									<mediatype>audio</mediatype>									<trackindex>2</trackindex>								</sourcetrack>								<labels>									<label2>Iris</label2>								</labels>							</clipitem>							<clipitem id="clipitem-14" premiereChannelType="mono">								<masterclipid>masterclip-3</masterclipid>								<name>A001_06071221_C002.mov</name>								<enabled>TRUE</enabled>								<duration>918</duration>								<rate>									<timebase>25</timebase>									<ntsc>FALSE</ntsc>								</rate>								<start>1926</start>								<end>2844</end>								<in>0</in>								<out>918</out>								<file id="file-3" />								<sourcetrack>									<mediatype>audio</mediatype>									<trackindex>2</trackindex>								</sourcetrack>								<labels>									<label2>Iris</label2>								</labels>							</clipitem>							<clipitem id="clipitem-17" premiereChannelType="mono">								<masterclipid>masterclip-4</masterclipid>								<name>A001_06071223_C003.mov</name>								<enabled>TRUE</enabled>								<duration>1798</duration>								<rate>									<timebase>25</timebase>									<ntsc>FALSE</ntsc>								</rate>								<start>4820</start>								<end>6618</end>								<in>0</in>								<out>1798</out>								<file id="file-4" />								<sourcetrack>									<mediatype>audio</mediatype>									<trackindex>2</trackindex>								</sourcetrack>								<labels>									<label2>Iris</label2>								</labels>							</clipitem>							<clipitem id="clipitem-20" premiereChannelType="mono">								<masterclipid>masterclip-5</masterclipid>								<name>A001_06071229_C004.mov</name>								<enabled>TRUE</enabled>								<duration>2873</duration>								<rate>									<timebase>25</timebase>									<ntsc>FALSE</ntsc>								</rate>								<start>13763</start>								<end>16636</end>								<in>0</in>								<out>2873</out>								<file id="file-5" />								<sourcetrack>									<mediatype>audio</mediatype>									<trackindex>2</trackindex>								</sourcetrack>								<labels>									<label2>Iris</label2>								</labels>							</clipitem>				</track>							</audio>							</media>			</sequence>		</children>	</bin></xmeml>